%TF.GenerationSoftware,KiCad,Pcbnew,9.0.3*%
%TF.CreationDate,2025-08-09T15:46:20+07:00*%
%TF.ProjectId,Xe B_nh Treo v1.2,58652042-e16e-4682-9054-72656f207631,rev?*%
%TF.SameCoordinates,Original*%
%TF.FileFunction,Soldermask,Top*%
%TF.FilePolarity,Negative*%
%FSLAX46Y46*%
G04 Gerber Fmt 4.6, Leading zero omitted, Abs format (unit mm)*
G04 Created by KiCad (PCBNEW 9.0.3) date 2025-08-09 15:46:20*
%MOMM*%
%LPD*%
G01*
G04 APERTURE LIST*
G04 Aperture macros list*
%AMRoundRect*
0 Rectangle with rounded corners*
0 $1 Rounding radius*
0 $2 $3 $4 $5 $6 $7 $8 $9 X,Y pos of 4 corners*
0 Add a 4 corners polygon primitive as box body*
4,1,4,$2,$3,$4,$5,$6,$7,$8,$9,$2,$3,0*
0 Add four circle primitives for the rounded corners*
1,1,$1+$1,$2,$3*
1,1,$1+$1,$4,$5*
1,1,$1+$1,$6,$7*
1,1,$1+$1,$8,$9*
0 Add four rect primitives between the rounded corners*
20,1,$1+$1,$2,$3,$4,$5,0*
20,1,$1+$1,$4,$5,$6,$7,0*
20,1,$1+$1,$6,$7,$8,$9,0*
20,1,$1+$1,$8,$9,$2,$3,0*%
G04 Aperture macros list end*
%ADD10C,0.010000*%
%ADD11RoundRect,0.250000X0.450000X-0.262500X0.450000X0.262500X-0.450000X0.262500X-0.450000X-0.262500X0*%
%ADD12RoundRect,0.250000X0.262500X0.450000X-0.262500X0.450000X-0.262500X-0.450000X0.262500X-0.450000X0*%
%ADD13RoundRect,0.250000X-0.475000X0.250000X-0.475000X-0.250000X0.475000X-0.250000X0.475000X0.250000X0*%
%ADD14RoundRect,0.250000X-0.262500X-0.450000X0.262500X-0.450000X0.262500X0.450000X-0.262500X0.450000X0*%
%ADD15RoundRect,0.250000X0.475000X-0.250000X0.475000X0.250000X-0.475000X0.250000X-0.475000X-0.250000X0*%
%ADD16C,1.575600*%
%ADD17RoundRect,0.250000X0.250000X0.475000X-0.250000X0.475000X-0.250000X-0.475000X0.250000X-0.475000X0*%
%ADD18RoundRect,0.102000X-0.787500X-0.787500X0.787500X-0.787500X0.787500X0.787500X-0.787500X0.787500X0*%
%ADD19C,1.779000*%
%ADD20C,2.000000*%
%ADD21RoundRect,0.250000X1.000000X-1.950000X1.000000X1.950000X-1.000000X1.950000X-1.000000X-1.950000X0*%
%ADD22RoundRect,0.102000X1.275000X1.275000X-1.275000X1.275000X-1.275000X-1.275000X1.275000X-1.275000X0*%
%ADD23C,2.754000*%
%ADD24RoundRect,0.250000X-0.250000X-0.475000X0.250000X-0.475000X0.250000X0.475000X-0.250000X0.475000X0*%
%ADD25RoundRect,0.102000X0.535000X-1.080000X0.535000X1.080000X-0.535000X1.080000X-0.535000X-1.080000X0*%
%ADD26R,2.200000X1.500000*%
%ADD27RoundRect,0.250000X-0.450000X0.262500X-0.450000X-0.262500X0.450000X-0.262500X0.450000X0.262500X0*%
%ADD28RoundRect,0.102000X1.905000X0.400000X-1.905000X0.400000X-1.905000X-0.400000X1.905000X-0.400000X0*%
%ADD29RoundRect,0.102000X4.145000X5.035000X-4.145000X5.035000X-4.145000X-5.035000X4.145000X-5.035000X0*%
%ADD30RoundRect,0.102000X-0.775000X1.125000X-0.775000X-1.125000X0.775000X-1.125000X0.775000X1.125000X0*%
%ADD31RoundRect,0.102000X-0.754000X-0.754000X0.754000X-0.754000X0.754000X0.754000X-0.754000X0.754000X0*%
%ADD32C,1.712000*%
%ADD33RoundRect,0.102000X-1.500000X-1.500000X1.500000X-1.500000X1.500000X1.500000X-1.500000X1.500000X0*%
%ADD34C,3.204000*%
%ADD35C,1.600000*%
%ADD36RoundRect,0.250000X1.500000X0.550000X-1.500000X0.550000X-1.500000X-0.550000X1.500000X-0.550000X0*%
%ADD37RoundRect,0.102000X-1.016000X0.330200X-1.016000X-0.330200X1.016000X-0.330200X1.016000X0.330200X0*%
%ADD38RoundRect,0.150000X-0.150000X0.512500X-0.150000X-0.512500X0.150000X-0.512500X0.150000X0.512500X0*%
%ADD39RoundRect,0.102000X-0.736600X-0.177800X0.736600X-0.177800X0.736600X0.177800X-0.736600X0.177800X0*%
%ADD40RoundRect,0.243750X-0.456250X0.243750X-0.456250X-0.243750X0.456250X-0.243750X0.456250X0.243750X0*%
%ADD41RoundRect,0.102000X0.754000X0.754000X-0.754000X0.754000X-0.754000X-0.754000X0.754000X-0.754000X0*%
%ADD42R,1.500000X2.200000*%
%ADD43RoundRect,0.099250X0.727750X0.297750X-0.727750X0.297750X-0.727750X-0.297750X0.727750X-0.297750X0*%
G04 APERTURE END LIST*
D10*
%TO.C,U3.2*%
X142770000Y-52862500D02*
X141720000Y-52862500D01*
X141720000Y-59062500D01*
X132820000Y-59062500D01*
X132820000Y-52862500D01*
X131770000Y-52862500D01*
X131770000Y-51192500D01*
X142770000Y-51192500D01*
X142770000Y-52862500D01*
G36*
X142770000Y-52862500D02*
G01*
X141720000Y-52862500D01*
X141720000Y-59062500D01*
X132820000Y-59062500D01*
X132820000Y-52862500D01*
X131770000Y-52862500D01*
X131770000Y-51192500D01*
X142770000Y-51192500D01*
X142770000Y-52862500D01*
G37*
%TO.C,U3.1*%
X142770000Y-28160000D02*
X141720000Y-28160000D01*
X141720000Y-34360000D01*
X132820000Y-34360000D01*
X132820000Y-28160000D01*
X131770000Y-28160000D01*
X131770000Y-26490000D01*
X142770000Y-26490000D01*
X142770000Y-28160000D01*
G36*
X142770000Y-28160000D02*
G01*
X141720000Y-28160000D01*
X141720000Y-34360000D01*
X132820000Y-34360000D01*
X132820000Y-28160000D01*
X131770000Y-28160000D01*
X131770000Y-26490000D01*
X142770000Y-26490000D01*
X142770000Y-28160000D01*
G37*
%TD*%
D11*
%TO.C,R3.2*%
X137360000Y-46457500D03*
X137360000Y-44632500D03*
%TD*%
D12*
%TO.C,R4.5*%
X83411000Y-75423478D03*
X81586000Y-75423478D03*
%TD*%
%TO.C,R4.12*%
X87165000Y-38300000D03*
X85340000Y-38300000D03*
%TD*%
D13*
%TO.C,C3.3*%
X129860000Y-31000000D03*
X129860000Y-32900000D03*
%TD*%
D14*
%TO.C,R4.4*%
X85340000Y-60615000D03*
X87165000Y-60615000D03*
%TD*%
%TO.C,R4.8*%
X85348500Y-71260000D03*
X87173500Y-71260000D03*
%TD*%
D15*
%TO.C,C1.5*%
X70105000Y-33340000D03*
X70105000Y-31440000D03*
%TD*%
D16*
%TO.C,L3.2*%
X144227500Y-59660000D03*
X149757500Y-59600000D03*
%TD*%
D12*
%TO.C,R4.9*%
X83402500Y-42627391D03*
X81577500Y-42627391D03*
%TD*%
D17*
%TO.C,C4.5*%
X87182500Y-40435000D03*
X85282500Y-40435000D03*
%TD*%
%TO.C,C4.2*%
X87182500Y-64668044D03*
X85282500Y-64668044D03*
%TD*%
D15*
%TO.C,C1.7*%
X80740000Y-33340000D03*
X80740000Y-31440000D03*
%TD*%
D18*
%TO.C,J1.1*%
X131010000Y-89940000D03*
D19*
X128510000Y-89940000D03*
%TD*%
D20*
%TO.C,C3.11*%
X123550000Y-60550000D03*
D21*
X123550000Y-60370000D03*
D20*
X123550000Y-52970000D03*
D21*
X123550000Y-52970000D03*
%TD*%
D12*
%TO.C,R4.13*%
X83370000Y-54158478D03*
X81545000Y-54158478D03*
%TD*%
D17*
%TO.C,C4.4*%
X87191000Y-75398478D03*
X85291000Y-75398478D03*
%TD*%
D22*
%TO.C,J5.3*%
X105900000Y-33910000D03*
D23*
X100900000Y-33910000D03*
X95900000Y-33910000D03*
%TD*%
D24*
%TO.C,C1.8*%
X103862500Y-75540000D03*
X105762500Y-75540000D03*
%TD*%
D25*
%TO.C,U3.2*%
X133870000Y-65462500D03*
X135570000Y-65462500D03*
X137270000Y-65462500D03*
X138970000Y-65462500D03*
X140670000Y-65462500D03*
%TD*%
D17*
%TO.C,C4.3*%
X87191000Y-73310000D03*
X85291000Y-73310000D03*
%TD*%
D26*
%TO.C,L3.3*%
X109730000Y-54070000D03*
X109730000Y-60470000D03*
%TD*%
D14*
%TO.C,R2.3*%
X99447500Y-71490000D03*
X101272500Y-71490000D03*
%TD*%
D13*
%TO.C,C3.8*%
X109712500Y-40075000D03*
X109712500Y-41975000D03*
%TD*%
D24*
%TO.C,C3.17*%
X132060000Y-78540000D03*
X133960000Y-78540000D03*
%TD*%
D27*
%TO.C,R1.1*%
X72110000Y-31452500D03*
X72110000Y-33277500D03*
%TD*%
D12*
%TO.C,R4.2*%
X83402500Y-62660000D03*
X81577500Y-62660000D03*
%TD*%
D16*
%TO.C,L3.1*%
X144350000Y-34860000D03*
X149880000Y-34800000D03*
%TD*%
D12*
%TO.C,R4.11*%
X83402500Y-38300000D03*
X81577500Y-38300000D03*
%TD*%
D27*
%TO.C,R3.8*%
X135380000Y-69117500D03*
X135380000Y-70942500D03*
%TD*%
D28*
%TO.C,U4.4*%
X77800000Y-55230000D03*
X77800000Y-53960000D03*
X77800000Y-52690000D03*
X77800000Y-51420000D03*
X77800000Y-50150000D03*
X77800000Y-48880000D03*
X77800000Y-47610000D03*
D29*
X68140000Y-51420000D03*
%TD*%
D12*
%TO.C,R4.10*%
X83402500Y-40460000D03*
X81577500Y-40460000D03*
%TD*%
D30*
%TO.C,D1*%
X129810000Y-35510000D03*
X129810000Y-39510000D03*
%TD*%
D28*
%TO.C,U4.1*%
X77800000Y-66100000D03*
X77800000Y-64830000D03*
X77800000Y-63560000D03*
X77800000Y-62290000D03*
X77800000Y-61020000D03*
X77800000Y-59750000D03*
X77800000Y-58480000D03*
D29*
X68140000Y-62290000D03*
%TD*%
D24*
%TO.C,C2.1*%
X99430000Y-69450000D03*
X101330000Y-69450000D03*
%TD*%
%TO.C,C2.2*%
X99430000Y-67420000D03*
X101330000Y-67420000D03*
%TD*%
%TO.C,C1.1*%
X103922500Y-67430000D03*
X105822500Y-67430000D03*
%TD*%
D27*
%TO.C,R3.6*%
X111790000Y-49435000D03*
X111790000Y-51260000D03*
%TD*%
D13*
%TO.C,C3.13*%
X129860000Y-55730000D03*
X129860000Y-57630000D03*
%TD*%
D31*
%TO.C,J5.6*%
X114930000Y-89940000D03*
D32*
X112430000Y-89940000D03*
X109930000Y-89940000D03*
X107430000Y-89940000D03*
X104930000Y-89940000D03*
X102430000Y-89940000D03*
%TD*%
D14*
%TO.C,R1.2*%
X103940000Y-71520000D03*
X105765000Y-71520000D03*
%TD*%
D31*
%TO.C,J5.2*%
X146690000Y-89900000D03*
D32*
X144190000Y-89900000D03*
X141690000Y-89900000D03*
X139190000Y-89900000D03*
X136690000Y-89900000D03*
%TD*%
D28*
%TO.C,U4.3*%
X77800000Y-44370000D03*
X77800000Y-43100000D03*
X77800000Y-41830000D03*
X77800000Y-40560000D03*
X77800000Y-39290000D03*
X77800000Y-38020000D03*
X77800000Y-36750000D03*
D29*
X68140000Y-40560000D03*
%TD*%
D15*
%TO.C,C3.12*%
X129860000Y-53650000D03*
X129860000Y-51750000D03*
%TD*%
D33*
%TO.C,J5.5*%
X70320000Y-82262500D03*
D34*
X75320000Y-82262500D03*
%TD*%
D35*
%TO.C,C1*%
X115100000Y-81090000D03*
D36*
X114940000Y-81100000D03*
X109340000Y-81100000D03*
D35*
X109270000Y-81110000D03*
%TD*%
D27*
%TO.C,R1.4*%
X78700000Y-31452500D03*
X78700000Y-33277500D03*
%TD*%
D20*
%TO.C,C3.1*%
X123550000Y-34290000D03*
D21*
X123550000Y-34290000D03*
D20*
X123550000Y-26890000D03*
D21*
X123550000Y-26890000D03*
%TD*%
D27*
%TO.C,R3.7*%
X109732500Y-49435000D03*
X109732500Y-51260000D03*
%TD*%
D24*
%TO.C,C1.10*%
X103910000Y-69500000D03*
X105810000Y-69500000D03*
%TD*%
D12*
%TO.C,R4.16*%
X87132500Y-49950000D03*
X85307500Y-49950000D03*
%TD*%
D37*
%TO.C,U1.1*%
X108816600Y-66986900D03*
X108816600Y-68256900D03*
X108816600Y-69526900D03*
X108816600Y-70796900D03*
X108816600Y-72066900D03*
X108816600Y-73336900D03*
X108816600Y-74606900D03*
X108816600Y-75876900D03*
X114963400Y-75876900D03*
X114963400Y-74606900D03*
X114963400Y-73336900D03*
X114963400Y-72066900D03*
X114963400Y-70796900D03*
X114963400Y-69526900D03*
X114963400Y-68256900D03*
X114963400Y-66986900D03*
%TD*%
D12*
%TO.C,R4.15*%
X83370000Y-49950000D03*
X81545000Y-49950000D03*
%TD*%
D11*
%TO.C,R3.10*%
X137360000Y-70942500D03*
X137360000Y-69117500D03*
%TD*%
D38*
%TO.C,U3.3*%
X111015000Y-44650000D03*
X110065000Y-44650000D03*
X109115000Y-44650000D03*
X109115000Y-46925000D03*
X110065000Y-46925000D03*
X111015000Y-46925000D03*
%TD*%
D39*
%TO.C,U2.1*%
X91338000Y-67752200D03*
X91338000Y-68387200D03*
X91338000Y-69047600D03*
X91338000Y-69682600D03*
X91338000Y-70343000D03*
X91338000Y-71003400D03*
X91338000Y-71638400D03*
X91338000Y-72298800D03*
X91338000Y-72933800D03*
X91338000Y-73594200D03*
X91338000Y-74254600D03*
X91338000Y-74889600D03*
X91338000Y-75550000D03*
X91338000Y-76185000D03*
X97180000Y-76185000D03*
X97180000Y-75550000D03*
X97180000Y-74889600D03*
X97180000Y-74254600D03*
X97180000Y-73594200D03*
X97180000Y-72933800D03*
X97180000Y-72298800D03*
X97180000Y-71638400D03*
X97180000Y-71003400D03*
X97180000Y-70343000D03*
X97180000Y-69682600D03*
X97180000Y-69047600D03*
X97180000Y-68387200D03*
X97180000Y-67752200D03*
%TD*%
D17*
%TO.C,C4.7*%
X87150000Y-52030000D03*
X85250000Y-52030000D03*
%TD*%
D33*
%TO.C,J5.4*%
X81000000Y-82262500D03*
D34*
X86000000Y-82262500D03*
%TD*%
D20*
%TO.C,C3.9*%
X99140000Y-60570000D03*
D21*
X99160000Y-60370000D03*
D20*
X99160000Y-52970000D03*
D21*
X99160000Y-52970000D03*
%TD*%
D20*
%TO.C,C3.5*%
X123540000Y-47920000D03*
D21*
X123550000Y-47810000D03*
X123550000Y-40410000D03*
D20*
X123550000Y-40390000D03*
%TD*%
D15*
%TO.C,C1.4*%
X74120000Y-33340000D03*
X74120000Y-31440000D03*
%TD*%
D40*
%TO.C,D3.1*%
X141480000Y-44607500D03*
X141480000Y-46482500D03*
%TD*%
D15*
%TO.C,C3.4*%
X133320000Y-46520000D03*
X133320000Y-44620000D03*
%TD*%
D17*
%TO.C,C3.18*%
X133960000Y-82665000D03*
X132060000Y-82665000D03*
%TD*%
D15*
%TO.C,C3.10*%
X111830000Y-41975000D03*
X111830000Y-40075000D03*
%TD*%
D20*
%TO.C,C3.15*%
X123550000Y-74670000D03*
D21*
X123550000Y-74370000D03*
D20*
X123550000Y-66970000D03*
D21*
X123550000Y-66970000D03*
%TD*%
D41*
%TO.C,J5.1*%
X71680000Y-26350000D03*
D32*
X74180000Y-26350000D03*
X76680000Y-26350000D03*
X79180000Y-26350000D03*
X81680000Y-26350000D03*
X84180000Y-26350000D03*
X86680000Y-26350000D03*
X89180000Y-26350000D03*
%TD*%
D25*
%TO.C,U3.1*%
X133870000Y-40760000D03*
X135570000Y-40760000D03*
X137270000Y-40760000D03*
X138970000Y-40760000D03*
X140670000Y-40760000D03*
%TD*%
D17*
%TO.C,C4.8*%
X87150000Y-54133478D03*
X85250000Y-54133478D03*
%TD*%
D12*
%TO.C,R4.1*%
X83402500Y-64701522D03*
X81577500Y-64701522D03*
%TD*%
D27*
%TO.C,R3.1*%
X135380000Y-44632500D03*
X135380000Y-46457500D03*
%TD*%
D17*
%TO.C,C4.6*%
X87182500Y-42602391D03*
X85282500Y-42602391D03*
%TD*%
%TO.C,C4.1*%
X87182500Y-62635000D03*
X85282500Y-62635000D03*
%TD*%
D42*
%TO.C,L3.4*%
X136330000Y-81580000D03*
X142730000Y-81580000D03*
%TD*%
D13*
%TO.C,C3.20*%
X146605000Y-44620000D03*
X146605000Y-46520000D03*
%TD*%
D20*
%TO.C,C3.6*%
X99220000Y-47950000D03*
D21*
X99220000Y-47810000D03*
D20*
X99220000Y-40410000D03*
D21*
X99220000Y-40410000D03*
%TD*%
D11*
%TO.C,R2.1*%
X93270000Y-65780000D03*
X93270000Y-63955000D03*
%TD*%
D13*
%TO.C,C3.21*%
X146605000Y-69105000D03*
X146605000Y-71005000D03*
%TD*%
D40*
%TO.C,D3.2*%
X141480000Y-69092500D03*
X141480000Y-70967500D03*
%TD*%
D13*
%TO.C,C1.3*%
X117580000Y-68880000D03*
X117580000Y-70780000D03*
%TD*%
D14*
%TO.C,R3.16*%
X123325000Y-82680000D03*
X125150000Y-82680000D03*
%TD*%
D41*
%TO.C,J5.7*%
X91902500Y-88877500D03*
D32*
X94402500Y-88877500D03*
X96902500Y-88877500D03*
%TD*%
D43*
%TO.C,U3.4*%
X129762500Y-82210000D03*
X129762500Y-81260000D03*
X129762500Y-80310000D03*
X127452500Y-80310000D03*
X127452500Y-81260000D03*
X127452500Y-82210000D03*
%TD*%
D12*
%TO.C,R4.14*%
X83370000Y-52055000D03*
X81545000Y-52055000D03*
%TD*%
D11*
%TO.C,R3.4*%
X139405000Y-46457500D03*
X139405000Y-44632500D03*
%TD*%
D28*
%TO.C,U4.2*%
X77808500Y-76930000D03*
X77808500Y-75660000D03*
X77808500Y-74390000D03*
X77808500Y-73120000D03*
X77808500Y-71850000D03*
X77808500Y-70580000D03*
X77808500Y-69310000D03*
D29*
X68148500Y-73120000D03*
%TD*%
D15*
%TO.C,C3.14*%
X133320000Y-71005000D03*
X133320000Y-69105000D03*
%TD*%
D24*
%TO.C,C1\u002C9*%
X103862500Y-73520000D03*
X105762500Y-73520000D03*
%TD*%
D12*
%TO.C,R3.13*%
X125150000Y-80625000D03*
X123325000Y-80625000D03*
%TD*%
%TO.C,R4.3*%
X83402500Y-60615000D03*
X81577500Y-60615000D03*
%TD*%
D11*
%TO.C,R2.2*%
X95300000Y-65780000D03*
X95300000Y-63955000D03*
%TD*%
D12*
%TO.C,R4.7*%
X83411000Y-71260000D03*
X81586000Y-71260000D03*
%TD*%
D15*
%TO.C,C3.2*%
X129860000Y-28910000D03*
X129860000Y-27010000D03*
%TD*%
%TO.C,C3.7*%
X107610000Y-41975000D03*
X107610000Y-40075000D03*
%TD*%
D17*
%TO.C,C3.19*%
X133960000Y-84695000D03*
X132060000Y-84695000D03*
%TD*%
D30*
%TO.C,D4*%
X129720000Y-60240000D03*
X129720000Y-64240000D03*
%TD*%
D13*
%TO.C,C1.6*%
X76640000Y-31440000D03*
X76640000Y-33340000D03*
%TD*%
D18*
%TO.C,J1.2*%
X122977500Y-89940000D03*
D19*
X120477500Y-89940000D03*
%TD*%
D27*
%TO.C,R3.5*%
X107690000Y-49435000D03*
X107690000Y-51260000D03*
%TD*%
%TO.C,R1.3*%
X117580000Y-73597500D03*
X117580000Y-75422500D03*
%TD*%
D12*
%TO.C,R4.6*%
X83411000Y-73335000D03*
X81586000Y-73335000D03*
%TD*%
D24*
%TO.C,C3.16*%
X132060000Y-80610000D03*
X133960000Y-80610000D03*
%TD*%
D11*
%TO.C,R3.11*%
X139405000Y-70942500D03*
X139405000Y-69117500D03*
%TD*%
M02*
