%TF.GenerationSoftware,KiCad,Pcbnew,9.0.3*%
%TF.CreationDate,2025-08-09T15:46:20+07:00*%
%TF.ProjectId,Xe B_nh Treo v1.2,58652042-e16e-4682-9054-72656f207631,rev?*%
%TF.SameCoordinates,Original*%
%TF.FileFunction,Copper,L2,Bot*%
%TF.FilePolarity,Positive*%
%FSLAX46Y46*%
G04 Gerber Fmt 4.6, Leading zero omitted, Abs format (unit mm)*
G04 Created by KiCad (PCBNEW 9.0.3) date 2025-08-09 15:46:20*
%MOMM*%
%LPD*%
G01*
G04 APERTURE LIST*
%TA.AperFunction,ComponentPad*%
%ADD10C,1.371600*%
%TD*%
%TA.AperFunction,ComponentPad*%
%ADD11R,1.575000X1.575000*%
%TD*%
%TA.AperFunction,ComponentPad*%
%ADD12C,1.575000*%
%TD*%
%TA.AperFunction,ComponentPad*%
%ADD13C,2.000000*%
%TD*%
%TA.AperFunction,ComponentPad*%
%ADD14R,2.550000X2.550000*%
%TD*%
%TA.AperFunction,ComponentPad*%
%ADD15C,2.550000*%
%TD*%
%TA.AperFunction,ComponentPad*%
%ADD16R,1.508000X1.508000*%
%TD*%
%TA.AperFunction,ComponentPad*%
%ADD17C,1.508000*%
%TD*%
%TA.AperFunction,ComponentPad*%
%ADD18R,3.000000X3.000000*%
%TD*%
%TA.AperFunction,ComponentPad*%
%ADD19C,3.000000*%
%TD*%
%TA.AperFunction,ComponentPad*%
%ADD20C,1.600000*%
%TD*%
%TA.AperFunction,ViaPad*%
%ADD21C,0.900000*%
%TD*%
%TA.AperFunction,ViaPad*%
%ADD22C,0.700000*%
%TD*%
%TA.AperFunction,ViaPad*%
%ADD23C,0.800000*%
%TD*%
%TA.AperFunction,ViaPad*%
%ADD24C,1.000000*%
%TD*%
%TA.AperFunction,ViaPad*%
%ADD25C,3.000000*%
%TD*%
%TA.AperFunction,ViaPad*%
%ADD26C,0.600000*%
%TD*%
%TA.AperFunction,Conductor*%
%ADD27C,0.300000*%
%TD*%
%TA.AperFunction,Conductor*%
%ADD28C,0.500000*%
%TD*%
%TA.AperFunction,Conductor*%
%ADD29C,1.000000*%
%TD*%
%TA.AperFunction,Conductor*%
%ADD30C,0.800000*%
%TD*%
%TA.AperFunction,Conductor*%
%ADD31C,2.000000*%
%TD*%
G04 APERTURE END LIST*
D10*
%TO.P,L3.2,1*%
%TO.N,Net-(U3.2-SW)*%
X144227500Y-59660000D03*
%TO.P,L3.2,2*%
%TO.N,/5V_NV*%
X149757500Y-59600000D03*
%TD*%
D11*
%TO.P,J1.1,1,1*%
%TO.N,/-OUT_L*%
X131010000Y-89940000D03*
D12*
%TO.P,J1.1,2,2*%
%TO.N,/+OUT_L*%
X128510000Y-89940000D03*
%TD*%
D13*
%TO.P,C3.11,1*%
%TO.N,/12V_DC*%
X123550000Y-60550000D03*
%TO.P,C3.11,2*%
%TO.N,GND*%
X123550000Y-52970000D03*
%TD*%
D14*
%TO.P,J5.3,1,1*%
%TO.N,/12V_DC*%
X105900000Y-33910000D03*
D15*
%TO.P,J5.3,2,2*%
%TO.N,GND*%
X100900000Y-33910000D03*
%TO.P,J5.3,3,3*%
%TO.N,/12V_DC*%
X95900000Y-33910000D03*
%TD*%
D10*
%TO.P,L3.1,1*%
%TO.N,Net-(U3.1-SW)*%
X144350000Y-34860000D03*
%TO.P,L3.1,2*%
%TO.N,/5V_DC*%
X149880000Y-34800000D03*
%TD*%
D16*
%TO.P,J5.6,1,1*%
%TO.N,/LED2*%
X114930000Y-89940000D03*
D17*
%TO.P,J5.6,2,2*%
%TO.N,GND*%
X112430000Y-89940000D03*
%TO.P,J5.6,3,3*%
%TO.N,/5V_DC*%
X109930000Y-89940000D03*
%TO.P,J5.6,4,4*%
%TO.N,/LED1*%
X107430000Y-89940000D03*
%TO.P,J5.6,5,5*%
%TO.N,GND*%
X104930000Y-89940000D03*
%TO.P,J5.6,6,6*%
%TO.N,/5V_DC*%
X102430000Y-89940000D03*
%TD*%
D16*
%TO.P,J5.2,1,1*%
%TO.N,/5V_NV*%
X146690000Y-89900000D03*
D17*
%TO.P,J5.2,2,2*%
%TO.N,/5V_MCU*%
X144190000Y-89900000D03*
%TO.P,J5.2,3,3*%
%TO.N,GND*%
X141690000Y-89900000D03*
%TO.P,J5.2,4,4*%
X139190000Y-89900000D03*
%TO.P,J5.2,5,5*%
%TO.N,/3.3V_NV*%
X136690000Y-89900000D03*
%TD*%
D18*
%TO.P,J5.5,1,1*%
%TO.N,/+MT2*%
X70320000Y-82262500D03*
D19*
%TO.P,J5.5,2,2*%
%TO.N,/-MT2*%
X75320000Y-82262500D03*
%TD*%
D20*
%TO.P,C1,1*%
%TO.N,/5V_DC*%
X115100000Y-81090000D03*
%TO.P,C1,2*%
%TO.N,GND*%
X109270000Y-81110000D03*
%TD*%
D13*
%TO.P,C3.1,1*%
%TO.N,/12V_DC*%
X123550000Y-34290000D03*
%TO.P,C3.1,2*%
%TO.N,GND*%
X123550000Y-26890000D03*
%TD*%
D18*
%TO.P,J5.4,1,1*%
%TO.N,/-MT1*%
X81000000Y-82262500D03*
D19*
%TO.P,J5.4,2,2*%
%TO.N,/+MT1*%
X86000000Y-82262500D03*
%TD*%
D13*
%TO.P,C3.9,1*%
%TO.N,/5V_MCU*%
X99140000Y-60570000D03*
%TO.P,C3.9,2*%
%TO.N,GND*%
X99160000Y-52970000D03*
%TD*%
%TO.P,C3.5,1*%
%TO.N,/5V_DC*%
X123540000Y-47920000D03*
%TO.P,C3.5,2*%
%TO.N,GND*%
X123550000Y-40390000D03*
%TD*%
%TO.P,C3.15,1*%
%TO.N,/5V_NV*%
X123550000Y-74670000D03*
%TO.P,C3.15,2*%
%TO.N,GND*%
X123550000Y-66970000D03*
%TD*%
D16*
%TO.P,J5.1,1,1*%
%TO.N,/INL*%
X71680000Y-26350000D03*
D17*
%TO.P,J5.1,2,2*%
%TO.N,GND*%
X74180000Y-26350000D03*
%TO.P,J5.1,3,3*%
%TO.N,/INR*%
X76680000Y-26350000D03*
%TO.P,J5.1,4,4*%
%TO.N,GND*%
X79180000Y-26350000D03*
%TO.P,J5.1,5,5*%
%TO.N,/SCL*%
X81680000Y-26350000D03*
%TO.P,J5.1,6,6*%
%TO.N,/SDA*%
X84180000Y-26350000D03*
%TO.P,J5.1,7,7*%
%TO.N,/LED1*%
X86680000Y-26350000D03*
%TO.P,J5.1,8,8*%
%TO.N,/LED2*%
X89180000Y-26350000D03*
%TD*%
D13*
%TO.P,C3.6,1*%
%TO.N,/12V_DC*%
X99220000Y-47950000D03*
%TO.P,C3.6,2*%
%TO.N,GND*%
X99220000Y-40410000D03*
%TD*%
D16*
%TO.P,J5.7,1,1*%
%TO.N,/12V_DC*%
X91902500Y-88877500D03*
D17*
%TO.P,J5.7,2,2*%
%TO.N,GND*%
X94402500Y-88877500D03*
%TO.P,J5.7,3,3*%
%TO.N,/12V_DC*%
X96902500Y-88877500D03*
%TD*%
D11*
%TO.P,J1.2,1,1*%
%TO.N,/+OUT_R*%
X122977500Y-89940000D03*
D12*
%TO.P,J1.2,2,2*%
%TO.N,/-OUT_R*%
X120477500Y-89940000D03*
%TD*%
D21*
%TO.N,GND*%
X143170000Y-68730000D03*
D22*
%TO.N,/PWM0*%
X80640000Y-43770000D03*
%TO.N,/5V_DC*%
X80640000Y-44650000D03*
D23*
X108816600Y-70796900D03*
X105762500Y-76880000D03*
X99470000Y-67420000D03*
D21*
X114930000Y-70796900D03*
D23*
X77060000Y-67190000D03*
D21*
X83230000Y-62660000D03*
X83230000Y-52055000D03*
D22*
X83230000Y-73335000D03*
D23*
X105822500Y-67430000D03*
X99460000Y-77810000D03*
X99470000Y-72890000D03*
D21*
%TO.N,GND*%
X113300000Y-47770000D03*
X108816600Y-68256900D03*
X87144520Y-66520000D03*
X87144520Y-56690000D03*
X117930000Y-45640000D03*
D23*
X76300000Y-44370000D03*
D21*
X142920000Y-40760000D03*
X76300000Y-55257657D03*
X113300000Y-56690000D03*
X119500000Y-86610000D03*
X76350000Y-66104620D03*
X148250000Y-88160000D03*
X65120000Y-88390000D03*
D23*
X84210000Y-76830000D03*
D21*
X114930000Y-73380000D03*
X120890000Y-45640000D03*
X91270000Y-56690000D03*
D23*
X103890000Y-66520000D03*
D21*
X72940000Y-88390000D03*
X91270000Y-33340000D03*
X129860000Y-73180000D03*
X104000000Y-59240000D03*
X123320000Y-84720000D03*
D23*
X76310000Y-46450000D03*
X95680000Y-69670000D03*
D21*
X142920000Y-47640000D03*
X148100000Y-65462500D03*
X114930000Y-68260000D03*
X129860000Y-51750000D03*
X76640000Y-31440000D03*
D22*
X83230000Y-71620000D03*
D21*
X83150000Y-88390000D03*
X142350000Y-65462500D03*
X105930000Y-43430000D03*
X91340000Y-66520000D03*
X142740000Y-76630000D03*
X113500000Y-82870000D03*
X113300000Y-52550000D03*
X148100000Y-51060000D03*
D23*
X87144520Y-71242157D03*
D21*
X70105000Y-31440000D03*
X93570000Y-26160000D03*
X148100000Y-28040000D03*
X129860000Y-84670000D03*
X142920000Y-32040000D03*
X87144520Y-60615000D03*
X142740000Y-84670000D03*
X120890000Y-58330000D03*
X97670000Y-66520000D03*
%TO.N,/12V_DC*%
X140670000Y-65400000D03*
X140670000Y-40760000D03*
X129860000Y-31000000D03*
D24*
X129860000Y-55730000D03*
D25*
%TO.N,/-MT2*%
X70320000Y-51420000D03*
%TO.N,/+MT2*%
X70320000Y-40700000D03*
%TO.N,/+MT1*%
X70320000Y-62270000D03*
D22*
X70320000Y-62270000D03*
D25*
%TO.N,/-MT1*%
X70320000Y-70950000D03*
D23*
%TO.N,Net-(U3.3-VBST)*%
X111015000Y-46925000D03*
X109712500Y-40075000D03*
D26*
%TO.N,/PWM0*%
X90053400Y-70750000D03*
D21*
%TO.N,/PWM2*%
X83230000Y-64701522D03*
D26*
X90053400Y-72390000D03*
D21*
%TO.N,/PWM1*%
X83230000Y-54158478D03*
D26*
X90053400Y-71590000D03*
D23*
%TO.N,Net-(U3.3-SW)*%
X109712500Y-41975000D03*
X109730000Y-54070000D03*
%TO.N,/SDA*%
X95310000Y-63940000D03*
%TO.N,/SCL*%
X93260000Y-63990000D03*
D21*
%TO.N,/3.3V_NV*%
X123325000Y-80625000D03*
X133930000Y-82680000D03*
%TO.N,Net-(C1.4-Pad1)*%
X74120000Y-33340000D03*
D23*
X103940000Y-71520000D03*
D21*
%TO.N,Net-(C1.7-Pad1)*%
X80750000Y-33340000D03*
D23*
X117580000Y-73610000D03*
D21*
%TO.N,/5V_MCU*%
X117800000Y-43960000D03*
D24*
%TO.N,Net-(U3.4-SW)*%
X142740000Y-81620000D03*
D21*
X129780000Y-79280000D03*
D23*
%TO.N,Net-(U1.1-INL)*%
X105765000Y-71520000D03*
X108816600Y-74606900D03*
%TD*%
D27*
%TO.N,/5V_DC*%
X87680000Y-77810000D02*
X99460000Y-77810000D01*
X77060000Y-67190000D02*
X87680000Y-77810000D01*
D28*
X107560000Y-84840000D02*
X102460000Y-89940000D01*
D27*
X82310000Y-61740000D02*
X83230000Y-62660000D01*
D28*
X115100000Y-79580000D02*
X115100000Y-81090000D01*
D27*
X99510000Y-77760000D02*
X99460000Y-77810000D01*
X82310000Y-52380000D02*
X82310000Y-61740000D01*
X82310000Y-52055000D02*
X82310000Y-51730000D01*
X80640000Y-44700000D02*
X80640000Y-44650000D01*
D28*
X113260000Y-84840000D02*
X107560000Y-84840000D01*
X115100000Y-83000000D02*
X113260000Y-84840000D01*
D27*
X82310000Y-52055000D02*
X82310000Y-52380000D01*
D28*
X111870000Y-71280000D02*
X111386900Y-70796900D01*
X112300000Y-70796900D02*
X115020000Y-70796900D01*
X108816600Y-70796900D02*
X111000000Y-70796900D01*
D27*
X82310000Y-46370000D02*
X80640000Y-44700000D01*
X82640000Y-52055000D02*
X82310000Y-52055000D01*
D28*
X111870000Y-70796900D02*
X112300000Y-70796900D01*
D27*
X99470000Y-72890000D02*
X99470000Y-67420000D01*
D28*
X111870000Y-71226900D02*
X112300000Y-70796900D01*
D27*
X82315000Y-51730000D02*
X82640000Y-52055000D01*
D28*
X111870000Y-71280000D02*
X111870000Y-71226900D01*
X105812500Y-67420000D02*
X105822500Y-67430000D01*
D27*
X110127500Y-90102500D02*
X110127500Y-89402500D01*
D28*
X111870000Y-70796900D02*
X111870000Y-71280000D01*
D27*
X82640000Y-52055000D02*
X82635000Y-52055000D01*
X104882500Y-77760000D02*
X99510000Y-77760000D01*
D28*
X111386900Y-70796900D02*
X111000000Y-70796900D01*
X102460000Y-89940000D02*
X102430000Y-89940000D01*
X111870000Y-76350000D02*
X115100000Y-79580000D01*
X111000000Y-70796900D02*
X111870000Y-70796900D01*
X115100000Y-81090000D02*
X115100000Y-83000000D01*
D27*
X82310000Y-51730000D02*
X82315000Y-51730000D01*
X99470000Y-67420000D02*
X105812500Y-67420000D01*
D28*
X111870000Y-71280000D02*
X111870000Y-76350000D01*
D27*
X82310000Y-51730000D02*
X82310000Y-46370000D01*
X105762500Y-76880000D02*
X104882500Y-77760000D01*
X82635000Y-52055000D02*
X82310000Y-52380000D01*
X83230000Y-52055000D02*
X82640000Y-52055000D01*
%TO.N,GND*%
X104820000Y-70150000D02*
X104820000Y-69950000D01*
X82950000Y-24850000D02*
X82950000Y-43370000D01*
X105040000Y-69930000D02*
X105110000Y-69930000D01*
X94520000Y-54940000D02*
X94520000Y-69370000D01*
X85420000Y-24820000D02*
X87490000Y-24820000D01*
X104840000Y-69930000D02*
X105110000Y-69930000D01*
X118750000Y-71050000D02*
X118750000Y-80780000D01*
X76640000Y-31410000D02*
X76640000Y-31440000D01*
X87490000Y-24820000D02*
X87910000Y-25240000D01*
X108645000Y-86290000D02*
X104995000Y-89940000D01*
X106120000Y-58420000D02*
X118750000Y-71050000D01*
X94820000Y-69670000D02*
X94880000Y-69670000D01*
X104995000Y-89940000D02*
X104930000Y-89940000D01*
X95680000Y-69670000D02*
X94880000Y-69670000D01*
X94520000Y-69370000D02*
X94220000Y-69670000D01*
X116810000Y-72880000D02*
X116310000Y-73380000D01*
X70105000Y-32625000D02*
X70105000Y-31440000D01*
X105110000Y-69930000D02*
X115530000Y-69930000D01*
X104590000Y-69930000D02*
X104840000Y-69930000D01*
X93000000Y-69670000D02*
X94110000Y-69670000D01*
X79180000Y-26350000D02*
X79180000Y-25340000D01*
X142390000Y-65490000D02*
X142350000Y-65530000D01*
X94520000Y-69370000D02*
X94520000Y-69650000D01*
X120200000Y-70250000D02*
X120200000Y-81490000D01*
X92420000Y-69090000D02*
X93000000Y-69670000D01*
X83230000Y-71620000D02*
X73160000Y-61550000D01*
X72220000Y-35440000D02*
X72700000Y-35920000D01*
X116310000Y-73380000D02*
X115000000Y-73380000D01*
X88260000Y-76680000D02*
X100220000Y-76680000D01*
X104820000Y-72080000D02*
X104820000Y-70150000D01*
X118750000Y-80780000D02*
X113240000Y-86290000D01*
X94540000Y-69670000D02*
X94880000Y-69670000D01*
X82920000Y-24820000D02*
X82950000Y-24850000D01*
X104820000Y-70150000D02*
X104740000Y-70150000D01*
X85450000Y-24850000D02*
X85450000Y-44170000D01*
X116810000Y-71210000D02*
X116810000Y-72880000D01*
X70105000Y-31425000D02*
X70105000Y-31440000D01*
X89030000Y-75290000D02*
X98930000Y-75290000D01*
X98930000Y-75290000D02*
X104290000Y-69930000D01*
X106930000Y-56980000D02*
X120200000Y-70250000D01*
X87355000Y-49615000D02*
X92420000Y-54680000D01*
X104290000Y-69930000D02*
X104520000Y-69930000D01*
X73160000Y-61550000D02*
X73160000Y-35680000D01*
X104820000Y-69950000D02*
X104840000Y-69930000D01*
X87144520Y-71242157D02*
X87144520Y-71344520D01*
X115530000Y-69930000D02*
X116810000Y-71210000D01*
X112430000Y-89260000D02*
X112430000Y-89940000D01*
X99980000Y-56980000D02*
X106930000Y-56980000D01*
X94520000Y-69650000D02*
X94540000Y-69670000D01*
X72700000Y-35920000D02*
X72700000Y-35940000D01*
X79180000Y-27430000D02*
X81520000Y-29770000D01*
X104740000Y-70150000D02*
X104520000Y-69930000D01*
X79700000Y-24820000D02*
X82920000Y-24820000D01*
X104820000Y-70150000D02*
X105040000Y-69930000D01*
X94110000Y-69670000D02*
X94540000Y-69670000D01*
X79180000Y-25340000D02*
X79700000Y-24820000D01*
X83230000Y-71650000D02*
X88260000Y-76680000D01*
X104520000Y-69930000D02*
X104590000Y-69930000D01*
X83230000Y-71620000D02*
X83230000Y-71650000D01*
X113240000Y-86290000D02*
X108645000Y-86290000D01*
X100220000Y-76680000D02*
X104820000Y-72080000D01*
X120200000Y-81490000D02*
X112430000Y-89260000D01*
X85420000Y-24820000D02*
X85450000Y-24850000D01*
X81520000Y-29770000D02*
X81520000Y-43780000D01*
X94220000Y-69670000D02*
X94110000Y-69670000D01*
X79180000Y-26350000D02*
X79180000Y-27430000D01*
X87910000Y-25240000D02*
X87910000Y-44910000D01*
X76170000Y-62430000D02*
X89030000Y-75290000D01*
X99700000Y-58420000D02*
X106120000Y-58420000D01*
X73160000Y-35680000D02*
X70105000Y-32625000D01*
X94520000Y-69370000D02*
X94820000Y-69670000D01*
X82920000Y-24820000D02*
X85420000Y-24820000D01*
X92420000Y-54680000D02*
X92420000Y-69090000D01*
X82950000Y-43370000D02*
X94520000Y-54940000D01*
X81520000Y-43780000D02*
X87355000Y-49615000D01*
X85450000Y-44170000D02*
X99700000Y-58420000D01*
X87910000Y-44910000D02*
X99980000Y-56980000D01*
D29*
%TO.N,/12V_DC*%
X116090000Y-33917500D02*
X116090000Y-35640000D01*
X116090000Y-33917500D02*
X117290000Y-33917500D01*
X116090000Y-35017500D02*
X114990000Y-33917500D01*
D30*
X131000000Y-55730000D02*
X129860000Y-55730000D01*
D29*
X116090000Y-35640000D02*
X116090000Y-35017500D01*
D30*
X138340000Y-31000000D02*
X140670000Y-33330000D01*
X129860000Y-55730000D02*
X124890000Y-55730000D01*
X124890000Y-55730000D02*
X123550000Y-57070000D01*
X129230000Y-31000000D02*
X130520000Y-31000000D01*
D29*
X117290000Y-33917500D02*
X123177500Y-33917500D01*
X116090000Y-35640000D02*
X116090000Y-56600000D01*
X114990000Y-33917500D02*
X105990000Y-33917500D01*
X120040000Y-60550000D02*
X123550000Y-60550000D01*
D30*
X130520000Y-31000000D02*
X138340000Y-31000000D01*
X129230000Y-31000000D02*
X129860000Y-31000000D01*
D29*
X116190000Y-35017500D02*
X117290000Y-33917500D01*
D30*
X123550000Y-32050000D02*
X124600000Y-31000000D01*
D29*
X105990000Y-33917500D02*
X105910000Y-33997500D01*
D30*
X123550000Y-34290000D02*
X123550000Y-32050000D01*
X123550000Y-57070000D02*
X123550000Y-60550000D01*
D29*
X123177500Y-33917500D02*
X123550000Y-34290000D01*
D30*
X124600000Y-31000000D02*
X129230000Y-31000000D01*
D29*
X114990000Y-33917500D02*
X116090000Y-33917500D01*
D30*
X130490000Y-31000000D02*
X130520000Y-31000000D01*
D29*
X116090000Y-35017500D02*
X116190000Y-35017500D01*
X116090000Y-56600000D02*
X120040000Y-60550000D01*
D30*
X140670000Y-65400000D02*
X131000000Y-55730000D01*
X140670000Y-33330000D02*
X140670000Y-40760000D01*
D31*
%TO.N,/-MT2*%
X67940000Y-51540000D02*
X70200000Y-51540000D01*
X75320000Y-82262500D02*
X75192500Y-82262500D01*
X70200000Y-51540000D02*
X70320000Y-51420000D01*
X66740000Y-73810000D02*
X66740000Y-52740000D01*
X66740000Y-52740000D02*
X67940000Y-51540000D01*
X75192500Y-82262500D02*
X66740000Y-73810000D01*
%TO.N,/+MT2*%
X63894039Y-44605961D02*
X67800000Y-40700000D01*
X63898536Y-75778536D02*
X63894039Y-44605961D01*
X70320000Y-82262500D02*
X70410000Y-82172500D01*
X67800000Y-40700000D02*
X70320000Y-40700000D01*
X70410000Y-82172500D02*
X70292500Y-82172500D01*
X70292500Y-82172500D02*
X63898536Y-75778536D01*
D30*
%TO.N,/+MT1*%
X85322500Y-82252500D02*
X86000000Y-82252500D01*
D31*
X70320000Y-62270000D02*
X70320000Y-66020000D01*
X86000000Y-81700000D02*
X86000000Y-82252500D01*
X70320000Y-66020000D02*
X86000000Y-81700000D01*
%TO.N,/-MT1*%
X70010000Y-70950000D02*
X70010000Y-70980000D01*
X81000000Y-81970000D02*
X81000000Y-82252500D01*
X70010000Y-70980000D02*
X81000000Y-81970000D01*
D27*
%TO.N,Net-(U3.3-VBST)*%
X110365000Y-40075000D02*
X109712500Y-40075000D01*
X111015000Y-40725000D02*
X110365000Y-40075000D01*
X111015000Y-46925000D02*
X111015000Y-40725000D01*
%TO.N,/PWM2*%
X87281522Y-64701522D02*
X88120000Y-65540000D01*
X83402500Y-64701522D02*
X87281522Y-64701522D01*
X89920000Y-72390000D02*
X90053400Y-72390000D01*
X88120000Y-65540000D02*
X88120000Y-70590000D01*
X88120000Y-70590000D02*
X89920000Y-72390000D01*
%TO.N,/PWM1*%
X88900000Y-70560000D02*
X88900000Y-55100000D01*
X89930000Y-71590000D02*
X88900000Y-70560000D01*
X87958478Y-54158478D02*
X83230000Y-54158478D01*
X90053400Y-71590000D02*
X89930000Y-71590000D01*
X88900000Y-55100000D02*
X87958478Y-54158478D01*
%TO.N,Net-(U3.3-SW)*%
X109730000Y-41992500D02*
X109712500Y-41975000D01*
X109730000Y-54070000D02*
X109730000Y-41992500D01*
%TO.N,/SDA*%
X84150000Y-43710000D02*
X95310000Y-54870000D01*
X84180000Y-26350000D02*
X84150000Y-26380000D01*
X95310000Y-54870000D02*
X95310000Y-63940000D01*
X84150000Y-26380000D02*
X84150000Y-43710000D01*
%TO.N,/SCL*%
X81680000Y-26350000D02*
X81680000Y-28690000D01*
X82230000Y-29240000D02*
X82230000Y-43620000D01*
X81680000Y-28690000D02*
X82230000Y-29240000D01*
X93260000Y-54650000D02*
X93260000Y-63990000D01*
X82230000Y-43620000D02*
X93260000Y-54650000D01*
D28*
%TO.N,/3.3V_NV*%
X133930000Y-82680000D02*
X125380000Y-82680000D01*
X125380000Y-82680000D02*
X123325000Y-80625000D01*
D27*
%TO.N,Net-(C1.4-Pad1)*%
X103940000Y-71520000D02*
X103900000Y-71560000D01*
X103930000Y-71520000D02*
X99480000Y-75970000D01*
X103932500Y-71580000D02*
X103932500Y-71527500D01*
X88580000Y-75970000D02*
X74120000Y-61510000D01*
X103900000Y-71560000D02*
X103900000Y-71572500D01*
X74120000Y-61510000D02*
X74120000Y-33340000D01*
X103932500Y-71527500D02*
X103940000Y-71520000D01*
X99480000Y-75970000D02*
X88580000Y-75970000D01*
X103940000Y-71520000D02*
X103930000Y-71520000D01*
%TO.N,Net-(C1.7-Pad1)*%
X89190000Y-74520000D02*
X98870000Y-74520000D01*
X78110000Y-33340000D02*
X77320000Y-34130000D01*
X117580000Y-70960000D02*
X117580000Y-73610000D01*
X77320000Y-62650000D02*
X89190000Y-74520000D01*
X104100000Y-69290000D02*
X115910000Y-69290000D01*
X98870000Y-74520000D02*
X104100000Y-69290000D01*
X77320000Y-34130000D02*
X77320000Y-62650000D01*
X80750000Y-33340000D02*
X78110000Y-33340000D01*
X115910000Y-69290000D02*
X117580000Y-70960000D01*
D28*
%TO.N,/5V_MCU*%
X144910000Y-89180000D02*
X144190000Y-89900000D01*
X117800000Y-43960000D02*
X125215000Y-43960000D01*
X125215000Y-43960000D02*
X144910000Y-63655000D01*
X144910000Y-63655000D02*
X144910000Y-89180000D01*
%TO.N,Net-(U3.4-SW)*%
X129790000Y-79290000D02*
X129780000Y-79280000D01*
X140410000Y-79290000D02*
X129790000Y-79290000D01*
X142740000Y-81620000D02*
X140410000Y-79290000D01*
D27*
%TO.N,Net-(U1.1-INL)*%
X105765000Y-71520000D02*
X105765000Y-73955000D01*
X106416900Y-74606900D02*
X108816600Y-74606900D01*
X105765000Y-73955000D02*
X106416900Y-74606900D01*
%TO.N,/LED2*%
X100110000Y-56280000D02*
X107260000Y-56280000D01*
X120940000Y-69960000D02*
X120940000Y-81880000D01*
X89180000Y-45350000D02*
X100110000Y-56280000D01*
X107260000Y-56280000D02*
X120940000Y-69960000D01*
X114930000Y-87890000D02*
X114930000Y-89940000D01*
X120940000Y-81880000D02*
X114930000Y-87890000D01*
X89180000Y-26350000D02*
X89180000Y-45350000D01*
%TO.N,/LED1*%
X86700000Y-44530000D02*
X99880000Y-57710000D01*
X107440000Y-89940000D02*
X107430000Y-89940000D01*
D28*
X107627500Y-89642500D02*
X107627500Y-89912500D01*
D27*
X113550000Y-87010000D02*
X110370000Y-87010000D01*
X119490000Y-81070000D02*
X113550000Y-87010000D01*
X106570000Y-57710000D02*
X119490000Y-70630000D01*
X119490000Y-70630000D02*
X119490000Y-81070000D01*
X86680000Y-26350000D02*
X86700000Y-26370000D01*
X110370000Y-87010000D02*
X107440000Y-89940000D01*
X99880000Y-57710000D02*
X106570000Y-57710000D01*
X86700000Y-26370000D02*
X86700000Y-44530000D01*
%TO.N,/PWM0*%
X89690000Y-52820000D02*
X89690000Y-70386600D01*
X89690000Y-70386600D02*
X90053400Y-70750000D01*
X80640000Y-43770000D02*
X89690000Y-52820000D01*
%TD*%
%TA.AperFunction,Conductor*%
%TO.N,GND*%
G36*
X90545703Y-52856095D02*
G01*
X90552181Y-52862127D01*
X92573181Y-54883127D01*
X92606666Y-54944450D01*
X92609500Y-54970808D01*
X92609500Y-63315638D01*
X92589815Y-63382677D01*
X92573181Y-63403319D01*
X92560538Y-63415961D01*
X92560535Y-63415965D01*
X92461990Y-63563446D01*
X92461983Y-63563459D01*
X92394106Y-63727332D01*
X92394103Y-63727341D01*
X92359500Y-63901304D01*
X92359500Y-64078695D01*
X92394103Y-64252658D01*
X92394106Y-64252667D01*
X92461983Y-64416540D01*
X92461990Y-64416553D01*
X92560535Y-64564034D01*
X92560538Y-64564038D01*
X92685961Y-64689461D01*
X92685965Y-64689464D01*
X92833446Y-64788009D01*
X92833459Y-64788016D01*
X92956363Y-64838923D01*
X92997334Y-64855894D01*
X92997336Y-64855894D01*
X92997341Y-64855896D01*
X93171304Y-64890499D01*
X93171307Y-64890500D01*
X93171309Y-64890500D01*
X93348693Y-64890500D01*
X93348694Y-64890499D01*
X93406682Y-64878964D01*
X93522658Y-64855896D01*
X93522661Y-64855894D01*
X93522666Y-64855894D01*
X93671871Y-64794092D01*
X93686540Y-64788016D01*
X93686540Y-64788015D01*
X93686547Y-64788013D01*
X93834035Y-64689464D01*
X93959464Y-64564035D01*
X94058013Y-64416547D01*
X94125894Y-64252666D01*
X94130751Y-64228251D01*
X94157134Y-64095614D01*
X94160500Y-64078691D01*
X94160500Y-63901309D01*
X94160500Y-63901306D01*
X94160499Y-63901304D01*
X94125896Y-63727341D01*
X94125893Y-63727332D01*
X94058016Y-63563459D01*
X94058009Y-63563446D01*
X93959464Y-63415965D01*
X93959461Y-63415961D01*
X93946819Y-63403319D01*
X93913334Y-63341996D01*
X93910500Y-63315638D01*
X93910500Y-54689808D01*
X93930185Y-54622769D01*
X93982989Y-54577014D01*
X94052147Y-54567070D01*
X94115703Y-54596095D01*
X94122181Y-54602127D01*
X94623181Y-55103127D01*
X94656666Y-55164450D01*
X94659500Y-55190808D01*
X94659500Y-63265638D01*
X94639815Y-63332677D01*
X94623181Y-63353319D01*
X94610538Y-63365961D01*
X94610535Y-63365965D01*
X94511990Y-63513446D01*
X94511983Y-63513459D01*
X94444106Y-63677332D01*
X94444103Y-63677341D01*
X94409500Y-63851304D01*
X94409500Y-64028695D01*
X94444103Y-64202658D01*
X94444106Y-64202667D01*
X94511983Y-64366540D01*
X94511990Y-64366553D01*
X94610535Y-64514034D01*
X94610538Y-64514038D01*
X94735961Y-64639461D01*
X94735965Y-64639464D01*
X94883446Y-64738009D01*
X94883459Y-64738016D01*
X95004155Y-64788009D01*
X95047334Y-64805894D01*
X95047336Y-64805894D01*
X95047341Y-64805896D01*
X95221304Y-64840499D01*
X95221307Y-64840500D01*
X95221309Y-64840500D01*
X95398693Y-64840500D01*
X95398694Y-64840499D01*
X95456682Y-64828964D01*
X95572658Y-64805896D01*
X95572661Y-64805894D01*
X95572666Y-64805894D01*
X95736547Y-64738013D01*
X95884035Y-64639464D01*
X96009464Y-64514035D01*
X96108013Y-64366547D01*
X96175894Y-64202666D01*
X96177172Y-64196245D01*
X96198964Y-64086682D01*
X96210500Y-64028691D01*
X96210500Y-63851309D01*
X96210500Y-63851306D01*
X96210499Y-63851304D01*
X96175896Y-63677341D01*
X96175893Y-63677332D01*
X96108016Y-63513459D01*
X96108009Y-63513446D01*
X96009464Y-63365965D01*
X96009461Y-63365961D01*
X95996819Y-63353319D01*
X95963334Y-63291996D01*
X95960500Y-63265638D01*
X95960500Y-60451902D01*
X97639500Y-60451902D01*
X97639500Y-60688097D01*
X97676446Y-60921368D01*
X97749433Y-61145996D01*
X97816119Y-61276873D01*
X97856657Y-61356433D01*
X97995483Y-61547510D01*
X98162490Y-61714517D01*
X98353567Y-61853343D01*
X98452991Y-61904002D01*
X98564003Y-61960566D01*
X98564005Y-61960566D01*
X98564008Y-61960568D01*
X98684412Y-61999689D01*
X98788631Y-62033553D01*
X99021903Y-62070500D01*
X99021908Y-62070500D01*
X99258097Y-62070500D01*
X99491368Y-62033553D01*
X99552921Y-62013553D01*
X99715992Y-61960568D01*
X99926433Y-61853343D01*
X100117510Y-61714517D01*
X100284517Y-61547510D01*
X100423343Y-61356433D01*
X100530568Y-61145992D01*
X100603553Y-60921368D01*
X100624946Y-60786300D01*
X100640500Y-60688097D01*
X100640500Y-60451902D01*
X100603553Y-60218631D01*
X100530566Y-59994003D01*
X100474002Y-59882991D01*
X100423343Y-59783567D01*
X100284517Y-59592490D01*
X100117510Y-59425483D01*
X99926433Y-59286657D01*
X99925830Y-59286350D01*
X99715996Y-59179433D01*
X99491368Y-59106446D01*
X99258097Y-59069500D01*
X99258092Y-59069500D01*
X99021908Y-59069500D01*
X99021903Y-59069500D01*
X98788631Y-59106446D01*
X98564003Y-59179433D01*
X98353566Y-59286657D01*
X98244550Y-59365862D01*
X98162490Y-59425483D01*
X98162488Y-59425485D01*
X98162487Y-59425485D01*
X97995485Y-59592487D01*
X97995485Y-59592488D01*
X97995483Y-59592490D01*
X97954103Y-59649445D01*
X97856657Y-59783566D01*
X97749433Y-59994003D01*
X97676446Y-60218631D01*
X97639500Y-60451902D01*
X95960500Y-60451902D01*
X95960500Y-55009808D01*
X95980185Y-54942769D01*
X96032989Y-54897014D01*
X96102147Y-54887070D01*
X96165703Y-54916095D01*
X96172181Y-54922127D01*
X99465325Y-58215272D01*
X99465326Y-58215273D01*
X99465329Y-58215275D01*
X99465331Y-58215277D01*
X99571873Y-58286465D01*
X99690256Y-58335501D01*
X99690260Y-58335501D01*
X99690261Y-58335502D01*
X99815928Y-58360500D01*
X99815931Y-58360500D01*
X106249192Y-58360500D01*
X106316231Y-58380185D01*
X106336873Y-58396819D01*
X112306607Y-64366553D01*
X118069131Y-70129076D01*
X118085853Y-70159700D01*
X118102615Y-70190395D01*
X118102614Y-70190396D01*
X118102616Y-70190399D01*
X118099827Y-70229392D01*
X118097633Y-70260087D01*
X118097632Y-70260088D01*
X118097632Y-70260091D01*
X118079064Y-70284893D01*
X118055764Y-70316022D01*
X118055760Y-70316023D01*
X118055760Y-70316024D01*
X118039134Y-70322225D01*
X117990300Y-70340441D01*
X117990296Y-70340440D01*
X117990296Y-70340441D01*
X117955096Y-70337924D01*
X117891984Y-70324197D01*
X117830660Y-70290714D01*
X117830657Y-70290711D01*
X116324674Y-68784727D01*
X116324673Y-68784726D01*
X116324669Y-68784723D01*
X116218127Y-68713535D01*
X116099744Y-68664499D01*
X116099738Y-68664497D01*
X115974071Y-68639500D01*
X115974069Y-68639500D01*
X106680339Y-68639500D01*
X106613300Y-68619815D01*
X106567545Y-68567011D01*
X106556353Y-68513653D01*
X106564358Y-67976374D01*
X106585039Y-67909637D01*
X106620513Y-67856547D01*
X106688394Y-67692666D01*
X106690384Y-67682666D01*
X106722999Y-67518695D01*
X106723000Y-67518693D01*
X106723000Y-67341306D01*
X106722999Y-67341304D01*
X106688396Y-67167341D01*
X106688393Y-67167332D01*
X106620516Y-67003459D01*
X106620509Y-67003446D01*
X106521964Y-66855965D01*
X106521961Y-66855961D01*
X106396538Y-66730538D01*
X106396534Y-66730535D01*
X106249053Y-66631990D01*
X106249040Y-66631983D01*
X106085167Y-66564106D01*
X106085158Y-66564103D01*
X105911194Y-66529500D01*
X105911191Y-66529500D01*
X105733809Y-66529500D01*
X105733806Y-66529500D01*
X105559841Y-66564103D01*
X105559832Y-66564106D01*
X105395959Y-66631983D01*
X105395946Y-66631990D01*
X105248465Y-66730535D01*
X105248461Y-66730538D01*
X105245819Y-66733181D01*
X105244093Y-66734123D01*
X105243755Y-66734401D01*
X105243702Y-66734336D01*
X105184496Y-66766666D01*
X105158138Y-66769500D01*
X100144362Y-66769500D01*
X100077323Y-66749815D01*
X100056681Y-66733181D01*
X100044038Y-66720538D01*
X100044034Y-66720535D01*
X99896553Y-66621990D01*
X99896540Y-66621983D01*
X99732667Y-66554106D01*
X99732658Y-66554103D01*
X99558694Y-66519500D01*
X99558691Y-66519500D01*
X99381309Y-66519500D01*
X99381306Y-66519500D01*
X99207341Y-66554103D01*
X99207332Y-66554106D01*
X99043459Y-66621983D01*
X99043446Y-66621990D01*
X98895965Y-66720535D01*
X98895961Y-66720538D01*
X98770538Y-66845961D01*
X98770535Y-66845965D01*
X98671990Y-66993446D01*
X98671983Y-66993459D01*
X98604106Y-67157332D01*
X98604103Y-67157341D01*
X98569500Y-67331304D01*
X98569500Y-67508695D01*
X98604103Y-67682658D01*
X98604106Y-67682667D01*
X98671983Y-67846540D01*
X98671990Y-67846553D01*
X98770534Y-67994033D01*
X98770535Y-67994034D01*
X98770536Y-67994035D01*
X98783180Y-68006679D01*
X98816665Y-68067999D01*
X98819500Y-68094361D01*
X98819500Y-72215638D01*
X98799815Y-72282677D01*
X98783181Y-72303319D01*
X98770538Y-72315961D01*
X98770535Y-72315965D01*
X98671990Y-72463446D01*
X98671983Y-72463459D01*
X98604106Y-72627332D01*
X98604103Y-72627341D01*
X98569500Y-72801304D01*
X98569500Y-72978695D01*
X98604103Y-73152658D01*
X98604106Y-73152667D01*
X98671983Y-73316540D01*
X98671990Y-73316553D01*
X98770535Y-73464034D01*
X98770538Y-73464038D01*
X98800595Y-73494095D01*
X98804932Y-73502039D01*
X98812181Y-73507465D01*
X98821417Y-73532227D01*
X98834080Y-73555418D01*
X98833434Y-73564446D01*
X98836598Y-73572929D01*
X98830981Y-73598751D01*
X98829096Y-73625110D01*
X98823278Y-73634162D01*
X98821747Y-73641202D01*
X98800596Y-73669457D01*
X98636871Y-73833182D01*
X98575551Y-73866666D01*
X98549192Y-73869500D01*
X89510808Y-73869500D01*
X89443769Y-73849815D01*
X89423127Y-73833181D01*
X82275365Y-66685419D01*
X82241880Y-66624096D01*
X82239057Y-66599398D01*
X82221904Y-65314065D01*
X82240692Y-65246770D01*
X82292881Y-65200315D01*
X82361901Y-65189450D01*
X82425838Y-65217624D01*
X82448995Y-65243521D01*
X82491697Y-65307429D01*
X82491700Y-65307433D01*
X82624088Y-65439821D01*
X82624092Y-65439824D01*
X82779762Y-65543840D01*
X82779768Y-65543843D01*
X82779769Y-65543844D01*
X82952749Y-65615495D01*
X83136379Y-65652021D01*
X83136383Y-65652022D01*
X83136384Y-65652022D01*
X83323617Y-65652022D01*
X83323618Y-65652021D01*
X83507251Y-65615495D01*
X83680231Y-65543844D01*
X83835908Y-65439824D01*
X83887390Y-65388342D01*
X83948713Y-65354856D01*
X83975072Y-65352022D01*
X86960714Y-65352022D01*
X87027753Y-65371707D01*
X87048395Y-65388341D01*
X87433181Y-65773127D01*
X87466666Y-65834450D01*
X87469500Y-65860808D01*
X87469500Y-70654070D01*
X87492611Y-70770250D01*
X87492611Y-70770259D01*
X87492613Y-70770259D01*
X87494499Y-70779745D01*
X87494500Y-70779747D01*
X87543533Y-70898125D01*
X87614726Y-71004673D01*
X87614727Y-71004674D01*
X89301655Y-72691601D01*
X89328535Y-72731829D01*
X89344004Y-72769176D01*
X89344009Y-72769185D01*
X89431610Y-72900288D01*
X89431613Y-72900292D01*
X89543107Y-73011786D01*
X89543111Y-73011789D01*
X89674214Y-73099390D01*
X89674227Y-73099397D01*
X89802832Y-73152666D01*
X89819903Y-73159737D01*
X89974553Y-73190499D01*
X89974556Y-73190500D01*
X89974558Y-73190500D01*
X90132244Y-73190500D01*
X90132245Y-73190499D01*
X90286897Y-73159737D01*
X90432579Y-73099394D01*
X90563689Y-73011789D01*
X90675189Y-72900289D01*
X90762794Y-72769179D01*
X90823137Y-72623497D01*
X90853900Y-72468842D01*
X90853900Y-72311158D01*
X90853900Y-72311155D01*
X90853899Y-72311153D01*
X90848235Y-72282677D01*
X90823137Y-72156503D01*
X90811050Y-72127322D01*
X90773825Y-72037452D01*
X90766356Y-71967983D01*
X90773825Y-71942548D01*
X90823135Y-71823501D01*
X90823137Y-71823497D01*
X90853900Y-71668842D01*
X90853900Y-71511158D01*
X90853900Y-71511155D01*
X90853899Y-71511153D01*
X90826008Y-71370938D01*
X90823137Y-71356503D01*
X90782060Y-71257334D01*
X90765541Y-71217452D01*
X90758072Y-71147983D01*
X90765541Y-71122548D01*
X90814365Y-71004674D01*
X90823137Y-70983497D01*
X90853900Y-70828842D01*
X90853900Y-70671158D01*
X90853900Y-70671155D01*
X90853899Y-70671153D01*
X90850508Y-70654106D01*
X90823137Y-70516503D01*
X90786344Y-70427676D01*
X90762797Y-70370827D01*
X90762790Y-70370814D01*
X90675189Y-70239711D01*
X90675186Y-70239707D01*
X90563692Y-70128213D01*
X90563684Y-70128207D01*
X90432581Y-70040607D01*
X90432580Y-70040606D01*
X90417046Y-70034172D01*
X90362643Y-69990330D01*
X90340579Y-69924036D01*
X90340500Y-69919611D01*
X90340500Y-52949808D01*
X90360185Y-52882769D01*
X90412989Y-52837014D01*
X90482147Y-52827070D01*
X90545703Y-52856095D01*
G37*
%TD.AperFunction*%
%TA.AperFunction,Conductor*%
G36*
X87704709Y-54828663D02*
G01*
X87725351Y-54845297D01*
X88213181Y-55333126D01*
X88246666Y-55394449D01*
X88249500Y-55420807D01*
X88249500Y-64450191D01*
X88229815Y-64517230D01*
X88177011Y-64562985D01*
X88107853Y-64572929D01*
X88044297Y-64543904D01*
X88037819Y-64537872D01*
X87696195Y-64196248D01*
X87623028Y-64147360D01*
X87589649Y-64125057D01*
X87471266Y-64076021D01*
X87471260Y-64076019D01*
X87345593Y-64051022D01*
X87345591Y-64051022D01*
X83975072Y-64051022D01*
X83908033Y-64031337D01*
X83887390Y-64014702D01*
X83835911Y-63963222D01*
X83835907Y-63963219D01*
X83680237Y-63859203D01*
X83680228Y-63859198D01*
X83563806Y-63810975D01*
X83526015Y-63795321D01*
X83471613Y-63751481D01*
X83449548Y-63685187D01*
X83466827Y-63617488D01*
X83517964Y-63569877D01*
X83526010Y-63566202D01*
X83680231Y-63502322D01*
X83835908Y-63398302D01*
X83968302Y-63265908D01*
X84072322Y-63110231D01*
X84143973Y-62937251D01*
X84180500Y-62753616D01*
X84180500Y-62566384D01*
X84143973Y-62382749D01*
X84072322Y-62209769D01*
X84072321Y-62209768D01*
X84072318Y-62209762D01*
X83968302Y-62054092D01*
X83968299Y-62054088D01*
X83835911Y-61921700D01*
X83835907Y-61921697D01*
X83680237Y-61817681D01*
X83680228Y-61817676D01*
X83507251Y-61746027D01*
X83507243Y-61746025D01*
X83323620Y-61709500D01*
X83323616Y-61709500D01*
X83250808Y-61709500D01*
X83221367Y-61700855D01*
X83191381Y-61694332D01*
X83186365Y-61690577D01*
X83183769Y-61689815D01*
X83163127Y-61673181D01*
X82996819Y-61506873D01*
X82963334Y-61445550D01*
X82960500Y-61419192D01*
X82960500Y-55225087D01*
X82980185Y-55158048D01*
X83032989Y-55112293D01*
X83102147Y-55102349D01*
X83108692Y-55103470D01*
X83136381Y-55108978D01*
X83136384Y-55108978D01*
X83323617Y-55108978D01*
X83323618Y-55108977D01*
X83507251Y-55072451D01*
X83680231Y-55000800D01*
X83835908Y-54896780D01*
X83887390Y-54845298D01*
X83948713Y-54811812D01*
X83975072Y-54808978D01*
X87637670Y-54808978D01*
X87704709Y-54828663D01*
G37*
%TD.AperFunction*%
%TA.AperFunction,Conductor*%
G36*
X150992462Y-23622751D02*
G01*
X151038239Y-23675536D01*
X151049467Y-23727113D01*
X151047985Y-34007724D01*
X151028291Y-34074760D01*
X150975480Y-34120508D01*
X150906320Y-34130441D01*
X150842769Y-34101407D01*
X150823668Y-34080593D01*
X150784859Y-34027178D01*
X150652823Y-33895142D01*
X150501757Y-33785385D01*
X150335383Y-33700614D01*
X150335382Y-33700613D01*
X150335381Y-33700613D01*
X150157793Y-33642911D01*
X150157791Y-33642910D01*
X150157789Y-33642910D01*
X150029018Y-33622514D01*
X149973364Y-33613700D01*
X149786636Y-33613700D01*
X149743883Y-33620471D01*
X149602210Y-33642910D01*
X149424616Y-33700614D01*
X149258242Y-33785385D01*
X149107176Y-33895142D01*
X148975142Y-34027176D01*
X148865385Y-34178242D01*
X148780614Y-34344616D01*
X148722910Y-34522210D01*
X148693700Y-34706636D01*
X148693700Y-34893363D01*
X148722695Y-35076433D01*
X148722911Y-35077793D01*
X148780613Y-35255381D01*
X148865385Y-35421757D01*
X148975141Y-35572822D01*
X149107178Y-35704859D01*
X149258243Y-35814615D01*
X149424619Y-35899387D01*
X149602207Y-35957089D01*
X149786636Y-35986300D01*
X149786637Y-35986300D01*
X149973363Y-35986300D01*
X149973364Y-35986300D01*
X150157793Y-35957089D01*
X150335381Y-35899387D01*
X150501757Y-35814615D01*
X150652822Y-35704859D01*
X150784859Y-35572822D01*
X150823440Y-35519719D01*
X150878766Y-35477057D01*
X150948379Y-35471078D01*
X151010175Y-35503683D01*
X151044532Y-35564521D01*
X151047755Y-35592626D01*
X151044381Y-58996117D01*
X151024687Y-59063153D01*
X150971876Y-59108901D01*
X150902716Y-59118834D01*
X150839165Y-59089800D01*
X150809896Y-59052393D01*
X150772116Y-58978244D01*
X150705950Y-58887176D01*
X150662359Y-58827178D01*
X150530322Y-58695141D01*
X150379257Y-58585385D01*
X150212881Y-58500613D01*
X150035293Y-58442911D01*
X150035291Y-58442910D01*
X150035289Y-58442910D01*
X149906518Y-58422514D01*
X149850864Y-58413700D01*
X149664136Y-58413700D01*
X149621383Y-58420471D01*
X149479710Y-58442910D01*
X149302116Y-58500614D01*
X149135742Y-58585385D01*
X148984676Y-58695142D01*
X148852642Y-58827176D01*
X148742885Y-58978242D01*
X148658114Y-59144616D01*
X148600410Y-59322210D01*
X148584053Y-59425485D01*
X148571200Y-59506636D01*
X148571200Y-59693364D01*
X148600411Y-59877793D01*
X148658113Y-60055381D01*
X148742885Y-60221757D01*
X148852641Y-60372822D01*
X148984678Y-60504859D01*
X149135743Y-60614615D01*
X149302119Y-60699387D01*
X149479707Y-60757089D01*
X149664136Y-60786300D01*
X149664137Y-60786300D01*
X149850863Y-60786300D01*
X149850864Y-60786300D01*
X150035293Y-60757089D01*
X150212881Y-60699387D01*
X150379257Y-60614615D01*
X150530322Y-60504859D01*
X150662359Y-60372822D01*
X150772115Y-60221757D01*
X150809722Y-60147947D01*
X150857696Y-60097152D01*
X150925516Y-60080356D01*
X150991651Y-60102893D01*
X151035104Y-60157607D01*
X151044207Y-60204260D01*
X151040548Y-85590500D01*
X151039746Y-91154000D01*
X151039532Y-92635518D01*
X151019838Y-92702554D01*
X150967027Y-92748302D01*
X150915532Y-92759500D01*
X63024468Y-92759500D01*
X62957429Y-92739815D01*
X62911674Y-92687011D01*
X62900468Y-92635518D01*
X62900166Y-90543909D01*
X63497868Y-90543909D01*
X63497868Y-90560068D01*
X63497868Y-90796091D01*
X63504028Y-90834982D01*
X63537318Y-91045168D01*
X63537318Y-91045171D01*
X63596723Y-91227998D01*
X63615246Y-91285005D01*
X63674903Y-91402089D01*
X63729736Y-91509703D01*
X63877956Y-91713712D01*
X63877960Y-91713717D01*
X64056282Y-91892039D01*
X64056287Y-91892043D01*
X64155985Y-91964477D01*
X64260300Y-92040266D01*
X64484995Y-92154754D01*
X64724833Y-92232682D01*
X64973909Y-92272132D01*
X64973910Y-92272132D01*
X65226090Y-92272132D01*
X65226091Y-92272132D01*
X65475167Y-92232682D01*
X65475170Y-92232681D01*
X65475171Y-92232681D01*
X65518734Y-92218525D01*
X65715005Y-92154754D01*
X65939700Y-92040266D01*
X66143719Y-91892038D01*
X66322038Y-91713719D01*
X66470266Y-91509700D01*
X66584754Y-91285005D01*
X66660609Y-91051547D01*
X66662681Y-91045171D01*
X66662681Y-91045170D01*
X66662682Y-91045167D01*
X66702132Y-90796091D01*
X66702132Y-90543909D01*
X66662682Y-90294833D01*
X66662681Y-90294829D01*
X66662681Y-90294828D01*
X66619306Y-90161336D01*
X66584754Y-90054995D01*
X66470266Y-89830300D01*
X66409750Y-89747007D01*
X66322043Y-89626287D01*
X66322039Y-89626282D01*
X66143717Y-89447960D01*
X66143712Y-89447956D01*
X65939703Y-89299736D01*
X65939702Y-89299735D01*
X65939700Y-89299734D01*
X65715005Y-89185246D01*
X65631025Y-89157959D01*
X65475169Y-89107318D01*
X65242664Y-89070493D01*
X65226091Y-89067868D01*
X64973909Y-89067868D01*
X64957336Y-89070493D01*
X64724831Y-89107318D01*
X64724828Y-89107318D01*
X64484992Y-89185247D01*
X64260296Y-89299736D01*
X64056287Y-89447956D01*
X64056282Y-89447960D01*
X63877960Y-89626282D01*
X63877956Y-89626287D01*
X63729736Y-89830296D01*
X63615247Y-90054992D01*
X63537318Y-90294828D01*
X63537318Y-90294831D01*
X63510310Y-90465354D01*
X63497868Y-90543909D01*
X62900166Y-90543909D01*
X62899810Y-88075635D01*
X90648000Y-88075635D01*
X90648000Y-89679370D01*
X90648001Y-89679376D01*
X90654408Y-89738983D01*
X90704702Y-89873828D01*
X90704706Y-89873835D01*
X90790952Y-89989044D01*
X90790955Y-89989047D01*
X90906164Y-90075293D01*
X90906171Y-90075297D01*
X91041017Y-90125591D01*
X91041016Y-90125591D01*
X91047944Y-90126335D01*
X91100627Y-90132000D01*
X92704372Y-90131999D01*
X92763983Y-90125591D01*
X92898831Y-90075296D01*
X93014046Y-89989046D01*
X93100296Y-89873831D01*
X93150591Y-89738983D01*
X93157000Y-89679373D01*
X93156999Y-89663062D01*
X93160678Y-89648301D01*
X93170946Y-89630766D01*
X93176668Y-89611264D01*
X93188244Y-89601228D01*
X93195986Y-89588009D01*
X93214105Y-89578809D01*
X93229462Y-89565497D01*
X93244626Y-89563313D01*
X93258286Y-89556378D01*
X93278502Y-89558434D01*
X93298618Y-89555538D01*
X93312555Y-89561899D01*
X93327797Y-89563450D01*
X93334516Y-89568801D01*
X93355957Y-89570489D01*
X93919537Y-89006909D01*
X93936575Y-89070493D01*
X94002401Y-89184507D01*
X94095493Y-89277599D01*
X94209507Y-89343425D01*
X94273090Y-89360462D01*
X93709509Y-89924041D01*
X93709510Y-89924042D01*
X93745255Y-89950012D01*
X93745268Y-89950020D01*
X93921126Y-90039626D01*
X94108853Y-90100623D01*
X94303803Y-90131500D01*
X94501197Y-90131500D01*
X94696146Y-90100623D01*
X94883873Y-90039626D01*
X95059741Y-89950016D01*
X95095488Y-89924043D01*
X95095488Y-89924041D01*
X94531910Y-89360462D01*
X94595493Y-89343425D01*
X94709507Y-89277599D01*
X94802599Y-89184507D01*
X94868425Y-89070493D01*
X94885462Y-89006909D01*
X95449041Y-89570488D01*
X95449043Y-89570488D01*
X95475016Y-89534741D01*
X95541735Y-89403798D01*
X95589709Y-89353002D01*
X95657530Y-89336207D01*
X95723665Y-89358744D01*
X95762702Y-89403794D01*
X95812790Y-89502096D01*
X95829558Y-89535005D01*
X95945615Y-89694746D01*
X96085253Y-89834384D01*
X96208658Y-89924041D01*
X96244999Y-89950444D01*
X96420939Y-90040091D01*
X96546137Y-90080770D01*
X96608736Y-90101110D01*
X96803764Y-90132000D01*
X96803769Y-90132000D01*
X97001236Y-90132000D01*
X97196263Y-90101110D01*
X97197762Y-90100623D01*
X97384061Y-90040091D01*
X97560001Y-89950444D01*
X97649692Y-89885279D01*
X97719746Y-89834384D01*
X97719748Y-89834381D01*
X97719752Y-89834379D01*
X97859379Y-89694752D01*
X97859381Y-89694748D01*
X97859384Y-89694746D01*
X97924899Y-89604571D01*
X97975444Y-89535001D01*
X98065091Y-89359061D01*
X98126110Y-89171263D01*
X98133794Y-89122748D01*
X98157000Y-88976236D01*
X98157000Y-88778763D01*
X98126110Y-88583736D01*
X98065193Y-88396254D01*
X98065091Y-88395939D01*
X97975444Y-88219999D01*
X97935952Y-88165642D01*
X97859384Y-88060253D01*
X97719746Y-87920615D01*
X97560004Y-87804558D01*
X97560003Y-87804557D01*
X97560001Y-87804556D01*
X97384061Y-87714909D01*
X97384058Y-87714908D01*
X97196263Y-87653889D01*
X97001236Y-87623000D01*
X97001231Y-87623000D01*
X96803769Y-87623000D01*
X96803764Y-87623000D01*
X96608736Y-87653889D01*
X96420941Y-87714908D01*
X96244995Y-87804558D01*
X96085253Y-87920615D01*
X95945615Y-88060253D01*
X95829556Y-88219997D01*
X95762703Y-88351202D01*
X95714729Y-88401997D01*
X95646907Y-88418792D01*
X95580773Y-88396254D01*
X95541734Y-88351201D01*
X95475020Y-88220268D01*
X95475012Y-88220255D01*
X95449042Y-88184510D01*
X95449041Y-88184509D01*
X94885462Y-88748089D01*
X94868425Y-88684507D01*
X94802599Y-88570493D01*
X94709507Y-88477401D01*
X94595493Y-88411575D01*
X94531909Y-88394537D01*
X95095489Y-87830957D01*
X95059739Y-87804983D01*
X94883873Y-87715373D01*
X94696146Y-87654376D01*
X94501197Y-87623500D01*
X94303803Y-87623500D01*
X94108853Y-87654376D01*
X93921126Y-87715373D01*
X93745262Y-87804982D01*
X93745260Y-87804983D01*
X93709510Y-87830956D01*
X93709510Y-87830957D01*
X94273091Y-88394537D01*
X94209507Y-88411575D01*
X94095493Y-88477401D01*
X94002401Y-88570493D01*
X93936575Y-88684507D01*
X93919537Y-88748090D01*
X93355957Y-88184510D01*
X93333785Y-88186255D01*
X93325987Y-88192269D01*
X93256374Y-88198248D01*
X93194579Y-88165642D01*
X93160678Y-88106698D01*
X93156999Y-88091932D01*
X93156999Y-88075628D01*
X93150591Y-88016017D01*
X93100296Y-87881169D01*
X93100295Y-87881168D01*
X93100293Y-87881164D01*
X93014047Y-87765955D01*
X93014044Y-87765952D01*
X92898835Y-87679706D01*
X92898828Y-87679702D01*
X92763982Y-87629408D01*
X92763983Y-87629408D01*
X92704383Y-87623001D01*
X92704381Y-87623000D01*
X92704373Y-87623000D01*
X92704364Y-87623000D01*
X91100629Y-87623000D01*
X91100623Y-87623001D01*
X91041016Y-87629408D01*
X90906171Y-87679702D01*
X90906164Y-87679706D01*
X90790955Y-87765952D01*
X90790952Y-87765955D01*
X90704706Y-87881164D01*
X90704702Y-87881171D01*
X90654408Y-88016017D01*
X90648001Y-88075616D01*
X90648000Y-88075635D01*
X62899810Y-88075635D01*
X62899094Y-83120276D01*
X62918769Y-83053237D01*
X62971566Y-83007474D01*
X63021606Y-82996270D01*
X68194017Y-82934378D01*
X68261287Y-82953259D01*
X68307670Y-83005512D01*
X68319500Y-83058369D01*
X68319500Y-83810370D01*
X68319501Y-83810376D01*
X68325908Y-83869983D01*
X68376202Y-84004828D01*
X68376206Y-84004835D01*
X68462452Y-84120044D01*
X68462455Y-84120047D01*
X68577664Y-84206293D01*
X68577671Y-84206297D01*
X68712517Y-84256591D01*
X68712516Y-84256591D01*
X68716795Y-84257051D01*
X68772127Y-84263000D01*
X71867872Y-84262999D01*
X71927483Y-84256591D01*
X72062331Y-84206296D01*
X72177546Y-84120046D01*
X72263796Y-84004831D01*
X72314091Y-83869983D01*
X72320500Y-83810373D01*
X72320499Y-83007526D01*
X72340183Y-82940488D01*
X72392987Y-82894733D01*
X72443014Y-82883536D01*
X73323212Y-82873004D01*
X73390483Y-82891885D01*
X73436866Y-82944138D01*
X73439257Y-82949542D01*
X73521954Y-83149190D01*
X73521958Y-83149200D01*
X73653075Y-83376303D01*
X73812718Y-83584351D01*
X73812726Y-83584360D01*
X73998140Y-83769774D01*
X73998148Y-83769781D01*
X74206196Y-83929424D01*
X74433299Y-84060541D01*
X74433309Y-84060546D01*
X74675571Y-84160894D01*
X74675581Y-84160898D01*
X74928884Y-84228770D01*
X75177188Y-84261460D01*
X75188864Y-84262998D01*
X75188880Y-84263000D01*
X75188887Y-84263000D01*
X75451113Y-84263000D01*
X75451120Y-84263000D01*
X75711116Y-84228770D01*
X75964419Y-84160898D01*
X76206697Y-84060543D01*
X76433803Y-83929424D01*
X76641851Y-83769782D01*
X76641855Y-83769777D01*
X76641860Y-83769774D01*
X76827274Y-83584360D01*
X76827277Y-83584355D01*
X76827282Y-83584351D01*
X76986924Y-83376303D01*
X77118043Y-83149197D01*
X77176747Y-83007474D01*
X77219952Y-82903168D01*
X77221431Y-82903780D01*
X77257782Y-82852032D01*
X77322479Y-82825647D01*
X77333558Y-82825016D01*
X78874017Y-82806583D01*
X78941287Y-82825464D01*
X78987670Y-82877717D01*
X78999500Y-82930574D01*
X78999500Y-83810370D01*
X78999501Y-83810376D01*
X79005908Y-83869983D01*
X79056202Y-84004828D01*
X79056206Y-84004835D01*
X79142452Y-84120044D01*
X79142455Y-84120047D01*
X79257664Y-84206293D01*
X79257671Y-84206297D01*
X79392517Y-84256591D01*
X79392516Y-84256591D01*
X79396795Y-84257051D01*
X79452127Y-84263000D01*
X82547872Y-84262999D01*
X82607483Y-84256591D01*
X82742331Y-84206296D01*
X82857546Y-84120046D01*
X82943796Y-84004831D01*
X82994091Y-83869983D01*
X83000500Y-83810373D01*
X83000499Y-81121887D01*
X83020184Y-81054849D01*
X83072987Y-81009094D01*
X83142146Y-80999150D01*
X83205702Y-81028175D01*
X83212177Y-81034204D01*
X83614120Y-81436148D01*
X83992308Y-81814336D01*
X84025793Y-81875659D01*
X84027566Y-81918203D01*
X83999500Y-82131372D01*
X83999500Y-82393627D01*
X84026123Y-82595839D01*
X84033730Y-82653616D01*
X84097574Y-82891885D01*
X84101602Y-82906918D01*
X84101605Y-82906928D01*
X84201953Y-83149190D01*
X84201958Y-83149200D01*
X84333075Y-83376303D01*
X84492718Y-83584351D01*
X84492726Y-83584360D01*
X84678140Y-83769774D01*
X84678148Y-83769781D01*
X84886196Y-83929424D01*
X85113299Y-84060541D01*
X85113309Y-84060546D01*
X85355571Y-84160894D01*
X85355581Y-84160898D01*
X85608884Y-84228770D01*
X85857188Y-84261460D01*
X85868864Y-84262998D01*
X85868880Y-84263000D01*
X85868887Y-84263000D01*
X86131113Y-84263000D01*
X86131120Y-84263000D01*
X86391116Y-84228770D01*
X86644419Y-84160898D01*
X86886697Y-84060543D01*
X87113803Y-83929424D01*
X87321851Y-83769782D01*
X87321855Y-83769777D01*
X87321860Y-83769774D01*
X87507274Y-83584360D01*
X87507277Y-83584355D01*
X87507282Y-83584351D01*
X87666924Y-83376303D01*
X87798043Y-83149197D01*
X87898398Y-82906919D01*
X87966270Y-82653616D01*
X88000500Y-82393620D01*
X88000500Y-82189474D01*
X108544076Y-82189474D01*
X108588650Y-82221859D01*
X108770968Y-82314755D01*
X108965582Y-82377990D01*
X109167683Y-82410000D01*
X109372317Y-82410000D01*
X109574417Y-82377990D01*
X109769031Y-82314755D01*
X109951349Y-82221859D01*
X109995921Y-82189474D01*
X109270000Y-81463553D01*
X108544076Y-82189474D01*
X88000500Y-82189474D01*
X88000500Y-82131380D01*
X87966270Y-81871384D01*
X87898398Y-81618081D01*
X87798043Y-81375803D01*
X87787377Y-81357330D01*
X87779101Y-81340029D01*
X87650695Y-81007682D01*
X107970000Y-81007682D01*
X107970000Y-81212317D01*
X108002009Y-81414417D01*
X108065244Y-81609031D01*
X108158141Y-81791350D01*
X108158147Y-81791359D01*
X108190523Y-81835921D01*
X108190524Y-81835922D01*
X108916446Y-81110001D01*
X108916446Y-81109999D01*
X108870369Y-81063922D01*
X108920000Y-81063922D01*
X108920000Y-81156078D01*
X108943852Y-81245095D01*
X108989930Y-81324905D01*
X109055095Y-81390070D01*
X109134905Y-81436148D01*
X109223922Y-81460000D01*
X109316078Y-81460000D01*
X109405095Y-81436148D01*
X109484905Y-81390070D01*
X109550070Y-81324905D01*
X109596148Y-81245095D01*
X109620000Y-81156078D01*
X109620000Y-81109999D01*
X109623553Y-81109999D01*
X109623553Y-81110000D01*
X110349474Y-81835921D01*
X110381859Y-81791349D01*
X110474755Y-81609031D01*
X110537990Y-81414417D01*
X110570000Y-81212317D01*
X110570000Y-81007682D01*
X110537990Y-80805582D01*
X110474755Y-80610968D01*
X110381859Y-80428650D01*
X110349474Y-80384077D01*
X110349474Y-80384076D01*
X109623553Y-81109999D01*
X109620000Y-81109999D01*
X109620000Y-81063922D01*
X109596148Y-80974905D01*
X109550070Y-80895095D01*
X109484905Y-80829930D01*
X109405095Y-80783852D01*
X109316078Y-80760000D01*
X109223922Y-80760000D01*
X109134905Y-80783852D01*
X109055095Y-80829930D01*
X108989930Y-80895095D01*
X108943852Y-80974905D01*
X108920000Y-81063922D01*
X108870369Y-81063922D01*
X108190524Y-80384077D01*
X108190523Y-80384077D01*
X108158143Y-80428644D01*
X108065244Y-80610968D01*
X108002009Y-80805582D01*
X107970000Y-81007682D01*
X87650695Y-81007682D01*
X87470000Y-80540000D01*
X87276341Y-80347748D01*
X87093045Y-80165783D01*
X86956795Y-80030523D01*
X108544077Y-80030523D01*
X108544077Y-80030524D01*
X109270000Y-80756446D01*
X109995922Y-80030524D01*
X109995921Y-80030523D01*
X109951359Y-79998147D01*
X109951350Y-79998141D01*
X109769031Y-79905244D01*
X109574417Y-79842009D01*
X109372317Y-79810000D01*
X109167683Y-79810000D01*
X108965582Y-79842009D01*
X108770968Y-79905244D01*
X108588644Y-79998143D01*
X108544077Y-80030523D01*
X86956795Y-80030523D01*
X74015463Y-67183217D01*
X73932950Y-67101304D01*
X76159500Y-67101304D01*
X76159500Y-67278695D01*
X76194103Y-67452658D01*
X76194106Y-67452667D01*
X76261983Y-67616540D01*
X76261990Y-67616553D01*
X76360535Y-67764034D01*
X76360538Y-67764038D01*
X76485961Y-67889461D01*
X76485965Y-67889464D01*
X76633446Y-67988009D01*
X76633459Y-67988016D01*
X76678512Y-68006677D01*
X76797334Y-68055894D01*
X76797336Y-68055894D01*
X76797341Y-68055896D01*
X76971304Y-68090499D01*
X76971307Y-68090500D01*
X76971309Y-68090500D01*
X76989192Y-68090500D01*
X77056231Y-68110185D01*
X77076873Y-68126819D01*
X82355553Y-73405499D01*
X82389038Y-73466822D01*
X82389489Y-73468989D01*
X82412182Y-73583074D01*
X82412184Y-73583082D01*
X82476295Y-73737860D01*
X82569373Y-73877162D01*
X82687837Y-73995626D01*
X82780494Y-74057537D01*
X82827137Y-74088703D01*
X82981918Y-74152816D01*
X83096012Y-74175510D01*
X83157919Y-74207893D01*
X83159499Y-74209445D01*
X87265325Y-78315272D01*
X87265332Y-78315278D01*
X87323451Y-78354111D01*
X87323453Y-78354112D01*
X87323456Y-78354114D01*
X87371873Y-78386465D01*
X87490256Y-78435501D01*
X87490260Y-78435501D01*
X87490261Y-78435502D01*
X87615928Y-78460500D01*
X87615931Y-78460500D01*
X98785638Y-78460500D01*
X98852677Y-78480185D01*
X98873319Y-78496819D01*
X98885961Y-78509461D01*
X98885965Y-78509464D01*
X99033446Y-78608009D01*
X99033459Y-78608016D01*
X99153680Y-78657812D01*
X99197334Y-78675894D01*
X99197336Y-78675894D01*
X99197341Y-78675896D01*
X99371304Y-78710499D01*
X99371307Y-78710500D01*
X99371309Y-78710500D01*
X99548693Y-78710500D01*
X99548694Y-78710499D01*
X99606682Y-78698964D01*
X99722658Y-78675896D01*
X99722661Y-78675894D01*
X99722666Y-78675894D01*
X99886547Y-78608013D01*
X100034035Y-78509464D01*
X100096681Y-78446817D01*
X100158002Y-78413334D01*
X100184361Y-78410500D01*
X104946571Y-78410500D01*
X105031115Y-78393682D01*
X105072244Y-78385501D01*
X105190627Y-78336465D01*
X105201051Y-78329500D01*
X105297169Y-78265277D01*
X105745627Y-77816819D01*
X105806950Y-77783334D01*
X105833308Y-77780500D01*
X105851193Y-77780500D01*
X105851194Y-77780499D01*
X105909182Y-77768964D01*
X106025158Y-77745896D01*
X106025161Y-77745894D01*
X106025166Y-77745894D01*
X106189047Y-77678013D01*
X106336535Y-77579464D01*
X106461964Y-77454035D01*
X106560513Y-77306547D01*
X106628394Y-77142666D01*
X106628962Y-77139815D01*
X106662999Y-76968695D01*
X106663000Y-76968693D01*
X106663000Y-76791306D01*
X106662999Y-76791304D01*
X106628396Y-76617341D01*
X106628393Y-76617332D01*
X106619350Y-76595501D01*
X106606704Y-76564970D01*
X106560516Y-76453459D01*
X106560509Y-76453446D01*
X106461964Y-76305965D01*
X106461961Y-76305961D01*
X106336538Y-76180538D01*
X106336534Y-76180535D01*
X106189053Y-76081990D01*
X106189040Y-76081983D01*
X106025167Y-76014106D01*
X106025158Y-76014103D01*
X105851194Y-75979500D01*
X105851191Y-75979500D01*
X105673809Y-75979500D01*
X105673806Y-75979500D01*
X105499841Y-76014103D01*
X105499832Y-76014106D01*
X105335959Y-76081983D01*
X105335946Y-76081990D01*
X105188465Y-76180535D01*
X105188461Y-76180538D01*
X105063038Y-76305961D01*
X105063035Y-76305965D01*
X104964490Y-76453446D01*
X104964483Y-76453459D01*
X104896606Y-76617332D01*
X104896603Y-76617341D01*
X104862000Y-76791304D01*
X104862000Y-76809192D01*
X104853355Y-76838632D01*
X104846832Y-76868619D01*
X104843077Y-76873634D01*
X104842315Y-76876231D01*
X104825681Y-76896873D01*
X104649373Y-77073181D01*
X104588050Y-77106666D01*
X104561692Y-77109500D01*
X100070100Y-77109500D01*
X100003061Y-77089815D01*
X100001209Y-77088602D01*
X99886549Y-77011988D01*
X99886547Y-77011987D01*
X99722667Y-76944106D01*
X99722658Y-76944103D01*
X99548694Y-76909500D01*
X99548691Y-76909500D01*
X99371309Y-76909500D01*
X99371306Y-76909500D01*
X99197341Y-76944103D01*
X99197332Y-76944106D01*
X99033459Y-77011983D01*
X99033446Y-77011990D01*
X98885965Y-77110535D01*
X98885961Y-77110538D01*
X98873319Y-77123181D01*
X98811996Y-77156666D01*
X98785638Y-77159500D01*
X88000808Y-77159500D01*
X87933769Y-77139815D01*
X87913127Y-77123181D01*
X84116169Y-73326223D01*
X84082684Y-73264900D01*
X84080652Y-73251996D01*
X84050298Y-73099397D01*
X84047816Y-73086918D01*
X83983703Y-72932137D01*
X83952537Y-72885494D01*
X83890626Y-72792837D01*
X83772162Y-72674373D01*
X83632860Y-72581295D01*
X83478082Y-72517184D01*
X83478074Y-72517182D01*
X83307792Y-72483311D01*
X83308046Y-72482029D01*
X83249503Y-72458381D01*
X83238776Y-72448830D01*
X77996819Y-67206873D01*
X77963334Y-67145550D01*
X77960500Y-67119192D01*
X77960500Y-67101306D01*
X77960499Y-67101304D01*
X77925896Y-66927341D01*
X77925893Y-66927332D01*
X77858016Y-66763459D01*
X77858009Y-66763446D01*
X77759464Y-66615965D01*
X77759461Y-66615961D01*
X77634038Y-66490538D01*
X77634034Y-66490535D01*
X77486553Y-66391990D01*
X77486540Y-66391983D01*
X77322667Y-66324106D01*
X77322658Y-66324103D01*
X77148694Y-66289500D01*
X77148691Y-66289500D01*
X76971309Y-66289500D01*
X76971306Y-66289500D01*
X76797341Y-66324103D01*
X76797332Y-66324106D01*
X76633459Y-66391983D01*
X76633446Y-66391990D01*
X76485965Y-66490535D01*
X76485961Y-66490538D01*
X76360538Y-66615961D01*
X76360535Y-66615965D01*
X76261990Y-66763446D01*
X76261983Y-66763459D01*
X76194106Y-66927332D01*
X76194103Y-66927341D01*
X76159500Y-67101304D01*
X73932950Y-67101304D01*
X72622387Y-65800263D01*
X72400926Y-65580411D01*
X72367219Y-65519212D01*
X72364292Y-65491446D01*
X72599000Y-35610000D01*
X72598999Y-35610000D01*
X63017245Y-35688225D01*
X62950047Y-35669088D01*
X62903863Y-35616660D01*
X62892233Y-35564251D01*
X62891864Y-33003909D01*
X63497868Y-33003909D01*
X63497868Y-33020068D01*
X63497868Y-33256091D01*
X63506801Y-33312490D01*
X63537318Y-33505168D01*
X63537318Y-33505171D01*
X63598707Y-33694104D01*
X63615246Y-33745005D01*
X63722316Y-33955142D01*
X63729736Y-33969703D01*
X63877956Y-34173712D01*
X63877960Y-34173717D01*
X64056282Y-34352039D01*
X64056287Y-34352043D01*
X64234235Y-34481329D01*
X64260300Y-34500266D01*
X64484995Y-34614754D01*
X64724833Y-34692682D01*
X64973909Y-34732132D01*
X64973910Y-34732132D01*
X65226090Y-34732132D01*
X65226091Y-34732132D01*
X65475167Y-34692682D01*
X65475170Y-34692681D01*
X65475171Y-34692681D01*
X65518734Y-34678525D01*
X65715005Y-34614754D01*
X65939700Y-34500266D01*
X66143719Y-34352038D01*
X66322038Y-34173719D01*
X66470266Y-33969700D01*
X66584754Y-33745005D01*
X66662682Y-33505167D01*
X66702132Y-33256091D01*
X66702132Y-33003909D01*
X66662682Y-32754833D01*
X66662681Y-32754829D01*
X66662681Y-32754828D01*
X66622296Y-32630537D01*
X66584754Y-32514995D01*
X66470266Y-32290300D01*
X66398269Y-32191204D01*
X66322043Y-32086287D01*
X66322039Y-32086282D01*
X66143717Y-31907960D01*
X66143712Y-31907956D01*
X65939703Y-31759736D01*
X65939702Y-31759735D01*
X65939700Y-31759734D01*
X65715005Y-31645246D01*
X65631025Y-31617959D01*
X65475169Y-31567318D01*
X65309116Y-31541018D01*
X65226091Y-31527868D01*
X64973909Y-31527868D01*
X64890883Y-31541018D01*
X64724831Y-31567318D01*
X64724828Y-31567318D01*
X64484992Y-31645247D01*
X64260296Y-31759736D01*
X64056287Y-31907956D01*
X64056282Y-31907960D01*
X63877960Y-32086282D01*
X63877956Y-32086287D01*
X63729736Y-32290296D01*
X63615247Y-32514992D01*
X63537318Y-32754828D01*
X63537318Y-32754831D01*
X63515947Y-32889762D01*
X63497868Y-33003909D01*
X62891864Y-33003909D01*
X62890812Y-25713909D01*
X63497868Y-25713909D01*
X63497868Y-25966090D01*
X63537318Y-26215168D01*
X63537318Y-26215171D01*
X63589637Y-26376190D01*
X63615246Y-26455005D01*
X63718171Y-26657007D01*
X63729736Y-26679703D01*
X63877956Y-26883712D01*
X63877960Y-26883717D01*
X64056282Y-27062039D01*
X64056287Y-27062043D01*
X64179933Y-27151876D01*
X64260300Y-27210266D01*
X64484995Y-27324754D01*
X64724833Y-27402682D01*
X64973909Y-27442132D01*
X64973910Y-27442132D01*
X65226090Y-27442132D01*
X65226091Y-27442132D01*
X65475167Y-27402682D01*
X65475170Y-27402681D01*
X65475171Y-27402681D01*
X65518734Y-27388525D01*
X65715005Y-27324754D01*
X65939700Y-27210266D01*
X66143719Y-27062038D01*
X66322038Y-26883719D01*
X66470266Y-26679700D01*
X66584754Y-26455005D01*
X66650954Y-26251263D01*
X66662681Y-26215171D01*
X66662681Y-26215170D01*
X66662682Y-26215167D01*
X66702132Y-25966091D01*
X66702132Y-25713909D01*
X66693120Y-25657009D01*
X66678421Y-25564204D01*
X66675876Y-25548135D01*
X70425500Y-25548135D01*
X70425500Y-27151870D01*
X70425501Y-27151876D01*
X70431908Y-27211483D01*
X70482202Y-27346328D01*
X70482206Y-27346335D01*
X70568452Y-27461544D01*
X70568455Y-27461547D01*
X70683664Y-27547793D01*
X70683671Y-27547797D01*
X70818517Y-27598091D01*
X70818516Y-27598091D01*
X70825444Y-27598835D01*
X70878127Y-27604500D01*
X72481872Y-27604499D01*
X72541483Y-27598091D01*
X72676331Y-27547796D01*
X72791546Y-27461546D01*
X72877796Y-27346331D01*
X72928091Y-27211483D01*
X72934500Y-27151873D01*
X72934499Y-27135562D01*
X72938178Y-27120801D01*
X72948446Y-27103266D01*
X72954168Y-27083764D01*
X72965744Y-27073728D01*
X72973486Y-27060509D01*
X72991605Y-27051309D01*
X73006962Y-27037997D01*
X73022126Y-27035813D01*
X73035786Y-27028878D01*
X73056002Y-27030934D01*
X73076118Y-27028038D01*
X73090055Y-27034399D01*
X73105297Y-27035950D01*
X73112016Y-27041301D01*
X73133457Y-27042989D01*
X73697037Y-26479408D01*
X73714075Y-26542993D01*
X73779901Y-26657007D01*
X73872993Y-26750099D01*
X73987007Y-26815925D01*
X74050590Y-26832962D01*
X73487009Y-27396541D01*
X73487010Y-27396542D01*
X73522755Y-27422512D01*
X73522768Y-27422520D01*
X73698626Y-27512126D01*
X73886353Y-27573123D01*
X74081303Y-27604000D01*
X74278697Y-27604000D01*
X74473646Y-27573123D01*
X74661373Y-27512126D01*
X74837241Y-27422516D01*
X74872988Y-27396543D01*
X74872988Y-27396541D01*
X74309410Y-26832962D01*
X74372993Y-26815925D01*
X74487007Y-26750099D01*
X74580099Y-26657007D01*
X74645925Y-26542993D01*
X74662962Y-26479409D01*
X75226541Y-27042988D01*
X75226543Y-27042988D01*
X75252516Y-27007241D01*
X75319235Y-26876298D01*
X75367209Y-26825502D01*
X75435030Y-26808707D01*
X75501165Y-26831244D01*
X75540202Y-26876294D01*
X75580726Y-26955826D01*
X75607058Y-27007505D01*
X75723115Y-27167246D01*
X75862753Y-27306884D01*
X76012234Y-27415486D01*
X76022499Y-27422944D01*
X76198439Y-27512591D01*
X76323637Y-27553270D01*
X76386236Y-27573610D01*
X76581264Y-27604500D01*
X76581269Y-27604500D01*
X76778736Y-27604500D01*
X76973763Y-27573610D01*
X76975262Y-27573123D01*
X77161561Y-27512591D01*
X77337501Y-27422944D01*
X77442955Y-27346328D01*
X77497246Y-27306884D01*
X77497248Y-27306881D01*
X77497252Y-27306879D01*
X77636879Y-27167252D01*
X77636881Y-27167248D01*
X77636884Y-27167246D01*
X77752941Y-27007505D01*
X77752942Y-27007504D01*
X77752944Y-27007501D01*
X77819797Y-26876295D01*
X77867769Y-26825502D01*
X77935590Y-26808707D01*
X78001725Y-26831244D01*
X78040765Y-26876298D01*
X78107483Y-27007239D01*
X78133457Y-27042988D01*
X78133457Y-27042989D01*
X78697037Y-26479408D01*
X78714075Y-26542993D01*
X78779901Y-26657007D01*
X78872993Y-26750099D01*
X78987007Y-26815925D01*
X79050590Y-26832962D01*
X78487009Y-27396541D01*
X78487010Y-27396542D01*
X78522755Y-27422512D01*
X78522768Y-27422520D01*
X78698626Y-27512126D01*
X78886353Y-27573123D01*
X79081303Y-27604000D01*
X79278697Y-27604000D01*
X79473646Y-27573123D01*
X79661373Y-27512126D01*
X79837241Y-27422516D01*
X79872988Y-27396543D01*
X79872988Y-27396541D01*
X79309410Y-26832962D01*
X79372993Y-26815925D01*
X79487007Y-26750099D01*
X79580099Y-26657007D01*
X79645925Y-26542993D01*
X79662962Y-26479409D01*
X80226541Y-27042988D01*
X80226543Y-27042988D01*
X80252516Y-27007241D01*
X80319235Y-26876298D01*
X80367209Y-26825502D01*
X80435030Y-26808707D01*
X80501165Y-26831244D01*
X80540202Y-26876294D01*
X80580726Y-26955826D01*
X80607058Y-27007505D01*
X80723115Y-27167246D01*
X80862751Y-27306882D01*
X80917045Y-27346328D01*
X80978385Y-27390893D01*
X81021051Y-27446221D01*
X81029500Y-27491211D01*
X81029500Y-28754069D01*
X81029500Y-28754071D01*
X81029499Y-28754071D01*
X81054497Y-28879738D01*
X81054499Y-28879744D01*
X81103534Y-28998125D01*
X81174726Y-29104673D01*
X81174727Y-29104674D01*
X81543181Y-29473127D01*
X81576666Y-29534450D01*
X81579500Y-29560808D01*
X81579500Y-32525927D01*
X81559815Y-32592966D01*
X81507011Y-32638721D01*
X81437853Y-32648665D01*
X81374297Y-32619640D01*
X81367819Y-32613608D01*
X81355911Y-32601700D01*
X81355907Y-32601697D01*
X81200237Y-32497681D01*
X81200228Y-32497676D01*
X81027251Y-32426027D01*
X81027243Y-32426025D01*
X80843620Y-32389500D01*
X80843616Y-32389500D01*
X80656384Y-32389500D01*
X80656379Y-32389500D01*
X80472756Y-32426025D01*
X80472748Y-32426027D01*
X80299771Y-32497676D01*
X80299762Y-32497681D01*
X80144092Y-32601697D01*
X80144088Y-32601700D01*
X80092610Y-32653180D01*
X80031287Y-32686666D01*
X80004928Y-32689500D01*
X78045929Y-32689500D01*
X77920261Y-32714497D01*
X77920255Y-32714499D01*
X77820149Y-32755965D01*
X77801877Y-32763533D01*
X77801869Y-32763537D01*
X77695326Y-32834726D01*
X76814727Y-33715325D01*
X76814721Y-33715332D01*
X76755668Y-33803711D01*
X76755669Y-33803712D01*
X76743535Y-33821871D01*
X76694499Y-33940255D01*
X76694497Y-33940261D01*
X76669500Y-34065928D01*
X76669500Y-62714070D01*
X76679450Y-62764091D01*
X76689401Y-62814114D01*
X76694499Y-62839744D01*
X76695403Y-62844287D01*
X76689174Y-62913879D01*
X76646311Y-62969056D01*
X76580420Y-62992299D01*
X76512424Y-62976230D01*
X76486104Y-62956158D01*
X74806819Y-61276873D01*
X74773334Y-61215550D01*
X74770500Y-61189192D01*
X74770500Y-34085072D01*
X74790185Y-34018033D01*
X74806820Y-33997390D01*
X74858299Y-33945911D01*
X74858302Y-33945908D01*
X74962322Y-33790231D01*
X75033973Y-33617251D01*
X75070500Y-33433616D01*
X75070500Y-33246384D01*
X75033973Y-33062749D01*
X74975452Y-32921468D01*
X74962323Y-32889771D01*
X74962318Y-32889762D01*
X74858302Y-32734092D01*
X74858299Y-32734088D01*
X74725911Y-32601700D01*
X74725907Y-32601697D01*
X74570237Y-32497681D01*
X74570228Y-32497676D01*
X74397251Y-32426027D01*
X74397243Y-32426025D01*
X74213620Y-32389500D01*
X74213616Y-32389500D01*
X74026384Y-32389500D01*
X74026379Y-32389500D01*
X73842756Y-32426025D01*
X73842748Y-32426027D01*
X73669771Y-32497676D01*
X73669762Y-32497681D01*
X73514092Y-32601697D01*
X73514088Y-32601700D01*
X73381700Y-32734088D01*
X73381697Y-32734092D01*
X73277681Y-32889762D01*
X73277676Y-32889771D01*
X73206027Y-33062748D01*
X73206025Y-33062756D01*
X73169500Y-33246379D01*
X73169500Y-33433620D01*
X73206025Y-33617243D01*
X73206027Y-33617251D01*
X73277676Y-33790228D01*
X73277681Y-33790237D01*
X73381697Y-33945907D01*
X73381700Y-33945911D01*
X73433180Y-33997390D01*
X73466666Y-34058713D01*
X73469500Y-34085072D01*
X73469500Y-61574070D01*
X73479747Y-61625581D01*
X73479747Y-61625583D01*
X73493458Y-61694514D01*
X73494499Y-61699744D01*
X73543535Y-61818127D01*
X73614723Y-61924669D01*
X73614726Y-61924673D01*
X88165326Y-76475273D01*
X88165329Y-76475275D01*
X88165331Y-76475277D01*
X88271873Y-76546465D01*
X88390256Y-76595501D01*
X88390260Y-76595501D01*
X88390261Y-76595502D01*
X88515928Y-76620500D01*
X88515931Y-76620500D01*
X99544071Y-76620500D01*
X99628615Y-76603682D01*
X99669744Y-76595501D01*
X99788127Y-76546465D01*
X99894669Y-76475277D01*
X103913127Y-72456819D01*
X103974450Y-72423334D01*
X104000808Y-72420500D01*
X104028693Y-72420500D01*
X104028694Y-72420499D01*
X104086682Y-72408964D01*
X104202658Y-72385896D01*
X104202661Y-72385894D01*
X104202666Y-72385894D01*
X104366547Y-72318013D01*
X104514035Y-72219464D01*
X104639464Y-72094035D01*
X104738013Y-71946547D01*
X104738015Y-71946540D01*
X104740883Y-71941177D01*
X104741951Y-71941747D01*
X104781779Y-71892323D01*
X104848073Y-71870258D01*
X104915773Y-71887537D01*
X104954592Y-71923800D01*
X104962040Y-71934604D01*
X104966987Y-71946547D01*
X105065536Y-72094035D01*
X105086176Y-72114675D01*
X105092592Y-72123982D01*
X105100121Y-72146860D01*
X105111665Y-72167999D01*
X105113890Y-72188695D01*
X105114435Y-72190349D01*
X105114176Y-72191349D01*
X105114500Y-72194361D01*
X105114500Y-74019069D01*
X105114500Y-74019071D01*
X105114499Y-74019071D01*
X105139497Y-74144738D01*
X105139499Y-74144744D01*
X105188534Y-74263125D01*
X105259726Y-74369673D01*
X106002225Y-75112172D01*
X106002232Y-75112178D01*
X106089518Y-75170500D01*
X106102383Y-75179095D01*
X106108773Y-75183365D01*
X106227156Y-75232401D01*
X106227160Y-75232401D01*
X106227161Y-75232402D01*
X106352828Y-75257400D01*
X106352831Y-75257400D01*
X108142238Y-75257400D01*
X108209277Y-75277085D01*
X108229919Y-75293719D01*
X108242561Y-75306361D01*
X108242565Y-75306364D01*
X108390046Y-75404909D01*
X108390059Y-75404916D01*
X108512963Y-75455823D01*
X108553934Y-75472794D01*
X108553936Y-75472794D01*
X108553941Y-75472796D01*
X108727904Y-75507399D01*
X108727907Y-75507400D01*
X108727909Y-75507400D01*
X108905293Y-75507400D01*
X108905294Y-75507399D01*
X108963282Y-75495864D01*
X109079258Y-75472796D01*
X109079261Y-75472794D01*
X109079266Y-75472794D01*
X109243147Y-75404913D01*
X109390635Y-75306364D01*
X109516064Y-75180935D01*
X109614613Y-75033447D01*
X109682494Y-74869566D01*
X109717100Y-74695591D01*
X109717100Y-74518209D01*
X109717100Y-74518206D01*
X109717099Y-74518204D01*
X109682496Y-74344241D01*
X109682493Y-74344232D01*
X109614616Y-74180359D01*
X109614609Y-74180346D01*
X109516064Y-74032865D01*
X109516061Y-74032861D01*
X109390638Y-73907438D01*
X109390634Y-73907435D01*
X109243153Y-73808890D01*
X109243140Y-73808883D01*
X109079267Y-73741006D01*
X109079258Y-73741003D01*
X108905294Y-73706400D01*
X108905291Y-73706400D01*
X108727909Y-73706400D01*
X108727906Y-73706400D01*
X108553941Y-73741003D01*
X108553932Y-73741006D01*
X108390059Y-73808883D01*
X108390046Y-73808890D01*
X108242565Y-73907435D01*
X108242561Y-73907438D01*
X108229919Y-73920081D01*
X108168596Y-73953566D01*
X108142238Y-73956400D01*
X106737708Y-73956400D01*
X106670669Y-73936715D01*
X106650027Y-73920081D01*
X106451819Y-73721873D01*
X106418334Y-73660550D01*
X106415500Y-73634192D01*
X106415500Y-72194361D01*
X106435185Y-72127322D01*
X106451816Y-72106682D01*
X106464464Y-72094035D01*
X106563013Y-71946547D01*
X106564670Y-71942548D01*
X106587455Y-71887537D01*
X106630894Y-71782666D01*
X106665500Y-71608691D01*
X106665500Y-71431309D01*
X106665500Y-71431306D01*
X106665499Y-71431304D01*
X106630896Y-71257341D01*
X106630893Y-71257332D01*
X106563016Y-71093459D01*
X106563009Y-71093446D01*
X106464464Y-70945965D01*
X106464461Y-70945961D01*
X106339038Y-70820538D01*
X106339034Y-70820535D01*
X106191553Y-70721990D01*
X106191540Y-70721983D01*
X106027667Y-70654106D01*
X106027658Y-70654103D01*
X105853694Y-70619500D01*
X105853691Y-70619500D01*
X105676309Y-70619500D01*
X105676306Y-70619500D01*
X105502341Y-70654103D01*
X105502332Y-70654106D01*
X105338459Y-70721983D01*
X105338446Y-70721990D01*
X105190965Y-70820535D01*
X105190961Y-70820538D01*
X105065538Y-70945961D01*
X105065535Y-70945965D01*
X104966990Y-71093446D01*
X104964117Y-71098823D01*
X104963049Y-71098252D01*
X104923214Y-71147680D01*
X104856919Y-71169741D01*
X104789220Y-71152458D01*
X104741613Y-71101318D01*
X104738072Y-71093563D01*
X104738009Y-71093446D01*
X104639464Y-70945965D01*
X104639461Y-70945961D01*
X104514038Y-70820538D01*
X104514034Y-70820535D01*
X104366553Y-70721990D01*
X104366540Y-70721983D01*
X104202667Y-70654106D01*
X104202658Y-70654103D01*
X104028694Y-70619500D01*
X104028691Y-70619500D01*
X103989807Y-70619500D01*
X103922768Y-70599815D01*
X103877013Y-70547011D01*
X103867069Y-70477853D01*
X103896094Y-70414297D01*
X103902126Y-70407819D01*
X104019232Y-70290714D01*
X104333127Y-69976819D01*
X104394450Y-69943334D01*
X104420808Y-69940500D01*
X108100138Y-69940500D01*
X108167177Y-69960185D01*
X108212932Y-70012989D01*
X108222876Y-70082147D01*
X108193851Y-70145703D01*
X108187819Y-70152181D01*
X108117138Y-70222861D01*
X108117135Y-70222865D01*
X108018590Y-70370346D01*
X108018583Y-70370359D01*
X107950706Y-70534232D01*
X107950703Y-70534241D01*
X107916100Y-70708204D01*
X107916100Y-70885595D01*
X107950703Y-71059558D01*
X107950706Y-71059567D01*
X108018583Y-71223440D01*
X108018590Y-71223453D01*
X108117135Y-71370934D01*
X108117138Y-71370938D01*
X108242561Y-71496361D01*
X108242565Y-71496364D01*
X108390046Y-71594909D01*
X108390059Y-71594916D01*
X108512963Y-71645823D01*
X108553934Y-71662794D01*
X108553936Y-71662794D01*
X108553941Y-71662796D01*
X108727904Y-71697399D01*
X108727907Y-71697400D01*
X108727909Y-71697400D01*
X108905293Y-71697400D01*
X108905294Y-71697399D01*
X108963282Y-71685864D01*
X109079258Y-71662796D01*
X109079261Y-71662794D01*
X109079266Y-71662794D01*
X109243147Y-71594913D01*
X109243150Y-71594910D01*
X109243152Y-71594910D01*
X109282978Y-71568299D01*
X109349655Y-71547420D01*
X109351870Y-71547400D01*
X110926082Y-71547400D01*
X110995500Y-71547400D01*
X111062539Y-71567085D01*
X111108294Y-71619889D01*
X111119500Y-71671400D01*
X111119500Y-76423918D01*
X111119500Y-76423920D01*
X111119499Y-76423920D01*
X111148340Y-76568907D01*
X111148343Y-76568917D01*
X111204914Y-76705492D01*
X111237812Y-76754727D01*
X111237813Y-76754730D01*
X111287046Y-76828414D01*
X111287052Y-76828421D01*
X114313181Y-79854549D01*
X114327884Y-79881476D01*
X114344477Y-79907295D01*
X114345368Y-79913495D01*
X114346666Y-79915872D01*
X114349500Y-79942230D01*
X114349500Y-79964582D01*
X114329815Y-80031621D01*
X114298385Y-80064900D01*
X114252787Y-80098028D01*
X114252782Y-80098032D01*
X114108028Y-80242786D01*
X113987715Y-80408386D01*
X113894781Y-80590776D01*
X113831522Y-80785465D01*
X113799500Y-80987648D01*
X113799500Y-81192351D01*
X113831522Y-81394534D01*
X113894781Y-81589223D01*
X113941477Y-81680867D01*
X113984868Y-81766027D01*
X113987715Y-81771613D01*
X114108028Y-81937213D01*
X114108034Y-81937219D01*
X114252781Y-82081966D01*
X114298384Y-82115098D01*
X114341050Y-82170425D01*
X114349500Y-82215416D01*
X114349500Y-82637770D01*
X114329815Y-82704809D01*
X114313181Y-82725451D01*
X112985451Y-84053181D01*
X112924128Y-84086666D01*
X112897770Y-84089500D01*
X107486080Y-84089500D01*
X107341092Y-84118340D01*
X107341082Y-84118343D01*
X107204511Y-84174912D01*
X107204498Y-84174919D01*
X107081584Y-84257048D01*
X107081580Y-84257051D01*
X102680798Y-88657832D01*
X102619475Y-88691317D01*
X102573720Y-88692625D01*
X102528731Y-88685500D01*
X102331269Y-88685500D01*
X102331264Y-88685500D01*
X102136236Y-88716389D01*
X101948441Y-88777408D01*
X101772495Y-88867058D01*
X101612753Y-88983115D01*
X101473115Y-89122753D01*
X101357058Y-89282495D01*
X101267408Y-89458441D01*
X101206389Y-89646236D01*
X101175500Y-89841263D01*
X101175500Y-90038736D01*
X101206389Y-90233763D01*
X101265440Y-90415502D01*
X101267409Y-90421561D01*
X101356923Y-90597239D01*
X101357058Y-90597504D01*
X101473115Y-90757246D01*
X101612753Y-90896884D01*
X101717439Y-90972941D01*
X101772499Y-91012944D01*
X101948439Y-91102591D01*
X102073637Y-91143270D01*
X102136236Y-91163610D01*
X102331264Y-91194500D01*
X102331269Y-91194500D01*
X102528736Y-91194500D01*
X102723763Y-91163610D01*
X102725262Y-91163123D01*
X102911561Y-91102591D01*
X103087501Y-91012944D01*
X103192955Y-90936328D01*
X103247246Y-90896884D01*
X103247248Y-90896881D01*
X103247252Y-90896879D01*
X103386879Y-90757252D01*
X103386881Y-90757248D01*
X103386884Y-90757246D01*
X103502941Y-90597505D01*
X103502942Y-90597504D01*
X103502944Y-90597501D01*
X103569797Y-90466295D01*
X103617769Y-90415502D01*
X103685590Y-90398707D01*
X103751725Y-90421244D01*
X103790765Y-90466298D01*
X103857483Y-90597239D01*
X103883456Y-90632987D01*
X104154527Y-90361917D01*
X104215851Y-90328432D01*
X104240902Y-90325605D01*
X104601076Y-90321819D01*
X104606144Y-90323250D01*
X104622993Y-90340099D01*
X104714414Y-90392881D01*
X104714624Y-90393118D01*
X104725294Y-90462168D01*
X104696938Y-90526025D01*
X104690058Y-90533493D01*
X104237009Y-90986541D01*
X104237010Y-90986542D01*
X104272755Y-91012512D01*
X104272768Y-91012520D01*
X104448626Y-91102126D01*
X104636353Y-91163123D01*
X104831303Y-91194000D01*
X105028697Y-91194000D01*
X105223646Y-91163123D01*
X105411373Y-91102126D01*
X105587241Y-91012516D01*
X105622988Y-90986543D01*
X105622988Y-90986541D01*
X105163124Y-90526677D01*
X105129639Y-90465354D01*
X105134358Y-90399363D01*
X105237007Y-90340099D01*
X105262235Y-90314870D01*
X105602184Y-90311297D01*
X105669420Y-90330275D01*
X105691162Y-90347608D01*
X105976541Y-90632988D01*
X106002518Y-90597237D01*
X106069235Y-90466298D01*
X106117209Y-90415502D01*
X106185030Y-90398707D01*
X106251165Y-90421244D01*
X106290202Y-90466294D01*
X106336677Y-90557505D01*
X106357058Y-90597505D01*
X106473115Y-90757246D01*
X106612753Y-90896884D01*
X106717439Y-90972941D01*
X106772499Y-91012944D01*
X106948439Y-91102591D01*
X107073637Y-91143270D01*
X107136236Y-91163610D01*
X107331264Y-91194500D01*
X107331269Y-91194500D01*
X107528736Y-91194500D01*
X107723763Y-91163610D01*
X107725262Y-91163123D01*
X107911561Y-91102591D01*
X108087501Y-91012944D01*
X108192955Y-90936328D01*
X108247246Y-90896884D01*
X108247248Y-90896881D01*
X108247252Y-90896879D01*
X108386879Y-90757252D01*
X108386881Y-90757248D01*
X108386884Y-90757246D01*
X108502941Y-90597505D01*
X108502942Y-90597504D01*
X108502944Y-90597501D01*
X108569516Y-90466846D01*
X108617490Y-90416052D01*
X108685311Y-90399257D01*
X108751446Y-90421794D01*
X108790482Y-90466845D01*
X108836541Y-90557239D01*
X108857058Y-90597505D01*
X108973115Y-90757246D01*
X109112753Y-90896884D01*
X109217439Y-90972941D01*
X109272499Y-91012944D01*
X109448439Y-91102591D01*
X109573637Y-91143270D01*
X109636236Y-91163610D01*
X109831264Y-91194500D01*
X109831269Y-91194500D01*
X110028736Y-91194500D01*
X110223763Y-91163610D01*
X110225262Y-91163123D01*
X110411561Y-91102591D01*
X110587501Y-91012944D01*
X110692955Y-90936328D01*
X110747246Y-90896884D01*
X110747248Y-90896881D01*
X110747252Y-90896879D01*
X110886879Y-90757252D01*
X110886881Y-90757248D01*
X110886884Y-90757246D01*
X111002941Y-90597505D01*
X111002942Y-90597504D01*
X111002944Y-90597501D01*
X111069797Y-90466295D01*
X111117769Y-90415502D01*
X111185590Y-90398707D01*
X111251725Y-90421244D01*
X111290765Y-90466298D01*
X111357483Y-90597239D01*
X111383457Y-90632988D01*
X111383457Y-90632989D01*
X111947036Y-90069407D01*
X111964075Y-90132993D01*
X112029901Y-90247007D01*
X112122993Y-90340099D01*
X112237007Y-90405925D01*
X112300590Y-90422962D01*
X111737009Y-90986541D01*
X111737010Y-90986542D01*
X111772755Y-91012512D01*
X111772768Y-91012520D01*
X111948626Y-91102126D01*
X112136353Y-91163123D01*
X112331303Y-91194000D01*
X112528697Y-91194000D01*
X112723646Y-91163123D01*
X112911373Y-91102126D01*
X113087241Y-91012516D01*
X113122988Y-90986543D01*
X113122988Y-90986541D01*
X112559410Y-90422962D01*
X112622993Y-90405925D01*
X112737007Y-90340099D01*
X112830099Y-90247007D01*
X112895925Y-90132993D01*
X112912962Y-90069408D01*
X113476541Y-90632988D01*
X113498704Y-90631244D01*
X113506508Y-90625227D01*
X113576121Y-90619246D01*
X113637917Y-90651850D01*
X113672276Y-90712687D01*
X113675249Y-90738567D01*
X113675324Y-90738564D01*
X113675389Y-90739786D01*
X113675500Y-90740749D01*
X113675500Y-90741856D01*
X113675501Y-90741876D01*
X113681908Y-90801483D01*
X113732202Y-90936328D01*
X113732206Y-90936335D01*
X113818452Y-91051544D01*
X113818455Y-91051547D01*
X113933664Y-91137793D01*
X113933671Y-91137797D01*
X114068517Y-91188091D01*
X114068516Y-91188091D01*
X114075444Y-91188835D01*
X114128127Y-91194500D01*
X115731872Y-91194499D01*
X115791483Y-91188091D01*
X115926331Y-91137796D01*
X116041546Y-91051546D01*
X116127796Y-90936331D01*
X116178091Y-90801483D01*
X116184500Y-90741873D01*
X116184499Y-90063965D01*
X116204183Y-89996927D01*
X116256987Y-89951172D01*
X116297837Y-89942199D01*
X116300000Y-89940000D01*
X116298737Y-89838632D01*
X119189500Y-89838632D01*
X119189500Y-90041368D01*
X119205357Y-90141487D01*
X119221215Y-90241608D01*
X119283861Y-90434417D01*
X119283862Y-90434420D01*
X119330538Y-90526025D01*
X119374703Y-90612704D01*
X119375905Y-90615062D01*
X119495062Y-90779069D01*
X119495066Y-90779074D01*
X119638425Y-90922433D01*
X119638430Y-90922437D01*
X119762409Y-91012512D01*
X119802441Y-91041597D01*
X119887711Y-91085044D01*
X119983079Y-91133637D01*
X119983082Y-91133638D01*
X120079486Y-91164961D01*
X120175893Y-91196285D01*
X120376132Y-91228000D01*
X120376133Y-91228000D01*
X120578867Y-91228000D01*
X120578868Y-91228000D01*
X120779107Y-91196285D01*
X120971920Y-91133637D01*
X121152559Y-91041597D01*
X121316576Y-90922432D01*
X121459932Y-90779076D01*
X121471054Y-90763767D01*
X121526379Y-90721102D01*
X121595992Y-90715120D01*
X121657789Y-90747723D01*
X121692149Y-90808560D01*
X121694662Y-90823394D01*
X121695907Y-90834980D01*
X121746202Y-90969828D01*
X121746206Y-90969835D01*
X121832452Y-91085044D01*
X121832455Y-91085047D01*
X121947664Y-91171293D01*
X121947671Y-91171297D01*
X122082517Y-91221591D01*
X122082516Y-91221591D01*
X122089444Y-91222335D01*
X122142127Y-91228000D01*
X123812872Y-91227999D01*
X123872483Y-91221591D01*
X124007331Y-91171296D01*
X124122546Y-91085046D01*
X124208796Y-90969831D01*
X124259091Y-90834983D01*
X124265500Y-90775373D01*
X124265499Y-89838632D01*
X127222000Y-89838632D01*
X127222000Y-90041368D01*
X127237857Y-90141487D01*
X127253715Y-90241608D01*
X127316361Y-90434417D01*
X127316362Y-90434420D01*
X127363038Y-90526025D01*
X127407203Y-90612704D01*
X127408405Y-90615062D01*
X127527562Y-90779069D01*
X127527566Y-90779074D01*
X127670925Y-90922433D01*
X127670930Y-90922437D01*
X127794909Y-91012512D01*
X127834941Y-91041597D01*
X127920211Y-91085044D01*
X128015579Y-91133637D01*
X128015582Y-91133638D01*
X128111986Y-91164961D01*
X128208393Y-91196285D01*
X128408632Y-91228000D01*
X128408633Y-91228000D01*
X128611367Y-91228000D01*
X128611368Y-91228000D01*
X128811607Y-91196285D01*
X129004420Y-91133637D01*
X129185059Y-91041597D01*
X129349076Y-90922432D01*
X129492432Y-90779076D01*
X129503554Y-90763767D01*
X129558879Y-90721102D01*
X129628492Y-90715120D01*
X129690289Y-90747723D01*
X129724649Y-90808560D01*
X129727162Y-90823394D01*
X129728407Y-90834980D01*
X129778702Y-90969828D01*
X129778706Y-90969835D01*
X129864952Y-91085044D01*
X129864955Y-91085047D01*
X129980164Y-91171293D01*
X129980171Y-91171297D01*
X130115017Y-91221591D01*
X130115016Y-91221591D01*
X130121944Y-91222335D01*
X130174627Y-91228000D01*
X131845372Y-91227999D01*
X131904983Y-91221591D01*
X132039831Y-91171296D01*
X132155046Y-91085046D01*
X132241296Y-90969831D01*
X132291591Y-90834983D01*
X132298000Y-90775373D01*
X132297999Y-89104628D01*
X132291591Y-89045017D01*
X132289166Y-89038516D01*
X132241297Y-88910171D01*
X132241293Y-88910164D01*
X132155047Y-88794955D01*
X132155044Y-88794952D01*
X132039835Y-88708706D01*
X132039828Y-88708702D01*
X131904982Y-88658408D01*
X131904983Y-88658408D01*
X131845383Y-88652001D01*
X131845381Y-88652000D01*
X131845373Y-88652000D01*
X131845364Y-88652000D01*
X130174629Y-88652000D01*
X130174623Y-88652001D01*
X130115016Y-88658408D01*
X129980171Y-88708702D01*
X129980164Y-88708706D01*
X129864955Y-88794952D01*
X129864952Y-88794955D01*
X129778706Y-88910164D01*
X129778702Y-88910171D01*
X129728408Y-89045016D01*
X129727163Y-89056604D01*
X129700425Y-89121155D01*
X129643032Y-89161003D01*
X129573207Y-89163496D01*
X129513118Y-89127843D01*
X129503557Y-89116234D01*
X129492439Y-89100932D01*
X129492433Y-89100925D01*
X129349074Y-88957566D01*
X129349069Y-88957562D01*
X129185062Y-88838405D01*
X129185061Y-88838404D01*
X129185059Y-88838403D01*
X129127186Y-88808915D01*
X129004420Y-88746362D01*
X129004417Y-88746361D01*
X128811608Y-88683715D01*
X128711487Y-88667857D01*
X128611368Y-88652000D01*
X128408632Y-88652000D01*
X128341885Y-88662571D01*
X128208391Y-88683715D01*
X128015582Y-88746361D01*
X128015579Y-88746362D01*
X127834937Y-88838405D01*
X127670930Y-88957562D01*
X127670925Y-88957566D01*
X127527566Y-89100925D01*
X127527562Y-89100930D01*
X127408405Y-89264937D01*
X127316362Y-89445579D01*
X127316361Y-89445582D01*
X127253715Y-89638391D01*
X127236512Y-89747007D01*
X127222000Y-89838632D01*
X124265499Y-89838632D01*
X124265499Y-89104628D01*
X124259091Y-89045017D01*
X124256666Y-89038516D01*
X124208797Y-88910171D01*
X124208793Y-88910164D01*
X124122547Y-88794955D01*
X124122544Y-88794952D01*
X124007335Y-88708706D01*
X124007328Y-88708702D01*
X123872482Y-88658408D01*
X123872483Y-88658408D01*
X123812883Y-88652001D01*
X123812881Y-88652000D01*
X123812873Y-88652000D01*
X123812864Y-88652000D01*
X122142129Y-88652000D01*
X122142123Y-88652001D01*
X122082516Y-88658408D01*
X121947671Y-88708702D01*
X121947664Y-88708706D01*
X121832455Y-88794952D01*
X121832452Y-88794955D01*
X121746206Y-88910164D01*
X121746202Y-88910171D01*
X121695908Y-89045016D01*
X121694663Y-89056604D01*
X121667925Y-89121155D01*
X121610532Y-89161003D01*
X121540707Y-89163496D01*
X121480618Y-89127843D01*
X121471057Y-89116234D01*
X121459939Y-89100932D01*
X121459933Y-89100925D01*
X121316574Y-88957566D01*
X121316569Y-88957562D01*
X121152562Y-88838405D01*
X121152561Y-88838404D01*
X121152559Y-88838403D01*
X121094686Y-88808915D01*
X120971920Y-88746362D01*
X120971917Y-88746361D01*
X120779108Y-88683715D01*
X120678987Y-88667857D01*
X120578868Y-88652000D01*
X120376132Y-88652000D01*
X120309385Y-88662571D01*
X120175891Y-88683715D01*
X119983082Y-88746361D01*
X119983079Y-88746362D01*
X119802437Y-88838405D01*
X119638430Y-88957562D01*
X119638425Y-88957566D01*
X119495066Y-89100925D01*
X119495062Y-89100930D01*
X119375905Y-89264937D01*
X119283862Y-89445579D01*
X119283861Y-89445582D01*
X119221215Y-89638391D01*
X119204012Y-89747007D01*
X119189500Y-89838632D01*
X116298737Y-89838632D01*
X116298696Y-89835305D01*
X116271834Y-87679702D01*
X116269881Y-87522979D01*
X116288728Y-87455701D01*
X116306186Y-87433758D01*
X121445277Y-82294669D01*
X121516466Y-82188126D01*
X121545189Y-82118779D01*
X121565501Y-82069744D01*
X121590500Y-81944069D01*
X121590500Y-80531379D01*
X122374500Y-80531379D01*
X122374500Y-80718620D01*
X122411025Y-80902243D01*
X122411027Y-80902251D01*
X122482676Y-81075228D01*
X122482681Y-81075237D01*
X122586697Y-81230907D01*
X122586700Y-81230911D01*
X122719088Y-81363299D01*
X122719092Y-81363302D01*
X122874762Y-81467318D01*
X122874768Y-81467321D01*
X122874769Y-81467322D01*
X123047749Y-81538973D01*
X123172958Y-81563878D01*
X123234865Y-81596261D01*
X123236445Y-81597813D01*
X124901586Y-83262954D01*
X124931058Y-83282645D01*
X124975270Y-83312186D01*
X125024505Y-83345084D01*
X125024506Y-83345084D01*
X125024507Y-83345085D01*
X125024509Y-83345086D01*
X125099874Y-83376303D01*
X125161087Y-83401658D01*
X125161091Y-83401658D01*
X125161092Y-83401659D01*
X125306079Y-83430500D01*
X125306082Y-83430500D01*
X125306083Y-83430500D01*
X125453917Y-83430500D01*
X133304733Y-83430500D01*
X133371772Y-83450185D01*
X133373623Y-83451397D01*
X133479769Y-83522322D01*
X133652749Y-83593973D01*
X133836379Y-83630499D01*
X133836383Y-83630500D01*
X133836384Y-83630500D01*
X134023617Y-83630500D01*
X134023618Y-83630499D01*
X134207251Y-83593973D01*
X134380231Y-83522322D01*
X134535908Y-83418302D01*
X134668302Y-83285908D01*
X134772322Y-83130231D01*
X134843973Y-82957251D01*
X134880500Y-82773616D01*
X134880500Y-82586384D01*
X134843973Y-82402749D01*
X134772322Y-82229769D01*
X134772321Y-82229768D01*
X134772318Y-82229762D01*
X134668302Y-82074092D01*
X134668299Y-82074088D01*
X134535911Y-81941700D01*
X134535907Y-81941697D01*
X134380237Y-81837681D01*
X134380228Y-81837676D01*
X134207251Y-81766027D01*
X134207243Y-81766025D01*
X134023620Y-81729500D01*
X134023616Y-81729500D01*
X133836384Y-81729500D01*
X133836379Y-81729500D01*
X133652756Y-81766025D01*
X133652748Y-81766027D01*
X133479771Y-81837676D01*
X133479763Y-81837681D01*
X133373624Y-81908602D01*
X133306947Y-81929480D01*
X133304733Y-81929500D01*
X125742230Y-81929500D01*
X125675191Y-81909815D01*
X125654549Y-81893181D01*
X124297813Y-80536445D01*
X124264328Y-80475122D01*
X124263907Y-80473104D01*
X124238973Y-80347749D01*
X124167322Y-80174769D01*
X124167321Y-80174768D01*
X124167318Y-80174762D01*
X124063302Y-80019092D01*
X124063299Y-80019088D01*
X123930911Y-79886700D01*
X123930907Y-79886697D01*
X123775237Y-79782681D01*
X123775228Y-79782676D01*
X123602251Y-79711027D01*
X123602243Y-79711025D01*
X123418620Y-79674500D01*
X123418616Y-79674500D01*
X123231384Y-79674500D01*
X123231379Y-79674500D01*
X123047756Y-79711025D01*
X123047748Y-79711027D01*
X122874771Y-79782676D01*
X122874762Y-79782681D01*
X122719092Y-79886697D01*
X122719088Y-79886700D01*
X122586700Y-80019088D01*
X122586697Y-80019092D01*
X122482681Y-80174762D01*
X122482676Y-80174771D01*
X122411027Y-80347748D01*
X122411026Y-80347754D01*
X122374500Y-80531379D01*
X121590500Y-80531379D01*
X121590500Y-79186379D01*
X128829500Y-79186379D01*
X128829500Y-79373620D01*
X128866025Y-79557243D01*
X128866027Y-79557251D01*
X128937676Y-79730228D01*
X128937681Y-79730237D01*
X129041697Y-79885907D01*
X129041700Y-79885911D01*
X129174088Y-80018299D01*
X129174092Y-80018302D01*
X129329762Y-80122318D01*
X129329768Y-80122321D01*
X129329769Y-80122322D01*
X129502749Y-80193973D01*
X129662157Y-80225681D01*
X129686379Y-80230499D01*
X129686383Y-80230500D01*
X129686384Y-80230500D01*
X129873617Y-80230500D01*
X129873618Y-80230499D01*
X130057251Y-80193973D01*
X130230231Y-80122322D01*
X130321410Y-80061397D01*
X130388087Y-80040520D01*
X130390301Y-80040500D01*
X140047770Y-80040500D01*
X140114809Y-80060185D01*
X140135451Y-80076819D01*
X141704010Y-81645377D01*
X141737495Y-81706700D01*
X141738831Y-81715183D01*
X141777947Y-81911829D01*
X141777950Y-81911839D01*
X141853364Y-82093907D01*
X141853371Y-82093920D01*
X141962860Y-82257781D01*
X141962863Y-82257785D01*
X142102214Y-82397136D01*
X142102218Y-82397139D01*
X142266079Y-82506628D01*
X142266092Y-82506635D01*
X142416536Y-82568950D01*
X142448165Y-82582051D01*
X142448169Y-82582051D01*
X142448170Y-82582052D01*
X142641456Y-82620500D01*
X142641459Y-82620500D01*
X142838543Y-82620500D01*
X142968582Y-82594632D01*
X143031835Y-82582051D01*
X143213914Y-82506632D01*
X143377782Y-82397139D01*
X143517139Y-82257782D01*
X143626632Y-82093914D01*
X143634843Y-82074092D01*
X143643721Y-82052655D01*
X143702051Y-81911835D01*
X143721445Y-81814336D01*
X143740500Y-81718543D01*
X143740500Y-81521456D01*
X143702052Y-81328170D01*
X143702051Y-81328169D01*
X143702051Y-81328165D01*
X143667643Y-81245095D01*
X143626635Y-81146092D01*
X143626628Y-81146079D01*
X143517139Y-80982218D01*
X143517136Y-80982214D01*
X143377785Y-80842863D01*
X143377781Y-80842860D01*
X143213920Y-80733371D01*
X143213907Y-80733364D01*
X143031839Y-80657950D01*
X143031829Y-80657947D01*
X142832566Y-80618311D01*
X142832923Y-80616513D01*
X142776102Y-80593559D01*
X142765377Y-80584010D01*
X140888421Y-78707052D01*
X140888414Y-78707046D01*
X140814729Y-78657812D01*
X140814729Y-78657813D01*
X140765491Y-78624913D01*
X140628917Y-78568343D01*
X140628907Y-78568340D01*
X140483920Y-78539500D01*
X140483918Y-78539500D01*
X130420233Y-78539500D01*
X130353194Y-78519815D01*
X130351342Y-78518602D01*
X130230237Y-78437681D01*
X130230228Y-78437676D01*
X130057251Y-78366027D01*
X130057243Y-78366025D01*
X129873620Y-78329500D01*
X129873616Y-78329500D01*
X129686384Y-78329500D01*
X129686379Y-78329500D01*
X129502756Y-78366025D01*
X129502748Y-78366027D01*
X129329771Y-78437676D01*
X129329762Y-78437681D01*
X129174092Y-78541697D01*
X129174088Y-78541700D01*
X129041700Y-78674088D01*
X129041697Y-78674092D01*
X128937681Y-78829762D01*
X128937676Y-78829771D01*
X128866027Y-79002748D01*
X128866025Y-79002756D01*
X128829500Y-79186379D01*
X121590500Y-79186379D01*
X121590500Y-74551902D01*
X122049500Y-74551902D01*
X122049500Y-74788097D01*
X122086446Y-75021368D01*
X122159433Y-75245996D01*
X122196886Y-75319500D01*
X122266657Y-75456433D01*
X122405483Y-75647510D01*
X122572490Y-75814517D01*
X122763567Y-75953343D01*
X122814903Y-75979500D01*
X122974003Y-76060566D01*
X122974005Y-76060566D01*
X122974008Y-76060568D01*
X123039929Y-76081987D01*
X123198631Y-76133553D01*
X123431903Y-76170500D01*
X123431908Y-76170500D01*
X123668097Y-76170500D01*
X123901368Y-76133553D01*
X123912598Y-76129904D01*
X124125992Y-76060568D01*
X124336433Y-75953343D01*
X124527510Y-75814517D01*
X124694517Y-75647510D01*
X124833343Y-75456433D01*
X124940568Y-75245992D01*
X125013553Y-75021368D01*
X125037596Y-74869566D01*
X125050500Y-74788097D01*
X125050500Y-74551902D01*
X125013553Y-74318631D01*
X124959676Y-74152816D01*
X124940568Y-74094008D01*
X124940566Y-74094005D01*
X124940566Y-74094003D01*
X124860423Y-73936715D01*
X124833343Y-73883567D01*
X124694517Y-73692490D01*
X124527510Y-73525483D01*
X124336433Y-73386657D01*
X124125996Y-73279433D01*
X123901368Y-73206446D01*
X123668097Y-73169500D01*
X123668092Y-73169500D01*
X123431908Y-73169500D01*
X123431903Y-73169500D01*
X123198631Y-73206446D01*
X122974003Y-73279433D01*
X122763566Y-73386657D01*
X122737633Y-73405499D01*
X122572490Y-73525483D01*
X122572488Y-73525485D01*
X122572487Y-73525485D01*
X122405485Y-73692487D01*
X122405485Y-73692488D01*
X122405483Y-73692490D01*
X122370236Y-73741003D01*
X122266657Y-73883566D01*
X122159433Y-74094003D01*
X122086446Y-74318631D01*
X122049500Y-74551902D01*
X121590500Y-74551902D01*
X121590500Y-69895931D01*
X121590500Y-69895928D01*
X121565502Y-69770261D01*
X121565501Y-69770260D01*
X121565501Y-69770256D01*
X121522589Y-69666657D01*
X121522589Y-69666656D01*
X121522588Y-69666653D01*
X121516469Y-69651881D01*
X121516468Y-69651880D01*
X121516466Y-69651874D01*
X121445277Y-69545331D01*
X121445272Y-69545325D01*
X118751894Y-66851947D01*
X122050000Y-66851947D01*
X122050000Y-67088052D01*
X122086934Y-67321247D01*
X122159897Y-67545802D01*
X122267087Y-67756174D01*
X122327338Y-67839104D01*
X122327340Y-67839105D01*
X123067037Y-67099408D01*
X123084075Y-67162993D01*
X123149901Y-67277007D01*
X123242993Y-67370099D01*
X123357007Y-67435925D01*
X123420590Y-67452962D01*
X122680893Y-68192658D01*
X122763828Y-68252914D01*
X122974197Y-68360102D01*
X123198752Y-68433065D01*
X123198751Y-68433065D01*
X123431948Y-68470000D01*
X123668052Y-68470000D01*
X123901247Y-68433065D01*
X124125802Y-68360102D01*
X124336163Y-68252918D01*
X124336169Y-68252914D01*
X124419104Y-68192658D01*
X124419105Y-68192658D01*
X123679408Y-67452962D01*
X123742993Y-67435925D01*
X123857007Y-67370099D01*
X123950099Y-67277007D01*
X124015925Y-67162993D01*
X124032962Y-67099409D01*
X124772658Y-67839105D01*
X124772658Y-67839104D01*
X124832914Y-67756169D01*
X124832918Y-67756163D01*
X124940102Y-67545802D01*
X125013065Y-67321247D01*
X125050000Y-67088052D01*
X125050000Y-66851947D01*
X125013065Y-66618752D01*
X124940102Y-66394197D01*
X124832914Y-66183828D01*
X124772658Y-66100894D01*
X124772658Y-66100893D01*
X124032962Y-66840590D01*
X124015925Y-66777007D01*
X123950099Y-66662993D01*
X123857007Y-66569901D01*
X123742993Y-66504075D01*
X123679409Y-66487037D01*
X124419105Y-65747340D01*
X124419104Y-65747338D01*
X124336174Y-65687087D01*
X124125802Y-65579897D01*
X123901247Y-65506934D01*
X123901248Y-65506934D01*
X123668052Y-65470000D01*
X123431948Y-65470000D01*
X123198752Y-65506934D01*
X122974197Y-65579897D01*
X122763830Y-65687084D01*
X122680894Y-65747340D01*
X123420591Y-66487037D01*
X123357007Y-66504075D01*
X123242993Y-66569901D01*
X123149901Y-66662993D01*
X123084075Y-66777007D01*
X123067037Y-66840591D01*
X122327340Y-66100894D01*
X122267084Y-66183830D01*
X122159897Y-66394197D01*
X122086934Y-66618752D01*
X122050000Y-66851947D01*
X118751894Y-66851947D01*
X107674673Y-55774726D01*
X107674669Y-55774723D01*
X107568127Y-55703535D01*
X107449744Y-55654499D01*
X107449738Y-55654497D01*
X107324071Y-55629500D01*
X107324069Y-55629500D01*
X100430808Y-55629500D01*
X100363769Y-55609815D01*
X100343127Y-55593181D01*
X99399974Y-54650028D01*
X99366489Y-54588705D01*
X99371473Y-54519013D01*
X99413345Y-54463080D01*
X99468259Y-54439873D01*
X99511252Y-54433064D01*
X99735802Y-54360102D01*
X99946163Y-54252918D01*
X99946169Y-54252914D01*
X100029104Y-54192658D01*
X100029105Y-54192658D01*
X99289408Y-53452962D01*
X99352993Y-53435925D01*
X99467007Y-53370099D01*
X99560099Y-53277007D01*
X99625925Y-53162993D01*
X99642962Y-53099409D01*
X100382658Y-53839105D01*
X100382658Y-53839104D01*
X100442914Y-53756169D01*
X100442918Y-53756163D01*
X100550102Y-53545802D01*
X100623065Y-53321247D01*
X100660000Y-53088052D01*
X100660000Y-52851947D01*
X100623065Y-52618752D01*
X100550102Y-52394197D01*
X100442914Y-52183828D01*
X100382658Y-52100894D01*
X100382658Y-52100893D01*
X99642962Y-52840590D01*
X99625925Y-52777007D01*
X99560099Y-52662993D01*
X99467007Y-52569901D01*
X99352993Y-52504075D01*
X99289409Y-52487037D01*
X100029105Y-51747340D01*
X100029104Y-51747338D01*
X99946174Y-51687087D01*
X99735802Y-51579897D01*
X99511247Y-51506934D01*
X99511248Y-51506934D01*
X99278052Y-51470000D01*
X99041948Y-51470000D01*
X98808752Y-51506934D01*
X98584197Y-51579897D01*
X98373830Y-51687084D01*
X98290894Y-51747340D01*
X99030591Y-52487037D01*
X98967007Y-52504075D01*
X98852993Y-52569901D01*
X98759901Y-52662993D01*
X98694075Y-52777007D01*
X98677037Y-52840591D01*
X97937340Y-52100894D01*
X97877084Y-52183830D01*
X97769897Y-52394197D01*
X97696934Y-52618751D01*
X97690125Y-52661743D01*
X97660195Y-52724877D01*
X97600883Y-52761808D01*
X97531021Y-52760810D01*
X97479971Y-52730025D01*
X92581848Y-47831902D01*
X97719500Y-47831902D01*
X97719500Y-48068097D01*
X97756446Y-48301368D01*
X97829433Y-48525996D01*
X97921371Y-48706433D01*
X97936657Y-48736433D01*
X98075483Y-48927510D01*
X98242490Y-49094517D01*
X98433567Y-49233343D01*
X98532991Y-49284002D01*
X98644003Y-49340566D01*
X98644005Y-49340566D01*
X98644008Y-49340568D01*
X98764412Y-49379689D01*
X98868631Y-49413553D01*
X99101903Y-49450500D01*
X99101908Y-49450500D01*
X99338097Y-49450500D01*
X99571368Y-49413553D01*
X99795992Y-49340568D01*
X100006433Y-49233343D01*
X100197510Y-49094517D01*
X100364517Y-48927510D01*
X100503343Y-48736433D01*
X100610568Y-48525992D01*
X100683553Y-48301368D01*
X100720500Y-48068097D01*
X100720500Y-47831902D01*
X100683553Y-47598631D01*
X100610566Y-47374003D01*
X100520385Y-47197014D01*
X100503343Y-47163567D01*
X100364517Y-46972490D01*
X100197510Y-46805483D01*
X100006433Y-46666657D01*
X99947555Y-46636657D01*
X99795996Y-46559433D01*
X99571368Y-46486446D01*
X99338097Y-46449500D01*
X99338092Y-46449500D01*
X99101908Y-46449500D01*
X99101903Y-46449500D01*
X98868631Y-46486446D01*
X98644003Y-46559433D01*
X98433566Y-46666657D01*
X98324550Y-46745862D01*
X98242490Y-46805483D01*
X98242488Y-46805485D01*
X98242487Y-46805485D01*
X98075485Y-46972487D01*
X98075485Y-46972488D01*
X98075483Y-46972490D01*
X98045549Y-47013691D01*
X97936657Y-47163566D01*
X97829433Y-47374003D01*
X97756446Y-47598631D01*
X97719500Y-47831902D01*
X92581848Y-47831902D01*
X89866819Y-45116873D01*
X89833334Y-45055550D01*
X89830500Y-45029192D01*
X89830500Y-40291947D01*
X97720000Y-40291947D01*
X97720000Y-40528052D01*
X97756934Y-40761247D01*
X97829897Y-40985802D01*
X97937087Y-41196174D01*
X97997338Y-41279104D01*
X97997340Y-41279105D01*
X98737037Y-40539408D01*
X98754075Y-40602993D01*
X98819901Y-40717007D01*
X98912993Y-40810099D01*
X99027007Y-40875925D01*
X99090590Y-40892962D01*
X98350893Y-41632658D01*
X98433828Y-41692914D01*
X98644197Y-41800102D01*
X98868752Y-41873065D01*
X98868751Y-41873065D01*
X99101948Y-41910000D01*
X99338052Y-41910000D01*
X99571247Y-41873065D01*
X99795802Y-41800102D01*
X100006163Y-41692918D01*
X100006169Y-41692914D01*
X100089104Y-41632658D01*
X100089105Y-41632658D01*
X99349408Y-40892962D01*
X99412993Y-40875925D01*
X99527007Y-40810099D01*
X99620099Y-40717007D01*
X99685925Y-40602993D01*
X99702962Y-40539409D01*
X100442658Y-41279105D01*
X100442658Y-41279104D01*
X100502914Y-41196169D01*
X100502918Y-41196163D01*
X100610102Y-40985802D01*
X100683065Y-40761247D01*
X100720000Y-40528052D01*
X100720000Y-40291947D01*
X100683065Y-40058754D01*
X100669998Y-40018536D01*
X100669997Y-40018534D01*
X100659525Y-39986304D01*
X108812000Y-39986304D01*
X108812000Y-40163695D01*
X108846603Y-40337658D01*
X108846606Y-40337667D01*
X108914483Y-40501540D01*
X108914490Y-40501553D01*
X109013035Y-40649034D01*
X109013038Y-40649038D01*
X109138461Y-40774461D01*
X109138465Y-40774464D01*
X109285946Y-40873009D01*
X109285959Y-40873016D01*
X109376307Y-40910439D01*
X109430711Y-40954280D01*
X109452776Y-41020574D01*
X109435497Y-41088273D01*
X109384360Y-41135884D01*
X109376307Y-41139561D01*
X109285959Y-41176983D01*
X109285946Y-41176990D01*
X109138465Y-41275535D01*
X109138461Y-41275538D01*
X109013038Y-41400961D01*
X109013035Y-41400965D01*
X108914490Y-41548446D01*
X108914483Y-41548459D01*
X108846606Y-41712332D01*
X108846603Y-41712341D01*
X108812000Y-41886304D01*
X108812000Y-42063695D01*
X108846603Y-42237658D01*
X108846606Y-42237667D01*
X108914483Y-42401540D01*
X108914490Y-42401553D01*
X109013034Y-42549033D01*
X109013035Y-42549034D01*
X109013036Y-42549035D01*
X109043181Y-42579180D01*
X109076666Y-42640501D01*
X109079500Y-42666861D01*
X109079500Y-53395638D01*
X109059815Y-53462677D01*
X109043181Y-53483319D01*
X109030538Y-53495961D01*
X109030535Y-53495965D01*
X108931990Y-53643446D01*
X108931983Y-53643459D01*
X108864106Y-53807332D01*
X108864103Y-53807341D01*
X108829500Y-53981304D01*
X108829500Y-54158695D01*
X108864103Y-54332658D01*
X108864106Y-54332667D01*
X108931983Y-54496540D01*
X108931990Y-54496553D01*
X109030535Y-54644034D01*
X109030538Y-54644038D01*
X109155961Y-54769461D01*
X109155965Y-54769464D01*
X109303446Y-54868009D01*
X109303459Y-54868016D01*
X109372896Y-54896777D01*
X109467334Y-54935894D01*
X109467336Y-54935894D01*
X109467341Y-54935896D01*
X109641304Y-54970499D01*
X109641307Y-54970500D01*
X109641309Y-54970500D01*
X109818693Y-54970500D01*
X109818694Y-54970499D01*
X109876682Y-54958964D01*
X109992658Y-54935896D01*
X109992661Y-54935894D01*
X109992666Y-54935894D01*
X110156547Y-54868013D01*
X110304035Y-54769464D01*
X110429464Y-54644035D01*
X110528013Y-54496547D01*
X110595894Y-54332666D01*
X110598503Y-54319554D01*
X110618964Y-54216682D01*
X110630500Y-54158691D01*
X110630500Y-53981309D01*
X110630500Y-53981306D01*
X110630499Y-53981304D01*
X110595896Y-53807341D01*
X110595893Y-53807332D01*
X110528016Y-53643459D01*
X110528009Y-53643446D01*
X110429464Y-53495965D01*
X110429461Y-53495961D01*
X110416819Y-53483319D01*
X110383334Y-53421996D01*
X110380500Y-53395638D01*
X110380500Y-47816051D01*
X110400185Y-47749012D01*
X110452989Y-47703257D01*
X110522147Y-47693313D01*
X110573392Y-47712949D01*
X110588453Y-47723013D01*
X110588455Y-47723013D01*
X110588459Y-47723016D01*
X110711363Y-47773923D01*
X110752334Y-47790894D01*
X110752336Y-47790894D01*
X110752341Y-47790896D01*
X110926304Y-47825499D01*
X110926307Y-47825500D01*
X110926309Y-47825500D01*
X111103693Y-47825500D01*
X111103694Y-47825499D01*
X111161682Y-47813964D01*
X111277658Y-47790896D01*
X111277661Y-47790894D01*
X111277666Y-47790894D01*
X111441547Y-47723013D01*
X111589035Y-47624464D01*
X111714464Y-47499035D01*
X111813013Y-47351547D01*
X111880894Y-47187666D01*
X111915500Y-47013691D01*
X111915500Y-46836309D01*
X111915500Y-46836306D01*
X111915499Y-46836304D01*
X111880896Y-46662341D01*
X111880893Y-46662332D01*
X111813016Y-46498459D01*
X111813009Y-46498446D01*
X111714464Y-46350965D01*
X111714461Y-46350961D01*
X111701819Y-46338319D01*
X111668334Y-46276996D01*
X111665500Y-46250638D01*
X111665500Y-40660928D01*
X111640502Y-40535261D01*
X111640501Y-40535260D01*
X111640501Y-40535256D01*
X111591465Y-40416873D01*
X111573510Y-40390001D01*
X111568918Y-40383128D01*
X111520275Y-40310328D01*
X110779673Y-39569726D01*
X110779669Y-39569723D01*
X110673127Y-39498535D01*
X110554744Y-39449499D01*
X110554738Y-39449497D01*
X110429071Y-39424500D01*
X110429069Y-39424500D01*
X110386862Y-39424500D01*
X110319823Y-39404815D01*
X110299181Y-39388181D01*
X110286538Y-39375538D01*
X110286534Y-39375535D01*
X110139053Y-39276990D01*
X110139040Y-39276983D01*
X109975167Y-39209106D01*
X109975158Y-39209103D01*
X109801194Y-39174500D01*
X109801191Y-39174500D01*
X109623809Y-39174500D01*
X109623806Y-39174500D01*
X109449841Y-39209103D01*
X109449832Y-39209106D01*
X109285959Y-39276983D01*
X109285946Y-39276990D01*
X109138465Y-39375535D01*
X109138461Y-39375538D01*
X109013038Y-39500961D01*
X109013035Y-39500965D01*
X108914490Y-39648446D01*
X108914483Y-39648459D01*
X108846606Y-39812332D01*
X108846603Y-39812341D01*
X108812000Y-39986304D01*
X100659525Y-39986304D01*
X100610102Y-39834197D01*
X100502914Y-39623828D01*
X100442658Y-39540894D01*
X100442658Y-39540893D01*
X99702962Y-40280590D01*
X99685925Y-40217007D01*
X99620099Y-40102993D01*
X99527007Y-40009901D01*
X99412993Y-39944075D01*
X99349409Y-39927037D01*
X100089105Y-39187340D01*
X100089104Y-39187338D01*
X100006174Y-39127087D01*
X99795802Y-39019897D01*
X99571247Y-38946934D01*
X99571248Y-38946934D01*
X99338052Y-38910000D01*
X99101948Y-38910000D01*
X98868752Y-38946934D01*
X98644197Y-39019897D01*
X98433830Y-39127084D01*
X98350894Y-39187340D01*
X99090591Y-39927037D01*
X99027007Y-39944075D01*
X98912993Y-40009901D01*
X98819901Y-40102993D01*
X98754075Y-40217007D01*
X98737037Y-40280591D01*
X97997340Y-39540894D01*
X97937084Y-39623830D01*
X97829897Y-39834197D01*
X97756934Y-40058752D01*
X97720000Y-40291947D01*
X89830500Y-40291947D01*
X89830500Y-33793634D01*
X94124500Y-33793634D01*
X94124500Y-34026365D01*
X94124501Y-34026382D01*
X94154865Y-34257024D01*
X94154879Y-34257126D01*
X94195330Y-34408092D01*
X94215120Y-34481947D01*
X94304180Y-34696960D01*
X94304188Y-34696976D01*
X94420553Y-34898524D01*
X94420564Y-34898540D01*
X94562242Y-35083179D01*
X94562248Y-35083186D01*
X94726813Y-35247751D01*
X94726820Y-35247757D01*
X94785107Y-35292482D01*
X94911468Y-35389442D01*
X94911475Y-35389446D01*
X95113023Y-35505811D01*
X95113039Y-35505819D01*
X95328052Y-35594879D01*
X95328054Y-35594879D01*
X95328060Y-35594882D01*
X95552874Y-35655121D01*
X95783628Y-35685500D01*
X95783635Y-35685500D01*
X96016365Y-35685500D01*
X96016372Y-35685500D01*
X96247126Y-35655121D01*
X96471940Y-35594882D01*
X96598292Y-35542546D01*
X96686960Y-35505819D01*
X96686963Y-35505817D01*
X96686969Y-35505815D01*
X96888532Y-35389442D01*
X97073181Y-35247756D01*
X97088073Y-35232864D01*
X97127125Y-35193813D01*
X97237751Y-35083186D01*
X97237756Y-35083181D01*
X97379442Y-34898532D01*
X97495815Y-34696969D01*
X97518846Y-34641368D01*
X97577292Y-34500263D01*
X97584882Y-34481940D01*
X97645121Y-34257126D01*
X97675500Y-34026372D01*
X97675500Y-33793659D01*
X99125000Y-33793659D01*
X99125000Y-34026340D01*
X99155369Y-34257024D01*
X99215592Y-34481779D01*
X99304632Y-34696740D01*
X99304636Y-34696750D01*
X99420970Y-34898248D01*
X99480551Y-34975894D01*
X100145884Y-34310560D01*
X100146740Y-34312626D01*
X100239762Y-34451844D01*
X100358156Y-34570238D01*
X100497374Y-34663260D01*
X100499437Y-34664114D01*
X99834104Y-35329446D01*
X99834104Y-35329447D01*
X99911752Y-35389029D01*
X100113249Y-35505363D01*
X100113259Y-35505367D01*
X100328220Y-35594407D01*
X100552975Y-35654630D01*
X100783659Y-35685000D01*
X101016341Y-35685000D01*
X101247024Y-35654630D01*
X101471779Y-35594407D01*
X101686740Y-35505367D01*
X101686750Y-35505363D01*
X101888255Y-35389024D01*
X101965894Y-35329447D01*
X101965894Y-35329446D01*
X101300562Y-34664114D01*
X101302626Y-34663260D01*
X101441844Y-34570238D01*
X101560238Y-34451844D01*
X101653260Y-34312626D01*
X101654114Y-34310562D01*
X102319446Y-34975894D01*
X102319447Y-34975894D01*
X102379024Y-34898255D01*
X102495363Y-34696750D01*
X102495367Y-34696740D01*
X102584407Y-34481779D01*
X102644630Y-34257024D01*
X102675000Y-34026340D01*
X102675000Y-33793659D01*
X102644630Y-33562975D01*
X102584407Y-33338220D01*
X102495367Y-33123259D01*
X102495363Y-33123249D01*
X102379029Y-32921752D01*
X102319447Y-32844104D01*
X102319446Y-32844104D01*
X101654114Y-33509436D01*
X101653260Y-33507374D01*
X101560238Y-33368156D01*
X101441844Y-33249762D01*
X101302626Y-33156740D01*
X101300560Y-33155884D01*
X101869311Y-32587135D01*
X104124500Y-32587135D01*
X104124500Y-35232870D01*
X104124501Y-35232876D01*
X104130908Y-35292483D01*
X104181202Y-35427328D01*
X104181206Y-35427335D01*
X104267452Y-35542544D01*
X104267455Y-35542547D01*
X104382664Y-35628793D01*
X104382671Y-35628797D01*
X104517517Y-35679091D01*
X104517516Y-35679091D01*
X104524444Y-35679835D01*
X104577127Y-35685500D01*
X107222872Y-35685499D01*
X107282483Y-35679091D01*
X107417331Y-35628796D01*
X107532546Y-35542546D01*
X107618796Y-35427331D01*
X107669091Y-35292483D01*
X107675500Y-35232873D01*
X107675500Y-35042000D01*
X107695185Y-34974961D01*
X107747989Y-34929206D01*
X107799500Y-34918000D01*
X114524218Y-34918000D01*
X114591257Y-34937685D01*
X114611899Y-34954319D01*
X115053181Y-35395601D01*
X115086666Y-35456924D01*
X115089500Y-35483282D01*
X115089500Y-56698541D01*
X115127947Y-56891828D01*
X115127949Y-56891836D01*
X115143964Y-56930499D01*
X115143964Y-56930500D01*
X115203364Y-57073907D01*
X115203371Y-57073920D01*
X115312859Y-57237780D01*
X115312860Y-57237781D01*
X115312861Y-57237782D01*
X115452218Y-57377139D01*
X115452219Y-57377139D01*
X115459286Y-57384206D01*
X115459285Y-57384206D01*
X115459289Y-57384209D01*
X119402215Y-61327137D01*
X119402219Y-61327140D01*
X119566079Y-61436628D01*
X119566085Y-61436631D01*
X119566086Y-61436632D01*
X119748165Y-61512052D01*
X119941455Y-61550500D01*
X119941458Y-61550501D01*
X119941460Y-61550501D01*
X120144655Y-61550501D01*
X120144675Y-61550500D01*
X122377111Y-61550500D01*
X122444150Y-61570185D01*
X122464792Y-61586819D01*
X122572490Y-61694517D01*
X122763567Y-61833343D01*
X122862991Y-61884002D01*
X122974003Y-61940566D01*
X122974005Y-61940566D01*
X122974008Y-61940568D01*
X123094412Y-61979689D01*
X123198631Y-62013553D01*
X123431903Y-62050500D01*
X123431908Y-62050500D01*
X123668097Y-62050500D01*
X123901368Y-62013553D01*
X124125992Y-61940568D01*
X124336433Y-61833343D01*
X124527510Y-61694517D01*
X124694517Y-61527510D01*
X124833343Y-61336433D01*
X124940568Y-61125992D01*
X125013553Y-60901368D01*
X125022275Y-60846300D01*
X125050500Y-60668097D01*
X125050500Y-60431902D01*
X125013553Y-60198631D01*
X124947066Y-59994008D01*
X124940568Y-59974008D01*
X124940566Y-59974005D01*
X124940566Y-59974003D01*
X124884002Y-59862991D01*
X124833343Y-59763567D01*
X124694517Y-59572490D01*
X124527510Y-59405483D01*
X124527506Y-59405480D01*
X124501612Y-59386666D01*
X124458948Y-59331335D01*
X124450500Y-59286350D01*
X124450500Y-57494362D01*
X124470185Y-57427323D01*
X124486819Y-57406681D01*
X125226681Y-56666819D01*
X125288004Y-56633334D01*
X125314362Y-56630500D01*
X129394902Y-56630500D01*
X129442354Y-56639939D01*
X129507249Y-56666819D01*
X129568165Y-56692051D01*
X129568169Y-56692051D01*
X129568170Y-56692052D01*
X129761456Y-56730500D01*
X129761459Y-56730500D01*
X129958543Y-56730500D01*
X130088582Y-56704632D01*
X130151835Y-56692051D01*
X130213007Y-56666712D01*
X130277646Y-56639939D01*
X130325098Y-56630500D01*
X130575638Y-56630500D01*
X130642677Y-56650185D01*
X130663319Y-56666819D01*
X139796763Y-65800263D01*
X139823642Y-65840489D01*
X139827675Y-65850227D01*
X139827679Y-65850233D01*
X139931694Y-66005903D01*
X139931700Y-66005911D01*
X140064088Y-66138299D01*
X140064092Y-66138302D01*
X140219762Y-66242318D01*
X140219768Y-66242321D01*
X140219769Y-66242322D01*
X140392749Y-66313973D01*
X140576379Y-66350499D01*
X140576383Y-66350500D01*
X140576384Y-66350500D01*
X140763617Y-66350500D01*
X140763618Y-66350499D01*
X140947251Y-66313973D01*
X141120231Y-66242322D01*
X141275908Y-66138302D01*
X141408302Y-66005908D01*
X141512322Y-65850231D01*
X141583973Y-65677251D01*
X141620500Y-65493616D01*
X141620500Y-65306384D01*
X141583973Y-65122749D01*
X141512322Y-64949769D01*
X141512321Y-64949768D01*
X141512318Y-64949762D01*
X141408302Y-64794092D01*
X141408299Y-64794088D01*
X141275911Y-64661700D01*
X141275903Y-64661694D01*
X141120233Y-64557679D01*
X141120227Y-64557675D01*
X141110489Y-64553642D01*
X141070263Y-64526763D01*
X131574035Y-55030535D01*
X131574030Y-55030531D01*
X131519703Y-54994232D01*
X131519696Y-54994228D01*
X131514959Y-54991063D01*
X131426547Y-54931987D01*
X131341549Y-54896780D01*
X131318107Y-54887070D01*
X131262666Y-54864105D01*
X131262658Y-54864103D01*
X131088696Y-54829500D01*
X131088692Y-54829500D01*
X131088691Y-54829500D01*
X130325098Y-54829500D01*
X130277646Y-54820061D01*
X130151839Y-54767950D01*
X130151829Y-54767947D01*
X129958543Y-54729500D01*
X129958541Y-54729500D01*
X129761459Y-54729500D01*
X129761457Y-54729500D01*
X129568170Y-54767947D01*
X129568160Y-54767950D01*
X129442354Y-54820061D01*
X129394902Y-54829500D01*
X124801303Y-54829500D01*
X124627341Y-54864103D01*
X124627333Y-54864105D01*
X124554450Y-54894295D01*
X124548451Y-54896780D01*
X124463453Y-54931987D01*
X124375040Y-54991063D01*
X124370304Y-54994226D01*
X124370301Y-54994229D01*
X124315961Y-55030537D01*
X122850540Y-56495958D01*
X122850534Y-56495965D01*
X122831300Y-56524751D01*
X122831289Y-56524768D01*
X122829122Y-56528013D01*
X122751987Y-56643453D01*
X122729169Y-56698541D01*
X122726007Y-56706173D01*
X122726006Y-56706176D01*
X122684105Y-56807333D01*
X122684103Y-56807341D01*
X122649500Y-56981303D01*
X122649500Y-59286350D01*
X122640318Y-59317619D01*
X122632368Y-59349241D01*
X122630394Y-59351414D01*
X122629815Y-59353389D01*
X122610320Y-59376802D01*
X122604659Y-59382110D01*
X122572490Y-59405483D01*
X122463376Y-59514596D01*
X122461931Y-59515952D01*
X122432449Y-59530841D01*
X122403469Y-59546666D01*
X122400480Y-59546987D01*
X122399564Y-59547450D01*
X122397841Y-59547271D01*
X122377111Y-59549500D01*
X120505783Y-59549500D01*
X120438744Y-59529815D01*
X120418102Y-59513181D01*
X117126819Y-56221898D01*
X117093334Y-56160575D01*
X117090500Y-56134217D01*
X117090500Y-52851947D01*
X122050000Y-52851947D01*
X122050000Y-53088052D01*
X122086934Y-53321247D01*
X122159897Y-53545802D01*
X122267087Y-53756174D01*
X122327338Y-53839104D01*
X122327340Y-53839105D01*
X123067037Y-53099408D01*
X123084075Y-53162993D01*
X123149901Y-53277007D01*
X123242993Y-53370099D01*
X123357007Y-53435925D01*
X123420590Y-53452962D01*
X122680893Y-54192658D01*
X122763828Y-54252914D01*
X122974197Y-54360102D01*
X123198752Y-54433065D01*
X123198751Y-54433065D01*
X123431948Y-54470000D01*
X123668052Y-54470000D01*
X123901247Y-54433065D01*
X124125802Y-54360102D01*
X124336163Y-54252918D01*
X124336169Y-54252914D01*
X124419104Y-54192658D01*
X124419105Y-54192658D01*
X123679408Y-53452962D01*
X123742993Y-53435925D01*
X123857007Y-53370099D01*
X123950099Y-53277007D01*
X124015925Y-53162993D01*
X124032962Y-53099409D01*
X124772658Y-53839105D01*
X124772658Y-53839104D01*
X124832914Y-53756169D01*
X124832918Y-53756163D01*
X124940102Y-53545802D01*
X125013065Y-53321247D01*
X125050000Y-53088052D01*
X125050000Y-52851947D01*
X125013065Y-52618752D01*
X124940102Y-52394197D01*
X124832914Y-52183828D01*
X124772658Y-52100894D01*
X124772658Y-52100893D01*
X124032962Y-52840590D01*
X124015925Y-52777007D01*
X123950099Y-52662993D01*
X123857007Y-52569901D01*
X123742993Y-52504075D01*
X123679409Y-52487037D01*
X124419105Y-51747340D01*
X124419104Y-51747338D01*
X124336174Y-51687087D01*
X124125802Y-51579897D01*
X123901247Y-51506934D01*
X123901248Y-51506934D01*
X123668052Y-51470000D01*
X123431948Y-51470000D01*
X123198752Y-51506934D01*
X122974197Y-51579897D01*
X122763830Y-51687084D01*
X122680894Y-51747340D01*
X123420591Y-52487037D01*
X123357007Y-52504075D01*
X123242993Y-52569901D01*
X123149901Y-52662993D01*
X123084075Y-52777007D01*
X123067037Y-52840591D01*
X122327340Y-52100894D01*
X122267084Y-52183830D01*
X122159897Y-52394197D01*
X122086934Y-52618752D01*
X122050000Y-52851947D01*
X117090500Y-52851947D01*
X117090500Y-47801902D01*
X122039500Y-47801902D01*
X122039500Y-48038097D01*
X122076446Y-48271368D01*
X122149433Y-48495996D01*
X122256657Y-48706433D01*
X122395483Y-48897510D01*
X122562490Y-49064517D01*
X122753567Y-49203343D01*
X122852991Y-49254002D01*
X122964003Y-49310566D01*
X122964005Y-49310566D01*
X122964008Y-49310568D01*
X123056332Y-49340566D01*
X123188631Y-49383553D01*
X123421903Y-49420500D01*
X123421908Y-49420500D01*
X123658097Y-49420500D01*
X123891368Y-49383553D01*
X124115992Y-49310568D01*
X124326433Y-49203343D01*
X124517510Y-49064517D01*
X124684517Y-48897510D01*
X124823343Y-48706433D01*
X124930568Y-48495992D01*
X125003553Y-48271368D01*
X125035749Y-48068092D01*
X125040500Y-48038097D01*
X125040500Y-47801902D01*
X125003553Y-47568631D01*
X124969689Y-47464412D01*
X124930568Y-47344008D01*
X124930566Y-47344005D01*
X124930566Y-47344003D01*
X124850604Y-47187070D01*
X124823343Y-47133567D01*
X124684517Y-46942490D01*
X124517510Y-46775483D01*
X124326433Y-46636657D01*
X124115996Y-46529433D01*
X123891368Y-46456446D01*
X123658097Y-46419500D01*
X123658092Y-46419500D01*
X123421908Y-46419500D01*
X123421903Y-46419500D01*
X123188631Y-46456446D01*
X122964003Y-46529433D01*
X122753566Y-46636657D01*
X122644550Y-46715862D01*
X122562490Y-46775483D01*
X122562488Y-46775485D01*
X122562487Y-46775485D01*
X122395485Y-46942487D01*
X122395485Y-46942488D01*
X122395483Y-46942490D01*
X122373689Y-46972487D01*
X122256657Y-47133566D01*
X122149433Y-47344003D01*
X122076446Y-47568631D01*
X122039500Y-47801902D01*
X117090500Y-47801902D01*
X117090500Y-44861072D01*
X117110185Y-44794033D01*
X117162989Y-44748278D01*
X117232147Y-44738334D01*
X117283391Y-44757970D01*
X117349762Y-44802318D01*
X117349768Y-44802321D01*
X117349769Y-44802322D01*
X117522749Y-44873973D01*
X117706379Y-44910499D01*
X117706383Y-44910500D01*
X117706384Y-44910500D01*
X117893617Y-44910500D01*
X117893618Y-44910499D01*
X118077251Y-44873973D01*
X118250231Y-44802322D01*
X118356376Y-44731397D01*
X118423053Y-44710520D01*
X118425267Y-44710500D01*
X124852770Y-44710500D01*
X124919809Y-44730185D01*
X124940451Y-44746819D01*
X144123181Y-63929548D01*
X144156666Y-63990871D01*
X144159500Y-64017229D01*
X144159500Y-88528786D01*
X144139815Y-88595825D01*
X144087011Y-88641580D01*
X144054899Y-88651259D01*
X143896235Y-88676390D01*
X143708441Y-88737408D01*
X143532495Y-88827058D01*
X143372753Y-88943115D01*
X143233115Y-89082753D01*
X143117056Y-89242497D01*
X143050203Y-89373702D01*
X143002229Y-89424497D01*
X142934407Y-89441292D01*
X142868273Y-89418754D01*
X142829234Y-89373701D01*
X142762520Y-89242768D01*
X142762512Y-89242755D01*
X142736542Y-89207010D01*
X142736541Y-89207009D01*
X142172962Y-89770589D01*
X142155925Y-89707007D01*
X142090099Y-89592993D01*
X141997007Y-89499901D01*
X141882993Y-89434075D01*
X141819409Y-89417037D01*
X142382989Y-88853457D01*
X142347239Y-88827483D01*
X142171373Y-88737873D01*
X141983646Y-88676876D01*
X141788697Y-88646000D01*
X141591303Y-88646000D01*
X141396353Y-88676876D01*
X141208626Y-88737873D01*
X141032762Y-88827482D01*
X141032760Y-88827483D01*
X140997010Y-88853456D01*
X140997010Y-88853457D01*
X141560591Y-89417037D01*
X141497007Y-89434075D01*
X141382993Y-89499901D01*
X141289901Y-89592993D01*
X141224075Y-89707007D01*
X141207037Y-89770590D01*
X140643457Y-89207010D01*
X140643456Y-89207010D01*
X140617483Y-89242760D01*
X140617479Y-89242767D01*
X140550484Y-89374251D01*
X140502510Y-89425046D01*
X140434689Y-89441841D01*
X140368554Y-89419303D01*
X140329516Y-89374251D01*
X140262523Y-89242773D01*
X140262512Y-89242755D01*
X140236542Y-89207010D01*
X140236541Y-89207009D01*
X139672962Y-89770589D01*
X139655925Y-89707007D01*
X139590099Y-89592993D01*
X139497007Y-89499901D01*
X139382993Y-89434075D01*
X139319409Y-89417037D01*
X139882989Y-88853457D01*
X139847239Y-88827483D01*
X139671373Y-88737873D01*
X139483646Y-88676876D01*
X139288697Y-88646000D01*
X139091303Y-88646000D01*
X138896353Y-88676876D01*
X138708626Y-88737873D01*
X138532762Y-88827482D01*
X138532760Y-88827483D01*
X138497010Y-88853456D01*
X138497010Y-88853457D01*
X139060591Y-89417037D01*
X138997007Y-89434075D01*
X138882993Y-89499901D01*
X138789901Y-89592993D01*
X138724075Y-89707007D01*
X138707037Y-89770590D01*
X138143457Y-89207010D01*
X138143456Y-89207010D01*
X138117483Y-89242760D01*
X138117482Y-89242762D01*
X138050765Y-89373701D01*
X138002790Y-89424497D01*
X137934969Y-89441292D01*
X137868834Y-89418754D01*
X137829796Y-89373702D01*
X137762944Y-89242499D01*
X137737159Y-89207009D01*
X137646884Y-89082753D01*
X137507246Y-88943115D01*
X137347504Y-88827058D01*
X137347503Y-88827057D01*
X137347501Y-88827056D01*
X137171561Y-88737409D01*
X137139630Y-88727034D01*
X136983763Y-88676389D01*
X136788736Y-88645500D01*
X136788731Y-88645500D01*
X136591269Y-88645500D01*
X136591264Y-88645500D01*
X136396236Y-88676389D01*
X136208441Y-88737408D01*
X136032495Y-88827058D01*
X135872753Y-88943115D01*
X135733115Y-89082753D01*
X135617058Y-89242495D01*
X135527408Y-89418441D01*
X135466389Y-89606236D01*
X135435500Y-89801263D01*
X135435500Y-89998736D01*
X135466389Y-90193763D01*
X135525262Y-90374953D01*
X135527409Y-90381561D01*
X135616923Y-90557239D01*
X135617058Y-90557504D01*
X135733115Y-90717246D01*
X135872753Y-90856884D01*
X135996158Y-90946541D01*
X136032499Y-90972944D01*
X136208439Y-91062591D01*
X136330116Y-91102126D01*
X136396236Y-91123610D01*
X136591264Y-91154500D01*
X136591269Y-91154500D01*
X136788736Y-91154500D01*
X136983763Y-91123610D01*
X136985262Y-91123123D01*
X137171561Y-91062591D01*
X137347501Y-90972944D01*
X137437192Y-90907779D01*
X137507246Y-90856884D01*
X137507248Y-90856881D01*
X137507252Y-90856879D01*
X137646879Y-90717252D01*
X137646881Y-90717248D01*
X137646884Y-90717246D01*
X137762941Y-90557505D01*
X137762942Y-90557504D01*
X137762944Y-90557501D01*
X137829797Y-90426295D01*
X137877769Y-90375502D01*
X137945590Y-90358707D01*
X138011725Y-90381244D01*
X138050765Y-90426298D01*
X138117483Y-90557239D01*
X138143457Y-90592988D01*
X138143457Y-90592989D01*
X138707037Y-90029409D01*
X138724075Y-90092993D01*
X138789901Y-90207007D01*
X138882993Y-90300099D01*
X138997007Y-90365925D01*
X139060590Y-90382962D01*
X138497009Y-90946541D01*
X138497010Y-90946542D01*
X138532755Y-90972512D01*
X138532768Y-90972520D01*
X138708626Y-91062126D01*
X138896353Y-91123123D01*
X139091303Y-91154000D01*
X139288697Y-91154000D01*
X139483646Y-91123123D01*
X139671373Y-91062126D01*
X139847241Y-90972516D01*
X139882988Y-90946543D01*
X139882988Y-90946541D01*
X139319410Y-90382962D01*
X139382993Y-90365925D01*
X139497007Y-90300099D01*
X139590099Y-90207007D01*
X139655925Y-90092993D01*
X139672962Y-90029409D01*
X140236541Y-90592988D01*
X140236543Y-90592988D01*
X140262516Y-90557241D01*
X140329515Y-90425749D01*
X140377490Y-90374953D01*
X140445311Y-90358158D01*
X140511446Y-90380695D01*
X140550485Y-90425749D01*
X140617483Y-90557239D01*
X140643457Y-90592988D01*
X140643457Y-90592989D01*
X141207037Y-90029409D01*
X141224075Y-90092993D01*
X141289901Y-90207007D01*
X141382993Y-90300099D01*
X141497007Y-90365925D01*
X141560590Y-90382962D01*
X140997009Y-90946541D01*
X140997010Y-90946542D01*
X141032755Y-90972512D01*
X141032768Y-90972520D01*
X141208626Y-91062126D01*
X141396353Y-91123123D01*
X141591303Y-91154000D01*
X141788697Y-91154000D01*
X141983646Y-91123123D01*
X142171373Y-91062126D01*
X142347241Y-90972516D01*
X142382988Y-90946543D01*
X142382988Y-90946541D01*
X141819410Y-90382962D01*
X141882993Y-90365925D01*
X141997007Y-90300099D01*
X142090099Y-90207007D01*
X142155925Y-90092993D01*
X142172962Y-90029409D01*
X142736541Y-90592988D01*
X142736543Y-90592988D01*
X142762516Y-90557241D01*
X142829235Y-90426298D01*
X142877209Y-90375502D01*
X142945030Y-90358707D01*
X143011165Y-90381244D01*
X143050202Y-90426294D01*
X143114782Y-90553039D01*
X143117058Y-90557505D01*
X143233115Y-90717246D01*
X143372753Y-90856884D01*
X143496158Y-90946541D01*
X143532499Y-90972944D01*
X143708439Y-91062591D01*
X143830116Y-91102126D01*
X143896236Y-91123610D01*
X144091264Y-91154500D01*
X144091269Y-91154500D01*
X144288736Y-91154500D01*
X144483763Y-91123610D01*
X144485262Y-91123123D01*
X144671561Y-91062591D01*
X144847501Y-90972944D01*
X144937192Y-90907779D01*
X145007246Y-90856884D01*
X145007248Y-90856881D01*
X145007252Y-90856879D01*
X145146879Y-90717252D01*
X145211182Y-90628744D01*
X145266510Y-90586080D01*
X145336123Y-90580099D01*
X145397919Y-90612704D01*
X145432277Y-90673543D01*
X145435152Y-90698573D01*
X145435324Y-90698564D01*
X145435474Y-90701371D01*
X145435500Y-90701595D01*
X145435500Y-90701852D01*
X145435501Y-90701876D01*
X145441908Y-90761483D01*
X145492202Y-90896328D01*
X145492206Y-90896335D01*
X145578452Y-91011544D01*
X145578455Y-91011547D01*
X145693664Y-91097793D01*
X145693671Y-91097797D01*
X145828517Y-91148091D01*
X145828516Y-91148091D01*
X145835444Y-91148835D01*
X145888127Y-91154500D01*
X147491872Y-91154499D01*
X147551483Y-91148091D01*
X147686331Y-91097796D01*
X147801546Y-91011546D01*
X147887796Y-90896331D01*
X147938091Y-90761483D01*
X147944500Y-90701873D01*
X147944499Y-89098128D01*
X147938091Y-89038517D01*
X147917427Y-88983115D01*
X147887797Y-88903671D01*
X147887793Y-88903664D01*
X147801547Y-88788455D01*
X147801544Y-88788452D01*
X147686335Y-88702206D01*
X147686328Y-88702202D01*
X147551482Y-88651908D01*
X147551483Y-88651908D01*
X147491883Y-88645501D01*
X147491881Y-88645500D01*
X147491873Y-88645500D01*
X147491864Y-88645500D01*
X145888129Y-88645500D01*
X145888123Y-88645501D01*
X145828512Y-88651909D01*
X145828510Y-88651909D01*
X145827821Y-88652167D01*
X145827249Y-88652207D01*
X145820969Y-88653692D01*
X145820728Y-88652673D01*
X145758129Y-88657144D01*
X145696810Y-88623653D01*
X145663331Y-88562326D01*
X145660500Y-88535981D01*
X145660500Y-84005541D01*
X147517868Y-84005541D01*
X147517868Y-84021700D01*
X147517868Y-84257723D01*
X147518704Y-84262999D01*
X147557318Y-84506800D01*
X147557318Y-84506803D01*
X147609637Y-84667822D01*
X147635246Y-84746637D01*
X147694903Y-84863721D01*
X147749736Y-84971335D01*
X147897956Y-85175344D01*
X147897960Y-85175349D01*
X148076282Y-85353671D01*
X148076287Y-85353675D01*
X148175985Y-85426109D01*
X148280300Y-85501898D01*
X148504995Y-85616386D01*
X148744833Y-85694314D01*
X148993909Y-85733764D01*
X148993910Y-85733764D01*
X149246090Y-85733764D01*
X149246091Y-85733764D01*
X149495167Y-85694314D01*
X149495170Y-85694313D01*
X149495171Y-85694313D01*
X149538734Y-85680157D01*
X149735005Y-85616386D01*
X149959700Y-85501898D01*
X150163719Y-85353670D01*
X150342038Y-85175351D01*
X150490266Y-84971332D01*
X150604754Y-84746637D01*
X150682682Y-84506799D01*
X150722132Y-84257723D01*
X150722132Y-84005541D01*
X150682682Y-83756465D01*
X150682681Y-83756461D01*
X150682681Y-83756460D01*
X150653178Y-83665662D01*
X150604754Y-83516627D01*
X150490266Y-83291932D01*
X150439218Y-83221670D01*
X150342043Y-83087919D01*
X150342039Y-83087914D01*
X150163717Y-82909592D01*
X150163712Y-82909588D01*
X149959703Y-82761368D01*
X149959702Y-82761367D01*
X149959700Y-82761366D01*
X149735005Y-82646878D01*
X149651025Y-82619591D01*
X149495169Y-82568950D01*
X149329116Y-82542650D01*
X149246091Y-82529500D01*
X148993909Y-82529500D01*
X148910883Y-82542650D01*
X148744831Y-82568950D01*
X148744828Y-82568950D01*
X148504992Y-82646879D01*
X148280296Y-82761368D01*
X148076287Y-82909588D01*
X148076282Y-82909592D01*
X147897960Y-83087914D01*
X147897956Y-83087919D01*
X147749736Y-83291928D01*
X147635247Y-83516624D01*
X147557318Y-83756460D01*
X147557318Y-83756463D01*
X147539338Y-83869983D01*
X147517868Y-84005541D01*
X145660500Y-84005541D01*
X145660500Y-63581079D01*
X145631659Y-63436092D01*
X145631658Y-63436091D01*
X145631658Y-63436087D01*
X145602611Y-63365961D01*
X145575087Y-63299511D01*
X145575080Y-63299498D01*
X145492952Y-63176585D01*
X145450864Y-63134497D01*
X145388416Y-63072049D01*
X141883003Y-59566636D01*
X143041200Y-59566636D01*
X143041200Y-59753364D01*
X143070411Y-59937793D01*
X143128113Y-60115381D01*
X143212885Y-60281757D01*
X143322641Y-60432822D01*
X143454678Y-60564859D01*
X143605743Y-60674615D01*
X143772119Y-60759387D01*
X143949707Y-60817089D01*
X144134136Y-60846300D01*
X144134137Y-60846300D01*
X144320863Y-60846300D01*
X144320864Y-60846300D01*
X144505293Y-60817089D01*
X144682881Y-60759387D01*
X144849257Y-60674615D01*
X145000322Y-60564859D01*
X145132359Y-60432822D01*
X145242115Y-60281757D01*
X145326887Y-60115381D01*
X145384589Y-59937793D01*
X145413800Y-59753364D01*
X145413800Y-59566636D01*
X145384589Y-59382207D01*
X145326887Y-59204619D01*
X145242115Y-59038243D01*
X145132359Y-58887178D01*
X145000322Y-58755141D01*
X144849257Y-58645385D01*
X144682881Y-58560613D01*
X144505293Y-58502911D01*
X144505291Y-58502910D01*
X144505289Y-58502910D01*
X144376518Y-58482514D01*
X144320864Y-58473700D01*
X144134136Y-58473700D01*
X144091383Y-58480471D01*
X143949710Y-58502910D01*
X143772116Y-58560614D01*
X143605742Y-58645385D01*
X143454676Y-58755142D01*
X143322642Y-58887176D01*
X143212885Y-59038242D01*
X143128114Y-59204616D01*
X143070410Y-59382210D01*
X143047032Y-59529815D01*
X143041200Y-59566636D01*
X141883003Y-59566636D01*
X137909548Y-55593181D01*
X125693421Y-43377052D01*
X125693414Y-43377046D01*
X125595873Y-43311872D01*
X125595872Y-43311872D01*
X125570500Y-43294919D01*
X125570488Y-43294912D01*
X125433917Y-43238343D01*
X125433907Y-43238340D01*
X125288920Y-43209500D01*
X125288918Y-43209500D01*
X118425267Y-43209500D01*
X118358228Y-43189815D01*
X118356376Y-43188602D01*
X118250236Y-43117681D01*
X118250228Y-43117676D01*
X118077251Y-43046027D01*
X118077243Y-43046025D01*
X117893620Y-43009500D01*
X117893616Y-43009500D01*
X117706384Y-43009500D01*
X117706379Y-43009500D01*
X117522756Y-43046025D01*
X117522748Y-43046027D01*
X117349771Y-43117676D01*
X117349764Y-43117680D01*
X117283390Y-43162030D01*
X117216712Y-43182907D01*
X117149332Y-43164422D01*
X117102643Y-43112443D01*
X117090500Y-43058927D01*
X117090500Y-40271947D01*
X122050000Y-40271947D01*
X122050000Y-40508052D01*
X122086934Y-40741247D01*
X122159897Y-40965802D01*
X122267087Y-41176174D01*
X122327338Y-41259104D01*
X122327340Y-41259105D01*
X123067037Y-40519408D01*
X123084075Y-40582993D01*
X123149901Y-40697007D01*
X123242993Y-40790099D01*
X123357007Y-40855925D01*
X123420590Y-40872962D01*
X122680893Y-41612658D01*
X122763828Y-41672914D01*
X122974197Y-41780102D01*
X123198752Y-41853065D01*
X123198751Y-41853065D01*
X123431948Y-41890000D01*
X123668052Y-41890000D01*
X123901247Y-41853065D01*
X124125802Y-41780102D01*
X124336163Y-41672918D01*
X124336169Y-41672914D01*
X124419104Y-41612658D01*
X124419105Y-41612658D01*
X123679408Y-40872962D01*
X123742993Y-40855925D01*
X123857007Y-40790099D01*
X123950099Y-40697007D01*
X124015925Y-40582993D01*
X124032962Y-40519409D01*
X124772658Y-41259105D01*
X124772658Y-41259104D01*
X124832914Y-41176169D01*
X124832918Y-41176163D01*
X124940102Y-40965802D01*
X125013065Y-40741247D01*
X125050000Y-40508052D01*
X125050000Y-40271947D01*
X125013065Y-40038752D01*
X124940102Y-39814197D01*
X124832914Y-39603828D01*
X124772658Y-39520894D01*
X124772658Y-39520893D01*
X124032962Y-40260590D01*
X124015925Y-40197007D01*
X123950099Y-40082993D01*
X123857007Y-39989901D01*
X123742993Y-39924075D01*
X123679409Y-39907037D01*
X124419105Y-39167340D01*
X124419104Y-39167338D01*
X124336174Y-39107087D01*
X124125802Y-38999897D01*
X123901247Y-38926934D01*
X123901248Y-38926934D01*
X123668052Y-38890000D01*
X123431948Y-38890000D01*
X123198752Y-38926934D01*
X122974197Y-38999897D01*
X122763830Y-39107084D01*
X122680894Y-39167340D01*
X123420591Y-39907037D01*
X123357007Y-39924075D01*
X123242993Y-39989901D01*
X123149901Y-40082993D01*
X123084075Y-40197007D01*
X123067037Y-40260591D01*
X122327340Y-39520894D01*
X122267084Y-39603830D01*
X122159897Y-39814197D01*
X122086934Y-40038752D01*
X122050000Y-40271947D01*
X117090500Y-40271947D01*
X117090500Y-35583282D01*
X117110185Y-35516243D01*
X117126819Y-35495601D01*
X117668101Y-34954319D01*
X117729424Y-34920834D01*
X117755782Y-34918000D01*
X122109944Y-34918000D01*
X122176983Y-34937685D01*
X122220428Y-34985703D01*
X122266657Y-35076433D01*
X122405483Y-35267510D01*
X122572490Y-35434517D01*
X122763567Y-35573343D01*
X122862991Y-35624002D01*
X122974003Y-35680566D01*
X122974005Y-35680566D01*
X122974008Y-35680568D01*
X123048762Y-35704857D01*
X123198631Y-35753553D01*
X123431903Y-35790500D01*
X123431908Y-35790500D01*
X123668097Y-35790500D01*
X123901368Y-35753553D01*
X124125992Y-35680568D01*
X124336433Y-35573343D01*
X124527510Y-35434517D01*
X124694517Y-35267510D01*
X124833343Y-35076433D01*
X124940568Y-34865992D01*
X125013553Y-34641368D01*
X125032426Y-34522210D01*
X125050500Y-34408097D01*
X125050500Y-34171902D01*
X125013553Y-33938631D01*
X124966438Y-33793628D01*
X124940568Y-33714008D01*
X124940566Y-33714005D01*
X124940566Y-33714003D01*
X124860286Y-33556446D01*
X124833343Y-33503567D01*
X124694517Y-33312490D01*
X124527510Y-33145483D01*
X124527506Y-33145480D01*
X124501612Y-33126666D01*
X124458948Y-33071335D01*
X124450500Y-33026350D01*
X124450500Y-32474361D01*
X124470185Y-32407322D01*
X124486819Y-32386680D01*
X124936680Y-31936819D01*
X124998003Y-31903334D01*
X125024361Y-31900500D01*
X129141309Y-31900500D01*
X129525558Y-31900500D01*
X129573006Y-31909937D01*
X129582749Y-31913973D01*
X129582753Y-31913973D01*
X129582756Y-31913975D01*
X129766379Y-31950499D01*
X129766383Y-31950500D01*
X129766384Y-31950500D01*
X129953617Y-31950500D01*
X129953618Y-31950499D01*
X130029836Y-31935339D01*
X130137243Y-31913975D01*
X130137244Y-31913974D01*
X130137251Y-31913973D01*
X130146993Y-31909937D01*
X130194442Y-31900500D01*
X130401309Y-31900500D01*
X130431309Y-31900500D01*
X137915638Y-31900500D01*
X137982677Y-31920185D01*
X138003319Y-31936819D01*
X139733181Y-33666680D01*
X139766666Y-33728003D01*
X139769500Y-33754361D01*
X139769500Y-40425558D01*
X139760062Y-40473006D01*
X139758895Y-40475826D01*
X139756026Y-40482752D01*
X139756024Y-40482756D01*
X139719500Y-40666379D01*
X139719500Y-40853620D01*
X139756025Y-41037243D01*
X139756027Y-41037251D01*
X139827676Y-41210228D01*
X139827681Y-41210237D01*
X139931697Y-41365907D01*
X139931700Y-41365911D01*
X140064088Y-41498299D01*
X140064092Y-41498302D01*
X140219762Y-41602318D01*
X140219768Y-41602321D01*
X140219769Y-41602322D01*
X140392749Y-41673973D01*
X140576379Y-41710499D01*
X140576383Y-41710500D01*
X140576384Y-41710500D01*
X140763617Y-41710500D01*
X140763618Y-41710499D01*
X140947251Y-41673973D01*
X141120231Y-41602322D01*
X141275908Y-41498302D01*
X141408302Y-41365908D01*
X141512322Y-41210231D01*
X141583973Y-41037251D01*
X141620500Y-40853616D01*
X141620500Y-40666384D01*
X141603913Y-40582993D01*
X141583975Y-40482756D01*
X141583973Y-40482753D01*
X141583973Y-40482749D01*
X141579937Y-40473006D01*
X141570500Y-40425558D01*
X141570500Y-34766636D01*
X143163700Y-34766636D01*
X143163700Y-34953364D01*
X143192911Y-35137793D01*
X143250613Y-35315381D01*
X143335385Y-35481757D01*
X143445141Y-35632822D01*
X143577178Y-35764859D01*
X143728243Y-35874615D01*
X143894619Y-35959387D01*
X144072207Y-36017089D01*
X144256636Y-36046300D01*
X144256637Y-36046300D01*
X144443363Y-36046300D01*
X144443364Y-36046300D01*
X144627793Y-36017089D01*
X144805381Y-35959387D01*
X144971757Y-35874615D01*
X145122822Y-35764859D01*
X145254859Y-35632822D01*
X145364615Y-35481757D01*
X145449387Y-35315381D01*
X145507089Y-35137793D01*
X145536300Y-34953364D01*
X145536300Y-34766636D01*
X145507089Y-34582207D01*
X145449387Y-34404619D01*
X145364615Y-34238243D01*
X145254859Y-34087178D01*
X145122822Y-33955141D01*
X144971757Y-33845385D01*
X144805381Y-33760613D01*
X144627793Y-33702911D01*
X144627791Y-33702910D01*
X144627789Y-33702910D01*
X144499018Y-33682514D01*
X144443364Y-33673700D01*
X144256636Y-33673700D01*
X144213883Y-33680471D01*
X144072210Y-33702910D01*
X143894616Y-33760614D01*
X143728242Y-33845385D01*
X143577176Y-33955142D01*
X143445142Y-34087176D01*
X143335385Y-34238242D01*
X143250614Y-34404616D01*
X143192910Y-34582210D01*
X143174769Y-34696750D01*
X143163700Y-34766636D01*
X141570500Y-34766636D01*
X141570500Y-33241309D01*
X141562718Y-33202183D01*
X141562718Y-33202182D01*
X141546972Y-33123023D01*
X141535895Y-33067334D01*
X141477075Y-32925331D01*
X141468013Y-32903453D01*
X141468012Y-32903451D01*
X141468011Y-32903449D01*
X141369464Y-32755965D01*
X141327996Y-32714497D01*
X141244035Y-32630536D01*
X138914036Y-30300536D01*
X138914035Y-30300535D01*
X138914030Y-30300531D01*
X138859622Y-30264178D01*
X138859616Y-30264175D01*
X138854959Y-30261063D01*
X138766547Y-30201987D01*
X138684606Y-30168046D01*
X138602666Y-30134105D01*
X138602658Y-30134103D01*
X138428696Y-30099500D01*
X138428692Y-30099500D01*
X138428691Y-30099500D01*
X130608691Y-30099500D01*
X130194442Y-30099500D01*
X130146993Y-30090062D01*
X130137251Y-30086027D01*
X130137247Y-30086026D01*
X130137243Y-30086024D01*
X129953620Y-30049500D01*
X129953616Y-30049500D01*
X129766384Y-30049500D01*
X129766379Y-30049500D01*
X129582756Y-30086024D01*
X129582752Y-30086026D01*
X129582750Y-30086026D01*
X129582749Y-30086027D01*
X129573006Y-30090062D01*
X129525558Y-30099500D01*
X124511303Y-30099500D01*
X124337341Y-30134103D01*
X124337329Y-30134106D01*
X124255392Y-30168045D01*
X124255393Y-30168046D01*
X124173455Y-30201985D01*
X124025965Y-30300535D01*
X124025964Y-30300537D01*
X122850538Y-31475961D01*
X122850535Y-31475964D01*
X122848907Y-31478403D01*
X122848898Y-31478416D01*
X122751988Y-31623449D01*
X122720503Y-31699463D01*
X122720503Y-31699464D01*
X122695538Y-31759734D01*
X122684105Y-31787334D01*
X122651650Y-31950500D01*
X122649500Y-31961309D01*
X122649500Y-31961310D01*
X122649500Y-32793000D01*
X122629815Y-32860039D01*
X122577011Y-32905794D01*
X122525500Y-32917000D01*
X107799499Y-32917000D01*
X107732460Y-32897315D01*
X107686705Y-32844511D01*
X107675499Y-32793000D01*
X107675499Y-32587129D01*
X107675498Y-32587123D01*
X107675497Y-32587116D01*
X107669091Y-32527517D01*
X107664419Y-32514992D01*
X107618797Y-32392671D01*
X107618793Y-32392664D01*
X107532547Y-32277455D01*
X107532544Y-32277452D01*
X107417335Y-32191206D01*
X107417328Y-32191202D01*
X107282482Y-32140908D01*
X107282483Y-32140908D01*
X107222883Y-32134501D01*
X107222881Y-32134500D01*
X107222873Y-32134500D01*
X107222864Y-32134500D01*
X104577129Y-32134500D01*
X104577123Y-32134501D01*
X104517516Y-32140908D01*
X104382671Y-32191202D01*
X104382664Y-32191206D01*
X104267455Y-32277452D01*
X104267452Y-32277455D01*
X104181206Y-32392664D01*
X104181202Y-32392671D01*
X104130908Y-32527517D01*
X104124501Y-32587116D01*
X104124501Y-32587123D01*
X104124500Y-32587135D01*
X101869311Y-32587135D01*
X101960321Y-32496125D01*
X101965894Y-32490551D01*
X101888248Y-32430970D01*
X101686750Y-32314636D01*
X101686740Y-32314632D01*
X101471779Y-32225592D01*
X101247024Y-32165369D01*
X101016341Y-32135000D01*
X100783659Y-32135000D01*
X100552975Y-32165369D01*
X100328220Y-32225592D01*
X100113259Y-32314632D01*
X100113249Y-32314636D01*
X99911747Y-32430973D01*
X99834104Y-32490550D01*
X99834104Y-32490551D01*
X100499438Y-33155885D01*
X100497374Y-33156740D01*
X100358156Y-33249762D01*
X100239762Y-33368156D01*
X100146740Y-33507374D01*
X100145885Y-33509438D01*
X99480551Y-32844104D01*
X99480550Y-32844104D01*
X99420973Y-32921747D01*
X99304636Y-33123249D01*
X99304632Y-33123259D01*
X99215592Y-33338220D01*
X99155369Y-33562975D01*
X99125000Y-33793659D01*
X97675500Y-33793659D01*
X97675500Y-33793628D01*
X97645121Y-33562874D01*
X97584882Y-33338060D01*
X97574290Y-33312488D01*
X97495818Y-33123037D01*
X97495811Y-33123023D01*
X97379446Y-32921475D01*
X97379442Y-32921468D01*
X97280865Y-32793000D01*
X97237757Y-32736820D01*
X97237751Y-32736813D01*
X97073186Y-32572248D01*
X97073179Y-32572242D01*
X96888540Y-32430564D01*
X96888538Y-32430562D01*
X96888532Y-32430558D01*
X96888527Y-32430555D01*
X96888524Y-32430553D01*
X96686976Y-32314188D01*
X96686960Y-32314180D01*
X96471947Y-32225120D01*
X96345371Y-32191204D01*
X96247126Y-32164879D01*
X96247125Y-32164878D01*
X96247122Y-32164878D01*
X96016382Y-32134501D01*
X96016377Y-32134500D01*
X96016372Y-32134500D01*
X95783628Y-32134500D01*
X95783622Y-32134500D01*
X95783617Y-32134501D01*
X95552877Y-32164878D01*
X95328052Y-32225120D01*
X95113039Y-32314180D01*
X95113023Y-32314188D01*
X94911475Y-32430553D01*
X94911459Y-32430564D01*
X94726820Y-32572242D01*
X94726813Y-32572248D01*
X94562248Y-32736813D01*
X94562242Y-32736820D01*
X94420564Y-32921459D01*
X94420553Y-32921475D01*
X94304188Y-33123023D01*
X94304182Y-33123037D01*
X94215120Y-33338052D01*
X94154878Y-33562877D01*
X94124501Y-33793617D01*
X94124500Y-33793634D01*
X89830500Y-33793634D01*
X89830500Y-27491211D01*
X89850185Y-27424172D01*
X89881613Y-27390894D01*
X89997252Y-27306879D01*
X90136879Y-27167252D01*
X90136881Y-27167248D01*
X90136884Y-27167246D01*
X90198096Y-27082993D01*
X90252944Y-27007501D01*
X90342591Y-26831561D01*
X90361961Y-26771947D01*
X122050000Y-26771947D01*
X122050000Y-27008052D01*
X122086934Y-27241247D01*
X122159897Y-27465802D01*
X122267087Y-27676174D01*
X122327338Y-27759104D01*
X122327340Y-27759105D01*
X123067037Y-27019408D01*
X123084075Y-27082993D01*
X123149901Y-27197007D01*
X123242993Y-27290099D01*
X123357007Y-27355925D01*
X123420590Y-27372962D01*
X122680893Y-28112658D01*
X122763828Y-28172914D01*
X122974197Y-28280102D01*
X123198752Y-28353065D01*
X123198751Y-28353065D01*
X123431948Y-28390000D01*
X123668052Y-28390000D01*
X123901247Y-28353065D01*
X124125802Y-28280102D01*
X124336163Y-28172918D01*
X124336169Y-28172914D01*
X124419104Y-28112658D01*
X124419105Y-28112658D01*
X123679408Y-27372962D01*
X123742993Y-27355925D01*
X123857007Y-27290099D01*
X123950099Y-27197007D01*
X124015925Y-27082993D01*
X124032962Y-27019409D01*
X124772658Y-27759105D01*
X124772658Y-27759104D01*
X124832914Y-27676169D01*
X124832918Y-27676163D01*
X124940102Y-27465802D01*
X125013065Y-27241247D01*
X125050000Y-27008052D01*
X125050000Y-26771947D01*
X125013065Y-26538752D01*
X124940102Y-26314197D01*
X124832914Y-26103828D01*
X124772658Y-26020894D01*
X124772658Y-26020893D01*
X124032962Y-26760590D01*
X124015925Y-26697007D01*
X123950099Y-26582993D01*
X123857007Y-26489901D01*
X123742993Y-26424075D01*
X123679409Y-26407037D01*
X124419105Y-25667340D01*
X124419104Y-25667338D01*
X124336174Y-25607087D01*
X124144692Y-25509522D01*
X124144690Y-25509520D01*
X124125804Y-25499897D01*
X123901247Y-25426934D01*
X123901248Y-25426934D01*
X123755871Y-25403909D01*
X147517868Y-25403909D01*
X147517868Y-25420068D01*
X147517868Y-25656091D01*
X147523675Y-25692755D01*
X147557318Y-25905168D01*
X147557318Y-25905171D01*
X147609637Y-26066190D01*
X147635246Y-26145005D01*
X147739696Y-26350000D01*
X147749736Y-26369703D01*
X147897956Y-26573712D01*
X147897960Y-26573717D01*
X148076282Y-26752039D01*
X148076287Y-26752043D01*
X148219717Y-26856250D01*
X148280300Y-26900266D01*
X148504995Y-27014754D01*
X148744833Y-27092682D01*
X148993909Y-27132132D01*
X148993910Y-27132132D01*
X149246090Y-27132132D01*
X149246091Y-27132132D01*
X149495167Y-27092682D01*
X149495170Y-27092681D01*
X149495171Y-27092681D01*
X149553501Y-27073728D01*
X149735005Y-27014754D01*
X149959700Y-26900266D01*
X150163719Y-26752038D01*
X150342038Y-26573719D01*
X150490266Y-26369700D01*
X150604754Y-26145005D01*
X150682682Y-25905167D01*
X150722132Y-25656091D01*
X150722132Y-25403909D01*
X150682682Y-25154833D01*
X150682681Y-25154829D01*
X150682681Y-25154828D01*
X150632470Y-25000296D01*
X150604754Y-24914995D01*
X150490266Y-24690300D01*
X150385080Y-24545523D01*
X150342043Y-24486287D01*
X150342039Y-24486282D01*
X150163717Y-24307960D01*
X150163712Y-24307956D01*
X149959703Y-24159736D01*
X149959702Y-24159735D01*
X149959700Y-24159734D01*
X149735005Y-24045246D01*
X149651025Y-24017959D01*
X149495169Y-23967318D01*
X149329116Y-23941018D01*
X149246091Y-23927868D01*
X148993909Y-23927868D01*
X148910883Y-23941018D01*
X148744831Y-23967318D01*
X148744828Y-23967318D01*
X148504992Y-24045247D01*
X148280296Y-24159736D01*
X148076287Y-24307956D01*
X148076282Y-24307960D01*
X147897960Y-24486282D01*
X147897956Y-24486287D01*
X147749736Y-24690296D01*
X147635247Y-24914992D01*
X147557318Y-25154828D01*
X147557318Y-25154831D01*
X147544073Y-25238455D01*
X147517868Y-25403909D01*
X123755871Y-25403909D01*
X123668052Y-25390000D01*
X123431948Y-25390000D01*
X123198752Y-25426934D01*
X122974197Y-25499897D01*
X122763830Y-25607084D01*
X122680894Y-25667340D01*
X123420591Y-26407037D01*
X123357007Y-26424075D01*
X123242993Y-26489901D01*
X123149901Y-26582993D01*
X123084075Y-26697007D01*
X123067037Y-26760591D01*
X122327340Y-26020894D01*
X122267084Y-26103830D01*
X122159897Y-26314197D01*
X122086934Y-26538752D01*
X122050000Y-26771947D01*
X90361961Y-26771947D01*
X90403610Y-26643763D01*
X90434500Y-26448736D01*
X90434500Y-26251263D01*
X90403610Y-26056236D01*
X90374320Y-25966091D01*
X90342591Y-25868439D01*
X90252944Y-25692499D01*
X90252942Y-25692496D01*
X90252941Y-25692494D01*
X90136884Y-25532753D01*
X89997246Y-25393115D01*
X89837504Y-25277058D01*
X89837503Y-25277057D01*
X89837501Y-25277056D01*
X89661561Y-25187409D01*
X89661558Y-25187408D01*
X89473763Y-25126389D01*
X89278736Y-25095500D01*
X89278731Y-25095500D01*
X89081269Y-25095500D01*
X89081264Y-25095500D01*
X88886236Y-25126389D01*
X88698441Y-25187408D01*
X88522495Y-25277058D01*
X88362753Y-25393115D01*
X88223115Y-25532753D01*
X88107058Y-25692495D01*
X88040485Y-25823151D01*
X87992510Y-25873947D01*
X87924689Y-25890742D01*
X87858554Y-25868204D01*
X87819515Y-25823151D01*
X87752944Y-25692499D01*
X87726492Y-25656090D01*
X87636884Y-25532753D01*
X87497246Y-25393115D01*
X87337504Y-25277058D01*
X87337503Y-25277057D01*
X87337501Y-25277056D01*
X87161561Y-25187409D01*
X87161558Y-25187408D01*
X86973763Y-25126389D01*
X86778736Y-25095500D01*
X86778731Y-25095500D01*
X86581269Y-25095500D01*
X86581264Y-25095500D01*
X86386236Y-25126389D01*
X86198441Y-25187408D01*
X86022495Y-25277058D01*
X85862753Y-25393115D01*
X85723115Y-25532753D01*
X85607058Y-25692495D01*
X85540485Y-25823151D01*
X85492510Y-25873947D01*
X85424689Y-25890742D01*
X85358554Y-25868204D01*
X85319515Y-25823151D01*
X85252944Y-25692499D01*
X85226492Y-25656090D01*
X85136884Y-25532753D01*
X84997246Y-25393115D01*
X84837504Y-25277058D01*
X84837503Y-25277057D01*
X84837501Y-25277056D01*
X84661561Y-25187409D01*
X84661558Y-25187408D01*
X84473763Y-25126389D01*
X84278736Y-25095500D01*
X84278731Y-25095500D01*
X84081269Y-25095500D01*
X84081264Y-25095500D01*
X83886236Y-25126389D01*
X83698441Y-25187408D01*
X83522495Y-25277058D01*
X83362753Y-25393115D01*
X83223115Y-25532753D01*
X83107058Y-25692495D01*
X83040485Y-25823151D01*
X82992510Y-25873947D01*
X82924689Y-25890742D01*
X82858554Y-25868204D01*
X82819515Y-25823151D01*
X82752944Y-25692499D01*
X82726492Y-25656090D01*
X82636884Y-25532753D01*
X82497246Y-25393115D01*
X82337504Y-25277058D01*
X82337503Y-25277057D01*
X82337501Y-25277056D01*
X82161561Y-25187409D01*
X82161558Y-25187408D01*
X81973763Y-25126389D01*
X81778736Y-25095500D01*
X81778731Y-25095500D01*
X81581269Y-25095500D01*
X81581264Y-25095500D01*
X81386236Y-25126389D01*
X81198441Y-25187408D01*
X81022495Y-25277058D01*
X80862753Y-25393115D01*
X80723115Y-25532753D01*
X80607056Y-25692497D01*
X80540203Y-25823702D01*
X80492229Y-25874497D01*
X80424407Y-25891292D01*
X80358273Y-25868754D01*
X80319234Y-25823701D01*
X80252520Y-25692768D01*
X80252512Y-25692755D01*
X80226542Y-25657010D01*
X80226541Y-25657009D01*
X79662962Y-26220589D01*
X79645925Y-26157007D01*
X79580099Y-26042993D01*
X79487007Y-25949901D01*
X79372993Y-25884075D01*
X79309409Y-25867037D01*
X79872989Y-25303457D01*
X79837239Y-25277483D01*
X79661373Y-25187873D01*
X79473646Y-25126876D01*
X79278697Y-25096000D01*
X79081303Y-25096000D01*
X78886353Y-25126876D01*
X78698626Y-25187873D01*
X78522762Y-25277482D01*
X78522760Y-25277483D01*
X78487010Y-25303456D01*
X78487010Y-25303457D01*
X79050591Y-25867037D01*
X78987007Y-25884075D01*
X78872993Y-25949901D01*
X78779901Y-26042993D01*
X78714075Y-26157007D01*
X78697037Y-26220590D01*
X78133457Y-25657010D01*
X78133456Y-25657010D01*
X78107483Y-25692760D01*
X78107482Y-25692762D01*
X78040765Y-25823701D01*
X77992790Y-25874497D01*
X77924969Y-25891292D01*
X77858834Y-25868754D01*
X77819796Y-25823702D01*
X77752944Y-25692499D01*
X77726492Y-25656090D01*
X77636884Y-25532753D01*
X77497246Y-25393115D01*
X77337504Y-25277058D01*
X77337503Y-25277057D01*
X77337501Y-25277056D01*
X77161561Y-25187409D01*
X77161558Y-25187408D01*
X76973763Y-25126389D01*
X76778736Y-25095500D01*
X76778731Y-25095500D01*
X76581269Y-25095500D01*
X76581264Y-25095500D01*
X76386236Y-25126389D01*
X76198441Y-25187408D01*
X76022495Y-25277058D01*
X75862753Y-25393115D01*
X75723115Y-25532753D01*
X75607056Y-25692497D01*
X75540203Y-25823702D01*
X75492229Y-25874497D01*
X75424407Y-25891292D01*
X75358273Y-25868754D01*
X75319234Y-25823701D01*
X75252520Y-25692768D01*
X75252512Y-25692755D01*
X75226542Y-25657010D01*
X75226541Y-25657009D01*
X74662962Y-26220589D01*
X74645925Y-26157007D01*
X74580099Y-26042993D01*
X74487007Y-25949901D01*
X74372993Y-25884075D01*
X74309409Y-25867037D01*
X74872989Y-25303457D01*
X74837239Y-25277483D01*
X74661373Y-25187873D01*
X74473646Y-25126876D01*
X74278697Y-25096000D01*
X74081303Y-25096000D01*
X73886353Y-25126876D01*
X73698626Y-25187873D01*
X73522762Y-25277482D01*
X73522760Y-25277483D01*
X73487010Y-25303456D01*
X73487010Y-25303457D01*
X74050591Y-25867037D01*
X73987007Y-25884075D01*
X73872993Y-25949901D01*
X73779901Y-26042993D01*
X73714075Y-26157007D01*
X73697037Y-26220590D01*
X73133457Y-25657010D01*
X73111285Y-25658755D01*
X73103487Y-25664769D01*
X73033874Y-25670748D01*
X72972079Y-25638142D01*
X72938178Y-25579198D01*
X72934499Y-25564432D01*
X72934499Y-25548128D01*
X72928091Y-25488517D01*
X72877796Y-25353669D01*
X72877795Y-25353668D01*
X72877793Y-25353664D01*
X72791547Y-25238455D01*
X72791544Y-25238452D01*
X72676335Y-25152206D01*
X72676328Y-25152202D01*
X72541482Y-25101908D01*
X72541483Y-25101908D01*
X72481883Y-25095501D01*
X72481881Y-25095500D01*
X72481873Y-25095500D01*
X72481864Y-25095500D01*
X70878129Y-25095500D01*
X70878123Y-25095501D01*
X70818516Y-25101908D01*
X70683671Y-25152202D01*
X70683664Y-25152206D01*
X70568455Y-25238452D01*
X70568452Y-25238455D01*
X70482206Y-25353664D01*
X70482202Y-25353671D01*
X70431908Y-25488517D01*
X70425501Y-25548116D01*
X70425500Y-25548135D01*
X66675876Y-25548135D01*
X66675873Y-25548116D01*
X66662682Y-25464833D01*
X66662681Y-25464829D01*
X66662681Y-25464828D01*
X66626561Y-25353664D01*
X66584754Y-25224995D01*
X66470266Y-25000300D01*
X66419218Y-24930038D01*
X66322043Y-24796287D01*
X66322039Y-24796282D01*
X66143717Y-24617960D01*
X66143712Y-24617956D01*
X65939703Y-24469736D01*
X65939702Y-24469735D01*
X65939700Y-24469734D01*
X65715005Y-24355246D01*
X65569480Y-24307962D01*
X65475169Y-24277318D01*
X65309116Y-24251018D01*
X65226091Y-24237868D01*
X64973909Y-24237868D01*
X64890883Y-24251018D01*
X64724831Y-24277318D01*
X64724828Y-24277318D01*
X64484992Y-24355247D01*
X64260296Y-24469736D01*
X64056287Y-24617956D01*
X64056282Y-24617960D01*
X63877960Y-24796282D01*
X63877956Y-24796287D01*
X63729736Y-25000296D01*
X63615247Y-25224992D01*
X63537318Y-25464828D01*
X63537318Y-25464831D01*
X63497868Y-25713909D01*
X62890812Y-25713909D01*
X62890531Y-23764417D01*
X62910206Y-23697379D01*
X62963003Y-23651616D01*
X63014476Y-23640403D01*
X150925416Y-23603095D01*
X150992462Y-23622751D01*
G37*
%TD.AperFunction*%
%TD*%
M02*
