M48
; DRILL file {KiCad 9.0.3} date 2025-08-09T15:46:23+0700
; FORMAT={-:-/ absolute / metric / decimal}
; #@! TF.CreationDate,2025-08-09T15:46:23+07:00
; #@! TF.GenerationSoftware,Kicad,Pcbnew,9.0.3
; #@! TF.FileFunction,Plated,1,2,PTH
FMAT,2
METRIC
; #@! TA.AperFunction,Plated,PTH,ViaDrill
T1C0.300
; #@! TA.AperFunction,Plated,PTH,ViaDrill
T2C0.400
; #@! TA.AperFunction,Plated,PTH,ViaDrill
T3C0.500
; #@! TA.AperFunction,Plated,PTH,ComponentDrill
T4C0.700
; #@! TA.AperFunction,Plated,PTH,ComponentDrill
T5C0.864
; #@! TA.AperFunction,Plated,PTH,ComponentDrill
T6C1.000
; #@! TA.AperFunction,Plated,PTH,ComponentDrill
T7C1.050
; #@! TA.AperFunction,Plated,PTH,ComponentDrill
T8C1.700
; #@! TA.AperFunction,Plated,PTH,ViaDrill
T9C2.000
%
G90
G05
T1
X90.053Y-70.75
X90.053Y-71.59
X90.053Y-72.39
T2
X70.32Y-62.27
X80.64Y-43.77
X80.64Y-44.65
X83.23Y-71.62
X83.23Y-73.335
X84.21Y-76.83
X87.145Y-71.242
X95.68Y-69.67
X99.46Y-77.81
X99.47Y-67.42
X99.47Y-72.89
X103.89Y-66.52
X103.94Y-71.52
X105.762Y-76.88
X105.765Y-71.52
X105.822Y-67.43
X108.817Y-70.797
X108.817Y-74.607
X109.712Y-40.075
X109.712Y-41.975
X109.73Y-54.07
X111.015Y-46.925
X117.58Y-73.61
T3
X65.12Y-88.39
X70.105Y-31.44
X72.94Y-88.39
X74.12Y-33.34
X76.3Y-44.37
X76.3Y-55.258
X76.31Y-46.45
X76.35Y-66.105
X76.64Y-31.44
X77.06Y-67.19
X80.75Y-33.34
X83.15Y-88.39
X83.23Y-52.055
X83.23Y-54.158
X83.23Y-62.66
X83.23Y-64.702
X87.145Y-56.69
X87.145Y-60.615
X87.145Y-66.52
X91.27Y-33.34
X91.27Y-56.69
X91.34Y-66.52
X93.26Y-63.99
X93.57Y-26.16
X95.31Y-63.94
X97.67Y-66.52
X104.0Y-59.24
X105.93Y-43.43
X108.817Y-68.257
X113.3Y-47.77
X113.3Y-52.55
X113.3Y-56.69
X113.5Y-82.87
X114.93Y-68.26
X114.93Y-70.797
X114.93Y-73.38
X117.8Y-43.96
X117.93Y-45.64
X119.5Y-86.61
X120.89Y-45.64
X120.89Y-58.33
X123.32Y-84.72
X123.325Y-80.625
X129.78Y-79.28
X129.86Y-31.0
X129.86Y-51.75
X129.86Y-55.73
X129.86Y-73.18
X129.86Y-84.67
X133.93Y-82.68
X140.67Y-40.76
X140.67Y-65.4
X142.35Y-65.462
X142.74Y-76.63
X142.74Y-81.62
X142.74Y-84.67
X142.92Y-32.04
X142.92Y-40.76
X142.92Y-47.64
X143.17Y-68.73
X148.1Y-28.04
X148.1Y-51.06
X148.1Y-65.462
X148.25Y-88.16
T4
X109.27Y-81.11
X115.1Y-81.09
T5
X144.227Y-59.66
X144.35Y-34.86
X149.757Y-59.6
X149.88Y-34.8
T6
X71.68Y-26.35
X74.18Y-26.35
X76.68Y-26.35
X79.18Y-26.35
X81.68Y-26.35
X84.18Y-26.35
X86.68Y-26.35
X89.18Y-26.35
X91.902Y-88.877
X94.402Y-88.877
X96.902Y-88.877
X99.14Y-60.57
X99.16Y-52.97
X99.22Y-40.41
X99.22Y-47.95
X102.43Y-89.94
X104.93Y-89.94
X107.43Y-89.94
X109.93Y-89.94
X112.43Y-89.94
X114.93Y-89.94
X123.54Y-47.92
X123.55Y-26.89
X123.55Y-34.29
X123.55Y-40.39
X123.55Y-52.97
X123.55Y-60.55
X123.55Y-66.97
X123.55Y-74.67
X136.69Y-89.9
X139.19Y-89.9
X141.69Y-89.9
X144.19Y-89.9
X146.69Y-89.9
T7
X120.477Y-89.94
X122.977Y-89.94
X128.51Y-89.94
X131.01Y-89.94
T8
X70.32Y-82.263
X75.32Y-82.263
X81.0Y-82.263
X86.0Y-82.263
X95.9Y-33.91
X100.9Y-33.91
X105.9Y-33.91
T9
X70.32Y-40.7
X70.32Y-51.42
X70.32Y-62.27
X70.32Y-70.95
M30
