%TF.GenerationSoftware,KiCad,Pcbnew,9.0.2*%
%TF.CreationDate,2025-07-09T14:39:44+07:00*%
%TF.ProjectId,DK_RF433_fix,444b5f52-4634-4333-935f-6669782e6b69,rev?*%
%TF.SameCoordinates,Original*%
%TF.FileFunction,Soldermask,Bot*%
%TF.FilePolarity,Negative*%
%FSLAX46Y46*%
G04 Gerber Fmt 4.6, Leading zero omitted, Abs format (unit mm)*
G04 Created by KiCad (PCBNEW 9.0.2) date 2025-07-09 14:39:44*
%MOMM*%
%LPD*%
G01*
G04 APERTURE LIST*
G04 Aperture macros list*
%AMRoundRect*
0 Rectangle with rounded corners*
0 $1 Rounding radius*
0 $2 $3 $4 $5 $6 $7 $8 $9 X,Y pos of 4 corners*
0 Add a 4 corners polygon primitive as box body*
4,1,4,$2,$3,$4,$5,$6,$7,$8,$9,$2,$3,0*
0 Add four circle primitives for the rounded corners*
1,1,$1+$1,$2,$3*
1,1,$1+$1,$4,$5*
1,1,$1+$1,$6,$7*
1,1,$1+$1,$8,$9*
0 Add four rect primitives between the rounded corners*
20,1,$1+$1,$2,$3,$4,$5,0*
20,1,$1+$1,$4,$5,$6,$7,0*
20,1,$1+$1,$6,$7,$8,$9,0*
20,1,$1+$1,$8,$9,$2,$3,0*%
G04 Aperture macros list end*
%ADD10C,0.705993*%
%ADD11R,2.000000X1.000000*%
%ADD12O,2.000000X1.000000*%
%ADD13R,1.000000X2.000000*%
%ADD14O,1.000000X2.000000*%
%ADD15O,2.004000X2.004000*%
%ADD16C,2.004000*%
%ADD17O,2.204000X2.704000*%
%ADD18C,2.704000*%
%ADD19C,2.204000*%
%ADD20C,2.490000*%
%ADD21R,1.500000X2.500000*%
%ADD22O,1.500000X2.500000*%
%ADD23O,1.704000X2.704000*%
%ADD24RoundRect,0.102000X0.750000X1.250000X-0.750000X1.250000X-0.750000X-1.250000X0.750000X-1.250000X0*%
%ADD25R,2.500000X1.500000*%
%ADD26O,2.500000X1.500000*%
%ADD27RoundRect,0.102000X-0.750000X-1.150000X0.750000X-1.150000X0.750000X1.150000X-0.750000X1.150000X0*%
%ADD28O,1.704000X2.504000*%
G04 APERTURE END LIST*
%TO.C,J1.1*%
D10*
X125327996Y-120810002D02*
G75*
G02*
X124622004Y-120810002I-352996J0D01*
G01*
X124622004Y-120810002D02*
G75*
G02*
X125327996Y-120810002I352996J0D01*
G01*
X125327996Y-122809998D02*
G75*
G02*
X124622004Y-122809998I-352996J0D01*
G01*
X124622004Y-122809998D02*
G75*
G02*
X125327996Y-122809998I352996J0D01*
G01*
X127327986Y-120810002D02*
G75*
G02*
X126621994Y-120810002I-352996J0D01*
G01*
X126621994Y-120810002D02*
G75*
G02*
X127327986Y-120810002I352996J0D01*
G01*
X127327986Y-122809998D02*
G75*
G02*
X126621994Y-122809998I-352996J0D01*
G01*
X126621994Y-122809998D02*
G75*
G02*
X127327986Y-122809998I352996J0D01*
G01*
X129328006Y-120810002D02*
G75*
G02*
X128622014Y-120810002I-352996J0D01*
G01*
X128622014Y-120810002D02*
G75*
G02*
X129328006Y-120810002I352996J0D01*
G01*
X129328006Y-122809998D02*
G75*
G02*
X128622014Y-122809998I-352996J0D01*
G01*
X128622014Y-122809998D02*
G75*
G02*
X129328006Y-122809998I352996J0D01*
G01*
X131328006Y-120810002D02*
G75*
G02*
X130622014Y-120810002I-352996J0D01*
G01*
X130622014Y-120810002D02*
G75*
G02*
X131328006Y-120810002I352996J0D01*
G01*
X131328006Y-122809998D02*
G75*
G02*
X130622014Y-122809998I-352996J0D01*
G01*
X130622014Y-122809998D02*
G75*
G02*
X131328006Y-122809998I352996J0D01*
G01*
X133327996Y-120810002D02*
G75*
G02*
X132622004Y-120810002I-352996J0D01*
G01*
X132622004Y-120810002D02*
G75*
G02*
X133327996Y-120810002I352996J0D01*
G01*
X133327996Y-122809998D02*
G75*
G02*
X132622004Y-122809998I-352996J0D01*
G01*
X132622004Y-122809998D02*
G75*
G02*
X133327996Y-122809998I352996J0D01*
G01*
X135327996Y-120810002D02*
G75*
G02*
X134622004Y-120810002I-352996J0D01*
G01*
X134622004Y-120810002D02*
G75*
G02*
X135327996Y-120810002I352996J0D01*
G01*
X135327996Y-122809998D02*
G75*
G02*
X134622004Y-122809998I-352996J0D01*
G01*
X134622004Y-122809998D02*
G75*
G02*
X135327996Y-122809998I352996J0D01*
G01*
X137327996Y-120810002D02*
G75*
G02*
X136622004Y-120810002I-352996J0D01*
G01*
X136622004Y-120810002D02*
G75*
G02*
X137327996Y-120810002I352996J0D01*
G01*
X137327996Y-122809998D02*
G75*
G02*
X136622004Y-122809998I-352996J0D01*
G01*
X136622004Y-122809998D02*
G75*
G02*
X137327996Y-122809998I352996J0D01*
G01*
X139327986Y-120810002D02*
G75*
G02*
X138621994Y-120810002I-352996J0D01*
G01*
X138621994Y-120810002D02*
G75*
G02*
X139327986Y-120810002I352996J0D01*
G01*
X139327986Y-122809998D02*
G75*
G02*
X138621994Y-122809998I-352996J0D01*
G01*
X138621994Y-122809998D02*
G75*
G02*
X139327986Y-122809998I352996J0D01*
G01*
X141327986Y-120810002D02*
G75*
G02*
X140621994Y-120810002I-352996J0D01*
G01*
X140621994Y-120810002D02*
G75*
G02*
X141327986Y-120810002I352996J0D01*
G01*
X141327986Y-122809998D02*
G75*
G02*
X140621994Y-122809998I-352996J0D01*
G01*
X140621994Y-122809998D02*
G75*
G02*
X141327986Y-122809998I352996J0D01*
G01*
X143328006Y-120810002D02*
G75*
G02*
X142622014Y-120810002I-352996J0D01*
G01*
X142622014Y-120810002D02*
G75*
G02*
X143328006Y-120810002I352996J0D01*
G01*
X143328006Y-122809998D02*
G75*
G02*
X142622014Y-122809998I-352996J0D01*
G01*
X142622014Y-122809998D02*
G75*
G02*
X143328006Y-122809998I352996J0D01*
G01*
X145327996Y-120810002D02*
G75*
G02*
X144622004Y-120810002I-352996J0D01*
G01*
X144622004Y-120810002D02*
G75*
G02*
X145327996Y-120810002I352996J0D01*
G01*
X145327996Y-122809998D02*
G75*
G02*
X144622004Y-122809998I-352996J0D01*
G01*
X144622004Y-122809998D02*
G75*
G02*
X145327996Y-122809998I352996J0D01*
G01*
%TD*%
D11*
%TO.C,J6.2*%
X138125000Y-82530000D03*
D12*
X138125000Y-83800000D03*
X138125000Y-85070000D03*
X138125000Y-86340000D03*
X138125000Y-87610000D03*
X138125000Y-88880000D03*
X138125000Y-90150000D03*
X138125000Y-91420000D03*
X138125000Y-92690000D03*
X138125000Y-93960000D03*
X138125000Y-95230000D03*
X138125000Y-96500000D03*
X138125000Y-97770000D03*
X138125000Y-99040000D03*
D13*
X144715000Y-103620000D03*
D14*
X145985000Y-103620000D03*
X147255000Y-103620000D03*
X148525000Y-103620000D03*
X149795000Y-103620000D03*
X151065000Y-103620000D03*
X152335000Y-103620000D03*
X153605000Y-103620000D03*
X154875000Y-103620000D03*
X156145000Y-103620000D03*
D12*
X162325000Y-99070000D03*
X162325000Y-97800000D03*
X162325000Y-96530000D03*
X162325000Y-95260000D03*
X162325000Y-92720000D03*
X162325000Y-91450000D03*
X162325000Y-88910000D03*
X162325000Y-87640000D03*
X162325000Y-86370000D03*
X162325000Y-85100000D03*
X162325000Y-83830000D03*
D11*
X162325000Y-82560000D03*
%TD*%
D15*
%TO.C,U7.2*%
X162775000Y-115285000D03*
X162775000Y-108935000D03*
D16*
X167855000Y-115285000D03*
X167855000Y-108935000D03*
X185635000Y-114650000D03*
X185635000Y-112110000D03*
X185635000Y-109570000D03*
D17*
X168807500Y-119730000D03*
D18*
X182142500Y-119730000D03*
X182142500Y-104490000D03*
X168807500Y-104490000D03*
D16*
X172935000Y-122270000D03*
X175475000Y-122270000D03*
X178015000Y-122270000D03*
%TD*%
D19*
%TO.C,U7.1*%
X86730000Y-115285000D03*
X86730000Y-108935000D03*
X91810000Y-115285000D03*
X91810000Y-108935000D03*
D16*
X109590000Y-114650000D03*
X109590000Y-112110000D03*
X109590000Y-109570000D03*
D18*
X92762500Y-119730000D03*
X106097500Y-119730000D03*
X106097500Y-104490000D03*
D20*
X92762500Y-104490000D03*
D16*
X96890000Y-122270000D03*
X99430000Y-122270000D03*
X101970000Y-122270000D03*
%TD*%
D21*
%TO.C,J4.1*%
X130740000Y-86655000D03*
D22*
X128200000Y-86655000D03*
X125660000Y-86655000D03*
X123120000Y-86655000D03*
X120580000Y-86655000D03*
X118040000Y-86655000D03*
X115500000Y-86655000D03*
%TD*%
D19*
%TO.C,J2.1*%
X115500000Y-116095000D03*
X118000000Y-116095000D03*
%TD*%
D23*
%TO.C,RF_E1*%
X120830000Y-77605000D03*
D24*
X123370000Y-77605000D03*
D23*
X125910000Y-77605000D03*
%TD*%
D25*
%TO.C,J6.1*%
X170165000Y-95950000D03*
D26*
X170165000Y-93410000D03*
X170165000Y-90870000D03*
X170165000Y-88330000D03*
X170165000Y-85790000D03*
X170165000Y-83250000D03*
%TD*%
D24*
%TO.C,R1*%
X187520000Y-82530000D03*
D23*
X185020000Y-82530000D03*
X182520000Y-82530000D03*
X180020000Y-82530000D03*
%TD*%
D27*
%TO.C,J1.2*%
X175070000Y-77605000D03*
D28*
X172530000Y-77605000D03*
X169990000Y-77605000D03*
X167450000Y-77605000D03*
%TD*%
D24*
%TO.C,L1*%
X91730000Y-82530000D03*
D23*
X89230000Y-82530000D03*
X86730000Y-82530000D03*
X84230000Y-82530000D03*
%TD*%
M02*
