%TF.GenerationSoftware,KiCad,Pcbnew,9.0.2*%
%TF.CreationDate,2025-07-09T14:39:44+07:00*%
%TF.ProjectId,DK_RF433_fix,444b5f52-4634-4333-935f-6669782e6b69,rev?*%
%TF.SameCoordinates,Original*%
%TF.FileFunction,Soldermask,Top*%
%TF.FilePolarity,Negative*%
%FSLAX46Y46*%
G04 Gerber Fmt 4.6, Leading zero omitted, Abs format (unit mm)*
G04 Created by KiCad (PCBNEW 9.0.2) date 2025-07-09 14:39:44*
%MOMM*%
%LPD*%
G01*
G04 APERTURE LIST*
G04 Aperture macros list*
%AMRoundRect*
0 Rectangle with rounded corners*
0 $1 Rounding radius*
0 $2 $3 $4 $5 $6 $7 $8 $9 X,Y pos of 4 corners*
0 Add a 4 corners polygon primitive as box body*
4,1,4,$2,$3,$4,$5,$6,$7,$8,$9,$2,$3,0*
0 Add four circle primitives for the rounded corners*
1,1,$1+$1,$2,$3*
1,1,$1+$1,$4,$5*
1,1,$1+$1,$6,$7*
1,1,$1+$1,$8,$9*
0 Add four rect primitives between the rounded corners*
20,1,$1+$1,$2,$3,$4,$5,0*
20,1,$1+$1,$4,$5,$6,$7,0*
20,1,$1+$1,$6,$7,$8,$9,0*
20,1,$1+$1,$8,$9,$2,$3,0*%
G04 Aperture macros list end*
%ADD10C,0.705993*%
%ADD11R,2.000000X1.000000*%
%ADD12RoundRect,0.102000X-1.000000X-0.450000X1.000000X-0.450000X1.000000X0.450000X-1.000000X0.450000X0*%
%ADD13O,2.000000X1.000000*%
%ADD14RoundRect,0.102000X-0.450000X-1.000000X0.450000X-1.000000X0.450000X1.000000X-0.450000X1.000000X0*%
%ADD15R,1.000000X2.000000*%
%ADD16O,1.000000X2.000000*%
%ADD17RoundRect,0.102000X-0.665000X-0.665000X0.665000X-0.665000X0.665000X0.665000X-0.665000X0.665000X0*%
%ADD18RoundRect,0.250000X0.450000X-0.350000X0.450000X0.350000X-0.450000X0.350000X-0.450000X-0.350000X0*%
%ADD19O,2.004000X2.004000*%
%ADD20C,2.004000*%
%ADD21O,2.204000X2.704000*%
%ADD22C,2.704000*%
%ADD23RoundRect,0.250000X-0.350000X-0.450000X0.350000X-0.450000X0.350000X0.450000X-0.350000X0.450000X0*%
%ADD24C,2.204000*%
%ADD25C,2.490000*%
%ADD26RoundRect,0.250000X-0.450000X0.350000X-0.450000X-0.350000X0.450000X-0.350000X0.450000X0.350000X0*%
%ADD27R,1.500000X2.500000*%
%ADD28O,1.500000X2.500000*%
%ADD29RoundRect,0.250000X0.337500X0.475000X-0.337500X0.475000X-0.337500X-0.475000X0.337500X-0.475000X0*%
%ADD30RoundRect,0.250000X-0.475000X0.337500X-0.475000X-0.337500X0.475000X-0.337500X0.475000X0.337500X0*%
%ADD31RoundRect,0.250000X-0.650000X1.000000X-0.650000X-1.000000X0.650000X-1.000000X0.650000X1.000000X0*%
%ADD32RoundRect,0.250000X-0.450000X0.325000X-0.450000X-0.325000X0.450000X-0.325000X0.450000X0.325000X0*%
%ADD33RoundRect,0.250000X0.350000X0.450000X-0.350000X0.450000X-0.350000X-0.450000X0.350000X-0.450000X0*%
%ADD34RoundRect,0.250000X-0.337500X-0.475000X0.337500X-0.475000X0.337500X0.475000X-0.337500X0.475000X0*%
%ADD35O,1.704000X2.704000*%
%ADD36RoundRect,0.102000X0.750000X1.250000X-0.750000X1.250000X-0.750000X-1.250000X0.750000X-1.250000X0*%
%ADD37R,2.500000X1.500000*%
%ADD38O,2.500000X1.500000*%
%ADD39RoundRect,0.250000X0.475000X-0.337500X0.475000X0.337500X-0.475000X0.337500X-0.475000X-0.337500X0*%
%ADD40RoundRect,0.190500X-0.816500X-0.571500X0.816500X-0.571500X0.816500X0.571500X-0.816500X0.571500X0*%
%ADD41RoundRect,0.102000X0.750000X1.100000X-0.750000X1.100000X-0.750000X-1.100000X0.750000X-1.100000X0*%
%ADD42RoundRect,0.217080X-0.869920X-0.184920X0.869920X-0.184920X0.869920X0.184920X-0.869920X0.184920X0*%
%ADD43RoundRect,0.190500X-0.571500X0.816500X-0.571500X-0.816500X0.571500X-0.816500X0.571500X0.816500X0*%
%ADD44RoundRect,0.102000X-0.901700X-0.266700X0.901700X-0.266700X0.901700X0.266700X-0.901700X0.266700X0*%
%ADD45RoundRect,0.190500X0.571500X-0.816500X0.571500X0.816500X-0.571500X0.816500X-0.571500X-0.816500X0*%
%ADD46RoundRect,0.102000X-0.750000X-1.150000X0.750000X-1.150000X0.750000X1.150000X-0.750000X1.150000X0*%
%ADD47O,1.704000X2.504000*%
%ADD48RoundRect,0.375000X-0.625000X-0.375000X0.625000X-0.375000X0.625000X0.375000X-0.625000X0.375000X0*%
%ADD49RoundRect,0.500000X-0.500000X-1.400000X0.500000X-1.400000X0.500000X1.400000X-0.500000X1.400000X0*%
G04 APERTURE END LIST*
%TO.C,J1.1*%
D10*
X125327996Y-120810002D02*
G75*
G02*
X124622004Y-120810002I-352996J0D01*
G01*
X124622004Y-120810002D02*
G75*
G02*
X125327996Y-120810002I352996J0D01*
G01*
X125327996Y-122809998D02*
G75*
G02*
X124622004Y-122809998I-352996J0D01*
G01*
X124622004Y-122809998D02*
G75*
G02*
X125327996Y-122809998I352996J0D01*
G01*
X127327986Y-120810002D02*
G75*
G02*
X126621994Y-120810002I-352996J0D01*
G01*
X126621994Y-120810002D02*
G75*
G02*
X127327986Y-120810002I352996J0D01*
G01*
X127327986Y-122809998D02*
G75*
G02*
X126621994Y-122809998I-352996J0D01*
G01*
X126621994Y-122809998D02*
G75*
G02*
X127327986Y-122809998I352996J0D01*
G01*
X129328006Y-120810002D02*
G75*
G02*
X128622014Y-120810002I-352996J0D01*
G01*
X128622014Y-120810002D02*
G75*
G02*
X129328006Y-120810002I352996J0D01*
G01*
X129328006Y-122809998D02*
G75*
G02*
X128622014Y-122809998I-352996J0D01*
G01*
X128622014Y-122809998D02*
G75*
G02*
X129328006Y-122809998I352996J0D01*
G01*
X131328006Y-120810002D02*
G75*
G02*
X130622014Y-120810002I-352996J0D01*
G01*
X130622014Y-120810002D02*
G75*
G02*
X131328006Y-120810002I352996J0D01*
G01*
X131328006Y-122809998D02*
G75*
G02*
X130622014Y-122809998I-352996J0D01*
G01*
X130622014Y-122809998D02*
G75*
G02*
X131328006Y-122809998I352996J0D01*
G01*
X133327996Y-120810002D02*
G75*
G02*
X132622004Y-120810002I-352996J0D01*
G01*
X132622004Y-120810002D02*
G75*
G02*
X133327996Y-120810002I352996J0D01*
G01*
X133327996Y-122809998D02*
G75*
G02*
X132622004Y-122809998I-352996J0D01*
G01*
X132622004Y-122809998D02*
G75*
G02*
X133327996Y-122809998I352996J0D01*
G01*
X135327996Y-120810002D02*
G75*
G02*
X134622004Y-120810002I-352996J0D01*
G01*
X134622004Y-120810002D02*
G75*
G02*
X135327996Y-120810002I352996J0D01*
G01*
X135327996Y-122809998D02*
G75*
G02*
X134622004Y-122809998I-352996J0D01*
G01*
X134622004Y-122809998D02*
G75*
G02*
X135327996Y-122809998I352996J0D01*
G01*
X137327996Y-120810002D02*
G75*
G02*
X136622004Y-120810002I-352996J0D01*
G01*
X136622004Y-120810002D02*
G75*
G02*
X137327996Y-120810002I352996J0D01*
G01*
X137327996Y-122809998D02*
G75*
G02*
X136622004Y-122809998I-352996J0D01*
G01*
X136622004Y-122809998D02*
G75*
G02*
X137327996Y-122809998I352996J0D01*
G01*
X139327986Y-120810002D02*
G75*
G02*
X138621994Y-120810002I-352996J0D01*
G01*
X138621994Y-120810002D02*
G75*
G02*
X139327986Y-120810002I352996J0D01*
G01*
X139327986Y-122809998D02*
G75*
G02*
X138621994Y-122809998I-352996J0D01*
G01*
X138621994Y-122809998D02*
G75*
G02*
X139327986Y-122809998I352996J0D01*
G01*
X141327986Y-120810002D02*
G75*
G02*
X140621994Y-120810002I-352996J0D01*
G01*
X140621994Y-120810002D02*
G75*
G02*
X141327986Y-120810002I352996J0D01*
G01*
X141327986Y-122809998D02*
G75*
G02*
X140621994Y-122809998I-352996J0D01*
G01*
X140621994Y-122809998D02*
G75*
G02*
X141327986Y-122809998I352996J0D01*
G01*
X143328006Y-120810002D02*
G75*
G02*
X142622014Y-120810002I-352996J0D01*
G01*
X142622014Y-120810002D02*
G75*
G02*
X143328006Y-120810002I352996J0D01*
G01*
X143328006Y-122809998D02*
G75*
G02*
X142622014Y-122809998I-352996J0D01*
G01*
X142622014Y-122809998D02*
G75*
G02*
X143328006Y-122809998I352996J0D01*
G01*
X145327996Y-120810002D02*
G75*
G02*
X144622004Y-120810002I-352996J0D01*
G01*
X144622004Y-120810002D02*
G75*
G02*
X145327996Y-120810002I352996J0D01*
G01*
X145327996Y-122809998D02*
G75*
G02*
X144622004Y-122809998I-352996J0D01*
G01*
X144622004Y-122809998D02*
G75*
G02*
X145327996Y-122809998I352996J0D01*
G01*
%TD*%
D11*
%TO.C,J6.2*%
X138125000Y-82530000D03*
D12*
X141800000Y-82555000D03*
D13*
X138125000Y-83800000D03*
D12*
X141800000Y-83825000D03*
D13*
X138125000Y-85070000D03*
D12*
X141800000Y-85095000D03*
D13*
X138125000Y-86340000D03*
D12*
X141800000Y-86365000D03*
D13*
X138125000Y-87610000D03*
D12*
X141800000Y-87635000D03*
D13*
X138125000Y-88880000D03*
D12*
X141800000Y-88905000D03*
D13*
X138125000Y-90150000D03*
D12*
X141800000Y-90175000D03*
D13*
X138125000Y-91420000D03*
D12*
X141800000Y-91445000D03*
D13*
X138125000Y-92690000D03*
D12*
X141800000Y-92715000D03*
D13*
X138125000Y-93960000D03*
D12*
X141800000Y-93985000D03*
D13*
X138125000Y-95230000D03*
D12*
X141800000Y-95255000D03*
D13*
X138125000Y-96500000D03*
D12*
X141800000Y-96525000D03*
D13*
X138125000Y-97770000D03*
D12*
X141800000Y-97795000D03*
D13*
X138125000Y-99040000D03*
D12*
X141800000Y-99065000D03*
D14*
X144585000Y-100065000D03*
D15*
X144715000Y-103620000D03*
D14*
X145855000Y-100065000D03*
D16*
X145985000Y-103620000D03*
D14*
X147125000Y-100065000D03*
D16*
X147255000Y-103620000D03*
D14*
X148395000Y-100065000D03*
D16*
X148525000Y-103620000D03*
D14*
X149665000Y-100065000D03*
D16*
X149795000Y-103620000D03*
D14*
X150935000Y-100065000D03*
D16*
X151065000Y-103620000D03*
D14*
X152205000Y-100065000D03*
D16*
X152335000Y-103620000D03*
D14*
X153475000Y-100065000D03*
D16*
X153605000Y-103620000D03*
D14*
X154745000Y-100065000D03*
D16*
X154875000Y-103620000D03*
D14*
X156015000Y-100065000D03*
D16*
X156145000Y-103620000D03*
D12*
X158800000Y-99065000D03*
D13*
X162325000Y-99070000D03*
D12*
X158800000Y-97795000D03*
D13*
X162325000Y-97800000D03*
D12*
X158800000Y-96525000D03*
D13*
X162325000Y-96530000D03*
D12*
X158800000Y-95255000D03*
D13*
X162325000Y-95260000D03*
D12*
X158800000Y-93985000D03*
X158800000Y-92715000D03*
D13*
X162325000Y-92720000D03*
D12*
X158800000Y-91445000D03*
D13*
X162325000Y-91450000D03*
D12*
X158800000Y-90175000D03*
X158800000Y-88905000D03*
D13*
X162325000Y-88910000D03*
D12*
X158800000Y-87635000D03*
D13*
X162325000Y-87640000D03*
D12*
X158800000Y-86365000D03*
D13*
X162325000Y-86370000D03*
D12*
X158800000Y-85095000D03*
D13*
X162325000Y-85100000D03*
D12*
X158800000Y-83825000D03*
D13*
X162325000Y-83830000D03*
D12*
X158800000Y-82555000D03*
D11*
X162325000Y-82560000D03*
D17*
X147465000Y-88220000D03*
X149300000Y-88220000D03*
X151135000Y-88220000D03*
X147465000Y-90055000D03*
X149300000Y-90055000D03*
X151135000Y-90055000D03*
X147465000Y-91890000D03*
X149300000Y-91890000D03*
X151135000Y-91890000D03*
%TD*%
D18*
%TO.C,R2.6*%
X115430000Y-108105000D03*
X115430000Y-106105000D03*
%TD*%
D19*
%TO.C,U7.2*%
X162775000Y-115285000D03*
X162775000Y-108935000D03*
D20*
X167855000Y-115285000D03*
X167855000Y-108935000D03*
X185635000Y-114650000D03*
X185635000Y-112110000D03*
X185635000Y-109570000D03*
D21*
X168807500Y-119730000D03*
D22*
X182142500Y-119730000D03*
X182142500Y-104490000D03*
X168807500Y-104490000D03*
D20*
X172935000Y-122270000D03*
X175475000Y-122270000D03*
X178015000Y-122270000D03*
%TD*%
D23*
%TO.C,R1.1*%
X176480000Y-90057500D03*
X178480000Y-90057500D03*
%TD*%
D24*
%TO.C,U7.1*%
X86730000Y-115285000D03*
X86730000Y-108935000D03*
X91810000Y-115285000D03*
X91810000Y-108935000D03*
D20*
X109590000Y-114650000D03*
X109590000Y-112110000D03*
X109590000Y-109570000D03*
D22*
X92762500Y-119730000D03*
X106097500Y-119730000D03*
X106097500Y-104490000D03*
D25*
X92762500Y-104490000D03*
D20*
X96890000Y-122270000D03*
X99430000Y-122270000D03*
X101970000Y-122270000D03*
%TD*%
D26*
%TO.C,R4.4*%
X115430000Y-90025000D03*
X115430000Y-92025000D03*
%TD*%
D27*
%TO.C,J4.1*%
X130740000Y-86655000D03*
D28*
X128200000Y-86655000D03*
X125660000Y-86655000D03*
X123120000Y-86655000D03*
X120580000Y-86655000D03*
X118040000Y-86655000D03*
X115500000Y-86655000D03*
%TD*%
D29*
%TO.C,C3.1*%
X94150000Y-90025000D03*
X92075000Y-90025000D03*
%TD*%
D30*
%TO.C,C2.2*%
X124070000Y-94962500D03*
X124070000Y-97037500D03*
%TD*%
D23*
%TO.C,R3.2*%
X158435000Y-122410000D03*
X160435000Y-122410000D03*
%TD*%
D31*
%TO.C,D2.1*%
X110110000Y-91687500D03*
X110110000Y-95687500D03*
%TD*%
D32*
%TO.C,D6.1*%
X127519000Y-80920000D03*
X127519000Y-82970000D03*
%TD*%
D33*
%TO.C,R5.4*%
X155222500Y-108115000D03*
X153222500Y-108115000D03*
%TD*%
D24*
%TO.C,J2.1*%
X115500000Y-116095000D03*
X118000000Y-116095000D03*
%TD*%
D34*
%TO.C,C1.3*%
X170362500Y-80200000D03*
X172437500Y-80200000D03*
%TD*%
D29*
%TO.C,C5.1*%
X150327500Y-118787500D03*
X148252500Y-118787500D03*
%TD*%
D33*
%TO.C,R5.2*%
X150260000Y-108115000D03*
X148260000Y-108115000D03*
%TD*%
D35*
%TO.C,RF_E1*%
X120830000Y-77605000D03*
D36*
X123370000Y-77605000D03*
D35*
X125910000Y-77605000D03*
%TD*%
D29*
%TO.C,C1.5*%
X168542500Y-80200000D03*
X166467500Y-80200000D03*
%TD*%
D30*
%TO.C,C1.2*%
X121312000Y-80877500D03*
X121312000Y-82952500D03*
%TD*%
D37*
%TO.C,J6.1*%
X170165000Y-95950000D03*
D38*
X170165000Y-93410000D03*
X170165000Y-90870000D03*
X170165000Y-88330000D03*
X170165000Y-85790000D03*
X170165000Y-83250000D03*
%TD*%
D33*
%TO.C,R5.5*%
X155222500Y-111379119D03*
X153222500Y-111379119D03*
%TD*%
D26*
%TO.C,R4.2*%
X127564000Y-89957500D03*
X127564000Y-91957500D03*
%TD*%
D39*
%TO.C,C2.5*%
X127445000Y-103677500D03*
X127445000Y-101602500D03*
%TD*%
D29*
%TO.C,C1.4*%
X176275000Y-80200000D03*
X174200000Y-80200000D03*
%TD*%
D30*
%TO.C,C1.1*%
X118186000Y-80877500D03*
X118186000Y-82952500D03*
%TD*%
D40*
%TO.C,C2.1*%
X117445000Y-111350000D03*
X120045000Y-111350000D03*
%TD*%
D41*
%TO.C,L4*%
X104925000Y-93670000D03*
X98625000Y-93670000D03*
%TD*%
D33*
%TO.C,R3.1*%
X94082500Y-96980000D03*
X92082500Y-96980000D03*
%TD*%
%TO.C,R5.3*%
X150260000Y-115210000D03*
X148260000Y-115210000D03*
%TD*%
D29*
%TO.C,C3.3*%
X150327500Y-122395000D03*
X148252500Y-122395000D03*
%TD*%
D42*
%TO.C,U4*%
X118755000Y-99010000D03*
X118755000Y-100280000D03*
X118755000Y-101550000D03*
X118755000Y-102820000D03*
X123705000Y-102820000D03*
X123705000Y-101550000D03*
X123705000Y-100280000D03*
X123705000Y-99010000D03*
%TD*%
D23*
%TO.C,R1.3*%
X176500000Y-93027500D03*
X178500000Y-93027500D03*
%TD*%
D43*
%TO.C,C6.2*%
X110110000Y-79000000D03*
X110110000Y-81600000D03*
%TD*%
D18*
%TO.C,R2.7*%
X115430000Y-103757500D03*
X115430000Y-101757500D03*
%TD*%
D26*
%TO.C,R2.3*%
X127415000Y-106082500D03*
X127415000Y-108082500D03*
%TD*%
D39*
%TO.C,C2.3*%
X115460000Y-99405000D03*
X115460000Y-97330000D03*
%TD*%
D36*
%TO.C,R1*%
X187520000Y-82530000D03*
D35*
X185020000Y-82530000D03*
X182520000Y-82530000D03*
X180020000Y-82530000D03*
%TD*%
D18*
%TO.C,R6.1*%
X124408000Y-82945000D03*
X124408000Y-80945000D03*
%TD*%
D44*
%TO.C,U5.1*%
X132019800Y-106045000D03*
X132019800Y-107315000D03*
X132019800Y-108585000D03*
X132019800Y-109855000D03*
X132019800Y-111125000D03*
X132019800Y-112395000D03*
X132019800Y-113665000D03*
X132019800Y-114935000D03*
X141570200Y-114935000D03*
X141570200Y-113665000D03*
X141570200Y-112395000D03*
X141570200Y-111125000D03*
X141570200Y-109855000D03*
X141570200Y-108585000D03*
X141570200Y-107315000D03*
X141570200Y-106045000D03*
%TD*%
D30*
%TO.C,C2.4*%
X127445000Y-96862500D03*
X127445000Y-98937500D03*
%TD*%
D45*
%TO.C,C6.4*%
X130670000Y-82640000D03*
X130670000Y-80040000D03*
%TD*%
D26*
%TO.C,R2.2*%
X124125000Y-106080000D03*
X124125000Y-108080000D03*
%TD*%
D46*
%TO.C,J1.2*%
X175070000Y-77605000D03*
D47*
X172530000Y-77605000D03*
X169990000Y-77605000D03*
X167450000Y-77605000D03*
%TD*%
D39*
%TO.C,C6.3*%
X134220000Y-82952500D03*
X134220000Y-80877500D03*
%TD*%
D18*
%TO.C,R2.4*%
X118285000Y-96980000D03*
X118285000Y-94980000D03*
%TD*%
D48*
%TO.C,U2.1*%
X99250000Y-80082500D03*
X99250000Y-82382500D03*
D49*
X105550000Y-82382500D03*
D48*
X99250000Y-84682500D03*
%TD*%
D33*
%TO.C,R5.1*%
X150260000Y-111386619D03*
X148260000Y-111386619D03*
%TD*%
D39*
%TO.C,C6.1*%
X110140000Y-86800000D03*
X110140000Y-84725000D03*
%TD*%
D26*
%TO.C,R4.5*%
X118285000Y-89985000D03*
X118285000Y-91985000D03*
%TD*%
%TO.C,R1.2*%
X115090000Y-80945000D03*
X115090000Y-82945000D03*
%TD*%
%TO.C,R4.1*%
X124040000Y-89945000D03*
X124040000Y-91945000D03*
%TD*%
D33*
%TO.C,R5.6*%
X155222500Y-115202500D03*
X153222500Y-115202500D03*
%TD*%
D26*
%TO.C,R2.5*%
X117965000Y-106090000D03*
X117965000Y-108090000D03*
%TD*%
D18*
%TO.C,R2.1*%
X121065000Y-108090000D03*
X121065000Y-106090000D03*
%TD*%
D36*
%TO.C,L1*%
X91730000Y-82530000D03*
D35*
X89230000Y-82530000D03*
X86730000Y-82530000D03*
X84230000Y-82530000D03*
%TD*%
D29*
%TO.C,C3.2*%
X94150000Y-93695000D03*
X92075000Y-93695000D03*
%TD*%
D34*
%TO.C,C3.4*%
X153192500Y-122387500D03*
X155267500Y-122387500D03*
%TD*%
%TO.C,C5.2*%
X153215000Y-118780000D03*
X155290000Y-118780000D03*
%TD*%
D26*
%TO.C,R4.3*%
X121120000Y-89995000D03*
X121120000Y-91995000D03*
%TD*%
M02*
