M48
; DRILL file {KiCad 9.0.2} date 2025-07-09T14:39:43+0700
; FORMAT={-:-/ absolute / metric / decimal}
; #@! TF.CreationDate,2025-07-09T14:39:43+07:00
; #@! TF.GenerationSoftware,Kicad,Pcbnew,9.0.2
; #@! TF.FileFunction,Plated,1,2,PTH
FMAT,2
METRIC
; #@! TA.AperFunction,Plated,PTH,ViaDrill
T1C0.300
; #@! TA.AperFunction,Plated,PTH,ComponentDrill
T2C0.650
; #@! TA.AperFunction,Plated,PTH,ComponentDrill
T3C0.700
; #@! TA.AperFunction,Plated,PTH,ComponentDrill
T4C0.710
; #@! TA.AperFunction,Plated,PTH,ComponentDrill
T5C0.889
; #@! TA.AperFunction,Plated,PTH,ComponentDrill
T6C0.900
; #@! TA.AperFunction,Plated,PTH,ComponentDrill
T7C1.000
; #@! TA.AperFunction,Plated,PTH,ComponentDrill
T8C1.020
; #@! TA.AperFunction,Plated,PTH,ComponentDrill
T9C1.397
%
G90
G05
T1
X86.73Y-99.207
X88.9Y-96.98
X103.105Y-78.13
X105.55Y-79.59
X107.315Y-78.13
X109.59Y-99.207
X111.62Y-119.73
X111.665Y-86.8
X115.435Y-93.35
X117.01Y-94.627
X117.02Y-99.01
X117.02Y-100.28
X118.28Y-93.35
X119.69Y-106.09
X119.735Y-80.877
X121.125Y-93.35
X122.33Y-108.94
X124.045Y-93.35
X124.425Y-111.06
X124.745Y-104.27
X126.045Y-96.86
X127.564Y-93.35
X128.795Y-100.38
X128.795Y-103.67
X129.095Y-93.96
X129.965Y-89.21
X130.625Y-97.77
X131.355Y-96.51
X133.035Y-96.51
X133.035Y-97.77
X133.035Y-99.04
X134.415Y-88.5
X135.205Y-90.15
X135.205Y-91.42
X135.205Y-92.69
X135.205Y-93.96
X135.205Y-95.23
X135.205Y-96.5
X135.205Y-97.77
X135.205Y-99.04
X138.125Y-103.557
X138.125Y-108.94
X142.095Y-101.73
X143.155Y-101.72
X143.155Y-106.045
X146.645Y-112.37
X148.26Y-109.28
X148.26Y-110.165
X150.26Y-106.66
X151.425Y-112.37
X153.157Y-109.28
X153.195Y-110.165
X155.157Y-116.54
X155.685Y-117.29
X156.475Y-118.1
X156.895Y-109.16
X156.935Y-114.87
X157.245Y-115.51
X157.815Y-119.56
X157.915Y-112.188
X158.845Y-112.117
X159.515Y-118.1
X161.625Y-119.24
X162.55Y-121.517
X164.075Y-118.1
X164.495Y-112.08
X165.885Y-96.53
X166.605Y-91.18
X174.295Y-111.23
X175.07Y-87.587
X176.49Y-87.557
X178.49Y-94.637
X180.025Y-78.44
X182.52Y-95.797
X187.52Y-95.797
T2
X138.125Y-82.53
X138.125Y-83.8
X138.125Y-85.07
X138.125Y-86.34
X138.125Y-87.61
X138.125Y-88.88
X138.125Y-90.15
X138.125Y-91.42
X138.125Y-92.69
X138.125Y-93.96
X138.125Y-95.23
X138.125Y-96.5
X138.125Y-97.77
X138.125Y-99.04
X144.715Y-103.62
X145.985Y-103.62
X147.255Y-103.62
X148.525Y-103.62
X149.795Y-103.62
X151.065Y-103.62
X152.335Y-103.62
X153.605Y-103.62
X154.875Y-103.62
X156.145Y-103.62
X162.325Y-82.56
X162.325Y-83.83
X162.325Y-85.1
X162.325Y-86.37
X162.325Y-87.64
X162.325Y-88.91
X162.325Y-91.45
X162.325Y-92.72
X162.325Y-95.26
X162.325Y-96.53
X162.325Y-97.8
X162.325Y-99.07
T3
X124.975Y-120.81
T4
X124.975Y-122.81
X126.975Y-120.81
X126.975Y-122.81
X128.975Y-120.81
X128.975Y-122.81
X130.975Y-120.81
X130.975Y-122.81
X132.975Y-120.81
X132.975Y-122.81
X134.975Y-120.81
X134.975Y-122.81
X136.975Y-120.81
X136.975Y-122.81
X138.975Y-120.81
X138.975Y-122.81
X140.975Y-120.81
X140.975Y-122.81
X142.975Y-120.81
X142.975Y-122.81
X144.975Y-120.81
X144.975Y-122.81
T5
X96.89Y-122.27
X99.43Y-122.27
X101.97Y-122.27
X109.59Y-109.57
X109.59Y-112.11
X109.59Y-114.65
X172.935Y-122.27
X175.475Y-122.27
X178.015Y-122.27
X185.635Y-109.57
X185.635Y-112.11
X185.635Y-114.65
T6
X86.73Y-108.935
X86.73Y-115.285
X91.81Y-108.935
X91.81Y-115.285
X162.775Y-108.935
X162.775Y-115.285
X167.855Y-108.935
X167.855Y-115.285
T7
X84.23Y-82.53
X86.73Y-82.53
X89.23Y-82.53
X91.73Y-82.53
X115.5Y-86.655
X115.5Y-116.095
X118.0Y-116.095
X118.04Y-86.655
X120.58Y-86.655
X123.12Y-86.655
X125.66Y-86.655
X128.2Y-86.655
X130.74Y-86.655
X170.165Y-83.25
X170.165Y-85.79
X170.165Y-88.33
X170.165Y-90.87
X170.165Y-93.41
X170.165Y-95.95
X180.02Y-82.53
X182.52Y-82.53
X185.02Y-82.53
X187.52Y-82.53
T8
X120.83Y-77.605
X123.37Y-77.605
X125.91Y-77.605
X167.45Y-77.605
X169.99Y-77.605
X172.53Y-77.605
X175.07Y-77.605
T9
X92.763Y-104.49
X92.763Y-119.73
X106.097Y-104.49
X106.097Y-119.73
X168.808Y-104.49
X168.808Y-119.73
X182.142Y-104.49
X182.142Y-119.73
M30
