%TF.GenerationSoftware,KiCad,Pcbnew,9.0.0*%
%TF.CreationDate,2025-05-27T09:12:42+07:00*%
%TF.ProjectId,robottttttttt,726f626f-7474-4747-9474-747474742e6b,rev?*%
%TF.SameCoordinates,Original*%
%TF.FileFunction,Paste,Top*%
%TF.FilePolarity,Positive*%
%FSLAX46Y46*%
G04 Gerber Fmt 4.6, Leading zero omitted, Abs format (unit mm)*
G04 Created by KiCad (PCBNEW 9.0.0) date 2025-05-27 09:12:42*
%MOMM*%
%LPD*%
G01*
G04 APERTURE LIST*
G04 Aperture macros list*
%AMRoundRect*
0 Rectangle with rounded corners*
0 $1 Rounding radius*
0 $2 $3 $4 $5 $6 $7 $8 $9 X,Y pos of 4 corners*
0 Add a 4 corners polygon primitive as box body*
4,1,4,$2,$3,$4,$5,$6,$7,$8,$9,$2,$3,0*
0 Add four circle primitives for the rounded corners*
1,1,$1+$1,$2,$3*
1,1,$1+$1,$4,$5*
1,1,$1+$1,$6,$7*
1,1,$1+$1,$8,$9*
0 Add four rect primitives between the rounded corners*
20,1,$1+$1,$2,$3,$4,$5,0*
20,1,$1+$1,$4,$5,$6,$7,0*
20,1,$1+$1,$6,$7,$8,$9,0*
20,1,$1+$1,$8,$9,$2,$3,0*%
G04 Aperture macros list end*
%ADD10C,0.010000*%
%ADD11RoundRect,0.165000X-0.740000X-0.495000X0.740000X-0.495000X0.740000X0.495000X-0.740000X0.495000X0*%
%ADD12RoundRect,0.250000X0.337500X0.475000X-0.337500X0.475000X-0.337500X-0.475000X0.337500X-0.475000X0*%
%ADD13R,2.000000X0.900000*%
%ADD14R,0.900000X2.000000*%
%ADD15R,1.330000X1.330000*%
%ADD16RoundRect,0.250000X0.350000X0.450000X-0.350000X0.450000X-0.350000X-0.450000X0.350000X-0.450000X0*%
%ADD17RoundRect,0.250000X-0.350000X-0.450000X0.350000X-0.450000X0.350000X0.450000X-0.350000X0.450000X0*%
%ADD18R,1.803400X0.533400*%
%ADD19RoundRect,0.250000X-0.250000X-0.250000X0.250000X-0.250000X0.250000X0.250000X-0.250000X0.250000X0*%
%ADD20RoundRect,0.250000X-0.337500X-0.475000X0.337500X-0.475000X0.337500X0.475000X-0.337500X0.475000X0*%
%ADD21R,0.600000X1.450000*%
%ADD22R,0.300000X1.450000*%
%ADD23R,0.270000X0.990000*%
%ADD24R,0.990000X0.270000*%
%ADD25R,0.700000X1.600000*%
%ADD26R,1.200000X1.800000*%
%ADD27R,1.600000X1.500000*%
%ADD28R,1.200000X2.200000*%
%ADD29RoundRect,0.075000X-0.910000X-0.225000X0.910000X-0.225000X0.910000X0.225000X-0.910000X0.225000X0*%
%ADD30RoundRect,0.150000X0.150000X-0.587500X0.150000X0.587500X-0.150000X0.587500X-0.150000X-0.587500X0*%
%ADD31RoundRect,0.165000X0.740000X0.495000X-0.740000X0.495000X-0.740000X-0.495000X0.740000X-0.495000X0*%
%ADD32RoundRect,0.250000X-0.325000X-0.450000X0.325000X-0.450000X0.325000X0.450000X-0.325000X0.450000X0*%
%ADD33RoundRect,0.375000X0.375000X-0.625000X0.375000X0.625000X-0.375000X0.625000X-0.375000X-0.625000X0*%
%ADD34RoundRect,0.500000X1.400000X-0.500000X1.400000X0.500000X-1.400000X0.500000X-1.400000X-0.500000X0*%
%ADD35RoundRect,0.250000X0.325000X0.450000X-0.325000X0.450000X-0.325000X-0.450000X0.325000X-0.450000X0*%
G04 APERTURE END LIST*
D10*
%TO.C,JUMPBT1*%
X177845000Y-67430000D02*
X178210000Y-67745000D01*
X178670000Y-67745000D01*
X178670000Y-69285000D01*
X176510000Y-69285000D01*
X176510000Y-67745000D01*
X176970000Y-67745000D01*
X177335000Y-67430000D01*
X177335000Y-66670000D01*
X177845000Y-66670000D01*
X177845000Y-67430000D01*
G36*
X177845000Y-67430000D02*
G01*
X178210000Y-67745000D01*
X178670000Y-67745000D01*
X178670000Y-69285000D01*
X176510000Y-69285000D01*
X176510000Y-67745000D01*
X176970000Y-67745000D01*
X177335000Y-67430000D01*
X177335000Y-66670000D01*
X177845000Y-66670000D01*
X177845000Y-67430000D01*
G37*
X180385000Y-67430000D02*
X180750000Y-67745000D01*
X181210000Y-67745000D01*
X181210000Y-69285000D01*
X179050000Y-69285000D01*
X179050000Y-67745000D01*
X179510000Y-67745000D01*
X179875000Y-67430000D01*
X179875000Y-66670000D01*
X180385000Y-66670000D01*
X180385000Y-67430000D01*
G36*
X180385000Y-67430000D02*
G01*
X180750000Y-67745000D01*
X181210000Y-67745000D01*
X181210000Y-69285000D01*
X179050000Y-69285000D01*
X179050000Y-67745000D01*
X179510000Y-67745000D01*
X179875000Y-67430000D01*
X179875000Y-66670000D01*
X180385000Y-66670000D01*
X180385000Y-67430000D01*
G37*
X182925000Y-67430000D02*
X183290000Y-67745000D01*
X183750000Y-67745000D01*
X183750000Y-69285000D01*
X181590000Y-69285000D01*
X181590000Y-67745000D01*
X182050000Y-67745000D01*
X182415000Y-67430000D01*
X182415000Y-66670000D01*
X182925000Y-66670000D01*
X182925000Y-67430000D01*
G36*
X182925000Y-67430000D02*
G01*
X183290000Y-67745000D01*
X183750000Y-67745000D01*
X183750000Y-69285000D01*
X181590000Y-69285000D01*
X181590000Y-67745000D01*
X182050000Y-67745000D01*
X182415000Y-67430000D01*
X182415000Y-66670000D01*
X182925000Y-66670000D01*
X182925000Y-67430000D01*
G37*
X185465000Y-67430000D02*
X185830000Y-67745000D01*
X186290000Y-67745000D01*
X186290000Y-69285000D01*
X184130000Y-69285000D01*
X184130000Y-67745000D01*
X184590000Y-67745000D01*
X184955000Y-67430000D01*
X184955000Y-66670000D01*
X185465000Y-66670000D01*
X185465000Y-67430000D01*
G36*
X185465000Y-67430000D02*
G01*
X185830000Y-67745000D01*
X186290000Y-67745000D01*
X186290000Y-69285000D01*
X184130000Y-69285000D01*
X184130000Y-67745000D01*
X184590000Y-67745000D01*
X184955000Y-67430000D01*
X184955000Y-66670000D01*
X185465000Y-66670000D01*
X185465000Y-67430000D01*
G37*
X188005000Y-67430000D02*
X188370000Y-67745000D01*
X188830000Y-67745000D01*
X188830000Y-69285000D01*
X186670000Y-69285000D01*
X186670000Y-67745000D01*
X187130000Y-67745000D01*
X187495000Y-67430000D01*
X187495000Y-66670000D01*
X188005000Y-66670000D01*
X188005000Y-67430000D01*
G36*
X188005000Y-67430000D02*
G01*
X188370000Y-67745000D01*
X188830000Y-67745000D01*
X188830000Y-69285000D01*
X186670000Y-69285000D01*
X186670000Y-67745000D01*
X187130000Y-67745000D01*
X187495000Y-67430000D01*
X187495000Y-66670000D01*
X188005000Y-66670000D01*
X188005000Y-67430000D01*
G37*
X190545000Y-67430000D02*
X190910000Y-67745000D01*
X191370000Y-67745000D01*
X191370000Y-69285000D01*
X189210000Y-69285000D01*
X189210000Y-67745000D01*
X189670000Y-67745000D01*
X190035000Y-67430000D01*
X190035000Y-66670000D01*
X190545000Y-66670000D01*
X190545000Y-67430000D01*
G36*
X190545000Y-67430000D02*
G01*
X190910000Y-67745000D01*
X191370000Y-67745000D01*
X191370000Y-69285000D01*
X189210000Y-69285000D01*
X189210000Y-67745000D01*
X189670000Y-67745000D01*
X190035000Y-67430000D01*
X190035000Y-66670000D01*
X190545000Y-66670000D01*
X190545000Y-67430000D01*
G37*
X193085000Y-67430000D02*
X193450000Y-67745000D01*
X193910000Y-67745000D01*
X193910000Y-69285000D01*
X191750000Y-69285000D01*
X191750000Y-67745000D01*
X192210000Y-67745000D01*
X192575000Y-67430000D01*
X192575000Y-66670000D01*
X193085000Y-66670000D01*
X193085000Y-67430000D01*
G36*
X193085000Y-67430000D02*
G01*
X193450000Y-67745000D01*
X193910000Y-67745000D01*
X193910000Y-69285000D01*
X191750000Y-69285000D01*
X191750000Y-67745000D01*
X192210000Y-67745000D01*
X192575000Y-67430000D01*
X192575000Y-66670000D01*
X193085000Y-66670000D01*
X193085000Y-67430000D01*
G37*
%TO.C,U3.1*%
X179547740Y-95317740D02*
X177492260Y-95317740D01*
X177492260Y-93262260D01*
X179547740Y-93262260D01*
X179547740Y-95317740D01*
G36*
X179547740Y-95317740D02*
G01*
X177492260Y-95317740D01*
X177492260Y-93262260D01*
X179547740Y-93262260D01*
X179547740Y-95317740D01*
G37*
%TO.C,LCD1*%
X177840000Y-70755000D02*
X178205000Y-71070000D01*
X178665000Y-71070000D01*
X178665000Y-72610000D01*
X176505000Y-72610000D01*
X176505000Y-71070000D01*
X176965000Y-71070000D01*
X177330000Y-70755000D01*
X177330000Y-69995000D01*
X177840000Y-69995000D01*
X177840000Y-70755000D01*
G36*
X177840000Y-70755000D02*
G01*
X178205000Y-71070000D01*
X178665000Y-71070000D01*
X178665000Y-72610000D01*
X176505000Y-72610000D01*
X176505000Y-71070000D01*
X176965000Y-71070000D01*
X177330000Y-70755000D01*
X177330000Y-69995000D01*
X177840000Y-69995000D01*
X177840000Y-70755000D01*
G37*
X180380000Y-70755000D02*
X180745000Y-71070000D01*
X181205000Y-71070000D01*
X181205000Y-72610000D01*
X179045000Y-72610000D01*
X179045000Y-71070000D01*
X179505000Y-71070000D01*
X179870000Y-70755000D01*
X179870000Y-69995000D01*
X180380000Y-69995000D01*
X180380000Y-70755000D01*
G36*
X180380000Y-70755000D02*
G01*
X180745000Y-71070000D01*
X181205000Y-71070000D01*
X181205000Y-72610000D01*
X179045000Y-72610000D01*
X179045000Y-71070000D01*
X179505000Y-71070000D01*
X179870000Y-70755000D01*
X179870000Y-69995000D01*
X180380000Y-69995000D01*
X180380000Y-70755000D01*
G37*
X182920000Y-70755000D02*
X183285000Y-71070000D01*
X183745000Y-71070000D01*
X183745000Y-72610000D01*
X181585000Y-72610000D01*
X181585000Y-71070000D01*
X182045000Y-71070000D01*
X182410000Y-70755000D01*
X182410000Y-69995000D01*
X182920000Y-69995000D01*
X182920000Y-70755000D01*
G36*
X182920000Y-70755000D02*
G01*
X183285000Y-71070000D01*
X183745000Y-71070000D01*
X183745000Y-72610000D01*
X181585000Y-72610000D01*
X181585000Y-71070000D01*
X182045000Y-71070000D01*
X182410000Y-70755000D01*
X182410000Y-69995000D01*
X182920000Y-69995000D01*
X182920000Y-70755000D01*
G37*
X185460000Y-70755000D02*
X185825000Y-71070000D01*
X186285000Y-71070000D01*
X186285000Y-72610000D01*
X184125000Y-72610000D01*
X184125000Y-71070000D01*
X184585000Y-71070000D01*
X184950000Y-70755000D01*
X184950000Y-69995000D01*
X185460000Y-69995000D01*
X185460000Y-70755000D01*
G36*
X185460000Y-70755000D02*
G01*
X185825000Y-71070000D01*
X186285000Y-71070000D01*
X186285000Y-72610000D01*
X184125000Y-72610000D01*
X184125000Y-71070000D01*
X184585000Y-71070000D01*
X184950000Y-70755000D01*
X184950000Y-69995000D01*
X185460000Y-69995000D01*
X185460000Y-70755000D01*
G37*
X188000000Y-70755000D02*
X188365000Y-71070000D01*
X188825000Y-71070000D01*
X188825000Y-72610000D01*
X186665000Y-72610000D01*
X186665000Y-71070000D01*
X187125000Y-71070000D01*
X187490000Y-70755000D01*
X187490000Y-69995000D01*
X188000000Y-69995000D01*
X188000000Y-70755000D01*
G36*
X188000000Y-70755000D02*
G01*
X188365000Y-71070000D01*
X188825000Y-71070000D01*
X188825000Y-72610000D01*
X186665000Y-72610000D01*
X186665000Y-71070000D01*
X187125000Y-71070000D01*
X187490000Y-70755000D01*
X187490000Y-69995000D01*
X188000000Y-69995000D01*
X188000000Y-70755000D01*
G37*
X190540000Y-70755000D02*
X190905000Y-71070000D01*
X191365000Y-71070000D01*
X191365000Y-72610000D01*
X189205000Y-72610000D01*
X189205000Y-71070000D01*
X189665000Y-71070000D01*
X190030000Y-70755000D01*
X190030000Y-69995000D01*
X190540000Y-69995000D01*
X190540000Y-70755000D01*
G36*
X190540000Y-70755000D02*
G01*
X190905000Y-71070000D01*
X191365000Y-71070000D01*
X191365000Y-72610000D01*
X189205000Y-72610000D01*
X189205000Y-71070000D01*
X189665000Y-71070000D01*
X190030000Y-70755000D01*
X190030000Y-69995000D01*
X190540000Y-69995000D01*
X190540000Y-70755000D01*
G37*
X193080000Y-70755000D02*
X193445000Y-71070000D01*
X193905000Y-71070000D01*
X193905000Y-72610000D01*
X191745000Y-72610000D01*
X191745000Y-71070000D01*
X192205000Y-71070000D01*
X192570000Y-70755000D01*
X192570000Y-69995000D01*
X193080000Y-69995000D01*
X193080000Y-70755000D01*
G36*
X193080000Y-70755000D02*
G01*
X193445000Y-71070000D01*
X193905000Y-71070000D01*
X193905000Y-72610000D01*
X191745000Y-72610000D01*
X191745000Y-71070000D01*
X192205000Y-71070000D01*
X192570000Y-70755000D01*
X192570000Y-69995000D01*
X193080000Y-69995000D01*
X193080000Y-70755000D01*
G37*
%TD*%
D11*
%TO.C,C2.2*%
X163405000Y-88690000D03*
X166005000Y-88690000D03*
%TD*%
D12*
%TO.C,C2.1*%
X154987500Y-102050000D03*
X152912500Y-102050000D03*
%TD*%
D13*
%TO.C,U1.1*%
X166370000Y-43120000D03*
X166370000Y-44390000D03*
X166370000Y-45660000D03*
X166370000Y-46930000D03*
X166370000Y-48200000D03*
X166370000Y-49470000D03*
X166370000Y-50740000D03*
X166370000Y-52010000D03*
X166370000Y-53280000D03*
X166370000Y-54550000D03*
X166370000Y-55820000D03*
X166370000Y-57090000D03*
X166370000Y-58360000D03*
X166370000Y-59630000D03*
D14*
X169155000Y-60630000D03*
X170425000Y-60630000D03*
X171695000Y-60630000D03*
X172965000Y-60630000D03*
X174235000Y-60630000D03*
X175505000Y-60630000D03*
X176775000Y-60630000D03*
X178045000Y-60630000D03*
X179315000Y-60630000D03*
X180585000Y-60630000D03*
D13*
X183370000Y-59630000D03*
X183370000Y-58360000D03*
X183370000Y-57090000D03*
X183370000Y-55820000D03*
X183370000Y-54550000D03*
X183370000Y-53280000D03*
X183370000Y-52010000D03*
X183370000Y-50740000D03*
X183370000Y-49470000D03*
X183370000Y-48200000D03*
X183370000Y-46930000D03*
X183370000Y-45660000D03*
X183370000Y-44390000D03*
X183370000Y-43120000D03*
D15*
X172035000Y-48785000D03*
X173870000Y-48785000D03*
X175705000Y-48785000D03*
X172035000Y-50620000D03*
X173870000Y-50620000D03*
X175705000Y-50620000D03*
X172035000Y-52455000D03*
X173870000Y-52455000D03*
X175705000Y-52455000D03*
%TD*%
D16*
%TO.C,R6.9*%
X188840000Y-102670000D03*
X186840000Y-102670000D03*
%TD*%
D17*
%TO.C,R9.3*%
X187040000Y-83550000D03*
X189040000Y-83550000D03*
%TD*%
D16*
%TO.C,R9.5*%
X206480000Y-88090000D03*
X204480000Y-88090000D03*
%TD*%
D17*
%TO.C,R5*%
X179700000Y-84550000D03*
X181700000Y-84550000D03*
%TD*%
%TO.C,R3.1*%
X179630000Y-88840000D03*
X181630000Y-88840000D03*
%TD*%
%TO.C,R9.1*%
X187050000Y-86300000D03*
X189050000Y-86300000D03*
%TD*%
%TO.C,R1.1*%
X157300000Y-50250000D03*
X159300000Y-50250000D03*
%TD*%
D16*
%TO.C,R5.4*%
X161400000Y-77050000D03*
X159400000Y-77050000D03*
%TD*%
D18*
%TO.C,U8.1*%
X192474800Y-49150000D03*
X192474800Y-50420000D03*
X192474800Y-51690000D03*
X192474800Y-52960000D03*
X192474800Y-54230000D03*
X192474800Y-55500000D03*
X192474800Y-56770000D03*
X192474800Y-58040000D03*
X202025200Y-58040000D03*
X202025200Y-56770000D03*
X202025200Y-55500000D03*
X202025200Y-54230000D03*
X202025200Y-52960000D03*
X202025200Y-51690000D03*
X202025200Y-50420000D03*
X202025200Y-49150000D03*
%TD*%
D17*
%TO.C,R8.2*%
X205600000Y-52500000D03*
X207600000Y-52500000D03*
%TD*%
D19*
%TO.C,D3*%
X173732500Y-102620000D03*
X176232500Y-102620000D03*
%TD*%
D20*
%TO.C,C3.1*%
X180170000Y-106660000D03*
X182245000Y-106660000D03*
%TD*%
D16*
%TO.C,R6.8*%
X202560000Y-92400000D03*
X200560000Y-92400000D03*
%TD*%
%TO.C,R8.5*%
X207500000Y-49500000D03*
X205500000Y-49500000D03*
%TD*%
%TO.C,R5.6*%
X167550000Y-80400000D03*
X165550000Y-80400000D03*
%TD*%
D12*
%TO.C,C8.1*%
X201287500Y-44500000D03*
X199212500Y-44500000D03*
%TD*%
D17*
%TO.C,R5.1*%
X165350000Y-73350000D03*
X167350000Y-73350000D03*
%TD*%
%TO.C,R4.2*%
X167950000Y-102750000D03*
X169950000Y-102750000D03*
%TD*%
D21*
%TO.C,U4.1*%
X162110000Y-106655000D03*
X162910000Y-106655000D03*
D22*
X164110000Y-106655000D03*
X165110000Y-106655000D03*
X165610000Y-106655000D03*
X166610000Y-106655000D03*
D21*
X167810000Y-106655000D03*
X168610000Y-106655000D03*
X168610000Y-106655000D03*
X167810000Y-106655000D03*
D22*
X167110000Y-106655000D03*
X166110000Y-106655000D03*
X164610000Y-106655000D03*
X163610000Y-106655000D03*
D21*
X162910000Y-106655000D03*
X162110000Y-106655000D03*
%TD*%
D23*
%TO.C,U3.1*%
X177020000Y-96650000D03*
X177520000Y-96650000D03*
X178020000Y-96650000D03*
X178520000Y-96650000D03*
X179020000Y-96650000D03*
X179520000Y-96650000D03*
X180020000Y-96650000D03*
D24*
X180880000Y-95790000D03*
X180880000Y-95290000D03*
X180880000Y-94790000D03*
X180880000Y-94290000D03*
X180880000Y-93790000D03*
X180880000Y-93290000D03*
X180880000Y-92790000D03*
D23*
X180020000Y-91930000D03*
X179520000Y-91930000D03*
X179020000Y-91930000D03*
X178520000Y-91930000D03*
X178020000Y-91930000D03*
X177520000Y-91930000D03*
X177020000Y-91930000D03*
D24*
X176160000Y-92790000D03*
X176160000Y-93290000D03*
X176160000Y-93790000D03*
X176160000Y-94290000D03*
X176160000Y-94790000D03*
X176160000Y-95290000D03*
X176160000Y-95790000D03*
%TD*%
D12*
%TO.C,C9.1*%
X189177500Y-76700000D03*
X187102500Y-76700000D03*
%TD*%
D25*
%TO.C,J5*%
X203180000Y-99750000D03*
X202080000Y-99750000D03*
X200980000Y-99750000D03*
X199880000Y-99750000D03*
X198780000Y-99750000D03*
X197680000Y-99750000D03*
X196580000Y-99750000D03*
X195480000Y-99750000D03*
X194380000Y-99750000D03*
D26*
X193180000Y-101050000D03*
D27*
X207780000Y-100800000D03*
D28*
X193180000Y-110350000D03*
X208680000Y-110350000D03*
%TD*%
D29*
%TO.C,U9*%
X194565000Y-78435000D03*
X194565000Y-79705000D03*
X194565000Y-80975000D03*
X194565000Y-82245000D03*
X194565000Y-83515000D03*
X194565000Y-84785000D03*
X194565000Y-86055000D03*
X194565000Y-87325000D03*
X199515000Y-87325000D03*
X199515000Y-86055000D03*
X199515000Y-84785000D03*
X199515000Y-83515000D03*
X199515000Y-82245000D03*
X199515000Y-80975000D03*
X199515000Y-79705000D03*
X199515000Y-78435000D03*
%TD*%
D30*
%TO.C,Q1.3*%
X174750000Y-80495000D03*
X176650000Y-80495000D03*
X175700000Y-78620000D03*
%TD*%
D20*
%TO.C,C3.2*%
X180170000Y-102630000D03*
X182245000Y-102630000D03*
%TD*%
D17*
%TO.C,R2*%
X174500000Y-84550000D03*
X176500000Y-84550000D03*
%TD*%
%TO.C,R2.1*%
X152992500Y-105550000D03*
X154992500Y-105550000D03*
%TD*%
%TO.C,R6.10*%
X186760000Y-106820000D03*
X188760000Y-106820000D03*
%TD*%
D20*
%TO.C,C6.1*%
X194687500Y-95300000D03*
X196762500Y-95300000D03*
%TD*%
D16*
%TO.C,R9.4*%
X206400000Y-76490000D03*
X204400000Y-76490000D03*
%TD*%
D17*
%TO.C,R6.2*%
X206682500Y-92630000D03*
X208682500Y-92630000D03*
%TD*%
D16*
%TO.C,R4*%
X161220000Y-84750000D03*
X159220000Y-84750000D03*
%TD*%
D17*
%TO.C,R5.5*%
X165550000Y-69950000D03*
X167550000Y-69950000D03*
%TD*%
D31*
%TO.C,C1.1*%
X159250000Y-44000000D03*
X156650000Y-44000000D03*
%TD*%
D16*
%TO.C,R6.3*%
X188840000Y-91740000D03*
X186840000Y-91740000D03*
%TD*%
%TO.C,R3.5*%
X176290000Y-88840000D03*
X174290000Y-88840000D03*
%TD*%
%TO.C,R5.2*%
X167500000Y-77100000D03*
X165500000Y-77100000D03*
%TD*%
%TO.C,R3.3*%
X182237500Y-111050000D03*
X180237500Y-111050000D03*
%TD*%
%TO.C,R6.1*%
X208600000Y-95500000D03*
X206600000Y-95500000D03*
%TD*%
D17*
%TO.C,R6.5*%
X186850000Y-99090000D03*
X188850000Y-99090000D03*
%TD*%
D12*
%TO.C,C5.2*%
X161467500Y-70000000D03*
X159392500Y-70000000D03*
%TD*%
D16*
%TO.C,R5.3*%
X161450000Y-80450000D03*
X159450000Y-80450000D03*
%TD*%
%TO.C,R3*%
X167550000Y-84700000D03*
X165550000Y-84700000D03*
%TD*%
D32*
%TO.C,D1*%
X153050000Y-108150000D03*
X155100000Y-108150000D03*
%TD*%
D17*
%TO.C,R6.6*%
X200410000Y-95400000D03*
X202410000Y-95400000D03*
%TD*%
D16*
%TO.C,R3.4*%
X189040000Y-110700000D03*
X187040000Y-110700000D03*
%TD*%
D12*
%TO.C,C5.1*%
X161467500Y-73300000D03*
X159392500Y-73300000D03*
%TD*%
D33*
%TO.C,U2.1*%
X162280000Y-98390000D03*
X164580000Y-98390000D03*
D34*
X164580000Y-92090000D03*
D33*
X166880000Y-98390000D03*
%TD*%
D16*
%TO.C,R8.3*%
X207450000Y-47000000D03*
X205450000Y-47000000D03*
%TD*%
D17*
%TO.C,R8.6*%
X205475000Y-44250000D03*
X207475000Y-44250000D03*
%TD*%
D16*
%TO.C,R1.2*%
X158825000Y-40750000D03*
X156825000Y-40750000D03*
%TD*%
D30*
%TO.C,Q1.4*%
X179387500Y-80487500D03*
X181287500Y-80487500D03*
X180337500Y-78612500D03*
%TD*%
D16*
%TO.C,R8.1*%
X207575000Y-55000000D03*
X205575000Y-55000000D03*
%TD*%
D12*
%TO.C,C9.2*%
X189157500Y-79600000D03*
X187082500Y-79600000D03*
%TD*%
D20*
%TO.C,C6.2*%
X194625000Y-92510000D03*
X196700000Y-92510000D03*
%TD*%
D16*
%TO.C,R3.2*%
X175897500Y-106630000D03*
X173897500Y-106630000D03*
%TD*%
D17*
%TO.C,R8.4*%
X205500000Y-57500000D03*
X207500000Y-57500000D03*
%TD*%
D12*
%TO.C,C1.2*%
X159187500Y-47000000D03*
X157112500Y-47000000D03*
%TD*%
D35*
%TO.C,D2*%
X158850000Y-37750000D03*
X156800000Y-37750000D03*
%TD*%
D12*
%TO.C,C8.2*%
X201287500Y-47000000D03*
X199212500Y-47000000D03*
%TD*%
%TO.C,C1.3*%
X159312500Y-53000000D03*
X157237500Y-53000000D03*
%TD*%
D16*
%TO.C,R9.2*%
X206420000Y-80750000D03*
X204420000Y-80750000D03*
%TD*%
%TO.C,R6.7*%
X188840000Y-94940000D03*
X186840000Y-94940000D03*
%TD*%
%TO.C,R4.1*%
X162450000Y-102650000D03*
X160450000Y-102650000D03*
%TD*%
%TO.C,R9.6*%
X206480000Y-84350000D03*
X204480000Y-84350000D03*
%TD*%
M02*
