%TF.GenerationSoftware,KiCad,Pcbnew,9.0.0*%
%TF.CreationDate,2025-05-27T09:12:42+07:00*%
%TF.ProjectId,robottttttttt,726f626f-7474-4747-9474-747474742e6b,rev?*%
%TF.SameCoordinates,Original*%
%TF.FileFunction,Soldermask,Top*%
%TF.FilePolarity,Negative*%
%FSLAX46Y46*%
G04 Gerber Fmt 4.6, Leading zero omitted, Abs format (unit mm)*
G04 Created by KiCad (PCBNEW 9.0.0) date 2025-05-27 09:12:42*
%MOMM*%
%LPD*%
G01*
G04 APERTURE LIST*
G04 Aperture macros list*
%AMRoundRect*
0 Rectangle with rounded corners*
0 $1 Rounding radius*
0 $2 $3 $4 $5 $6 $7 $8 $9 X,Y pos of 4 corners*
0 Add a 4 corners polygon primitive as box body*
4,1,4,$2,$3,$4,$5,$6,$7,$8,$9,$2,$3,0*
0 Add four circle primitives for the rounded corners*
1,1,$1+$1,$2,$3*
1,1,$1+$1,$4,$5*
1,1,$1+$1,$6,$7*
1,1,$1+$1,$8,$9*
0 Add four rect primitives between the rounded corners*
20,1,$1+$1,$2,$3,$4,$5,0*
20,1,$1+$1,$4,$5,$6,$7,0*
20,1,$1+$1,$6,$7,$8,$9,0*
20,1,$1+$1,$8,$9,$2,$3,0*%
G04 Aperture macros list end*
%ADD10C,0.010000*%
%ADD11RoundRect,0.190500X-0.816500X-0.571500X0.816500X-0.571500X0.816500X0.571500X-0.816500X0.571500X0*%
%ADD12RoundRect,0.250000X0.337500X0.475000X-0.337500X0.475000X-0.337500X-0.475000X0.337500X-0.475000X0*%
%ADD13RoundRect,0.102000X-1.000000X-0.450000X1.000000X-0.450000X1.000000X0.450000X-1.000000X0.450000X0*%
%ADD14RoundRect,0.102000X-0.450000X-1.000000X0.450000X-1.000000X0.450000X1.000000X-0.450000X1.000000X0*%
%ADD15RoundRect,0.102000X-0.665000X-0.665000X0.665000X-0.665000X0.665000X0.665000X-0.665000X0.665000X0*%
%ADD16C,0.504000*%
%ADD17RoundRect,0.250000X0.350000X0.450000X-0.350000X0.450000X-0.350000X-0.450000X0.350000X-0.450000X0*%
%ADD18RoundRect,0.250000X-0.350000X-0.450000X0.350000X-0.450000X0.350000X0.450000X-0.350000X0.450000X0*%
%ADD19RoundRect,0.102000X-0.901700X-0.266700X0.901700X-0.266700X0.901700X0.266700X-0.901700X0.266700X0*%
%ADD20RoundRect,0.250000X-0.250000X-0.250000X0.250000X-0.250000X0.250000X0.250000X-0.250000X0.250000X0*%
%ADD21RoundRect,0.250000X-0.337500X-0.475000X0.337500X-0.475000X0.337500X0.475000X-0.337500X0.475000X0*%
%ADD22O,1.604000X2.704000*%
%ADD23C,3.250000*%
%ADD24O,1.404000X1.604000*%
%ADD25O,1.204000X1.504000*%
%ADD26C,0.650000*%
%ADD27R,0.600000X1.450000*%
%ADD28R,0.300000X1.450000*%
%ADD29O,1.000000X2.100000*%
%ADD30O,1.000000X1.600000*%
%ADD31RoundRect,0.102000X0.135000X-0.495000X0.135000X0.495000X-0.135000X0.495000X-0.135000X-0.495000X0*%
%ADD32RoundRect,0.102000X0.495000X-0.135000X0.495000X0.135000X-0.495000X0.135000X-0.495000X-0.135000X0*%
%ADD33RoundRect,0.102000X1.625000X-1.625000X1.625000X1.625000X-1.625000X1.625000X-1.625000X-1.625000X0*%
%ADD34C,1.000000*%
%ADD35RoundRect,0.102000X-0.350000X-0.800000X0.350000X-0.800000X0.350000X0.800000X-0.350000X0.800000X0*%
%ADD36RoundRect,0.102000X-0.600000X-0.900000X0.600000X-0.900000X0.600000X0.900000X-0.600000X0.900000X0*%
%ADD37RoundRect,0.102000X-0.800000X-0.750000X0.800000X-0.750000X0.800000X0.750000X-0.800000X0.750000X0*%
%ADD38RoundRect,0.102000X-0.600000X-1.100000X0.600000X-1.100000X0.600000X1.100000X-0.600000X1.100000X0*%
%ADD39RoundRect,0.100500X-0.986500X-0.301500X0.986500X-0.301500X0.986500X0.301500X-0.986500X0.301500X0*%
%ADD40RoundRect,0.150000X0.150000X-0.587500X0.150000X0.587500X-0.150000X0.587500X-0.150000X-0.587500X0*%
%ADD41O,1.704000X2.704000*%
%ADD42RoundRect,0.190500X0.816500X0.571500X-0.816500X0.571500X-0.816500X-0.571500X0.816500X-0.571500X0*%
%ADD43O,2.504000X1.704000*%
%ADD44O,2.704000X1.704000*%
%ADD45RoundRect,0.250000X-0.325000X-0.450000X0.325000X-0.450000X0.325000X0.450000X-0.325000X0.450000X0*%
%ADD46RoundRect,0.375000X0.375000X-0.625000X0.375000X0.625000X-0.375000X0.625000X-0.375000X-0.625000X0*%
%ADD47RoundRect,0.500000X1.400000X-0.500000X1.400000X0.500000X-1.400000X0.500000X-1.400000X-0.500000X0*%
%ADD48O,2.604000X1.704000*%
%ADD49O,1.504000X2.704000*%
%ADD50O,1.574000X2.704000*%
%ADD51RoundRect,0.250000X0.325000X0.450000X-0.325000X0.450000X-0.325000X-0.450000X0.325000X-0.450000X0*%
G04 APERTURE END LIST*
D10*
%TO.C,JUMPBT1*%
X177755000Y-67360000D02*
X177795000Y-67369000D01*
X177833000Y-67379000D01*
X177871000Y-67391000D01*
X177908000Y-67404000D01*
X177944000Y-67420000D01*
X177979000Y-67437000D01*
X178014000Y-67455000D01*
X178048000Y-67475000D01*
X178081000Y-67497000D01*
X178113000Y-67520000D01*
X178143000Y-67545000D01*
X178173000Y-67571000D01*
X178201000Y-67598000D01*
X178229000Y-67627000D01*
X178254000Y-67656000D01*
X178279000Y-67687000D01*
X178302000Y-67719000D01*
X178323000Y-67752000D01*
X178343000Y-67787000D01*
X178361000Y-67821000D01*
X178378000Y-67857000D01*
X178393000Y-67893000D01*
X178406000Y-67931000D01*
X178418000Y-67968000D01*
X178427000Y-68006000D01*
X178436000Y-68045000D01*
X178442000Y-68084000D01*
X178446000Y-68123000D01*
X178449000Y-68162000D01*
X178450000Y-68200000D01*
X178445000Y-68290000D01*
X178431000Y-68379000D01*
X178408000Y-68466000D01*
X178376000Y-68550000D01*
X178335000Y-68630000D01*
X178286000Y-68705000D01*
X178229000Y-68775000D01*
X178165000Y-68839000D01*
X178095000Y-68896000D01*
X178020000Y-68945000D01*
X177940000Y-68986000D01*
X177856000Y-69018000D01*
X177769000Y-69041000D01*
X177680000Y-69055000D01*
X177590000Y-69060000D01*
X177500000Y-69055000D01*
X177411000Y-69041000D01*
X177324000Y-69018000D01*
X177240000Y-68986000D01*
X177160000Y-68945000D01*
X177085000Y-68896000D01*
X177015000Y-68839000D01*
X176951000Y-68775000D01*
X176894000Y-68705000D01*
X176845000Y-68630000D01*
X176804000Y-68550000D01*
X176772000Y-68466000D01*
X176749000Y-68379000D01*
X176735000Y-68290000D01*
X176730000Y-68200000D01*
X176731000Y-68162000D01*
X176734000Y-68123000D01*
X176738000Y-68084000D01*
X176744000Y-68045000D01*
X176753000Y-68006000D01*
X176762000Y-67968000D01*
X176774000Y-67931000D01*
X176787000Y-67893000D01*
X176802000Y-67857000D01*
X176819000Y-67821000D01*
X176837000Y-67787000D01*
X176857000Y-67752000D01*
X176878000Y-67719000D01*
X176901000Y-67687000D01*
X176926000Y-67656000D01*
X176951000Y-67627000D01*
X176979000Y-67598000D01*
X177007000Y-67571000D01*
X177037000Y-67545000D01*
X177067000Y-67520000D01*
X177099000Y-67497000D01*
X177132000Y-67475000D01*
X177166000Y-67455000D01*
X177201000Y-67437000D01*
X177236000Y-67420000D01*
X177272000Y-67404000D01*
X177309000Y-67391000D01*
X177347000Y-67379000D01*
X177385000Y-67369000D01*
X177425000Y-67360000D01*
X177425000Y-66570000D01*
X177755000Y-66570000D01*
X177755000Y-67360000D01*
G36*
X177755000Y-67360000D02*
G01*
X177795000Y-67369000D01*
X177833000Y-67379000D01*
X177871000Y-67391000D01*
X177908000Y-67404000D01*
X177944000Y-67420000D01*
X177979000Y-67437000D01*
X178014000Y-67455000D01*
X178048000Y-67475000D01*
X178081000Y-67497000D01*
X178113000Y-67520000D01*
X178143000Y-67545000D01*
X178173000Y-67571000D01*
X178201000Y-67598000D01*
X178229000Y-67627000D01*
X178254000Y-67656000D01*
X178279000Y-67687000D01*
X178302000Y-67719000D01*
X178323000Y-67752000D01*
X178343000Y-67787000D01*
X178361000Y-67821000D01*
X178378000Y-67857000D01*
X178393000Y-67893000D01*
X178406000Y-67931000D01*
X178418000Y-67968000D01*
X178427000Y-68006000D01*
X178436000Y-68045000D01*
X178442000Y-68084000D01*
X178446000Y-68123000D01*
X178449000Y-68162000D01*
X178450000Y-68200000D01*
X178445000Y-68290000D01*
X178431000Y-68379000D01*
X178408000Y-68466000D01*
X178376000Y-68550000D01*
X178335000Y-68630000D01*
X178286000Y-68705000D01*
X178229000Y-68775000D01*
X178165000Y-68839000D01*
X178095000Y-68896000D01*
X178020000Y-68945000D01*
X177940000Y-68986000D01*
X177856000Y-69018000D01*
X177769000Y-69041000D01*
X177680000Y-69055000D01*
X177590000Y-69060000D01*
X177500000Y-69055000D01*
X177411000Y-69041000D01*
X177324000Y-69018000D01*
X177240000Y-68986000D01*
X177160000Y-68945000D01*
X177085000Y-68896000D01*
X177015000Y-68839000D01*
X176951000Y-68775000D01*
X176894000Y-68705000D01*
X176845000Y-68630000D01*
X176804000Y-68550000D01*
X176772000Y-68466000D01*
X176749000Y-68379000D01*
X176735000Y-68290000D01*
X176730000Y-68200000D01*
X176731000Y-68162000D01*
X176734000Y-68123000D01*
X176738000Y-68084000D01*
X176744000Y-68045000D01*
X176753000Y-68006000D01*
X176762000Y-67968000D01*
X176774000Y-67931000D01*
X176787000Y-67893000D01*
X176802000Y-67857000D01*
X176819000Y-67821000D01*
X176837000Y-67787000D01*
X176857000Y-67752000D01*
X176878000Y-67719000D01*
X176901000Y-67687000D01*
X176926000Y-67656000D01*
X176951000Y-67627000D01*
X176979000Y-67598000D01*
X177007000Y-67571000D01*
X177037000Y-67545000D01*
X177067000Y-67520000D01*
X177099000Y-67497000D01*
X177132000Y-67475000D01*
X177166000Y-67455000D01*
X177201000Y-67437000D01*
X177236000Y-67420000D01*
X177272000Y-67404000D01*
X177309000Y-67391000D01*
X177347000Y-67379000D01*
X177385000Y-67369000D01*
X177425000Y-67360000D01*
X177425000Y-66570000D01*
X177755000Y-66570000D01*
X177755000Y-67360000D01*
G37*
X180295000Y-67360000D02*
X180335000Y-67369000D01*
X180373000Y-67379000D01*
X180411000Y-67391000D01*
X180448000Y-67404000D01*
X180484000Y-67420000D01*
X180519000Y-67437000D01*
X180554000Y-67455000D01*
X180588000Y-67475000D01*
X180621000Y-67497000D01*
X180653000Y-67520000D01*
X180683000Y-67545000D01*
X180713000Y-67571000D01*
X180741000Y-67598000D01*
X180769000Y-67627000D01*
X180794000Y-67656000D01*
X180819000Y-67687000D01*
X180842000Y-67719000D01*
X180863000Y-67752000D01*
X180883000Y-67787000D01*
X180901000Y-67821000D01*
X180918000Y-67857000D01*
X180933000Y-67893000D01*
X180946000Y-67931000D01*
X180958000Y-67968000D01*
X180967000Y-68006000D01*
X180976000Y-68045000D01*
X180982000Y-68084000D01*
X180986000Y-68123000D01*
X180989000Y-68162000D01*
X180990000Y-68200000D01*
X180985000Y-68290000D01*
X180971000Y-68379000D01*
X180948000Y-68466000D01*
X180916000Y-68550000D01*
X180875000Y-68630000D01*
X180826000Y-68705000D01*
X180769000Y-68775000D01*
X180705000Y-68839000D01*
X180635000Y-68896000D01*
X180560000Y-68945000D01*
X180480000Y-68986000D01*
X180396000Y-69018000D01*
X180309000Y-69041000D01*
X180220000Y-69055000D01*
X180130000Y-69060000D01*
X180040000Y-69055000D01*
X179951000Y-69041000D01*
X179864000Y-69018000D01*
X179780000Y-68986000D01*
X179700000Y-68945000D01*
X179625000Y-68896000D01*
X179555000Y-68839000D01*
X179491000Y-68775000D01*
X179434000Y-68705000D01*
X179385000Y-68630000D01*
X179344000Y-68550000D01*
X179312000Y-68466000D01*
X179289000Y-68379000D01*
X179275000Y-68290000D01*
X179270000Y-68200000D01*
X179271000Y-68162000D01*
X179274000Y-68123000D01*
X179278000Y-68084000D01*
X179284000Y-68045000D01*
X179293000Y-68006000D01*
X179302000Y-67968000D01*
X179314000Y-67931000D01*
X179327000Y-67893000D01*
X179342000Y-67857000D01*
X179359000Y-67821000D01*
X179377000Y-67787000D01*
X179397000Y-67752000D01*
X179418000Y-67719000D01*
X179441000Y-67687000D01*
X179466000Y-67656000D01*
X179491000Y-67627000D01*
X179519000Y-67598000D01*
X179547000Y-67571000D01*
X179577000Y-67545000D01*
X179607000Y-67520000D01*
X179639000Y-67497000D01*
X179672000Y-67475000D01*
X179706000Y-67455000D01*
X179741000Y-67437000D01*
X179776000Y-67420000D01*
X179812000Y-67404000D01*
X179849000Y-67391000D01*
X179887000Y-67379000D01*
X179925000Y-67369000D01*
X179965000Y-67360000D01*
X179965000Y-66570000D01*
X180295000Y-66570000D01*
X180295000Y-67360000D01*
G36*
X180295000Y-67360000D02*
G01*
X180335000Y-67369000D01*
X180373000Y-67379000D01*
X180411000Y-67391000D01*
X180448000Y-67404000D01*
X180484000Y-67420000D01*
X180519000Y-67437000D01*
X180554000Y-67455000D01*
X180588000Y-67475000D01*
X180621000Y-67497000D01*
X180653000Y-67520000D01*
X180683000Y-67545000D01*
X180713000Y-67571000D01*
X180741000Y-67598000D01*
X180769000Y-67627000D01*
X180794000Y-67656000D01*
X180819000Y-67687000D01*
X180842000Y-67719000D01*
X180863000Y-67752000D01*
X180883000Y-67787000D01*
X180901000Y-67821000D01*
X180918000Y-67857000D01*
X180933000Y-67893000D01*
X180946000Y-67931000D01*
X180958000Y-67968000D01*
X180967000Y-68006000D01*
X180976000Y-68045000D01*
X180982000Y-68084000D01*
X180986000Y-68123000D01*
X180989000Y-68162000D01*
X180990000Y-68200000D01*
X180985000Y-68290000D01*
X180971000Y-68379000D01*
X180948000Y-68466000D01*
X180916000Y-68550000D01*
X180875000Y-68630000D01*
X180826000Y-68705000D01*
X180769000Y-68775000D01*
X180705000Y-68839000D01*
X180635000Y-68896000D01*
X180560000Y-68945000D01*
X180480000Y-68986000D01*
X180396000Y-69018000D01*
X180309000Y-69041000D01*
X180220000Y-69055000D01*
X180130000Y-69060000D01*
X180040000Y-69055000D01*
X179951000Y-69041000D01*
X179864000Y-69018000D01*
X179780000Y-68986000D01*
X179700000Y-68945000D01*
X179625000Y-68896000D01*
X179555000Y-68839000D01*
X179491000Y-68775000D01*
X179434000Y-68705000D01*
X179385000Y-68630000D01*
X179344000Y-68550000D01*
X179312000Y-68466000D01*
X179289000Y-68379000D01*
X179275000Y-68290000D01*
X179270000Y-68200000D01*
X179271000Y-68162000D01*
X179274000Y-68123000D01*
X179278000Y-68084000D01*
X179284000Y-68045000D01*
X179293000Y-68006000D01*
X179302000Y-67968000D01*
X179314000Y-67931000D01*
X179327000Y-67893000D01*
X179342000Y-67857000D01*
X179359000Y-67821000D01*
X179377000Y-67787000D01*
X179397000Y-67752000D01*
X179418000Y-67719000D01*
X179441000Y-67687000D01*
X179466000Y-67656000D01*
X179491000Y-67627000D01*
X179519000Y-67598000D01*
X179547000Y-67571000D01*
X179577000Y-67545000D01*
X179607000Y-67520000D01*
X179639000Y-67497000D01*
X179672000Y-67475000D01*
X179706000Y-67455000D01*
X179741000Y-67437000D01*
X179776000Y-67420000D01*
X179812000Y-67404000D01*
X179849000Y-67391000D01*
X179887000Y-67379000D01*
X179925000Y-67369000D01*
X179965000Y-67360000D01*
X179965000Y-66570000D01*
X180295000Y-66570000D01*
X180295000Y-67360000D01*
G37*
X182835000Y-67360000D02*
X182875000Y-67369000D01*
X182913000Y-67379000D01*
X182951000Y-67391000D01*
X182988000Y-67404000D01*
X183024000Y-67420000D01*
X183059000Y-67437000D01*
X183094000Y-67455000D01*
X183128000Y-67475000D01*
X183161000Y-67497000D01*
X183193000Y-67520000D01*
X183223000Y-67545000D01*
X183253000Y-67571000D01*
X183281000Y-67598000D01*
X183309000Y-67627000D01*
X183334000Y-67656000D01*
X183359000Y-67687000D01*
X183382000Y-67719000D01*
X183403000Y-67752000D01*
X183423000Y-67787000D01*
X183441000Y-67821000D01*
X183458000Y-67857000D01*
X183473000Y-67893000D01*
X183486000Y-67931000D01*
X183498000Y-67968000D01*
X183507000Y-68006000D01*
X183516000Y-68045000D01*
X183522000Y-68084000D01*
X183526000Y-68123000D01*
X183529000Y-68162000D01*
X183530000Y-68200000D01*
X183525000Y-68290000D01*
X183511000Y-68379000D01*
X183488000Y-68466000D01*
X183456000Y-68550000D01*
X183415000Y-68630000D01*
X183366000Y-68705000D01*
X183309000Y-68775000D01*
X183245000Y-68839000D01*
X183175000Y-68896000D01*
X183100000Y-68945000D01*
X183020000Y-68986000D01*
X182936000Y-69018000D01*
X182849000Y-69041000D01*
X182760000Y-69055000D01*
X182670000Y-69060000D01*
X182580000Y-69055000D01*
X182491000Y-69041000D01*
X182404000Y-69018000D01*
X182320000Y-68986000D01*
X182240000Y-68945000D01*
X182165000Y-68896000D01*
X182095000Y-68839000D01*
X182031000Y-68775000D01*
X181974000Y-68705000D01*
X181925000Y-68630000D01*
X181884000Y-68550000D01*
X181852000Y-68466000D01*
X181829000Y-68379000D01*
X181815000Y-68290000D01*
X181810000Y-68200000D01*
X181811000Y-68162000D01*
X181814000Y-68123000D01*
X181818000Y-68084000D01*
X181824000Y-68045000D01*
X181833000Y-68006000D01*
X181842000Y-67968000D01*
X181854000Y-67931000D01*
X181867000Y-67893000D01*
X181882000Y-67857000D01*
X181899000Y-67821000D01*
X181917000Y-67787000D01*
X181937000Y-67752000D01*
X181958000Y-67719000D01*
X181981000Y-67687000D01*
X182006000Y-67656000D01*
X182031000Y-67627000D01*
X182059000Y-67598000D01*
X182087000Y-67571000D01*
X182117000Y-67545000D01*
X182147000Y-67520000D01*
X182179000Y-67497000D01*
X182212000Y-67475000D01*
X182246000Y-67455000D01*
X182281000Y-67437000D01*
X182316000Y-67420000D01*
X182352000Y-67404000D01*
X182389000Y-67391000D01*
X182427000Y-67379000D01*
X182465000Y-67369000D01*
X182505000Y-67360000D01*
X182505000Y-66570000D01*
X182835000Y-66570000D01*
X182835000Y-67360000D01*
G36*
X182835000Y-67360000D02*
G01*
X182875000Y-67369000D01*
X182913000Y-67379000D01*
X182951000Y-67391000D01*
X182988000Y-67404000D01*
X183024000Y-67420000D01*
X183059000Y-67437000D01*
X183094000Y-67455000D01*
X183128000Y-67475000D01*
X183161000Y-67497000D01*
X183193000Y-67520000D01*
X183223000Y-67545000D01*
X183253000Y-67571000D01*
X183281000Y-67598000D01*
X183309000Y-67627000D01*
X183334000Y-67656000D01*
X183359000Y-67687000D01*
X183382000Y-67719000D01*
X183403000Y-67752000D01*
X183423000Y-67787000D01*
X183441000Y-67821000D01*
X183458000Y-67857000D01*
X183473000Y-67893000D01*
X183486000Y-67931000D01*
X183498000Y-67968000D01*
X183507000Y-68006000D01*
X183516000Y-68045000D01*
X183522000Y-68084000D01*
X183526000Y-68123000D01*
X183529000Y-68162000D01*
X183530000Y-68200000D01*
X183525000Y-68290000D01*
X183511000Y-68379000D01*
X183488000Y-68466000D01*
X183456000Y-68550000D01*
X183415000Y-68630000D01*
X183366000Y-68705000D01*
X183309000Y-68775000D01*
X183245000Y-68839000D01*
X183175000Y-68896000D01*
X183100000Y-68945000D01*
X183020000Y-68986000D01*
X182936000Y-69018000D01*
X182849000Y-69041000D01*
X182760000Y-69055000D01*
X182670000Y-69060000D01*
X182580000Y-69055000D01*
X182491000Y-69041000D01*
X182404000Y-69018000D01*
X182320000Y-68986000D01*
X182240000Y-68945000D01*
X182165000Y-68896000D01*
X182095000Y-68839000D01*
X182031000Y-68775000D01*
X181974000Y-68705000D01*
X181925000Y-68630000D01*
X181884000Y-68550000D01*
X181852000Y-68466000D01*
X181829000Y-68379000D01*
X181815000Y-68290000D01*
X181810000Y-68200000D01*
X181811000Y-68162000D01*
X181814000Y-68123000D01*
X181818000Y-68084000D01*
X181824000Y-68045000D01*
X181833000Y-68006000D01*
X181842000Y-67968000D01*
X181854000Y-67931000D01*
X181867000Y-67893000D01*
X181882000Y-67857000D01*
X181899000Y-67821000D01*
X181917000Y-67787000D01*
X181937000Y-67752000D01*
X181958000Y-67719000D01*
X181981000Y-67687000D01*
X182006000Y-67656000D01*
X182031000Y-67627000D01*
X182059000Y-67598000D01*
X182087000Y-67571000D01*
X182117000Y-67545000D01*
X182147000Y-67520000D01*
X182179000Y-67497000D01*
X182212000Y-67475000D01*
X182246000Y-67455000D01*
X182281000Y-67437000D01*
X182316000Y-67420000D01*
X182352000Y-67404000D01*
X182389000Y-67391000D01*
X182427000Y-67379000D01*
X182465000Y-67369000D01*
X182505000Y-67360000D01*
X182505000Y-66570000D01*
X182835000Y-66570000D01*
X182835000Y-67360000D01*
G37*
X185375000Y-67360000D02*
X185415000Y-67369000D01*
X185453000Y-67379000D01*
X185491000Y-67391000D01*
X185528000Y-67404000D01*
X185564000Y-67420000D01*
X185599000Y-67437000D01*
X185634000Y-67455000D01*
X185668000Y-67475000D01*
X185701000Y-67497000D01*
X185733000Y-67520000D01*
X185763000Y-67545000D01*
X185793000Y-67571000D01*
X185821000Y-67598000D01*
X185849000Y-67627000D01*
X185874000Y-67656000D01*
X185899000Y-67687000D01*
X185922000Y-67719000D01*
X185943000Y-67752000D01*
X185963000Y-67787000D01*
X185981000Y-67821000D01*
X185998000Y-67857000D01*
X186013000Y-67893000D01*
X186026000Y-67931000D01*
X186038000Y-67968000D01*
X186047000Y-68006000D01*
X186056000Y-68045000D01*
X186062000Y-68084000D01*
X186066000Y-68123000D01*
X186069000Y-68162000D01*
X186070000Y-68200000D01*
X186065000Y-68290000D01*
X186051000Y-68379000D01*
X186028000Y-68466000D01*
X185996000Y-68550000D01*
X185955000Y-68630000D01*
X185906000Y-68705000D01*
X185849000Y-68775000D01*
X185785000Y-68839000D01*
X185715000Y-68896000D01*
X185640000Y-68945000D01*
X185560000Y-68986000D01*
X185476000Y-69018000D01*
X185389000Y-69041000D01*
X185300000Y-69055000D01*
X185210000Y-69060000D01*
X185120000Y-69055000D01*
X185031000Y-69041000D01*
X184944000Y-69018000D01*
X184860000Y-68986000D01*
X184780000Y-68945000D01*
X184705000Y-68896000D01*
X184635000Y-68839000D01*
X184571000Y-68775000D01*
X184514000Y-68705000D01*
X184465000Y-68630000D01*
X184424000Y-68550000D01*
X184392000Y-68466000D01*
X184369000Y-68379000D01*
X184355000Y-68290000D01*
X184350000Y-68200000D01*
X184351000Y-68162000D01*
X184354000Y-68123000D01*
X184358000Y-68084000D01*
X184364000Y-68045000D01*
X184373000Y-68006000D01*
X184382000Y-67968000D01*
X184394000Y-67931000D01*
X184407000Y-67893000D01*
X184422000Y-67857000D01*
X184439000Y-67821000D01*
X184457000Y-67787000D01*
X184477000Y-67752000D01*
X184498000Y-67719000D01*
X184521000Y-67687000D01*
X184546000Y-67656000D01*
X184571000Y-67627000D01*
X184599000Y-67598000D01*
X184627000Y-67571000D01*
X184657000Y-67545000D01*
X184687000Y-67520000D01*
X184719000Y-67497000D01*
X184752000Y-67475000D01*
X184786000Y-67455000D01*
X184821000Y-67437000D01*
X184856000Y-67420000D01*
X184892000Y-67404000D01*
X184929000Y-67391000D01*
X184967000Y-67379000D01*
X185005000Y-67369000D01*
X185045000Y-67360000D01*
X185045000Y-66570000D01*
X185375000Y-66570000D01*
X185375000Y-67360000D01*
G36*
X185375000Y-67360000D02*
G01*
X185415000Y-67369000D01*
X185453000Y-67379000D01*
X185491000Y-67391000D01*
X185528000Y-67404000D01*
X185564000Y-67420000D01*
X185599000Y-67437000D01*
X185634000Y-67455000D01*
X185668000Y-67475000D01*
X185701000Y-67497000D01*
X185733000Y-67520000D01*
X185763000Y-67545000D01*
X185793000Y-67571000D01*
X185821000Y-67598000D01*
X185849000Y-67627000D01*
X185874000Y-67656000D01*
X185899000Y-67687000D01*
X185922000Y-67719000D01*
X185943000Y-67752000D01*
X185963000Y-67787000D01*
X185981000Y-67821000D01*
X185998000Y-67857000D01*
X186013000Y-67893000D01*
X186026000Y-67931000D01*
X186038000Y-67968000D01*
X186047000Y-68006000D01*
X186056000Y-68045000D01*
X186062000Y-68084000D01*
X186066000Y-68123000D01*
X186069000Y-68162000D01*
X186070000Y-68200000D01*
X186065000Y-68290000D01*
X186051000Y-68379000D01*
X186028000Y-68466000D01*
X185996000Y-68550000D01*
X185955000Y-68630000D01*
X185906000Y-68705000D01*
X185849000Y-68775000D01*
X185785000Y-68839000D01*
X185715000Y-68896000D01*
X185640000Y-68945000D01*
X185560000Y-68986000D01*
X185476000Y-69018000D01*
X185389000Y-69041000D01*
X185300000Y-69055000D01*
X185210000Y-69060000D01*
X185120000Y-69055000D01*
X185031000Y-69041000D01*
X184944000Y-69018000D01*
X184860000Y-68986000D01*
X184780000Y-68945000D01*
X184705000Y-68896000D01*
X184635000Y-68839000D01*
X184571000Y-68775000D01*
X184514000Y-68705000D01*
X184465000Y-68630000D01*
X184424000Y-68550000D01*
X184392000Y-68466000D01*
X184369000Y-68379000D01*
X184355000Y-68290000D01*
X184350000Y-68200000D01*
X184351000Y-68162000D01*
X184354000Y-68123000D01*
X184358000Y-68084000D01*
X184364000Y-68045000D01*
X184373000Y-68006000D01*
X184382000Y-67968000D01*
X184394000Y-67931000D01*
X184407000Y-67893000D01*
X184422000Y-67857000D01*
X184439000Y-67821000D01*
X184457000Y-67787000D01*
X184477000Y-67752000D01*
X184498000Y-67719000D01*
X184521000Y-67687000D01*
X184546000Y-67656000D01*
X184571000Y-67627000D01*
X184599000Y-67598000D01*
X184627000Y-67571000D01*
X184657000Y-67545000D01*
X184687000Y-67520000D01*
X184719000Y-67497000D01*
X184752000Y-67475000D01*
X184786000Y-67455000D01*
X184821000Y-67437000D01*
X184856000Y-67420000D01*
X184892000Y-67404000D01*
X184929000Y-67391000D01*
X184967000Y-67379000D01*
X185005000Y-67369000D01*
X185045000Y-67360000D01*
X185045000Y-66570000D01*
X185375000Y-66570000D01*
X185375000Y-67360000D01*
G37*
X187915000Y-67360000D02*
X187955000Y-67369000D01*
X187993000Y-67379000D01*
X188031000Y-67391000D01*
X188068000Y-67404000D01*
X188104000Y-67420000D01*
X188139000Y-67437000D01*
X188174000Y-67455000D01*
X188208000Y-67475000D01*
X188241000Y-67497000D01*
X188273000Y-67520000D01*
X188303000Y-67545000D01*
X188333000Y-67571000D01*
X188361000Y-67598000D01*
X188389000Y-67627000D01*
X188414000Y-67656000D01*
X188439000Y-67687000D01*
X188462000Y-67719000D01*
X188483000Y-67752000D01*
X188503000Y-67787000D01*
X188521000Y-67821000D01*
X188538000Y-67857000D01*
X188553000Y-67893000D01*
X188566000Y-67931000D01*
X188578000Y-67968000D01*
X188587000Y-68006000D01*
X188596000Y-68045000D01*
X188602000Y-68084000D01*
X188606000Y-68123000D01*
X188609000Y-68162000D01*
X188610000Y-68200000D01*
X188605000Y-68290000D01*
X188591000Y-68379000D01*
X188568000Y-68466000D01*
X188536000Y-68550000D01*
X188495000Y-68630000D01*
X188446000Y-68705000D01*
X188389000Y-68775000D01*
X188325000Y-68839000D01*
X188255000Y-68896000D01*
X188180000Y-68945000D01*
X188100000Y-68986000D01*
X188016000Y-69018000D01*
X187929000Y-69041000D01*
X187840000Y-69055000D01*
X187750000Y-69060000D01*
X187660000Y-69055000D01*
X187571000Y-69041000D01*
X187484000Y-69018000D01*
X187400000Y-68986000D01*
X187320000Y-68945000D01*
X187245000Y-68896000D01*
X187175000Y-68839000D01*
X187111000Y-68775000D01*
X187054000Y-68705000D01*
X187005000Y-68630000D01*
X186964000Y-68550000D01*
X186932000Y-68466000D01*
X186909000Y-68379000D01*
X186895000Y-68290000D01*
X186890000Y-68200000D01*
X186891000Y-68162000D01*
X186894000Y-68123000D01*
X186898000Y-68084000D01*
X186904000Y-68045000D01*
X186913000Y-68006000D01*
X186922000Y-67968000D01*
X186934000Y-67931000D01*
X186947000Y-67893000D01*
X186962000Y-67857000D01*
X186979000Y-67821000D01*
X186997000Y-67787000D01*
X187017000Y-67752000D01*
X187038000Y-67719000D01*
X187061000Y-67687000D01*
X187086000Y-67656000D01*
X187111000Y-67627000D01*
X187139000Y-67598000D01*
X187167000Y-67571000D01*
X187197000Y-67545000D01*
X187227000Y-67520000D01*
X187259000Y-67497000D01*
X187292000Y-67475000D01*
X187326000Y-67455000D01*
X187361000Y-67437000D01*
X187396000Y-67420000D01*
X187432000Y-67404000D01*
X187469000Y-67391000D01*
X187507000Y-67379000D01*
X187545000Y-67369000D01*
X187585000Y-67360000D01*
X187585000Y-66570000D01*
X187915000Y-66570000D01*
X187915000Y-67360000D01*
G36*
X187915000Y-67360000D02*
G01*
X187955000Y-67369000D01*
X187993000Y-67379000D01*
X188031000Y-67391000D01*
X188068000Y-67404000D01*
X188104000Y-67420000D01*
X188139000Y-67437000D01*
X188174000Y-67455000D01*
X188208000Y-67475000D01*
X188241000Y-67497000D01*
X188273000Y-67520000D01*
X188303000Y-67545000D01*
X188333000Y-67571000D01*
X188361000Y-67598000D01*
X188389000Y-67627000D01*
X188414000Y-67656000D01*
X188439000Y-67687000D01*
X188462000Y-67719000D01*
X188483000Y-67752000D01*
X188503000Y-67787000D01*
X188521000Y-67821000D01*
X188538000Y-67857000D01*
X188553000Y-67893000D01*
X188566000Y-67931000D01*
X188578000Y-67968000D01*
X188587000Y-68006000D01*
X188596000Y-68045000D01*
X188602000Y-68084000D01*
X188606000Y-68123000D01*
X188609000Y-68162000D01*
X188610000Y-68200000D01*
X188605000Y-68290000D01*
X188591000Y-68379000D01*
X188568000Y-68466000D01*
X188536000Y-68550000D01*
X188495000Y-68630000D01*
X188446000Y-68705000D01*
X188389000Y-68775000D01*
X188325000Y-68839000D01*
X188255000Y-68896000D01*
X188180000Y-68945000D01*
X188100000Y-68986000D01*
X188016000Y-69018000D01*
X187929000Y-69041000D01*
X187840000Y-69055000D01*
X187750000Y-69060000D01*
X187660000Y-69055000D01*
X187571000Y-69041000D01*
X187484000Y-69018000D01*
X187400000Y-68986000D01*
X187320000Y-68945000D01*
X187245000Y-68896000D01*
X187175000Y-68839000D01*
X187111000Y-68775000D01*
X187054000Y-68705000D01*
X187005000Y-68630000D01*
X186964000Y-68550000D01*
X186932000Y-68466000D01*
X186909000Y-68379000D01*
X186895000Y-68290000D01*
X186890000Y-68200000D01*
X186891000Y-68162000D01*
X186894000Y-68123000D01*
X186898000Y-68084000D01*
X186904000Y-68045000D01*
X186913000Y-68006000D01*
X186922000Y-67968000D01*
X186934000Y-67931000D01*
X186947000Y-67893000D01*
X186962000Y-67857000D01*
X186979000Y-67821000D01*
X186997000Y-67787000D01*
X187017000Y-67752000D01*
X187038000Y-67719000D01*
X187061000Y-67687000D01*
X187086000Y-67656000D01*
X187111000Y-67627000D01*
X187139000Y-67598000D01*
X187167000Y-67571000D01*
X187197000Y-67545000D01*
X187227000Y-67520000D01*
X187259000Y-67497000D01*
X187292000Y-67475000D01*
X187326000Y-67455000D01*
X187361000Y-67437000D01*
X187396000Y-67420000D01*
X187432000Y-67404000D01*
X187469000Y-67391000D01*
X187507000Y-67379000D01*
X187545000Y-67369000D01*
X187585000Y-67360000D01*
X187585000Y-66570000D01*
X187915000Y-66570000D01*
X187915000Y-67360000D01*
G37*
X190455000Y-67360000D02*
X190495000Y-67369000D01*
X190533000Y-67379000D01*
X190571000Y-67391000D01*
X190608000Y-67404000D01*
X190644000Y-67420000D01*
X190679000Y-67437000D01*
X190714000Y-67455000D01*
X190748000Y-67475000D01*
X190781000Y-67497000D01*
X190813000Y-67520000D01*
X190843000Y-67545000D01*
X190873000Y-67571000D01*
X190901000Y-67598000D01*
X190929000Y-67627000D01*
X190954000Y-67656000D01*
X190979000Y-67687000D01*
X191002000Y-67719000D01*
X191023000Y-67752000D01*
X191043000Y-67787000D01*
X191061000Y-67821000D01*
X191078000Y-67857000D01*
X191093000Y-67893000D01*
X191106000Y-67931000D01*
X191118000Y-67968000D01*
X191127000Y-68006000D01*
X191136000Y-68045000D01*
X191142000Y-68084000D01*
X191146000Y-68123000D01*
X191149000Y-68162000D01*
X191150000Y-68200000D01*
X191145000Y-68290000D01*
X191131000Y-68379000D01*
X191108000Y-68466000D01*
X191076000Y-68550000D01*
X191035000Y-68630000D01*
X190986000Y-68705000D01*
X190929000Y-68775000D01*
X190865000Y-68839000D01*
X190795000Y-68896000D01*
X190720000Y-68945000D01*
X190640000Y-68986000D01*
X190556000Y-69018000D01*
X190469000Y-69041000D01*
X190380000Y-69055000D01*
X190290000Y-69060000D01*
X190200000Y-69055000D01*
X190111000Y-69041000D01*
X190024000Y-69018000D01*
X189940000Y-68986000D01*
X189860000Y-68945000D01*
X189785000Y-68896000D01*
X189715000Y-68839000D01*
X189651000Y-68775000D01*
X189594000Y-68705000D01*
X189545000Y-68630000D01*
X189504000Y-68550000D01*
X189472000Y-68466000D01*
X189449000Y-68379000D01*
X189435000Y-68290000D01*
X189430000Y-68200000D01*
X189431000Y-68162000D01*
X189434000Y-68123000D01*
X189438000Y-68084000D01*
X189444000Y-68045000D01*
X189453000Y-68006000D01*
X189462000Y-67968000D01*
X189474000Y-67931000D01*
X189487000Y-67893000D01*
X189502000Y-67857000D01*
X189519000Y-67821000D01*
X189537000Y-67787000D01*
X189557000Y-67752000D01*
X189578000Y-67719000D01*
X189601000Y-67687000D01*
X189626000Y-67656000D01*
X189651000Y-67627000D01*
X189679000Y-67598000D01*
X189707000Y-67571000D01*
X189737000Y-67545000D01*
X189767000Y-67520000D01*
X189799000Y-67497000D01*
X189832000Y-67475000D01*
X189866000Y-67455000D01*
X189901000Y-67437000D01*
X189936000Y-67420000D01*
X189972000Y-67404000D01*
X190009000Y-67391000D01*
X190047000Y-67379000D01*
X190085000Y-67369000D01*
X190125000Y-67360000D01*
X190125000Y-66570000D01*
X190455000Y-66570000D01*
X190455000Y-67360000D01*
G36*
X190455000Y-67360000D02*
G01*
X190495000Y-67369000D01*
X190533000Y-67379000D01*
X190571000Y-67391000D01*
X190608000Y-67404000D01*
X190644000Y-67420000D01*
X190679000Y-67437000D01*
X190714000Y-67455000D01*
X190748000Y-67475000D01*
X190781000Y-67497000D01*
X190813000Y-67520000D01*
X190843000Y-67545000D01*
X190873000Y-67571000D01*
X190901000Y-67598000D01*
X190929000Y-67627000D01*
X190954000Y-67656000D01*
X190979000Y-67687000D01*
X191002000Y-67719000D01*
X191023000Y-67752000D01*
X191043000Y-67787000D01*
X191061000Y-67821000D01*
X191078000Y-67857000D01*
X191093000Y-67893000D01*
X191106000Y-67931000D01*
X191118000Y-67968000D01*
X191127000Y-68006000D01*
X191136000Y-68045000D01*
X191142000Y-68084000D01*
X191146000Y-68123000D01*
X191149000Y-68162000D01*
X191150000Y-68200000D01*
X191145000Y-68290000D01*
X191131000Y-68379000D01*
X191108000Y-68466000D01*
X191076000Y-68550000D01*
X191035000Y-68630000D01*
X190986000Y-68705000D01*
X190929000Y-68775000D01*
X190865000Y-68839000D01*
X190795000Y-68896000D01*
X190720000Y-68945000D01*
X190640000Y-68986000D01*
X190556000Y-69018000D01*
X190469000Y-69041000D01*
X190380000Y-69055000D01*
X190290000Y-69060000D01*
X190200000Y-69055000D01*
X190111000Y-69041000D01*
X190024000Y-69018000D01*
X189940000Y-68986000D01*
X189860000Y-68945000D01*
X189785000Y-68896000D01*
X189715000Y-68839000D01*
X189651000Y-68775000D01*
X189594000Y-68705000D01*
X189545000Y-68630000D01*
X189504000Y-68550000D01*
X189472000Y-68466000D01*
X189449000Y-68379000D01*
X189435000Y-68290000D01*
X189430000Y-68200000D01*
X189431000Y-68162000D01*
X189434000Y-68123000D01*
X189438000Y-68084000D01*
X189444000Y-68045000D01*
X189453000Y-68006000D01*
X189462000Y-67968000D01*
X189474000Y-67931000D01*
X189487000Y-67893000D01*
X189502000Y-67857000D01*
X189519000Y-67821000D01*
X189537000Y-67787000D01*
X189557000Y-67752000D01*
X189578000Y-67719000D01*
X189601000Y-67687000D01*
X189626000Y-67656000D01*
X189651000Y-67627000D01*
X189679000Y-67598000D01*
X189707000Y-67571000D01*
X189737000Y-67545000D01*
X189767000Y-67520000D01*
X189799000Y-67497000D01*
X189832000Y-67475000D01*
X189866000Y-67455000D01*
X189901000Y-67437000D01*
X189936000Y-67420000D01*
X189972000Y-67404000D01*
X190009000Y-67391000D01*
X190047000Y-67379000D01*
X190085000Y-67369000D01*
X190125000Y-67360000D01*
X190125000Y-66570000D01*
X190455000Y-66570000D01*
X190455000Y-67360000D01*
G37*
X192995000Y-67360000D02*
X193035000Y-67369000D01*
X193073000Y-67379000D01*
X193111000Y-67391000D01*
X193148000Y-67404000D01*
X193184000Y-67420000D01*
X193219000Y-67437000D01*
X193254000Y-67455000D01*
X193288000Y-67475000D01*
X193321000Y-67497000D01*
X193353000Y-67520000D01*
X193383000Y-67545000D01*
X193413000Y-67571000D01*
X193441000Y-67598000D01*
X193469000Y-67627000D01*
X193494000Y-67656000D01*
X193519000Y-67687000D01*
X193542000Y-67719000D01*
X193563000Y-67752000D01*
X193583000Y-67787000D01*
X193601000Y-67821000D01*
X193618000Y-67857000D01*
X193633000Y-67893000D01*
X193646000Y-67931000D01*
X193658000Y-67968000D01*
X193667000Y-68006000D01*
X193676000Y-68045000D01*
X193682000Y-68084000D01*
X193686000Y-68123000D01*
X193689000Y-68162000D01*
X193690000Y-68200000D01*
X193685000Y-68290000D01*
X193671000Y-68379000D01*
X193648000Y-68466000D01*
X193616000Y-68550000D01*
X193575000Y-68630000D01*
X193526000Y-68705000D01*
X193469000Y-68775000D01*
X193405000Y-68839000D01*
X193335000Y-68896000D01*
X193260000Y-68945000D01*
X193180000Y-68986000D01*
X193096000Y-69018000D01*
X193009000Y-69041000D01*
X192920000Y-69055000D01*
X192830000Y-69060000D01*
X192740000Y-69055000D01*
X192651000Y-69041000D01*
X192564000Y-69018000D01*
X192480000Y-68986000D01*
X192400000Y-68945000D01*
X192325000Y-68896000D01*
X192255000Y-68839000D01*
X192191000Y-68775000D01*
X192134000Y-68705000D01*
X192085000Y-68630000D01*
X192044000Y-68550000D01*
X192012000Y-68466000D01*
X191989000Y-68379000D01*
X191975000Y-68290000D01*
X191970000Y-68200000D01*
X191971000Y-68162000D01*
X191974000Y-68123000D01*
X191978000Y-68084000D01*
X191984000Y-68045000D01*
X191993000Y-68006000D01*
X192002000Y-67968000D01*
X192014000Y-67931000D01*
X192027000Y-67893000D01*
X192042000Y-67857000D01*
X192059000Y-67821000D01*
X192077000Y-67787000D01*
X192097000Y-67752000D01*
X192118000Y-67719000D01*
X192141000Y-67687000D01*
X192166000Y-67656000D01*
X192191000Y-67627000D01*
X192219000Y-67598000D01*
X192247000Y-67571000D01*
X192277000Y-67545000D01*
X192307000Y-67520000D01*
X192339000Y-67497000D01*
X192372000Y-67475000D01*
X192406000Y-67455000D01*
X192441000Y-67437000D01*
X192476000Y-67420000D01*
X192512000Y-67404000D01*
X192549000Y-67391000D01*
X192587000Y-67379000D01*
X192625000Y-67369000D01*
X192665000Y-67360000D01*
X192665000Y-66570000D01*
X192995000Y-66570000D01*
X192995000Y-67360000D01*
G36*
X192995000Y-67360000D02*
G01*
X193035000Y-67369000D01*
X193073000Y-67379000D01*
X193111000Y-67391000D01*
X193148000Y-67404000D01*
X193184000Y-67420000D01*
X193219000Y-67437000D01*
X193254000Y-67455000D01*
X193288000Y-67475000D01*
X193321000Y-67497000D01*
X193353000Y-67520000D01*
X193383000Y-67545000D01*
X193413000Y-67571000D01*
X193441000Y-67598000D01*
X193469000Y-67627000D01*
X193494000Y-67656000D01*
X193519000Y-67687000D01*
X193542000Y-67719000D01*
X193563000Y-67752000D01*
X193583000Y-67787000D01*
X193601000Y-67821000D01*
X193618000Y-67857000D01*
X193633000Y-67893000D01*
X193646000Y-67931000D01*
X193658000Y-67968000D01*
X193667000Y-68006000D01*
X193676000Y-68045000D01*
X193682000Y-68084000D01*
X193686000Y-68123000D01*
X193689000Y-68162000D01*
X193690000Y-68200000D01*
X193685000Y-68290000D01*
X193671000Y-68379000D01*
X193648000Y-68466000D01*
X193616000Y-68550000D01*
X193575000Y-68630000D01*
X193526000Y-68705000D01*
X193469000Y-68775000D01*
X193405000Y-68839000D01*
X193335000Y-68896000D01*
X193260000Y-68945000D01*
X193180000Y-68986000D01*
X193096000Y-69018000D01*
X193009000Y-69041000D01*
X192920000Y-69055000D01*
X192830000Y-69060000D01*
X192740000Y-69055000D01*
X192651000Y-69041000D01*
X192564000Y-69018000D01*
X192480000Y-68986000D01*
X192400000Y-68945000D01*
X192325000Y-68896000D01*
X192255000Y-68839000D01*
X192191000Y-68775000D01*
X192134000Y-68705000D01*
X192085000Y-68630000D01*
X192044000Y-68550000D01*
X192012000Y-68466000D01*
X191989000Y-68379000D01*
X191975000Y-68290000D01*
X191970000Y-68200000D01*
X191971000Y-68162000D01*
X191974000Y-68123000D01*
X191978000Y-68084000D01*
X191984000Y-68045000D01*
X191993000Y-68006000D01*
X192002000Y-67968000D01*
X192014000Y-67931000D01*
X192027000Y-67893000D01*
X192042000Y-67857000D01*
X192059000Y-67821000D01*
X192077000Y-67787000D01*
X192097000Y-67752000D01*
X192118000Y-67719000D01*
X192141000Y-67687000D01*
X192166000Y-67656000D01*
X192191000Y-67627000D01*
X192219000Y-67598000D01*
X192247000Y-67571000D01*
X192277000Y-67545000D01*
X192307000Y-67520000D01*
X192339000Y-67497000D01*
X192372000Y-67475000D01*
X192406000Y-67455000D01*
X192441000Y-67437000D01*
X192476000Y-67420000D01*
X192512000Y-67404000D01*
X192549000Y-67391000D01*
X192587000Y-67379000D01*
X192625000Y-67369000D01*
X192665000Y-67360000D01*
X192665000Y-66570000D01*
X192995000Y-66570000D01*
X192995000Y-67360000D01*
G37*
%TO.C,LCD1*%
X177750000Y-70685000D02*
X177790000Y-70694000D01*
X177828000Y-70704000D01*
X177866000Y-70716000D01*
X177903000Y-70729000D01*
X177939000Y-70745000D01*
X177974000Y-70762000D01*
X178009000Y-70780000D01*
X178043000Y-70800000D01*
X178076000Y-70822000D01*
X178108000Y-70845000D01*
X178138000Y-70870000D01*
X178168000Y-70896000D01*
X178196000Y-70923000D01*
X178224000Y-70952000D01*
X178249000Y-70981000D01*
X178274000Y-71012000D01*
X178297000Y-71044000D01*
X178318000Y-71077000D01*
X178338000Y-71112000D01*
X178356000Y-71146000D01*
X178373000Y-71182000D01*
X178388000Y-71218000D01*
X178401000Y-71256000D01*
X178413000Y-71293000D01*
X178422000Y-71331000D01*
X178431000Y-71370000D01*
X178437000Y-71409000D01*
X178441000Y-71448000D01*
X178444000Y-71487000D01*
X178445000Y-71525000D01*
X178440000Y-71615000D01*
X178426000Y-71704000D01*
X178403000Y-71791000D01*
X178371000Y-71875000D01*
X178330000Y-71955000D01*
X178281000Y-72030000D01*
X178224000Y-72100000D01*
X178160000Y-72164000D01*
X178090000Y-72221000D01*
X178015000Y-72270000D01*
X177935000Y-72311000D01*
X177851000Y-72343000D01*
X177764000Y-72366000D01*
X177675000Y-72380000D01*
X177585000Y-72385000D01*
X177495000Y-72380000D01*
X177406000Y-72366000D01*
X177319000Y-72343000D01*
X177235000Y-72311000D01*
X177155000Y-72270000D01*
X177080000Y-72221000D01*
X177010000Y-72164000D01*
X176946000Y-72100000D01*
X176889000Y-72030000D01*
X176840000Y-71955000D01*
X176799000Y-71875000D01*
X176767000Y-71791000D01*
X176744000Y-71704000D01*
X176730000Y-71615000D01*
X176725000Y-71525000D01*
X176726000Y-71487000D01*
X176729000Y-71448000D01*
X176733000Y-71409000D01*
X176739000Y-71370000D01*
X176748000Y-71331000D01*
X176757000Y-71293000D01*
X176769000Y-71256000D01*
X176782000Y-71218000D01*
X176797000Y-71182000D01*
X176814000Y-71146000D01*
X176832000Y-71112000D01*
X176852000Y-71077000D01*
X176873000Y-71044000D01*
X176896000Y-71012000D01*
X176921000Y-70981000D01*
X176946000Y-70952000D01*
X176974000Y-70923000D01*
X177002000Y-70896000D01*
X177032000Y-70870000D01*
X177062000Y-70845000D01*
X177094000Y-70822000D01*
X177127000Y-70800000D01*
X177161000Y-70780000D01*
X177196000Y-70762000D01*
X177231000Y-70745000D01*
X177267000Y-70729000D01*
X177304000Y-70716000D01*
X177342000Y-70704000D01*
X177380000Y-70694000D01*
X177420000Y-70685000D01*
X177420000Y-69895000D01*
X177750000Y-69895000D01*
X177750000Y-70685000D01*
G36*
X177750000Y-70685000D02*
G01*
X177790000Y-70694000D01*
X177828000Y-70704000D01*
X177866000Y-70716000D01*
X177903000Y-70729000D01*
X177939000Y-70745000D01*
X177974000Y-70762000D01*
X178009000Y-70780000D01*
X178043000Y-70800000D01*
X178076000Y-70822000D01*
X178108000Y-70845000D01*
X178138000Y-70870000D01*
X178168000Y-70896000D01*
X178196000Y-70923000D01*
X178224000Y-70952000D01*
X178249000Y-70981000D01*
X178274000Y-71012000D01*
X178297000Y-71044000D01*
X178318000Y-71077000D01*
X178338000Y-71112000D01*
X178356000Y-71146000D01*
X178373000Y-71182000D01*
X178388000Y-71218000D01*
X178401000Y-71256000D01*
X178413000Y-71293000D01*
X178422000Y-71331000D01*
X178431000Y-71370000D01*
X178437000Y-71409000D01*
X178441000Y-71448000D01*
X178444000Y-71487000D01*
X178445000Y-71525000D01*
X178440000Y-71615000D01*
X178426000Y-71704000D01*
X178403000Y-71791000D01*
X178371000Y-71875000D01*
X178330000Y-71955000D01*
X178281000Y-72030000D01*
X178224000Y-72100000D01*
X178160000Y-72164000D01*
X178090000Y-72221000D01*
X178015000Y-72270000D01*
X177935000Y-72311000D01*
X177851000Y-72343000D01*
X177764000Y-72366000D01*
X177675000Y-72380000D01*
X177585000Y-72385000D01*
X177495000Y-72380000D01*
X177406000Y-72366000D01*
X177319000Y-72343000D01*
X177235000Y-72311000D01*
X177155000Y-72270000D01*
X177080000Y-72221000D01*
X177010000Y-72164000D01*
X176946000Y-72100000D01*
X176889000Y-72030000D01*
X176840000Y-71955000D01*
X176799000Y-71875000D01*
X176767000Y-71791000D01*
X176744000Y-71704000D01*
X176730000Y-71615000D01*
X176725000Y-71525000D01*
X176726000Y-71487000D01*
X176729000Y-71448000D01*
X176733000Y-71409000D01*
X176739000Y-71370000D01*
X176748000Y-71331000D01*
X176757000Y-71293000D01*
X176769000Y-71256000D01*
X176782000Y-71218000D01*
X176797000Y-71182000D01*
X176814000Y-71146000D01*
X176832000Y-71112000D01*
X176852000Y-71077000D01*
X176873000Y-71044000D01*
X176896000Y-71012000D01*
X176921000Y-70981000D01*
X176946000Y-70952000D01*
X176974000Y-70923000D01*
X177002000Y-70896000D01*
X177032000Y-70870000D01*
X177062000Y-70845000D01*
X177094000Y-70822000D01*
X177127000Y-70800000D01*
X177161000Y-70780000D01*
X177196000Y-70762000D01*
X177231000Y-70745000D01*
X177267000Y-70729000D01*
X177304000Y-70716000D01*
X177342000Y-70704000D01*
X177380000Y-70694000D01*
X177420000Y-70685000D01*
X177420000Y-69895000D01*
X177750000Y-69895000D01*
X177750000Y-70685000D01*
G37*
X180290000Y-70685000D02*
X180330000Y-70694000D01*
X180368000Y-70704000D01*
X180406000Y-70716000D01*
X180443000Y-70729000D01*
X180479000Y-70745000D01*
X180514000Y-70762000D01*
X180549000Y-70780000D01*
X180583000Y-70800000D01*
X180616000Y-70822000D01*
X180648000Y-70845000D01*
X180678000Y-70870000D01*
X180708000Y-70896000D01*
X180736000Y-70923000D01*
X180764000Y-70952000D01*
X180789000Y-70981000D01*
X180814000Y-71012000D01*
X180837000Y-71044000D01*
X180858000Y-71077000D01*
X180878000Y-71112000D01*
X180896000Y-71146000D01*
X180913000Y-71182000D01*
X180928000Y-71218000D01*
X180941000Y-71256000D01*
X180953000Y-71293000D01*
X180962000Y-71331000D01*
X180971000Y-71370000D01*
X180977000Y-71409000D01*
X180981000Y-71448000D01*
X180984000Y-71487000D01*
X180985000Y-71525000D01*
X180980000Y-71615000D01*
X180966000Y-71704000D01*
X180943000Y-71791000D01*
X180911000Y-71875000D01*
X180870000Y-71955000D01*
X180821000Y-72030000D01*
X180764000Y-72100000D01*
X180700000Y-72164000D01*
X180630000Y-72221000D01*
X180555000Y-72270000D01*
X180475000Y-72311000D01*
X180391000Y-72343000D01*
X180304000Y-72366000D01*
X180215000Y-72380000D01*
X180125000Y-72385000D01*
X180035000Y-72380000D01*
X179946000Y-72366000D01*
X179859000Y-72343000D01*
X179775000Y-72311000D01*
X179695000Y-72270000D01*
X179620000Y-72221000D01*
X179550000Y-72164000D01*
X179486000Y-72100000D01*
X179429000Y-72030000D01*
X179380000Y-71955000D01*
X179339000Y-71875000D01*
X179307000Y-71791000D01*
X179284000Y-71704000D01*
X179270000Y-71615000D01*
X179265000Y-71525000D01*
X179266000Y-71487000D01*
X179269000Y-71448000D01*
X179273000Y-71409000D01*
X179279000Y-71370000D01*
X179288000Y-71331000D01*
X179297000Y-71293000D01*
X179309000Y-71256000D01*
X179322000Y-71218000D01*
X179337000Y-71182000D01*
X179354000Y-71146000D01*
X179372000Y-71112000D01*
X179392000Y-71077000D01*
X179413000Y-71044000D01*
X179436000Y-71012000D01*
X179461000Y-70981000D01*
X179486000Y-70952000D01*
X179514000Y-70923000D01*
X179542000Y-70896000D01*
X179572000Y-70870000D01*
X179602000Y-70845000D01*
X179634000Y-70822000D01*
X179667000Y-70800000D01*
X179701000Y-70780000D01*
X179736000Y-70762000D01*
X179771000Y-70745000D01*
X179807000Y-70729000D01*
X179844000Y-70716000D01*
X179882000Y-70704000D01*
X179920000Y-70694000D01*
X179960000Y-70685000D01*
X179960000Y-69895000D01*
X180290000Y-69895000D01*
X180290000Y-70685000D01*
G36*
X180290000Y-70685000D02*
G01*
X180330000Y-70694000D01*
X180368000Y-70704000D01*
X180406000Y-70716000D01*
X180443000Y-70729000D01*
X180479000Y-70745000D01*
X180514000Y-70762000D01*
X180549000Y-70780000D01*
X180583000Y-70800000D01*
X180616000Y-70822000D01*
X180648000Y-70845000D01*
X180678000Y-70870000D01*
X180708000Y-70896000D01*
X180736000Y-70923000D01*
X180764000Y-70952000D01*
X180789000Y-70981000D01*
X180814000Y-71012000D01*
X180837000Y-71044000D01*
X180858000Y-71077000D01*
X180878000Y-71112000D01*
X180896000Y-71146000D01*
X180913000Y-71182000D01*
X180928000Y-71218000D01*
X180941000Y-71256000D01*
X180953000Y-71293000D01*
X180962000Y-71331000D01*
X180971000Y-71370000D01*
X180977000Y-71409000D01*
X180981000Y-71448000D01*
X180984000Y-71487000D01*
X180985000Y-71525000D01*
X180980000Y-71615000D01*
X180966000Y-71704000D01*
X180943000Y-71791000D01*
X180911000Y-71875000D01*
X180870000Y-71955000D01*
X180821000Y-72030000D01*
X180764000Y-72100000D01*
X180700000Y-72164000D01*
X180630000Y-72221000D01*
X180555000Y-72270000D01*
X180475000Y-72311000D01*
X180391000Y-72343000D01*
X180304000Y-72366000D01*
X180215000Y-72380000D01*
X180125000Y-72385000D01*
X180035000Y-72380000D01*
X179946000Y-72366000D01*
X179859000Y-72343000D01*
X179775000Y-72311000D01*
X179695000Y-72270000D01*
X179620000Y-72221000D01*
X179550000Y-72164000D01*
X179486000Y-72100000D01*
X179429000Y-72030000D01*
X179380000Y-71955000D01*
X179339000Y-71875000D01*
X179307000Y-71791000D01*
X179284000Y-71704000D01*
X179270000Y-71615000D01*
X179265000Y-71525000D01*
X179266000Y-71487000D01*
X179269000Y-71448000D01*
X179273000Y-71409000D01*
X179279000Y-71370000D01*
X179288000Y-71331000D01*
X179297000Y-71293000D01*
X179309000Y-71256000D01*
X179322000Y-71218000D01*
X179337000Y-71182000D01*
X179354000Y-71146000D01*
X179372000Y-71112000D01*
X179392000Y-71077000D01*
X179413000Y-71044000D01*
X179436000Y-71012000D01*
X179461000Y-70981000D01*
X179486000Y-70952000D01*
X179514000Y-70923000D01*
X179542000Y-70896000D01*
X179572000Y-70870000D01*
X179602000Y-70845000D01*
X179634000Y-70822000D01*
X179667000Y-70800000D01*
X179701000Y-70780000D01*
X179736000Y-70762000D01*
X179771000Y-70745000D01*
X179807000Y-70729000D01*
X179844000Y-70716000D01*
X179882000Y-70704000D01*
X179920000Y-70694000D01*
X179960000Y-70685000D01*
X179960000Y-69895000D01*
X180290000Y-69895000D01*
X180290000Y-70685000D01*
G37*
X182830000Y-70685000D02*
X182870000Y-70694000D01*
X182908000Y-70704000D01*
X182946000Y-70716000D01*
X182983000Y-70729000D01*
X183019000Y-70745000D01*
X183054000Y-70762000D01*
X183089000Y-70780000D01*
X183123000Y-70800000D01*
X183156000Y-70822000D01*
X183188000Y-70845000D01*
X183218000Y-70870000D01*
X183248000Y-70896000D01*
X183276000Y-70923000D01*
X183304000Y-70952000D01*
X183329000Y-70981000D01*
X183354000Y-71012000D01*
X183377000Y-71044000D01*
X183398000Y-71077000D01*
X183418000Y-71112000D01*
X183436000Y-71146000D01*
X183453000Y-71182000D01*
X183468000Y-71218000D01*
X183481000Y-71256000D01*
X183493000Y-71293000D01*
X183502000Y-71331000D01*
X183511000Y-71370000D01*
X183517000Y-71409000D01*
X183521000Y-71448000D01*
X183524000Y-71487000D01*
X183525000Y-71525000D01*
X183520000Y-71615000D01*
X183506000Y-71704000D01*
X183483000Y-71791000D01*
X183451000Y-71875000D01*
X183410000Y-71955000D01*
X183361000Y-72030000D01*
X183304000Y-72100000D01*
X183240000Y-72164000D01*
X183170000Y-72221000D01*
X183095000Y-72270000D01*
X183015000Y-72311000D01*
X182931000Y-72343000D01*
X182844000Y-72366000D01*
X182755000Y-72380000D01*
X182665000Y-72385000D01*
X182575000Y-72380000D01*
X182486000Y-72366000D01*
X182399000Y-72343000D01*
X182315000Y-72311000D01*
X182235000Y-72270000D01*
X182160000Y-72221000D01*
X182090000Y-72164000D01*
X182026000Y-72100000D01*
X181969000Y-72030000D01*
X181920000Y-71955000D01*
X181879000Y-71875000D01*
X181847000Y-71791000D01*
X181824000Y-71704000D01*
X181810000Y-71615000D01*
X181805000Y-71525000D01*
X181806000Y-71487000D01*
X181809000Y-71448000D01*
X181813000Y-71409000D01*
X181819000Y-71370000D01*
X181828000Y-71331000D01*
X181837000Y-71293000D01*
X181849000Y-71256000D01*
X181862000Y-71218000D01*
X181877000Y-71182000D01*
X181894000Y-71146000D01*
X181912000Y-71112000D01*
X181932000Y-71077000D01*
X181953000Y-71044000D01*
X181976000Y-71012000D01*
X182001000Y-70981000D01*
X182026000Y-70952000D01*
X182054000Y-70923000D01*
X182082000Y-70896000D01*
X182112000Y-70870000D01*
X182142000Y-70845000D01*
X182174000Y-70822000D01*
X182207000Y-70800000D01*
X182241000Y-70780000D01*
X182276000Y-70762000D01*
X182311000Y-70745000D01*
X182347000Y-70729000D01*
X182384000Y-70716000D01*
X182422000Y-70704000D01*
X182460000Y-70694000D01*
X182500000Y-70685000D01*
X182500000Y-69895000D01*
X182830000Y-69895000D01*
X182830000Y-70685000D01*
G36*
X182830000Y-70685000D02*
G01*
X182870000Y-70694000D01*
X182908000Y-70704000D01*
X182946000Y-70716000D01*
X182983000Y-70729000D01*
X183019000Y-70745000D01*
X183054000Y-70762000D01*
X183089000Y-70780000D01*
X183123000Y-70800000D01*
X183156000Y-70822000D01*
X183188000Y-70845000D01*
X183218000Y-70870000D01*
X183248000Y-70896000D01*
X183276000Y-70923000D01*
X183304000Y-70952000D01*
X183329000Y-70981000D01*
X183354000Y-71012000D01*
X183377000Y-71044000D01*
X183398000Y-71077000D01*
X183418000Y-71112000D01*
X183436000Y-71146000D01*
X183453000Y-71182000D01*
X183468000Y-71218000D01*
X183481000Y-71256000D01*
X183493000Y-71293000D01*
X183502000Y-71331000D01*
X183511000Y-71370000D01*
X183517000Y-71409000D01*
X183521000Y-71448000D01*
X183524000Y-71487000D01*
X183525000Y-71525000D01*
X183520000Y-71615000D01*
X183506000Y-71704000D01*
X183483000Y-71791000D01*
X183451000Y-71875000D01*
X183410000Y-71955000D01*
X183361000Y-72030000D01*
X183304000Y-72100000D01*
X183240000Y-72164000D01*
X183170000Y-72221000D01*
X183095000Y-72270000D01*
X183015000Y-72311000D01*
X182931000Y-72343000D01*
X182844000Y-72366000D01*
X182755000Y-72380000D01*
X182665000Y-72385000D01*
X182575000Y-72380000D01*
X182486000Y-72366000D01*
X182399000Y-72343000D01*
X182315000Y-72311000D01*
X182235000Y-72270000D01*
X182160000Y-72221000D01*
X182090000Y-72164000D01*
X182026000Y-72100000D01*
X181969000Y-72030000D01*
X181920000Y-71955000D01*
X181879000Y-71875000D01*
X181847000Y-71791000D01*
X181824000Y-71704000D01*
X181810000Y-71615000D01*
X181805000Y-71525000D01*
X181806000Y-71487000D01*
X181809000Y-71448000D01*
X181813000Y-71409000D01*
X181819000Y-71370000D01*
X181828000Y-71331000D01*
X181837000Y-71293000D01*
X181849000Y-71256000D01*
X181862000Y-71218000D01*
X181877000Y-71182000D01*
X181894000Y-71146000D01*
X181912000Y-71112000D01*
X181932000Y-71077000D01*
X181953000Y-71044000D01*
X181976000Y-71012000D01*
X182001000Y-70981000D01*
X182026000Y-70952000D01*
X182054000Y-70923000D01*
X182082000Y-70896000D01*
X182112000Y-70870000D01*
X182142000Y-70845000D01*
X182174000Y-70822000D01*
X182207000Y-70800000D01*
X182241000Y-70780000D01*
X182276000Y-70762000D01*
X182311000Y-70745000D01*
X182347000Y-70729000D01*
X182384000Y-70716000D01*
X182422000Y-70704000D01*
X182460000Y-70694000D01*
X182500000Y-70685000D01*
X182500000Y-69895000D01*
X182830000Y-69895000D01*
X182830000Y-70685000D01*
G37*
X185370000Y-70685000D02*
X185410000Y-70694000D01*
X185448000Y-70704000D01*
X185486000Y-70716000D01*
X185523000Y-70729000D01*
X185559000Y-70745000D01*
X185594000Y-70762000D01*
X185629000Y-70780000D01*
X185663000Y-70800000D01*
X185696000Y-70822000D01*
X185728000Y-70845000D01*
X185758000Y-70870000D01*
X185788000Y-70896000D01*
X185816000Y-70923000D01*
X185844000Y-70952000D01*
X185869000Y-70981000D01*
X185894000Y-71012000D01*
X185917000Y-71044000D01*
X185938000Y-71077000D01*
X185958000Y-71112000D01*
X185976000Y-71146000D01*
X185993000Y-71182000D01*
X186008000Y-71218000D01*
X186021000Y-71256000D01*
X186033000Y-71293000D01*
X186042000Y-71331000D01*
X186051000Y-71370000D01*
X186057000Y-71409000D01*
X186061000Y-71448000D01*
X186064000Y-71487000D01*
X186065000Y-71525000D01*
X186060000Y-71615000D01*
X186046000Y-71704000D01*
X186023000Y-71791000D01*
X185991000Y-71875000D01*
X185950000Y-71955000D01*
X185901000Y-72030000D01*
X185844000Y-72100000D01*
X185780000Y-72164000D01*
X185710000Y-72221000D01*
X185635000Y-72270000D01*
X185555000Y-72311000D01*
X185471000Y-72343000D01*
X185384000Y-72366000D01*
X185295000Y-72380000D01*
X185205000Y-72385000D01*
X185115000Y-72380000D01*
X185026000Y-72366000D01*
X184939000Y-72343000D01*
X184855000Y-72311000D01*
X184775000Y-72270000D01*
X184700000Y-72221000D01*
X184630000Y-72164000D01*
X184566000Y-72100000D01*
X184509000Y-72030000D01*
X184460000Y-71955000D01*
X184419000Y-71875000D01*
X184387000Y-71791000D01*
X184364000Y-71704000D01*
X184350000Y-71615000D01*
X184345000Y-71525000D01*
X184346000Y-71487000D01*
X184349000Y-71448000D01*
X184353000Y-71409000D01*
X184359000Y-71370000D01*
X184368000Y-71331000D01*
X184377000Y-71293000D01*
X184389000Y-71256000D01*
X184402000Y-71218000D01*
X184417000Y-71182000D01*
X184434000Y-71146000D01*
X184452000Y-71112000D01*
X184472000Y-71077000D01*
X184493000Y-71044000D01*
X184516000Y-71012000D01*
X184541000Y-70981000D01*
X184566000Y-70952000D01*
X184594000Y-70923000D01*
X184622000Y-70896000D01*
X184652000Y-70870000D01*
X184682000Y-70845000D01*
X184714000Y-70822000D01*
X184747000Y-70800000D01*
X184781000Y-70780000D01*
X184816000Y-70762000D01*
X184851000Y-70745000D01*
X184887000Y-70729000D01*
X184924000Y-70716000D01*
X184962000Y-70704000D01*
X185000000Y-70694000D01*
X185040000Y-70685000D01*
X185040000Y-69895000D01*
X185370000Y-69895000D01*
X185370000Y-70685000D01*
G36*
X185370000Y-70685000D02*
G01*
X185410000Y-70694000D01*
X185448000Y-70704000D01*
X185486000Y-70716000D01*
X185523000Y-70729000D01*
X185559000Y-70745000D01*
X185594000Y-70762000D01*
X185629000Y-70780000D01*
X185663000Y-70800000D01*
X185696000Y-70822000D01*
X185728000Y-70845000D01*
X185758000Y-70870000D01*
X185788000Y-70896000D01*
X185816000Y-70923000D01*
X185844000Y-70952000D01*
X185869000Y-70981000D01*
X185894000Y-71012000D01*
X185917000Y-71044000D01*
X185938000Y-71077000D01*
X185958000Y-71112000D01*
X185976000Y-71146000D01*
X185993000Y-71182000D01*
X186008000Y-71218000D01*
X186021000Y-71256000D01*
X186033000Y-71293000D01*
X186042000Y-71331000D01*
X186051000Y-71370000D01*
X186057000Y-71409000D01*
X186061000Y-71448000D01*
X186064000Y-71487000D01*
X186065000Y-71525000D01*
X186060000Y-71615000D01*
X186046000Y-71704000D01*
X186023000Y-71791000D01*
X185991000Y-71875000D01*
X185950000Y-71955000D01*
X185901000Y-72030000D01*
X185844000Y-72100000D01*
X185780000Y-72164000D01*
X185710000Y-72221000D01*
X185635000Y-72270000D01*
X185555000Y-72311000D01*
X185471000Y-72343000D01*
X185384000Y-72366000D01*
X185295000Y-72380000D01*
X185205000Y-72385000D01*
X185115000Y-72380000D01*
X185026000Y-72366000D01*
X184939000Y-72343000D01*
X184855000Y-72311000D01*
X184775000Y-72270000D01*
X184700000Y-72221000D01*
X184630000Y-72164000D01*
X184566000Y-72100000D01*
X184509000Y-72030000D01*
X184460000Y-71955000D01*
X184419000Y-71875000D01*
X184387000Y-71791000D01*
X184364000Y-71704000D01*
X184350000Y-71615000D01*
X184345000Y-71525000D01*
X184346000Y-71487000D01*
X184349000Y-71448000D01*
X184353000Y-71409000D01*
X184359000Y-71370000D01*
X184368000Y-71331000D01*
X184377000Y-71293000D01*
X184389000Y-71256000D01*
X184402000Y-71218000D01*
X184417000Y-71182000D01*
X184434000Y-71146000D01*
X184452000Y-71112000D01*
X184472000Y-71077000D01*
X184493000Y-71044000D01*
X184516000Y-71012000D01*
X184541000Y-70981000D01*
X184566000Y-70952000D01*
X184594000Y-70923000D01*
X184622000Y-70896000D01*
X184652000Y-70870000D01*
X184682000Y-70845000D01*
X184714000Y-70822000D01*
X184747000Y-70800000D01*
X184781000Y-70780000D01*
X184816000Y-70762000D01*
X184851000Y-70745000D01*
X184887000Y-70729000D01*
X184924000Y-70716000D01*
X184962000Y-70704000D01*
X185000000Y-70694000D01*
X185040000Y-70685000D01*
X185040000Y-69895000D01*
X185370000Y-69895000D01*
X185370000Y-70685000D01*
G37*
X187910000Y-70685000D02*
X187950000Y-70694000D01*
X187988000Y-70704000D01*
X188026000Y-70716000D01*
X188063000Y-70729000D01*
X188099000Y-70745000D01*
X188134000Y-70762000D01*
X188169000Y-70780000D01*
X188203000Y-70800000D01*
X188236000Y-70822000D01*
X188268000Y-70845000D01*
X188298000Y-70870000D01*
X188328000Y-70896000D01*
X188356000Y-70923000D01*
X188384000Y-70952000D01*
X188409000Y-70981000D01*
X188434000Y-71012000D01*
X188457000Y-71044000D01*
X188478000Y-71077000D01*
X188498000Y-71112000D01*
X188516000Y-71146000D01*
X188533000Y-71182000D01*
X188548000Y-71218000D01*
X188561000Y-71256000D01*
X188573000Y-71293000D01*
X188582000Y-71331000D01*
X188591000Y-71370000D01*
X188597000Y-71409000D01*
X188601000Y-71448000D01*
X188604000Y-71487000D01*
X188605000Y-71525000D01*
X188600000Y-71615000D01*
X188586000Y-71704000D01*
X188563000Y-71791000D01*
X188531000Y-71875000D01*
X188490000Y-71955000D01*
X188441000Y-72030000D01*
X188384000Y-72100000D01*
X188320000Y-72164000D01*
X188250000Y-72221000D01*
X188175000Y-72270000D01*
X188095000Y-72311000D01*
X188011000Y-72343000D01*
X187924000Y-72366000D01*
X187835000Y-72380000D01*
X187745000Y-72385000D01*
X187655000Y-72380000D01*
X187566000Y-72366000D01*
X187479000Y-72343000D01*
X187395000Y-72311000D01*
X187315000Y-72270000D01*
X187240000Y-72221000D01*
X187170000Y-72164000D01*
X187106000Y-72100000D01*
X187049000Y-72030000D01*
X187000000Y-71955000D01*
X186959000Y-71875000D01*
X186927000Y-71791000D01*
X186904000Y-71704000D01*
X186890000Y-71615000D01*
X186885000Y-71525000D01*
X186886000Y-71487000D01*
X186889000Y-71448000D01*
X186893000Y-71409000D01*
X186899000Y-71370000D01*
X186908000Y-71331000D01*
X186917000Y-71293000D01*
X186929000Y-71256000D01*
X186942000Y-71218000D01*
X186957000Y-71182000D01*
X186974000Y-71146000D01*
X186992000Y-71112000D01*
X187012000Y-71077000D01*
X187033000Y-71044000D01*
X187056000Y-71012000D01*
X187081000Y-70981000D01*
X187106000Y-70952000D01*
X187134000Y-70923000D01*
X187162000Y-70896000D01*
X187192000Y-70870000D01*
X187222000Y-70845000D01*
X187254000Y-70822000D01*
X187287000Y-70800000D01*
X187321000Y-70780000D01*
X187356000Y-70762000D01*
X187391000Y-70745000D01*
X187427000Y-70729000D01*
X187464000Y-70716000D01*
X187502000Y-70704000D01*
X187540000Y-70694000D01*
X187580000Y-70685000D01*
X187580000Y-69895000D01*
X187910000Y-69895000D01*
X187910000Y-70685000D01*
G36*
X187910000Y-70685000D02*
G01*
X187950000Y-70694000D01*
X187988000Y-70704000D01*
X188026000Y-70716000D01*
X188063000Y-70729000D01*
X188099000Y-70745000D01*
X188134000Y-70762000D01*
X188169000Y-70780000D01*
X188203000Y-70800000D01*
X188236000Y-70822000D01*
X188268000Y-70845000D01*
X188298000Y-70870000D01*
X188328000Y-70896000D01*
X188356000Y-70923000D01*
X188384000Y-70952000D01*
X188409000Y-70981000D01*
X188434000Y-71012000D01*
X188457000Y-71044000D01*
X188478000Y-71077000D01*
X188498000Y-71112000D01*
X188516000Y-71146000D01*
X188533000Y-71182000D01*
X188548000Y-71218000D01*
X188561000Y-71256000D01*
X188573000Y-71293000D01*
X188582000Y-71331000D01*
X188591000Y-71370000D01*
X188597000Y-71409000D01*
X188601000Y-71448000D01*
X188604000Y-71487000D01*
X188605000Y-71525000D01*
X188600000Y-71615000D01*
X188586000Y-71704000D01*
X188563000Y-71791000D01*
X188531000Y-71875000D01*
X188490000Y-71955000D01*
X188441000Y-72030000D01*
X188384000Y-72100000D01*
X188320000Y-72164000D01*
X188250000Y-72221000D01*
X188175000Y-72270000D01*
X188095000Y-72311000D01*
X188011000Y-72343000D01*
X187924000Y-72366000D01*
X187835000Y-72380000D01*
X187745000Y-72385000D01*
X187655000Y-72380000D01*
X187566000Y-72366000D01*
X187479000Y-72343000D01*
X187395000Y-72311000D01*
X187315000Y-72270000D01*
X187240000Y-72221000D01*
X187170000Y-72164000D01*
X187106000Y-72100000D01*
X187049000Y-72030000D01*
X187000000Y-71955000D01*
X186959000Y-71875000D01*
X186927000Y-71791000D01*
X186904000Y-71704000D01*
X186890000Y-71615000D01*
X186885000Y-71525000D01*
X186886000Y-71487000D01*
X186889000Y-71448000D01*
X186893000Y-71409000D01*
X186899000Y-71370000D01*
X186908000Y-71331000D01*
X186917000Y-71293000D01*
X186929000Y-71256000D01*
X186942000Y-71218000D01*
X186957000Y-71182000D01*
X186974000Y-71146000D01*
X186992000Y-71112000D01*
X187012000Y-71077000D01*
X187033000Y-71044000D01*
X187056000Y-71012000D01*
X187081000Y-70981000D01*
X187106000Y-70952000D01*
X187134000Y-70923000D01*
X187162000Y-70896000D01*
X187192000Y-70870000D01*
X187222000Y-70845000D01*
X187254000Y-70822000D01*
X187287000Y-70800000D01*
X187321000Y-70780000D01*
X187356000Y-70762000D01*
X187391000Y-70745000D01*
X187427000Y-70729000D01*
X187464000Y-70716000D01*
X187502000Y-70704000D01*
X187540000Y-70694000D01*
X187580000Y-70685000D01*
X187580000Y-69895000D01*
X187910000Y-69895000D01*
X187910000Y-70685000D01*
G37*
X190450000Y-70685000D02*
X190490000Y-70694000D01*
X190528000Y-70704000D01*
X190566000Y-70716000D01*
X190603000Y-70729000D01*
X190639000Y-70745000D01*
X190674000Y-70762000D01*
X190709000Y-70780000D01*
X190743000Y-70800000D01*
X190776000Y-70822000D01*
X190808000Y-70845000D01*
X190838000Y-70870000D01*
X190868000Y-70896000D01*
X190896000Y-70923000D01*
X190924000Y-70952000D01*
X190949000Y-70981000D01*
X190974000Y-71012000D01*
X190997000Y-71044000D01*
X191018000Y-71077000D01*
X191038000Y-71112000D01*
X191056000Y-71146000D01*
X191073000Y-71182000D01*
X191088000Y-71218000D01*
X191101000Y-71256000D01*
X191113000Y-71293000D01*
X191122000Y-71331000D01*
X191131000Y-71370000D01*
X191137000Y-71409000D01*
X191141000Y-71448000D01*
X191144000Y-71487000D01*
X191145000Y-71525000D01*
X191140000Y-71615000D01*
X191126000Y-71704000D01*
X191103000Y-71791000D01*
X191071000Y-71875000D01*
X191030000Y-71955000D01*
X190981000Y-72030000D01*
X190924000Y-72100000D01*
X190860000Y-72164000D01*
X190790000Y-72221000D01*
X190715000Y-72270000D01*
X190635000Y-72311000D01*
X190551000Y-72343000D01*
X190464000Y-72366000D01*
X190375000Y-72380000D01*
X190285000Y-72385000D01*
X190195000Y-72380000D01*
X190106000Y-72366000D01*
X190019000Y-72343000D01*
X189935000Y-72311000D01*
X189855000Y-72270000D01*
X189780000Y-72221000D01*
X189710000Y-72164000D01*
X189646000Y-72100000D01*
X189589000Y-72030000D01*
X189540000Y-71955000D01*
X189499000Y-71875000D01*
X189467000Y-71791000D01*
X189444000Y-71704000D01*
X189430000Y-71615000D01*
X189425000Y-71525000D01*
X189426000Y-71487000D01*
X189429000Y-71448000D01*
X189433000Y-71409000D01*
X189439000Y-71370000D01*
X189448000Y-71331000D01*
X189457000Y-71293000D01*
X189469000Y-71256000D01*
X189482000Y-71218000D01*
X189497000Y-71182000D01*
X189514000Y-71146000D01*
X189532000Y-71112000D01*
X189552000Y-71077000D01*
X189573000Y-71044000D01*
X189596000Y-71012000D01*
X189621000Y-70981000D01*
X189646000Y-70952000D01*
X189674000Y-70923000D01*
X189702000Y-70896000D01*
X189732000Y-70870000D01*
X189762000Y-70845000D01*
X189794000Y-70822000D01*
X189827000Y-70800000D01*
X189861000Y-70780000D01*
X189896000Y-70762000D01*
X189931000Y-70745000D01*
X189967000Y-70729000D01*
X190004000Y-70716000D01*
X190042000Y-70704000D01*
X190080000Y-70694000D01*
X190120000Y-70685000D01*
X190120000Y-69895000D01*
X190450000Y-69895000D01*
X190450000Y-70685000D01*
G36*
X190450000Y-70685000D02*
G01*
X190490000Y-70694000D01*
X190528000Y-70704000D01*
X190566000Y-70716000D01*
X190603000Y-70729000D01*
X190639000Y-70745000D01*
X190674000Y-70762000D01*
X190709000Y-70780000D01*
X190743000Y-70800000D01*
X190776000Y-70822000D01*
X190808000Y-70845000D01*
X190838000Y-70870000D01*
X190868000Y-70896000D01*
X190896000Y-70923000D01*
X190924000Y-70952000D01*
X190949000Y-70981000D01*
X190974000Y-71012000D01*
X190997000Y-71044000D01*
X191018000Y-71077000D01*
X191038000Y-71112000D01*
X191056000Y-71146000D01*
X191073000Y-71182000D01*
X191088000Y-71218000D01*
X191101000Y-71256000D01*
X191113000Y-71293000D01*
X191122000Y-71331000D01*
X191131000Y-71370000D01*
X191137000Y-71409000D01*
X191141000Y-71448000D01*
X191144000Y-71487000D01*
X191145000Y-71525000D01*
X191140000Y-71615000D01*
X191126000Y-71704000D01*
X191103000Y-71791000D01*
X191071000Y-71875000D01*
X191030000Y-71955000D01*
X190981000Y-72030000D01*
X190924000Y-72100000D01*
X190860000Y-72164000D01*
X190790000Y-72221000D01*
X190715000Y-72270000D01*
X190635000Y-72311000D01*
X190551000Y-72343000D01*
X190464000Y-72366000D01*
X190375000Y-72380000D01*
X190285000Y-72385000D01*
X190195000Y-72380000D01*
X190106000Y-72366000D01*
X190019000Y-72343000D01*
X189935000Y-72311000D01*
X189855000Y-72270000D01*
X189780000Y-72221000D01*
X189710000Y-72164000D01*
X189646000Y-72100000D01*
X189589000Y-72030000D01*
X189540000Y-71955000D01*
X189499000Y-71875000D01*
X189467000Y-71791000D01*
X189444000Y-71704000D01*
X189430000Y-71615000D01*
X189425000Y-71525000D01*
X189426000Y-71487000D01*
X189429000Y-71448000D01*
X189433000Y-71409000D01*
X189439000Y-71370000D01*
X189448000Y-71331000D01*
X189457000Y-71293000D01*
X189469000Y-71256000D01*
X189482000Y-71218000D01*
X189497000Y-71182000D01*
X189514000Y-71146000D01*
X189532000Y-71112000D01*
X189552000Y-71077000D01*
X189573000Y-71044000D01*
X189596000Y-71012000D01*
X189621000Y-70981000D01*
X189646000Y-70952000D01*
X189674000Y-70923000D01*
X189702000Y-70896000D01*
X189732000Y-70870000D01*
X189762000Y-70845000D01*
X189794000Y-70822000D01*
X189827000Y-70800000D01*
X189861000Y-70780000D01*
X189896000Y-70762000D01*
X189931000Y-70745000D01*
X189967000Y-70729000D01*
X190004000Y-70716000D01*
X190042000Y-70704000D01*
X190080000Y-70694000D01*
X190120000Y-70685000D01*
X190120000Y-69895000D01*
X190450000Y-69895000D01*
X190450000Y-70685000D01*
G37*
X192990000Y-70685000D02*
X193030000Y-70694000D01*
X193068000Y-70704000D01*
X193106000Y-70716000D01*
X193143000Y-70729000D01*
X193179000Y-70745000D01*
X193214000Y-70762000D01*
X193249000Y-70780000D01*
X193283000Y-70800000D01*
X193316000Y-70822000D01*
X193348000Y-70845000D01*
X193378000Y-70870000D01*
X193408000Y-70896000D01*
X193436000Y-70923000D01*
X193464000Y-70952000D01*
X193489000Y-70981000D01*
X193514000Y-71012000D01*
X193537000Y-71044000D01*
X193558000Y-71077000D01*
X193578000Y-71112000D01*
X193596000Y-71146000D01*
X193613000Y-71182000D01*
X193628000Y-71218000D01*
X193641000Y-71256000D01*
X193653000Y-71293000D01*
X193662000Y-71331000D01*
X193671000Y-71370000D01*
X193677000Y-71409000D01*
X193681000Y-71448000D01*
X193684000Y-71487000D01*
X193685000Y-71525000D01*
X193680000Y-71615000D01*
X193666000Y-71704000D01*
X193643000Y-71791000D01*
X193611000Y-71875000D01*
X193570000Y-71955000D01*
X193521000Y-72030000D01*
X193464000Y-72100000D01*
X193400000Y-72164000D01*
X193330000Y-72221000D01*
X193255000Y-72270000D01*
X193175000Y-72311000D01*
X193091000Y-72343000D01*
X193004000Y-72366000D01*
X192915000Y-72380000D01*
X192825000Y-72385000D01*
X192735000Y-72380000D01*
X192646000Y-72366000D01*
X192559000Y-72343000D01*
X192475000Y-72311000D01*
X192395000Y-72270000D01*
X192320000Y-72221000D01*
X192250000Y-72164000D01*
X192186000Y-72100000D01*
X192129000Y-72030000D01*
X192080000Y-71955000D01*
X192039000Y-71875000D01*
X192007000Y-71791000D01*
X191984000Y-71704000D01*
X191970000Y-71615000D01*
X191965000Y-71525000D01*
X191966000Y-71487000D01*
X191969000Y-71448000D01*
X191973000Y-71409000D01*
X191979000Y-71370000D01*
X191988000Y-71331000D01*
X191997000Y-71293000D01*
X192009000Y-71256000D01*
X192022000Y-71218000D01*
X192037000Y-71182000D01*
X192054000Y-71146000D01*
X192072000Y-71112000D01*
X192092000Y-71077000D01*
X192113000Y-71044000D01*
X192136000Y-71012000D01*
X192161000Y-70981000D01*
X192186000Y-70952000D01*
X192214000Y-70923000D01*
X192242000Y-70896000D01*
X192272000Y-70870000D01*
X192302000Y-70845000D01*
X192334000Y-70822000D01*
X192367000Y-70800000D01*
X192401000Y-70780000D01*
X192436000Y-70762000D01*
X192471000Y-70745000D01*
X192507000Y-70729000D01*
X192544000Y-70716000D01*
X192582000Y-70704000D01*
X192620000Y-70694000D01*
X192660000Y-70685000D01*
X192660000Y-69895000D01*
X192990000Y-69895000D01*
X192990000Y-70685000D01*
G36*
X192990000Y-70685000D02*
G01*
X193030000Y-70694000D01*
X193068000Y-70704000D01*
X193106000Y-70716000D01*
X193143000Y-70729000D01*
X193179000Y-70745000D01*
X193214000Y-70762000D01*
X193249000Y-70780000D01*
X193283000Y-70800000D01*
X193316000Y-70822000D01*
X193348000Y-70845000D01*
X193378000Y-70870000D01*
X193408000Y-70896000D01*
X193436000Y-70923000D01*
X193464000Y-70952000D01*
X193489000Y-70981000D01*
X193514000Y-71012000D01*
X193537000Y-71044000D01*
X193558000Y-71077000D01*
X193578000Y-71112000D01*
X193596000Y-71146000D01*
X193613000Y-71182000D01*
X193628000Y-71218000D01*
X193641000Y-71256000D01*
X193653000Y-71293000D01*
X193662000Y-71331000D01*
X193671000Y-71370000D01*
X193677000Y-71409000D01*
X193681000Y-71448000D01*
X193684000Y-71487000D01*
X193685000Y-71525000D01*
X193680000Y-71615000D01*
X193666000Y-71704000D01*
X193643000Y-71791000D01*
X193611000Y-71875000D01*
X193570000Y-71955000D01*
X193521000Y-72030000D01*
X193464000Y-72100000D01*
X193400000Y-72164000D01*
X193330000Y-72221000D01*
X193255000Y-72270000D01*
X193175000Y-72311000D01*
X193091000Y-72343000D01*
X193004000Y-72366000D01*
X192915000Y-72380000D01*
X192825000Y-72385000D01*
X192735000Y-72380000D01*
X192646000Y-72366000D01*
X192559000Y-72343000D01*
X192475000Y-72311000D01*
X192395000Y-72270000D01*
X192320000Y-72221000D01*
X192250000Y-72164000D01*
X192186000Y-72100000D01*
X192129000Y-72030000D01*
X192080000Y-71955000D01*
X192039000Y-71875000D01*
X192007000Y-71791000D01*
X191984000Y-71704000D01*
X191970000Y-71615000D01*
X191965000Y-71525000D01*
X191966000Y-71487000D01*
X191969000Y-71448000D01*
X191973000Y-71409000D01*
X191979000Y-71370000D01*
X191988000Y-71331000D01*
X191997000Y-71293000D01*
X192009000Y-71256000D01*
X192022000Y-71218000D01*
X192037000Y-71182000D01*
X192054000Y-71146000D01*
X192072000Y-71112000D01*
X192092000Y-71077000D01*
X192113000Y-71044000D01*
X192136000Y-71012000D01*
X192161000Y-70981000D01*
X192186000Y-70952000D01*
X192214000Y-70923000D01*
X192242000Y-70896000D01*
X192272000Y-70870000D01*
X192302000Y-70845000D01*
X192334000Y-70822000D01*
X192367000Y-70800000D01*
X192401000Y-70780000D01*
X192436000Y-70762000D01*
X192471000Y-70745000D01*
X192507000Y-70729000D01*
X192544000Y-70716000D01*
X192582000Y-70704000D01*
X192620000Y-70694000D01*
X192660000Y-70685000D01*
X192660000Y-69895000D01*
X192990000Y-69895000D01*
X192990000Y-70685000D01*
G37*
%TD*%
D11*
%TO.C,C2.2*%
X163405000Y-88690000D03*
X166005000Y-88690000D03*
%TD*%
D12*
%TO.C,C2.1*%
X154987500Y-102050000D03*
X152912500Y-102050000D03*
%TD*%
D13*
%TO.C,U1.1*%
X166370000Y-43120000D03*
X166370000Y-44390000D03*
X166370000Y-45660000D03*
X166370000Y-46930000D03*
X166370000Y-48200000D03*
X166370000Y-49470000D03*
X166370000Y-50740000D03*
X166370000Y-52010000D03*
X166370000Y-53280000D03*
X166370000Y-54550000D03*
X166370000Y-55820000D03*
X166370000Y-57090000D03*
X166370000Y-58360000D03*
X166370000Y-59630000D03*
D14*
X169155000Y-60630000D03*
X170425000Y-60630000D03*
X171695000Y-60630000D03*
X172965000Y-60630000D03*
X174235000Y-60630000D03*
X175505000Y-60630000D03*
X176775000Y-60630000D03*
X178045000Y-60630000D03*
X179315000Y-60630000D03*
X180585000Y-60630000D03*
D13*
X183370000Y-59630000D03*
X183370000Y-58360000D03*
X183370000Y-57090000D03*
X183370000Y-55820000D03*
X183370000Y-54550000D03*
X183370000Y-53280000D03*
X183370000Y-52010000D03*
X183370000Y-50740000D03*
X183370000Y-49470000D03*
X183370000Y-48200000D03*
X183370000Y-46930000D03*
X183370000Y-45660000D03*
X183370000Y-44390000D03*
X183370000Y-43120000D03*
D15*
X172035000Y-48785000D03*
X173870000Y-48785000D03*
X175705000Y-48785000D03*
X172035000Y-50620000D03*
X173870000Y-50620000D03*
X175705000Y-50620000D03*
X172035000Y-52455000D03*
X173870000Y-52455000D03*
X175705000Y-52455000D03*
D16*
X172952500Y-48785000D03*
X174787500Y-48785000D03*
X172035000Y-49702500D03*
X173870000Y-49702500D03*
X175705000Y-49702500D03*
X172952500Y-50620000D03*
X174787500Y-50620000D03*
X172035000Y-51537500D03*
X173870000Y-51537500D03*
X175705000Y-51537500D03*
X172952500Y-52455000D03*
X174787500Y-52455000D03*
%TD*%
D17*
%TO.C,R6.9*%
X188840000Y-102670000D03*
X186840000Y-102670000D03*
%TD*%
D18*
%TO.C,R9.3*%
X187040000Y-83550000D03*
X189040000Y-83550000D03*
%TD*%
D17*
%TO.C,R9.5*%
X206480000Y-88090000D03*
X204480000Y-88090000D03*
%TD*%
D18*
%TO.C,R5*%
X179700000Y-84550000D03*
X181700000Y-84550000D03*
%TD*%
%TO.C,R3.1*%
X179630000Y-88840000D03*
X181630000Y-88840000D03*
%TD*%
%TO.C,R9.1*%
X187050000Y-86300000D03*
X189050000Y-86300000D03*
%TD*%
%TO.C,R1.1*%
X157300000Y-50250000D03*
X159300000Y-50250000D03*
%TD*%
D17*
%TO.C,R5.4*%
X161400000Y-77050000D03*
X159400000Y-77050000D03*
%TD*%
D19*
%TO.C,U8.1*%
X192474800Y-49150000D03*
X192474800Y-50420000D03*
X192474800Y-51690000D03*
X192474800Y-52960000D03*
X192474800Y-54230000D03*
X192474800Y-55500000D03*
X192474800Y-56770000D03*
X192474800Y-58040000D03*
X202025200Y-58040000D03*
X202025200Y-56770000D03*
X202025200Y-55500000D03*
X202025200Y-54230000D03*
X202025200Y-52960000D03*
X202025200Y-51690000D03*
X202025200Y-50420000D03*
X202025200Y-49150000D03*
%TD*%
D18*
%TO.C,R8.2*%
X205600000Y-52500000D03*
X207600000Y-52500000D03*
%TD*%
D20*
%TO.C,D3*%
X173732500Y-102620000D03*
X176232500Y-102620000D03*
%TD*%
D21*
%TO.C,C3.1*%
X180170000Y-106660000D03*
X182245000Y-106660000D03*
%TD*%
D17*
%TO.C,R6.8*%
X202560000Y-92400000D03*
X200560000Y-92400000D03*
%TD*%
%TO.C,R8.5*%
X207500000Y-49500000D03*
X205500000Y-49500000D03*
%TD*%
%TO.C,R5.6*%
X167550000Y-80400000D03*
X165550000Y-80400000D03*
%TD*%
D12*
%TO.C,C8.1*%
X201287500Y-44500000D03*
X199212500Y-44500000D03*
%TD*%
D18*
%TO.C,R5.1*%
X165350000Y-73350000D03*
X167350000Y-73350000D03*
%TD*%
D22*
%TO.C,JUMPBT1*%
X177590000Y-68200000D03*
X180130000Y-68200000D03*
X182670000Y-68200000D03*
X185210000Y-68200000D03*
X187750000Y-68200000D03*
X190290000Y-68200000D03*
X192830000Y-68200000D03*
%TD*%
D18*
%TO.C,R4.2*%
X167950000Y-102750000D03*
X169950000Y-102750000D03*
%TD*%
D23*
%TO.C,R1*%
X222190000Y-104310000D03*
X222190000Y-94150000D03*
D24*
X213300000Y-102410000D03*
X215840000Y-101140000D03*
X213300000Y-99870000D03*
X215840000Y-98600000D03*
X213300000Y-97330000D03*
X215840000Y-96060000D03*
%TD*%
D23*
%TO.C,RJ12*%
X222130000Y-55255000D03*
X222130000Y-45095000D03*
D24*
X213240000Y-53355000D03*
X215780000Y-52085000D03*
D25*
X213240000Y-50815000D03*
D24*
X215780000Y-49545000D03*
D25*
X213240000Y-48275000D03*
D24*
X215780000Y-47005000D03*
%TD*%
D26*
%TO.C,U4.1*%
X162470000Y-108100000D03*
X168250000Y-108100000D03*
D27*
X162110000Y-106655000D03*
X162910000Y-106655000D03*
D28*
X164110000Y-106655000D03*
X165110000Y-106655000D03*
X165610000Y-106655000D03*
X166610000Y-106655000D03*
D27*
X167810000Y-106655000D03*
X168610000Y-106655000D03*
X168610000Y-106655000D03*
X167810000Y-106655000D03*
D28*
X167110000Y-106655000D03*
X166110000Y-106655000D03*
X164610000Y-106655000D03*
X163610000Y-106655000D03*
D27*
X162910000Y-106655000D03*
X162110000Y-106655000D03*
D29*
X161040000Y-107570000D03*
D30*
X161040000Y-111750000D03*
D29*
X169680000Y-107570000D03*
D30*
X169680000Y-111750000D03*
%TD*%
D31*
%TO.C,U3.1*%
X177020000Y-96650000D03*
X177520000Y-96650000D03*
X178020000Y-96650000D03*
X178520000Y-96650000D03*
X179020000Y-96650000D03*
X179520000Y-96650000D03*
X180020000Y-96650000D03*
D32*
X180880000Y-95790000D03*
X180880000Y-95290000D03*
X180880000Y-94790000D03*
X180880000Y-94290000D03*
X180880000Y-93790000D03*
X180880000Y-93290000D03*
X180880000Y-92790000D03*
D31*
X180020000Y-91930000D03*
X179520000Y-91930000D03*
X179020000Y-91930000D03*
X178520000Y-91930000D03*
X178020000Y-91930000D03*
X177520000Y-91930000D03*
X177020000Y-91930000D03*
D32*
X176160000Y-92790000D03*
X176160000Y-93290000D03*
X176160000Y-93790000D03*
X176160000Y-94290000D03*
X176160000Y-94790000D03*
X176160000Y-95290000D03*
X176160000Y-95790000D03*
D33*
X178520000Y-94290000D03*
%TD*%
D12*
%TO.C,C9.1*%
X189177500Y-76700000D03*
X187102500Y-76700000D03*
%TD*%
D34*
%TO.C,J5*%
X195980000Y-110750000D03*
X203980000Y-110750000D03*
D35*
X203180000Y-99750000D03*
X202080000Y-99750000D03*
X200980000Y-99750000D03*
X199880000Y-99750000D03*
X198780000Y-99750000D03*
X197680000Y-99750000D03*
X196580000Y-99750000D03*
X195480000Y-99750000D03*
X194380000Y-99750000D03*
D36*
X193180000Y-101050000D03*
D37*
X207780000Y-100800000D03*
D38*
X193180000Y-110350000D03*
X208680000Y-110350000D03*
%TD*%
D39*
%TO.C,U9*%
X194565000Y-78435000D03*
X194565000Y-79705000D03*
X194565000Y-80975000D03*
X194565000Y-82245000D03*
X194565000Y-83515000D03*
X194565000Y-84785000D03*
X194565000Y-86055000D03*
X194565000Y-87325000D03*
X199515000Y-87325000D03*
X199515000Y-86055000D03*
X199515000Y-84785000D03*
X199515000Y-83515000D03*
X199515000Y-82245000D03*
X199515000Y-80975000D03*
X199515000Y-79705000D03*
X199515000Y-78435000D03*
%TD*%
D40*
%TO.C,Q1.3*%
X174750000Y-80495000D03*
X176650000Y-80495000D03*
X175700000Y-78620000D03*
%TD*%
D21*
%TO.C,C3.2*%
X180170000Y-102630000D03*
X182245000Y-102630000D03*
%TD*%
D18*
%TO.C,R2*%
X174500000Y-84550000D03*
X176500000Y-84550000D03*
%TD*%
%TO.C,R2.1*%
X152992500Y-105550000D03*
X154992500Y-105550000D03*
%TD*%
%TO.C,R6.10*%
X186760000Y-106820000D03*
X188760000Y-106820000D03*
%TD*%
D21*
%TO.C,C6.1*%
X194687500Y-95300000D03*
X196762500Y-95300000D03*
%TD*%
D17*
%TO.C,R9.4*%
X206400000Y-76490000D03*
X204400000Y-76490000D03*
%TD*%
D18*
%TO.C,R6.2*%
X206682500Y-92630000D03*
X208682500Y-92630000D03*
%TD*%
D17*
%TO.C,R4*%
X161220000Y-84750000D03*
X159220000Y-84750000D03*
%TD*%
D22*
%TO.C,LCD1*%
X177585000Y-71525000D03*
X180125000Y-71525000D03*
D41*
X182665000Y-71525000D03*
D22*
X185205000Y-71525000D03*
X187745000Y-71525000D03*
X190285000Y-71525000D03*
X192825000Y-71525000D03*
%TD*%
D18*
%TO.C,R5.5*%
X165550000Y-69950000D03*
X167550000Y-69950000D03*
%TD*%
D42*
%TO.C,C1.1*%
X159250000Y-44000000D03*
X156650000Y-44000000D03*
%TD*%
D17*
%TO.C,R6.3*%
X188840000Y-91740000D03*
X186840000Y-91740000D03*
%TD*%
%TO.C,R3.5*%
X176290000Y-88840000D03*
X174290000Y-88840000D03*
%TD*%
%TO.C,R5.2*%
X167500000Y-77100000D03*
X165500000Y-77100000D03*
%TD*%
%TO.C,R3.3*%
X182237500Y-111050000D03*
X180237500Y-111050000D03*
%TD*%
D43*
%TO.C,nguon1*%
X153650000Y-96910000D03*
D44*
X153650000Y-94370000D03*
X153650000Y-91830000D03*
X153650000Y-89290000D03*
X153650000Y-86750000D03*
%TD*%
D17*
%TO.C,R6.1*%
X208600000Y-95500000D03*
X206600000Y-95500000D03*
%TD*%
D18*
%TO.C,R6.5*%
X186850000Y-99090000D03*
X188850000Y-99090000D03*
%TD*%
D12*
%TO.C,C5.2*%
X161467500Y-70000000D03*
X159392500Y-70000000D03*
%TD*%
D17*
%TO.C,R5.3*%
X161450000Y-80450000D03*
X159450000Y-80450000D03*
%TD*%
%TO.C,R3*%
X167550000Y-84700000D03*
X165550000Y-84700000D03*
%TD*%
D45*
%TO.C,D1*%
X153050000Y-108150000D03*
X155100000Y-108150000D03*
%TD*%
D23*
%TO.C,RJ11*%
X222140000Y-71565000D03*
X222140000Y-61405000D03*
D24*
X213250000Y-69665000D03*
X215790000Y-68395000D03*
X213250000Y-67125000D03*
X215790000Y-65855000D03*
X213250000Y-64585000D03*
X215790000Y-63315000D03*
%TD*%
D18*
%TO.C,R6.6*%
X200410000Y-95400000D03*
X202410000Y-95400000D03*
%TD*%
D17*
%TO.C,R3.4*%
X189040000Y-110700000D03*
X187040000Y-110700000D03*
%TD*%
D12*
%TO.C,C5.1*%
X161467500Y-73300000D03*
X159392500Y-73300000D03*
%TD*%
D46*
%TO.C,U2.1*%
X162280000Y-98390000D03*
X164580000Y-98390000D03*
D47*
X164580000Y-92090000D03*
D46*
X166880000Y-98390000D03*
%TD*%
D44*
%TO.C,RF443*%
X153800000Y-71250000D03*
X153800000Y-73790000D03*
X153800000Y-76330000D03*
X153800000Y-78870000D03*
%TD*%
D17*
%TO.C,R8.3*%
X207450000Y-47000000D03*
X205450000Y-47000000D03*
%TD*%
D44*
%TO.C,Tinhieu+led1*%
X153660000Y-64810000D03*
D48*
X153660000Y-62270000D03*
X153660000Y-59730000D03*
X153660000Y-57190000D03*
X153660000Y-54650000D03*
X153660000Y-52110000D03*
%TD*%
D49*
%TO.C,J1*%
X195925000Y-68175000D03*
D50*
X198465000Y-68175000D03*
%TD*%
D18*
%TO.C,R8.6*%
X205475000Y-44250000D03*
X207475000Y-44250000D03*
%TD*%
D17*
%TO.C,R1.2*%
X158825000Y-40750000D03*
X156825000Y-40750000D03*
%TD*%
D40*
%TO.C,Q1.4*%
X179387500Y-80487500D03*
X181287500Y-80487500D03*
X180337500Y-78612500D03*
%TD*%
D17*
%TO.C,R8.1*%
X207575000Y-55000000D03*
X205575000Y-55000000D03*
%TD*%
D12*
%TO.C,C9.2*%
X189157500Y-79600000D03*
X187082500Y-79600000D03*
%TD*%
D21*
%TO.C,C6.2*%
X194625000Y-92510000D03*
X196700000Y-92510000D03*
%TD*%
D23*
%TO.C,R6*%
X222145000Y-87825000D03*
X222145000Y-77665000D03*
D24*
X213255000Y-85925000D03*
X215795000Y-84655000D03*
X213255000Y-83385000D03*
X215795000Y-82115000D03*
X213255000Y-80845000D03*
X215795000Y-79575000D03*
%TD*%
D17*
%TO.C,R3.2*%
X175897500Y-106630000D03*
X173897500Y-106630000D03*
%TD*%
D18*
%TO.C,R8.4*%
X205500000Y-57500000D03*
X207500000Y-57500000D03*
%TD*%
D12*
%TO.C,C1.2*%
X159187500Y-47000000D03*
X157112500Y-47000000D03*
%TD*%
D51*
%TO.C,D2*%
X158850000Y-37750000D03*
X156800000Y-37750000D03*
%TD*%
D12*
%TO.C,C8.2*%
X201287500Y-47000000D03*
X199212500Y-47000000D03*
%TD*%
%TO.C,C1.3*%
X159312500Y-53000000D03*
X157237500Y-53000000D03*
%TD*%
D17*
%TO.C,R9.2*%
X206420000Y-80750000D03*
X204420000Y-80750000D03*
%TD*%
%TO.C,R6.7*%
X188840000Y-94940000D03*
X186840000Y-94940000D03*
%TD*%
%TO.C,R4.1*%
X162450000Y-102650000D03*
X160450000Y-102650000D03*
%TD*%
%TO.C,R9.6*%
X206480000Y-84350000D03*
X204480000Y-84350000D03*
%TD*%
M02*
