%TF.GenerationSoftware,KiCad,Pcbnew,9.0.0*%
%TF.CreationDate,2025-05-27T09:12:42+07:00*%
%TF.ProjectId,robottttttttt,726f626f-7474-4747-9474-747474742e6b,rev?*%
%TF.SameCoordinates,Original*%
%TF.FileFunction,Profile,NP*%
%FSLAX46Y46*%
G04 Gerber Fmt 4.6, Leading zero omitted, Abs format (unit mm)*
G04 Created by KiCad (PCBNEW 9.0.0) date 2025-05-27 09:12:42*
%MOMM*%
%LPD*%
G01*
G04 APERTURE LIST*
%TA.AperFunction,Profile*%
%ADD10C,0.050000*%
%TD*%
G04 APERTURE END LIST*
D10*
X231025000Y-34175000D02*
X231025000Y-115650000D01*
X153925000Y-113275000D02*
G75*
G02*
X150682702Y-113275000I-1621149J0D01*
G01*
X150682702Y-113275000D02*
G75*
G02*
X153925000Y-113275000I1621149J0D01*
G01*
X185275000Y-34150000D02*
X185275000Y-41875000D01*
X164750000Y-42000000D02*
X164750000Y-41750000D01*
X229825000Y-113275000D02*
G75*
G02*
X226582702Y-113275000I-1621149J0D01*
G01*
X226582702Y-113275000D02*
G75*
G02*
X229825000Y-113275000I1621149J0D01*
G01*
X160850000Y-34150000D02*
X160125000Y-34150000D01*
X150250000Y-34125000D02*
X150250000Y-34975000D01*
X164750000Y-41750000D02*
X164775000Y-34150000D01*
X150250000Y-115525000D02*
X150250000Y-42150000D01*
X231025000Y-115650000D02*
X150250000Y-115525000D01*
X229525000Y-36500000D02*
G75*
G02*
X226328660Y-36500000I-1598170J0D01*
G01*
X226328660Y-36500000D02*
G75*
G02*
X229525000Y-36500000I1598170J0D01*
G01*
X164750000Y-42000000D02*
X160850000Y-42000000D01*
X189050000Y-34175000D02*
X189050000Y-41862744D01*
X160850000Y-35200000D02*
X160850000Y-34150000D01*
X150250000Y-41775000D02*
X150250000Y-42150000D01*
X164775000Y-34150000D02*
X184200000Y-34150000D01*
X185275000Y-41875000D02*
X189050000Y-41862744D01*
X160125000Y-34150000D02*
X150250000Y-34125000D01*
X154573170Y-36476830D02*
G75*
G02*
X150876830Y-36476830I-1848170J0D01*
G01*
X150876830Y-36476830D02*
G75*
G02*
X154573170Y-36476830I1848170J0D01*
G01*
X189050000Y-34175000D02*
X231025000Y-34175000D01*
X160850000Y-42000000D02*
X160850000Y-35200000D01*
X184200000Y-34150000D02*
X185275000Y-34150000D01*
X150250000Y-41775000D02*
X150250000Y-34975000D01*
M02*
