M48
; DRILL file {KiCad 9.0.0} date 2025-05-27T08:51:11+0700
; FORMAT={3:3/ absolute / metric / suppress leading zeros}
; #@! TF.CreationDate,2025-05-27T08:51:11+07:00
; #@! TF.GenerationSoftware,Kicad,Pcbnew,9.0.0
; #@! TF.FileFunction,Plated,1,2,PTH
FMAT,2
METRIC,TZ
; #@! TA.AperFunction,Plated,PTH,ComponentDrill
T1C0.200
; #@! TA.AperFunction,Plated,PTH,ViaDrill
T2C0.300
; #@! TA.AperFunction,Plated,PTH,ViaDrill
T3C0.400
; #@! TA.AperFunction,Plated,PTH,ComponentDrill
T4C0.600
; #@! TA.AperFunction,Plated,PTH,ComponentDrill
T5C0.760
; #@! TA.AperFunction,Plated,PTH,ComponentDrill
T6C1.020
%
G90
G05
T1
X172035Y-49703
X172035Y-51538
X172953Y-48785
X172953Y-50620
X172953Y-52455
X173870Y-49703
X173870Y-51538
X174788Y-48785
X174788Y-50620
X174788Y-52455
X175705Y-49703
X175705Y-51538
T2
X152750Y-44250
X153000Y-46250
X156250Y-48500
X156525Y-89075
X158450Y-60460
X161150Y-89120
X161800Y-50625
X161800Y-51950
X161800Y-53300
X161800Y-54550
X161800Y-55825
X163700Y-72750
X163763Y-78363
X163800Y-75750
X164630Y-103020
X165820Y-104350
X168400Y-90000
X169650Y-84700
X171200Y-84700
X172830Y-80450
X173100Y-98500
X173200Y-90200
X173200Y-95800
X173775Y-113925
X173850Y-109100
X175125Y-98675
X175275Y-63825
X178200Y-88800
X178200Y-109000
X180275Y-77000
X181900Y-63675
X183650Y-81810
X184120Y-95900
X185050Y-81800
X186305Y-105105
X187038Y-47963
X188400Y-81800
X188525Y-74475
X188950Y-52400
X188971Y-53521
X189000Y-55000
X189000Y-56250
X189075Y-51100
X189105Y-47955
X190550Y-44975
X190700Y-76240
X191275Y-62150
X192010Y-81800
X193110Y-44900
X194400Y-65400
X196425Y-70500
X196425Y-73600
X198850Y-94250
X198850Y-97125
X203750Y-45750
X203750Y-51750
X203975Y-55825
X204550Y-92850
X205485Y-67525
X206375Y-97250
X207702Y-86277
X208460Y-71460
X208580Y-50750
X208650Y-73000
X208700Y-78130
X208830Y-67540
X209600Y-97200
X210870Y-93500
X211000Y-42250
X213683Y-41623
X216125Y-57580
X217070Y-74335
T3
X187250Y-78300
X204730Y-86290
T5
X213240Y-48275
X213240Y-50815
X213240Y-53355
X213250Y-64585
X213250Y-67125
X213250Y-69665
X213255Y-80845
X213255Y-83385
X213255Y-85925
X213300Y-97330
X213300Y-99870
X213300Y-102410
X215780Y-47005
X215780Y-49545
X215780Y-52085
X215790Y-63315
X215790Y-65855
X215790Y-68395
X215795Y-79575
X215795Y-82115
X215795Y-84655
X215840Y-96060
X215840Y-98600
X215840Y-101140
T6
X153650Y-86750
X153650Y-89290
X153650Y-91830
X153650Y-94370
X153650Y-96910
X153660Y-52110
X153660Y-54650
X153660Y-57190
X153660Y-59730
X153660Y-62270
X153660Y-64810
X153800Y-71250
X153800Y-73790
X153800Y-76330
X153800Y-78870
X177585Y-71525
X177590Y-68200
X180125Y-71525
X180130Y-68200
X182665Y-71525
X182670Y-68200
X185205Y-71525
X185210Y-68200
X187745Y-71525
X187750Y-68200
X190285Y-71525
X190290Y-68200
X192825Y-71525
X192830Y-68200
X195925Y-68175
X198465Y-68175
T4
G00X161040Y-107020
M15
G01X161040Y-108120
M16
G05
G00X161040Y-111450
M15
G01X161040Y-112050
M16
G05
G00X169680Y-107020
M15
G01X169680Y-108120
M16
G05
G00X169680Y-111450
M15
G01X169680Y-112050
M16
G05
M30
