%TF.GenerationSoftware,KiCad,Pcbnew,9.0.0*%
%TF.CreationDate,2025-07-17T22:09:10+07:00*%
%TF.ProjectId,esp8266-BU01,65737038-3236-4362-9d42-5530312e6b69,rev?*%
%TF.SameCoordinates,Original*%
%TF.FileFunction,Copper,L2,Bot*%
%TF.FilePolarity,Positive*%
%FSLAX46Y46*%
G04 Gerber Fmt 4.6, Leading zero omitted, Abs format (unit mm)*
G04 Created by KiCad (PCBNEW 9.0.0) date 2025-07-17 22:09:10*
%MOMM*%
%LPD*%
G01*
G04 APERTURE LIST*
G04 Aperture macros list*
%AMRoundRect*
0 Rectangle with rounded corners*
0 $1 Rounding radius*
0 $2 $3 $4 $5 $6 $7 $8 $9 X,Y pos of 4 corners*
0 Add a 4 corners polygon primitive as box body*
4,1,4,$2,$3,$4,$5,$6,$7,$8,$9,$2,$3,0*
0 Add four circle primitives for the rounded corners*
1,1,$1+$1,$2,$3*
1,1,$1+$1,$4,$5*
1,1,$1+$1,$6,$7*
1,1,$1+$1,$8,$9*
0 Add four rect primitives between the rounded corners*
20,1,$1+$1,$2,$3,$4,$5,0*
20,1,$1+$1,$4,$5,$6,$7,0*
20,1,$1+$1,$6,$7,$8,$9,0*
20,1,$1+$1,$8,$9,$2,$3,0*%
G04 Aperture macros list end*
%TA.AperFunction,HeatsinkPad*%
%ADD10O,2.100000X1.300000*%
%TD*%
%TA.AperFunction,HeatsinkPad*%
%ADD11O,1.600000X1.300000*%
%TD*%
%TA.AperFunction,ComponentPad*%
%ADD12O,2.500000X4.000000*%
%TD*%
%TA.AperFunction,ComponentPad*%
%ADD13O,2.000000X3.600000*%
%TD*%
%TA.AperFunction,ComponentPad*%
%ADD14O,3.600000X2.000000*%
%TD*%
%TA.AperFunction,ComponentPad*%
%ADD15RoundRect,0.190500X-0.444500X0.762000X-0.444500X-0.762000X0.444500X-0.762000X0.444500X0.762000X0*%
%TD*%
%TA.AperFunction,ComponentPad*%
%ADD16RoundRect,0.190500X0.444500X-0.762000X0.444500X0.762000X-0.444500X0.762000X-0.444500X-0.762000X0*%
%TD*%
%TA.AperFunction,ComponentPad*%
%ADD17O,2.500000X1.500000*%
%TD*%
%TA.AperFunction,ViaPad*%
%ADD18C,0.600000*%
%TD*%
%TA.AperFunction,Conductor*%
%ADD19C,0.400000*%
%TD*%
%TA.AperFunction,Conductor*%
%ADD20C,0.300000*%
%TD*%
G04 APERTURE END LIST*
D10*
%TO.P,U4.1,S1,SHIELD*%
%TO.N,GND*%
X157530000Y-66740000D03*
D11*
X153350000Y-66740000D03*
D10*
X157530000Y-75380000D03*
D11*
X153350000Y-75380000D03*
%TD*%
D12*
%TO.P,J3,1*%
%TO.N,/12VDC*%
X164092500Y-90070000D03*
D13*
%TO.P,J3,2*%
%TO.N,GND*%
X157892500Y-90070000D03*
D14*
%TO.P,J3,3*%
X161142500Y-94870000D03*
%TD*%
D15*
%TO.P,C1.6,3*%
%TO.N,/VDD33*%
X197650000Y-76340000D03*
%TO.P,C1.6,4*%
%TO.N,GND*%
X197650000Y-81790000D03*
%TD*%
D16*
%TO.P,C1.1,3*%
%TO.N,/5V*%
X170390000Y-82280000D03*
%TO.P,C1.1,4*%
%TO.N,GND*%
X170390000Y-76830000D03*
%TD*%
D15*
%TO.P,C3.1,3*%
%TO.N,/12VDC*%
X170430000Y-88960000D03*
%TO.P,C3.1,4*%
%TO.N,GND*%
X170430000Y-94360000D03*
%TD*%
%TO.P,C3.3,3*%
%TO.N,/5V*%
X197630000Y-88840000D03*
%TO.P,C3.3,4*%
%TO.N,GND*%
X197630000Y-94290000D03*
%TD*%
D17*
%TO.P,J1,01,01*%
%TO.N,/5V*%
X214180000Y-91852500D03*
%TO.P,J1,02,02*%
%TO.N,GND*%
X214180000Y-89312500D03*
%TO.P,J1,03,03*%
%TO.N,/8266_IO4*%
X214180000Y-86772500D03*
%TO.P,J1,04,04*%
%TO.N,/8266_IO5*%
X214180000Y-84232500D03*
%TD*%
D18*
%TO.N,/VDD33*%
X171501072Y-63745000D03*
X194370000Y-83330000D03*
X160030000Y-60370000D03*
X185882500Y-57430000D03*
X187880000Y-67710000D03*
X180250000Y-83270000D03*
X182410000Y-51800000D03*
%TO.N,GND*%
X157955000Y-57580000D03*
X216860000Y-59720000D03*
X157955000Y-60613333D03*
X180155000Y-91960000D03*
X183990000Y-69850000D03*
%TO.N,/8266_IO15*%
X209010000Y-56910000D03*
X184030000Y-62530000D03*
%TO.N,/8266_IO5*%
X213120000Y-51525000D03*
%TO.N,/8266_IO4*%
X213290000Y-54630000D03*
%TO.N,/8266_IO13*%
X189500000Y-61850000D03*
X183310000Y-61870000D03*
%TO.N,/FB_U1.1*%
X202550000Y-79910000D03*
X182445000Y-78450000D03*
%TO.N,Net-(U3.1-VFB)*%
X204430000Y-96310000D03*
X182665000Y-93860000D03*
%TO.N,/8266_RST*%
X194010000Y-44910000D03*
X187950000Y-54640000D03*
%TO.N,/8266_TX*%
X211550000Y-66600000D03*
X209108915Y-45015428D03*
X182370000Y-63680000D03*
X204540000Y-66060000D03*
%TO.N,/8266_RX*%
X208660000Y-69700000D03*
X182190000Y-69310000D03*
X209010000Y-46910000D03*
X211180000Y-77800000D03*
%TO.N,/8266_IO2*%
X209020000Y-54920000D03*
X208900000Y-66040000D03*
%TO.N,/8266_IO0*%
X194250000Y-65580000D03*
X190420000Y-51860000D03*
X209050000Y-52860000D03*
%TO.N,/8266_IO16*%
X183030000Y-48550000D03*
X152520000Y-54480000D03*
%TO.N,/8266_EN*%
X156520000Y-79880000D03*
X190655000Y-65820000D03*
X188190000Y-60480000D03*
X194010000Y-48990000D03*
%TD*%
D19*
%TO.N,/VDD33*%
X190640000Y-76340000D02*
X197650000Y-76340000D01*
X160030000Y-60370000D02*
X163405000Y-63745000D01*
X182410000Y-51800000D02*
X182410000Y-55890000D01*
X182410000Y-55890000D02*
X183950000Y-57430000D01*
X187880000Y-67710000D02*
X187880000Y-73580000D01*
X183950000Y-57430000D02*
X185882500Y-57430000D01*
X180310000Y-83330000D02*
X180250000Y-83270000D01*
X187880000Y-73580000D02*
X190640000Y-76340000D01*
X163405000Y-63745000D02*
X171501072Y-63745000D01*
X194370000Y-83330000D02*
X180310000Y-83330000D01*
%TO.N,GND*%
X157955000Y-57580000D02*
X157955000Y-60613333D01*
D20*
X193430000Y-44120000D02*
X193435406Y-44114594D01*
X193435406Y-44114594D02*
X194300003Y-44114594D01*
X193420000Y-44120000D02*
X193430000Y-44120000D01*
%TO.N,/8266_IO15*%
X187971000Y-66471000D02*
X184030000Y-62530000D01*
X209010000Y-56910000D02*
X208980000Y-56940000D01*
X209010000Y-56910000D02*
X199449000Y-66471000D01*
X199449000Y-66471000D02*
X187971000Y-66471000D01*
%TO.N,/8266_IO5*%
X213120000Y-51525000D02*
X216060000Y-54465000D01*
X216060000Y-82352500D02*
X214180000Y-84232500D01*
X216060000Y-54465000D02*
X216060000Y-82352500D01*
%TO.N,/8266_IO4*%
X213192500Y-86772500D02*
X214180000Y-86772500D01*
X212670000Y-86270000D02*
X212690000Y-86270000D01*
X212670000Y-55250000D02*
X212670000Y-86270000D01*
X212690000Y-86270000D02*
X213192500Y-86772500D01*
X213290000Y-54630000D02*
X212670000Y-55250000D01*
%TO.N,/8266_IO13*%
X183310000Y-61870000D02*
X189480000Y-61870000D01*
X189480000Y-61870000D02*
X189500000Y-61850000D01*
%TO.N,/FB_U1.1*%
X202530000Y-79890000D02*
X202550000Y-79910000D01*
X183885000Y-79890000D02*
X202530000Y-79890000D01*
X182445000Y-78450000D02*
X183885000Y-79890000D01*
%TO.N,Net-(U3.1-VFB)*%
X185115000Y-96310000D02*
X204430000Y-96310000D01*
X182665000Y-93860000D02*
X185115000Y-96310000D01*
%TO.N,/8266_RST*%
X187950000Y-48280000D02*
X190640000Y-45590000D01*
X187950000Y-54640000D02*
X187950000Y-48280000D01*
X190640000Y-45590000D02*
X191220000Y-45010000D01*
X191220000Y-45010000D02*
X193750000Y-45010000D01*
%TO.N,/8266_TX*%
X185662000Y-66972000D02*
X203628000Y-66972000D01*
X203628000Y-66972000D02*
X204540000Y-66060000D01*
X182370000Y-63680000D02*
X185662000Y-66972000D01*
X212050000Y-47956513D02*
X212050000Y-66100000D01*
X209108915Y-45015428D02*
X212050000Y-47956513D01*
X212050000Y-66100000D02*
X211550000Y-66600000D01*
%TO.N,/8266_RX*%
X184690000Y-77800000D02*
X182190000Y-75300000D01*
X182190000Y-75300000D02*
X182190000Y-69310000D01*
X208660000Y-69600000D02*
X208660000Y-69700000D01*
X209010000Y-46910000D02*
X210860000Y-48760000D01*
X210860000Y-67400000D02*
X208660000Y-69600000D01*
X211180000Y-77800000D02*
X184690000Y-77800000D01*
X210860000Y-48760000D02*
X210860000Y-67400000D01*
%TO.N,/8266_IO2*%
X210220000Y-64720000D02*
X208900000Y-66040000D01*
X209020000Y-54920000D02*
X210220000Y-56120000D01*
X210220000Y-56120000D02*
X210220000Y-64720000D01*
%TO.N,/8266_IO0*%
X194250000Y-51860000D02*
X194570000Y-51860000D01*
X194250000Y-52200000D02*
X194250000Y-52180000D01*
X190420000Y-51860000D02*
X193980000Y-51860000D01*
X194250000Y-52200000D02*
X194250000Y-51860000D01*
X194250000Y-52180000D02*
X194250000Y-52130000D01*
X193980000Y-51860000D02*
X194250000Y-51860000D01*
X194250000Y-65580000D02*
X194250000Y-52200000D01*
X194250000Y-52130000D02*
X193980000Y-51860000D01*
X194250000Y-52180000D02*
X194570000Y-51860000D01*
X194570000Y-51860000D02*
X208050000Y-51860000D01*
X208050000Y-51860000D02*
X209050000Y-52860000D01*
%TO.N,/8266_IO16*%
X158450000Y-48550000D02*
X152520000Y-54480000D01*
X183030000Y-48550000D02*
X158450000Y-48550000D01*
%TO.N,/8266_EN*%
X188840000Y-60210000D02*
X188840000Y-60220000D01*
X178000000Y-60480000D02*
X187360000Y-60480000D01*
X189910000Y-48990000D02*
X194010000Y-48990000D01*
X188860000Y-60480000D02*
X188840000Y-60460000D01*
X190655000Y-61485000D02*
X189650000Y-60480000D01*
X156520000Y-79880000D02*
X158600000Y-79880000D01*
X158600000Y-79880000D02*
X178000000Y-60480000D01*
X188840000Y-60220000D02*
X189100000Y-60480000D01*
X188840000Y-50060000D02*
X189910000Y-48990000D01*
X187360000Y-60480000D02*
X188190000Y-60480000D01*
X189650000Y-60480000D02*
X189100000Y-60480000D01*
X188840000Y-60460000D02*
X188840000Y-60210000D01*
X189100000Y-60480000D02*
X188540000Y-60480000D01*
X188570000Y-60480000D02*
X188540000Y-60480000D01*
X188840000Y-60210000D02*
X188570000Y-60480000D01*
X188540000Y-60480000D02*
X188190000Y-60480000D01*
X188840000Y-60210000D02*
X188840000Y-50060000D01*
X187370000Y-60480000D02*
X187360000Y-60480000D01*
X190655000Y-65820000D02*
X190655000Y-61485000D01*
%TD*%
%TA.AperFunction,Conductor*%
%TO.N,GND*%
G36*
X155442908Y-32511108D02*
G01*
X155488751Y-32563836D01*
X155500042Y-32615426D01*
X155509503Y-43495218D01*
X155509503Y-43495239D01*
X155509545Y-43556243D01*
X155509555Y-43556321D01*
X155509557Y-43556327D01*
X155526984Y-43621142D01*
X155543741Y-43683508D01*
X155543764Y-43683548D01*
X155543776Y-43683591D01*
X155576302Y-43739814D01*
X155576307Y-43739833D01*
X155576311Y-43739831D01*
X155576312Y-43739832D01*
X155609712Y-43797590D01*
X155609713Y-43797591D01*
X155609715Y-43797594D01*
X155609749Y-43797639D01*
X155609766Y-43797661D01*
X155656623Y-43844437D01*
X155656633Y-43844456D01*
X155656638Y-43844452D01*
X155656639Y-43844453D01*
X155702962Y-43890712D01*
X155703002Y-43890735D01*
X155703034Y-43890767D01*
X155758240Y-43922575D01*
X155817136Y-43956525D01*
X155817138Y-43956525D01*
X155817212Y-43956556D01*
X155817217Y-43956557D01*
X155817220Y-43956559D01*
X155879549Y-43973202D01*
X155944453Y-43990545D01*
X155944454Y-43990544D01*
X155944498Y-43990556D01*
X155944539Y-43990556D01*
X155944543Y-43990557D01*
X156010462Y-43990499D01*
X160915915Y-43987115D01*
X160982968Y-44006753D01*
X161028759Y-44059526D01*
X161033783Y-44082583D01*
X161040000Y-44088800D01*
X178820000Y-44088800D01*
X178824107Y-44084692D01*
X178839685Y-44031643D01*
X178892489Y-43985888D01*
X178943911Y-43974682D01*
X193577254Y-43964590D01*
X193644306Y-43984228D01*
X193690097Y-44037001D01*
X193700088Y-44106152D01*
X193671107Y-44169728D01*
X193650680Y-44188575D01*
X193638763Y-44197316D01*
X193630821Y-44200606D01*
X193499711Y-44288211D01*
X193458038Y-44329883D01*
X193450402Y-44335485D01*
X193426101Y-44344280D01*
X193403420Y-44356666D01*
X193387005Y-44358430D01*
X193384703Y-44359264D01*
X193382955Y-44358866D01*
X193377060Y-44359500D01*
X191155929Y-44359500D01*
X191030261Y-44384497D01*
X191030255Y-44384499D01*
X190911874Y-44433534D01*
X190805326Y-44504726D01*
X190805325Y-44504727D01*
X190225330Y-45084724D01*
X187444722Y-47865331D01*
X187444718Y-47865336D01*
X187421892Y-47899500D01*
X187421892Y-47899501D01*
X187373534Y-47971874D01*
X187324499Y-48090255D01*
X187324497Y-48090261D01*
X187299500Y-48215928D01*
X187299500Y-54135064D01*
X187279815Y-54202103D01*
X187278603Y-54203954D01*
X187240608Y-54260817D01*
X187240602Y-54260828D01*
X187180264Y-54406498D01*
X187180261Y-54406510D01*
X187149500Y-54561153D01*
X187149500Y-54718846D01*
X187180261Y-54873489D01*
X187180264Y-54873501D01*
X187240602Y-55019172D01*
X187240609Y-55019185D01*
X187328210Y-55150288D01*
X187328213Y-55150292D01*
X187439707Y-55261786D01*
X187439711Y-55261789D01*
X187570814Y-55349390D01*
X187570827Y-55349397D01*
X187710499Y-55407250D01*
X187716503Y-55409737D01*
X187858695Y-55438021D01*
X187871153Y-55440499D01*
X187871156Y-55440500D01*
X187871158Y-55440500D01*
X188028843Y-55440500D01*
X188033474Y-55439578D01*
X188041304Y-55438021D01*
X188110895Y-55444245D01*
X188166074Y-55487106D01*
X188189322Y-55552994D01*
X188189500Y-55559637D01*
X188189500Y-59562152D01*
X188169815Y-59629191D01*
X188117011Y-59674946D01*
X188089692Y-59683769D01*
X187956508Y-59710261D01*
X187956498Y-59710264D01*
X187810827Y-59770602D01*
X187810820Y-59770606D01*
X187781928Y-59789911D01*
X187753955Y-59808602D01*
X187687279Y-59829480D01*
X187685065Y-59829500D01*
X177935929Y-59829500D01*
X177810261Y-59854497D01*
X177810255Y-59854499D01*
X177691874Y-59903534D01*
X177585326Y-59974726D01*
X177585325Y-59974727D01*
X158366873Y-79193181D01*
X158305550Y-79226666D01*
X158279192Y-79229500D01*
X157024935Y-79229500D01*
X156957896Y-79209815D01*
X156956090Y-79208633D01*
X156899179Y-79170606D01*
X156899172Y-79170602D01*
X156753501Y-79110264D01*
X156753489Y-79110261D01*
X156598845Y-79079500D01*
X156598842Y-79079500D01*
X156441158Y-79079500D01*
X156441155Y-79079500D01*
X156286510Y-79110261D01*
X156286498Y-79110264D01*
X156140827Y-79170602D01*
X156140814Y-79170609D01*
X156009711Y-79258210D01*
X156009707Y-79258213D01*
X155898213Y-79369707D01*
X155898210Y-79369711D01*
X155810609Y-79500814D01*
X155810602Y-79500827D01*
X155750264Y-79646498D01*
X155750261Y-79646510D01*
X155719500Y-79801153D01*
X155719500Y-79958846D01*
X155750261Y-80113489D01*
X155750264Y-80113501D01*
X155810602Y-80259172D01*
X155810609Y-80259185D01*
X155898210Y-80390288D01*
X155898213Y-80390292D01*
X156009707Y-80501786D01*
X156009711Y-80501789D01*
X156140814Y-80589390D01*
X156140827Y-80589397D01*
X156286498Y-80649735D01*
X156286503Y-80649737D01*
X156437312Y-80679735D01*
X156441153Y-80680499D01*
X156441156Y-80680500D01*
X156441158Y-80680500D01*
X156598844Y-80680500D01*
X156598845Y-80680499D01*
X156753497Y-80649737D01*
X156899179Y-80589394D01*
X156956044Y-80551397D01*
X157022721Y-80530520D01*
X157024935Y-80530500D01*
X158664071Y-80530500D01*
X158748615Y-80513682D01*
X158789744Y-80505501D01*
X158908127Y-80456465D01*
X159014669Y-80385277D01*
X160206765Y-79193181D01*
X161028794Y-78371153D01*
X181644500Y-78371153D01*
X181644500Y-78528846D01*
X181675261Y-78683489D01*
X181675264Y-78683501D01*
X181735602Y-78829172D01*
X181735609Y-78829185D01*
X181823210Y-78960288D01*
X181823213Y-78960292D01*
X181934707Y-79071786D01*
X181934711Y-79071789D01*
X182065814Y-79159390D01*
X182065827Y-79159397D01*
X182147391Y-79193181D01*
X182211503Y-79219737D01*
X182278580Y-79233079D01*
X182340488Y-79265461D01*
X182342068Y-79267014D01*
X183470325Y-80395272D01*
X183470332Y-80395278D01*
X183576863Y-80466459D01*
X183576865Y-80466460D01*
X183576874Y-80466466D01*
X183625155Y-80486464D01*
X183625156Y-80486465D01*
X183625157Y-80486465D01*
X183695256Y-80515501D01*
X183695260Y-80515501D01*
X183695261Y-80515502D01*
X183820928Y-80540500D01*
X183820931Y-80540500D01*
X183820932Y-80540500D01*
X183949069Y-80540500D01*
X196473482Y-80540500D01*
X196540521Y-80560185D01*
X196586276Y-80612989D01*
X196596220Y-80682147D01*
X196579600Y-80728648D01*
X196571210Y-80742527D01*
X196521322Y-80902623D01*
X196515000Y-80972201D01*
X196515000Y-82571446D01*
X197167037Y-81919408D01*
X197184075Y-81982993D01*
X197249901Y-82097007D01*
X197342993Y-82190099D01*
X197457007Y-82255925D01*
X197520589Y-82272962D01*
X196735269Y-83058283D01*
X196776528Y-83099542D01*
X196776532Y-83099545D01*
X196920026Y-83186289D01*
X197080123Y-83236177D01*
X197149701Y-83242499D01*
X198150308Y-83242499D01*
X198219875Y-83236178D01*
X198219883Y-83236176D01*
X198379970Y-83186291D01*
X198379972Y-83186290D01*
X198523467Y-83099545D01*
X198523471Y-83099542D01*
X198564731Y-83058283D01*
X197779410Y-82272962D01*
X197842993Y-82255925D01*
X197957007Y-82190099D01*
X198050099Y-82097007D01*
X198115925Y-81982993D01*
X198132962Y-81919411D01*
X198784998Y-82571447D01*
X198784999Y-82571446D01*
X198784999Y-80972191D01*
X198778678Y-80902624D01*
X198778676Y-80902616D01*
X198728791Y-80742529D01*
X198720400Y-80728648D01*
X198702565Y-80661093D01*
X198724084Y-80594619D01*
X198778125Y-80550333D01*
X198826518Y-80540500D01*
X202015133Y-80540500D01*
X202082172Y-80560185D01*
X202084024Y-80561398D01*
X202170821Y-80619394D01*
X202170823Y-80619395D01*
X202170827Y-80619397D01*
X202244078Y-80649738D01*
X202316503Y-80679737D01*
X202471153Y-80710499D01*
X202471156Y-80710500D01*
X202471158Y-80710500D01*
X202628844Y-80710500D01*
X202628845Y-80710499D01*
X202783497Y-80679737D01*
X202929179Y-80619394D01*
X203060289Y-80531789D01*
X203171789Y-80420289D01*
X203259394Y-80289179D01*
X203319737Y-80143497D01*
X203350500Y-79988842D01*
X203350500Y-79831158D01*
X203350500Y-79831155D01*
X203350499Y-79831153D01*
X203319738Y-79676510D01*
X203319737Y-79676503D01*
X203307309Y-79646498D01*
X203259397Y-79530827D01*
X203259390Y-79530814D01*
X203171789Y-79399711D01*
X203171786Y-79399707D01*
X203060292Y-79288213D01*
X203060288Y-79288210D01*
X202929185Y-79200609D01*
X202929172Y-79200602D01*
X202783501Y-79140264D01*
X202783489Y-79140261D01*
X202628845Y-79109500D01*
X202628842Y-79109500D01*
X202471158Y-79109500D01*
X202471155Y-79109500D01*
X202316510Y-79140261D01*
X202316498Y-79140264D01*
X202170827Y-79200602D01*
X202170812Y-79200610D01*
X202143889Y-79218601D01*
X202077212Y-79239480D01*
X202074997Y-79239500D01*
X184205808Y-79239500D01*
X184138769Y-79219815D01*
X184118127Y-79203181D01*
X183262015Y-78347069D01*
X183228530Y-78285746D01*
X183228093Y-78283652D01*
X183214737Y-78216503D01*
X183165769Y-78098283D01*
X183154397Y-78070827D01*
X183154390Y-78070814D01*
X183066789Y-77939711D01*
X183066786Y-77939707D01*
X182955292Y-77828213D01*
X182955288Y-77828210D01*
X182824185Y-77740609D01*
X182824172Y-77740602D01*
X182678501Y-77680264D01*
X182678489Y-77680261D01*
X182523845Y-77649500D01*
X182523842Y-77649500D01*
X182366158Y-77649500D01*
X182366155Y-77649500D01*
X182211510Y-77680261D01*
X182211498Y-77680264D01*
X182065827Y-77740602D01*
X182065814Y-77740609D01*
X181934711Y-77828210D01*
X181934707Y-77828213D01*
X181823213Y-77939707D01*
X181823210Y-77939711D01*
X181735609Y-78070814D01*
X181735602Y-78070827D01*
X181675264Y-78216498D01*
X181675261Y-78216510D01*
X181644500Y-78371153D01*
X161028794Y-78371153D01*
X161440707Y-77959240D01*
X163351396Y-76048551D01*
X169255000Y-76048551D01*
X169255000Y-77611447D01*
X169907037Y-76959410D01*
X169924075Y-77022993D01*
X169989901Y-77137007D01*
X170082993Y-77230099D01*
X170197007Y-77295925D01*
X170260589Y-77312962D01*
X169475269Y-78098283D01*
X169516528Y-78139542D01*
X169516532Y-78139545D01*
X169660026Y-78226289D01*
X169820123Y-78276177D01*
X169889701Y-78282499D01*
X170890308Y-78282499D01*
X170959875Y-78276178D01*
X170959883Y-78276176D01*
X171054538Y-78246681D01*
X171119970Y-78226291D01*
X171119972Y-78226290D01*
X171263467Y-78139545D01*
X171263471Y-78139542D01*
X171304731Y-78098283D01*
X170519410Y-77312962D01*
X170582993Y-77295925D01*
X170697007Y-77230099D01*
X170790099Y-77137007D01*
X170855925Y-77022993D01*
X170872962Y-76959411D01*
X171524998Y-77611447D01*
X171524999Y-77611446D01*
X171524999Y-76048552D01*
X171524998Y-76048551D01*
X170872962Y-76700588D01*
X170855925Y-76637007D01*
X170790099Y-76522993D01*
X170697007Y-76429901D01*
X170582993Y-76364075D01*
X170519410Y-76347037D01*
X171304731Y-75561717D01*
X171263471Y-75520457D01*
X171263467Y-75520454D01*
X171119973Y-75433710D01*
X170959876Y-75383822D01*
X170890298Y-75377500D01*
X169889691Y-75377500D01*
X169820124Y-75383821D01*
X169820116Y-75383823D01*
X169660029Y-75433708D01*
X169660027Y-75433709D01*
X169516532Y-75520454D01*
X169516528Y-75520457D01*
X169475269Y-75561717D01*
X170260589Y-76347037D01*
X170197007Y-76364075D01*
X170082993Y-76429901D01*
X169989901Y-76522993D01*
X169924075Y-76637007D01*
X169907037Y-76700588D01*
X169255000Y-76048551D01*
X163351396Y-76048551D01*
X163977273Y-75422674D01*
X178233127Y-61166819D01*
X178294450Y-61133334D01*
X178320808Y-61130500D01*
X182618059Y-61130500D01*
X182685098Y-61150185D01*
X182730853Y-61202989D01*
X182740797Y-61272147D01*
X182711772Y-61335703D01*
X182705740Y-61342181D01*
X182688213Y-61359707D01*
X182688210Y-61359711D01*
X182600609Y-61490814D01*
X182600602Y-61490827D01*
X182540264Y-61636498D01*
X182540261Y-61636510D01*
X182509500Y-61791153D01*
X182509500Y-61948846D01*
X182540261Y-62103489D01*
X182540264Y-62103501D01*
X182600602Y-62249172D01*
X182600609Y-62249185D01*
X182688210Y-62380288D01*
X182688213Y-62380292D01*
X182799707Y-62491786D01*
X182799711Y-62491789D01*
X182930814Y-62579390D01*
X182930827Y-62579397D01*
X183076498Y-62639735D01*
X183076503Y-62639737D01*
X183112745Y-62646946D01*
X183160939Y-62656533D01*
X183222850Y-62688918D01*
X183257424Y-62749634D01*
X183258365Y-62753957D01*
X183260261Y-62763491D01*
X183260263Y-62763498D01*
X183320602Y-62909172D01*
X183320609Y-62909185D01*
X183408210Y-63040288D01*
X183408213Y-63040292D01*
X183519707Y-63151786D01*
X183519711Y-63151789D01*
X183650814Y-63239390D01*
X183650827Y-63239397D01*
X183738230Y-63275599D01*
X183796503Y-63299737D01*
X183863580Y-63313079D01*
X183925490Y-63345463D01*
X183927069Y-63347015D01*
X186689873Y-66109819D01*
X186723358Y-66171142D01*
X186718374Y-66240834D01*
X186676502Y-66296767D01*
X186611038Y-66321184D01*
X186602192Y-66321500D01*
X185982808Y-66321500D01*
X185915769Y-66301815D01*
X185895127Y-66285181D01*
X183187015Y-63577069D01*
X183153530Y-63515746D01*
X183153093Y-63513652D01*
X183139737Y-63446503D01*
X183084471Y-63313078D01*
X183079397Y-63300827D01*
X183079390Y-63300814D01*
X182991789Y-63169711D01*
X182991786Y-63169707D01*
X182880292Y-63058213D01*
X182880288Y-63058210D01*
X182749185Y-62970609D01*
X182749172Y-62970602D01*
X182603501Y-62910264D01*
X182603489Y-62910261D01*
X182448845Y-62879500D01*
X182448842Y-62879500D01*
X182291158Y-62879500D01*
X182291155Y-62879500D01*
X182136510Y-62910261D01*
X182136498Y-62910264D01*
X181990827Y-62970602D01*
X181990814Y-62970609D01*
X181859711Y-63058210D01*
X181859707Y-63058213D01*
X181748213Y-63169707D01*
X181748210Y-63169711D01*
X181660609Y-63300814D01*
X181660602Y-63300827D01*
X181600264Y-63446498D01*
X181600261Y-63446510D01*
X181569500Y-63601153D01*
X181569500Y-63758846D01*
X181600261Y-63913489D01*
X181600264Y-63913501D01*
X181660602Y-64059172D01*
X181660609Y-64059185D01*
X181748210Y-64190288D01*
X181748213Y-64190292D01*
X181859707Y-64301786D01*
X181859711Y-64301789D01*
X181990814Y-64389390D01*
X181990827Y-64389397D01*
X182061278Y-64418578D01*
X182136503Y-64449737D01*
X182203580Y-64463079D01*
X182265488Y-64495461D01*
X182267068Y-64497014D01*
X185247325Y-67477272D01*
X185247332Y-67477278D01*
X185311650Y-67520253D01*
X185311652Y-67520254D01*
X185311655Y-67520256D01*
X185353873Y-67548465D01*
X185472256Y-67597501D01*
X185472260Y-67597501D01*
X185472261Y-67597502D01*
X185597928Y-67622500D01*
X185597931Y-67622500D01*
X186955500Y-67622500D01*
X187022539Y-67642185D01*
X187068294Y-67694989D01*
X187079500Y-67746500D01*
X187079500Y-67788846D01*
X187110261Y-67943489D01*
X187110264Y-67943501D01*
X187170061Y-68087864D01*
X187179500Y-68135316D01*
X187179500Y-73511006D01*
X187179500Y-73648994D01*
X187179500Y-73648996D01*
X187179499Y-73648996D01*
X187206418Y-73784322D01*
X187206421Y-73784332D01*
X187259222Y-73911807D01*
X187335887Y-74026545D01*
X187335888Y-74026546D01*
X189438513Y-76129169D01*
X190095886Y-76786542D01*
X190193458Y-76884114D01*
X190257335Y-76926796D01*
X190263311Y-76932001D01*
X190278028Y-76955034D01*
X190295558Y-76976010D01*
X190296567Y-76984050D01*
X190300931Y-76990879D01*
X190300859Y-77018216D01*
X190304265Y-77045335D01*
X190300768Y-77052643D01*
X190300747Y-77060748D01*
X190285906Y-77083707D01*
X190274110Y-77108363D01*
X190267216Y-77112621D01*
X190262818Y-77119426D01*
X190237923Y-77130715D01*
X190214667Y-77145082D01*
X190202689Y-77146695D01*
X190199186Y-77148284D01*
X190195212Y-77147702D01*
X190181862Y-77149500D01*
X185010808Y-77149500D01*
X184943769Y-77129815D01*
X184923127Y-77113181D01*
X182876819Y-75066873D01*
X182843334Y-75005550D01*
X182840500Y-74979192D01*
X182840500Y-69814935D01*
X182860185Y-69747896D01*
X182861366Y-69746090D01*
X182899394Y-69689179D01*
X182959737Y-69543497D01*
X182990500Y-69388842D01*
X182990500Y-69231158D01*
X182990500Y-69231155D01*
X182990499Y-69231153D01*
X182960077Y-69078213D01*
X182959737Y-69076503D01*
X182904058Y-68942080D01*
X182899397Y-68930827D01*
X182899390Y-68930814D01*
X182811789Y-68799711D01*
X182811786Y-68799707D01*
X182700292Y-68688213D01*
X182700288Y-68688210D01*
X182569185Y-68600609D01*
X182569172Y-68600602D01*
X182423501Y-68540264D01*
X182423489Y-68540261D01*
X182268845Y-68509500D01*
X182268842Y-68509500D01*
X182111158Y-68509500D01*
X182111155Y-68509500D01*
X181956510Y-68540261D01*
X181956498Y-68540264D01*
X181810827Y-68600602D01*
X181810814Y-68600609D01*
X181679711Y-68688210D01*
X181679707Y-68688213D01*
X181568213Y-68799707D01*
X181568210Y-68799711D01*
X181480609Y-68930814D01*
X181480602Y-68930827D01*
X181420264Y-69076498D01*
X181420261Y-69076510D01*
X181389500Y-69231153D01*
X181389500Y-69388846D01*
X181420261Y-69543489D01*
X181420264Y-69543501D01*
X181480602Y-69689172D01*
X181480606Y-69689179D01*
X181518602Y-69746044D01*
X181539480Y-69812721D01*
X181539500Y-69814935D01*
X181539500Y-75364071D01*
X181557263Y-75453368D01*
X181557263Y-75453369D01*
X181564496Y-75489737D01*
X181564498Y-75489742D01*
X181577220Y-75520454D01*
X181613535Y-75608127D01*
X181684723Y-75714669D01*
X181684726Y-75714673D01*
X184275326Y-78305273D01*
X184275329Y-78305275D01*
X184275331Y-78305277D01*
X184381873Y-78376465D01*
X184500256Y-78425501D01*
X184500260Y-78425501D01*
X184500261Y-78425502D01*
X184625928Y-78450500D01*
X184625931Y-78450500D01*
X210675065Y-78450500D01*
X210742104Y-78470185D01*
X210743909Y-78471366D01*
X210800821Y-78509394D01*
X210800823Y-78509395D01*
X210800827Y-78509397D01*
X210946498Y-78569735D01*
X210946503Y-78569737D01*
X211101153Y-78600499D01*
X211101156Y-78600500D01*
X211101158Y-78600500D01*
X211258844Y-78600500D01*
X211258845Y-78600499D01*
X211413497Y-78569737D01*
X211559179Y-78509394D01*
X211690289Y-78421789D01*
X211741462Y-78370616D01*
X211806097Y-78305982D01*
X211807601Y-78307486D01*
X211857372Y-78273571D01*
X211927216Y-78271689D01*
X211986991Y-78307866D01*
X212017718Y-78370616D01*
X212019500Y-78391564D01*
X212019500Y-86205931D01*
X212019500Y-86334069D01*
X212019500Y-86334071D01*
X212019499Y-86334071D01*
X212044497Y-86459738D01*
X212044499Y-86459744D01*
X212093533Y-86578124D01*
X212093538Y-86578133D01*
X212164723Y-86684668D01*
X212164726Y-86684672D01*
X212255328Y-86775274D01*
X212255331Y-86775276D01*
X212305449Y-86808763D01*
X212324238Y-86824184D01*
X212777824Y-87277771D01*
X212777831Y-87277777D01*
X212884371Y-87348964D01*
X212884370Y-87348964D01*
X212919044Y-87363326D01*
X213002756Y-87398001D01*
X213002760Y-87398001D01*
X213002761Y-87398002D01*
X213128428Y-87423000D01*
X213134491Y-87423597D01*
X213134255Y-87425989D01*
X213191114Y-87442685D01*
X213224392Y-87474113D01*
X213275751Y-87544802D01*
X213407698Y-87676749D01*
X213558662Y-87786431D01*
X213724926Y-87871146D01*
X213724928Y-87871147D01*
X213890154Y-87924832D01*
X213947829Y-87964269D01*
X213975028Y-88028628D01*
X213963113Y-88097474D01*
X213915869Y-88148950D01*
X213890155Y-88160694D01*
X213725113Y-88214319D01*
X213558927Y-88298995D01*
X213558923Y-88298998D01*
X213536408Y-88315354D01*
X213536408Y-88315356D01*
X214042425Y-88821371D01*
X213983147Y-88837255D01*
X213866853Y-88904398D01*
X213771898Y-88999353D01*
X213704755Y-89115647D01*
X213688871Y-89174924D01*
X213182856Y-88668908D01*
X213182854Y-88668908D01*
X213166498Y-88691423D01*
X213166495Y-88691427D01*
X213081819Y-88857615D01*
X213024178Y-89035015D01*
X212995000Y-89219238D01*
X212995000Y-89405761D01*
X213024178Y-89589984D01*
X213081819Y-89767384D01*
X213166498Y-89933577D01*
X213182854Y-89956090D01*
X213182855Y-89956090D01*
X213688871Y-89450074D01*
X213704755Y-89509353D01*
X213771898Y-89625647D01*
X213866853Y-89720602D01*
X213983147Y-89787745D01*
X214042424Y-89803628D01*
X213536408Y-90309643D01*
X213536408Y-90309644D01*
X213558918Y-90325999D01*
X213640398Y-90367515D01*
X213691194Y-90415490D01*
X213707989Y-90483311D01*
X213685452Y-90549446D01*
X213630736Y-90592897D01*
X213586427Y-90601546D01*
X213586433Y-90601618D01*
X213585808Y-90601667D01*
X213584103Y-90602000D01*
X213581578Y-90602000D01*
X213387173Y-90632790D01*
X213199970Y-90693617D01*
X213024594Y-90782976D01*
X212933741Y-90848985D01*
X212865354Y-90898672D01*
X212865352Y-90898674D01*
X212865351Y-90898674D01*
X212726174Y-91037851D01*
X212726174Y-91037852D01*
X212726172Y-91037854D01*
X212676485Y-91106241D01*
X212610476Y-91197094D01*
X212521117Y-91372470D01*
X212460290Y-91559673D01*
X212429500Y-91754077D01*
X212429500Y-91950922D01*
X212460290Y-92145326D01*
X212521117Y-92332529D01*
X212596847Y-92481157D01*
X212610476Y-92507905D01*
X212726172Y-92667146D01*
X212865354Y-92806328D01*
X213024595Y-92922024D01*
X213106405Y-92963708D01*
X213199970Y-93011382D01*
X213199972Y-93011382D01*
X213199975Y-93011384D01*
X213231777Y-93021717D01*
X213387173Y-93072209D01*
X213581578Y-93103000D01*
X213581583Y-93103000D01*
X214778422Y-93103000D01*
X214972826Y-93072209D01*
X215039771Y-93050457D01*
X215160025Y-93011384D01*
X215335405Y-92922024D01*
X215494646Y-92806328D01*
X215633828Y-92667146D01*
X215749524Y-92507905D01*
X215838884Y-92332525D01*
X215899709Y-92145326D01*
X215920488Y-92014133D01*
X215930500Y-91950922D01*
X215930500Y-91754077D01*
X215899709Y-91559673D01*
X215871487Y-91472817D01*
X215838884Y-91372475D01*
X215838882Y-91372472D01*
X215838882Y-91372470D01*
X215749523Y-91197094D01*
X215724200Y-91162240D01*
X215633828Y-91037854D01*
X215494646Y-90898672D01*
X215335405Y-90782976D01*
X215160029Y-90693617D01*
X214972826Y-90632790D01*
X214778422Y-90602000D01*
X214778417Y-90602000D01*
X214775898Y-90602000D01*
X214774973Y-90601728D01*
X214773567Y-90601618D01*
X214773590Y-90601322D01*
X214708859Y-90582315D01*
X214663104Y-90529511D01*
X214653160Y-90460353D01*
X214682185Y-90396797D01*
X214719603Y-90367515D01*
X214801075Y-90326002D01*
X214823590Y-90309643D01*
X214823591Y-90309643D01*
X214317575Y-89803627D01*
X214376853Y-89787745D01*
X214493147Y-89720602D01*
X214588102Y-89625647D01*
X214655245Y-89509353D01*
X214671127Y-89450075D01*
X215177143Y-89956091D01*
X215177143Y-89956090D01*
X215193502Y-89933575D01*
X215278180Y-89767384D01*
X215335821Y-89589984D01*
X215365000Y-89405761D01*
X215365000Y-89219238D01*
X215335821Y-89035015D01*
X215278180Y-88857615D01*
X215193499Y-88691418D01*
X215177144Y-88668908D01*
X215177143Y-88668908D01*
X214671127Y-89174923D01*
X214655245Y-89115647D01*
X214588102Y-88999353D01*
X214493147Y-88904398D01*
X214376853Y-88837255D01*
X214317574Y-88821371D01*
X214823590Y-88315355D01*
X214823590Y-88315354D01*
X214801077Y-88298998D01*
X214634884Y-88214319D01*
X214469845Y-88160694D01*
X214412169Y-88121256D01*
X214384971Y-88056898D01*
X214396886Y-87988051D01*
X214444130Y-87936576D01*
X214469845Y-87924832D01*
X214635071Y-87871147D01*
X214635071Y-87871146D01*
X214635074Y-87871146D01*
X214801338Y-87786431D01*
X214952302Y-87676749D01*
X215084249Y-87544802D01*
X215193931Y-87393838D01*
X215278646Y-87227574D01*
X215336309Y-87050105D01*
X215365500Y-86865801D01*
X215365500Y-86679199D01*
X215336309Y-86494895D01*
X215336308Y-86494891D01*
X215336308Y-86494890D01*
X215278647Y-86317428D01*
X215278645Y-86317425D01*
X215221837Y-86205931D01*
X215193931Y-86151162D01*
X215084249Y-86000198D01*
X214952302Y-85868251D01*
X214801338Y-85758569D01*
X214635074Y-85673854D01*
X214635071Y-85673852D01*
X214470656Y-85620431D01*
X214412980Y-85580994D01*
X214385782Y-85516635D01*
X214397697Y-85447789D01*
X214444941Y-85396313D01*
X214470656Y-85384569D01*
X214635071Y-85331147D01*
X214635071Y-85331146D01*
X214635074Y-85331146D01*
X214801338Y-85246431D01*
X214952302Y-85136749D01*
X215084249Y-85004802D01*
X215193931Y-84853838D01*
X215278646Y-84687574D01*
X215336309Y-84510105D01*
X215365500Y-84325801D01*
X215365500Y-84139199D01*
X215351831Y-84052900D01*
X215360785Y-83983607D01*
X215386620Y-83945824D01*
X216565276Y-82767170D01*
X216636465Y-82660627D01*
X216685501Y-82542244D01*
X216688036Y-82529500D01*
X216710500Y-82416569D01*
X216710500Y-54400931D01*
X216710500Y-54400928D01*
X216685502Y-54275261D01*
X216685501Y-54275260D01*
X216685501Y-54275256D01*
X216636465Y-54156873D01*
X216614984Y-54124724D01*
X216614984Y-54124723D01*
X216565275Y-54050328D01*
X216565272Y-54050325D01*
X213937014Y-51422068D01*
X213903529Y-51360745D01*
X213903105Y-51358714D01*
X213889737Y-51291503D01*
X213847617Y-51189815D01*
X213829397Y-51145827D01*
X213829390Y-51145814D01*
X213741789Y-51014711D01*
X213741786Y-51014707D01*
X213630292Y-50903213D01*
X213630288Y-50903210D01*
X213499185Y-50815609D01*
X213499172Y-50815602D01*
X213353501Y-50755264D01*
X213353489Y-50755261D01*
X213198845Y-50724500D01*
X213198842Y-50724500D01*
X213041158Y-50724500D01*
X213041155Y-50724500D01*
X212886510Y-50755261D01*
X212886499Y-50755264D01*
X212871948Y-50761291D01*
X212802478Y-50768757D01*
X212740000Y-50737479D01*
X212704350Y-50677389D01*
X212700500Y-50646728D01*
X212700500Y-47892441D01*
X212675502Y-47766774D01*
X212675501Y-47766773D01*
X212675501Y-47766769D01*
X212626465Y-47648386D01*
X212567742Y-47560500D01*
X212567742Y-47560499D01*
X212555276Y-47541843D01*
X212555271Y-47541837D01*
X209925929Y-44912496D01*
X209892444Y-44851173D01*
X209892020Y-44849142D01*
X209878652Y-44781931D01*
X209834981Y-44676498D01*
X209818312Y-44636255D01*
X209818305Y-44636242D01*
X209730704Y-44505139D01*
X209730701Y-44505135D01*
X209619207Y-44393641D01*
X209619203Y-44393638D01*
X209488100Y-44306037D01*
X209488087Y-44306030D01*
X209342416Y-44245692D01*
X209342404Y-44245689D01*
X209187760Y-44214928D01*
X209187757Y-44214928D01*
X209030073Y-44214928D01*
X209030070Y-44214928D01*
X208875425Y-44245689D01*
X208875413Y-44245692D01*
X208729742Y-44306030D01*
X208729729Y-44306037D01*
X208598626Y-44393638D01*
X208598622Y-44393641D01*
X208487128Y-44505135D01*
X208487125Y-44505139D01*
X208399524Y-44636242D01*
X208399517Y-44636255D01*
X208339179Y-44781926D01*
X208339176Y-44781938D01*
X208308415Y-44936581D01*
X208308415Y-45094274D01*
X208339176Y-45248917D01*
X208339179Y-45248929D01*
X208399517Y-45394600D01*
X208399524Y-45394613D01*
X208487125Y-45525716D01*
X208487128Y-45525720D01*
X208598622Y-45637214D01*
X208598626Y-45637217D01*
X208729729Y-45724818D01*
X208729742Y-45724825D01*
X208817145Y-45761027D01*
X208875418Y-45785165D01*
X208942495Y-45798507D01*
X208959252Y-45807272D01*
X208977730Y-45811292D01*
X209002764Y-45830032D01*
X209004405Y-45830891D01*
X209005984Y-45832443D01*
X209071360Y-45897819D01*
X209104845Y-45959142D01*
X209099861Y-46028834D01*
X209057989Y-46084767D01*
X208992525Y-46109184D01*
X208983679Y-46109500D01*
X208931155Y-46109500D01*
X208776510Y-46140261D01*
X208776498Y-46140264D01*
X208630827Y-46200602D01*
X208630814Y-46200609D01*
X208499711Y-46288210D01*
X208499707Y-46288213D01*
X208388213Y-46399707D01*
X208388210Y-46399711D01*
X208300609Y-46530814D01*
X208300602Y-46530827D01*
X208240264Y-46676498D01*
X208240261Y-46676510D01*
X208209500Y-46831153D01*
X208209500Y-46988846D01*
X208240261Y-47143489D01*
X208240264Y-47143501D01*
X208300602Y-47289172D01*
X208300609Y-47289185D01*
X208388210Y-47420288D01*
X208388213Y-47420292D01*
X208499707Y-47531786D01*
X208499711Y-47531789D01*
X208630814Y-47619390D01*
X208630827Y-47619397D01*
X208700814Y-47648386D01*
X208776503Y-47679737D01*
X208843580Y-47693079D01*
X208905490Y-47725463D01*
X208907069Y-47727015D01*
X210173181Y-48993127D01*
X210206666Y-49054450D01*
X210209500Y-49080808D01*
X210209500Y-54890192D01*
X210203261Y-54911437D01*
X210201682Y-54933526D01*
X210193609Y-54944309D01*
X210189815Y-54957231D01*
X210173081Y-54971730D01*
X210159810Y-54989459D01*
X210147189Y-54994166D01*
X210137011Y-55002986D01*
X210115093Y-55006137D01*
X210094346Y-55013876D01*
X210081185Y-55011013D01*
X210067853Y-55012930D01*
X210047709Y-55003730D01*
X210026073Y-54999024D01*
X210008347Y-54985755D01*
X210004297Y-54983905D01*
X209997819Y-54977873D01*
X209837015Y-54817069D01*
X209803530Y-54755746D01*
X209803093Y-54753652D01*
X209789737Y-54686503D01*
X209737816Y-54561153D01*
X209729397Y-54540827D01*
X209729390Y-54540814D01*
X209641789Y-54409711D01*
X209641786Y-54409707D01*
X209530292Y-54298213D01*
X209530288Y-54298210D01*
X209399185Y-54210609D01*
X209399172Y-54210602D01*
X209253501Y-54150264D01*
X209253489Y-54150261D01*
X209098845Y-54119500D01*
X209098842Y-54119500D01*
X208941158Y-54119500D01*
X208941155Y-54119500D01*
X208786510Y-54150261D01*
X208786498Y-54150264D01*
X208640827Y-54210602D01*
X208640814Y-54210609D01*
X208509711Y-54298210D01*
X208509707Y-54298213D01*
X208398213Y-54409707D01*
X208398210Y-54409711D01*
X208310609Y-54540814D01*
X208310602Y-54540827D01*
X208250264Y-54686498D01*
X208250261Y-54686510D01*
X208219500Y-54841153D01*
X208219500Y-54998846D01*
X208250261Y-55153489D01*
X208250264Y-55153501D01*
X208310602Y-55299172D01*
X208310609Y-55299185D01*
X208398210Y-55430288D01*
X208398213Y-55430292D01*
X208509707Y-55541786D01*
X208509711Y-55541789D01*
X208640814Y-55629390D01*
X208640827Y-55629397D01*
X208728230Y-55665599D01*
X208786503Y-55689737D01*
X208853580Y-55703079D01*
X208870337Y-55711844D01*
X208888815Y-55715864D01*
X208913849Y-55734604D01*
X208915490Y-55735463D01*
X208917069Y-55737015D01*
X209077873Y-55897819D01*
X209111358Y-55959142D01*
X209106374Y-56028834D01*
X209064502Y-56084767D01*
X208999038Y-56109184D01*
X208990192Y-56109500D01*
X208931155Y-56109500D01*
X208776510Y-56140261D01*
X208776498Y-56140264D01*
X208630827Y-56200602D01*
X208630814Y-56200609D01*
X208499711Y-56288210D01*
X208499707Y-56288213D01*
X208388213Y-56399707D01*
X208388210Y-56399711D01*
X208300609Y-56530814D01*
X208300602Y-56530827D01*
X208240264Y-56676498D01*
X208240261Y-56676508D01*
X208226920Y-56743579D01*
X208194535Y-56805490D01*
X208192984Y-56807068D01*
X199215873Y-65784181D01*
X199154550Y-65817666D01*
X199128192Y-65820500D01*
X195169439Y-65820500D01*
X195102400Y-65800815D01*
X195056645Y-65748011D01*
X195046701Y-65678853D01*
X195047822Y-65672309D01*
X195050499Y-65658846D01*
X195050500Y-65658844D01*
X195050500Y-65501155D01*
X195050499Y-65501153D01*
X195019737Y-65346503D01*
X194988157Y-65270261D01*
X194959397Y-65200828D01*
X194959396Y-65200827D01*
X194959394Y-65200821D01*
X194921396Y-65143953D01*
X194900520Y-65077276D01*
X194900500Y-65075064D01*
X194900500Y-52634500D01*
X194920185Y-52567461D01*
X194972989Y-52521706D01*
X195024500Y-52510500D01*
X207729192Y-52510500D01*
X207796231Y-52530185D01*
X207816873Y-52546819D01*
X208232984Y-52962930D01*
X208266469Y-53024253D01*
X208266920Y-53026420D01*
X208280261Y-53093489D01*
X208280264Y-53093501D01*
X208340602Y-53239172D01*
X208340609Y-53239185D01*
X208428210Y-53370288D01*
X208428213Y-53370292D01*
X208539707Y-53481786D01*
X208539711Y-53481789D01*
X208670814Y-53569390D01*
X208670827Y-53569397D01*
X208816498Y-53629735D01*
X208816503Y-53629737D01*
X208971153Y-53660499D01*
X208971156Y-53660500D01*
X208971158Y-53660500D01*
X209128844Y-53660500D01*
X209128845Y-53660499D01*
X209283497Y-53629737D01*
X209429179Y-53569394D01*
X209560289Y-53481789D01*
X209671789Y-53370289D01*
X209759394Y-53239179D01*
X209819737Y-53093497D01*
X209850500Y-52938842D01*
X209850500Y-52781158D01*
X209850500Y-52781155D01*
X209850499Y-52781153D01*
X209826499Y-52660499D01*
X209819737Y-52626503D01*
X209796082Y-52569394D01*
X209759397Y-52480827D01*
X209759390Y-52480814D01*
X209671789Y-52349711D01*
X209671786Y-52349707D01*
X209560292Y-52238213D01*
X209560288Y-52238210D01*
X209429185Y-52150609D01*
X209429172Y-52150602D01*
X209283501Y-52090264D01*
X209283489Y-52090261D01*
X209216420Y-52076920D01*
X209154509Y-52044535D01*
X209152930Y-52042984D01*
X208464674Y-51354727D01*
X208464673Y-51354726D01*
X208464669Y-51354723D01*
X208358127Y-51283535D01*
X208239744Y-51234499D01*
X208239738Y-51234497D01*
X208114071Y-51209500D01*
X208114069Y-51209500D01*
X194634069Y-51209500D01*
X194314069Y-51209500D01*
X194044069Y-51209500D01*
X190924935Y-51209500D01*
X190857896Y-51189815D01*
X190856090Y-51188633D01*
X190799179Y-51150606D01*
X190799172Y-51150602D01*
X190653501Y-51090264D01*
X190653489Y-51090261D01*
X190498845Y-51059500D01*
X190498842Y-51059500D01*
X190341158Y-51059500D01*
X190341155Y-51059500D01*
X190186510Y-51090261D01*
X190186498Y-51090264D01*
X190040827Y-51150602D01*
X190040814Y-51150609D01*
X189909711Y-51238210D01*
X189909707Y-51238213D01*
X189798213Y-51349707D01*
X189798210Y-51349711D01*
X189717602Y-51470349D01*
X189663989Y-51515154D01*
X189594664Y-51523861D01*
X189531637Y-51493706D01*
X189494918Y-51434263D01*
X189490500Y-51401458D01*
X189490500Y-50380808D01*
X189510185Y-50313769D01*
X189526819Y-50293127D01*
X190143127Y-49676819D01*
X190204450Y-49643334D01*
X190230808Y-49640500D01*
X193505065Y-49640500D01*
X193572104Y-49660185D01*
X193573909Y-49661366D01*
X193630821Y-49699394D01*
X193630823Y-49699395D01*
X193630827Y-49699397D01*
X193776498Y-49759735D01*
X193776503Y-49759737D01*
X193931153Y-49790499D01*
X193931156Y-49790500D01*
X193931158Y-49790500D01*
X194088844Y-49790500D01*
X194088845Y-49790499D01*
X194243497Y-49759737D01*
X194389179Y-49699394D01*
X194520289Y-49611789D01*
X194631789Y-49500289D01*
X194719394Y-49369179D01*
X194779737Y-49223497D01*
X194810500Y-49068842D01*
X194810500Y-48911158D01*
X194810500Y-48911155D01*
X194810499Y-48911153D01*
X194779738Y-48756510D01*
X194779737Y-48756503D01*
X194779735Y-48756498D01*
X194719397Y-48610827D01*
X194719390Y-48610814D01*
X194631789Y-48479711D01*
X194631786Y-48479707D01*
X194520292Y-48368213D01*
X194520288Y-48368210D01*
X194389185Y-48280609D01*
X194389172Y-48280602D01*
X194243501Y-48220264D01*
X194243489Y-48220261D01*
X194088845Y-48189500D01*
X194088842Y-48189500D01*
X193931158Y-48189500D01*
X193931155Y-48189500D01*
X193776510Y-48220261D01*
X193776498Y-48220264D01*
X193630827Y-48280602D01*
X193630820Y-48280606D01*
X193601928Y-48299911D01*
X193573955Y-48318602D01*
X193507279Y-48339480D01*
X193505065Y-48339500D01*
X189845929Y-48339500D01*
X189720261Y-48364497D01*
X189720251Y-48364500D01*
X189671220Y-48384810D01*
X189601881Y-48413530D01*
X189601863Y-48413540D01*
X189495332Y-48484721D01*
X189495325Y-48484727D01*
X188812181Y-49167872D01*
X188750858Y-49201357D01*
X188681166Y-49196373D01*
X188625233Y-49154501D01*
X188600816Y-49089037D01*
X188600500Y-49080191D01*
X188600500Y-48600808D01*
X188620185Y-48533769D01*
X188636819Y-48513127D01*
X191453127Y-45696819D01*
X191514450Y-45663334D01*
X191540808Y-45660500D01*
X193705396Y-45660500D01*
X193752844Y-45669937D01*
X193776503Y-45679737D01*
X193776508Y-45679738D01*
X193776511Y-45679739D01*
X193931153Y-45710499D01*
X193931156Y-45710500D01*
X193931158Y-45710500D01*
X194088844Y-45710500D01*
X194088845Y-45710499D01*
X194243497Y-45679737D01*
X194389179Y-45619394D01*
X194520289Y-45531789D01*
X194631789Y-45420289D01*
X194719394Y-45289179D01*
X194779737Y-45143497D01*
X194810500Y-44988842D01*
X194810500Y-44831158D01*
X194810500Y-44831155D01*
X194810499Y-44831153D01*
X194779738Y-44676510D01*
X194779737Y-44676503D01*
X194763066Y-44636255D01*
X194719397Y-44530827D01*
X194719390Y-44530814D01*
X194631789Y-44399711D01*
X194631786Y-44399707D01*
X194520292Y-44288213D01*
X194520288Y-44288210D01*
X194389185Y-44200609D01*
X194383809Y-44197736D01*
X194385043Y-44195426D01*
X194339489Y-44158722D01*
X194317419Y-44092430D01*
X194334694Y-44024729D01*
X194385828Y-43977115D01*
X194441253Y-43963995D01*
X214009537Y-43950500D01*
X214075892Y-43950500D01*
X214076063Y-43950454D01*
X214076237Y-43950454D01*
X214139598Y-43933429D01*
X214139688Y-43933431D01*
X214139682Y-43933407D01*
X214181036Y-43922326D01*
X214203186Y-43916392D01*
X214203193Y-43916387D01*
X214203498Y-43916261D01*
X214203508Y-43916259D01*
X214260687Y-43883193D01*
X214317314Y-43850500D01*
X214317438Y-43850375D01*
X214317590Y-43850288D01*
X214364151Y-43803663D01*
X214410500Y-43757314D01*
X214410502Y-43757309D01*
X214410681Y-43757077D01*
X214410703Y-43757046D01*
X214410712Y-43757038D01*
X214443538Y-43700089D01*
X214476392Y-43643186D01*
X214476437Y-43643015D01*
X214476525Y-43642864D01*
X214493586Y-43579014D01*
X214510500Y-43515892D01*
X214510500Y-43515878D01*
X214510542Y-43515560D01*
X214510546Y-43515547D01*
X214510500Y-43448930D01*
X214510500Y-32644500D01*
X214530185Y-32577461D01*
X214582989Y-32531706D01*
X214634500Y-32520500D01*
X216508023Y-32520500D01*
X216575062Y-32540185D01*
X216620817Y-32592989D01*
X216630761Y-32662147D01*
X216601736Y-32725703D01*
X216555475Y-32759061D01*
X216545384Y-32763240D01*
X216545369Y-32763247D01*
X216318430Y-32894270D01*
X216110531Y-33053796D01*
X216110524Y-33053802D01*
X215925236Y-33239090D01*
X215925230Y-33239097D01*
X215765704Y-33446996D01*
X215634681Y-33673935D01*
X215634674Y-33673950D01*
X215534397Y-33916042D01*
X215466572Y-34169168D01*
X215432368Y-34428966D01*
X215432368Y-34691033D01*
X215466572Y-34950831D01*
X215534397Y-35203957D01*
X215634674Y-35446049D01*
X215634681Y-35446064D01*
X215765704Y-35673003D01*
X215925230Y-35880902D01*
X215925236Y-35880909D01*
X216110524Y-36066197D01*
X216110531Y-36066203D01*
X216318430Y-36225729D01*
X216545369Y-36356752D01*
X216545384Y-36356759D01*
X216649715Y-36399974D01*
X216787477Y-36457037D01*
X217040599Y-36524861D01*
X217300408Y-36559066D01*
X217300415Y-36559066D01*
X217562453Y-36559066D01*
X217562460Y-36559066D01*
X217822269Y-36524861D01*
X218075391Y-36457037D01*
X218317495Y-36356754D01*
X218544438Y-36225729D01*
X218752338Y-36066202D01*
X218937636Y-35880904D01*
X219097163Y-35673004D01*
X219228188Y-35446061D01*
X219233482Y-35433278D01*
X219277319Y-35378877D01*
X219343612Y-35356808D01*
X219411312Y-35374084D01*
X219458925Y-35425219D01*
X219472044Y-35480638D01*
X219519040Y-99395230D01*
X219499405Y-99462284D01*
X219446634Y-99508077D01*
X219395005Y-99519321D01*
X215529190Y-99518218D01*
X215462156Y-99498514D01*
X215416416Y-99445697D01*
X215406492Y-99376536D01*
X215435535Y-99312989D01*
X215481771Y-99279657D01*
X215706061Y-99186754D01*
X215933004Y-99055729D01*
X216140904Y-98896202D01*
X216326202Y-98710904D01*
X216485729Y-98503004D01*
X216616754Y-98276061D01*
X216717037Y-98033957D01*
X216784861Y-97780835D01*
X216819066Y-97521026D01*
X216819066Y-97258974D01*
X216784861Y-96999165D01*
X216717037Y-96746043D01*
X216633141Y-96543501D01*
X216616759Y-96503950D01*
X216616752Y-96503935D01*
X216485729Y-96276996D01*
X216326203Y-96069097D01*
X216326197Y-96069090D01*
X216140909Y-95883802D01*
X216140902Y-95883796D01*
X215933003Y-95724270D01*
X215706064Y-95593247D01*
X215706049Y-95593240D01*
X215463957Y-95492963D01*
X215210831Y-95425138D01*
X214951033Y-95390934D01*
X214951026Y-95390934D01*
X214688974Y-95390934D01*
X214688966Y-95390934D01*
X214429168Y-95425138D01*
X214176042Y-95492963D01*
X213933950Y-95593240D01*
X213933935Y-95593247D01*
X213706996Y-95724270D01*
X213499097Y-95883796D01*
X213499090Y-95883802D01*
X213313802Y-96069090D01*
X213313796Y-96069097D01*
X213154270Y-96276996D01*
X213023247Y-96503935D01*
X213023240Y-96503950D01*
X212922963Y-96746042D01*
X212855138Y-96999168D01*
X212820934Y-97258966D01*
X212820934Y-97521033D01*
X212841827Y-97679723D01*
X212855139Y-97780835D01*
X212905956Y-97970485D01*
X212922963Y-98033957D01*
X213023240Y-98276049D01*
X213023247Y-98276064D01*
X213154270Y-98503003D01*
X213313796Y-98710902D01*
X213313802Y-98710909D01*
X213499090Y-98896197D01*
X213499097Y-98896203D01*
X213706996Y-99055729D01*
X213933935Y-99186752D01*
X213933950Y-99186759D01*
X214011275Y-99218787D01*
X214157250Y-99279252D01*
X214211652Y-99323091D01*
X214233717Y-99389386D01*
X214216438Y-99457085D01*
X214165301Y-99504696D01*
X214109761Y-99517812D01*
X153074656Y-99500391D01*
X153007622Y-99480687D01*
X152961882Y-99427870D01*
X152951958Y-99358709D01*
X152981001Y-99295162D01*
X153012692Y-99269004D01*
X153191565Y-99165732D01*
X153191567Y-99165731D01*
X153191570Y-99165729D01*
X153399470Y-99006202D01*
X153584768Y-98820904D01*
X153744295Y-98613004D01*
X153875320Y-98386061D01*
X153975603Y-98143957D01*
X154043427Y-97890835D01*
X154077632Y-97631026D01*
X154077632Y-97368974D01*
X154043427Y-97109165D01*
X153975603Y-96856043D01*
X153906483Y-96689172D01*
X153875325Y-96613950D01*
X153875318Y-96613935D01*
X153744295Y-96386996D01*
X153584769Y-96179097D01*
X153584763Y-96179090D01*
X153399475Y-95993802D01*
X153399468Y-95993796D01*
X153191569Y-95834270D01*
X152964630Y-95703247D01*
X152964615Y-95703240D01*
X152722523Y-95602963D01*
X152579414Y-95564617D01*
X152469401Y-95535139D01*
X152469400Y-95535138D01*
X152469397Y-95535138D01*
X152209599Y-95500934D01*
X152209592Y-95500934D01*
X151947540Y-95500934D01*
X151947532Y-95500934D01*
X151687734Y-95535138D01*
X151434608Y-95602963D01*
X151192516Y-95703240D01*
X151192501Y-95703247D01*
X150965562Y-95834270D01*
X150757664Y-95993795D01*
X150663356Y-96088103D01*
X150602032Y-96121587D01*
X150532341Y-96116603D01*
X150476408Y-96074731D01*
X150451991Y-96009266D01*
X150451675Y-96000408D01*
X150452081Y-94620000D01*
X158863398Y-94620000D01*
X159726814Y-94620000D01*
X159722420Y-94624394D01*
X159669759Y-94715606D01*
X159642500Y-94817339D01*
X159642500Y-94922661D01*
X159669759Y-95024394D01*
X159722420Y-95115606D01*
X159726814Y-95120000D01*
X158863398Y-95120000D01*
X158879434Y-95221247D01*
X158952397Y-95445802D01*
X159059585Y-95656171D01*
X159198366Y-95847186D01*
X159365313Y-96014133D01*
X159556328Y-96152914D01*
X159766697Y-96260102D01*
X159991252Y-96333065D01*
X159991251Y-96333065D01*
X160224448Y-96370000D01*
X160892500Y-96370000D01*
X160892500Y-95270000D01*
X161392500Y-95270000D01*
X161392500Y-96370000D01*
X162060552Y-96370000D01*
X162293747Y-96333065D01*
X162518302Y-96260102D01*
X162728671Y-96152914D01*
X162919686Y-96014133D01*
X163086633Y-95847186D01*
X163225414Y-95656171D01*
X163294478Y-95520626D01*
X163332602Y-95445802D01*
X163405565Y-95221247D01*
X163421602Y-95120000D01*
X162558186Y-95120000D01*
X162562580Y-95115606D01*
X162615241Y-95024394D01*
X162642500Y-94922661D01*
X162642500Y-94817339D01*
X162615241Y-94715606D01*
X162562580Y-94624394D01*
X162558186Y-94620000D01*
X163421602Y-94620000D01*
X163405565Y-94518752D01*
X163332602Y-94294197D01*
X163225414Y-94083828D01*
X163086633Y-93892813D01*
X162919686Y-93725866D01*
X162919680Y-93725861D01*
X162740972Y-93596022D01*
X162740962Y-93596015D01*
X162728672Y-93587085D01*
X162711923Y-93578551D01*
X169295000Y-93578551D01*
X169295000Y-95141447D01*
X169947037Y-94489410D01*
X169964075Y-94552993D01*
X170029901Y-94667007D01*
X170122993Y-94760099D01*
X170237007Y-94825925D01*
X170300589Y-94842962D01*
X169515269Y-95628283D01*
X169556528Y-95669542D01*
X169556532Y-95669545D01*
X169700026Y-95756289D01*
X169860123Y-95806177D01*
X169929701Y-95812499D01*
X170930308Y-95812499D01*
X170999875Y-95806178D01*
X170999883Y-95806176D01*
X171159970Y-95756291D01*
X171159972Y-95756290D01*
X171303467Y-95669545D01*
X171303471Y-95669542D01*
X171344731Y-95628283D01*
X170559410Y-94842962D01*
X170622993Y-94825925D01*
X170737007Y-94760099D01*
X170830099Y-94667007D01*
X170895925Y-94552993D01*
X170912962Y-94489411D01*
X171564998Y-95141447D01*
X171564999Y-95141446D01*
X171564999Y-93781153D01*
X181864500Y-93781153D01*
X181864500Y-93938846D01*
X181895261Y-94093489D01*
X181895264Y-94093501D01*
X181955602Y-94239172D01*
X181955609Y-94239185D01*
X182043210Y-94370288D01*
X182043213Y-94370292D01*
X182154707Y-94481786D01*
X182154711Y-94481789D01*
X182285814Y-94569390D01*
X182285827Y-94569397D01*
X182352485Y-94597007D01*
X182431503Y-94629737D01*
X182498581Y-94643079D01*
X182560490Y-94675463D01*
X182562070Y-94677015D01*
X184609724Y-96724669D01*
X184700331Y-96815276D01*
X184700332Y-96815277D01*
X184806866Y-96886461D01*
X184806872Y-96886464D01*
X184806873Y-96886465D01*
X184925256Y-96935501D01*
X184925260Y-96935501D01*
X184925261Y-96935502D01*
X185050928Y-96960500D01*
X185050931Y-96960500D01*
X203925065Y-96960500D01*
X203992104Y-96980185D01*
X203993909Y-96981366D01*
X204050821Y-97019394D01*
X204050823Y-97019395D01*
X204050827Y-97019397D01*
X204196498Y-97079735D01*
X204196503Y-97079737D01*
X204344447Y-97109165D01*
X204351153Y-97110499D01*
X204351156Y-97110500D01*
X204351158Y-97110500D01*
X204508844Y-97110500D01*
X204508845Y-97110499D01*
X204663497Y-97079737D01*
X204809179Y-97019394D01*
X204940289Y-96931789D01*
X205051789Y-96820289D01*
X205139394Y-96689179D01*
X205199737Y-96543497D01*
X205230500Y-96388842D01*
X205230500Y-96231158D01*
X205230500Y-96231155D01*
X205230499Y-96231153D01*
X205199738Y-96076510D01*
X205199737Y-96076503D01*
X205196669Y-96069096D01*
X205139397Y-95930827D01*
X205139390Y-95930814D01*
X205051789Y-95799711D01*
X205051786Y-95799707D01*
X204940292Y-95688213D01*
X204940288Y-95688210D01*
X204809185Y-95600609D01*
X204809172Y-95600602D01*
X204663501Y-95540264D01*
X204663489Y-95540261D01*
X204508845Y-95509500D01*
X204508842Y-95509500D01*
X204351158Y-95509500D01*
X204351155Y-95509500D01*
X204196510Y-95540261D01*
X204196498Y-95540264D01*
X204050827Y-95600602D01*
X204050820Y-95600606D01*
X204021928Y-95619911D01*
X203993955Y-95638602D01*
X203927279Y-95659480D01*
X203925065Y-95659500D01*
X198668731Y-95659500D01*
X198601692Y-95639815D01*
X198555937Y-95587011D01*
X198551065Y-95564617D01*
X197759410Y-94772962D01*
X197822993Y-94755925D01*
X197937007Y-94690099D01*
X198030099Y-94597007D01*
X198095925Y-94482993D01*
X198112962Y-94419411D01*
X198764998Y-95071447D01*
X198764999Y-95071446D01*
X198764999Y-93508552D01*
X198764998Y-93508551D01*
X198112962Y-94160588D01*
X198095925Y-94097007D01*
X198030099Y-93982993D01*
X197937007Y-93889901D01*
X197822993Y-93824075D01*
X197759410Y-93807037D01*
X198544731Y-93021717D01*
X198503471Y-92980457D01*
X198503467Y-92980454D01*
X198359973Y-92893710D01*
X198199876Y-92843822D01*
X198130298Y-92837500D01*
X197129691Y-92837500D01*
X197060124Y-92843821D01*
X197060116Y-92843823D01*
X196900029Y-92893708D01*
X196900027Y-92893709D01*
X196756532Y-92980454D01*
X196756528Y-92980457D01*
X196715269Y-93021717D01*
X197500589Y-93807037D01*
X197437007Y-93824075D01*
X197322993Y-93889901D01*
X197229901Y-93982993D01*
X197164075Y-94097007D01*
X197147037Y-94160588D01*
X196495000Y-93508551D01*
X196495000Y-95071447D01*
X197147037Y-94419410D01*
X197164075Y-94482993D01*
X197229901Y-94597007D01*
X197322993Y-94690099D01*
X197437007Y-94755925D01*
X197500589Y-94772962D01*
X196705798Y-95567753D01*
X196695584Y-95602539D01*
X196642780Y-95648294D01*
X196591269Y-95659500D01*
X185435807Y-95659500D01*
X185368768Y-95639815D01*
X185348126Y-95623181D01*
X183482015Y-93757070D01*
X183448530Y-93695747D01*
X183448095Y-93693660D01*
X183434737Y-93626503D01*
X183407394Y-93560492D01*
X183374394Y-93480820D01*
X183286789Y-93349711D01*
X183286786Y-93349707D01*
X183175292Y-93238213D01*
X183175288Y-93238210D01*
X183044185Y-93150609D01*
X183044172Y-93150602D01*
X182898499Y-93090263D01*
X182898491Y-93090261D01*
X182743845Y-93059500D01*
X182743842Y-93059500D01*
X182586158Y-93059500D01*
X182586155Y-93059500D01*
X182431510Y-93090261D01*
X182431498Y-93090264D01*
X182285827Y-93150602D01*
X182285814Y-93150609D01*
X182154711Y-93238210D01*
X182154707Y-93238213D01*
X182043213Y-93349707D01*
X182043210Y-93349711D01*
X181955609Y-93480814D01*
X181955602Y-93480827D01*
X181895264Y-93626498D01*
X181895261Y-93626510D01*
X181864500Y-93781153D01*
X171564999Y-93781153D01*
X171564999Y-93578552D01*
X171564998Y-93578551D01*
X170912962Y-94230588D01*
X170895925Y-94167007D01*
X170830099Y-94052993D01*
X170737007Y-93959901D01*
X170622993Y-93894075D01*
X170559410Y-93877037D01*
X171344731Y-93091717D01*
X171303471Y-93050457D01*
X171303467Y-93050454D01*
X171159973Y-92963710D01*
X170999876Y-92913822D01*
X170930298Y-92907500D01*
X169929691Y-92907500D01*
X169860124Y-92913821D01*
X169860116Y-92913823D01*
X169700029Y-92963708D01*
X169700027Y-92963709D01*
X169556532Y-93050454D01*
X169556528Y-93050457D01*
X169515269Y-93091717D01*
X170300589Y-93877037D01*
X170237007Y-93894075D01*
X170122993Y-93959901D01*
X170029901Y-94052993D01*
X169964075Y-94167007D01*
X169947037Y-94230588D01*
X169295000Y-93578551D01*
X162711923Y-93578551D01*
X162518302Y-93479897D01*
X162293747Y-93406934D01*
X162293748Y-93406934D01*
X162060552Y-93370000D01*
X161392500Y-93370000D01*
X161392500Y-94470000D01*
X160892500Y-94470000D01*
X160892500Y-93370000D01*
X160224448Y-93370000D01*
X159991252Y-93406934D01*
X159766697Y-93479897D01*
X159556328Y-93587085D01*
X159365313Y-93725866D01*
X159198366Y-93892813D01*
X159059585Y-94083828D01*
X158952397Y-94294197D01*
X158879434Y-94518752D01*
X158863398Y-94620000D01*
X150452081Y-94620000D01*
X150453689Y-89151947D01*
X156392500Y-89151947D01*
X156392500Y-89820000D01*
X157492500Y-89820000D01*
X157492500Y-90320000D01*
X156392500Y-90320000D01*
X156392500Y-90988052D01*
X156429434Y-91221247D01*
X156502397Y-91445802D01*
X156609585Y-91656171D01*
X156748366Y-91847186D01*
X156915313Y-92014133D01*
X157106328Y-92152914D01*
X157316695Y-92260102D01*
X157541244Y-92333063D01*
X157541250Y-92333065D01*
X157642500Y-92349101D01*
X157642500Y-91485686D01*
X157646894Y-91490080D01*
X157738106Y-91542741D01*
X157839839Y-91570000D01*
X157945161Y-91570000D01*
X158046894Y-91542741D01*
X158138106Y-91490080D01*
X158142500Y-91485686D01*
X158142500Y-92349100D01*
X158243749Y-92333065D01*
X158243755Y-92333063D01*
X158468304Y-92260102D01*
X158678671Y-92152914D01*
X158869686Y-92014133D01*
X159036633Y-91847186D01*
X159175414Y-91656171D01*
X159282602Y-91445802D01*
X159355565Y-91221247D01*
X159392500Y-90988052D01*
X159392500Y-90320000D01*
X158292500Y-90320000D01*
X158292500Y-89820000D01*
X159392500Y-89820000D01*
X159392500Y-89205258D01*
X162342000Y-89205258D01*
X162342000Y-90934741D01*
X162355576Y-91037852D01*
X162371952Y-91162238D01*
X162388142Y-91222661D01*
X162431342Y-91383887D01*
X162519150Y-91595876D01*
X162519157Y-91595890D01*
X162633892Y-91794617D01*
X162773581Y-91976661D01*
X162773589Y-91976670D01*
X162935830Y-92138911D01*
X162935838Y-92138918D01*
X163117882Y-92278607D01*
X163117885Y-92278608D01*
X163117888Y-92278611D01*
X163316612Y-92393344D01*
X163316617Y-92393346D01*
X163316623Y-92393349D01*
X163407980Y-92431190D01*
X163528613Y-92481158D01*
X163750262Y-92540548D01*
X163977766Y-92570500D01*
X163977773Y-92570500D01*
X164207227Y-92570500D01*
X164207234Y-92570500D01*
X164434738Y-92540548D01*
X164656387Y-92481158D01*
X164868388Y-92393344D01*
X165067112Y-92278611D01*
X165249161Y-92138919D01*
X165249165Y-92138914D01*
X165249170Y-92138911D01*
X165411411Y-91976670D01*
X165411414Y-91976665D01*
X165411419Y-91976661D01*
X165551111Y-91794612D01*
X165665844Y-91595888D01*
X165753658Y-91383887D01*
X165813048Y-91162238D01*
X165843000Y-90934734D01*
X165843000Y-89205266D01*
X165813048Y-88977762D01*
X165753658Y-88756113D01*
X165687858Y-88597259D01*
X165665849Y-88544123D01*
X165665846Y-88544117D01*
X165665844Y-88544112D01*
X165551111Y-88345388D01*
X165411419Y-88163339D01*
X165411418Y-88163338D01*
X165411411Y-88163330D01*
X165390236Y-88142155D01*
X169294500Y-88142155D01*
X169294500Y-89777854D01*
X169300825Y-89847466D01*
X169300828Y-89847477D01*
X169350747Y-90007675D01*
X169350749Y-90007679D01*
X169437556Y-90151277D01*
X169437560Y-90151282D01*
X169556217Y-90269939D01*
X169556222Y-90269943D01*
X169676815Y-90342843D01*
X169699822Y-90356751D01*
X169860029Y-90406673D01*
X169929653Y-90413000D01*
X170930346Y-90412999D01*
X170930353Y-90412999D01*
X170999966Y-90406674D01*
X170999969Y-90406673D01*
X170999971Y-90406673D01*
X171160178Y-90356751D01*
X171238104Y-90309643D01*
X171303777Y-90269943D01*
X171303778Y-90269941D01*
X171303783Y-90269939D01*
X171422439Y-90151283D01*
X171423252Y-90149939D01*
X171494981Y-90031283D01*
X171509251Y-90007678D01*
X171559173Y-89847471D01*
X171565500Y-89777847D01*
X171565499Y-88142154D01*
X171565499Y-88142153D01*
X171565499Y-88142145D01*
X171559174Y-88072533D01*
X171559171Y-88072522D01*
X171554096Y-88056233D01*
X171543477Y-88022155D01*
X196494500Y-88022155D01*
X196494500Y-89657854D01*
X196500825Y-89727466D01*
X196500828Y-89727477D01*
X196550747Y-89887675D01*
X196550749Y-89887679D01*
X196637556Y-90031277D01*
X196637560Y-90031282D01*
X196756217Y-90149939D01*
X196756222Y-90149943D01*
X196876815Y-90222843D01*
X196899822Y-90236751D01*
X197060029Y-90286673D01*
X197129653Y-90293000D01*
X198130346Y-90292999D01*
X198130353Y-90292999D01*
X198199966Y-90286674D01*
X198199969Y-90286673D01*
X198199971Y-90286673D01*
X198360178Y-90236751D01*
X198501560Y-90151283D01*
X198503777Y-90149943D01*
X198503778Y-90149941D01*
X198503783Y-90149939D01*
X198622439Y-90031283D01*
X198636708Y-90007680D01*
X198667894Y-89956091D01*
X198709251Y-89887678D01*
X198759173Y-89727471D01*
X198765500Y-89657847D01*
X198765499Y-88837255D01*
X198765499Y-88022145D01*
X198759174Y-87952533D01*
X198759171Y-87952522D01*
X198709252Y-87792324D01*
X198709250Y-87792320D01*
X198622443Y-87648722D01*
X198622439Y-87648717D01*
X198503782Y-87530060D01*
X198503777Y-87530056D01*
X198360180Y-87443250D01*
X198360179Y-87443249D01*
X198360178Y-87443249D01*
X198199971Y-87393327D01*
X198199969Y-87393326D01*
X198199967Y-87393326D01*
X198151221Y-87388896D01*
X198130347Y-87387000D01*
X198130344Y-87387000D01*
X197129645Y-87387000D01*
X197060033Y-87393325D01*
X197060022Y-87393328D01*
X196899824Y-87443247D01*
X196899820Y-87443249D01*
X196756222Y-87530056D01*
X196756217Y-87530060D01*
X196637560Y-87648717D01*
X196637556Y-87648722D01*
X196550750Y-87792319D01*
X196500826Y-87952532D01*
X196494500Y-88022155D01*
X171543477Y-88022155D01*
X171509252Y-87912324D01*
X171509250Y-87912320D01*
X171422443Y-87768722D01*
X171422439Y-87768717D01*
X171303782Y-87650060D01*
X171303777Y-87650056D01*
X171160180Y-87563250D01*
X171160179Y-87563249D01*
X171160178Y-87563249D01*
X170999971Y-87513327D01*
X170999969Y-87513326D01*
X170999967Y-87513326D01*
X170951221Y-87508896D01*
X170930347Y-87507000D01*
X170930344Y-87507000D01*
X169929645Y-87507000D01*
X169860033Y-87513325D01*
X169860022Y-87513328D01*
X169699824Y-87563247D01*
X169699820Y-87563249D01*
X169556222Y-87650056D01*
X169556217Y-87650060D01*
X169437560Y-87768717D01*
X169437556Y-87768722D01*
X169350750Y-87912319D01*
X169350750Y-87912320D01*
X169350749Y-87912322D01*
X169343191Y-87936576D01*
X169300826Y-88072532D01*
X169294500Y-88142155D01*
X165390236Y-88142155D01*
X165249170Y-88001089D01*
X165249161Y-88001081D01*
X165067117Y-87861392D01*
X164868390Y-87746657D01*
X164868376Y-87746650D01*
X164656387Y-87658842D01*
X164618618Y-87648722D01*
X164434738Y-87599452D01*
X164396715Y-87594446D01*
X164207241Y-87569500D01*
X164207234Y-87569500D01*
X163977766Y-87569500D01*
X163977758Y-87569500D01*
X163761215Y-87598009D01*
X163750262Y-87599452D01*
X163656576Y-87624554D01*
X163528612Y-87658842D01*
X163316623Y-87746650D01*
X163316609Y-87746657D01*
X163117882Y-87861392D01*
X162935838Y-88001081D01*
X162773581Y-88163338D01*
X162633892Y-88345382D01*
X162519157Y-88544109D01*
X162519150Y-88544123D01*
X162431342Y-88756112D01*
X162371953Y-88977759D01*
X162371951Y-88977770D01*
X162342000Y-89205258D01*
X159392500Y-89205258D01*
X159392500Y-89151947D01*
X159355565Y-88918752D01*
X159282602Y-88694197D01*
X159175414Y-88483828D01*
X159036633Y-88292813D01*
X158869686Y-88125866D01*
X158678671Y-87987085D01*
X158468302Y-87879897D01*
X158243747Y-87806934D01*
X158142500Y-87790897D01*
X158142500Y-88654314D01*
X158138106Y-88649920D01*
X158046894Y-88597259D01*
X157945161Y-88570000D01*
X157839839Y-88570000D01*
X157738106Y-88597259D01*
X157646894Y-88649920D01*
X157642500Y-88654314D01*
X157642500Y-87790897D01*
X157541252Y-87806934D01*
X157316697Y-87879897D01*
X157106328Y-87987085D01*
X156915313Y-88125866D01*
X156748366Y-88292813D01*
X156609585Y-88483828D01*
X156502397Y-88694197D01*
X156429434Y-88918752D01*
X156392500Y-89151947D01*
X150453689Y-89151947D01*
X150455951Y-81462155D01*
X169254500Y-81462155D01*
X169254500Y-83097854D01*
X169260825Y-83167466D01*
X169260828Y-83167477D01*
X169310747Y-83327675D01*
X169310749Y-83327679D01*
X169397556Y-83471277D01*
X169397560Y-83471282D01*
X169516217Y-83589939D01*
X169516222Y-83589943D01*
X169614212Y-83649179D01*
X169659822Y-83676751D01*
X169820029Y-83726673D01*
X169889653Y-83733000D01*
X170890346Y-83732999D01*
X170890353Y-83732999D01*
X170959966Y-83726674D01*
X170959969Y-83726673D01*
X170959971Y-83726673D01*
X171120178Y-83676751D01*
X171194089Y-83632070D01*
X171263777Y-83589943D01*
X171263778Y-83589941D01*
X171263783Y-83589939D01*
X171382439Y-83471283D01*
X171469251Y-83327678D01*
X171511793Y-83191153D01*
X179449500Y-83191153D01*
X179449500Y-83348846D01*
X179480261Y-83503489D01*
X179480264Y-83503501D01*
X179540602Y-83649172D01*
X179540609Y-83649185D01*
X179628210Y-83780288D01*
X179628213Y-83780292D01*
X179739707Y-83891786D01*
X179739711Y-83891789D01*
X179870814Y-83979390D01*
X179870827Y-83979397D01*
X180013857Y-84038641D01*
X180016503Y-84039737D01*
X180171153Y-84070499D01*
X180171156Y-84070500D01*
X180171158Y-84070500D01*
X180328844Y-84070500D01*
X180328845Y-84070499D01*
X180483497Y-84039737D01*
X180483509Y-84039731D01*
X180489324Y-84037969D01*
X180489528Y-84038641D01*
X180530462Y-84030500D01*
X193944684Y-84030500D01*
X193992136Y-84039939D01*
X194065918Y-84070500D01*
X194136503Y-84099737D01*
X194291153Y-84130499D01*
X194291156Y-84130500D01*
X194291158Y-84130500D01*
X194448844Y-84130500D01*
X194448845Y-84130499D01*
X194603497Y-84099737D01*
X194749179Y-84039394D01*
X194880289Y-83951789D01*
X194991789Y-83840289D01*
X195079394Y-83709179D01*
X195139737Y-83563497D01*
X195170500Y-83408842D01*
X195170500Y-83251158D01*
X195170500Y-83251155D01*
X195170499Y-83251153D01*
X195157597Y-83186290D01*
X195139737Y-83096503D01*
X195079394Y-82950821D01*
X195079393Y-82950820D01*
X195079390Y-82950814D01*
X194991789Y-82819711D01*
X194991786Y-82819707D01*
X194880292Y-82708213D01*
X194880288Y-82708210D01*
X194749185Y-82620609D01*
X194749172Y-82620602D01*
X194603501Y-82560264D01*
X194603489Y-82560261D01*
X194448845Y-82529500D01*
X194448842Y-82529500D01*
X194291158Y-82529500D01*
X194291155Y-82529500D01*
X194136510Y-82560261D01*
X194136498Y-82560264D01*
X193992136Y-82620061D01*
X193944684Y-82629500D01*
X180769901Y-82629500D01*
X180702862Y-82609815D01*
X180701010Y-82608602D01*
X180629184Y-82560609D01*
X180629172Y-82560602D01*
X180483501Y-82500264D01*
X180483489Y-82500261D01*
X180328845Y-82469500D01*
X180328842Y-82469500D01*
X180171158Y-82469500D01*
X180171155Y-82469500D01*
X180016510Y-82500261D01*
X180016498Y-82500264D01*
X179870827Y-82560602D01*
X179870814Y-82560609D01*
X179739711Y-82648210D01*
X179739707Y-82648213D01*
X179628213Y-82759707D01*
X179628210Y-82759711D01*
X179540609Y-82890814D01*
X179540602Y-82890827D01*
X179480264Y-83036498D01*
X179480261Y-83036510D01*
X179449500Y-83191153D01*
X171511793Y-83191153D01*
X171519173Y-83167471D01*
X171525500Y-83097847D01*
X171525499Y-81462154D01*
X171525499Y-81462153D01*
X171525499Y-81462145D01*
X171519174Y-81392533D01*
X171519171Y-81392522D01*
X171469252Y-81232324D01*
X171469250Y-81232320D01*
X171382443Y-81088722D01*
X171382439Y-81088717D01*
X171263782Y-80970060D01*
X171263777Y-80970056D01*
X171120180Y-80883250D01*
X171120179Y-80883249D01*
X171120178Y-80883249D01*
X170959971Y-80833327D01*
X170959969Y-80833326D01*
X170959967Y-80833326D01*
X170911221Y-80828896D01*
X170890347Y-80827000D01*
X170890344Y-80827000D01*
X169889645Y-80827000D01*
X169820033Y-80833325D01*
X169820022Y-80833328D01*
X169659824Y-80883247D01*
X169659820Y-80883249D01*
X169516222Y-80970056D01*
X169516217Y-80970060D01*
X169397560Y-81088717D01*
X169397556Y-81088722D01*
X169310750Y-81232319D01*
X169260826Y-81392532D01*
X169254500Y-81462155D01*
X150455951Y-81462155D01*
X150457670Y-75619815D01*
X150457678Y-75592903D01*
X150457766Y-75292319D01*
X150457814Y-75130000D01*
X152075261Y-75130000D01*
X152883012Y-75130000D01*
X152865795Y-75139940D01*
X152809940Y-75195795D01*
X152770444Y-75264204D01*
X152750000Y-75340504D01*
X152750000Y-75419496D01*
X152770444Y-75495796D01*
X152809940Y-75564205D01*
X152865795Y-75620060D01*
X152883012Y-75630000D01*
X152075261Y-75630000D01*
X152078315Y-75649285D01*
X152078318Y-75649295D01*
X152134250Y-75821441D01*
X152134252Y-75821447D01*
X152216434Y-75982734D01*
X152322823Y-76129169D01*
X152450830Y-76257176D01*
X152597265Y-76363565D01*
X152758552Y-76445747D01*
X152758555Y-76445748D01*
X152930706Y-76501682D01*
X153100000Y-76528496D01*
X153100000Y-75680000D01*
X153600000Y-75680000D01*
X153600000Y-76528495D01*
X153769293Y-76501682D01*
X153941444Y-76445748D01*
X153941447Y-76445747D01*
X154102734Y-76363565D01*
X154249169Y-76257176D01*
X154377176Y-76129169D01*
X154483565Y-75982734D01*
X154565747Y-75821447D01*
X154565749Y-75821441D01*
X154621681Y-75649295D01*
X154621684Y-75649285D01*
X154624739Y-75630000D01*
X153816988Y-75630000D01*
X153834205Y-75620060D01*
X153890060Y-75564205D01*
X153929556Y-75495796D01*
X153950000Y-75419496D01*
X153950000Y-75340504D01*
X153929556Y-75264204D01*
X153890060Y-75195795D01*
X153834205Y-75139940D01*
X153816988Y-75130000D01*
X154624739Y-75130000D01*
X156005261Y-75130000D01*
X156813012Y-75130000D01*
X156795795Y-75139940D01*
X156739940Y-75195795D01*
X156700444Y-75264204D01*
X156680000Y-75340504D01*
X156680000Y-75419496D01*
X156700444Y-75495796D01*
X156739940Y-75564205D01*
X156795795Y-75620060D01*
X156813012Y-75630000D01*
X156005261Y-75630000D01*
X156008315Y-75649285D01*
X156008318Y-75649295D01*
X156064250Y-75821441D01*
X156064252Y-75821447D01*
X156146434Y-75982734D01*
X156252823Y-76129169D01*
X156380830Y-76257176D01*
X156527265Y-76363565D01*
X156688552Y-76445747D01*
X156688555Y-76445748D01*
X156860706Y-76501682D01*
X157039494Y-76530000D01*
X157280000Y-76530000D01*
X157280000Y-75680000D01*
X157780000Y-75680000D01*
X157780000Y-76530000D01*
X158020506Y-76530000D01*
X158199293Y-76501682D01*
X158371444Y-76445748D01*
X158371447Y-76445747D01*
X158532734Y-76363565D01*
X158679169Y-76257176D01*
X158807176Y-76129169D01*
X158913565Y-75982734D01*
X158995747Y-75821447D01*
X158995749Y-75821441D01*
X159051681Y-75649295D01*
X159051684Y-75649285D01*
X159054739Y-75630000D01*
X158246988Y-75630000D01*
X158264205Y-75620060D01*
X158320060Y-75564205D01*
X158359556Y-75495796D01*
X158380000Y-75419496D01*
X158380000Y-75340504D01*
X158359556Y-75264204D01*
X158320060Y-75195795D01*
X158264205Y-75139940D01*
X158246988Y-75130000D01*
X159054739Y-75130000D01*
X159051684Y-75110714D01*
X159051681Y-75110704D01*
X158995749Y-74938558D01*
X158995747Y-74938552D01*
X158913565Y-74777265D01*
X158807176Y-74630830D01*
X158679169Y-74502823D01*
X158532734Y-74396434D01*
X158371447Y-74314252D01*
X158371444Y-74314251D01*
X158199293Y-74258317D01*
X158020506Y-74230000D01*
X157682375Y-74230000D01*
X157615336Y-74210315D01*
X157569581Y-74157511D01*
X157559637Y-74088353D01*
X157562596Y-74073923D01*
X157575500Y-74025766D01*
X157575500Y-73874234D01*
X157536281Y-73727865D01*
X157460515Y-73596635D01*
X157353365Y-73489485D01*
X157287750Y-73451602D01*
X157222136Y-73413719D01*
X157148950Y-73394109D01*
X157075766Y-73374500D01*
X156924234Y-73374500D01*
X156777863Y-73413719D01*
X156646635Y-73489485D01*
X156646632Y-73489487D01*
X156539487Y-73596632D01*
X156539485Y-73596635D01*
X156463719Y-73727863D01*
X156424500Y-73874234D01*
X156424500Y-74025765D01*
X156463719Y-74172136D01*
X156485762Y-74210315D01*
X156517903Y-74265984D01*
X156534376Y-74333883D01*
X156511524Y-74399910D01*
X156483401Y-74428302D01*
X156380831Y-74502823D01*
X156380826Y-74502827D01*
X156252823Y-74630830D01*
X156146434Y-74777265D01*
X156064252Y-74938552D01*
X156064250Y-74938558D01*
X156008318Y-75110704D01*
X156008315Y-75110714D01*
X156005261Y-75130000D01*
X154624739Y-75130000D01*
X154621684Y-75110714D01*
X154621681Y-75110704D01*
X154565749Y-74938558D01*
X154565747Y-74938552D01*
X154483565Y-74777265D01*
X154377176Y-74630830D01*
X154249169Y-74502823D01*
X154102734Y-74396434D01*
X153941447Y-74314252D01*
X153941444Y-74314251D01*
X153769293Y-74258316D01*
X153600000Y-74231502D01*
X153600000Y-75080000D01*
X153100000Y-75080000D01*
X153100000Y-74231502D01*
X152930706Y-74258316D01*
X152758555Y-74314251D01*
X152758552Y-74314252D01*
X152597265Y-74396434D01*
X152450830Y-74502823D01*
X152322823Y-74630830D01*
X152216434Y-74777265D01*
X152134252Y-74938552D01*
X152134250Y-74938558D01*
X152078318Y-75110704D01*
X152078315Y-75110714D01*
X152075261Y-75130000D01*
X150457814Y-75130000D01*
X150460355Y-66490000D01*
X152075261Y-66490000D01*
X152883012Y-66490000D01*
X152865795Y-66499940D01*
X152809940Y-66555795D01*
X152770444Y-66624204D01*
X152750000Y-66700504D01*
X152750000Y-66779496D01*
X152770444Y-66855796D01*
X152809940Y-66924205D01*
X152865795Y-66980060D01*
X152883012Y-66990000D01*
X152075261Y-66990000D01*
X152078315Y-67009285D01*
X152078318Y-67009295D01*
X152134250Y-67181441D01*
X152134252Y-67181447D01*
X152216434Y-67342734D01*
X152322823Y-67489169D01*
X152450830Y-67617176D01*
X152597265Y-67723565D01*
X152758552Y-67805747D01*
X152758555Y-67805748D01*
X152930706Y-67861682D01*
X153100000Y-67888496D01*
X153100000Y-67040000D01*
X153600000Y-67040000D01*
X153600000Y-67888495D01*
X153769293Y-67861682D01*
X153941444Y-67805748D01*
X153941447Y-67805747D01*
X154102734Y-67723565D01*
X154249169Y-67617176D01*
X154377176Y-67489169D01*
X154483565Y-67342734D01*
X154565747Y-67181447D01*
X154565749Y-67181441D01*
X154621681Y-67009295D01*
X154621684Y-67009285D01*
X154624739Y-66990000D01*
X153816988Y-66990000D01*
X153834205Y-66980060D01*
X153890060Y-66924205D01*
X153929556Y-66855796D01*
X153950000Y-66779496D01*
X153950000Y-66700504D01*
X153929556Y-66624204D01*
X153890060Y-66555795D01*
X153834205Y-66499940D01*
X153816988Y-66490000D01*
X154624739Y-66490000D01*
X156005261Y-66490000D01*
X156813012Y-66490000D01*
X156795795Y-66499940D01*
X156739940Y-66555795D01*
X156700444Y-66624204D01*
X156680000Y-66700504D01*
X156680000Y-66779496D01*
X156700444Y-66855796D01*
X156739940Y-66924205D01*
X156795795Y-66980060D01*
X156813012Y-66990000D01*
X156005261Y-66990000D01*
X156008315Y-67009285D01*
X156008318Y-67009295D01*
X156064250Y-67181441D01*
X156064252Y-67181447D01*
X156146434Y-67342734D01*
X156252823Y-67489169D01*
X156380830Y-67617176D01*
X156483401Y-67691697D01*
X156526067Y-67747026D01*
X156532046Y-67816640D01*
X156517903Y-67854015D01*
X156463720Y-67947861D01*
X156463720Y-67947862D01*
X156424500Y-68094234D01*
X156424500Y-68245765D01*
X156463719Y-68392136D01*
X156501602Y-68457750D01*
X156539485Y-68523365D01*
X156646635Y-68630515D01*
X156777865Y-68706281D01*
X156924234Y-68745500D01*
X156924236Y-68745500D01*
X157075764Y-68745500D01*
X157075766Y-68745500D01*
X157222135Y-68706281D01*
X157353365Y-68630515D01*
X157460515Y-68523365D01*
X157536281Y-68392135D01*
X157575500Y-68245766D01*
X157575500Y-68094234D01*
X157562600Y-68046090D01*
X157564263Y-67976244D01*
X157603425Y-67918381D01*
X157667653Y-67890877D01*
X157682375Y-67890000D01*
X158020506Y-67890000D01*
X158199293Y-67861682D01*
X158371444Y-67805748D01*
X158371447Y-67805747D01*
X158532734Y-67723565D01*
X158679169Y-67617176D01*
X158807176Y-67489169D01*
X158913565Y-67342734D01*
X158995747Y-67181447D01*
X158995749Y-67181441D01*
X159051681Y-67009295D01*
X159051684Y-67009285D01*
X159054739Y-66990000D01*
X158246988Y-66990000D01*
X158264205Y-66980060D01*
X158320060Y-66924205D01*
X158359556Y-66855796D01*
X158380000Y-66779496D01*
X158380000Y-66700504D01*
X158359556Y-66624204D01*
X158320060Y-66555795D01*
X158264205Y-66499940D01*
X158246988Y-66490000D01*
X159054739Y-66490000D01*
X159051684Y-66470714D01*
X159051681Y-66470704D01*
X158995749Y-66298558D01*
X158995747Y-66298552D01*
X158913565Y-66137265D01*
X158807176Y-65990830D01*
X158679169Y-65862823D01*
X158532734Y-65756434D01*
X158371447Y-65674252D01*
X158371444Y-65674251D01*
X158199293Y-65618317D01*
X158020506Y-65590000D01*
X157780000Y-65590000D01*
X157780000Y-66440000D01*
X157280000Y-66440000D01*
X157280000Y-65590000D01*
X157039494Y-65590000D01*
X156860706Y-65618317D01*
X156688555Y-65674251D01*
X156688552Y-65674252D01*
X156527265Y-65756434D01*
X156380830Y-65862823D01*
X156252823Y-65990830D01*
X156146434Y-66137265D01*
X156064252Y-66298552D01*
X156064250Y-66298558D01*
X156008318Y-66470704D01*
X156008315Y-66470714D01*
X156005261Y-66490000D01*
X154624739Y-66490000D01*
X154621684Y-66470714D01*
X154621681Y-66470704D01*
X154565749Y-66298558D01*
X154565747Y-66298552D01*
X154483565Y-66137265D01*
X154377176Y-65990830D01*
X154249169Y-65862823D01*
X154102734Y-65756434D01*
X153941447Y-65674252D01*
X153941444Y-65674251D01*
X153769293Y-65618316D01*
X153600000Y-65591502D01*
X153600000Y-66440000D01*
X153100000Y-66440000D01*
X153100000Y-65591502D01*
X152930706Y-65618316D01*
X152758555Y-65674251D01*
X152758552Y-65674252D01*
X152597265Y-65756434D01*
X152450830Y-65862823D01*
X152322823Y-65990830D01*
X152216434Y-66137265D01*
X152134252Y-66298552D01*
X152134250Y-66298558D01*
X152078318Y-66470704D01*
X152078315Y-66470714D01*
X152075261Y-66490000D01*
X150460355Y-66490000D01*
X150462178Y-60291153D01*
X159229500Y-60291153D01*
X159229500Y-60448846D01*
X159260261Y-60603489D01*
X159260264Y-60603501D01*
X159320602Y-60749172D01*
X159320609Y-60749185D01*
X159408210Y-60880288D01*
X159408213Y-60880292D01*
X159519707Y-60991786D01*
X159519711Y-60991789D01*
X159650814Y-61079390D01*
X159650827Y-61079397D01*
X159795185Y-61139191D01*
X159835414Y-61166071D01*
X162958453Y-64289111D01*
X162958454Y-64289112D01*
X163073192Y-64365777D01*
X163200667Y-64418578D01*
X163200672Y-64418580D01*
X163200676Y-64418580D01*
X163200677Y-64418581D01*
X163336003Y-64445500D01*
X163336006Y-64445500D01*
X163336007Y-64445500D01*
X171075756Y-64445500D01*
X171123208Y-64454939D01*
X171267570Y-64514735D01*
X171267575Y-64514737D01*
X171422225Y-64545499D01*
X171422228Y-64545500D01*
X171422230Y-64545500D01*
X171579916Y-64545500D01*
X171579917Y-64545499D01*
X171734569Y-64514737D01*
X171880251Y-64454394D01*
X172011361Y-64366789D01*
X172122861Y-64255289D01*
X172210466Y-64124179D01*
X172270809Y-63978497D01*
X172301572Y-63823842D01*
X172301572Y-63666158D01*
X172301572Y-63666155D01*
X172301571Y-63666153D01*
X172270809Y-63511503D01*
X172243888Y-63446510D01*
X172210469Y-63365827D01*
X172210462Y-63365814D01*
X172122861Y-63234711D01*
X172122858Y-63234707D01*
X172011364Y-63123213D01*
X172011360Y-63123210D01*
X171880257Y-63035609D01*
X171880244Y-63035602D01*
X171734573Y-62975264D01*
X171734561Y-62975261D01*
X171579917Y-62944500D01*
X171579914Y-62944500D01*
X171422230Y-62944500D01*
X171422227Y-62944500D01*
X171267582Y-62975261D01*
X171267570Y-62975264D01*
X171123208Y-63035061D01*
X171075756Y-63044500D01*
X163746519Y-63044500D01*
X163679480Y-63024815D01*
X163658838Y-63008181D01*
X160826071Y-60175414D01*
X160799191Y-60135185D01*
X160739397Y-59990827D01*
X160739390Y-59990814D01*
X160651789Y-59859711D01*
X160651786Y-59859707D01*
X160540292Y-59748213D01*
X160540288Y-59748210D01*
X160409185Y-59660609D01*
X160409172Y-59660602D01*
X160263501Y-59600264D01*
X160263489Y-59600261D01*
X160108845Y-59569500D01*
X160108842Y-59569500D01*
X159951158Y-59569500D01*
X159951155Y-59569500D01*
X159796510Y-59600261D01*
X159796498Y-59600264D01*
X159650827Y-59660602D01*
X159650814Y-59660609D01*
X159519711Y-59748210D01*
X159519707Y-59748213D01*
X159408213Y-59859707D01*
X159408210Y-59859711D01*
X159320609Y-59990814D01*
X159320602Y-59990827D01*
X159260264Y-60136498D01*
X159260261Y-60136510D01*
X159229500Y-60291153D01*
X150462178Y-60291153D01*
X150463910Y-54401153D01*
X151719500Y-54401153D01*
X151719500Y-54558846D01*
X151750261Y-54713489D01*
X151750264Y-54713501D01*
X151810602Y-54859172D01*
X151810609Y-54859185D01*
X151898210Y-54990288D01*
X151898213Y-54990292D01*
X152009707Y-55101786D01*
X152009711Y-55101789D01*
X152140814Y-55189390D01*
X152140827Y-55189397D01*
X152286498Y-55249735D01*
X152286503Y-55249737D01*
X152441153Y-55280499D01*
X152441156Y-55280500D01*
X152441158Y-55280500D01*
X152598844Y-55280500D01*
X152598845Y-55280499D01*
X152753497Y-55249737D01*
X152899179Y-55189394D01*
X153030289Y-55101789D01*
X153141789Y-54990289D01*
X153229394Y-54859179D01*
X153289737Y-54713497D01*
X153303079Y-54646416D01*
X153335463Y-54584509D01*
X153336959Y-54582985D01*
X156198792Y-51721153D01*
X181609500Y-51721153D01*
X181609500Y-51878846D01*
X181640261Y-52033489D01*
X181640264Y-52033501D01*
X181700061Y-52177864D01*
X181709500Y-52225316D01*
X181709500Y-55821006D01*
X181709500Y-55958994D01*
X181709500Y-55958996D01*
X181709499Y-55958996D01*
X181736418Y-56094322D01*
X181736421Y-56094332D01*
X181789222Y-56221807D01*
X181865887Y-56336545D01*
X183503454Y-57974112D01*
X183618192Y-58050777D01*
X183745667Y-58103578D01*
X183745672Y-58103580D01*
X183745676Y-58103580D01*
X183745677Y-58103581D01*
X183881003Y-58130500D01*
X183881006Y-58130500D01*
X183881007Y-58130500D01*
X185457184Y-58130500D01*
X185504636Y-58139939D01*
X185648998Y-58199735D01*
X185649003Y-58199737D01*
X185803653Y-58230499D01*
X185803656Y-58230500D01*
X185803658Y-58230500D01*
X185961344Y-58230500D01*
X185961345Y-58230499D01*
X186115997Y-58199737D01*
X186261679Y-58139394D01*
X186392789Y-58051789D01*
X186504289Y-57940289D01*
X186591894Y-57809179D01*
X186652237Y-57663497D01*
X186683000Y-57508842D01*
X186683000Y-57351158D01*
X186683000Y-57351155D01*
X186682999Y-57351153D01*
X186652238Y-57196510D01*
X186652237Y-57196503D01*
X186652235Y-57196498D01*
X186591897Y-57050827D01*
X186591890Y-57050814D01*
X186504289Y-56919711D01*
X186504286Y-56919707D01*
X186392792Y-56808213D01*
X186392788Y-56808210D01*
X186261685Y-56720609D01*
X186261672Y-56720602D01*
X186116001Y-56660264D01*
X186115989Y-56660261D01*
X185961345Y-56629500D01*
X185961342Y-56629500D01*
X185803658Y-56629500D01*
X185803655Y-56629500D01*
X185649010Y-56660261D01*
X185648998Y-56660264D01*
X185504636Y-56720061D01*
X185457184Y-56729500D01*
X184291519Y-56729500D01*
X184224480Y-56709815D01*
X184203838Y-56693181D01*
X183146819Y-55636162D01*
X183113334Y-55574839D01*
X183110500Y-55548481D01*
X183110500Y-52225316D01*
X183119939Y-52177864D01*
X183154884Y-52093497D01*
X183179737Y-52033497D01*
X183210500Y-51878842D01*
X183210500Y-51721158D01*
X183210500Y-51721155D01*
X183210499Y-51721153D01*
X183179738Y-51566510D01*
X183179737Y-51566503D01*
X183119911Y-51422068D01*
X183119397Y-51420827D01*
X183119390Y-51420814D01*
X183031789Y-51289711D01*
X183031786Y-51289707D01*
X182920292Y-51178213D01*
X182920288Y-51178210D01*
X182789185Y-51090609D01*
X182789172Y-51090602D01*
X182643501Y-51030264D01*
X182643489Y-51030261D01*
X182488845Y-50999500D01*
X182488842Y-50999500D01*
X182331158Y-50999500D01*
X182331155Y-50999500D01*
X182176510Y-51030261D01*
X182176498Y-51030264D01*
X182030827Y-51090602D01*
X182030814Y-51090609D01*
X181899711Y-51178210D01*
X181899707Y-51178213D01*
X181788213Y-51289707D01*
X181788210Y-51289711D01*
X181700609Y-51420814D01*
X181700602Y-51420827D01*
X181640264Y-51566498D01*
X181640261Y-51566510D01*
X181609500Y-51721153D01*
X156198792Y-51721153D01*
X158683127Y-49236819D01*
X158744450Y-49203334D01*
X158770808Y-49200500D01*
X182525065Y-49200500D01*
X182592104Y-49220185D01*
X182593909Y-49221366D01*
X182650821Y-49259394D01*
X182650823Y-49259395D01*
X182650827Y-49259397D01*
X182796498Y-49319735D01*
X182796503Y-49319737D01*
X182951153Y-49350499D01*
X182951156Y-49350500D01*
X182951158Y-49350500D01*
X183108844Y-49350500D01*
X183108845Y-49350499D01*
X183263497Y-49319737D01*
X183409179Y-49259394D01*
X183540289Y-49171789D01*
X183651789Y-49060289D01*
X183739394Y-48929179D01*
X183746859Y-48911158D01*
X183799735Y-48783501D01*
X183799737Y-48783497D01*
X183830500Y-48628842D01*
X183830500Y-48471158D01*
X183830500Y-48471155D01*
X183830499Y-48471153D01*
X183809284Y-48364499D01*
X183799737Y-48316503D01*
X183799735Y-48316498D01*
X183739397Y-48170827D01*
X183739390Y-48170814D01*
X183651789Y-48039711D01*
X183651786Y-48039707D01*
X183540292Y-47928213D01*
X183540288Y-47928210D01*
X183409185Y-47840609D01*
X183409172Y-47840602D01*
X183263501Y-47780264D01*
X183263489Y-47780261D01*
X183108845Y-47749500D01*
X183108842Y-47749500D01*
X182951158Y-47749500D01*
X182951155Y-47749500D01*
X182796510Y-47780261D01*
X182796498Y-47780264D01*
X182650827Y-47840602D01*
X182650820Y-47840606D01*
X182621928Y-47859911D01*
X182593955Y-47878602D01*
X182527279Y-47899480D01*
X182525065Y-47899500D01*
X158385929Y-47899500D01*
X158260261Y-47924497D01*
X158260255Y-47924499D01*
X158141870Y-47973535D01*
X158035331Y-48044722D01*
X158035324Y-48044728D01*
X152417068Y-53662984D01*
X152355745Y-53696469D01*
X152353579Y-53696920D01*
X152286508Y-53710261D01*
X152286498Y-53710264D01*
X152140827Y-53770602D01*
X152140814Y-53770609D01*
X152009711Y-53858210D01*
X152009707Y-53858213D01*
X151898213Y-53969707D01*
X151898210Y-53969711D01*
X151810609Y-54100814D01*
X151810602Y-54100827D01*
X151750264Y-54246498D01*
X151750261Y-54246510D01*
X151719500Y-54401153D01*
X150463910Y-54401153D01*
X150469546Y-35239312D01*
X150489250Y-35172279D01*
X150542068Y-35126539D01*
X150611229Y-35116616D01*
X150674776Y-35145660D01*
X150712533Y-35204449D01*
X150713309Y-35207213D01*
X150746616Y-35331515D01*
X150762963Y-35392523D01*
X150863240Y-35634615D01*
X150863247Y-35634630D01*
X150994270Y-35861569D01*
X151153796Y-36069468D01*
X151153802Y-36069475D01*
X151339090Y-36254763D01*
X151339097Y-36254769D01*
X151546996Y-36414295D01*
X151773935Y-36545318D01*
X151773950Y-36545325D01*
X151878281Y-36588540D01*
X152016043Y-36645603D01*
X152269165Y-36713427D01*
X152528974Y-36747632D01*
X152528981Y-36747632D01*
X152791019Y-36747632D01*
X152791026Y-36747632D01*
X153050835Y-36713427D01*
X153303957Y-36645603D01*
X153546061Y-36545320D01*
X153773004Y-36414295D01*
X153980904Y-36254768D01*
X154166202Y-36069470D01*
X154325729Y-35861570D01*
X154456754Y-35634627D01*
X154557037Y-35392523D01*
X154624861Y-35139401D01*
X154659066Y-34879592D01*
X154659066Y-34617540D01*
X154624861Y-34357731D01*
X154557037Y-34104609D01*
X154478930Y-33916042D01*
X154456759Y-33862516D01*
X154456752Y-33862501D01*
X154325729Y-33635562D01*
X154166203Y-33427663D01*
X154166197Y-33427656D01*
X153980909Y-33242368D01*
X153980902Y-33242362D01*
X153773003Y-33082836D01*
X153546064Y-32951813D01*
X153546049Y-32951806D01*
X153303957Y-32851529D01*
X153050831Y-32783704D01*
X152791033Y-32749500D01*
X152791026Y-32749500D01*
X152528974Y-32749500D01*
X152528966Y-32749500D01*
X152269168Y-32783704D01*
X152016042Y-32851529D01*
X151773950Y-32951806D01*
X151773935Y-32951813D01*
X151546996Y-33082836D01*
X151339097Y-33242362D01*
X151339090Y-33242368D01*
X151153802Y-33427656D01*
X151153796Y-33427663D01*
X150994270Y-33635562D01*
X150863247Y-33862501D01*
X150863240Y-33862516D01*
X150762963Y-34104608D01*
X150713610Y-34288797D01*
X150677245Y-34348457D01*
X150614398Y-34378986D01*
X150545022Y-34370691D01*
X150491144Y-34326206D01*
X150469870Y-34259654D01*
X150469835Y-34256667D01*
X150469973Y-33788485D01*
X150470315Y-32623426D01*
X150490019Y-32556395D01*
X150542837Y-32510655D01*
X150594105Y-32499465D01*
X155375838Y-32491534D01*
X155442908Y-32511108D01*
G37*
%TD.AperFunction*%
%TD*%
M02*
