%TF.GenerationSoftware,KiCad,Pcbnew,9.0.0*%
%TF.CreationDate,2025-07-17T22:09:11+07:00*%
%TF.ProjectId,esp8266-BU01,65737038-3236-4362-9d42-5530312e6b69,rev?*%
%TF.SameCoordinates,Original*%
%TF.FileFunction,Soldermask,Top*%
%TF.FilePolarity,Negative*%
%FSLAX46Y46*%
G04 Gerber Fmt 4.6, Leading zero omitted, Abs format (unit mm)*
G04 Created by KiCad (PCBNEW 9.0.0) date 2025-07-17 22:09:11*
%MOMM*%
%LPD*%
G01*
G04 APERTURE LIST*
G04 Aperture macros list*
%AMRoundRect*
0 Rectangle with rounded corners*
0 $1 Rounding radius*
0 $2 $3 $4 $5 $6 $7 $8 $9 X,Y pos of 4 corners*
0 Add a 4 corners polygon primitive as box body*
4,1,4,$2,$3,$4,$5,$6,$7,$8,$9,$2,$3,0*
0 Add four circle primitives for the rounded corners*
1,1,$1+$1,$2,$3*
1,1,$1+$1,$4,$5*
1,1,$1+$1,$6,$7*
1,1,$1+$1,$8,$9*
0 Add four rect primitives between the rounded corners*
20,1,$1+$1,$2,$3,$4,$5,0*
20,1,$1+$1,$4,$5,$6,$7,0*
20,1,$1+$1,$6,$7,$8,$9,0*
20,1,$1+$1,$8,$9,$2,$3,0*%
G04 Aperture macros list end*
%ADD10RoundRect,0.250000X-0.262500X-0.450000X0.262500X-0.450000X0.262500X0.450000X-0.262500X0.450000X0*%
%ADD11RoundRect,0.250000X-0.350000X-0.450000X0.350000X-0.450000X0.350000X0.450000X-0.350000X0.450000X0*%
%ADD12RoundRect,0.250000X-0.325000X-0.450000X0.325000X-0.450000X0.325000X0.450000X-0.325000X0.450000X0*%
%ADD13C,0.650000*%
%ADD14R,1.450000X0.600000*%
%ADD15R,1.450000X0.300000*%
%ADD16O,2.100000X1.300000*%
%ADD17O,1.600000X1.300000*%
%ADD18RoundRect,0.250000X0.350000X0.450000X-0.350000X0.450000X-0.350000X-0.450000X0.350000X-0.450000X0*%
%ADD19RoundRect,0.150000X0.587500X0.150000X-0.587500X0.150000X-0.587500X-0.150000X0.587500X-0.150000X0*%
%ADD20RoundRect,0.250000X-0.450000X0.350000X-0.450000X-0.350000X0.450000X-0.350000X0.450000X0.350000X0*%
%ADD21RoundRect,0.250000X0.337500X0.475000X-0.337500X0.475000X-0.337500X-0.475000X0.337500X-0.475000X0*%
%ADD22O,2.704000X4.204000*%
%ADD23O,2.204000X3.804000*%
%ADD24O,3.804000X2.204000*%
%ADD25RoundRect,0.099250X-0.627750X-0.297750X0.627750X-0.297750X0.627750X0.297750X-0.627750X0.297750X0*%
%ADD26RoundRect,0.250000X0.262500X0.450000X-0.262500X0.450000X-0.262500X-0.450000X0.262500X-0.450000X0*%
%ADD27RoundRect,0.250000X-0.250000X-0.475000X0.250000X-0.475000X0.250000X0.475000X-0.250000X0.475000X0*%
%ADD28RoundRect,0.102000X0.750000X0.700000X-0.750000X0.700000X-0.750000X-0.700000X0.750000X-0.700000X0*%
%ADD29RoundRect,0.250000X-0.337500X-0.475000X0.337500X-0.475000X0.337500X0.475000X-0.337500X0.475000X0*%
%ADD30RoundRect,0.099250X-0.727750X-0.297750X0.727750X-0.297750X0.727750X0.297750X-0.727750X0.297750X0*%
%ADD31RoundRect,0.102000X-0.750000X-0.700000X0.750000X-0.700000X0.750000X0.700000X-0.750000X0.700000X0*%
%ADD32RoundRect,0.250000X0.250000X0.475000X-0.250000X0.475000X-0.250000X-0.475000X0.250000X-0.475000X0*%
%ADD33R,7.500000X3.000000*%
%ADD34RoundRect,0.250000X0.325000X0.450000X-0.325000X0.450000X-0.325000X-0.450000X0.325000X-0.450000X0*%
%ADD35RoundRect,0.250000X-0.550000X1.500000X-0.550000X-1.500000X0.550000X-1.500000X0.550000X1.500000X0*%
%ADD36RoundRect,0.190500X-0.444500X0.762000X-0.444500X-0.762000X0.444500X-0.762000X0.444500X0.762000X0*%
%ADD37RoundRect,0.102000X-1.000000X-0.600000X1.000000X-0.600000X1.000000X0.600000X-1.000000X0.600000X0*%
%ADD38RoundRect,0.102000X-0.550000X-0.850000X0.550000X-0.850000X0.550000X0.850000X-0.550000X0.850000X0*%
%ADD39RoundRect,0.250000X0.450000X-0.350000X0.450000X0.350000X-0.450000X0.350000X-0.450000X-0.350000X0*%
%ADD40RoundRect,0.250000X0.550000X-1.500000X0.550000X1.500000X-0.550000X1.500000X-0.550000X-1.500000X0*%
%ADD41RoundRect,0.190500X0.444500X-0.762000X0.444500X0.762000X-0.444500X0.762000X-0.444500X-0.762000X0*%
%ADD42RoundRect,0.250000X0.650000X-1.000000X0.650000X1.000000X-0.650000X1.000000X-0.650000X-1.000000X0*%
%ADD43R,2.450000X1.000000*%
%ADD44R,1.000000X2.450000*%
%ADD45RoundRect,0.150000X-0.150000X0.825000X-0.150000X-0.825000X0.150000X-0.825000X0.150000X0.825000X0*%
%ADD46O,2.704000X1.704000*%
G04 APERTURE END LIST*
D10*
%TO.C,R3.2*%
X202585000Y-96220000D03*
X204410000Y-96220000D03*
%TD*%
D11*
%TO.C,R1.11*%
X206640000Y-69523334D03*
X208640000Y-69523334D03*
%TD*%
%TO.C,R1.6*%
X185920000Y-72780000D03*
X187920000Y-72780000D03*
%TD*%
%TO.C,R11.6*%
X213260000Y-60583333D03*
X215260000Y-60583333D03*
%TD*%
D12*
%TO.C,led4.2*%
X157982500Y-63760000D03*
X160032500Y-63760000D03*
%TD*%
D13*
%TO.C,U4.1*%
X157000000Y-68170000D03*
X157000000Y-73950000D03*
D14*
X158445000Y-67810000D03*
X158445000Y-68610000D03*
D15*
X158445000Y-69810000D03*
X158445000Y-70810000D03*
X158445000Y-71310000D03*
X158445000Y-72310000D03*
D14*
X158445000Y-73510000D03*
X158445000Y-74310000D03*
X158445000Y-74310000D03*
X158445000Y-73510000D03*
D15*
X158445000Y-72810000D03*
X158445000Y-71810000D03*
X158445000Y-70310000D03*
X158445000Y-69310000D03*
D14*
X158445000Y-68610000D03*
X158445000Y-67810000D03*
D16*
X157530000Y-66740000D03*
D17*
X153350000Y-66740000D03*
D16*
X157530000Y-75380000D03*
D17*
X153350000Y-75380000D03*
%TD*%
D10*
%TO.C,R1.4*%
X206707500Y-76940000D03*
X208532500Y-76940000D03*
%TD*%
D18*
%TO.C,R4.11*%
X182350000Y-60583333D03*
X180350000Y-60583333D03*
%TD*%
D11*
%TO.C,R1.12*%
X206790000Y-66140000D03*
X208790000Y-66140000D03*
%TD*%
D19*
%TO.C,Q1.1*%
X192530000Y-66770000D03*
X192530000Y-64870000D03*
X190655000Y-65820000D03*
%TD*%
D12*
%TO.C,led4.3*%
X152530000Y-63750000D03*
X154580000Y-63750000D03*
%TD*%
D20*
%TO.C,R4.14*%
X162160000Y-72580000D03*
X162160000Y-74580000D03*
%TD*%
D21*
%TO.C,C4.1*%
X160030000Y-60613333D03*
X157955000Y-60613333D03*
%TD*%
D11*
%TO.C,R3.7*%
X174965715Y-63715000D03*
X176965715Y-63715000D03*
%TD*%
D22*
%TO.C,J3*%
X164092500Y-90070000D03*
D23*
X157892500Y-90070000D03*
D24*
X161142500Y-94870000D03*
%TD*%
D18*
%TO.C,R4.6*%
X170857500Y-60583333D03*
X168857500Y-60583333D03*
%TD*%
D25*
%TO.C,U3.1*%
X180155000Y-91960000D03*
X180155000Y-92910000D03*
X180155000Y-93860000D03*
X182665000Y-93860000D03*
X182665000Y-92910000D03*
X182665000Y-91960000D03*
%TD*%
D11*
%TO.C,R4.1*%
X152510000Y-51800000D03*
X154510000Y-51800000D03*
%TD*%
%TO.C,R1.5*%
X185910000Y-69090000D03*
X187910000Y-69090000D03*
%TD*%
D26*
%TO.C,R3.5*%
X204410000Y-89180000D03*
X202585000Y-89180000D03*
%TD*%
D18*
%TO.C,R4.16*%
X154510000Y-60583333D03*
X152510000Y-60583333D03*
%TD*%
D21*
%TO.C,C11.1*%
X187950000Y-66170000D03*
X185875000Y-66170000D03*
%TD*%
D27*
%TO.C,C3.2*%
X175040000Y-89210000D03*
X176940000Y-89210000D03*
%TD*%
D28*
%TO.C,SET1*%
X216070000Y-72250000D03*
X211570000Y-72250000D03*
%TD*%
D29*
%TO.C,C3.8*%
X169426072Y-63745000D03*
X171501072Y-63745000D03*
%TD*%
D18*
%TO.C,R2.7*%
X182570000Y-57430000D03*
X180570000Y-57430000D03*
%TD*%
D11*
%TO.C,R3.6*%
X180322500Y-66196667D03*
X182322500Y-66196667D03*
%TD*%
D28*
%TO.C,UP1*%
X216070000Y-77600000D03*
X211570000Y-77600000D03*
%TD*%
D30*
%TO.C,U1.1*%
X180135000Y-78450000D03*
X180135000Y-79400000D03*
X180135000Y-80350000D03*
X182445000Y-80350000D03*
X182445000Y-79400000D03*
X182445000Y-78450000D03*
%TD*%
D31*
%TO.C,RESET1*%
X152150000Y-79680000D03*
X156650000Y-79680000D03*
%TD*%
D27*
%TO.C,C3.4*%
X175040000Y-92455000D03*
X176940000Y-92455000D03*
%TD*%
D32*
%TO.C,C1.3*%
X176960000Y-76970000D03*
X175060000Y-76970000D03*
%TD*%
D26*
%TO.C,R1.3*%
X208532500Y-79950000D03*
X206707500Y-79950000D03*
%TD*%
D33*
%TO.C,L3.1*%
X188950000Y-87300000D03*
X188950000Y-92300000D03*
%TD*%
D34*
%TO.C,led3*%
X198732500Y-69618334D03*
X196682500Y-69618334D03*
%TD*%
D11*
%TO.C,R4.15*%
X206790000Y-89130000D03*
X208790000Y-89130000D03*
%TD*%
D26*
%TO.C,R3.3*%
X176882500Y-96220000D03*
X175057500Y-96220000D03*
%TD*%
D35*
%TO.C,C1.6*%
X197650000Y-76340000D03*
X197650000Y-81740000D03*
D36*
X197650000Y-76340000D03*
X197650000Y-81790000D03*
%TD*%
D37*
%TO.C,U11*%
X194010000Y-44910000D03*
X194010000Y-46910000D03*
X194010000Y-48910000D03*
X194010000Y-50910000D03*
X194010000Y-52910000D03*
X194010000Y-54910000D03*
X194010000Y-56910000D03*
X194010000Y-58910000D03*
D38*
X196510000Y-60410000D03*
X198510000Y-60410000D03*
X200510000Y-60410000D03*
X202510000Y-60410000D03*
X204510000Y-60410000D03*
X206510000Y-60410000D03*
D37*
X209010000Y-58910000D03*
X209010000Y-56910000D03*
X209010000Y-54910000D03*
X209010000Y-52910000D03*
X209010000Y-50910000D03*
X209010000Y-48910000D03*
X209010000Y-46910000D03*
X209010000Y-44910000D03*
%TD*%
D11*
%TO.C,R4.9*%
X152510000Y-54610000D03*
X154510000Y-54610000D03*
%TD*%
D18*
%TO.C,R4.8*%
X187860000Y-51800000D03*
X185860000Y-51800000D03*
%TD*%
D11*
%TO.C,R4.3*%
X152510000Y-57430000D03*
X154510000Y-57430000D03*
%TD*%
%TO.C,R4.2*%
X157962500Y-54610000D03*
X159962500Y-54610000D03*
%TD*%
D39*
%TO.C,R4.13*%
X162160000Y-68600000D03*
X162160000Y-66600000D03*
%TD*%
D12*
%TO.C,led4.1*%
X163700000Y-63760000D03*
X165750000Y-63760000D03*
%TD*%
D32*
%TO.C,C1.2*%
X176960000Y-79980000D03*
X175060000Y-79980000D03*
%TD*%
D11*
%TO.C,R11.2*%
X213260000Y-57010000D03*
X215260000Y-57010000D03*
%TD*%
D10*
%TO.C,R3.4*%
X190585000Y-96230000D03*
X192410000Y-96230000D03*
%TD*%
D11*
%TO.C,R1.14*%
X213260000Y-54610000D03*
X215260000Y-54610000D03*
%TD*%
%TO.C,R4.10*%
X174930000Y-60610000D03*
X176930000Y-60610000D03*
%TD*%
%TO.C,R1.13*%
X202667500Y-66140000D03*
X204667500Y-66140000D03*
%TD*%
D21*
%TO.C,C11.3*%
X187950000Y-54640000D03*
X185875000Y-54640000D03*
%TD*%
D40*
%TO.C,C1.1*%
X170390000Y-82280000D03*
X170390000Y-76880000D03*
D41*
X170390000Y-82280000D03*
X170390000Y-76830000D03*
%TD*%
D18*
%TO.C,R1.8*%
X182220000Y-69146667D03*
X180220000Y-69146667D03*
%TD*%
D32*
%TO.C,C3.6*%
X182240000Y-96300000D03*
X180340000Y-96300000D03*
%TD*%
D11*
%TO.C,R11.7*%
X185882500Y-60583333D03*
X187882500Y-60583333D03*
%TD*%
D27*
%TO.C,C3.7*%
X185690000Y-96250000D03*
X187590000Y-96250000D03*
%TD*%
%TO.C,C1.5*%
X180340000Y-83360000D03*
X182240000Y-83360000D03*
%TD*%
D10*
%TO.C,R3.1*%
X202585000Y-92425000D03*
X204410000Y-92425000D03*
%TD*%
D26*
%TO.C,R1.1*%
X204410000Y-76940000D03*
X202585000Y-76940000D03*
%TD*%
D28*
%TO.C,DOWN1*%
X216060000Y-66710000D03*
X211560000Y-66710000D03*
%TD*%
D33*
%TO.C,L1.1*%
X188940000Y-77070000D03*
X188940000Y-82070000D03*
%TD*%
D11*
%TO.C,R4.4*%
X180410000Y-51800000D03*
X182410000Y-51800000D03*
%TD*%
D35*
%TO.C,C3.1*%
X170430000Y-88960000D03*
X170430000Y-94360000D03*
D36*
X170430000Y-88960000D03*
X170430000Y-94360000D03*
%TD*%
D18*
%TO.C,R4.7*%
X165440000Y-60583333D03*
X163440000Y-60583333D03*
%TD*%
D26*
%TO.C,R1.2*%
X204410000Y-79950000D03*
X202585000Y-79950000D03*
%TD*%
D42*
%TO.C,D4*%
X162300000Y-81637500D03*
X162300000Y-77637500D03*
%TD*%
D21*
%TO.C,C4.2*%
X160030000Y-57460000D03*
X157955000Y-57460000D03*
%TD*%
D18*
%TO.C,R11.5*%
X187882500Y-57430000D03*
X185882500Y-57430000D03*
%TD*%
%TO.C,R1.7*%
X182370000Y-63680000D03*
X180370000Y-63680000D03*
%TD*%
D43*
%TO.C,U4*%
X163630000Y-44610000D03*
X163630000Y-46010000D03*
X163630000Y-47410000D03*
X163630000Y-48810000D03*
X163630000Y-50210000D03*
X163630000Y-51610000D03*
X163630000Y-53010000D03*
X163630000Y-54410000D03*
D44*
X165030000Y-56705000D03*
X166430000Y-56705000D03*
X167830000Y-56705000D03*
X169230000Y-56705000D03*
X170630000Y-56705000D03*
X172030000Y-56705000D03*
X173430000Y-56705000D03*
X174830000Y-56705000D03*
D43*
X176230000Y-54408800D03*
X176230000Y-53008800D03*
X176230000Y-51610000D03*
X176230000Y-50210000D03*
X176230000Y-48810000D03*
X176230000Y-47410000D03*
X176230000Y-46010000D03*
X176230000Y-44610000D03*
%TD*%
D32*
%TO.C,C1.4*%
X176960000Y-83270000D03*
X175060000Y-83270000D03*
%TD*%
D12*
%TO.C,led4*%
X206810000Y-92420000D03*
X208860000Y-92420000D03*
%TD*%
D21*
%TO.C,C3.9*%
X182447500Y-72740000D03*
X180372500Y-72740000D03*
%TD*%
D18*
%TO.C,R11.1*%
X198900000Y-66190000D03*
X196900000Y-66190000D03*
%TD*%
D19*
%TO.C,Q1.2*%
X192400000Y-72310000D03*
X192400000Y-70410000D03*
X190525000Y-71360000D03*
%TD*%
D27*
%TO.C,C3.5*%
X180340000Y-89260000D03*
X182240000Y-89260000D03*
%TD*%
D35*
%TO.C,C3.3*%
X197630000Y-88890000D03*
X197630000Y-94290000D03*
D36*
X197630000Y-88840000D03*
X197630000Y-94290000D03*
%TD*%
D11*
%TO.C,R11.3*%
X202517500Y-69523334D03*
X204517500Y-69523334D03*
%TD*%
D45*
%TO.C,U3.2*%
X176070000Y-67655000D03*
X174800000Y-67655000D03*
X173530000Y-67655000D03*
X172260000Y-67655000D03*
X170990000Y-67655000D03*
X169720000Y-67655000D03*
X168450000Y-67655000D03*
X167180000Y-67655000D03*
X167180000Y-72605000D03*
X168450000Y-72605000D03*
X169720000Y-72605000D03*
X170990000Y-72605000D03*
X172260000Y-72605000D03*
X173530000Y-72605000D03*
X174800000Y-72605000D03*
X176070000Y-72605000D03*
%TD*%
D21*
%TO.C,C11.2*%
X187950000Y-63745000D03*
X185875000Y-63745000D03*
%TD*%
D18*
%TO.C,R4.12*%
X182440000Y-54610000D03*
X180440000Y-54610000D03*
%TD*%
D46*
%TO.C,J1*%
X214180000Y-91852500D03*
X214180000Y-89312500D03*
X214180000Y-86772500D03*
X214180000Y-84232500D03*
%TD*%
D11*
%TO.C,R1.15*%
X213260000Y-51525000D03*
X215260000Y-51525000D03*
%TD*%
M02*
