%TF.GenerationSoftware,KiCad,Pcbnew,9.0.0*%
%TF.CreationDate,2025-07-17T22:09:11+07:00*%
%TF.ProjectId,esp8266-BU01,65737038-3236-4362-9d42-5530312e6b69,rev?*%
%TF.SameCoordinates,Original*%
%TF.FileFunction,Legend,Top*%
%TF.FilePolarity,Positive*%
%FSLAX46Y46*%
G04 Gerber Fmt 4.6, Leading zero omitted, Abs format (unit mm)*
G04 Created by KiCad (PCBNEW 9.0.0) date 2025-07-17 22:09:11*
%MOMM*%
%LPD*%
G01*
G04 APERTURE LIST*
%ADD10C,0.300000*%
%ADD11C,0.250000*%
%ADD12C,0.150000*%
%ADD13C,0.120000*%
%ADD14C,0.127000*%
%ADD15C,0.200000*%
G04 APERTURE END LIST*
D10*
X216460225Y-88632257D02*
X216317368Y-88560828D01*
X216317368Y-88560828D02*
X216103082Y-88560828D01*
X216103082Y-88560828D02*
X215888796Y-88632257D01*
X215888796Y-88632257D02*
X215745939Y-88775114D01*
X215745939Y-88775114D02*
X215674510Y-88917971D01*
X215674510Y-88917971D02*
X215603082Y-89203685D01*
X215603082Y-89203685D02*
X215603082Y-89417971D01*
X215603082Y-89417971D02*
X215674510Y-89703685D01*
X215674510Y-89703685D02*
X215745939Y-89846542D01*
X215745939Y-89846542D02*
X215888796Y-89989400D01*
X215888796Y-89989400D02*
X216103082Y-90060828D01*
X216103082Y-90060828D02*
X216245939Y-90060828D01*
X216245939Y-90060828D02*
X216460225Y-89989400D01*
X216460225Y-89989400D02*
X216531653Y-89917971D01*
X216531653Y-89917971D02*
X216531653Y-89417971D01*
X216531653Y-89417971D02*
X216245939Y-89417971D01*
X217174510Y-90060828D02*
X217174510Y-88560828D01*
X217174510Y-88560828D02*
X218031653Y-90060828D01*
X218031653Y-90060828D02*
X218031653Y-88560828D01*
X218745939Y-90060828D02*
X218745939Y-88560828D01*
X218745939Y-88560828D02*
X219103082Y-88560828D01*
X219103082Y-88560828D02*
X219317368Y-88632257D01*
X219317368Y-88632257D02*
X219460225Y-88775114D01*
X219460225Y-88775114D02*
X219531654Y-88917971D01*
X219531654Y-88917971D02*
X219603082Y-89203685D01*
X219603082Y-89203685D02*
X219603082Y-89417971D01*
X219603082Y-89417971D02*
X219531654Y-89703685D01*
X219531654Y-89703685D02*
X219460225Y-89846542D01*
X219460225Y-89846542D02*
X219317368Y-89989400D01*
X219317368Y-89989400D02*
X219103082Y-90060828D01*
X219103082Y-90060828D02*
X218745939Y-90060828D01*
D11*
X217285901Y-91063428D02*
X216571615Y-91063428D01*
X216571615Y-91063428D02*
X216500187Y-91777714D01*
X216500187Y-91777714D02*
X216571615Y-91706285D01*
X216571615Y-91706285D02*
X216714473Y-91634857D01*
X216714473Y-91634857D02*
X217071615Y-91634857D01*
X217071615Y-91634857D02*
X217214473Y-91706285D01*
X217214473Y-91706285D02*
X217285901Y-91777714D01*
X217285901Y-91777714D02*
X217357330Y-91920571D01*
X217357330Y-91920571D02*
X217357330Y-92277714D01*
X217357330Y-92277714D02*
X217285901Y-92420571D01*
X217285901Y-92420571D02*
X217214473Y-92492000D01*
X217214473Y-92492000D02*
X217071615Y-92563428D01*
X217071615Y-92563428D02*
X216714473Y-92563428D01*
X216714473Y-92563428D02*
X216571615Y-92492000D01*
X216571615Y-92492000D02*
X216500187Y-92420571D01*
X217785901Y-91063428D02*
X218285901Y-92563428D01*
X218285901Y-92563428D02*
X218785901Y-91063428D01*
D12*
X202546547Y-95234819D02*
X202213214Y-94758628D01*
X201975119Y-95234819D02*
X201975119Y-94234819D01*
X201975119Y-94234819D02*
X202356071Y-94234819D01*
X202356071Y-94234819D02*
X202451309Y-94282438D01*
X202451309Y-94282438D02*
X202498928Y-94330057D01*
X202498928Y-94330057D02*
X202546547Y-94425295D01*
X202546547Y-94425295D02*
X202546547Y-94568152D01*
X202546547Y-94568152D02*
X202498928Y-94663390D01*
X202498928Y-94663390D02*
X202451309Y-94711009D01*
X202451309Y-94711009D02*
X202356071Y-94758628D01*
X202356071Y-94758628D02*
X201975119Y-94758628D01*
X202879881Y-94234819D02*
X203498928Y-94234819D01*
X203498928Y-94234819D02*
X203165595Y-94615771D01*
X203165595Y-94615771D02*
X203308452Y-94615771D01*
X203308452Y-94615771D02*
X203403690Y-94663390D01*
X203403690Y-94663390D02*
X203451309Y-94711009D01*
X203451309Y-94711009D02*
X203498928Y-94806247D01*
X203498928Y-94806247D02*
X203498928Y-95044342D01*
X203498928Y-95044342D02*
X203451309Y-95139580D01*
X203451309Y-95139580D02*
X203403690Y-95187200D01*
X203403690Y-95187200D02*
X203308452Y-95234819D01*
X203308452Y-95234819D02*
X203022738Y-95234819D01*
X203022738Y-95234819D02*
X202927500Y-95187200D01*
X202927500Y-95187200D02*
X202879881Y-95139580D01*
X203927500Y-95139580D02*
X203975119Y-95187200D01*
X203975119Y-95187200D02*
X203927500Y-95234819D01*
X203927500Y-95234819D02*
X203879881Y-95187200D01*
X203879881Y-95187200D02*
X203927500Y-95139580D01*
X203927500Y-95139580D02*
X203927500Y-95234819D01*
X204356071Y-94330057D02*
X204403690Y-94282438D01*
X204403690Y-94282438D02*
X204498928Y-94234819D01*
X204498928Y-94234819D02*
X204737023Y-94234819D01*
X204737023Y-94234819D02*
X204832261Y-94282438D01*
X204832261Y-94282438D02*
X204879880Y-94330057D01*
X204879880Y-94330057D02*
X204927499Y-94425295D01*
X204927499Y-94425295D02*
X204927499Y-94520533D01*
X204927499Y-94520533D02*
X204879880Y-94663390D01*
X204879880Y-94663390D02*
X204308452Y-95234819D01*
X204308452Y-95234819D02*
X204927499Y-95234819D01*
X206282857Y-68328153D02*
X205949524Y-67851962D01*
X205711429Y-68328153D02*
X205711429Y-67328153D01*
X205711429Y-67328153D02*
X206092381Y-67328153D01*
X206092381Y-67328153D02*
X206187619Y-67375772D01*
X206187619Y-67375772D02*
X206235238Y-67423391D01*
X206235238Y-67423391D02*
X206282857Y-67518629D01*
X206282857Y-67518629D02*
X206282857Y-67661486D01*
X206282857Y-67661486D02*
X206235238Y-67756724D01*
X206235238Y-67756724D02*
X206187619Y-67804343D01*
X206187619Y-67804343D02*
X206092381Y-67851962D01*
X206092381Y-67851962D02*
X205711429Y-67851962D01*
X207235238Y-68328153D02*
X206663810Y-68328153D01*
X206949524Y-68328153D02*
X206949524Y-67328153D01*
X206949524Y-67328153D02*
X206854286Y-67471010D01*
X206854286Y-67471010D02*
X206759048Y-67566248D01*
X206759048Y-67566248D02*
X206663810Y-67613867D01*
X207663810Y-68232914D02*
X207711429Y-68280534D01*
X207711429Y-68280534D02*
X207663810Y-68328153D01*
X207663810Y-68328153D02*
X207616191Y-68280534D01*
X207616191Y-68280534D02*
X207663810Y-68232914D01*
X207663810Y-68232914D02*
X207663810Y-68328153D01*
X208663809Y-68328153D02*
X208092381Y-68328153D01*
X208378095Y-68328153D02*
X208378095Y-67328153D01*
X208378095Y-67328153D02*
X208282857Y-67471010D01*
X208282857Y-67471010D02*
X208187619Y-67566248D01*
X208187619Y-67566248D02*
X208092381Y-67613867D01*
X209616190Y-68328153D02*
X209044762Y-68328153D01*
X209330476Y-68328153D02*
X209330476Y-67328153D01*
X209330476Y-67328153D02*
X209235238Y-67471010D01*
X209235238Y-67471010D02*
X209140000Y-67566248D01*
X209140000Y-67566248D02*
X209044762Y-67613867D01*
X186039047Y-71584819D02*
X185705714Y-71108628D01*
X185467619Y-71584819D02*
X185467619Y-70584819D01*
X185467619Y-70584819D02*
X185848571Y-70584819D01*
X185848571Y-70584819D02*
X185943809Y-70632438D01*
X185943809Y-70632438D02*
X185991428Y-70680057D01*
X185991428Y-70680057D02*
X186039047Y-70775295D01*
X186039047Y-70775295D02*
X186039047Y-70918152D01*
X186039047Y-70918152D02*
X185991428Y-71013390D01*
X185991428Y-71013390D02*
X185943809Y-71061009D01*
X185943809Y-71061009D02*
X185848571Y-71108628D01*
X185848571Y-71108628D02*
X185467619Y-71108628D01*
X186991428Y-71584819D02*
X186420000Y-71584819D01*
X186705714Y-71584819D02*
X186705714Y-70584819D01*
X186705714Y-70584819D02*
X186610476Y-70727676D01*
X186610476Y-70727676D02*
X186515238Y-70822914D01*
X186515238Y-70822914D02*
X186420000Y-70870533D01*
X187420000Y-71489580D02*
X187467619Y-71537200D01*
X187467619Y-71537200D02*
X187420000Y-71584819D01*
X187420000Y-71584819D02*
X187372381Y-71537200D01*
X187372381Y-71537200D02*
X187420000Y-71489580D01*
X187420000Y-71489580D02*
X187420000Y-71584819D01*
X188324761Y-70584819D02*
X188134285Y-70584819D01*
X188134285Y-70584819D02*
X188039047Y-70632438D01*
X188039047Y-70632438D02*
X187991428Y-70680057D01*
X187991428Y-70680057D02*
X187896190Y-70822914D01*
X187896190Y-70822914D02*
X187848571Y-71013390D01*
X187848571Y-71013390D02*
X187848571Y-71394342D01*
X187848571Y-71394342D02*
X187896190Y-71489580D01*
X187896190Y-71489580D02*
X187943809Y-71537200D01*
X187943809Y-71537200D02*
X188039047Y-71584819D01*
X188039047Y-71584819D02*
X188229523Y-71584819D01*
X188229523Y-71584819D02*
X188324761Y-71537200D01*
X188324761Y-71537200D02*
X188372380Y-71489580D01*
X188372380Y-71489580D02*
X188419999Y-71394342D01*
X188419999Y-71394342D02*
X188419999Y-71156247D01*
X188419999Y-71156247D02*
X188372380Y-71061009D01*
X188372380Y-71061009D02*
X188324761Y-71013390D01*
X188324761Y-71013390D02*
X188229523Y-70965771D01*
X188229523Y-70965771D02*
X188039047Y-70965771D01*
X188039047Y-70965771D02*
X187943809Y-71013390D01*
X187943809Y-71013390D02*
X187896190Y-71061009D01*
X187896190Y-71061009D02*
X187848571Y-71156247D01*
X212902857Y-59388152D02*
X212569524Y-58911961D01*
X212331429Y-59388152D02*
X212331429Y-58388152D01*
X212331429Y-58388152D02*
X212712381Y-58388152D01*
X212712381Y-58388152D02*
X212807619Y-58435771D01*
X212807619Y-58435771D02*
X212855238Y-58483390D01*
X212855238Y-58483390D02*
X212902857Y-58578628D01*
X212902857Y-58578628D02*
X212902857Y-58721485D01*
X212902857Y-58721485D02*
X212855238Y-58816723D01*
X212855238Y-58816723D02*
X212807619Y-58864342D01*
X212807619Y-58864342D02*
X212712381Y-58911961D01*
X212712381Y-58911961D02*
X212331429Y-58911961D01*
X213855238Y-59388152D02*
X213283810Y-59388152D01*
X213569524Y-59388152D02*
X213569524Y-58388152D01*
X213569524Y-58388152D02*
X213474286Y-58531009D01*
X213474286Y-58531009D02*
X213379048Y-58626247D01*
X213379048Y-58626247D02*
X213283810Y-58673866D01*
X214807619Y-59388152D02*
X214236191Y-59388152D01*
X214521905Y-59388152D02*
X214521905Y-58388152D01*
X214521905Y-58388152D02*
X214426667Y-58531009D01*
X214426667Y-58531009D02*
X214331429Y-58626247D01*
X214331429Y-58626247D02*
X214236191Y-58673866D01*
X215236191Y-59292913D02*
X215283810Y-59340533D01*
X215283810Y-59340533D02*
X215236191Y-59388152D01*
X215236191Y-59388152D02*
X215188572Y-59340533D01*
X215188572Y-59340533D02*
X215236191Y-59292913D01*
X215236191Y-59292913D02*
X215236191Y-59388152D01*
X216140952Y-58388152D02*
X215950476Y-58388152D01*
X215950476Y-58388152D02*
X215855238Y-58435771D01*
X215855238Y-58435771D02*
X215807619Y-58483390D01*
X215807619Y-58483390D02*
X215712381Y-58626247D01*
X215712381Y-58626247D02*
X215664762Y-58816723D01*
X215664762Y-58816723D02*
X215664762Y-59197675D01*
X215664762Y-59197675D02*
X215712381Y-59292913D01*
X215712381Y-59292913D02*
X215760000Y-59340533D01*
X215760000Y-59340533D02*
X215855238Y-59388152D01*
X215855238Y-59388152D02*
X216045714Y-59388152D01*
X216045714Y-59388152D02*
X216140952Y-59340533D01*
X216140952Y-59340533D02*
X216188571Y-59292913D01*
X216188571Y-59292913D02*
X216236190Y-59197675D01*
X216236190Y-59197675D02*
X216236190Y-58959580D01*
X216236190Y-58959580D02*
X216188571Y-58864342D01*
X216188571Y-58864342D02*
X216140952Y-58816723D01*
X216140952Y-58816723D02*
X216045714Y-58769104D01*
X216045714Y-58769104D02*
X215855238Y-58769104D01*
X215855238Y-58769104D02*
X215760000Y-58816723D01*
X215760000Y-58816723D02*
X215712381Y-58864342D01*
X215712381Y-58864342D02*
X215664762Y-58959580D01*
X157055119Y-62564819D02*
X156959881Y-62517200D01*
X156959881Y-62517200D02*
X156912262Y-62421961D01*
X156912262Y-62421961D02*
X156912262Y-61564819D01*
X157817024Y-62517200D02*
X157721786Y-62564819D01*
X157721786Y-62564819D02*
X157531310Y-62564819D01*
X157531310Y-62564819D02*
X157436072Y-62517200D01*
X157436072Y-62517200D02*
X157388453Y-62421961D01*
X157388453Y-62421961D02*
X157388453Y-62041009D01*
X157388453Y-62041009D02*
X157436072Y-61945771D01*
X157436072Y-61945771D02*
X157531310Y-61898152D01*
X157531310Y-61898152D02*
X157721786Y-61898152D01*
X157721786Y-61898152D02*
X157817024Y-61945771D01*
X157817024Y-61945771D02*
X157864643Y-62041009D01*
X157864643Y-62041009D02*
X157864643Y-62136247D01*
X157864643Y-62136247D02*
X157388453Y-62231485D01*
X158721786Y-62564819D02*
X158721786Y-61564819D01*
X158721786Y-62517200D02*
X158626548Y-62564819D01*
X158626548Y-62564819D02*
X158436072Y-62564819D01*
X158436072Y-62564819D02*
X158340834Y-62517200D01*
X158340834Y-62517200D02*
X158293215Y-62469580D01*
X158293215Y-62469580D02*
X158245596Y-62374342D01*
X158245596Y-62374342D02*
X158245596Y-62088628D01*
X158245596Y-62088628D02*
X158293215Y-61993390D01*
X158293215Y-61993390D02*
X158340834Y-61945771D01*
X158340834Y-61945771D02*
X158436072Y-61898152D01*
X158436072Y-61898152D02*
X158626548Y-61898152D01*
X158626548Y-61898152D02*
X158721786Y-61945771D01*
X159626548Y-61898152D02*
X159626548Y-62564819D01*
X159388453Y-61517200D02*
X159150358Y-62231485D01*
X159150358Y-62231485D02*
X159769405Y-62231485D01*
X160150358Y-62469580D02*
X160197977Y-62517200D01*
X160197977Y-62517200D02*
X160150358Y-62564819D01*
X160150358Y-62564819D02*
X160102739Y-62517200D01*
X160102739Y-62517200D02*
X160150358Y-62469580D01*
X160150358Y-62469580D02*
X160150358Y-62564819D01*
X160578929Y-61660057D02*
X160626548Y-61612438D01*
X160626548Y-61612438D02*
X160721786Y-61564819D01*
X160721786Y-61564819D02*
X160959881Y-61564819D01*
X160959881Y-61564819D02*
X161055119Y-61612438D01*
X161055119Y-61612438D02*
X161102738Y-61660057D01*
X161102738Y-61660057D02*
X161150357Y-61755295D01*
X161150357Y-61755295D02*
X161150357Y-61850533D01*
X161150357Y-61850533D02*
X161102738Y-61993390D01*
X161102738Y-61993390D02*
X160531310Y-62564819D01*
X160531310Y-62564819D02*
X161150357Y-62564819D01*
X152713810Y-76304819D02*
X152713810Y-77114342D01*
X152713810Y-77114342D02*
X152761429Y-77209580D01*
X152761429Y-77209580D02*
X152809048Y-77257200D01*
X152809048Y-77257200D02*
X152904286Y-77304819D01*
X152904286Y-77304819D02*
X153094762Y-77304819D01*
X153094762Y-77304819D02*
X153190000Y-77257200D01*
X153190000Y-77257200D02*
X153237619Y-77209580D01*
X153237619Y-77209580D02*
X153285238Y-77114342D01*
X153285238Y-77114342D02*
X153285238Y-76304819D01*
X154190000Y-76638152D02*
X154190000Y-77304819D01*
X153951905Y-76257200D02*
X153713810Y-76971485D01*
X153713810Y-76971485D02*
X154332857Y-76971485D01*
X154713810Y-77209580D02*
X154761429Y-77257200D01*
X154761429Y-77257200D02*
X154713810Y-77304819D01*
X154713810Y-77304819D02*
X154666191Y-77257200D01*
X154666191Y-77257200D02*
X154713810Y-77209580D01*
X154713810Y-77209580D02*
X154713810Y-77304819D01*
X155713809Y-77304819D02*
X155142381Y-77304819D01*
X155428095Y-77304819D02*
X155428095Y-76304819D01*
X155428095Y-76304819D02*
X155332857Y-76447676D01*
X155332857Y-76447676D02*
X155237619Y-76542914D01*
X155237619Y-76542914D02*
X155142381Y-76590533D01*
X206739047Y-75744819D02*
X206405714Y-75268628D01*
X206167619Y-75744819D02*
X206167619Y-74744819D01*
X206167619Y-74744819D02*
X206548571Y-74744819D01*
X206548571Y-74744819D02*
X206643809Y-74792438D01*
X206643809Y-74792438D02*
X206691428Y-74840057D01*
X206691428Y-74840057D02*
X206739047Y-74935295D01*
X206739047Y-74935295D02*
X206739047Y-75078152D01*
X206739047Y-75078152D02*
X206691428Y-75173390D01*
X206691428Y-75173390D02*
X206643809Y-75221009D01*
X206643809Y-75221009D02*
X206548571Y-75268628D01*
X206548571Y-75268628D02*
X206167619Y-75268628D01*
X207691428Y-75744819D02*
X207120000Y-75744819D01*
X207405714Y-75744819D02*
X207405714Y-74744819D01*
X207405714Y-74744819D02*
X207310476Y-74887676D01*
X207310476Y-74887676D02*
X207215238Y-74982914D01*
X207215238Y-74982914D02*
X207120000Y-75030533D01*
X208120000Y-75649580D02*
X208167619Y-75697200D01*
X208167619Y-75697200D02*
X208120000Y-75744819D01*
X208120000Y-75744819D02*
X208072381Y-75697200D01*
X208072381Y-75697200D02*
X208120000Y-75649580D01*
X208120000Y-75649580D02*
X208120000Y-75744819D01*
X209024761Y-75078152D02*
X209024761Y-75744819D01*
X208786666Y-74697200D02*
X208548571Y-75411485D01*
X208548571Y-75411485D02*
X209167618Y-75411485D01*
X179742857Y-59218152D02*
X179409524Y-58741961D01*
X179171429Y-59218152D02*
X179171429Y-58218152D01*
X179171429Y-58218152D02*
X179552381Y-58218152D01*
X179552381Y-58218152D02*
X179647619Y-58265771D01*
X179647619Y-58265771D02*
X179695238Y-58313390D01*
X179695238Y-58313390D02*
X179742857Y-58408628D01*
X179742857Y-58408628D02*
X179742857Y-58551485D01*
X179742857Y-58551485D02*
X179695238Y-58646723D01*
X179695238Y-58646723D02*
X179647619Y-58694342D01*
X179647619Y-58694342D02*
X179552381Y-58741961D01*
X179552381Y-58741961D02*
X179171429Y-58741961D01*
X180600000Y-58551485D02*
X180600000Y-59218152D01*
X180361905Y-58170533D02*
X180123810Y-58884818D01*
X180123810Y-58884818D02*
X180742857Y-58884818D01*
X181123810Y-59122913D02*
X181171429Y-59170533D01*
X181171429Y-59170533D02*
X181123810Y-59218152D01*
X181123810Y-59218152D02*
X181076191Y-59170533D01*
X181076191Y-59170533D02*
X181123810Y-59122913D01*
X181123810Y-59122913D02*
X181123810Y-59218152D01*
X182123809Y-59218152D02*
X181552381Y-59218152D01*
X181838095Y-59218152D02*
X181838095Y-58218152D01*
X181838095Y-58218152D02*
X181742857Y-58361009D01*
X181742857Y-58361009D02*
X181647619Y-58456247D01*
X181647619Y-58456247D02*
X181552381Y-58503866D01*
X183076190Y-59218152D02*
X182504762Y-59218152D01*
X182790476Y-59218152D02*
X182790476Y-58218152D01*
X182790476Y-58218152D02*
X182695238Y-58361009D01*
X182695238Y-58361009D02*
X182600000Y-58456247D01*
X182600000Y-58456247D02*
X182504762Y-58503866D01*
X206432857Y-64944819D02*
X206099524Y-64468628D01*
X205861429Y-64944819D02*
X205861429Y-63944819D01*
X205861429Y-63944819D02*
X206242381Y-63944819D01*
X206242381Y-63944819D02*
X206337619Y-63992438D01*
X206337619Y-63992438D02*
X206385238Y-64040057D01*
X206385238Y-64040057D02*
X206432857Y-64135295D01*
X206432857Y-64135295D02*
X206432857Y-64278152D01*
X206432857Y-64278152D02*
X206385238Y-64373390D01*
X206385238Y-64373390D02*
X206337619Y-64421009D01*
X206337619Y-64421009D02*
X206242381Y-64468628D01*
X206242381Y-64468628D02*
X205861429Y-64468628D01*
X207385238Y-64944819D02*
X206813810Y-64944819D01*
X207099524Y-64944819D02*
X207099524Y-63944819D01*
X207099524Y-63944819D02*
X207004286Y-64087676D01*
X207004286Y-64087676D02*
X206909048Y-64182914D01*
X206909048Y-64182914D02*
X206813810Y-64230533D01*
X207813810Y-64849580D02*
X207861429Y-64897200D01*
X207861429Y-64897200D02*
X207813810Y-64944819D01*
X207813810Y-64944819D02*
X207766191Y-64897200D01*
X207766191Y-64897200D02*
X207813810Y-64849580D01*
X207813810Y-64849580D02*
X207813810Y-64944819D01*
X208813809Y-64944819D02*
X208242381Y-64944819D01*
X208528095Y-64944819D02*
X208528095Y-63944819D01*
X208528095Y-63944819D02*
X208432857Y-64087676D01*
X208432857Y-64087676D02*
X208337619Y-64182914D01*
X208337619Y-64182914D02*
X208242381Y-64230533D01*
X209194762Y-64040057D02*
X209242381Y-63992438D01*
X209242381Y-63992438D02*
X209337619Y-63944819D01*
X209337619Y-63944819D02*
X209575714Y-63944819D01*
X209575714Y-63944819D02*
X209670952Y-63992438D01*
X209670952Y-63992438D02*
X209718571Y-64040057D01*
X209718571Y-64040057D02*
X209766190Y-64135295D01*
X209766190Y-64135295D02*
X209766190Y-64230533D01*
X209766190Y-64230533D02*
X209718571Y-64373390D01*
X209718571Y-64373390D02*
X209147143Y-64944819D01*
X209147143Y-64944819D02*
X209766190Y-64944819D01*
X190782976Y-63560057D02*
X190687738Y-63512438D01*
X190687738Y-63512438D02*
X190592500Y-63417200D01*
X190592500Y-63417200D02*
X190449643Y-63274342D01*
X190449643Y-63274342D02*
X190354405Y-63226723D01*
X190354405Y-63226723D02*
X190259167Y-63226723D01*
X190306786Y-63464819D02*
X190211548Y-63417200D01*
X190211548Y-63417200D02*
X190116310Y-63321961D01*
X190116310Y-63321961D02*
X190068691Y-63131485D01*
X190068691Y-63131485D02*
X190068691Y-62798152D01*
X190068691Y-62798152D02*
X190116310Y-62607676D01*
X190116310Y-62607676D02*
X190211548Y-62512438D01*
X190211548Y-62512438D02*
X190306786Y-62464819D01*
X190306786Y-62464819D02*
X190497262Y-62464819D01*
X190497262Y-62464819D02*
X190592500Y-62512438D01*
X190592500Y-62512438D02*
X190687738Y-62607676D01*
X190687738Y-62607676D02*
X190735357Y-62798152D01*
X190735357Y-62798152D02*
X190735357Y-63131485D01*
X190735357Y-63131485D02*
X190687738Y-63321961D01*
X190687738Y-63321961D02*
X190592500Y-63417200D01*
X190592500Y-63417200D02*
X190497262Y-63464819D01*
X190497262Y-63464819D02*
X190306786Y-63464819D01*
X191687738Y-63464819D02*
X191116310Y-63464819D01*
X191402024Y-63464819D02*
X191402024Y-62464819D01*
X191402024Y-62464819D02*
X191306786Y-62607676D01*
X191306786Y-62607676D02*
X191211548Y-62702914D01*
X191211548Y-62702914D02*
X191116310Y-62750533D01*
X192116310Y-63369580D02*
X192163929Y-63417200D01*
X192163929Y-63417200D02*
X192116310Y-63464819D01*
X192116310Y-63464819D02*
X192068691Y-63417200D01*
X192068691Y-63417200D02*
X192116310Y-63369580D01*
X192116310Y-63369580D02*
X192116310Y-63464819D01*
X193116309Y-63464819D02*
X192544881Y-63464819D01*
X192830595Y-63464819D02*
X192830595Y-62464819D01*
X192830595Y-62464819D02*
X192735357Y-62607676D01*
X192735357Y-62607676D02*
X192640119Y-62702914D01*
X192640119Y-62702914D02*
X192544881Y-62750533D01*
X151602619Y-62554819D02*
X151507381Y-62507200D01*
X151507381Y-62507200D02*
X151459762Y-62411961D01*
X151459762Y-62411961D02*
X151459762Y-61554819D01*
X152364524Y-62507200D02*
X152269286Y-62554819D01*
X152269286Y-62554819D02*
X152078810Y-62554819D01*
X152078810Y-62554819D02*
X151983572Y-62507200D01*
X151983572Y-62507200D02*
X151935953Y-62411961D01*
X151935953Y-62411961D02*
X151935953Y-62031009D01*
X151935953Y-62031009D02*
X151983572Y-61935771D01*
X151983572Y-61935771D02*
X152078810Y-61888152D01*
X152078810Y-61888152D02*
X152269286Y-61888152D01*
X152269286Y-61888152D02*
X152364524Y-61935771D01*
X152364524Y-61935771D02*
X152412143Y-62031009D01*
X152412143Y-62031009D02*
X152412143Y-62126247D01*
X152412143Y-62126247D02*
X151935953Y-62221485D01*
X153269286Y-62554819D02*
X153269286Y-61554819D01*
X153269286Y-62507200D02*
X153174048Y-62554819D01*
X153174048Y-62554819D02*
X152983572Y-62554819D01*
X152983572Y-62554819D02*
X152888334Y-62507200D01*
X152888334Y-62507200D02*
X152840715Y-62459580D01*
X152840715Y-62459580D02*
X152793096Y-62364342D01*
X152793096Y-62364342D02*
X152793096Y-62078628D01*
X152793096Y-62078628D02*
X152840715Y-61983390D01*
X152840715Y-61983390D02*
X152888334Y-61935771D01*
X152888334Y-61935771D02*
X152983572Y-61888152D01*
X152983572Y-61888152D02*
X153174048Y-61888152D01*
X153174048Y-61888152D02*
X153269286Y-61935771D01*
X154174048Y-61888152D02*
X154174048Y-62554819D01*
X153935953Y-61507200D02*
X153697858Y-62221485D01*
X153697858Y-62221485D02*
X154316905Y-62221485D01*
X154697858Y-62459580D02*
X154745477Y-62507200D01*
X154745477Y-62507200D02*
X154697858Y-62554819D01*
X154697858Y-62554819D02*
X154650239Y-62507200D01*
X154650239Y-62507200D02*
X154697858Y-62459580D01*
X154697858Y-62459580D02*
X154697858Y-62554819D01*
X155078810Y-61554819D02*
X155697857Y-61554819D01*
X155697857Y-61554819D02*
X155364524Y-61935771D01*
X155364524Y-61935771D02*
X155507381Y-61935771D01*
X155507381Y-61935771D02*
X155602619Y-61983390D01*
X155602619Y-61983390D02*
X155650238Y-62031009D01*
X155650238Y-62031009D02*
X155697857Y-62126247D01*
X155697857Y-62126247D02*
X155697857Y-62364342D01*
X155697857Y-62364342D02*
X155650238Y-62459580D01*
X155650238Y-62459580D02*
X155602619Y-62507200D01*
X155602619Y-62507200D02*
X155507381Y-62554819D01*
X155507381Y-62554819D02*
X155221667Y-62554819D01*
X155221667Y-62554819D02*
X155126429Y-62507200D01*
X155126429Y-62507200D02*
X155078810Y-62459580D01*
X161022857Y-71704819D02*
X160689524Y-71228628D01*
X160451429Y-71704819D02*
X160451429Y-70704819D01*
X160451429Y-70704819D02*
X160832381Y-70704819D01*
X160832381Y-70704819D02*
X160927619Y-70752438D01*
X160927619Y-70752438D02*
X160975238Y-70800057D01*
X160975238Y-70800057D02*
X161022857Y-70895295D01*
X161022857Y-70895295D02*
X161022857Y-71038152D01*
X161022857Y-71038152D02*
X160975238Y-71133390D01*
X160975238Y-71133390D02*
X160927619Y-71181009D01*
X160927619Y-71181009D02*
X160832381Y-71228628D01*
X160832381Y-71228628D02*
X160451429Y-71228628D01*
X161880000Y-71038152D02*
X161880000Y-71704819D01*
X161641905Y-70657200D02*
X161403810Y-71371485D01*
X161403810Y-71371485D02*
X162022857Y-71371485D01*
X162403810Y-71609580D02*
X162451429Y-71657200D01*
X162451429Y-71657200D02*
X162403810Y-71704819D01*
X162403810Y-71704819D02*
X162356191Y-71657200D01*
X162356191Y-71657200D02*
X162403810Y-71609580D01*
X162403810Y-71609580D02*
X162403810Y-71704819D01*
X163403809Y-71704819D02*
X162832381Y-71704819D01*
X163118095Y-71704819D02*
X163118095Y-70704819D01*
X163118095Y-70704819D02*
X163022857Y-70847676D01*
X163022857Y-70847676D02*
X162927619Y-70942914D01*
X162927619Y-70942914D02*
X162832381Y-70990533D01*
X164260952Y-71038152D02*
X164260952Y-71704819D01*
X164022857Y-70657200D02*
X163784762Y-71371485D01*
X163784762Y-71371485D02*
X164403809Y-71371485D01*
X158139047Y-59219580D02*
X158091428Y-59267200D01*
X158091428Y-59267200D02*
X157948571Y-59314819D01*
X157948571Y-59314819D02*
X157853333Y-59314819D01*
X157853333Y-59314819D02*
X157710476Y-59267200D01*
X157710476Y-59267200D02*
X157615238Y-59171961D01*
X157615238Y-59171961D02*
X157567619Y-59076723D01*
X157567619Y-59076723D02*
X157520000Y-58886247D01*
X157520000Y-58886247D02*
X157520000Y-58743390D01*
X157520000Y-58743390D02*
X157567619Y-58552914D01*
X157567619Y-58552914D02*
X157615238Y-58457676D01*
X157615238Y-58457676D02*
X157710476Y-58362438D01*
X157710476Y-58362438D02*
X157853333Y-58314819D01*
X157853333Y-58314819D02*
X157948571Y-58314819D01*
X157948571Y-58314819D02*
X158091428Y-58362438D01*
X158091428Y-58362438D02*
X158139047Y-58410057D01*
X158996190Y-58648152D02*
X158996190Y-59314819D01*
X158758095Y-58267200D02*
X158520000Y-58981485D01*
X158520000Y-58981485D02*
X159139047Y-58981485D01*
X159520000Y-59219580D02*
X159567619Y-59267200D01*
X159567619Y-59267200D02*
X159520000Y-59314819D01*
X159520000Y-59314819D02*
X159472381Y-59267200D01*
X159472381Y-59267200D02*
X159520000Y-59219580D01*
X159520000Y-59219580D02*
X159520000Y-59314819D01*
X160519999Y-59314819D02*
X159948571Y-59314819D01*
X160234285Y-59314819D02*
X160234285Y-58314819D01*
X160234285Y-58314819D02*
X160139047Y-58457676D01*
X160139047Y-58457676D02*
X160043809Y-58552914D01*
X160043809Y-58552914D02*
X159948571Y-58600533D01*
X174939047Y-62814819D02*
X174605714Y-62338628D01*
X174367619Y-62814819D02*
X174367619Y-61814819D01*
X174367619Y-61814819D02*
X174748571Y-61814819D01*
X174748571Y-61814819D02*
X174843809Y-61862438D01*
X174843809Y-61862438D02*
X174891428Y-61910057D01*
X174891428Y-61910057D02*
X174939047Y-62005295D01*
X174939047Y-62005295D02*
X174939047Y-62148152D01*
X174939047Y-62148152D02*
X174891428Y-62243390D01*
X174891428Y-62243390D02*
X174843809Y-62291009D01*
X174843809Y-62291009D02*
X174748571Y-62338628D01*
X174748571Y-62338628D02*
X174367619Y-62338628D01*
X175272381Y-61814819D02*
X175891428Y-61814819D01*
X175891428Y-61814819D02*
X175558095Y-62195771D01*
X175558095Y-62195771D02*
X175700952Y-62195771D01*
X175700952Y-62195771D02*
X175796190Y-62243390D01*
X175796190Y-62243390D02*
X175843809Y-62291009D01*
X175843809Y-62291009D02*
X175891428Y-62386247D01*
X175891428Y-62386247D02*
X175891428Y-62624342D01*
X175891428Y-62624342D02*
X175843809Y-62719580D01*
X175843809Y-62719580D02*
X175796190Y-62767200D01*
X175796190Y-62767200D02*
X175700952Y-62814819D01*
X175700952Y-62814819D02*
X175415238Y-62814819D01*
X175415238Y-62814819D02*
X175320000Y-62767200D01*
X175320000Y-62767200D02*
X175272381Y-62719580D01*
X176320000Y-62719580D02*
X176367619Y-62767200D01*
X176367619Y-62767200D02*
X176320000Y-62814819D01*
X176320000Y-62814819D02*
X176272381Y-62767200D01*
X176272381Y-62767200D02*
X176320000Y-62719580D01*
X176320000Y-62719580D02*
X176320000Y-62814819D01*
X176700952Y-61814819D02*
X177367618Y-61814819D01*
X177367618Y-61814819D02*
X176939047Y-62814819D01*
X156526666Y-94954819D02*
X156526666Y-95669104D01*
X156526666Y-95669104D02*
X156479047Y-95811961D01*
X156479047Y-95811961D02*
X156383809Y-95907200D01*
X156383809Y-95907200D02*
X156240952Y-95954819D01*
X156240952Y-95954819D02*
X156145714Y-95954819D01*
X156907619Y-94954819D02*
X157526666Y-94954819D01*
X157526666Y-94954819D02*
X157193333Y-95335771D01*
X157193333Y-95335771D02*
X157336190Y-95335771D01*
X157336190Y-95335771D02*
X157431428Y-95383390D01*
X157431428Y-95383390D02*
X157479047Y-95431009D01*
X157479047Y-95431009D02*
X157526666Y-95526247D01*
X157526666Y-95526247D02*
X157526666Y-95764342D01*
X157526666Y-95764342D02*
X157479047Y-95859580D01*
X157479047Y-95859580D02*
X157431428Y-95907200D01*
X157431428Y-95907200D02*
X157336190Y-95954819D01*
X157336190Y-95954819D02*
X157050476Y-95954819D01*
X157050476Y-95954819D02*
X156955238Y-95907200D01*
X156955238Y-95907200D02*
X156907619Y-95859580D01*
X169229047Y-59664819D02*
X168895714Y-59188628D01*
X168657619Y-59664819D02*
X168657619Y-58664819D01*
X168657619Y-58664819D02*
X169038571Y-58664819D01*
X169038571Y-58664819D02*
X169133809Y-58712438D01*
X169133809Y-58712438D02*
X169181428Y-58760057D01*
X169181428Y-58760057D02*
X169229047Y-58855295D01*
X169229047Y-58855295D02*
X169229047Y-58998152D01*
X169229047Y-58998152D02*
X169181428Y-59093390D01*
X169181428Y-59093390D02*
X169133809Y-59141009D01*
X169133809Y-59141009D02*
X169038571Y-59188628D01*
X169038571Y-59188628D02*
X168657619Y-59188628D01*
X170086190Y-58998152D02*
X170086190Y-59664819D01*
X169848095Y-58617200D02*
X169610000Y-59331485D01*
X169610000Y-59331485D02*
X170229047Y-59331485D01*
X170610000Y-59569580D02*
X170657619Y-59617200D01*
X170657619Y-59617200D02*
X170610000Y-59664819D01*
X170610000Y-59664819D02*
X170562381Y-59617200D01*
X170562381Y-59617200D02*
X170610000Y-59569580D01*
X170610000Y-59569580D02*
X170610000Y-59664819D01*
X171514761Y-58664819D02*
X171324285Y-58664819D01*
X171324285Y-58664819D02*
X171229047Y-58712438D01*
X171229047Y-58712438D02*
X171181428Y-58760057D01*
X171181428Y-58760057D02*
X171086190Y-58902914D01*
X171086190Y-58902914D02*
X171038571Y-59093390D01*
X171038571Y-59093390D02*
X171038571Y-59474342D01*
X171038571Y-59474342D02*
X171086190Y-59569580D01*
X171086190Y-59569580D02*
X171133809Y-59617200D01*
X171133809Y-59617200D02*
X171229047Y-59664819D01*
X171229047Y-59664819D02*
X171419523Y-59664819D01*
X171419523Y-59664819D02*
X171514761Y-59617200D01*
X171514761Y-59617200D02*
X171562380Y-59569580D01*
X171562380Y-59569580D02*
X171609999Y-59474342D01*
X171609999Y-59474342D02*
X171609999Y-59236247D01*
X171609999Y-59236247D02*
X171562380Y-59141009D01*
X171562380Y-59141009D02*
X171514761Y-59093390D01*
X171514761Y-59093390D02*
X171419523Y-59045771D01*
X171419523Y-59045771D02*
X171229047Y-59045771D01*
X171229047Y-59045771D02*
X171133809Y-59093390D01*
X171133809Y-59093390D02*
X171086190Y-59141009D01*
X171086190Y-59141009D02*
X171038571Y-59236247D01*
X180795880Y-90568276D02*
X180795880Y-91086371D01*
X180795880Y-91086371D02*
X180826357Y-91147323D01*
X180826357Y-91147323D02*
X180856833Y-91177800D01*
X180856833Y-91177800D02*
X180917785Y-91208276D01*
X180917785Y-91208276D02*
X181039690Y-91208276D01*
X181039690Y-91208276D02*
X181100642Y-91177800D01*
X181100642Y-91177800D02*
X181131119Y-91147323D01*
X181131119Y-91147323D02*
X181161595Y-91086371D01*
X181161595Y-91086371D02*
X181161595Y-90568276D01*
X181405404Y-90568276D02*
X181801595Y-90568276D01*
X181801595Y-90568276D02*
X181588261Y-90812085D01*
X181588261Y-90812085D02*
X181679690Y-90812085D01*
X181679690Y-90812085D02*
X181740642Y-90842561D01*
X181740642Y-90842561D02*
X181771118Y-90873038D01*
X181771118Y-90873038D02*
X181801595Y-90933990D01*
X181801595Y-90933990D02*
X181801595Y-91086371D01*
X181801595Y-91086371D02*
X181771118Y-91147323D01*
X181771118Y-91147323D02*
X181740642Y-91177800D01*
X181740642Y-91177800D02*
X181679690Y-91208276D01*
X181679690Y-91208276D02*
X181496833Y-91208276D01*
X181496833Y-91208276D02*
X181435880Y-91177800D01*
X181435880Y-91177800D02*
X181405404Y-91147323D01*
X182075880Y-91147323D02*
X182106357Y-91177800D01*
X182106357Y-91177800D02*
X182075880Y-91208276D01*
X182075880Y-91208276D02*
X182045404Y-91177800D01*
X182045404Y-91177800D02*
X182075880Y-91147323D01*
X182075880Y-91147323D02*
X182075880Y-91208276D01*
X182715881Y-91208276D02*
X182350166Y-91208276D01*
X182533023Y-91208276D02*
X182533023Y-90568276D01*
X182533023Y-90568276D02*
X182472071Y-90659704D01*
X182472071Y-90659704D02*
X182411119Y-90720657D01*
X182411119Y-90720657D02*
X182350166Y-90751133D01*
X152629047Y-50604819D02*
X152295714Y-50128628D01*
X152057619Y-50604819D02*
X152057619Y-49604819D01*
X152057619Y-49604819D02*
X152438571Y-49604819D01*
X152438571Y-49604819D02*
X152533809Y-49652438D01*
X152533809Y-49652438D02*
X152581428Y-49700057D01*
X152581428Y-49700057D02*
X152629047Y-49795295D01*
X152629047Y-49795295D02*
X152629047Y-49938152D01*
X152629047Y-49938152D02*
X152581428Y-50033390D01*
X152581428Y-50033390D02*
X152533809Y-50081009D01*
X152533809Y-50081009D02*
X152438571Y-50128628D01*
X152438571Y-50128628D02*
X152057619Y-50128628D01*
X153486190Y-49938152D02*
X153486190Y-50604819D01*
X153248095Y-49557200D02*
X153010000Y-50271485D01*
X153010000Y-50271485D02*
X153629047Y-50271485D01*
X154010000Y-50509580D02*
X154057619Y-50557200D01*
X154057619Y-50557200D02*
X154010000Y-50604819D01*
X154010000Y-50604819D02*
X153962381Y-50557200D01*
X153962381Y-50557200D02*
X154010000Y-50509580D01*
X154010000Y-50509580D02*
X154010000Y-50604819D01*
X155009999Y-50604819D02*
X154438571Y-50604819D01*
X154724285Y-50604819D02*
X154724285Y-49604819D01*
X154724285Y-49604819D02*
X154629047Y-49747676D01*
X154629047Y-49747676D02*
X154533809Y-49842914D01*
X154533809Y-49842914D02*
X154438571Y-49890533D01*
X186029047Y-67894819D02*
X185695714Y-67418628D01*
X185457619Y-67894819D02*
X185457619Y-66894819D01*
X185457619Y-66894819D02*
X185838571Y-66894819D01*
X185838571Y-66894819D02*
X185933809Y-66942438D01*
X185933809Y-66942438D02*
X185981428Y-66990057D01*
X185981428Y-66990057D02*
X186029047Y-67085295D01*
X186029047Y-67085295D02*
X186029047Y-67228152D01*
X186029047Y-67228152D02*
X185981428Y-67323390D01*
X185981428Y-67323390D02*
X185933809Y-67371009D01*
X185933809Y-67371009D02*
X185838571Y-67418628D01*
X185838571Y-67418628D02*
X185457619Y-67418628D01*
X186981428Y-67894819D02*
X186410000Y-67894819D01*
X186695714Y-67894819D02*
X186695714Y-66894819D01*
X186695714Y-66894819D02*
X186600476Y-67037676D01*
X186600476Y-67037676D02*
X186505238Y-67132914D01*
X186505238Y-67132914D02*
X186410000Y-67180533D01*
X187410000Y-67799580D02*
X187457619Y-67847200D01*
X187457619Y-67847200D02*
X187410000Y-67894819D01*
X187410000Y-67894819D02*
X187362381Y-67847200D01*
X187362381Y-67847200D02*
X187410000Y-67799580D01*
X187410000Y-67799580D02*
X187410000Y-67894819D01*
X188362380Y-66894819D02*
X187886190Y-66894819D01*
X187886190Y-66894819D02*
X187838571Y-67371009D01*
X187838571Y-67371009D02*
X187886190Y-67323390D01*
X187886190Y-67323390D02*
X187981428Y-67275771D01*
X187981428Y-67275771D02*
X188219523Y-67275771D01*
X188219523Y-67275771D02*
X188314761Y-67323390D01*
X188314761Y-67323390D02*
X188362380Y-67371009D01*
X188362380Y-67371009D02*
X188409999Y-67466247D01*
X188409999Y-67466247D02*
X188409999Y-67704342D01*
X188409999Y-67704342D02*
X188362380Y-67799580D01*
X188362380Y-67799580D02*
X188314761Y-67847200D01*
X188314761Y-67847200D02*
X188219523Y-67894819D01*
X188219523Y-67894819D02*
X187981428Y-67894819D01*
X187981428Y-67894819D02*
X187886190Y-67847200D01*
X187886190Y-67847200D02*
X187838571Y-67799580D01*
X202349047Y-87994819D02*
X202015714Y-87518628D01*
X201777619Y-87994819D02*
X201777619Y-86994819D01*
X201777619Y-86994819D02*
X202158571Y-86994819D01*
X202158571Y-86994819D02*
X202253809Y-87042438D01*
X202253809Y-87042438D02*
X202301428Y-87090057D01*
X202301428Y-87090057D02*
X202349047Y-87185295D01*
X202349047Y-87185295D02*
X202349047Y-87328152D01*
X202349047Y-87328152D02*
X202301428Y-87423390D01*
X202301428Y-87423390D02*
X202253809Y-87471009D01*
X202253809Y-87471009D02*
X202158571Y-87518628D01*
X202158571Y-87518628D02*
X201777619Y-87518628D01*
X202682381Y-86994819D02*
X203301428Y-86994819D01*
X203301428Y-86994819D02*
X202968095Y-87375771D01*
X202968095Y-87375771D02*
X203110952Y-87375771D01*
X203110952Y-87375771D02*
X203206190Y-87423390D01*
X203206190Y-87423390D02*
X203253809Y-87471009D01*
X203253809Y-87471009D02*
X203301428Y-87566247D01*
X203301428Y-87566247D02*
X203301428Y-87804342D01*
X203301428Y-87804342D02*
X203253809Y-87899580D01*
X203253809Y-87899580D02*
X203206190Y-87947200D01*
X203206190Y-87947200D02*
X203110952Y-87994819D01*
X203110952Y-87994819D02*
X202825238Y-87994819D01*
X202825238Y-87994819D02*
X202730000Y-87947200D01*
X202730000Y-87947200D02*
X202682381Y-87899580D01*
X203730000Y-87899580D02*
X203777619Y-87947200D01*
X203777619Y-87947200D02*
X203730000Y-87994819D01*
X203730000Y-87994819D02*
X203682381Y-87947200D01*
X203682381Y-87947200D02*
X203730000Y-87899580D01*
X203730000Y-87899580D02*
X203730000Y-87994819D01*
X204682380Y-86994819D02*
X204206190Y-86994819D01*
X204206190Y-86994819D02*
X204158571Y-87471009D01*
X204158571Y-87471009D02*
X204206190Y-87423390D01*
X204206190Y-87423390D02*
X204301428Y-87375771D01*
X204301428Y-87375771D02*
X204539523Y-87375771D01*
X204539523Y-87375771D02*
X204634761Y-87423390D01*
X204634761Y-87423390D02*
X204682380Y-87471009D01*
X204682380Y-87471009D02*
X204729999Y-87566247D01*
X204729999Y-87566247D02*
X204729999Y-87804342D01*
X204729999Y-87804342D02*
X204682380Y-87899580D01*
X204682380Y-87899580D02*
X204634761Y-87947200D01*
X204634761Y-87947200D02*
X204539523Y-87994819D01*
X204539523Y-87994819D02*
X204301428Y-87994819D01*
X204301428Y-87994819D02*
X204206190Y-87947200D01*
X204206190Y-87947200D02*
X204158571Y-87899580D01*
X152322857Y-59458152D02*
X151989524Y-58981961D01*
X151751429Y-59458152D02*
X151751429Y-58458152D01*
X151751429Y-58458152D02*
X152132381Y-58458152D01*
X152132381Y-58458152D02*
X152227619Y-58505771D01*
X152227619Y-58505771D02*
X152275238Y-58553390D01*
X152275238Y-58553390D02*
X152322857Y-58648628D01*
X152322857Y-58648628D02*
X152322857Y-58791485D01*
X152322857Y-58791485D02*
X152275238Y-58886723D01*
X152275238Y-58886723D02*
X152227619Y-58934342D01*
X152227619Y-58934342D02*
X152132381Y-58981961D01*
X152132381Y-58981961D02*
X151751429Y-58981961D01*
X153180000Y-58791485D02*
X153180000Y-59458152D01*
X152941905Y-58410533D02*
X152703810Y-59124818D01*
X152703810Y-59124818D02*
X153322857Y-59124818D01*
X153703810Y-59362913D02*
X153751429Y-59410533D01*
X153751429Y-59410533D02*
X153703810Y-59458152D01*
X153703810Y-59458152D02*
X153656191Y-59410533D01*
X153656191Y-59410533D02*
X153703810Y-59362913D01*
X153703810Y-59362913D02*
X153703810Y-59458152D01*
X154703809Y-59458152D02*
X154132381Y-59458152D01*
X154418095Y-59458152D02*
X154418095Y-58458152D01*
X154418095Y-58458152D02*
X154322857Y-58601009D01*
X154322857Y-58601009D02*
X154227619Y-58696247D01*
X154227619Y-58696247D02*
X154132381Y-58743866D01*
X155560952Y-58458152D02*
X155370476Y-58458152D01*
X155370476Y-58458152D02*
X155275238Y-58505771D01*
X155275238Y-58505771D02*
X155227619Y-58553390D01*
X155227619Y-58553390D02*
X155132381Y-58696247D01*
X155132381Y-58696247D02*
X155084762Y-58886723D01*
X155084762Y-58886723D02*
X155084762Y-59267675D01*
X155084762Y-59267675D02*
X155132381Y-59362913D01*
X155132381Y-59362913D02*
X155180000Y-59410533D01*
X155180000Y-59410533D02*
X155275238Y-59458152D01*
X155275238Y-59458152D02*
X155465714Y-59458152D01*
X155465714Y-59458152D02*
X155560952Y-59410533D01*
X155560952Y-59410533D02*
X155608571Y-59362913D01*
X155608571Y-59362913D02*
X155656190Y-59267675D01*
X155656190Y-59267675D02*
X155656190Y-59029580D01*
X155656190Y-59029580D02*
X155608571Y-58934342D01*
X155608571Y-58934342D02*
X155560952Y-58886723D01*
X155560952Y-58886723D02*
X155465714Y-58839104D01*
X155465714Y-58839104D02*
X155275238Y-58839104D01*
X155275238Y-58839104D02*
X155180000Y-58886723D01*
X155180000Y-58886723D02*
X155132381Y-58934342D01*
X155132381Y-58934342D02*
X155084762Y-59029580D01*
X185366357Y-65069580D02*
X185318738Y-65117200D01*
X185318738Y-65117200D02*
X185175881Y-65164819D01*
X185175881Y-65164819D02*
X185080643Y-65164819D01*
X185080643Y-65164819D02*
X184937786Y-65117200D01*
X184937786Y-65117200D02*
X184842548Y-65021961D01*
X184842548Y-65021961D02*
X184794929Y-64926723D01*
X184794929Y-64926723D02*
X184747310Y-64736247D01*
X184747310Y-64736247D02*
X184747310Y-64593390D01*
X184747310Y-64593390D02*
X184794929Y-64402914D01*
X184794929Y-64402914D02*
X184842548Y-64307676D01*
X184842548Y-64307676D02*
X184937786Y-64212438D01*
X184937786Y-64212438D02*
X185080643Y-64164819D01*
X185080643Y-64164819D02*
X185175881Y-64164819D01*
X185175881Y-64164819D02*
X185318738Y-64212438D01*
X185318738Y-64212438D02*
X185366357Y-64260057D01*
X186318738Y-65164819D02*
X185747310Y-65164819D01*
X186033024Y-65164819D02*
X186033024Y-64164819D01*
X186033024Y-64164819D02*
X185937786Y-64307676D01*
X185937786Y-64307676D02*
X185842548Y-64402914D01*
X185842548Y-64402914D02*
X185747310Y-64450533D01*
X187271119Y-65164819D02*
X186699691Y-65164819D01*
X186985405Y-65164819D02*
X186985405Y-64164819D01*
X186985405Y-64164819D02*
X186890167Y-64307676D01*
X186890167Y-64307676D02*
X186794929Y-64402914D01*
X186794929Y-64402914D02*
X186699691Y-64450533D01*
X187699691Y-65069580D02*
X187747310Y-65117200D01*
X187747310Y-65117200D02*
X187699691Y-65164819D01*
X187699691Y-65164819D02*
X187652072Y-65117200D01*
X187652072Y-65117200D02*
X187699691Y-65069580D01*
X187699691Y-65069580D02*
X187699691Y-65164819D01*
X188699690Y-65164819D02*
X188128262Y-65164819D01*
X188413976Y-65164819D02*
X188413976Y-64164819D01*
X188413976Y-64164819D02*
X188318738Y-64307676D01*
X188318738Y-64307676D02*
X188223500Y-64402914D01*
X188223500Y-64402914D02*
X188128262Y-64450533D01*
X175219047Y-88029580D02*
X175171428Y-88077200D01*
X175171428Y-88077200D02*
X175028571Y-88124819D01*
X175028571Y-88124819D02*
X174933333Y-88124819D01*
X174933333Y-88124819D02*
X174790476Y-88077200D01*
X174790476Y-88077200D02*
X174695238Y-87981961D01*
X174695238Y-87981961D02*
X174647619Y-87886723D01*
X174647619Y-87886723D02*
X174600000Y-87696247D01*
X174600000Y-87696247D02*
X174600000Y-87553390D01*
X174600000Y-87553390D02*
X174647619Y-87362914D01*
X174647619Y-87362914D02*
X174695238Y-87267676D01*
X174695238Y-87267676D02*
X174790476Y-87172438D01*
X174790476Y-87172438D02*
X174933333Y-87124819D01*
X174933333Y-87124819D02*
X175028571Y-87124819D01*
X175028571Y-87124819D02*
X175171428Y-87172438D01*
X175171428Y-87172438D02*
X175219047Y-87220057D01*
X175552381Y-87124819D02*
X176171428Y-87124819D01*
X176171428Y-87124819D02*
X175838095Y-87505771D01*
X175838095Y-87505771D02*
X175980952Y-87505771D01*
X175980952Y-87505771D02*
X176076190Y-87553390D01*
X176076190Y-87553390D02*
X176123809Y-87601009D01*
X176123809Y-87601009D02*
X176171428Y-87696247D01*
X176171428Y-87696247D02*
X176171428Y-87934342D01*
X176171428Y-87934342D02*
X176123809Y-88029580D01*
X176123809Y-88029580D02*
X176076190Y-88077200D01*
X176076190Y-88077200D02*
X175980952Y-88124819D01*
X175980952Y-88124819D02*
X175695238Y-88124819D01*
X175695238Y-88124819D02*
X175600000Y-88077200D01*
X175600000Y-88077200D02*
X175552381Y-88029580D01*
X176600000Y-88029580D02*
X176647619Y-88077200D01*
X176647619Y-88077200D02*
X176600000Y-88124819D01*
X176600000Y-88124819D02*
X176552381Y-88077200D01*
X176552381Y-88077200D02*
X176600000Y-88029580D01*
X176600000Y-88029580D02*
X176600000Y-88124819D01*
X177028571Y-87220057D02*
X177076190Y-87172438D01*
X177076190Y-87172438D02*
X177171428Y-87124819D01*
X177171428Y-87124819D02*
X177409523Y-87124819D01*
X177409523Y-87124819D02*
X177504761Y-87172438D01*
X177504761Y-87172438D02*
X177552380Y-87220057D01*
X177552380Y-87220057D02*
X177599999Y-87315295D01*
X177599999Y-87315295D02*
X177599999Y-87410533D01*
X177599999Y-87410533D02*
X177552380Y-87553390D01*
X177552380Y-87553390D02*
X176980952Y-88124819D01*
X176980952Y-88124819D02*
X177599999Y-88124819D01*
X212164762Y-69997200D02*
X212307619Y-70044819D01*
X212307619Y-70044819D02*
X212545714Y-70044819D01*
X212545714Y-70044819D02*
X212640952Y-69997200D01*
X212640952Y-69997200D02*
X212688571Y-69949580D01*
X212688571Y-69949580D02*
X212736190Y-69854342D01*
X212736190Y-69854342D02*
X212736190Y-69759104D01*
X212736190Y-69759104D02*
X212688571Y-69663866D01*
X212688571Y-69663866D02*
X212640952Y-69616247D01*
X212640952Y-69616247D02*
X212545714Y-69568628D01*
X212545714Y-69568628D02*
X212355238Y-69521009D01*
X212355238Y-69521009D02*
X212260000Y-69473390D01*
X212260000Y-69473390D02*
X212212381Y-69425771D01*
X212212381Y-69425771D02*
X212164762Y-69330533D01*
X212164762Y-69330533D02*
X212164762Y-69235295D01*
X212164762Y-69235295D02*
X212212381Y-69140057D01*
X212212381Y-69140057D02*
X212260000Y-69092438D01*
X212260000Y-69092438D02*
X212355238Y-69044819D01*
X212355238Y-69044819D02*
X212593333Y-69044819D01*
X212593333Y-69044819D02*
X212736190Y-69092438D01*
X213164762Y-69521009D02*
X213498095Y-69521009D01*
X213640952Y-70044819D02*
X213164762Y-70044819D01*
X213164762Y-70044819D02*
X213164762Y-69044819D01*
X213164762Y-69044819D02*
X213640952Y-69044819D01*
X213926667Y-69044819D02*
X214498095Y-69044819D01*
X214212381Y-70044819D02*
X214212381Y-69044819D01*
X215355238Y-70044819D02*
X214783810Y-70044819D01*
X215069524Y-70044819D02*
X215069524Y-69044819D01*
X215069524Y-69044819D02*
X214974286Y-69187676D01*
X214974286Y-69187676D02*
X214879048Y-69282914D01*
X214879048Y-69282914D02*
X214783810Y-69330533D01*
X169582619Y-62424580D02*
X169535000Y-62472200D01*
X169535000Y-62472200D02*
X169392143Y-62519819D01*
X169392143Y-62519819D02*
X169296905Y-62519819D01*
X169296905Y-62519819D02*
X169154048Y-62472200D01*
X169154048Y-62472200D02*
X169058810Y-62376961D01*
X169058810Y-62376961D02*
X169011191Y-62281723D01*
X169011191Y-62281723D02*
X168963572Y-62091247D01*
X168963572Y-62091247D02*
X168963572Y-61948390D01*
X168963572Y-61948390D02*
X169011191Y-61757914D01*
X169011191Y-61757914D02*
X169058810Y-61662676D01*
X169058810Y-61662676D02*
X169154048Y-61567438D01*
X169154048Y-61567438D02*
X169296905Y-61519819D01*
X169296905Y-61519819D02*
X169392143Y-61519819D01*
X169392143Y-61519819D02*
X169535000Y-61567438D01*
X169535000Y-61567438D02*
X169582619Y-61615057D01*
X169915953Y-61519819D02*
X170535000Y-61519819D01*
X170535000Y-61519819D02*
X170201667Y-61900771D01*
X170201667Y-61900771D02*
X170344524Y-61900771D01*
X170344524Y-61900771D02*
X170439762Y-61948390D01*
X170439762Y-61948390D02*
X170487381Y-61996009D01*
X170487381Y-61996009D02*
X170535000Y-62091247D01*
X170535000Y-62091247D02*
X170535000Y-62329342D01*
X170535000Y-62329342D02*
X170487381Y-62424580D01*
X170487381Y-62424580D02*
X170439762Y-62472200D01*
X170439762Y-62472200D02*
X170344524Y-62519819D01*
X170344524Y-62519819D02*
X170058810Y-62519819D01*
X170058810Y-62519819D02*
X169963572Y-62472200D01*
X169963572Y-62472200D02*
X169915953Y-62424580D01*
X170963572Y-62424580D02*
X171011191Y-62472200D01*
X171011191Y-62472200D02*
X170963572Y-62519819D01*
X170963572Y-62519819D02*
X170915953Y-62472200D01*
X170915953Y-62472200D02*
X170963572Y-62424580D01*
X170963572Y-62424580D02*
X170963572Y-62519819D01*
X171582619Y-61948390D02*
X171487381Y-61900771D01*
X171487381Y-61900771D02*
X171439762Y-61853152D01*
X171439762Y-61853152D02*
X171392143Y-61757914D01*
X171392143Y-61757914D02*
X171392143Y-61710295D01*
X171392143Y-61710295D02*
X171439762Y-61615057D01*
X171439762Y-61615057D02*
X171487381Y-61567438D01*
X171487381Y-61567438D02*
X171582619Y-61519819D01*
X171582619Y-61519819D02*
X171773095Y-61519819D01*
X171773095Y-61519819D02*
X171868333Y-61567438D01*
X171868333Y-61567438D02*
X171915952Y-61615057D01*
X171915952Y-61615057D02*
X171963571Y-61710295D01*
X171963571Y-61710295D02*
X171963571Y-61757914D01*
X171963571Y-61757914D02*
X171915952Y-61853152D01*
X171915952Y-61853152D02*
X171868333Y-61900771D01*
X171868333Y-61900771D02*
X171773095Y-61948390D01*
X171773095Y-61948390D02*
X171582619Y-61948390D01*
X171582619Y-61948390D02*
X171487381Y-61996009D01*
X171487381Y-61996009D02*
X171439762Y-62043628D01*
X171439762Y-62043628D02*
X171392143Y-62138866D01*
X171392143Y-62138866D02*
X171392143Y-62329342D01*
X171392143Y-62329342D02*
X171439762Y-62424580D01*
X171439762Y-62424580D02*
X171487381Y-62472200D01*
X171487381Y-62472200D02*
X171582619Y-62519819D01*
X171582619Y-62519819D02*
X171773095Y-62519819D01*
X171773095Y-62519819D02*
X171868333Y-62472200D01*
X171868333Y-62472200D02*
X171915952Y-62424580D01*
X171915952Y-62424580D02*
X171963571Y-62329342D01*
X171963571Y-62329342D02*
X171963571Y-62138866D01*
X171963571Y-62138866D02*
X171915952Y-62043628D01*
X171915952Y-62043628D02*
X171868333Y-61996009D01*
X171868333Y-61996009D02*
X171773095Y-61948390D01*
X180729047Y-56480819D02*
X180395714Y-56004628D01*
X180157619Y-56480819D02*
X180157619Y-55480819D01*
X180157619Y-55480819D02*
X180538571Y-55480819D01*
X180538571Y-55480819D02*
X180633809Y-55528438D01*
X180633809Y-55528438D02*
X180681428Y-55576057D01*
X180681428Y-55576057D02*
X180729047Y-55671295D01*
X180729047Y-55671295D02*
X180729047Y-55814152D01*
X180729047Y-55814152D02*
X180681428Y-55909390D01*
X180681428Y-55909390D02*
X180633809Y-55957009D01*
X180633809Y-55957009D02*
X180538571Y-56004628D01*
X180538571Y-56004628D02*
X180157619Y-56004628D01*
X181110000Y-55576057D02*
X181157619Y-55528438D01*
X181157619Y-55528438D02*
X181252857Y-55480819D01*
X181252857Y-55480819D02*
X181490952Y-55480819D01*
X181490952Y-55480819D02*
X181586190Y-55528438D01*
X181586190Y-55528438D02*
X181633809Y-55576057D01*
X181633809Y-55576057D02*
X181681428Y-55671295D01*
X181681428Y-55671295D02*
X181681428Y-55766533D01*
X181681428Y-55766533D02*
X181633809Y-55909390D01*
X181633809Y-55909390D02*
X181062381Y-56480819D01*
X181062381Y-56480819D02*
X181681428Y-56480819D01*
X182110000Y-56385580D02*
X182157619Y-56433200D01*
X182157619Y-56433200D02*
X182110000Y-56480819D01*
X182110000Y-56480819D02*
X182062381Y-56433200D01*
X182062381Y-56433200D02*
X182110000Y-56385580D01*
X182110000Y-56385580D02*
X182110000Y-56480819D01*
X182490952Y-55480819D02*
X183157618Y-55480819D01*
X183157618Y-55480819D02*
X182729047Y-56480819D01*
X180529047Y-65274819D02*
X180195714Y-64798628D01*
X179957619Y-65274819D02*
X179957619Y-64274819D01*
X179957619Y-64274819D02*
X180338571Y-64274819D01*
X180338571Y-64274819D02*
X180433809Y-64322438D01*
X180433809Y-64322438D02*
X180481428Y-64370057D01*
X180481428Y-64370057D02*
X180529047Y-64465295D01*
X180529047Y-64465295D02*
X180529047Y-64608152D01*
X180529047Y-64608152D02*
X180481428Y-64703390D01*
X180481428Y-64703390D02*
X180433809Y-64751009D01*
X180433809Y-64751009D02*
X180338571Y-64798628D01*
X180338571Y-64798628D02*
X179957619Y-64798628D01*
X180862381Y-64274819D02*
X181481428Y-64274819D01*
X181481428Y-64274819D02*
X181148095Y-64655771D01*
X181148095Y-64655771D02*
X181290952Y-64655771D01*
X181290952Y-64655771D02*
X181386190Y-64703390D01*
X181386190Y-64703390D02*
X181433809Y-64751009D01*
X181433809Y-64751009D02*
X181481428Y-64846247D01*
X181481428Y-64846247D02*
X181481428Y-65084342D01*
X181481428Y-65084342D02*
X181433809Y-65179580D01*
X181433809Y-65179580D02*
X181386190Y-65227200D01*
X181386190Y-65227200D02*
X181290952Y-65274819D01*
X181290952Y-65274819D02*
X181005238Y-65274819D01*
X181005238Y-65274819D02*
X180910000Y-65227200D01*
X180910000Y-65227200D02*
X180862381Y-65179580D01*
X181910000Y-65179580D02*
X181957619Y-65227200D01*
X181957619Y-65227200D02*
X181910000Y-65274819D01*
X181910000Y-65274819D02*
X181862381Y-65227200D01*
X181862381Y-65227200D02*
X181910000Y-65179580D01*
X181910000Y-65179580D02*
X181910000Y-65274819D01*
X182814761Y-64274819D02*
X182624285Y-64274819D01*
X182624285Y-64274819D02*
X182529047Y-64322438D01*
X182529047Y-64322438D02*
X182481428Y-64370057D01*
X182481428Y-64370057D02*
X182386190Y-64512914D01*
X182386190Y-64512914D02*
X182338571Y-64703390D01*
X182338571Y-64703390D02*
X182338571Y-65084342D01*
X182338571Y-65084342D02*
X182386190Y-65179580D01*
X182386190Y-65179580D02*
X182433809Y-65227200D01*
X182433809Y-65227200D02*
X182529047Y-65274819D01*
X182529047Y-65274819D02*
X182719523Y-65274819D01*
X182719523Y-65274819D02*
X182814761Y-65227200D01*
X182814761Y-65227200D02*
X182862380Y-65179580D01*
X182862380Y-65179580D02*
X182909999Y-65084342D01*
X182909999Y-65084342D02*
X182909999Y-64846247D01*
X182909999Y-64846247D02*
X182862380Y-64751009D01*
X182862380Y-64751009D02*
X182814761Y-64703390D01*
X182814761Y-64703390D02*
X182719523Y-64655771D01*
X182719523Y-64655771D02*
X182529047Y-64655771D01*
X182529047Y-64655771D02*
X182433809Y-64703390D01*
X182433809Y-64703390D02*
X182386190Y-64751009D01*
X182386190Y-64751009D02*
X182338571Y-64846247D01*
X212608095Y-74514819D02*
X212608095Y-75324342D01*
X212608095Y-75324342D02*
X212655714Y-75419580D01*
X212655714Y-75419580D02*
X212703333Y-75467200D01*
X212703333Y-75467200D02*
X212798571Y-75514819D01*
X212798571Y-75514819D02*
X212989047Y-75514819D01*
X212989047Y-75514819D02*
X213084285Y-75467200D01*
X213084285Y-75467200D02*
X213131904Y-75419580D01*
X213131904Y-75419580D02*
X213179523Y-75324342D01*
X213179523Y-75324342D02*
X213179523Y-74514819D01*
X213655714Y-75514819D02*
X213655714Y-74514819D01*
X213655714Y-74514819D02*
X214036666Y-74514819D01*
X214036666Y-74514819D02*
X214131904Y-74562438D01*
X214131904Y-74562438D02*
X214179523Y-74610057D01*
X214179523Y-74610057D02*
X214227142Y-74705295D01*
X214227142Y-74705295D02*
X214227142Y-74848152D01*
X214227142Y-74848152D02*
X214179523Y-74943390D01*
X214179523Y-74943390D02*
X214131904Y-74991009D01*
X214131904Y-74991009D02*
X214036666Y-75038628D01*
X214036666Y-75038628D02*
X213655714Y-75038628D01*
X215179523Y-75514819D02*
X214608095Y-75514819D01*
X214893809Y-75514819D02*
X214893809Y-74514819D01*
X214893809Y-74514819D02*
X214798571Y-74657676D01*
X214798571Y-74657676D02*
X214703333Y-74752914D01*
X214703333Y-74752914D02*
X214608095Y-74800533D01*
X180633380Y-76841876D02*
X180633380Y-77359971D01*
X180633380Y-77359971D02*
X180663857Y-77420923D01*
X180663857Y-77420923D02*
X180694333Y-77451400D01*
X180694333Y-77451400D02*
X180755285Y-77481876D01*
X180755285Y-77481876D02*
X180877190Y-77481876D01*
X180877190Y-77481876D02*
X180938142Y-77451400D01*
X180938142Y-77451400D02*
X180968619Y-77420923D01*
X180968619Y-77420923D02*
X180999095Y-77359971D01*
X180999095Y-77359971D02*
X180999095Y-76841876D01*
X181639095Y-77481876D02*
X181273380Y-77481876D01*
X181456237Y-77481876D02*
X181456237Y-76841876D01*
X181456237Y-76841876D02*
X181395285Y-76933304D01*
X181395285Y-76933304D02*
X181334333Y-76994257D01*
X181334333Y-76994257D02*
X181273380Y-77024733D01*
X181913380Y-77420923D02*
X181943857Y-77451400D01*
X181943857Y-77451400D02*
X181913380Y-77481876D01*
X181913380Y-77481876D02*
X181882904Y-77451400D01*
X181882904Y-77451400D02*
X181913380Y-77420923D01*
X181913380Y-77420923D02*
X181913380Y-77481876D01*
X182553381Y-77481876D02*
X182187666Y-77481876D01*
X182370523Y-77481876D02*
X182370523Y-76841876D01*
X182370523Y-76841876D02*
X182309571Y-76933304D01*
X182309571Y-76933304D02*
X182248619Y-76994257D01*
X182248619Y-76994257D02*
X182187666Y-77024733D01*
X152331428Y-83034819D02*
X151998095Y-82558628D01*
X151760000Y-83034819D02*
X151760000Y-82034819D01*
X151760000Y-82034819D02*
X152140952Y-82034819D01*
X152140952Y-82034819D02*
X152236190Y-82082438D01*
X152236190Y-82082438D02*
X152283809Y-82130057D01*
X152283809Y-82130057D02*
X152331428Y-82225295D01*
X152331428Y-82225295D02*
X152331428Y-82368152D01*
X152331428Y-82368152D02*
X152283809Y-82463390D01*
X152283809Y-82463390D02*
X152236190Y-82511009D01*
X152236190Y-82511009D02*
X152140952Y-82558628D01*
X152140952Y-82558628D02*
X151760000Y-82558628D01*
X152760000Y-82511009D02*
X153093333Y-82511009D01*
X153236190Y-83034819D02*
X152760000Y-83034819D01*
X152760000Y-83034819D02*
X152760000Y-82034819D01*
X152760000Y-82034819D02*
X153236190Y-82034819D01*
X153617143Y-82987200D02*
X153760000Y-83034819D01*
X153760000Y-83034819D02*
X153998095Y-83034819D01*
X153998095Y-83034819D02*
X154093333Y-82987200D01*
X154093333Y-82987200D02*
X154140952Y-82939580D01*
X154140952Y-82939580D02*
X154188571Y-82844342D01*
X154188571Y-82844342D02*
X154188571Y-82749104D01*
X154188571Y-82749104D02*
X154140952Y-82653866D01*
X154140952Y-82653866D02*
X154093333Y-82606247D01*
X154093333Y-82606247D02*
X153998095Y-82558628D01*
X153998095Y-82558628D02*
X153807619Y-82511009D01*
X153807619Y-82511009D02*
X153712381Y-82463390D01*
X153712381Y-82463390D02*
X153664762Y-82415771D01*
X153664762Y-82415771D02*
X153617143Y-82320533D01*
X153617143Y-82320533D02*
X153617143Y-82225295D01*
X153617143Y-82225295D02*
X153664762Y-82130057D01*
X153664762Y-82130057D02*
X153712381Y-82082438D01*
X153712381Y-82082438D02*
X153807619Y-82034819D01*
X153807619Y-82034819D02*
X154045714Y-82034819D01*
X154045714Y-82034819D02*
X154188571Y-82082438D01*
X154617143Y-82511009D02*
X154950476Y-82511009D01*
X155093333Y-83034819D02*
X154617143Y-83034819D01*
X154617143Y-83034819D02*
X154617143Y-82034819D01*
X154617143Y-82034819D02*
X155093333Y-82034819D01*
X155379048Y-82034819D02*
X155950476Y-82034819D01*
X155664762Y-83034819D02*
X155664762Y-82034819D01*
X156807619Y-83034819D02*
X156236191Y-83034819D01*
X156521905Y-83034819D02*
X156521905Y-82034819D01*
X156521905Y-82034819D02*
X156426667Y-82177676D01*
X156426667Y-82177676D02*
X156331429Y-82272914D01*
X156331429Y-82272914D02*
X156236191Y-82320533D01*
X175259047Y-91394580D02*
X175211428Y-91442200D01*
X175211428Y-91442200D02*
X175068571Y-91489819D01*
X175068571Y-91489819D02*
X174973333Y-91489819D01*
X174973333Y-91489819D02*
X174830476Y-91442200D01*
X174830476Y-91442200D02*
X174735238Y-91346961D01*
X174735238Y-91346961D02*
X174687619Y-91251723D01*
X174687619Y-91251723D02*
X174640000Y-91061247D01*
X174640000Y-91061247D02*
X174640000Y-90918390D01*
X174640000Y-90918390D02*
X174687619Y-90727914D01*
X174687619Y-90727914D02*
X174735238Y-90632676D01*
X174735238Y-90632676D02*
X174830476Y-90537438D01*
X174830476Y-90537438D02*
X174973333Y-90489819D01*
X174973333Y-90489819D02*
X175068571Y-90489819D01*
X175068571Y-90489819D02*
X175211428Y-90537438D01*
X175211428Y-90537438D02*
X175259047Y-90585057D01*
X175592381Y-90489819D02*
X176211428Y-90489819D01*
X176211428Y-90489819D02*
X175878095Y-90870771D01*
X175878095Y-90870771D02*
X176020952Y-90870771D01*
X176020952Y-90870771D02*
X176116190Y-90918390D01*
X176116190Y-90918390D02*
X176163809Y-90966009D01*
X176163809Y-90966009D02*
X176211428Y-91061247D01*
X176211428Y-91061247D02*
X176211428Y-91299342D01*
X176211428Y-91299342D02*
X176163809Y-91394580D01*
X176163809Y-91394580D02*
X176116190Y-91442200D01*
X176116190Y-91442200D02*
X176020952Y-91489819D01*
X176020952Y-91489819D02*
X175735238Y-91489819D01*
X175735238Y-91489819D02*
X175640000Y-91442200D01*
X175640000Y-91442200D02*
X175592381Y-91394580D01*
X176640000Y-91394580D02*
X176687619Y-91442200D01*
X176687619Y-91442200D02*
X176640000Y-91489819D01*
X176640000Y-91489819D02*
X176592381Y-91442200D01*
X176592381Y-91442200D02*
X176640000Y-91394580D01*
X176640000Y-91394580D02*
X176640000Y-91489819D01*
X177544761Y-90823152D02*
X177544761Y-91489819D01*
X177306666Y-90442200D02*
X177068571Y-91156485D01*
X177068571Y-91156485D02*
X177687618Y-91156485D01*
X174769047Y-75609580D02*
X174721428Y-75657200D01*
X174721428Y-75657200D02*
X174578571Y-75704819D01*
X174578571Y-75704819D02*
X174483333Y-75704819D01*
X174483333Y-75704819D02*
X174340476Y-75657200D01*
X174340476Y-75657200D02*
X174245238Y-75561961D01*
X174245238Y-75561961D02*
X174197619Y-75466723D01*
X174197619Y-75466723D02*
X174150000Y-75276247D01*
X174150000Y-75276247D02*
X174150000Y-75133390D01*
X174150000Y-75133390D02*
X174197619Y-74942914D01*
X174197619Y-74942914D02*
X174245238Y-74847676D01*
X174245238Y-74847676D02*
X174340476Y-74752438D01*
X174340476Y-74752438D02*
X174483333Y-74704819D01*
X174483333Y-74704819D02*
X174578571Y-74704819D01*
X174578571Y-74704819D02*
X174721428Y-74752438D01*
X174721428Y-74752438D02*
X174769047Y-74800057D01*
X175721428Y-75704819D02*
X175150000Y-75704819D01*
X175435714Y-75704819D02*
X175435714Y-74704819D01*
X175435714Y-74704819D02*
X175340476Y-74847676D01*
X175340476Y-74847676D02*
X175245238Y-74942914D01*
X175245238Y-74942914D02*
X175150000Y-74990533D01*
X176150000Y-75609580D02*
X176197619Y-75657200D01*
X176197619Y-75657200D02*
X176150000Y-75704819D01*
X176150000Y-75704819D02*
X176102381Y-75657200D01*
X176102381Y-75657200D02*
X176150000Y-75609580D01*
X176150000Y-75609580D02*
X176150000Y-75704819D01*
X176530952Y-74704819D02*
X177149999Y-74704819D01*
X177149999Y-74704819D02*
X176816666Y-75085771D01*
X176816666Y-75085771D02*
X176959523Y-75085771D01*
X176959523Y-75085771D02*
X177054761Y-75133390D01*
X177054761Y-75133390D02*
X177102380Y-75181009D01*
X177102380Y-75181009D02*
X177149999Y-75276247D01*
X177149999Y-75276247D02*
X177149999Y-75514342D01*
X177149999Y-75514342D02*
X177102380Y-75609580D01*
X177102380Y-75609580D02*
X177054761Y-75657200D01*
X177054761Y-75657200D02*
X176959523Y-75704819D01*
X176959523Y-75704819D02*
X176673809Y-75704819D01*
X176673809Y-75704819D02*
X176578571Y-75657200D01*
X176578571Y-75657200D02*
X176530952Y-75609580D01*
X206739047Y-82054819D02*
X206405714Y-81578628D01*
X206167619Y-82054819D02*
X206167619Y-81054819D01*
X206167619Y-81054819D02*
X206548571Y-81054819D01*
X206548571Y-81054819D02*
X206643809Y-81102438D01*
X206643809Y-81102438D02*
X206691428Y-81150057D01*
X206691428Y-81150057D02*
X206739047Y-81245295D01*
X206739047Y-81245295D02*
X206739047Y-81388152D01*
X206739047Y-81388152D02*
X206691428Y-81483390D01*
X206691428Y-81483390D02*
X206643809Y-81531009D01*
X206643809Y-81531009D02*
X206548571Y-81578628D01*
X206548571Y-81578628D02*
X206167619Y-81578628D01*
X207691428Y-82054819D02*
X207120000Y-82054819D01*
X207405714Y-82054819D02*
X207405714Y-81054819D01*
X207405714Y-81054819D02*
X207310476Y-81197676D01*
X207310476Y-81197676D02*
X207215238Y-81292914D01*
X207215238Y-81292914D02*
X207120000Y-81340533D01*
X208120000Y-81959580D02*
X208167619Y-82007200D01*
X208167619Y-82007200D02*
X208120000Y-82054819D01*
X208120000Y-82054819D02*
X208072381Y-82007200D01*
X208072381Y-82007200D02*
X208120000Y-81959580D01*
X208120000Y-81959580D02*
X208120000Y-82054819D01*
X208500952Y-81054819D02*
X209119999Y-81054819D01*
X209119999Y-81054819D02*
X208786666Y-81435771D01*
X208786666Y-81435771D02*
X208929523Y-81435771D01*
X208929523Y-81435771D02*
X209024761Y-81483390D01*
X209024761Y-81483390D02*
X209072380Y-81531009D01*
X209072380Y-81531009D02*
X209119999Y-81626247D01*
X209119999Y-81626247D02*
X209119999Y-81864342D01*
X209119999Y-81864342D02*
X209072380Y-81959580D01*
X209072380Y-81959580D02*
X209024761Y-82007200D01*
X209024761Y-82007200D02*
X208929523Y-82054819D01*
X208929523Y-82054819D02*
X208643809Y-82054819D01*
X208643809Y-82054819D02*
X208548571Y-82007200D01*
X208548571Y-82007200D02*
X208500952Y-81959580D01*
X188249047Y-84984819D02*
X187772857Y-84984819D01*
X187772857Y-84984819D02*
X187772857Y-83984819D01*
X188487143Y-83984819D02*
X189106190Y-83984819D01*
X189106190Y-83984819D02*
X188772857Y-84365771D01*
X188772857Y-84365771D02*
X188915714Y-84365771D01*
X188915714Y-84365771D02*
X189010952Y-84413390D01*
X189010952Y-84413390D02*
X189058571Y-84461009D01*
X189058571Y-84461009D02*
X189106190Y-84556247D01*
X189106190Y-84556247D02*
X189106190Y-84794342D01*
X189106190Y-84794342D02*
X189058571Y-84889580D01*
X189058571Y-84889580D02*
X189010952Y-84937200D01*
X189010952Y-84937200D02*
X188915714Y-84984819D01*
X188915714Y-84984819D02*
X188630000Y-84984819D01*
X188630000Y-84984819D02*
X188534762Y-84937200D01*
X188534762Y-84937200D02*
X188487143Y-84889580D01*
X189534762Y-84889580D02*
X189582381Y-84937200D01*
X189582381Y-84937200D02*
X189534762Y-84984819D01*
X189534762Y-84984819D02*
X189487143Y-84937200D01*
X189487143Y-84937200D02*
X189534762Y-84889580D01*
X189534762Y-84889580D02*
X189534762Y-84984819D01*
X190534761Y-84984819D02*
X189963333Y-84984819D01*
X190249047Y-84984819D02*
X190249047Y-83984819D01*
X190249047Y-83984819D02*
X190153809Y-84127676D01*
X190153809Y-84127676D02*
X190058571Y-84222914D01*
X190058571Y-84222914D02*
X189963333Y-84270533D01*
X196331904Y-68493153D02*
X196236666Y-68445534D01*
X196236666Y-68445534D02*
X196189047Y-68350295D01*
X196189047Y-68350295D02*
X196189047Y-67493153D01*
X197093809Y-68445534D02*
X196998571Y-68493153D01*
X196998571Y-68493153D02*
X196808095Y-68493153D01*
X196808095Y-68493153D02*
X196712857Y-68445534D01*
X196712857Y-68445534D02*
X196665238Y-68350295D01*
X196665238Y-68350295D02*
X196665238Y-67969343D01*
X196665238Y-67969343D02*
X196712857Y-67874105D01*
X196712857Y-67874105D02*
X196808095Y-67826486D01*
X196808095Y-67826486D02*
X196998571Y-67826486D01*
X196998571Y-67826486D02*
X197093809Y-67874105D01*
X197093809Y-67874105D02*
X197141428Y-67969343D01*
X197141428Y-67969343D02*
X197141428Y-68064581D01*
X197141428Y-68064581D02*
X196665238Y-68159819D01*
X197998571Y-68493153D02*
X197998571Y-67493153D01*
X197998571Y-68445534D02*
X197903333Y-68493153D01*
X197903333Y-68493153D02*
X197712857Y-68493153D01*
X197712857Y-68493153D02*
X197617619Y-68445534D01*
X197617619Y-68445534D02*
X197570000Y-68397914D01*
X197570000Y-68397914D02*
X197522381Y-68302676D01*
X197522381Y-68302676D02*
X197522381Y-68016962D01*
X197522381Y-68016962D02*
X197570000Y-67921724D01*
X197570000Y-67921724D02*
X197617619Y-67874105D01*
X197617619Y-67874105D02*
X197712857Y-67826486D01*
X197712857Y-67826486D02*
X197903333Y-67826486D01*
X197903333Y-67826486D02*
X197998571Y-67874105D01*
X198379524Y-67493153D02*
X198998571Y-67493153D01*
X198998571Y-67493153D02*
X198665238Y-67874105D01*
X198665238Y-67874105D02*
X198808095Y-67874105D01*
X198808095Y-67874105D02*
X198903333Y-67921724D01*
X198903333Y-67921724D02*
X198950952Y-67969343D01*
X198950952Y-67969343D02*
X198998571Y-68064581D01*
X198998571Y-68064581D02*
X198998571Y-68302676D01*
X198998571Y-68302676D02*
X198950952Y-68397914D01*
X198950952Y-68397914D02*
X198903333Y-68445534D01*
X198903333Y-68445534D02*
X198808095Y-68493153D01*
X198808095Y-68493153D02*
X198522381Y-68493153D01*
X198522381Y-68493153D02*
X198427143Y-68445534D01*
X198427143Y-68445534D02*
X198379524Y-68397914D01*
X206162857Y-87844819D02*
X205829524Y-87368628D01*
X205591429Y-87844819D02*
X205591429Y-86844819D01*
X205591429Y-86844819D02*
X205972381Y-86844819D01*
X205972381Y-86844819D02*
X206067619Y-86892438D01*
X206067619Y-86892438D02*
X206115238Y-86940057D01*
X206115238Y-86940057D02*
X206162857Y-87035295D01*
X206162857Y-87035295D02*
X206162857Y-87178152D01*
X206162857Y-87178152D02*
X206115238Y-87273390D01*
X206115238Y-87273390D02*
X206067619Y-87321009D01*
X206067619Y-87321009D02*
X205972381Y-87368628D01*
X205972381Y-87368628D02*
X205591429Y-87368628D01*
X207020000Y-87178152D02*
X207020000Y-87844819D01*
X206781905Y-86797200D02*
X206543810Y-87511485D01*
X206543810Y-87511485D02*
X207162857Y-87511485D01*
X207543810Y-87749580D02*
X207591429Y-87797200D01*
X207591429Y-87797200D02*
X207543810Y-87844819D01*
X207543810Y-87844819D02*
X207496191Y-87797200D01*
X207496191Y-87797200D02*
X207543810Y-87749580D01*
X207543810Y-87749580D02*
X207543810Y-87844819D01*
X208543809Y-87844819D02*
X207972381Y-87844819D01*
X208258095Y-87844819D02*
X208258095Y-86844819D01*
X208258095Y-86844819D02*
X208162857Y-86987676D01*
X208162857Y-86987676D02*
X208067619Y-87082914D01*
X208067619Y-87082914D02*
X207972381Y-87130533D01*
X209448571Y-86844819D02*
X208972381Y-86844819D01*
X208972381Y-86844819D02*
X208924762Y-87321009D01*
X208924762Y-87321009D02*
X208972381Y-87273390D01*
X208972381Y-87273390D02*
X209067619Y-87225771D01*
X209067619Y-87225771D02*
X209305714Y-87225771D01*
X209305714Y-87225771D02*
X209400952Y-87273390D01*
X209400952Y-87273390D02*
X209448571Y-87321009D01*
X209448571Y-87321009D02*
X209496190Y-87416247D01*
X209496190Y-87416247D02*
X209496190Y-87654342D01*
X209496190Y-87654342D02*
X209448571Y-87749580D01*
X209448571Y-87749580D02*
X209400952Y-87797200D01*
X209400952Y-87797200D02*
X209305714Y-87844819D01*
X209305714Y-87844819D02*
X209067619Y-87844819D01*
X209067619Y-87844819D02*
X208972381Y-87797200D01*
X208972381Y-87797200D02*
X208924762Y-87749580D01*
X175139047Y-95344819D02*
X174805714Y-94868628D01*
X174567619Y-95344819D02*
X174567619Y-94344819D01*
X174567619Y-94344819D02*
X174948571Y-94344819D01*
X174948571Y-94344819D02*
X175043809Y-94392438D01*
X175043809Y-94392438D02*
X175091428Y-94440057D01*
X175091428Y-94440057D02*
X175139047Y-94535295D01*
X175139047Y-94535295D02*
X175139047Y-94678152D01*
X175139047Y-94678152D02*
X175091428Y-94773390D01*
X175091428Y-94773390D02*
X175043809Y-94821009D01*
X175043809Y-94821009D02*
X174948571Y-94868628D01*
X174948571Y-94868628D02*
X174567619Y-94868628D01*
X175472381Y-94344819D02*
X176091428Y-94344819D01*
X176091428Y-94344819D02*
X175758095Y-94725771D01*
X175758095Y-94725771D02*
X175900952Y-94725771D01*
X175900952Y-94725771D02*
X175996190Y-94773390D01*
X175996190Y-94773390D02*
X176043809Y-94821009D01*
X176043809Y-94821009D02*
X176091428Y-94916247D01*
X176091428Y-94916247D02*
X176091428Y-95154342D01*
X176091428Y-95154342D02*
X176043809Y-95249580D01*
X176043809Y-95249580D02*
X175996190Y-95297200D01*
X175996190Y-95297200D02*
X175900952Y-95344819D01*
X175900952Y-95344819D02*
X175615238Y-95344819D01*
X175615238Y-95344819D02*
X175520000Y-95297200D01*
X175520000Y-95297200D02*
X175472381Y-95249580D01*
X176520000Y-95249580D02*
X176567619Y-95297200D01*
X176567619Y-95297200D02*
X176520000Y-95344819D01*
X176520000Y-95344819D02*
X176472381Y-95297200D01*
X176472381Y-95297200D02*
X176520000Y-95249580D01*
X176520000Y-95249580D02*
X176520000Y-95344819D01*
X176900952Y-94344819D02*
X177519999Y-94344819D01*
X177519999Y-94344819D02*
X177186666Y-94725771D01*
X177186666Y-94725771D02*
X177329523Y-94725771D01*
X177329523Y-94725771D02*
X177424761Y-94773390D01*
X177424761Y-94773390D02*
X177472380Y-94821009D01*
X177472380Y-94821009D02*
X177519999Y-94916247D01*
X177519999Y-94916247D02*
X177519999Y-95154342D01*
X177519999Y-95154342D02*
X177472380Y-95249580D01*
X177472380Y-95249580D02*
X177424761Y-95297200D01*
X177424761Y-95297200D02*
X177329523Y-95344819D01*
X177329523Y-95344819D02*
X177043809Y-95344819D01*
X177043809Y-95344819D02*
X176948571Y-95297200D01*
X176948571Y-95297200D02*
X176900952Y-95249580D01*
X196479047Y-84589580D02*
X196431428Y-84637200D01*
X196431428Y-84637200D02*
X196288571Y-84684819D01*
X196288571Y-84684819D02*
X196193333Y-84684819D01*
X196193333Y-84684819D02*
X196050476Y-84637200D01*
X196050476Y-84637200D02*
X195955238Y-84541961D01*
X195955238Y-84541961D02*
X195907619Y-84446723D01*
X195907619Y-84446723D02*
X195860000Y-84256247D01*
X195860000Y-84256247D02*
X195860000Y-84113390D01*
X195860000Y-84113390D02*
X195907619Y-83922914D01*
X195907619Y-83922914D02*
X195955238Y-83827676D01*
X195955238Y-83827676D02*
X196050476Y-83732438D01*
X196050476Y-83732438D02*
X196193333Y-83684819D01*
X196193333Y-83684819D02*
X196288571Y-83684819D01*
X196288571Y-83684819D02*
X196431428Y-83732438D01*
X196431428Y-83732438D02*
X196479047Y-83780057D01*
X197431428Y-84684819D02*
X196860000Y-84684819D01*
X197145714Y-84684819D02*
X197145714Y-83684819D01*
X197145714Y-83684819D02*
X197050476Y-83827676D01*
X197050476Y-83827676D02*
X196955238Y-83922914D01*
X196955238Y-83922914D02*
X196860000Y-83970533D01*
X197860000Y-84589580D02*
X197907619Y-84637200D01*
X197907619Y-84637200D02*
X197860000Y-84684819D01*
X197860000Y-84684819D02*
X197812381Y-84637200D01*
X197812381Y-84637200D02*
X197860000Y-84589580D01*
X197860000Y-84589580D02*
X197860000Y-84684819D01*
X198764761Y-83684819D02*
X198574285Y-83684819D01*
X198574285Y-83684819D02*
X198479047Y-83732438D01*
X198479047Y-83732438D02*
X198431428Y-83780057D01*
X198431428Y-83780057D02*
X198336190Y-83922914D01*
X198336190Y-83922914D02*
X198288571Y-84113390D01*
X198288571Y-84113390D02*
X198288571Y-84494342D01*
X198288571Y-84494342D02*
X198336190Y-84589580D01*
X198336190Y-84589580D02*
X198383809Y-84637200D01*
X198383809Y-84637200D02*
X198479047Y-84684819D01*
X198479047Y-84684819D02*
X198669523Y-84684819D01*
X198669523Y-84684819D02*
X198764761Y-84637200D01*
X198764761Y-84637200D02*
X198812380Y-84589580D01*
X198812380Y-84589580D02*
X198859999Y-84494342D01*
X198859999Y-84494342D02*
X198859999Y-84256247D01*
X198859999Y-84256247D02*
X198812380Y-84161009D01*
X198812380Y-84161009D02*
X198764761Y-84113390D01*
X198764761Y-84113390D02*
X198669523Y-84065771D01*
X198669523Y-84065771D02*
X198479047Y-84065771D01*
X198479047Y-84065771D02*
X198383809Y-84113390D01*
X198383809Y-84113390D02*
X198336190Y-84161009D01*
X198336190Y-84161009D02*
X198288571Y-84256247D01*
X194691659Y-34966814D02*
X194691659Y-35776963D01*
X194691659Y-35776963D02*
X194739314Y-35872275D01*
X194739314Y-35872275D02*
X194786970Y-35919931D01*
X194786970Y-35919931D02*
X194882282Y-35967586D01*
X194882282Y-35967586D02*
X195072905Y-35967586D01*
X195072905Y-35967586D02*
X195168217Y-35919931D01*
X195168217Y-35919931D02*
X195215872Y-35872275D01*
X195215872Y-35872275D02*
X195263528Y-35776963D01*
X195263528Y-35776963D02*
X195263528Y-34966814D01*
X196264300Y-35967586D02*
X195692431Y-35967586D01*
X195978366Y-35967586D02*
X195978366Y-34966814D01*
X195978366Y-34966814D02*
X195883054Y-35109782D01*
X195883054Y-35109782D02*
X195787742Y-35205093D01*
X195787742Y-35205093D02*
X195692431Y-35252749D01*
X197217416Y-35967586D02*
X196645547Y-35967586D01*
X196931482Y-35967586D02*
X196931482Y-34966814D01*
X196931482Y-34966814D02*
X196836170Y-35109782D01*
X196836170Y-35109782D02*
X196740858Y-35205093D01*
X196740858Y-35205093D02*
X196645547Y-35252749D01*
X152669047Y-53252319D02*
X152335714Y-52776128D01*
X152097619Y-53252319D02*
X152097619Y-52252319D01*
X152097619Y-52252319D02*
X152478571Y-52252319D01*
X152478571Y-52252319D02*
X152573809Y-52299938D01*
X152573809Y-52299938D02*
X152621428Y-52347557D01*
X152621428Y-52347557D02*
X152669047Y-52442795D01*
X152669047Y-52442795D02*
X152669047Y-52585652D01*
X152669047Y-52585652D02*
X152621428Y-52680890D01*
X152621428Y-52680890D02*
X152573809Y-52728509D01*
X152573809Y-52728509D02*
X152478571Y-52776128D01*
X152478571Y-52776128D02*
X152097619Y-52776128D01*
X153526190Y-52585652D02*
X153526190Y-53252319D01*
X153288095Y-52204700D02*
X153050000Y-52918985D01*
X153050000Y-52918985D02*
X153669047Y-52918985D01*
X154050000Y-53157080D02*
X154097619Y-53204700D01*
X154097619Y-53204700D02*
X154050000Y-53252319D01*
X154050000Y-53252319D02*
X154002381Y-53204700D01*
X154002381Y-53204700D02*
X154050000Y-53157080D01*
X154050000Y-53157080D02*
X154050000Y-53252319D01*
X154573809Y-53252319D02*
X154764285Y-53252319D01*
X154764285Y-53252319D02*
X154859523Y-53204700D01*
X154859523Y-53204700D02*
X154907142Y-53157080D01*
X154907142Y-53157080D02*
X155002380Y-53014223D01*
X155002380Y-53014223D02*
X155049999Y-52823747D01*
X155049999Y-52823747D02*
X155049999Y-52442795D01*
X155049999Y-52442795D02*
X155002380Y-52347557D01*
X155002380Y-52347557D02*
X154954761Y-52299938D01*
X154954761Y-52299938D02*
X154859523Y-52252319D01*
X154859523Y-52252319D02*
X154669047Y-52252319D01*
X154669047Y-52252319D02*
X154573809Y-52299938D01*
X154573809Y-52299938D02*
X154526190Y-52347557D01*
X154526190Y-52347557D02*
X154478571Y-52442795D01*
X154478571Y-52442795D02*
X154478571Y-52680890D01*
X154478571Y-52680890D02*
X154526190Y-52776128D01*
X154526190Y-52776128D02*
X154573809Y-52823747D01*
X154573809Y-52823747D02*
X154669047Y-52871366D01*
X154669047Y-52871366D02*
X154859523Y-52871366D01*
X154859523Y-52871366D02*
X154954761Y-52823747D01*
X154954761Y-52823747D02*
X155002380Y-52776128D01*
X155002380Y-52776128D02*
X155049999Y-52680890D01*
X186159047Y-50974819D02*
X185825714Y-50498628D01*
X185587619Y-50974819D02*
X185587619Y-49974819D01*
X185587619Y-49974819D02*
X185968571Y-49974819D01*
X185968571Y-49974819D02*
X186063809Y-50022438D01*
X186063809Y-50022438D02*
X186111428Y-50070057D01*
X186111428Y-50070057D02*
X186159047Y-50165295D01*
X186159047Y-50165295D02*
X186159047Y-50308152D01*
X186159047Y-50308152D02*
X186111428Y-50403390D01*
X186111428Y-50403390D02*
X186063809Y-50451009D01*
X186063809Y-50451009D02*
X185968571Y-50498628D01*
X185968571Y-50498628D02*
X185587619Y-50498628D01*
X187016190Y-50308152D02*
X187016190Y-50974819D01*
X186778095Y-49927200D02*
X186540000Y-50641485D01*
X186540000Y-50641485D02*
X187159047Y-50641485D01*
X187540000Y-50879580D02*
X187587619Y-50927200D01*
X187587619Y-50927200D02*
X187540000Y-50974819D01*
X187540000Y-50974819D02*
X187492381Y-50927200D01*
X187492381Y-50927200D02*
X187540000Y-50879580D01*
X187540000Y-50879580D02*
X187540000Y-50974819D01*
X188159047Y-50403390D02*
X188063809Y-50355771D01*
X188063809Y-50355771D02*
X188016190Y-50308152D01*
X188016190Y-50308152D02*
X187968571Y-50212914D01*
X187968571Y-50212914D02*
X187968571Y-50165295D01*
X187968571Y-50165295D02*
X188016190Y-50070057D01*
X188016190Y-50070057D02*
X188063809Y-50022438D01*
X188063809Y-50022438D02*
X188159047Y-49974819D01*
X188159047Y-49974819D02*
X188349523Y-49974819D01*
X188349523Y-49974819D02*
X188444761Y-50022438D01*
X188444761Y-50022438D02*
X188492380Y-50070057D01*
X188492380Y-50070057D02*
X188539999Y-50165295D01*
X188539999Y-50165295D02*
X188539999Y-50212914D01*
X188539999Y-50212914D02*
X188492380Y-50308152D01*
X188492380Y-50308152D02*
X188444761Y-50355771D01*
X188444761Y-50355771D02*
X188349523Y-50403390D01*
X188349523Y-50403390D02*
X188159047Y-50403390D01*
X188159047Y-50403390D02*
X188063809Y-50451009D01*
X188063809Y-50451009D02*
X188016190Y-50498628D01*
X188016190Y-50498628D02*
X187968571Y-50593866D01*
X187968571Y-50593866D02*
X187968571Y-50784342D01*
X187968571Y-50784342D02*
X188016190Y-50879580D01*
X188016190Y-50879580D02*
X188063809Y-50927200D01*
X188063809Y-50927200D02*
X188159047Y-50974819D01*
X188159047Y-50974819D02*
X188349523Y-50974819D01*
X188349523Y-50974819D02*
X188444761Y-50927200D01*
X188444761Y-50927200D02*
X188492380Y-50879580D01*
X188492380Y-50879580D02*
X188539999Y-50784342D01*
X188539999Y-50784342D02*
X188539999Y-50593866D01*
X188539999Y-50593866D02*
X188492380Y-50498628D01*
X188492380Y-50498628D02*
X188444761Y-50451009D01*
X188444761Y-50451009D02*
X188349523Y-50403390D01*
X152629047Y-56234819D02*
X152295714Y-55758628D01*
X152057619Y-56234819D02*
X152057619Y-55234819D01*
X152057619Y-55234819D02*
X152438571Y-55234819D01*
X152438571Y-55234819D02*
X152533809Y-55282438D01*
X152533809Y-55282438D02*
X152581428Y-55330057D01*
X152581428Y-55330057D02*
X152629047Y-55425295D01*
X152629047Y-55425295D02*
X152629047Y-55568152D01*
X152629047Y-55568152D02*
X152581428Y-55663390D01*
X152581428Y-55663390D02*
X152533809Y-55711009D01*
X152533809Y-55711009D02*
X152438571Y-55758628D01*
X152438571Y-55758628D02*
X152057619Y-55758628D01*
X153486190Y-55568152D02*
X153486190Y-56234819D01*
X153248095Y-55187200D02*
X153010000Y-55901485D01*
X153010000Y-55901485D02*
X153629047Y-55901485D01*
X154010000Y-56139580D02*
X154057619Y-56187200D01*
X154057619Y-56187200D02*
X154010000Y-56234819D01*
X154010000Y-56234819D02*
X153962381Y-56187200D01*
X153962381Y-56187200D02*
X154010000Y-56139580D01*
X154010000Y-56139580D02*
X154010000Y-56234819D01*
X154390952Y-55234819D02*
X155009999Y-55234819D01*
X155009999Y-55234819D02*
X154676666Y-55615771D01*
X154676666Y-55615771D02*
X154819523Y-55615771D01*
X154819523Y-55615771D02*
X154914761Y-55663390D01*
X154914761Y-55663390D02*
X154962380Y-55711009D01*
X154962380Y-55711009D02*
X155009999Y-55806247D01*
X155009999Y-55806247D02*
X155009999Y-56044342D01*
X155009999Y-56044342D02*
X154962380Y-56139580D01*
X154962380Y-56139580D02*
X154914761Y-56187200D01*
X154914761Y-56187200D02*
X154819523Y-56234819D01*
X154819523Y-56234819D02*
X154533809Y-56234819D01*
X154533809Y-56234819D02*
X154438571Y-56187200D01*
X154438571Y-56187200D02*
X154390952Y-56139580D01*
X158081547Y-53414819D02*
X157748214Y-52938628D01*
X157510119Y-53414819D02*
X157510119Y-52414819D01*
X157510119Y-52414819D02*
X157891071Y-52414819D01*
X157891071Y-52414819D02*
X157986309Y-52462438D01*
X157986309Y-52462438D02*
X158033928Y-52510057D01*
X158033928Y-52510057D02*
X158081547Y-52605295D01*
X158081547Y-52605295D02*
X158081547Y-52748152D01*
X158081547Y-52748152D02*
X158033928Y-52843390D01*
X158033928Y-52843390D02*
X157986309Y-52891009D01*
X157986309Y-52891009D02*
X157891071Y-52938628D01*
X157891071Y-52938628D02*
X157510119Y-52938628D01*
X158938690Y-52748152D02*
X158938690Y-53414819D01*
X158700595Y-52367200D02*
X158462500Y-53081485D01*
X158462500Y-53081485D02*
X159081547Y-53081485D01*
X159462500Y-53319580D02*
X159510119Y-53367200D01*
X159510119Y-53367200D02*
X159462500Y-53414819D01*
X159462500Y-53414819D02*
X159414881Y-53367200D01*
X159414881Y-53367200D02*
X159462500Y-53319580D01*
X159462500Y-53319580D02*
X159462500Y-53414819D01*
X159891071Y-52510057D02*
X159938690Y-52462438D01*
X159938690Y-52462438D02*
X160033928Y-52414819D01*
X160033928Y-52414819D02*
X160272023Y-52414819D01*
X160272023Y-52414819D02*
X160367261Y-52462438D01*
X160367261Y-52462438D02*
X160414880Y-52510057D01*
X160414880Y-52510057D02*
X160462499Y-52605295D01*
X160462499Y-52605295D02*
X160462499Y-52700533D01*
X160462499Y-52700533D02*
X160414880Y-52843390D01*
X160414880Y-52843390D02*
X159843452Y-53414819D01*
X159843452Y-53414819D02*
X160462499Y-53414819D01*
X160522857Y-65484819D02*
X160189524Y-65008628D01*
X159951429Y-65484819D02*
X159951429Y-64484819D01*
X159951429Y-64484819D02*
X160332381Y-64484819D01*
X160332381Y-64484819D02*
X160427619Y-64532438D01*
X160427619Y-64532438D02*
X160475238Y-64580057D01*
X160475238Y-64580057D02*
X160522857Y-64675295D01*
X160522857Y-64675295D02*
X160522857Y-64818152D01*
X160522857Y-64818152D02*
X160475238Y-64913390D01*
X160475238Y-64913390D02*
X160427619Y-64961009D01*
X160427619Y-64961009D02*
X160332381Y-65008628D01*
X160332381Y-65008628D02*
X159951429Y-65008628D01*
X161380000Y-64818152D02*
X161380000Y-65484819D01*
X161141905Y-64437200D02*
X160903810Y-65151485D01*
X160903810Y-65151485D02*
X161522857Y-65151485D01*
X161903810Y-65389580D02*
X161951429Y-65437200D01*
X161951429Y-65437200D02*
X161903810Y-65484819D01*
X161903810Y-65484819D02*
X161856191Y-65437200D01*
X161856191Y-65437200D02*
X161903810Y-65389580D01*
X161903810Y-65389580D02*
X161903810Y-65484819D01*
X162903809Y-65484819D02*
X162332381Y-65484819D01*
X162618095Y-65484819D02*
X162618095Y-64484819D01*
X162618095Y-64484819D02*
X162522857Y-64627676D01*
X162522857Y-64627676D02*
X162427619Y-64722914D01*
X162427619Y-64722914D02*
X162332381Y-64770533D01*
X163237143Y-64484819D02*
X163856190Y-64484819D01*
X163856190Y-64484819D02*
X163522857Y-64865771D01*
X163522857Y-64865771D02*
X163665714Y-64865771D01*
X163665714Y-64865771D02*
X163760952Y-64913390D01*
X163760952Y-64913390D02*
X163808571Y-64961009D01*
X163808571Y-64961009D02*
X163856190Y-65056247D01*
X163856190Y-65056247D02*
X163856190Y-65294342D01*
X163856190Y-65294342D02*
X163808571Y-65389580D01*
X163808571Y-65389580D02*
X163760952Y-65437200D01*
X163760952Y-65437200D02*
X163665714Y-65484819D01*
X163665714Y-65484819D02*
X163380000Y-65484819D01*
X163380000Y-65484819D02*
X163284762Y-65437200D01*
X163284762Y-65437200D02*
X163237143Y-65389580D01*
X162772619Y-62564819D02*
X162677381Y-62517200D01*
X162677381Y-62517200D02*
X162629762Y-62421961D01*
X162629762Y-62421961D02*
X162629762Y-61564819D01*
X163534524Y-62517200D02*
X163439286Y-62564819D01*
X163439286Y-62564819D02*
X163248810Y-62564819D01*
X163248810Y-62564819D02*
X163153572Y-62517200D01*
X163153572Y-62517200D02*
X163105953Y-62421961D01*
X163105953Y-62421961D02*
X163105953Y-62041009D01*
X163105953Y-62041009D02*
X163153572Y-61945771D01*
X163153572Y-61945771D02*
X163248810Y-61898152D01*
X163248810Y-61898152D02*
X163439286Y-61898152D01*
X163439286Y-61898152D02*
X163534524Y-61945771D01*
X163534524Y-61945771D02*
X163582143Y-62041009D01*
X163582143Y-62041009D02*
X163582143Y-62136247D01*
X163582143Y-62136247D02*
X163105953Y-62231485D01*
X164439286Y-62564819D02*
X164439286Y-61564819D01*
X164439286Y-62517200D02*
X164344048Y-62564819D01*
X164344048Y-62564819D02*
X164153572Y-62564819D01*
X164153572Y-62564819D02*
X164058334Y-62517200D01*
X164058334Y-62517200D02*
X164010715Y-62469580D01*
X164010715Y-62469580D02*
X163963096Y-62374342D01*
X163963096Y-62374342D02*
X163963096Y-62088628D01*
X163963096Y-62088628D02*
X164010715Y-61993390D01*
X164010715Y-61993390D02*
X164058334Y-61945771D01*
X164058334Y-61945771D02*
X164153572Y-61898152D01*
X164153572Y-61898152D02*
X164344048Y-61898152D01*
X164344048Y-61898152D02*
X164439286Y-61945771D01*
X165344048Y-61898152D02*
X165344048Y-62564819D01*
X165105953Y-61517200D02*
X164867858Y-62231485D01*
X164867858Y-62231485D02*
X165486905Y-62231485D01*
X165867858Y-62469580D02*
X165915477Y-62517200D01*
X165915477Y-62517200D02*
X165867858Y-62564819D01*
X165867858Y-62564819D02*
X165820239Y-62517200D01*
X165820239Y-62517200D02*
X165867858Y-62469580D01*
X165867858Y-62469580D02*
X165867858Y-62564819D01*
X166867857Y-62564819D02*
X166296429Y-62564819D01*
X166582143Y-62564819D02*
X166582143Y-61564819D01*
X166582143Y-61564819D02*
X166486905Y-61707676D01*
X166486905Y-61707676D02*
X166391667Y-61802914D01*
X166391667Y-61802914D02*
X166296429Y-61850533D01*
X175239047Y-78809580D02*
X175191428Y-78857200D01*
X175191428Y-78857200D02*
X175048571Y-78904819D01*
X175048571Y-78904819D02*
X174953333Y-78904819D01*
X174953333Y-78904819D02*
X174810476Y-78857200D01*
X174810476Y-78857200D02*
X174715238Y-78761961D01*
X174715238Y-78761961D02*
X174667619Y-78666723D01*
X174667619Y-78666723D02*
X174620000Y-78476247D01*
X174620000Y-78476247D02*
X174620000Y-78333390D01*
X174620000Y-78333390D02*
X174667619Y-78142914D01*
X174667619Y-78142914D02*
X174715238Y-78047676D01*
X174715238Y-78047676D02*
X174810476Y-77952438D01*
X174810476Y-77952438D02*
X174953333Y-77904819D01*
X174953333Y-77904819D02*
X175048571Y-77904819D01*
X175048571Y-77904819D02*
X175191428Y-77952438D01*
X175191428Y-77952438D02*
X175239047Y-78000057D01*
X176191428Y-78904819D02*
X175620000Y-78904819D01*
X175905714Y-78904819D02*
X175905714Y-77904819D01*
X175905714Y-77904819D02*
X175810476Y-78047676D01*
X175810476Y-78047676D02*
X175715238Y-78142914D01*
X175715238Y-78142914D02*
X175620000Y-78190533D01*
X176620000Y-78809580D02*
X176667619Y-78857200D01*
X176667619Y-78857200D02*
X176620000Y-78904819D01*
X176620000Y-78904819D02*
X176572381Y-78857200D01*
X176572381Y-78857200D02*
X176620000Y-78809580D01*
X176620000Y-78809580D02*
X176620000Y-78904819D01*
X177048571Y-78000057D02*
X177096190Y-77952438D01*
X177096190Y-77952438D02*
X177191428Y-77904819D01*
X177191428Y-77904819D02*
X177429523Y-77904819D01*
X177429523Y-77904819D02*
X177524761Y-77952438D01*
X177524761Y-77952438D02*
X177572380Y-78000057D01*
X177572380Y-78000057D02*
X177619999Y-78095295D01*
X177619999Y-78095295D02*
X177619999Y-78190533D01*
X177619999Y-78190533D02*
X177572380Y-78333390D01*
X177572380Y-78333390D02*
X177000952Y-78904819D01*
X177000952Y-78904819D02*
X177619999Y-78904819D01*
X212892857Y-56128152D02*
X212559524Y-55651961D01*
X212321429Y-56128152D02*
X212321429Y-55128152D01*
X212321429Y-55128152D02*
X212702381Y-55128152D01*
X212702381Y-55128152D02*
X212797619Y-55175771D01*
X212797619Y-55175771D02*
X212845238Y-55223390D01*
X212845238Y-55223390D02*
X212892857Y-55318628D01*
X212892857Y-55318628D02*
X212892857Y-55461485D01*
X212892857Y-55461485D02*
X212845238Y-55556723D01*
X212845238Y-55556723D02*
X212797619Y-55604342D01*
X212797619Y-55604342D02*
X212702381Y-55651961D01*
X212702381Y-55651961D02*
X212321429Y-55651961D01*
X213845238Y-56128152D02*
X213273810Y-56128152D01*
X213559524Y-56128152D02*
X213559524Y-55128152D01*
X213559524Y-55128152D02*
X213464286Y-55271009D01*
X213464286Y-55271009D02*
X213369048Y-55366247D01*
X213369048Y-55366247D02*
X213273810Y-55413866D01*
X214797619Y-56128152D02*
X214226191Y-56128152D01*
X214511905Y-56128152D02*
X214511905Y-55128152D01*
X214511905Y-55128152D02*
X214416667Y-55271009D01*
X214416667Y-55271009D02*
X214321429Y-55366247D01*
X214321429Y-55366247D02*
X214226191Y-55413866D01*
X215226191Y-56032913D02*
X215273810Y-56080533D01*
X215273810Y-56080533D02*
X215226191Y-56128152D01*
X215226191Y-56128152D02*
X215178572Y-56080533D01*
X215178572Y-56080533D02*
X215226191Y-56032913D01*
X215226191Y-56032913D02*
X215226191Y-56128152D01*
X215654762Y-55223390D02*
X215702381Y-55175771D01*
X215702381Y-55175771D02*
X215797619Y-55128152D01*
X215797619Y-55128152D02*
X216035714Y-55128152D01*
X216035714Y-55128152D02*
X216130952Y-55175771D01*
X216130952Y-55175771D02*
X216178571Y-55223390D01*
X216178571Y-55223390D02*
X216226190Y-55318628D01*
X216226190Y-55318628D02*
X216226190Y-55413866D01*
X216226190Y-55413866D02*
X216178571Y-55556723D01*
X216178571Y-55556723D02*
X215607143Y-56128152D01*
X215607143Y-56128152D02*
X216226190Y-56128152D01*
X190616547Y-95214819D02*
X190283214Y-94738628D01*
X190045119Y-95214819D02*
X190045119Y-94214819D01*
X190045119Y-94214819D02*
X190426071Y-94214819D01*
X190426071Y-94214819D02*
X190521309Y-94262438D01*
X190521309Y-94262438D02*
X190568928Y-94310057D01*
X190568928Y-94310057D02*
X190616547Y-94405295D01*
X190616547Y-94405295D02*
X190616547Y-94548152D01*
X190616547Y-94548152D02*
X190568928Y-94643390D01*
X190568928Y-94643390D02*
X190521309Y-94691009D01*
X190521309Y-94691009D02*
X190426071Y-94738628D01*
X190426071Y-94738628D02*
X190045119Y-94738628D01*
X190949881Y-94214819D02*
X191568928Y-94214819D01*
X191568928Y-94214819D02*
X191235595Y-94595771D01*
X191235595Y-94595771D02*
X191378452Y-94595771D01*
X191378452Y-94595771D02*
X191473690Y-94643390D01*
X191473690Y-94643390D02*
X191521309Y-94691009D01*
X191521309Y-94691009D02*
X191568928Y-94786247D01*
X191568928Y-94786247D02*
X191568928Y-95024342D01*
X191568928Y-95024342D02*
X191521309Y-95119580D01*
X191521309Y-95119580D02*
X191473690Y-95167200D01*
X191473690Y-95167200D02*
X191378452Y-95214819D01*
X191378452Y-95214819D02*
X191092738Y-95214819D01*
X191092738Y-95214819D02*
X190997500Y-95167200D01*
X190997500Y-95167200D02*
X190949881Y-95119580D01*
X191997500Y-95119580D02*
X192045119Y-95167200D01*
X192045119Y-95167200D02*
X191997500Y-95214819D01*
X191997500Y-95214819D02*
X191949881Y-95167200D01*
X191949881Y-95167200D02*
X191997500Y-95119580D01*
X191997500Y-95119580D02*
X191997500Y-95214819D01*
X192902261Y-94548152D02*
X192902261Y-95214819D01*
X192664166Y-94167200D02*
X192426071Y-94881485D01*
X192426071Y-94881485D02*
X193045118Y-94881485D01*
X212892857Y-53701486D02*
X212559524Y-53225295D01*
X212321429Y-53701486D02*
X212321429Y-52701486D01*
X212321429Y-52701486D02*
X212702381Y-52701486D01*
X212702381Y-52701486D02*
X212797619Y-52749105D01*
X212797619Y-52749105D02*
X212845238Y-52796724D01*
X212845238Y-52796724D02*
X212892857Y-52891962D01*
X212892857Y-52891962D02*
X212892857Y-53034819D01*
X212892857Y-53034819D02*
X212845238Y-53130057D01*
X212845238Y-53130057D02*
X212797619Y-53177676D01*
X212797619Y-53177676D02*
X212702381Y-53225295D01*
X212702381Y-53225295D02*
X212321429Y-53225295D01*
X213845238Y-53701486D02*
X213273810Y-53701486D01*
X213559524Y-53701486D02*
X213559524Y-52701486D01*
X213559524Y-52701486D02*
X213464286Y-52844343D01*
X213464286Y-52844343D02*
X213369048Y-52939581D01*
X213369048Y-52939581D02*
X213273810Y-52987200D01*
X214273810Y-53606247D02*
X214321429Y-53653867D01*
X214321429Y-53653867D02*
X214273810Y-53701486D01*
X214273810Y-53701486D02*
X214226191Y-53653867D01*
X214226191Y-53653867D02*
X214273810Y-53606247D01*
X214273810Y-53606247D02*
X214273810Y-53701486D01*
X215273809Y-53701486D02*
X214702381Y-53701486D01*
X214988095Y-53701486D02*
X214988095Y-52701486D01*
X214988095Y-52701486D02*
X214892857Y-52844343D01*
X214892857Y-52844343D02*
X214797619Y-52939581D01*
X214797619Y-52939581D02*
X214702381Y-52987200D01*
X216130952Y-53034819D02*
X216130952Y-53701486D01*
X215892857Y-52653867D02*
X215654762Y-53368152D01*
X215654762Y-53368152D02*
X216273809Y-53368152D01*
X174742857Y-59300444D02*
X174409524Y-58824253D01*
X174171429Y-59300444D02*
X174171429Y-58300444D01*
X174171429Y-58300444D02*
X174552381Y-58300444D01*
X174552381Y-58300444D02*
X174647619Y-58348063D01*
X174647619Y-58348063D02*
X174695238Y-58395682D01*
X174695238Y-58395682D02*
X174742857Y-58490920D01*
X174742857Y-58490920D02*
X174742857Y-58633777D01*
X174742857Y-58633777D02*
X174695238Y-58729015D01*
X174695238Y-58729015D02*
X174647619Y-58776634D01*
X174647619Y-58776634D02*
X174552381Y-58824253D01*
X174552381Y-58824253D02*
X174171429Y-58824253D01*
X175600000Y-58633777D02*
X175600000Y-59300444D01*
X175361905Y-58252825D02*
X175123810Y-58967110D01*
X175123810Y-58967110D02*
X175742857Y-58967110D01*
X176123810Y-59205205D02*
X176171429Y-59252825D01*
X176171429Y-59252825D02*
X176123810Y-59300444D01*
X176123810Y-59300444D02*
X176076191Y-59252825D01*
X176076191Y-59252825D02*
X176123810Y-59205205D01*
X176123810Y-59205205D02*
X176123810Y-59300444D01*
X177123809Y-59300444D02*
X176552381Y-59300444D01*
X176838095Y-59300444D02*
X176838095Y-58300444D01*
X176838095Y-58300444D02*
X176742857Y-58443301D01*
X176742857Y-58443301D02*
X176647619Y-58538539D01*
X176647619Y-58538539D02*
X176552381Y-58586158D01*
X177742857Y-58300444D02*
X177838095Y-58300444D01*
X177838095Y-58300444D02*
X177933333Y-58348063D01*
X177933333Y-58348063D02*
X177980952Y-58395682D01*
X177980952Y-58395682D02*
X178028571Y-58490920D01*
X178028571Y-58490920D02*
X178076190Y-58681396D01*
X178076190Y-58681396D02*
X178076190Y-58919491D01*
X178076190Y-58919491D02*
X178028571Y-59109967D01*
X178028571Y-59109967D02*
X177980952Y-59205205D01*
X177980952Y-59205205D02*
X177933333Y-59252825D01*
X177933333Y-59252825D02*
X177838095Y-59300444D01*
X177838095Y-59300444D02*
X177742857Y-59300444D01*
X177742857Y-59300444D02*
X177647619Y-59252825D01*
X177647619Y-59252825D02*
X177600000Y-59205205D01*
X177600000Y-59205205D02*
X177552381Y-59109967D01*
X177552381Y-59109967D02*
X177504762Y-58919491D01*
X177504762Y-58919491D02*
X177504762Y-58681396D01*
X177504762Y-58681396D02*
X177552381Y-58490920D01*
X177552381Y-58490920D02*
X177600000Y-58395682D01*
X177600000Y-58395682D02*
X177647619Y-58348063D01*
X177647619Y-58348063D02*
X177742857Y-58300444D01*
X202310357Y-64944819D02*
X201977024Y-64468628D01*
X201738929Y-64944819D02*
X201738929Y-63944819D01*
X201738929Y-63944819D02*
X202119881Y-63944819D01*
X202119881Y-63944819D02*
X202215119Y-63992438D01*
X202215119Y-63992438D02*
X202262738Y-64040057D01*
X202262738Y-64040057D02*
X202310357Y-64135295D01*
X202310357Y-64135295D02*
X202310357Y-64278152D01*
X202310357Y-64278152D02*
X202262738Y-64373390D01*
X202262738Y-64373390D02*
X202215119Y-64421009D01*
X202215119Y-64421009D02*
X202119881Y-64468628D01*
X202119881Y-64468628D02*
X201738929Y-64468628D01*
X203262738Y-64944819D02*
X202691310Y-64944819D01*
X202977024Y-64944819D02*
X202977024Y-63944819D01*
X202977024Y-63944819D02*
X202881786Y-64087676D01*
X202881786Y-64087676D02*
X202786548Y-64182914D01*
X202786548Y-64182914D02*
X202691310Y-64230533D01*
X203691310Y-64849580D02*
X203738929Y-64897200D01*
X203738929Y-64897200D02*
X203691310Y-64944819D01*
X203691310Y-64944819D02*
X203643691Y-64897200D01*
X203643691Y-64897200D02*
X203691310Y-64849580D01*
X203691310Y-64849580D02*
X203691310Y-64944819D01*
X204691309Y-64944819D02*
X204119881Y-64944819D01*
X204405595Y-64944819D02*
X204405595Y-63944819D01*
X204405595Y-63944819D02*
X204310357Y-64087676D01*
X204310357Y-64087676D02*
X204215119Y-64182914D01*
X204215119Y-64182914D02*
X204119881Y-64230533D01*
X205024643Y-63944819D02*
X205643690Y-63944819D01*
X205643690Y-63944819D02*
X205310357Y-64325771D01*
X205310357Y-64325771D02*
X205453214Y-64325771D01*
X205453214Y-64325771D02*
X205548452Y-64373390D01*
X205548452Y-64373390D02*
X205596071Y-64421009D01*
X205596071Y-64421009D02*
X205643690Y-64516247D01*
X205643690Y-64516247D02*
X205643690Y-64754342D01*
X205643690Y-64754342D02*
X205596071Y-64849580D01*
X205596071Y-64849580D02*
X205548452Y-64897200D01*
X205548452Y-64897200D02*
X205453214Y-64944819D01*
X205453214Y-64944819D02*
X205167500Y-64944819D01*
X205167500Y-64944819D02*
X205072262Y-64897200D01*
X205072262Y-64897200D02*
X205024643Y-64849580D01*
X185455357Y-53589580D02*
X185407738Y-53637200D01*
X185407738Y-53637200D02*
X185264881Y-53684819D01*
X185264881Y-53684819D02*
X185169643Y-53684819D01*
X185169643Y-53684819D02*
X185026786Y-53637200D01*
X185026786Y-53637200D02*
X184931548Y-53541961D01*
X184931548Y-53541961D02*
X184883929Y-53446723D01*
X184883929Y-53446723D02*
X184836310Y-53256247D01*
X184836310Y-53256247D02*
X184836310Y-53113390D01*
X184836310Y-53113390D02*
X184883929Y-52922914D01*
X184883929Y-52922914D02*
X184931548Y-52827676D01*
X184931548Y-52827676D02*
X185026786Y-52732438D01*
X185026786Y-52732438D02*
X185169643Y-52684819D01*
X185169643Y-52684819D02*
X185264881Y-52684819D01*
X185264881Y-52684819D02*
X185407738Y-52732438D01*
X185407738Y-52732438D02*
X185455357Y-52780057D01*
X186407738Y-53684819D02*
X185836310Y-53684819D01*
X186122024Y-53684819D02*
X186122024Y-52684819D01*
X186122024Y-52684819D02*
X186026786Y-52827676D01*
X186026786Y-52827676D02*
X185931548Y-52922914D01*
X185931548Y-52922914D02*
X185836310Y-52970533D01*
X187360119Y-53684819D02*
X186788691Y-53684819D01*
X187074405Y-53684819D02*
X187074405Y-52684819D01*
X187074405Y-52684819D02*
X186979167Y-52827676D01*
X186979167Y-52827676D02*
X186883929Y-52922914D01*
X186883929Y-52922914D02*
X186788691Y-52970533D01*
X187788691Y-53589580D02*
X187836310Y-53637200D01*
X187836310Y-53637200D02*
X187788691Y-53684819D01*
X187788691Y-53684819D02*
X187741072Y-53637200D01*
X187741072Y-53637200D02*
X187788691Y-53589580D01*
X187788691Y-53589580D02*
X187788691Y-53684819D01*
X188169643Y-52684819D02*
X188788690Y-52684819D01*
X188788690Y-52684819D02*
X188455357Y-53065771D01*
X188455357Y-53065771D02*
X188598214Y-53065771D01*
X188598214Y-53065771D02*
X188693452Y-53113390D01*
X188693452Y-53113390D02*
X188741071Y-53161009D01*
X188741071Y-53161009D02*
X188788690Y-53256247D01*
X188788690Y-53256247D02*
X188788690Y-53494342D01*
X188788690Y-53494342D02*
X188741071Y-53589580D01*
X188741071Y-53589580D02*
X188693452Y-53637200D01*
X188693452Y-53637200D02*
X188598214Y-53684819D01*
X188598214Y-53684819D02*
X188312500Y-53684819D01*
X188312500Y-53684819D02*
X188217262Y-53637200D01*
X188217262Y-53637200D02*
X188169643Y-53589580D01*
X169799047Y-74499580D02*
X169751428Y-74547200D01*
X169751428Y-74547200D02*
X169608571Y-74594819D01*
X169608571Y-74594819D02*
X169513333Y-74594819D01*
X169513333Y-74594819D02*
X169370476Y-74547200D01*
X169370476Y-74547200D02*
X169275238Y-74451961D01*
X169275238Y-74451961D02*
X169227619Y-74356723D01*
X169227619Y-74356723D02*
X169180000Y-74166247D01*
X169180000Y-74166247D02*
X169180000Y-74023390D01*
X169180000Y-74023390D02*
X169227619Y-73832914D01*
X169227619Y-73832914D02*
X169275238Y-73737676D01*
X169275238Y-73737676D02*
X169370476Y-73642438D01*
X169370476Y-73642438D02*
X169513333Y-73594819D01*
X169513333Y-73594819D02*
X169608571Y-73594819D01*
X169608571Y-73594819D02*
X169751428Y-73642438D01*
X169751428Y-73642438D02*
X169799047Y-73690057D01*
X170751428Y-74594819D02*
X170180000Y-74594819D01*
X170465714Y-74594819D02*
X170465714Y-73594819D01*
X170465714Y-73594819D02*
X170370476Y-73737676D01*
X170370476Y-73737676D02*
X170275238Y-73832914D01*
X170275238Y-73832914D02*
X170180000Y-73880533D01*
X171180000Y-74499580D02*
X171227619Y-74547200D01*
X171227619Y-74547200D02*
X171180000Y-74594819D01*
X171180000Y-74594819D02*
X171132381Y-74547200D01*
X171132381Y-74547200D02*
X171180000Y-74499580D01*
X171180000Y-74499580D02*
X171180000Y-74594819D01*
X172179999Y-74594819D02*
X171608571Y-74594819D01*
X171894285Y-74594819D02*
X171894285Y-73594819D01*
X171894285Y-73594819D02*
X171799047Y-73737676D01*
X171799047Y-73737676D02*
X171703809Y-73832914D01*
X171703809Y-73832914D02*
X171608571Y-73880533D01*
X180372023Y-67871486D02*
X180038690Y-67395295D01*
X179800595Y-67871486D02*
X179800595Y-66871486D01*
X179800595Y-66871486D02*
X180181547Y-66871486D01*
X180181547Y-66871486D02*
X180276785Y-66919105D01*
X180276785Y-66919105D02*
X180324404Y-66966724D01*
X180324404Y-66966724D02*
X180372023Y-67061962D01*
X180372023Y-67061962D02*
X180372023Y-67204819D01*
X180372023Y-67204819D02*
X180324404Y-67300057D01*
X180324404Y-67300057D02*
X180276785Y-67347676D01*
X180276785Y-67347676D02*
X180181547Y-67395295D01*
X180181547Y-67395295D02*
X179800595Y-67395295D01*
X181324404Y-67871486D02*
X180752976Y-67871486D01*
X181038690Y-67871486D02*
X181038690Y-66871486D01*
X181038690Y-66871486D02*
X180943452Y-67014343D01*
X180943452Y-67014343D02*
X180848214Y-67109581D01*
X180848214Y-67109581D02*
X180752976Y-67157200D01*
X181752976Y-67776247D02*
X181800595Y-67823867D01*
X181800595Y-67823867D02*
X181752976Y-67871486D01*
X181752976Y-67871486D02*
X181705357Y-67823867D01*
X181705357Y-67823867D02*
X181752976Y-67776247D01*
X181752976Y-67776247D02*
X181752976Y-67871486D01*
X182372023Y-67300057D02*
X182276785Y-67252438D01*
X182276785Y-67252438D02*
X182229166Y-67204819D01*
X182229166Y-67204819D02*
X182181547Y-67109581D01*
X182181547Y-67109581D02*
X182181547Y-67061962D01*
X182181547Y-67061962D02*
X182229166Y-66966724D01*
X182229166Y-66966724D02*
X182276785Y-66919105D01*
X182276785Y-66919105D02*
X182372023Y-66871486D01*
X182372023Y-66871486D02*
X182562499Y-66871486D01*
X182562499Y-66871486D02*
X182657737Y-66919105D01*
X182657737Y-66919105D02*
X182705356Y-66966724D01*
X182705356Y-66966724D02*
X182752975Y-67061962D01*
X182752975Y-67061962D02*
X182752975Y-67109581D01*
X182752975Y-67109581D02*
X182705356Y-67204819D01*
X182705356Y-67204819D02*
X182657737Y-67252438D01*
X182657737Y-67252438D02*
X182562499Y-67300057D01*
X182562499Y-67300057D02*
X182372023Y-67300057D01*
X182372023Y-67300057D02*
X182276785Y-67347676D01*
X182276785Y-67347676D02*
X182229166Y-67395295D01*
X182229166Y-67395295D02*
X182181547Y-67490533D01*
X182181547Y-67490533D02*
X182181547Y-67681009D01*
X182181547Y-67681009D02*
X182229166Y-67776247D01*
X182229166Y-67776247D02*
X182276785Y-67823867D01*
X182276785Y-67823867D02*
X182372023Y-67871486D01*
X182372023Y-67871486D02*
X182562499Y-67871486D01*
X182562499Y-67871486D02*
X182657737Y-67823867D01*
X182657737Y-67823867D02*
X182705356Y-67776247D01*
X182705356Y-67776247D02*
X182752975Y-67681009D01*
X182752975Y-67681009D02*
X182752975Y-67490533D01*
X182752975Y-67490533D02*
X182705356Y-67395295D01*
X182705356Y-67395295D02*
X182657737Y-67347676D01*
X182657737Y-67347676D02*
X182562499Y-67300057D01*
X180189047Y-95199580D02*
X180141428Y-95247200D01*
X180141428Y-95247200D02*
X179998571Y-95294819D01*
X179998571Y-95294819D02*
X179903333Y-95294819D01*
X179903333Y-95294819D02*
X179760476Y-95247200D01*
X179760476Y-95247200D02*
X179665238Y-95151961D01*
X179665238Y-95151961D02*
X179617619Y-95056723D01*
X179617619Y-95056723D02*
X179570000Y-94866247D01*
X179570000Y-94866247D02*
X179570000Y-94723390D01*
X179570000Y-94723390D02*
X179617619Y-94532914D01*
X179617619Y-94532914D02*
X179665238Y-94437676D01*
X179665238Y-94437676D02*
X179760476Y-94342438D01*
X179760476Y-94342438D02*
X179903333Y-94294819D01*
X179903333Y-94294819D02*
X179998571Y-94294819D01*
X179998571Y-94294819D02*
X180141428Y-94342438D01*
X180141428Y-94342438D02*
X180189047Y-94390057D01*
X180522381Y-94294819D02*
X181141428Y-94294819D01*
X181141428Y-94294819D02*
X180808095Y-94675771D01*
X180808095Y-94675771D02*
X180950952Y-94675771D01*
X180950952Y-94675771D02*
X181046190Y-94723390D01*
X181046190Y-94723390D02*
X181093809Y-94771009D01*
X181093809Y-94771009D02*
X181141428Y-94866247D01*
X181141428Y-94866247D02*
X181141428Y-95104342D01*
X181141428Y-95104342D02*
X181093809Y-95199580D01*
X181093809Y-95199580D02*
X181046190Y-95247200D01*
X181046190Y-95247200D02*
X180950952Y-95294819D01*
X180950952Y-95294819D02*
X180665238Y-95294819D01*
X180665238Y-95294819D02*
X180570000Y-95247200D01*
X180570000Y-95247200D02*
X180522381Y-95199580D01*
X181570000Y-95199580D02*
X181617619Y-95247200D01*
X181617619Y-95247200D02*
X181570000Y-95294819D01*
X181570000Y-95294819D02*
X181522381Y-95247200D01*
X181522381Y-95247200D02*
X181570000Y-95199580D01*
X181570000Y-95199580D02*
X181570000Y-95294819D01*
X182474761Y-94294819D02*
X182284285Y-94294819D01*
X182284285Y-94294819D02*
X182189047Y-94342438D01*
X182189047Y-94342438D02*
X182141428Y-94390057D01*
X182141428Y-94390057D02*
X182046190Y-94532914D01*
X182046190Y-94532914D02*
X181998571Y-94723390D01*
X181998571Y-94723390D02*
X181998571Y-95104342D01*
X181998571Y-95104342D02*
X182046190Y-95199580D01*
X182046190Y-95199580D02*
X182093809Y-95247200D01*
X182093809Y-95247200D02*
X182189047Y-95294819D01*
X182189047Y-95294819D02*
X182379523Y-95294819D01*
X182379523Y-95294819D02*
X182474761Y-95247200D01*
X182474761Y-95247200D02*
X182522380Y-95199580D01*
X182522380Y-95199580D02*
X182569999Y-95104342D01*
X182569999Y-95104342D02*
X182569999Y-94866247D01*
X182569999Y-94866247D02*
X182522380Y-94771009D01*
X182522380Y-94771009D02*
X182474761Y-94723390D01*
X182474761Y-94723390D02*
X182379523Y-94675771D01*
X182379523Y-94675771D02*
X182189047Y-94675771D01*
X182189047Y-94675771D02*
X182093809Y-94723390D01*
X182093809Y-94723390D02*
X182046190Y-94771009D01*
X182046190Y-94771009D02*
X181998571Y-94866247D01*
X185551857Y-59768152D02*
X185218524Y-59291961D01*
X184980429Y-59768152D02*
X184980429Y-58768152D01*
X184980429Y-58768152D02*
X185361381Y-58768152D01*
X185361381Y-58768152D02*
X185456619Y-58815771D01*
X185456619Y-58815771D02*
X185504238Y-58863390D01*
X185504238Y-58863390D02*
X185551857Y-58958628D01*
X185551857Y-58958628D02*
X185551857Y-59101485D01*
X185551857Y-59101485D02*
X185504238Y-59196723D01*
X185504238Y-59196723D02*
X185456619Y-59244342D01*
X185456619Y-59244342D02*
X185361381Y-59291961D01*
X185361381Y-59291961D02*
X184980429Y-59291961D01*
X186504238Y-59768152D02*
X185932810Y-59768152D01*
X186218524Y-59768152D02*
X186218524Y-58768152D01*
X186218524Y-58768152D02*
X186123286Y-58911009D01*
X186123286Y-58911009D02*
X186028048Y-59006247D01*
X186028048Y-59006247D02*
X185932810Y-59053866D01*
X187456619Y-59768152D02*
X186885191Y-59768152D01*
X187170905Y-59768152D02*
X187170905Y-58768152D01*
X187170905Y-58768152D02*
X187075667Y-58911009D01*
X187075667Y-58911009D02*
X186980429Y-59006247D01*
X186980429Y-59006247D02*
X186885191Y-59053866D01*
X187885191Y-59672913D02*
X187932810Y-59720533D01*
X187932810Y-59720533D02*
X187885191Y-59768152D01*
X187885191Y-59768152D02*
X187837572Y-59720533D01*
X187837572Y-59720533D02*
X187885191Y-59672913D01*
X187885191Y-59672913D02*
X187885191Y-59768152D01*
X188266143Y-58768152D02*
X188932809Y-58768152D01*
X188932809Y-58768152D02*
X188504238Y-59768152D01*
X185599047Y-95069580D02*
X185551428Y-95117200D01*
X185551428Y-95117200D02*
X185408571Y-95164819D01*
X185408571Y-95164819D02*
X185313333Y-95164819D01*
X185313333Y-95164819D02*
X185170476Y-95117200D01*
X185170476Y-95117200D02*
X185075238Y-95021961D01*
X185075238Y-95021961D02*
X185027619Y-94926723D01*
X185027619Y-94926723D02*
X184980000Y-94736247D01*
X184980000Y-94736247D02*
X184980000Y-94593390D01*
X184980000Y-94593390D02*
X185027619Y-94402914D01*
X185027619Y-94402914D02*
X185075238Y-94307676D01*
X185075238Y-94307676D02*
X185170476Y-94212438D01*
X185170476Y-94212438D02*
X185313333Y-94164819D01*
X185313333Y-94164819D02*
X185408571Y-94164819D01*
X185408571Y-94164819D02*
X185551428Y-94212438D01*
X185551428Y-94212438D02*
X185599047Y-94260057D01*
X185932381Y-94164819D02*
X186551428Y-94164819D01*
X186551428Y-94164819D02*
X186218095Y-94545771D01*
X186218095Y-94545771D02*
X186360952Y-94545771D01*
X186360952Y-94545771D02*
X186456190Y-94593390D01*
X186456190Y-94593390D02*
X186503809Y-94641009D01*
X186503809Y-94641009D02*
X186551428Y-94736247D01*
X186551428Y-94736247D02*
X186551428Y-94974342D01*
X186551428Y-94974342D02*
X186503809Y-95069580D01*
X186503809Y-95069580D02*
X186456190Y-95117200D01*
X186456190Y-95117200D02*
X186360952Y-95164819D01*
X186360952Y-95164819D02*
X186075238Y-95164819D01*
X186075238Y-95164819D02*
X185980000Y-95117200D01*
X185980000Y-95117200D02*
X185932381Y-95069580D01*
X186980000Y-95069580D02*
X187027619Y-95117200D01*
X187027619Y-95117200D02*
X186980000Y-95164819D01*
X186980000Y-95164819D02*
X186932381Y-95117200D01*
X186932381Y-95117200D02*
X186980000Y-95069580D01*
X186980000Y-95069580D02*
X186980000Y-95164819D01*
X187360952Y-94164819D02*
X188027618Y-94164819D01*
X188027618Y-94164819D02*
X187599047Y-95164819D01*
X180409047Y-82039580D02*
X180361428Y-82087200D01*
X180361428Y-82087200D02*
X180218571Y-82134819D01*
X180218571Y-82134819D02*
X180123333Y-82134819D01*
X180123333Y-82134819D02*
X179980476Y-82087200D01*
X179980476Y-82087200D02*
X179885238Y-81991961D01*
X179885238Y-81991961D02*
X179837619Y-81896723D01*
X179837619Y-81896723D02*
X179790000Y-81706247D01*
X179790000Y-81706247D02*
X179790000Y-81563390D01*
X179790000Y-81563390D02*
X179837619Y-81372914D01*
X179837619Y-81372914D02*
X179885238Y-81277676D01*
X179885238Y-81277676D02*
X179980476Y-81182438D01*
X179980476Y-81182438D02*
X180123333Y-81134819D01*
X180123333Y-81134819D02*
X180218571Y-81134819D01*
X180218571Y-81134819D02*
X180361428Y-81182438D01*
X180361428Y-81182438D02*
X180409047Y-81230057D01*
X181361428Y-82134819D02*
X180790000Y-82134819D01*
X181075714Y-82134819D02*
X181075714Y-81134819D01*
X181075714Y-81134819D02*
X180980476Y-81277676D01*
X180980476Y-81277676D02*
X180885238Y-81372914D01*
X180885238Y-81372914D02*
X180790000Y-81420533D01*
X181790000Y-82039580D02*
X181837619Y-82087200D01*
X181837619Y-82087200D02*
X181790000Y-82134819D01*
X181790000Y-82134819D02*
X181742381Y-82087200D01*
X181742381Y-82087200D02*
X181790000Y-82039580D01*
X181790000Y-82039580D02*
X181790000Y-82134819D01*
X182742380Y-81134819D02*
X182266190Y-81134819D01*
X182266190Y-81134819D02*
X182218571Y-81611009D01*
X182218571Y-81611009D02*
X182266190Y-81563390D01*
X182266190Y-81563390D02*
X182361428Y-81515771D01*
X182361428Y-81515771D02*
X182599523Y-81515771D01*
X182599523Y-81515771D02*
X182694761Y-81563390D01*
X182694761Y-81563390D02*
X182742380Y-81611009D01*
X182742380Y-81611009D02*
X182789999Y-81706247D01*
X182789999Y-81706247D02*
X182789999Y-81944342D01*
X182789999Y-81944342D02*
X182742380Y-82039580D01*
X182742380Y-82039580D02*
X182694761Y-82087200D01*
X182694761Y-82087200D02*
X182599523Y-82134819D01*
X182599523Y-82134819D02*
X182361428Y-82134819D01*
X182361428Y-82134819D02*
X182266190Y-82087200D01*
X182266190Y-82087200D02*
X182218571Y-82039580D01*
X202616547Y-91229819D02*
X202283214Y-90753628D01*
X202045119Y-91229819D02*
X202045119Y-90229819D01*
X202045119Y-90229819D02*
X202426071Y-90229819D01*
X202426071Y-90229819D02*
X202521309Y-90277438D01*
X202521309Y-90277438D02*
X202568928Y-90325057D01*
X202568928Y-90325057D02*
X202616547Y-90420295D01*
X202616547Y-90420295D02*
X202616547Y-90563152D01*
X202616547Y-90563152D02*
X202568928Y-90658390D01*
X202568928Y-90658390D02*
X202521309Y-90706009D01*
X202521309Y-90706009D02*
X202426071Y-90753628D01*
X202426071Y-90753628D02*
X202045119Y-90753628D01*
X202949881Y-90229819D02*
X203568928Y-90229819D01*
X203568928Y-90229819D02*
X203235595Y-90610771D01*
X203235595Y-90610771D02*
X203378452Y-90610771D01*
X203378452Y-90610771D02*
X203473690Y-90658390D01*
X203473690Y-90658390D02*
X203521309Y-90706009D01*
X203521309Y-90706009D02*
X203568928Y-90801247D01*
X203568928Y-90801247D02*
X203568928Y-91039342D01*
X203568928Y-91039342D02*
X203521309Y-91134580D01*
X203521309Y-91134580D02*
X203473690Y-91182200D01*
X203473690Y-91182200D02*
X203378452Y-91229819D01*
X203378452Y-91229819D02*
X203092738Y-91229819D01*
X203092738Y-91229819D02*
X202997500Y-91182200D01*
X202997500Y-91182200D02*
X202949881Y-91134580D01*
X203997500Y-91134580D02*
X204045119Y-91182200D01*
X204045119Y-91182200D02*
X203997500Y-91229819D01*
X203997500Y-91229819D02*
X203949881Y-91182200D01*
X203949881Y-91182200D02*
X203997500Y-91134580D01*
X203997500Y-91134580D02*
X203997500Y-91229819D01*
X204997499Y-91229819D02*
X204426071Y-91229819D01*
X204711785Y-91229819D02*
X204711785Y-90229819D01*
X204711785Y-90229819D02*
X204616547Y-90372676D01*
X204616547Y-90372676D02*
X204521309Y-90467914D01*
X204521309Y-90467914D02*
X204426071Y-90515533D01*
X202519047Y-75054819D02*
X202185714Y-74578628D01*
X201947619Y-75054819D02*
X201947619Y-74054819D01*
X201947619Y-74054819D02*
X202328571Y-74054819D01*
X202328571Y-74054819D02*
X202423809Y-74102438D01*
X202423809Y-74102438D02*
X202471428Y-74150057D01*
X202471428Y-74150057D02*
X202519047Y-74245295D01*
X202519047Y-74245295D02*
X202519047Y-74388152D01*
X202519047Y-74388152D02*
X202471428Y-74483390D01*
X202471428Y-74483390D02*
X202423809Y-74531009D01*
X202423809Y-74531009D02*
X202328571Y-74578628D01*
X202328571Y-74578628D02*
X201947619Y-74578628D01*
X203471428Y-75054819D02*
X202900000Y-75054819D01*
X203185714Y-75054819D02*
X203185714Y-74054819D01*
X203185714Y-74054819D02*
X203090476Y-74197676D01*
X203090476Y-74197676D02*
X202995238Y-74292914D01*
X202995238Y-74292914D02*
X202900000Y-74340533D01*
X203900000Y-74959580D02*
X203947619Y-75007200D01*
X203947619Y-75007200D02*
X203900000Y-75054819D01*
X203900000Y-75054819D02*
X203852381Y-75007200D01*
X203852381Y-75007200D02*
X203900000Y-74959580D01*
X203900000Y-74959580D02*
X203900000Y-75054819D01*
X204899999Y-75054819D02*
X204328571Y-75054819D01*
X204614285Y-75054819D02*
X204614285Y-74054819D01*
X204614285Y-74054819D02*
X204519047Y-74197676D01*
X204519047Y-74197676D02*
X204423809Y-74292914D01*
X204423809Y-74292914D02*
X204328571Y-74340533D01*
X211762857Y-64274819D02*
X211762857Y-63274819D01*
X211762857Y-63274819D02*
X212000952Y-63274819D01*
X212000952Y-63274819D02*
X212143809Y-63322438D01*
X212143809Y-63322438D02*
X212239047Y-63417676D01*
X212239047Y-63417676D02*
X212286666Y-63512914D01*
X212286666Y-63512914D02*
X212334285Y-63703390D01*
X212334285Y-63703390D02*
X212334285Y-63846247D01*
X212334285Y-63846247D02*
X212286666Y-64036723D01*
X212286666Y-64036723D02*
X212239047Y-64131961D01*
X212239047Y-64131961D02*
X212143809Y-64227200D01*
X212143809Y-64227200D02*
X212000952Y-64274819D01*
X212000952Y-64274819D02*
X211762857Y-64274819D01*
X212953333Y-63274819D02*
X213143809Y-63274819D01*
X213143809Y-63274819D02*
X213239047Y-63322438D01*
X213239047Y-63322438D02*
X213334285Y-63417676D01*
X213334285Y-63417676D02*
X213381904Y-63608152D01*
X213381904Y-63608152D02*
X213381904Y-63941485D01*
X213381904Y-63941485D02*
X213334285Y-64131961D01*
X213334285Y-64131961D02*
X213239047Y-64227200D01*
X213239047Y-64227200D02*
X213143809Y-64274819D01*
X213143809Y-64274819D02*
X212953333Y-64274819D01*
X212953333Y-64274819D02*
X212858095Y-64227200D01*
X212858095Y-64227200D02*
X212762857Y-64131961D01*
X212762857Y-64131961D02*
X212715238Y-63941485D01*
X212715238Y-63941485D02*
X212715238Y-63608152D01*
X212715238Y-63608152D02*
X212762857Y-63417676D01*
X212762857Y-63417676D02*
X212858095Y-63322438D01*
X212858095Y-63322438D02*
X212953333Y-63274819D01*
X213715238Y-63274819D02*
X213953333Y-64274819D01*
X213953333Y-64274819D02*
X214143809Y-63560533D01*
X214143809Y-63560533D02*
X214334285Y-64274819D01*
X214334285Y-64274819D02*
X214572381Y-63274819D01*
X214953333Y-64274819D02*
X214953333Y-63274819D01*
X214953333Y-63274819D02*
X215524761Y-64274819D01*
X215524761Y-64274819D02*
X215524761Y-63274819D01*
X216524761Y-64274819D02*
X215953333Y-64274819D01*
X216239047Y-64274819D02*
X216239047Y-63274819D01*
X216239047Y-63274819D02*
X216143809Y-63417676D01*
X216143809Y-63417676D02*
X216048571Y-63512914D01*
X216048571Y-63512914D02*
X215953333Y-63560533D01*
X188599047Y-75244819D02*
X188122857Y-75244819D01*
X188122857Y-75244819D02*
X188122857Y-74244819D01*
X189456190Y-75244819D02*
X188884762Y-75244819D01*
X189170476Y-75244819D02*
X189170476Y-74244819D01*
X189170476Y-74244819D02*
X189075238Y-74387676D01*
X189075238Y-74387676D02*
X188980000Y-74482914D01*
X188980000Y-74482914D02*
X188884762Y-74530533D01*
X189884762Y-75149580D02*
X189932381Y-75197200D01*
X189932381Y-75197200D02*
X189884762Y-75244819D01*
X189884762Y-75244819D02*
X189837143Y-75197200D01*
X189837143Y-75197200D02*
X189884762Y-75149580D01*
X189884762Y-75149580D02*
X189884762Y-75244819D01*
X190884761Y-75244819D02*
X190313333Y-75244819D01*
X190599047Y-75244819D02*
X190599047Y-74244819D01*
X190599047Y-74244819D02*
X190503809Y-74387676D01*
X190503809Y-74387676D02*
X190408571Y-74482914D01*
X190408571Y-74482914D02*
X190313333Y-74530533D01*
X180529047Y-50604819D02*
X180195714Y-50128628D01*
X179957619Y-50604819D02*
X179957619Y-49604819D01*
X179957619Y-49604819D02*
X180338571Y-49604819D01*
X180338571Y-49604819D02*
X180433809Y-49652438D01*
X180433809Y-49652438D02*
X180481428Y-49700057D01*
X180481428Y-49700057D02*
X180529047Y-49795295D01*
X180529047Y-49795295D02*
X180529047Y-49938152D01*
X180529047Y-49938152D02*
X180481428Y-50033390D01*
X180481428Y-50033390D02*
X180433809Y-50081009D01*
X180433809Y-50081009D02*
X180338571Y-50128628D01*
X180338571Y-50128628D02*
X179957619Y-50128628D01*
X181386190Y-49938152D02*
X181386190Y-50604819D01*
X181148095Y-49557200D02*
X180910000Y-50271485D01*
X180910000Y-50271485D02*
X181529047Y-50271485D01*
X181910000Y-50509580D02*
X181957619Y-50557200D01*
X181957619Y-50557200D02*
X181910000Y-50604819D01*
X181910000Y-50604819D02*
X181862381Y-50557200D01*
X181862381Y-50557200D02*
X181910000Y-50509580D01*
X181910000Y-50509580D02*
X181910000Y-50604819D01*
X182814761Y-49938152D02*
X182814761Y-50604819D01*
X182576666Y-49557200D02*
X182338571Y-50271485D01*
X182338571Y-50271485D02*
X182957618Y-50271485D01*
X169409047Y-97489580D02*
X169361428Y-97537200D01*
X169361428Y-97537200D02*
X169218571Y-97584819D01*
X169218571Y-97584819D02*
X169123333Y-97584819D01*
X169123333Y-97584819D02*
X168980476Y-97537200D01*
X168980476Y-97537200D02*
X168885238Y-97441961D01*
X168885238Y-97441961D02*
X168837619Y-97346723D01*
X168837619Y-97346723D02*
X168790000Y-97156247D01*
X168790000Y-97156247D02*
X168790000Y-97013390D01*
X168790000Y-97013390D02*
X168837619Y-96822914D01*
X168837619Y-96822914D02*
X168885238Y-96727676D01*
X168885238Y-96727676D02*
X168980476Y-96632438D01*
X168980476Y-96632438D02*
X169123333Y-96584819D01*
X169123333Y-96584819D02*
X169218571Y-96584819D01*
X169218571Y-96584819D02*
X169361428Y-96632438D01*
X169361428Y-96632438D02*
X169409047Y-96680057D01*
X169742381Y-96584819D02*
X170361428Y-96584819D01*
X170361428Y-96584819D02*
X170028095Y-96965771D01*
X170028095Y-96965771D02*
X170170952Y-96965771D01*
X170170952Y-96965771D02*
X170266190Y-97013390D01*
X170266190Y-97013390D02*
X170313809Y-97061009D01*
X170313809Y-97061009D02*
X170361428Y-97156247D01*
X170361428Y-97156247D02*
X170361428Y-97394342D01*
X170361428Y-97394342D02*
X170313809Y-97489580D01*
X170313809Y-97489580D02*
X170266190Y-97537200D01*
X170266190Y-97537200D02*
X170170952Y-97584819D01*
X170170952Y-97584819D02*
X169885238Y-97584819D01*
X169885238Y-97584819D02*
X169790000Y-97537200D01*
X169790000Y-97537200D02*
X169742381Y-97489580D01*
X170790000Y-97489580D02*
X170837619Y-97537200D01*
X170837619Y-97537200D02*
X170790000Y-97584819D01*
X170790000Y-97584819D02*
X170742381Y-97537200D01*
X170742381Y-97537200D02*
X170790000Y-97489580D01*
X170790000Y-97489580D02*
X170790000Y-97584819D01*
X171789999Y-97584819D02*
X171218571Y-97584819D01*
X171504285Y-97584819D02*
X171504285Y-96584819D01*
X171504285Y-96584819D02*
X171409047Y-96727676D01*
X171409047Y-96727676D02*
X171313809Y-96822914D01*
X171313809Y-96822914D02*
X171218571Y-96870533D01*
X163279047Y-59204819D02*
X162945714Y-58728628D01*
X162707619Y-59204819D02*
X162707619Y-58204819D01*
X162707619Y-58204819D02*
X163088571Y-58204819D01*
X163088571Y-58204819D02*
X163183809Y-58252438D01*
X163183809Y-58252438D02*
X163231428Y-58300057D01*
X163231428Y-58300057D02*
X163279047Y-58395295D01*
X163279047Y-58395295D02*
X163279047Y-58538152D01*
X163279047Y-58538152D02*
X163231428Y-58633390D01*
X163231428Y-58633390D02*
X163183809Y-58681009D01*
X163183809Y-58681009D02*
X163088571Y-58728628D01*
X163088571Y-58728628D02*
X162707619Y-58728628D01*
X164136190Y-58538152D02*
X164136190Y-59204819D01*
X163898095Y-58157200D02*
X163660000Y-58871485D01*
X163660000Y-58871485D02*
X164279047Y-58871485D01*
X164660000Y-59109580D02*
X164707619Y-59157200D01*
X164707619Y-59157200D02*
X164660000Y-59204819D01*
X164660000Y-59204819D02*
X164612381Y-59157200D01*
X164612381Y-59157200D02*
X164660000Y-59109580D01*
X164660000Y-59109580D02*
X164660000Y-59204819D01*
X165040952Y-58204819D02*
X165707618Y-58204819D01*
X165707618Y-58204819D02*
X165279047Y-59204819D01*
X202616547Y-82054819D02*
X202283214Y-81578628D01*
X202045119Y-82054819D02*
X202045119Y-81054819D01*
X202045119Y-81054819D02*
X202426071Y-81054819D01*
X202426071Y-81054819D02*
X202521309Y-81102438D01*
X202521309Y-81102438D02*
X202568928Y-81150057D01*
X202568928Y-81150057D02*
X202616547Y-81245295D01*
X202616547Y-81245295D02*
X202616547Y-81388152D01*
X202616547Y-81388152D02*
X202568928Y-81483390D01*
X202568928Y-81483390D02*
X202521309Y-81531009D01*
X202521309Y-81531009D02*
X202426071Y-81578628D01*
X202426071Y-81578628D02*
X202045119Y-81578628D01*
X203568928Y-82054819D02*
X202997500Y-82054819D01*
X203283214Y-82054819D02*
X203283214Y-81054819D01*
X203283214Y-81054819D02*
X203187976Y-81197676D01*
X203187976Y-81197676D02*
X203092738Y-81292914D01*
X203092738Y-81292914D02*
X202997500Y-81340533D01*
X203997500Y-81959580D02*
X204045119Y-82007200D01*
X204045119Y-82007200D02*
X203997500Y-82054819D01*
X203997500Y-82054819D02*
X203949881Y-82007200D01*
X203949881Y-82007200D02*
X203997500Y-81959580D01*
X203997500Y-81959580D02*
X203997500Y-82054819D01*
X204426071Y-81150057D02*
X204473690Y-81102438D01*
X204473690Y-81102438D02*
X204568928Y-81054819D01*
X204568928Y-81054819D02*
X204807023Y-81054819D01*
X204807023Y-81054819D02*
X204902261Y-81102438D01*
X204902261Y-81102438D02*
X204949880Y-81150057D01*
X204949880Y-81150057D02*
X204997499Y-81245295D01*
X204997499Y-81245295D02*
X204997499Y-81340533D01*
X204997499Y-81340533D02*
X204949880Y-81483390D01*
X204949880Y-81483390D02*
X204378452Y-82054819D01*
X204378452Y-82054819D02*
X204997499Y-82054819D01*
X161761905Y-84204819D02*
X161761905Y-83204819D01*
X161761905Y-83204819D02*
X162000000Y-83204819D01*
X162000000Y-83204819D02*
X162142857Y-83252438D01*
X162142857Y-83252438D02*
X162238095Y-83347676D01*
X162238095Y-83347676D02*
X162285714Y-83442914D01*
X162285714Y-83442914D02*
X162333333Y-83633390D01*
X162333333Y-83633390D02*
X162333333Y-83776247D01*
X162333333Y-83776247D02*
X162285714Y-83966723D01*
X162285714Y-83966723D02*
X162238095Y-84061961D01*
X162238095Y-84061961D02*
X162142857Y-84157200D01*
X162142857Y-84157200D02*
X162000000Y-84204819D01*
X162000000Y-84204819D02*
X161761905Y-84204819D01*
X163190476Y-83538152D02*
X163190476Y-84204819D01*
X162952381Y-83157200D02*
X162714286Y-83871485D01*
X162714286Y-83871485D02*
X163333333Y-83871485D01*
X157999047Y-56249580D02*
X157951428Y-56297200D01*
X157951428Y-56297200D02*
X157808571Y-56344819D01*
X157808571Y-56344819D02*
X157713333Y-56344819D01*
X157713333Y-56344819D02*
X157570476Y-56297200D01*
X157570476Y-56297200D02*
X157475238Y-56201961D01*
X157475238Y-56201961D02*
X157427619Y-56106723D01*
X157427619Y-56106723D02*
X157380000Y-55916247D01*
X157380000Y-55916247D02*
X157380000Y-55773390D01*
X157380000Y-55773390D02*
X157427619Y-55582914D01*
X157427619Y-55582914D02*
X157475238Y-55487676D01*
X157475238Y-55487676D02*
X157570476Y-55392438D01*
X157570476Y-55392438D02*
X157713333Y-55344819D01*
X157713333Y-55344819D02*
X157808571Y-55344819D01*
X157808571Y-55344819D02*
X157951428Y-55392438D01*
X157951428Y-55392438D02*
X157999047Y-55440057D01*
X158856190Y-55678152D02*
X158856190Y-56344819D01*
X158618095Y-55297200D02*
X158380000Y-56011485D01*
X158380000Y-56011485D02*
X158999047Y-56011485D01*
X159380000Y-56249580D02*
X159427619Y-56297200D01*
X159427619Y-56297200D02*
X159380000Y-56344819D01*
X159380000Y-56344819D02*
X159332381Y-56297200D01*
X159332381Y-56297200D02*
X159380000Y-56249580D01*
X159380000Y-56249580D02*
X159380000Y-56344819D01*
X159808571Y-55440057D02*
X159856190Y-55392438D01*
X159856190Y-55392438D02*
X159951428Y-55344819D01*
X159951428Y-55344819D02*
X160189523Y-55344819D01*
X160189523Y-55344819D02*
X160284761Y-55392438D01*
X160284761Y-55392438D02*
X160332380Y-55440057D01*
X160332380Y-55440057D02*
X160379999Y-55535295D01*
X160379999Y-55535295D02*
X160379999Y-55630533D01*
X160379999Y-55630533D02*
X160332380Y-55773390D01*
X160332380Y-55773390D02*
X159760952Y-56344819D01*
X159760952Y-56344819D02*
X160379999Y-56344819D01*
X185281857Y-56374819D02*
X184948524Y-55898628D01*
X184710429Y-56374819D02*
X184710429Y-55374819D01*
X184710429Y-55374819D02*
X185091381Y-55374819D01*
X185091381Y-55374819D02*
X185186619Y-55422438D01*
X185186619Y-55422438D02*
X185234238Y-55470057D01*
X185234238Y-55470057D02*
X185281857Y-55565295D01*
X185281857Y-55565295D02*
X185281857Y-55708152D01*
X185281857Y-55708152D02*
X185234238Y-55803390D01*
X185234238Y-55803390D02*
X185186619Y-55851009D01*
X185186619Y-55851009D02*
X185091381Y-55898628D01*
X185091381Y-55898628D02*
X184710429Y-55898628D01*
X186234238Y-56374819D02*
X185662810Y-56374819D01*
X185948524Y-56374819D02*
X185948524Y-55374819D01*
X185948524Y-55374819D02*
X185853286Y-55517676D01*
X185853286Y-55517676D02*
X185758048Y-55612914D01*
X185758048Y-55612914D02*
X185662810Y-55660533D01*
X187186619Y-56374819D02*
X186615191Y-56374819D01*
X186900905Y-56374819D02*
X186900905Y-55374819D01*
X186900905Y-55374819D02*
X186805667Y-55517676D01*
X186805667Y-55517676D02*
X186710429Y-55612914D01*
X186710429Y-55612914D02*
X186615191Y-55660533D01*
X187615191Y-56279580D02*
X187662810Y-56327200D01*
X187662810Y-56327200D02*
X187615191Y-56374819D01*
X187615191Y-56374819D02*
X187567572Y-56327200D01*
X187567572Y-56327200D02*
X187615191Y-56279580D01*
X187615191Y-56279580D02*
X187615191Y-56374819D01*
X188567571Y-55374819D02*
X188091381Y-55374819D01*
X188091381Y-55374819D02*
X188043762Y-55851009D01*
X188043762Y-55851009D02*
X188091381Y-55803390D01*
X188091381Y-55803390D02*
X188186619Y-55755771D01*
X188186619Y-55755771D02*
X188424714Y-55755771D01*
X188424714Y-55755771D02*
X188519952Y-55803390D01*
X188519952Y-55803390D02*
X188567571Y-55851009D01*
X188567571Y-55851009D02*
X188615190Y-55946247D01*
X188615190Y-55946247D02*
X188615190Y-56184342D01*
X188615190Y-56184342D02*
X188567571Y-56279580D01*
X188567571Y-56279580D02*
X188519952Y-56327200D01*
X188519952Y-56327200D02*
X188424714Y-56374819D01*
X188424714Y-56374819D02*
X188186619Y-56374819D01*
X188186619Y-56374819D02*
X188091381Y-56327200D01*
X188091381Y-56327200D02*
X188043762Y-56279580D01*
X180489047Y-62644819D02*
X180155714Y-62168628D01*
X179917619Y-62644819D02*
X179917619Y-61644819D01*
X179917619Y-61644819D02*
X180298571Y-61644819D01*
X180298571Y-61644819D02*
X180393809Y-61692438D01*
X180393809Y-61692438D02*
X180441428Y-61740057D01*
X180441428Y-61740057D02*
X180489047Y-61835295D01*
X180489047Y-61835295D02*
X180489047Y-61978152D01*
X180489047Y-61978152D02*
X180441428Y-62073390D01*
X180441428Y-62073390D02*
X180393809Y-62121009D01*
X180393809Y-62121009D02*
X180298571Y-62168628D01*
X180298571Y-62168628D02*
X179917619Y-62168628D01*
X181441428Y-62644819D02*
X180870000Y-62644819D01*
X181155714Y-62644819D02*
X181155714Y-61644819D01*
X181155714Y-61644819D02*
X181060476Y-61787676D01*
X181060476Y-61787676D02*
X180965238Y-61882914D01*
X180965238Y-61882914D02*
X180870000Y-61930533D01*
X181870000Y-62549580D02*
X181917619Y-62597200D01*
X181917619Y-62597200D02*
X181870000Y-62644819D01*
X181870000Y-62644819D02*
X181822381Y-62597200D01*
X181822381Y-62597200D02*
X181870000Y-62549580D01*
X181870000Y-62549580D02*
X181870000Y-62644819D01*
X182250952Y-61644819D02*
X182917618Y-61644819D01*
X182917618Y-61644819D02*
X182489047Y-62644819D01*
X161058095Y-45651119D02*
X161058095Y-46460642D01*
X161058095Y-46460642D02*
X161105714Y-46555880D01*
X161105714Y-46555880D02*
X161153333Y-46603500D01*
X161153333Y-46603500D02*
X161248571Y-46651119D01*
X161248571Y-46651119D02*
X161439047Y-46651119D01*
X161439047Y-46651119D02*
X161534285Y-46603500D01*
X161534285Y-46603500D02*
X161581904Y-46555880D01*
X161581904Y-46555880D02*
X161629523Y-46460642D01*
X161629523Y-46460642D02*
X161629523Y-45651119D01*
X162534285Y-45984452D02*
X162534285Y-46651119D01*
X162296190Y-45603500D02*
X162058095Y-46317785D01*
X162058095Y-46317785D02*
X162677142Y-46317785D01*
X174829047Y-82239580D02*
X174781428Y-82287200D01*
X174781428Y-82287200D02*
X174638571Y-82334819D01*
X174638571Y-82334819D02*
X174543333Y-82334819D01*
X174543333Y-82334819D02*
X174400476Y-82287200D01*
X174400476Y-82287200D02*
X174305238Y-82191961D01*
X174305238Y-82191961D02*
X174257619Y-82096723D01*
X174257619Y-82096723D02*
X174210000Y-81906247D01*
X174210000Y-81906247D02*
X174210000Y-81763390D01*
X174210000Y-81763390D02*
X174257619Y-81572914D01*
X174257619Y-81572914D02*
X174305238Y-81477676D01*
X174305238Y-81477676D02*
X174400476Y-81382438D01*
X174400476Y-81382438D02*
X174543333Y-81334819D01*
X174543333Y-81334819D02*
X174638571Y-81334819D01*
X174638571Y-81334819D02*
X174781428Y-81382438D01*
X174781428Y-81382438D02*
X174829047Y-81430057D01*
X175781428Y-82334819D02*
X175210000Y-82334819D01*
X175495714Y-82334819D02*
X175495714Y-81334819D01*
X175495714Y-81334819D02*
X175400476Y-81477676D01*
X175400476Y-81477676D02*
X175305238Y-81572914D01*
X175305238Y-81572914D02*
X175210000Y-81620533D01*
X176210000Y-82239580D02*
X176257619Y-82287200D01*
X176257619Y-82287200D02*
X176210000Y-82334819D01*
X176210000Y-82334819D02*
X176162381Y-82287200D01*
X176162381Y-82287200D02*
X176210000Y-82239580D01*
X176210000Y-82239580D02*
X176210000Y-82334819D01*
X177114761Y-81668152D02*
X177114761Y-82334819D01*
X176876666Y-81287200D02*
X176638571Y-82001485D01*
X176638571Y-82001485D02*
X177257618Y-82001485D01*
X206726904Y-91404819D02*
X206631666Y-91357200D01*
X206631666Y-91357200D02*
X206584047Y-91261961D01*
X206584047Y-91261961D02*
X206584047Y-90404819D01*
X207488809Y-91357200D02*
X207393571Y-91404819D01*
X207393571Y-91404819D02*
X207203095Y-91404819D01*
X207203095Y-91404819D02*
X207107857Y-91357200D01*
X207107857Y-91357200D02*
X207060238Y-91261961D01*
X207060238Y-91261961D02*
X207060238Y-90881009D01*
X207060238Y-90881009D02*
X207107857Y-90785771D01*
X207107857Y-90785771D02*
X207203095Y-90738152D01*
X207203095Y-90738152D02*
X207393571Y-90738152D01*
X207393571Y-90738152D02*
X207488809Y-90785771D01*
X207488809Y-90785771D02*
X207536428Y-90881009D01*
X207536428Y-90881009D02*
X207536428Y-90976247D01*
X207536428Y-90976247D02*
X207060238Y-91071485D01*
X208393571Y-91404819D02*
X208393571Y-90404819D01*
X208393571Y-91357200D02*
X208298333Y-91404819D01*
X208298333Y-91404819D02*
X208107857Y-91404819D01*
X208107857Y-91404819D02*
X208012619Y-91357200D01*
X208012619Y-91357200D02*
X207965000Y-91309580D01*
X207965000Y-91309580D02*
X207917381Y-91214342D01*
X207917381Y-91214342D02*
X207917381Y-90928628D01*
X207917381Y-90928628D02*
X207965000Y-90833390D01*
X207965000Y-90833390D02*
X208012619Y-90785771D01*
X208012619Y-90785771D02*
X208107857Y-90738152D01*
X208107857Y-90738152D02*
X208298333Y-90738152D01*
X208298333Y-90738152D02*
X208393571Y-90785771D01*
X209298333Y-90738152D02*
X209298333Y-91404819D01*
X209060238Y-90357200D02*
X208822143Y-91071485D01*
X208822143Y-91071485D02*
X209441190Y-91071485D01*
X180499047Y-71529580D02*
X180451428Y-71577200D01*
X180451428Y-71577200D02*
X180308571Y-71624819D01*
X180308571Y-71624819D02*
X180213333Y-71624819D01*
X180213333Y-71624819D02*
X180070476Y-71577200D01*
X180070476Y-71577200D02*
X179975238Y-71481961D01*
X179975238Y-71481961D02*
X179927619Y-71386723D01*
X179927619Y-71386723D02*
X179880000Y-71196247D01*
X179880000Y-71196247D02*
X179880000Y-71053390D01*
X179880000Y-71053390D02*
X179927619Y-70862914D01*
X179927619Y-70862914D02*
X179975238Y-70767676D01*
X179975238Y-70767676D02*
X180070476Y-70672438D01*
X180070476Y-70672438D02*
X180213333Y-70624819D01*
X180213333Y-70624819D02*
X180308571Y-70624819D01*
X180308571Y-70624819D02*
X180451428Y-70672438D01*
X180451428Y-70672438D02*
X180499047Y-70720057D01*
X180832381Y-70624819D02*
X181451428Y-70624819D01*
X181451428Y-70624819D02*
X181118095Y-71005771D01*
X181118095Y-71005771D02*
X181260952Y-71005771D01*
X181260952Y-71005771D02*
X181356190Y-71053390D01*
X181356190Y-71053390D02*
X181403809Y-71101009D01*
X181403809Y-71101009D02*
X181451428Y-71196247D01*
X181451428Y-71196247D02*
X181451428Y-71434342D01*
X181451428Y-71434342D02*
X181403809Y-71529580D01*
X181403809Y-71529580D02*
X181356190Y-71577200D01*
X181356190Y-71577200D02*
X181260952Y-71624819D01*
X181260952Y-71624819D02*
X180975238Y-71624819D01*
X180975238Y-71624819D02*
X180880000Y-71577200D01*
X180880000Y-71577200D02*
X180832381Y-71529580D01*
X181880000Y-71529580D02*
X181927619Y-71577200D01*
X181927619Y-71577200D02*
X181880000Y-71624819D01*
X181880000Y-71624819D02*
X181832381Y-71577200D01*
X181832381Y-71577200D02*
X181880000Y-71529580D01*
X181880000Y-71529580D02*
X181880000Y-71624819D01*
X182403809Y-71624819D02*
X182594285Y-71624819D01*
X182594285Y-71624819D02*
X182689523Y-71577200D01*
X182689523Y-71577200D02*
X182737142Y-71529580D01*
X182737142Y-71529580D02*
X182832380Y-71386723D01*
X182832380Y-71386723D02*
X182879999Y-71196247D01*
X182879999Y-71196247D02*
X182879999Y-70815295D01*
X182879999Y-70815295D02*
X182832380Y-70720057D01*
X182832380Y-70720057D02*
X182784761Y-70672438D01*
X182784761Y-70672438D02*
X182689523Y-70624819D01*
X182689523Y-70624819D02*
X182499047Y-70624819D01*
X182499047Y-70624819D02*
X182403809Y-70672438D01*
X182403809Y-70672438D02*
X182356190Y-70720057D01*
X182356190Y-70720057D02*
X182308571Y-70815295D01*
X182308571Y-70815295D02*
X182308571Y-71053390D01*
X182308571Y-71053390D02*
X182356190Y-71148628D01*
X182356190Y-71148628D02*
X182403809Y-71196247D01*
X182403809Y-71196247D02*
X182499047Y-71243866D01*
X182499047Y-71243866D02*
X182689523Y-71243866D01*
X182689523Y-71243866D02*
X182784761Y-71196247D01*
X182784761Y-71196247D02*
X182832380Y-71148628D01*
X182832380Y-71148628D02*
X182879999Y-71053390D01*
X196713857Y-65034819D02*
X196380524Y-64558628D01*
X196142429Y-65034819D02*
X196142429Y-64034819D01*
X196142429Y-64034819D02*
X196523381Y-64034819D01*
X196523381Y-64034819D02*
X196618619Y-64082438D01*
X196618619Y-64082438D02*
X196666238Y-64130057D01*
X196666238Y-64130057D02*
X196713857Y-64225295D01*
X196713857Y-64225295D02*
X196713857Y-64368152D01*
X196713857Y-64368152D02*
X196666238Y-64463390D01*
X196666238Y-64463390D02*
X196618619Y-64511009D01*
X196618619Y-64511009D02*
X196523381Y-64558628D01*
X196523381Y-64558628D02*
X196142429Y-64558628D01*
X197666238Y-65034819D02*
X197094810Y-65034819D01*
X197380524Y-65034819D02*
X197380524Y-64034819D01*
X197380524Y-64034819D02*
X197285286Y-64177676D01*
X197285286Y-64177676D02*
X197190048Y-64272914D01*
X197190048Y-64272914D02*
X197094810Y-64320533D01*
X198618619Y-65034819D02*
X198047191Y-65034819D01*
X198332905Y-65034819D02*
X198332905Y-64034819D01*
X198332905Y-64034819D02*
X198237667Y-64177676D01*
X198237667Y-64177676D02*
X198142429Y-64272914D01*
X198142429Y-64272914D02*
X198047191Y-64320533D01*
X199047191Y-64939580D02*
X199094810Y-64987200D01*
X199094810Y-64987200D02*
X199047191Y-65034819D01*
X199047191Y-65034819D02*
X198999572Y-64987200D01*
X198999572Y-64987200D02*
X199047191Y-64939580D01*
X199047191Y-64939580D02*
X199047191Y-65034819D01*
X200047190Y-65034819D02*
X199475762Y-65034819D01*
X199761476Y-65034819D02*
X199761476Y-64034819D01*
X199761476Y-64034819D02*
X199666238Y-64177676D01*
X199666238Y-64177676D02*
X199571000Y-64272914D01*
X199571000Y-64272914D02*
X199475762Y-64320533D01*
X190652976Y-69280057D02*
X190557738Y-69232438D01*
X190557738Y-69232438D02*
X190462500Y-69137200D01*
X190462500Y-69137200D02*
X190319643Y-68994342D01*
X190319643Y-68994342D02*
X190224405Y-68946723D01*
X190224405Y-68946723D02*
X190129167Y-68946723D01*
X190176786Y-69184819D02*
X190081548Y-69137200D01*
X190081548Y-69137200D02*
X189986310Y-69041961D01*
X189986310Y-69041961D02*
X189938691Y-68851485D01*
X189938691Y-68851485D02*
X189938691Y-68518152D01*
X189938691Y-68518152D02*
X189986310Y-68327676D01*
X189986310Y-68327676D02*
X190081548Y-68232438D01*
X190081548Y-68232438D02*
X190176786Y-68184819D01*
X190176786Y-68184819D02*
X190367262Y-68184819D01*
X190367262Y-68184819D02*
X190462500Y-68232438D01*
X190462500Y-68232438D02*
X190557738Y-68327676D01*
X190557738Y-68327676D02*
X190605357Y-68518152D01*
X190605357Y-68518152D02*
X190605357Y-68851485D01*
X190605357Y-68851485D02*
X190557738Y-69041961D01*
X190557738Y-69041961D02*
X190462500Y-69137200D01*
X190462500Y-69137200D02*
X190367262Y-69184819D01*
X190367262Y-69184819D02*
X190176786Y-69184819D01*
X191557738Y-69184819D02*
X190986310Y-69184819D01*
X191272024Y-69184819D02*
X191272024Y-68184819D01*
X191272024Y-68184819D02*
X191176786Y-68327676D01*
X191176786Y-68327676D02*
X191081548Y-68422914D01*
X191081548Y-68422914D02*
X190986310Y-68470533D01*
X191986310Y-69089580D02*
X192033929Y-69137200D01*
X192033929Y-69137200D02*
X191986310Y-69184819D01*
X191986310Y-69184819D02*
X191938691Y-69137200D01*
X191938691Y-69137200D02*
X191986310Y-69089580D01*
X191986310Y-69089580D02*
X191986310Y-69184819D01*
X192414881Y-68280057D02*
X192462500Y-68232438D01*
X192462500Y-68232438D02*
X192557738Y-68184819D01*
X192557738Y-68184819D02*
X192795833Y-68184819D01*
X192795833Y-68184819D02*
X192891071Y-68232438D01*
X192891071Y-68232438D02*
X192938690Y-68280057D01*
X192938690Y-68280057D02*
X192986309Y-68375295D01*
X192986309Y-68375295D02*
X192986309Y-68470533D01*
X192986309Y-68470533D02*
X192938690Y-68613390D01*
X192938690Y-68613390D02*
X192367262Y-69184819D01*
X192367262Y-69184819D02*
X192986309Y-69184819D01*
X180409047Y-87939580D02*
X180361428Y-87987200D01*
X180361428Y-87987200D02*
X180218571Y-88034819D01*
X180218571Y-88034819D02*
X180123333Y-88034819D01*
X180123333Y-88034819D02*
X179980476Y-87987200D01*
X179980476Y-87987200D02*
X179885238Y-87891961D01*
X179885238Y-87891961D02*
X179837619Y-87796723D01*
X179837619Y-87796723D02*
X179790000Y-87606247D01*
X179790000Y-87606247D02*
X179790000Y-87463390D01*
X179790000Y-87463390D02*
X179837619Y-87272914D01*
X179837619Y-87272914D02*
X179885238Y-87177676D01*
X179885238Y-87177676D02*
X179980476Y-87082438D01*
X179980476Y-87082438D02*
X180123333Y-87034819D01*
X180123333Y-87034819D02*
X180218571Y-87034819D01*
X180218571Y-87034819D02*
X180361428Y-87082438D01*
X180361428Y-87082438D02*
X180409047Y-87130057D01*
X180742381Y-87034819D02*
X181361428Y-87034819D01*
X181361428Y-87034819D02*
X181028095Y-87415771D01*
X181028095Y-87415771D02*
X181170952Y-87415771D01*
X181170952Y-87415771D02*
X181266190Y-87463390D01*
X181266190Y-87463390D02*
X181313809Y-87511009D01*
X181313809Y-87511009D02*
X181361428Y-87606247D01*
X181361428Y-87606247D02*
X181361428Y-87844342D01*
X181361428Y-87844342D02*
X181313809Y-87939580D01*
X181313809Y-87939580D02*
X181266190Y-87987200D01*
X181266190Y-87987200D02*
X181170952Y-88034819D01*
X181170952Y-88034819D02*
X180885238Y-88034819D01*
X180885238Y-88034819D02*
X180790000Y-87987200D01*
X180790000Y-87987200D02*
X180742381Y-87939580D01*
X181790000Y-87939580D02*
X181837619Y-87987200D01*
X181837619Y-87987200D02*
X181790000Y-88034819D01*
X181790000Y-88034819D02*
X181742381Y-87987200D01*
X181742381Y-87987200D02*
X181790000Y-87939580D01*
X181790000Y-87939580D02*
X181790000Y-88034819D01*
X182742380Y-87034819D02*
X182266190Y-87034819D01*
X182266190Y-87034819D02*
X182218571Y-87511009D01*
X182218571Y-87511009D02*
X182266190Y-87463390D01*
X182266190Y-87463390D02*
X182361428Y-87415771D01*
X182361428Y-87415771D02*
X182599523Y-87415771D01*
X182599523Y-87415771D02*
X182694761Y-87463390D01*
X182694761Y-87463390D02*
X182742380Y-87511009D01*
X182742380Y-87511009D02*
X182789999Y-87606247D01*
X182789999Y-87606247D02*
X182789999Y-87844342D01*
X182789999Y-87844342D02*
X182742380Y-87939580D01*
X182742380Y-87939580D02*
X182694761Y-87987200D01*
X182694761Y-87987200D02*
X182599523Y-88034819D01*
X182599523Y-88034819D02*
X182361428Y-88034819D01*
X182361428Y-88034819D02*
X182266190Y-87987200D01*
X182266190Y-87987200D02*
X182218571Y-87939580D01*
X195769047Y-97319580D02*
X195721428Y-97367200D01*
X195721428Y-97367200D02*
X195578571Y-97414819D01*
X195578571Y-97414819D02*
X195483333Y-97414819D01*
X195483333Y-97414819D02*
X195340476Y-97367200D01*
X195340476Y-97367200D02*
X195245238Y-97271961D01*
X195245238Y-97271961D02*
X195197619Y-97176723D01*
X195197619Y-97176723D02*
X195150000Y-96986247D01*
X195150000Y-96986247D02*
X195150000Y-96843390D01*
X195150000Y-96843390D02*
X195197619Y-96652914D01*
X195197619Y-96652914D02*
X195245238Y-96557676D01*
X195245238Y-96557676D02*
X195340476Y-96462438D01*
X195340476Y-96462438D02*
X195483333Y-96414819D01*
X195483333Y-96414819D02*
X195578571Y-96414819D01*
X195578571Y-96414819D02*
X195721428Y-96462438D01*
X195721428Y-96462438D02*
X195769047Y-96510057D01*
X196102381Y-96414819D02*
X196721428Y-96414819D01*
X196721428Y-96414819D02*
X196388095Y-96795771D01*
X196388095Y-96795771D02*
X196530952Y-96795771D01*
X196530952Y-96795771D02*
X196626190Y-96843390D01*
X196626190Y-96843390D02*
X196673809Y-96891009D01*
X196673809Y-96891009D02*
X196721428Y-96986247D01*
X196721428Y-96986247D02*
X196721428Y-97224342D01*
X196721428Y-97224342D02*
X196673809Y-97319580D01*
X196673809Y-97319580D02*
X196626190Y-97367200D01*
X196626190Y-97367200D02*
X196530952Y-97414819D01*
X196530952Y-97414819D02*
X196245238Y-97414819D01*
X196245238Y-97414819D02*
X196150000Y-97367200D01*
X196150000Y-97367200D02*
X196102381Y-97319580D01*
X197150000Y-97319580D02*
X197197619Y-97367200D01*
X197197619Y-97367200D02*
X197150000Y-97414819D01*
X197150000Y-97414819D02*
X197102381Y-97367200D01*
X197102381Y-97367200D02*
X197150000Y-97319580D01*
X197150000Y-97319580D02*
X197150000Y-97414819D01*
X197530952Y-96414819D02*
X198149999Y-96414819D01*
X198149999Y-96414819D02*
X197816666Y-96795771D01*
X197816666Y-96795771D02*
X197959523Y-96795771D01*
X197959523Y-96795771D02*
X198054761Y-96843390D01*
X198054761Y-96843390D02*
X198102380Y-96891009D01*
X198102380Y-96891009D02*
X198149999Y-96986247D01*
X198149999Y-96986247D02*
X198149999Y-97224342D01*
X198149999Y-97224342D02*
X198102380Y-97319580D01*
X198102380Y-97319580D02*
X198054761Y-97367200D01*
X198054761Y-97367200D02*
X197959523Y-97414819D01*
X197959523Y-97414819D02*
X197673809Y-97414819D01*
X197673809Y-97414819D02*
X197578571Y-97367200D01*
X197578571Y-97367200D02*
X197530952Y-97319580D01*
X201902857Y-68151486D02*
X201569524Y-67675295D01*
X201331429Y-68151486D02*
X201331429Y-67151486D01*
X201331429Y-67151486D02*
X201712381Y-67151486D01*
X201712381Y-67151486D02*
X201807619Y-67199105D01*
X201807619Y-67199105D02*
X201855238Y-67246724D01*
X201855238Y-67246724D02*
X201902857Y-67341962D01*
X201902857Y-67341962D02*
X201902857Y-67484819D01*
X201902857Y-67484819D02*
X201855238Y-67580057D01*
X201855238Y-67580057D02*
X201807619Y-67627676D01*
X201807619Y-67627676D02*
X201712381Y-67675295D01*
X201712381Y-67675295D02*
X201331429Y-67675295D01*
X202855238Y-68151486D02*
X202283810Y-68151486D01*
X202569524Y-68151486D02*
X202569524Y-67151486D01*
X202569524Y-67151486D02*
X202474286Y-67294343D01*
X202474286Y-67294343D02*
X202379048Y-67389581D01*
X202379048Y-67389581D02*
X202283810Y-67437200D01*
X203807619Y-68151486D02*
X203236191Y-68151486D01*
X203521905Y-68151486D02*
X203521905Y-67151486D01*
X203521905Y-67151486D02*
X203426667Y-67294343D01*
X203426667Y-67294343D02*
X203331429Y-67389581D01*
X203331429Y-67389581D02*
X203236191Y-67437200D01*
X204236191Y-68056247D02*
X204283810Y-68103867D01*
X204283810Y-68103867D02*
X204236191Y-68151486D01*
X204236191Y-68151486D02*
X204188572Y-68103867D01*
X204188572Y-68103867D02*
X204236191Y-68056247D01*
X204236191Y-68056247D02*
X204236191Y-68151486D01*
X204617143Y-67151486D02*
X205236190Y-67151486D01*
X205236190Y-67151486D02*
X204902857Y-67532438D01*
X204902857Y-67532438D02*
X205045714Y-67532438D01*
X205045714Y-67532438D02*
X205140952Y-67580057D01*
X205140952Y-67580057D02*
X205188571Y-67627676D01*
X205188571Y-67627676D02*
X205236190Y-67722914D01*
X205236190Y-67722914D02*
X205236190Y-67961009D01*
X205236190Y-67961009D02*
X205188571Y-68056247D01*
X205188571Y-68056247D02*
X205140952Y-68103867D01*
X205140952Y-68103867D02*
X205045714Y-68151486D01*
X205045714Y-68151486D02*
X204760000Y-68151486D01*
X204760000Y-68151486D02*
X204664762Y-68103867D01*
X204664762Y-68103867D02*
X204617143Y-68056247D01*
X176979819Y-71606189D02*
X177789342Y-71606189D01*
X177789342Y-71606189D02*
X177884580Y-71558570D01*
X177884580Y-71558570D02*
X177932200Y-71510951D01*
X177932200Y-71510951D02*
X177979819Y-71415713D01*
X177979819Y-71415713D02*
X177979819Y-71225237D01*
X177979819Y-71225237D02*
X177932200Y-71129999D01*
X177932200Y-71129999D02*
X177884580Y-71082380D01*
X177884580Y-71082380D02*
X177789342Y-71034761D01*
X177789342Y-71034761D02*
X176979819Y-71034761D01*
X176979819Y-70653808D02*
X176979819Y-70034761D01*
X176979819Y-70034761D02*
X177360771Y-70368094D01*
X177360771Y-70368094D02*
X177360771Y-70225237D01*
X177360771Y-70225237D02*
X177408390Y-70129999D01*
X177408390Y-70129999D02*
X177456009Y-70082380D01*
X177456009Y-70082380D02*
X177551247Y-70034761D01*
X177551247Y-70034761D02*
X177789342Y-70034761D01*
X177789342Y-70034761D02*
X177884580Y-70082380D01*
X177884580Y-70082380D02*
X177932200Y-70129999D01*
X177932200Y-70129999D02*
X177979819Y-70225237D01*
X177979819Y-70225237D02*
X177979819Y-70510951D01*
X177979819Y-70510951D02*
X177932200Y-70606189D01*
X177932200Y-70606189D02*
X177884580Y-70653808D01*
X177884580Y-69606189D02*
X177932200Y-69558570D01*
X177932200Y-69558570D02*
X177979819Y-69606189D01*
X177979819Y-69606189D02*
X177932200Y-69653808D01*
X177932200Y-69653808D02*
X177884580Y-69606189D01*
X177884580Y-69606189D02*
X177979819Y-69606189D01*
X177075057Y-69177618D02*
X177027438Y-69129999D01*
X177027438Y-69129999D02*
X176979819Y-69034761D01*
X176979819Y-69034761D02*
X176979819Y-68796666D01*
X176979819Y-68796666D02*
X177027438Y-68701428D01*
X177027438Y-68701428D02*
X177075057Y-68653809D01*
X177075057Y-68653809D02*
X177170295Y-68606190D01*
X177170295Y-68606190D02*
X177265533Y-68606190D01*
X177265533Y-68606190D02*
X177408390Y-68653809D01*
X177408390Y-68653809D02*
X177979819Y-69225237D01*
X177979819Y-69225237D02*
X177979819Y-68606190D01*
X185245357Y-62842580D02*
X185197738Y-62890200D01*
X185197738Y-62890200D02*
X185054881Y-62937819D01*
X185054881Y-62937819D02*
X184959643Y-62937819D01*
X184959643Y-62937819D02*
X184816786Y-62890200D01*
X184816786Y-62890200D02*
X184721548Y-62794961D01*
X184721548Y-62794961D02*
X184673929Y-62699723D01*
X184673929Y-62699723D02*
X184626310Y-62509247D01*
X184626310Y-62509247D02*
X184626310Y-62366390D01*
X184626310Y-62366390D02*
X184673929Y-62175914D01*
X184673929Y-62175914D02*
X184721548Y-62080676D01*
X184721548Y-62080676D02*
X184816786Y-61985438D01*
X184816786Y-61985438D02*
X184959643Y-61937819D01*
X184959643Y-61937819D02*
X185054881Y-61937819D01*
X185054881Y-61937819D02*
X185197738Y-61985438D01*
X185197738Y-61985438D02*
X185245357Y-62033057D01*
X186197738Y-62937819D02*
X185626310Y-62937819D01*
X185912024Y-62937819D02*
X185912024Y-61937819D01*
X185912024Y-61937819D02*
X185816786Y-62080676D01*
X185816786Y-62080676D02*
X185721548Y-62175914D01*
X185721548Y-62175914D02*
X185626310Y-62223533D01*
X187150119Y-62937819D02*
X186578691Y-62937819D01*
X186864405Y-62937819D02*
X186864405Y-61937819D01*
X186864405Y-61937819D02*
X186769167Y-62080676D01*
X186769167Y-62080676D02*
X186673929Y-62175914D01*
X186673929Y-62175914D02*
X186578691Y-62223533D01*
X187578691Y-62842580D02*
X187626310Y-62890200D01*
X187626310Y-62890200D02*
X187578691Y-62937819D01*
X187578691Y-62937819D02*
X187531072Y-62890200D01*
X187531072Y-62890200D02*
X187578691Y-62842580D01*
X187578691Y-62842580D02*
X187578691Y-62937819D01*
X188007262Y-62033057D02*
X188054881Y-61985438D01*
X188054881Y-61985438D02*
X188150119Y-61937819D01*
X188150119Y-61937819D02*
X188388214Y-61937819D01*
X188388214Y-61937819D02*
X188483452Y-61985438D01*
X188483452Y-61985438D02*
X188531071Y-62033057D01*
X188531071Y-62033057D02*
X188578690Y-62128295D01*
X188578690Y-62128295D02*
X188578690Y-62223533D01*
X188578690Y-62223533D02*
X188531071Y-62366390D01*
X188531071Y-62366390D02*
X187959643Y-62937819D01*
X187959643Y-62937819D02*
X188578690Y-62937819D01*
X180002857Y-53674819D02*
X179669524Y-53198628D01*
X179431429Y-53674819D02*
X179431429Y-52674819D01*
X179431429Y-52674819D02*
X179812381Y-52674819D01*
X179812381Y-52674819D02*
X179907619Y-52722438D01*
X179907619Y-52722438D02*
X179955238Y-52770057D01*
X179955238Y-52770057D02*
X180002857Y-52865295D01*
X180002857Y-52865295D02*
X180002857Y-53008152D01*
X180002857Y-53008152D02*
X179955238Y-53103390D01*
X179955238Y-53103390D02*
X179907619Y-53151009D01*
X179907619Y-53151009D02*
X179812381Y-53198628D01*
X179812381Y-53198628D02*
X179431429Y-53198628D01*
X180860000Y-53008152D02*
X180860000Y-53674819D01*
X180621905Y-52627200D02*
X180383810Y-53341485D01*
X180383810Y-53341485D02*
X181002857Y-53341485D01*
X181383810Y-53579580D02*
X181431429Y-53627200D01*
X181431429Y-53627200D02*
X181383810Y-53674819D01*
X181383810Y-53674819D02*
X181336191Y-53627200D01*
X181336191Y-53627200D02*
X181383810Y-53579580D01*
X181383810Y-53579580D02*
X181383810Y-53674819D01*
X182383809Y-53674819D02*
X181812381Y-53674819D01*
X182098095Y-53674819D02*
X182098095Y-52674819D01*
X182098095Y-52674819D02*
X182002857Y-52817676D01*
X182002857Y-52817676D02*
X181907619Y-52912914D01*
X181907619Y-52912914D02*
X181812381Y-52960533D01*
X182764762Y-52770057D02*
X182812381Y-52722438D01*
X182812381Y-52722438D02*
X182907619Y-52674819D01*
X182907619Y-52674819D02*
X183145714Y-52674819D01*
X183145714Y-52674819D02*
X183240952Y-52722438D01*
X183240952Y-52722438D02*
X183288571Y-52770057D01*
X183288571Y-52770057D02*
X183336190Y-52865295D01*
X183336190Y-52865295D02*
X183336190Y-52960533D01*
X183336190Y-52960533D02*
X183288571Y-53103390D01*
X183288571Y-53103390D02*
X182717143Y-53674819D01*
X182717143Y-53674819D02*
X183336190Y-53674819D01*
X211564819Y-88145833D02*
X212279104Y-88145833D01*
X212279104Y-88145833D02*
X212421961Y-88193452D01*
X212421961Y-88193452D02*
X212517200Y-88288690D01*
X212517200Y-88288690D02*
X212564819Y-88431547D01*
X212564819Y-88431547D02*
X212564819Y-88526785D01*
X212564819Y-87145833D02*
X212564819Y-87717261D01*
X212564819Y-87431547D02*
X211564819Y-87431547D01*
X211564819Y-87431547D02*
X211707676Y-87526785D01*
X211707676Y-87526785D02*
X211802914Y-87622023D01*
X211802914Y-87622023D02*
X211850533Y-87717261D01*
X212962857Y-50469819D02*
X212629524Y-49993628D01*
X212391429Y-50469819D02*
X212391429Y-49469819D01*
X212391429Y-49469819D02*
X212772381Y-49469819D01*
X212772381Y-49469819D02*
X212867619Y-49517438D01*
X212867619Y-49517438D02*
X212915238Y-49565057D01*
X212915238Y-49565057D02*
X212962857Y-49660295D01*
X212962857Y-49660295D02*
X212962857Y-49803152D01*
X212962857Y-49803152D02*
X212915238Y-49898390D01*
X212915238Y-49898390D02*
X212867619Y-49946009D01*
X212867619Y-49946009D02*
X212772381Y-49993628D01*
X212772381Y-49993628D02*
X212391429Y-49993628D01*
X213915238Y-50469819D02*
X213343810Y-50469819D01*
X213629524Y-50469819D02*
X213629524Y-49469819D01*
X213629524Y-49469819D02*
X213534286Y-49612676D01*
X213534286Y-49612676D02*
X213439048Y-49707914D01*
X213439048Y-49707914D02*
X213343810Y-49755533D01*
X214343810Y-50374580D02*
X214391429Y-50422200D01*
X214391429Y-50422200D02*
X214343810Y-50469819D01*
X214343810Y-50469819D02*
X214296191Y-50422200D01*
X214296191Y-50422200D02*
X214343810Y-50374580D01*
X214343810Y-50374580D02*
X214343810Y-50469819D01*
X215343809Y-50469819D02*
X214772381Y-50469819D01*
X215058095Y-50469819D02*
X215058095Y-49469819D01*
X215058095Y-49469819D02*
X214962857Y-49612676D01*
X214962857Y-49612676D02*
X214867619Y-49707914D01*
X214867619Y-49707914D02*
X214772381Y-49755533D01*
X216248571Y-49469819D02*
X215772381Y-49469819D01*
X215772381Y-49469819D02*
X215724762Y-49946009D01*
X215724762Y-49946009D02*
X215772381Y-49898390D01*
X215772381Y-49898390D02*
X215867619Y-49850771D01*
X215867619Y-49850771D02*
X216105714Y-49850771D01*
X216105714Y-49850771D02*
X216200952Y-49898390D01*
X216200952Y-49898390D02*
X216248571Y-49946009D01*
X216248571Y-49946009D02*
X216296190Y-50041247D01*
X216296190Y-50041247D02*
X216296190Y-50279342D01*
X216296190Y-50279342D02*
X216248571Y-50374580D01*
X216248571Y-50374580D02*
X216200952Y-50422200D01*
X216200952Y-50422200D02*
X216105714Y-50469819D01*
X216105714Y-50469819D02*
X215867619Y-50469819D01*
X215867619Y-50469819D02*
X215772381Y-50422200D01*
X215772381Y-50422200D02*
X215724762Y-50374580D01*
D13*
%TO.C,R3.2*%
X203270436Y-95485000D02*
X203724564Y-95485000D01*
X203270436Y-96955000D02*
X203724564Y-96955000D01*
%TO.C,R1.11*%
X207412936Y-68788334D02*
X207867064Y-68788334D01*
X207412936Y-70258334D02*
X207867064Y-70258334D01*
%TO.C,R1.6*%
X186692936Y-72045000D02*
X187147064Y-72045000D01*
X186692936Y-73515000D02*
X187147064Y-73515000D01*
%TO.C,R11.6*%
X214032936Y-59848333D02*
X214487064Y-59848333D01*
X214032936Y-61318333D02*
X214487064Y-61318333D01*
%TO.C,led4.2*%
X157147500Y-62800000D02*
X157147500Y-64720000D01*
X157147500Y-64720000D02*
X160007500Y-64720000D01*
X160007500Y-62800000D02*
X157147500Y-62800000D01*
%TO.C,U4.1*%
X150500000Y-66360000D02*
X150500000Y-75760000D01*
X152400000Y-66360000D02*
X150500000Y-66360000D01*
X152400000Y-75760000D02*
X150500000Y-75760000D01*
X156300000Y-66360000D02*
X154300000Y-66360000D01*
X156300000Y-75760000D02*
X154300000Y-75760000D01*
%TO.C,R1.4*%
X207392936Y-76205000D02*
X207847064Y-76205000D01*
X207392936Y-77675000D02*
X207847064Y-77675000D01*
%TO.C,R4.11*%
X181577064Y-59848333D02*
X181122936Y-59848333D01*
X181577064Y-61318333D02*
X181122936Y-61318333D01*
%TO.C,R1.12*%
X207562936Y-65405000D02*
X208017064Y-65405000D01*
X207562936Y-66875000D02*
X208017064Y-66875000D01*
%TO.C,Q1.1*%
X191592500Y-64260000D02*
X190942500Y-64260000D01*
X191592500Y-64260000D02*
X192242500Y-64260000D01*
X191592500Y-67380000D02*
X190942500Y-67380000D01*
X191592500Y-67380000D02*
X192242500Y-67380000D01*
X192995000Y-67660000D02*
X192515000Y-67660000D01*
X192755000Y-67330000D01*
X192995000Y-67660000D01*
G36*
X192995000Y-67660000D02*
G01*
X192515000Y-67660000D01*
X192755000Y-67330000D01*
X192995000Y-67660000D01*
G37*
%TO.C,led4.3*%
X151695000Y-62790000D02*
X151695000Y-64710000D01*
X151695000Y-64710000D02*
X154555000Y-64710000D01*
X154555000Y-62790000D02*
X151695000Y-62790000D01*
%TO.C,R4.14*%
X161425000Y-73352936D02*
X161425000Y-73807064D01*
X162895000Y-73352936D02*
X162895000Y-73807064D01*
%TO.C,C4.1*%
X159253752Y-59878333D02*
X158731248Y-59878333D01*
X159253752Y-61348333D02*
X158731248Y-61348333D01*
%TO.C,R3.7*%
X175738651Y-62980000D02*
X176192779Y-62980000D01*
X175738651Y-64450000D02*
X176192779Y-64450000D01*
D14*
%TO.C,J3*%
X150392500Y-85570000D02*
X164392500Y-85570000D01*
X150392500Y-94570000D02*
X150392500Y-85570000D01*
X159022500Y-94570000D02*
X150392500Y-94570000D01*
X164392500Y-85570000D02*
X164392500Y-87950000D01*
X164392500Y-92190000D02*
X164392500Y-94570000D01*
X164392500Y-94570000D02*
X163262500Y-94570000D01*
D15*
X165742500Y-90070000D02*
G75*
G02*
X165542500Y-90070000I-100000J0D01*
G01*
X165542500Y-90070000D02*
G75*
G02*
X165742500Y-90070000I100000J0D01*
G01*
D13*
%TO.C,R4.6*%
X170084564Y-59848333D02*
X169630436Y-59848333D01*
X170084564Y-61318333D02*
X169630436Y-61318333D01*
D14*
%TO.C,U3.1*%
X180610000Y-91345000D02*
X182210000Y-91345000D01*
X180610000Y-94475000D02*
X182210000Y-94475000D01*
D15*
X179110000Y-91964000D02*
G75*
G02*
X178910000Y-91964000I-100000J0D01*
G01*
X178910000Y-91964000D02*
G75*
G02*
X179110000Y-91964000I100000J0D01*
G01*
D13*
%TO.C,R4.1*%
X153282936Y-51065000D02*
X153737064Y-51065000D01*
X153282936Y-52535000D02*
X153737064Y-52535000D01*
%TO.C,R1.5*%
X186682936Y-68355000D02*
X187137064Y-68355000D01*
X186682936Y-69825000D02*
X187137064Y-69825000D01*
%TO.C,R3.5*%
X203724564Y-88445000D02*
X203270436Y-88445000D01*
X203724564Y-89915000D02*
X203270436Y-89915000D01*
%TO.C,R4.16*%
X153737064Y-59848333D02*
X153282936Y-59848333D01*
X153737064Y-61318333D02*
X153282936Y-61318333D01*
%TO.C,C11.1*%
X187173752Y-65435000D02*
X186651248Y-65435000D01*
X187173752Y-66905000D02*
X186651248Y-66905000D01*
%TO.C,C3.2*%
X175728748Y-88475000D02*
X176251252Y-88475000D01*
X175728748Y-89945000D02*
X176251252Y-89945000D01*
D14*
%TO.C,SET1*%
X210820000Y-70350000D02*
X210820000Y-71200000D01*
X210820000Y-74150000D02*
X210820000Y-73300000D01*
X216820000Y-70350000D02*
X210820000Y-70350000D01*
X216820000Y-71200000D02*
X216820000Y-70350000D01*
X216820000Y-73300000D02*
X216820000Y-74150000D01*
X216820000Y-74150000D02*
X210820000Y-74150000D01*
D15*
X218640000Y-73460000D02*
G75*
G02*
X218440000Y-73460000I-100000J0D01*
G01*
X218440000Y-73460000D02*
G75*
G02*
X218640000Y-73460000I100000J0D01*
G01*
D13*
%TO.C,C3.8*%
X170202320Y-63010000D02*
X170724824Y-63010000D01*
X170202320Y-64480000D02*
X170724824Y-64480000D01*
%TO.C,R2.7*%
X181797064Y-56695000D02*
X181342936Y-56695000D01*
X181797064Y-58165000D02*
X181342936Y-58165000D01*
%TO.C,R3.6*%
X181095436Y-65461667D02*
X181549564Y-65461667D01*
X181095436Y-66931667D02*
X181549564Y-66931667D01*
D14*
%TO.C,UP1*%
X210820000Y-75700000D02*
X210820000Y-76550000D01*
X210820000Y-79500000D02*
X210820000Y-78650000D01*
X216820000Y-75700000D02*
X210820000Y-75700000D01*
X216820000Y-76550000D02*
X216820000Y-75700000D01*
X216820000Y-78650000D02*
X216820000Y-79500000D01*
X216820000Y-79500000D02*
X210820000Y-79500000D01*
D15*
X218640000Y-78810000D02*
G75*
G02*
X218440000Y-78810000I-100000J0D01*
G01*
X218440000Y-78810000D02*
G75*
G02*
X218640000Y-78810000I100000J0D01*
G01*
D14*
%TO.C,U1.1*%
X180490000Y-77835000D02*
X182090000Y-77835000D01*
X180490000Y-80965000D02*
X182090000Y-80965000D01*
D15*
X178990000Y-78200000D02*
G75*
G02*
X178790000Y-78200000I-100000J0D01*
G01*
X178790000Y-78200000D02*
G75*
G02*
X178990000Y-78200000I100000J0D01*
G01*
D14*
%TO.C,RESET1*%
X151400000Y-77780000D02*
X157400000Y-77780000D01*
X151400000Y-78630000D02*
X151400000Y-77780000D01*
X151400000Y-80730000D02*
X151400000Y-81580000D01*
X151400000Y-81580000D02*
X157400000Y-81580000D01*
X157400000Y-77780000D02*
X157400000Y-78630000D01*
X157400000Y-81580000D02*
X157400000Y-80730000D01*
D13*
%TO.C,C3.4*%
X175728748Y-91720000D02*
X176251252Y-91720000D01*
X175728748Y-93190000D02*
X176251252Y-93190000D01*
%TO.C,C1.3*%
X176271252Y-76235000D02*
X175748748Y-76235000D01*
X176271252Y-77705000D02*
X175748748Y-77705000D01*
%TO.C,R1.3*%
X207847064Y-79215000D02*
X207392936Y-79215000D01*
X207847064Y-80685000D02*
X207392936Y-80685000D01*
%TO.C,L3.1*%
X185340000Y-89000000D02*
X185340000Y-90600000D01*
X192560000Y-89000000D02*
X192560000Y-90600000D01*
%TO.C,led3*%
X196707500Y-70578334D02*
X199567500Y-70578334D01*
X199567500Y-68658334D02*
X196707500Y-68658334D01*
X199567500Y-70578334D02*
X199567500Y-68658334D01*
%TO.C,R4.15*%
X207562936Y-88395000D02*
X208017064Y-88395000D01*
X207562936Y-89865000D02*
X208017064Y-89865000D01*
%TO.C,R3.3*%
X176197064Y-95485000D02*
X175742936Y-95485000D01*
X176197064Y-96955000D02*
X175742936Y-96955000D01*
%TO.C,C1.6*%
X194240000Y-76694437D02*
X194240000Y-82450000D01*
X194240000Y-82450000D02*
X196590000Y-82450000D01*
X195304437Y-75630000D02*
X194240000Y-76694437D01*
X195304437Y-75630000D02*
X196590000Y-75630000D01*
X199497500Y-74602500D02*
X199497500Y-75390000D01*
X199891250Y-74996250D02*
X199103750Y-74996250D01*
X199995563Y-75630000D02*
X198710000Y-75630000D01*
X199995563Y-75630000D02*
X201060000Y-76694437D01*
X201060000Y-76694437D02*
X201060000Y-82450000D01*
X201060000Y-82450000D02*
X198710000Y-82450000D01*
D14*
%TO.C,U11*%
X193510000Y-36410000D02*
X209510000Y-36410000D01*
X193510000Y-43910000D02*
X193510000Y-36410000D01*
X193510000Y-59910000D02*
X193510000Y-60410000D01*
X193510000Y-60410000D02*
X195510000Y-60410000D01*
X195510000Y-44170000D02*
X207510000Y-44170000D01*
X195510000Y-59170000D02*
X195510000Y-44170000D01*
X207510000Y-44170000D02*
X207510000Y-59170000D01*
X207510000Y-59170000D02*
X195510000Y-59170000D01*
X209510000Y-36410000D02*
X209510000Y-43910000D01*
X209510000Y-59910000D02*
X209510000Y-60410000D01*
X209510000Y-60410000D02*
X207510000Y-60410000D01*
X192510000Y-44035000D02*
G75*
G02*
X192010000Y-44035000I-250000J0D01*
G01*
X192010000Y-44035000D02*
G75*
G02*
X192510000Y-44035000I250000J0D01*
G01*
D13*
%TO.C,R4.9*%
X153282936Y-53875000D02*
X153737064Y-53875000D01*
X153282936Y-55345000D02*
X153737064Y-55345000D01*
%TO.C,R4.8*%
X187087064Y-51065000D02*
X186632936Y-51065000D01*
X187087064Y-52535000D02*
X186632936Y-52535000D01*
%TO.C,R4.3*%
X153282936Y-56695000D02*
X153737064Y-56695000D01*
X153282936Y-58165000D02*
X153737064Y-58165000D01*
%TO.C,R4.2*%
X158735436Y-53875000D02*
X159189564Y-53875000D01*
X158735436Y-55345000D02*
X159189564Y-55345000D01*
%TO.C,R4.13*%
X161425000Y-67827064D02*
X161425000Y-67372936D01*
X162895000Y-67827064D02*
X162895000Y-67372936D01*
%TO.C,led4.1*%
X162865000Y-62800000D02*
X162865000Y-64720000D01*
X162865000Y-64720000D02*
X165725000Y-64720000D01*
X165725000Y-62800000D02*
X162865000Y-62800000D01*
%TO.C,C1.2*%
X176271252Y-79245000D02*
X175748748Y-79245000D01*
X176271252Y-80715000D02*
X175748748Y-80715000D01*
%TO.C,R11.2*%
X214032936Y-56275000D02*
X214487064Y-56275000D01*
X214032936Y-57745000D02*
X214487064Y-57745000D01*
%TO.C,R3.4*%
X191270436Y-95495000D02*
X191724564Y-95495000D01*
X191270436Y-96965000D02*
X191724564Y-96965000D01*
%TO.C,R1.14*%
X214032936Y-53875000D02*
X214487064Y-53875000D01*
X214032936Y-55345000D02*
X214487064Y-55345000D01*
%TO.C,R4.10*%
X175702936Y-59875000D02*
X176157064Y-59875000D01*
X175702936Y-61345000D02*
X176157064Y-61345000D01*
%TO.C,R1.13*%
X203440436Y-65405000D02*
X203894564Y-65405000D01*
X203440436Y-66875000D02*
X203894564Y-66875000D01*
%TO.C,C11.3*%
X187173752Y-53905000D02*
X186651248Y-53905000D01*
X187173752Y-55375000D02*
X186651248Y-55375000D01*
%TO.C,C1.1*%
X166980000Y-76170000D02*
X169330000Y-76170000D01*
X166980000Y-81925563D02*
X166980000Y-76170000D01*
X168044437Y-82990000D02*
X166980000Y-81925563D01*
X168044437Y-82990000D02*
X169330000Y-82990000D01*
X168148750Y-83623750D02*
X168936250Y-83623750D01*
X168542500Y-84017500D02*
X168542500Y-83230000D01*
X172735563Y-82990000D02*
X171450000Y-82990000D01*
X172735563Y-82990000D02*
X173800000Y-81925563D01*
X173800000Y-76170000D02*
X171450000Y-76170000D01*
X173800000Y-81925563D02*
X173800000Y-76170000D01*
%TO.C,R1.8*%
X181447064Y-68411667D02*
X180992936Y-68411667D01*
X181447064Y-69881667D02*
X180992936Y-69881667D01*
%TO.C,C3.6*%
X181551252Y-95565000D02*
X181028748Y-95565000D01*
X181551252Y-97035000D02*
X181028748Y-97035000D01*
%TO.C,R11.7*%
X186655436Y-59848333D02*
X187109564Y-59848333D01*
X186655436Y-61318333D02*
X187109564Y-61318333D01*
%TO.C,C3.7*%
X186378748Y-95515000D02*
X186901252Y-95515000D01*
X186378748Y-96985000D02*
X186901252Y-96985000D01*
%TO.C,C1.5*%
X181028748Y-82625000D02*
X181551252Y-82625000D01*
X181028748Y-84095000D02*
X181551252Y-84095000D01*
%TO.C,R3.1*%
X203270436Y-91690000D02*
X203724564Y-91690000D01*
X203270436Y-93160000D02*
X203724564Y-93160000D01*
%TO.C,R1.1*%
X203724564Y-76205000D02*
X203270436Y-76205000D01*
X203724564Y-77675000D02*
X203270436Y-77675000D01*
D14*
%TO.C,DOWN1*%
X210810000Y-64810000D02*
X210810000Y-65660000D01*
X210810000Y-68610000D02*
X210810000Y-67760000D01*
X216810000Y-64810000D02*
X210810000Y-64810000D01*
X216810000Y-65660000D02*
X216810000Y-64810000D01*
X216810000Y-67760000D02*
X216810000Y-68610000D01*
X216810000Y-68610000D02*
X210810000Y-68610000D01*
D15*
X218630000Y-67920000D02*
G75*
G02*
X218430000Y-67920000I-100000J0D01*
G01*
X218430000Y-67920000D02*
G75*
G02*
X218630000Y-67920000I100000J0D01*
G01*
D13*
%TO.C,L1.1*%
X185330000Y-78770000D02*
X185330000Y-80370000D01*
X192550000Y-78770000D02*
X192550000Y-80370000D01*
%TO.C,R4.4*%
X181182936Y-51065000D02*
X181637064Y-51065000D01*
X181182936Y-52535000D02*
X181637064Y-52535000D01*
%TO.C,C3.1*%
X167020000Y-89314437D02*
X167020000Y-95070000D01*
X167020000Y-95070000D02*
X169370000Y-95070000D01*
X168084437Y-88250000D02*
X167020000Y-89314437D01*
X168084437Y-88250000D02*
X169370000Y-88250000D01*
X172277500Y-87222500D02*
X172277500Y-88010000D01*
X172671250Y-87616250D02*
X171883750Y-87616250D01*
X172775563Y-88250000D02*
X171490000Y-88250000D01*
X172775563Y-88250000D02*
X173840000Y-89314437D01*
X173840000Y-89314437D02*
X173840000Y-95070000D01*
X173840000Y-95070000D02*
X171490000Y-95070000D01*
%TO.C,R4.7*%
X164667064Y-59848333D02*
X164212936Y-59848333D01*
X164667064Y-61318333D02*
X164212936Y-61318333D01*
%TO.C,R1.2*%
X203724564Y-79215000D02*
X203270436Y-79215000D01*
X203724564Y-80685000D02*
X203270436Y-80685000D01*
%TO.C,D4*%
X160650000Y-83147500D02*
X160650000Y-77637500D01*
X160650000Y-83147500D02*
X163950000Y-83147500D01*
X163950000Y-83147500D02*
X163950000Y-77637500D01*
%TO.C,C4.2*%
X159253752Y-56725000D02*
X158731248Y-56725000D01*
X159253752Y-58195000D02*
X158731248Y-58195000D01*
%TO.C,R11.5*%
X187109564Y-56695000D02*
X186655436Y-56695000D01*
X187109564Y-58165000D02*
X186655436Y-58165000D01*
%TO.C,R1.7*%
X181597064Y-62945000D02*
X181142936Y-62945000D01*
X181597064Y-64415000D02*
X181142936Y-64415000D01*
%TO.C,U4*%
X163180000Y-33658800D02*
X163180000Y-43658800D01*
X163180000Y-33658800D02*
X176680000Y-33658800D01*
X163180000Y-57158800D02*
X163180000Y-55408800D01*
X163930000Y-57158800D02*
X163180000Y-57158800D01*
X175930000Y-57158800D02*
X176680000Y-57158800D01*
X176680000Y-33658800D02*
X176680000Y-43658800D01*
X176680000Y-57158800D02*
X176680000Y-55408800D01*
X162830000Y-43658800D02*
X162330000Y-43658800D01*
X162830000Y-43158800D01*
X162830000Y-43658800D01*
G36*
X162830000Y-43658800D02*
G01*
X162330000Y-43658800D01*
X162830000Y-43158800D01*
X162830000Y-43658800D01*
G37*
%TO.C,C1.4*%
X176271252Y-82535000D02*
X175748748Y-82535000D01*
X176271252Y-84005000D02*
X175748748Y-84005000D01*
%TO.C,led4*%
X205975000Y-91460000D02*
X205975000Y-93380000D01*
X205975000Y-93380000D02*
X208835000Y-93380000D01*
X208835000Y-91460000D02*
X205975000Y-91460000D01*
%TO.C,C3.9*%
X181671252Y-72005000D02*
X181148748Y-72005000D01*
X181671252Y-73475000D02*
X181148748Y-73475000D01*
%TO.C,R11.1*%
X198127064Y-65455000D02*
X197672936Y-65455000D01*
X198127064Y-66925000D02*
X197672936Y-66925000D01*
%TO.C,Q1.2*%
X191462500Y-69800000D02*
X190812500Y-69800000D01*
X191462500Y-69800000D02*
X192112500Y-69800000D01*
X191462500Y-72920000D02*
X190812500Y-72920000D01*
X191462500Y-72920000D02*
X192112500Y-72920000D01*
X192865000Y-73200000D02*
X192385000Y-73200000D01*
X192625000Y-72870000D01*
X192865000Y-73200000D01*
G36*
X192865000Y-73200000D02*
G01*
X192385000Y-73200000D01*
X192625000Y-72870000D01*
X192865000Y-73200000D01*
G37*
%TO.C,C3.5*%
X181028748Y-88525000D02*
X181551252Y-88525000D01*
X181028748Y-89995000D02*
X181551252Y-89995000D01*
%TO.C,C3.3*%
X194220000Y-89244437D02*
X194220000Y-95000000D01*
X194220000Y-95000000D02*
X196570000Y-95000000D01*
X195284437Y-88180000D02*
X194220000Y-89244437D01*
X195284437Y-88180000D02*
X196570000Y-88180000D01*
X199477500Y-87152500D02*
X199477500Y-87940000D01*
X199871250Y-87546250D02*
X199083750Y-87546250D01*
X199975563Y-88180000D02*
X198690000Y-88180000D01*
X199975563Y-88180000D02*
X201040000Y-89244437D01*
X201040000Y-89244437D02*
X201040000Y-95000000D01*
X201040000Y-95000000D02*
X198690000Y-95000000D01*
%TO.C,R11.3*%
X203290436Y-68788334D02*
X203744564Y-68788334D01*
X203290436Y-70258334D02*
X203744564Y-70258334D01*
%TO.C,U3.2*%
X166565000Y-70130000D02*
X166565000Y-68180000D01*
X166565000Y-70130000D02*
X166565000Y-72080000D01*
X176685000Y-70130000D02*
X176685000Y-68180000D01*
X176685000Y-70130000D02*
X176685000Y-72080000D01*
X176960000Y-67670000D02*
X176630000Y-67430000D01*
X176960000Y-67190000D01*
X176960000Y-67670000D01*
G36*
X176960000Y-67670000D02*
G01*
X176630000Y-67430000D01*
X176960000Y-67190000D01*
X176960000Y-67670000D01*
G37*
%TO.C,C11.2*%
X187173752Y-63010000D02*
X186651248Y-63010000D01*
X187173752Y-64480000D02*
X186651248Y-64480000D01*
%TO.C,R4.12*%
X181667064Y-53875000D02*
X181212936Y-53875000D01*
X181667064Y-55345000D02*
X181212936Y-55345000D01*
D15*
%TO.C,J1*%
X212910000Y-82962500D02*
X215450000Y-82962500D01*
X212910000Y-93122500D02*
X212910000Y-82962500D01*
X215450000Y-93122500D02*
X212910000Y-93122500D01*
X215450000Y-93122500D02*
X215450000Y-82962500D01*
X214280000Y-93772500D02*
G75*
G02*
X214080000Y-93772500I-100000J0D01*
G01*
X214080000Y-93772500D02*
G75*
G02*
X214280000Y-93772500I100000J0D01*
G01*
D13*
%TO.C,R1.15*%
X214032936Y-50790000D02*
X214487064Y-50790000D01*
X214032936Y-52260000D02*
X214487064Y-52260000D01*
%TD*%
M02*
