M48
; DRILL file {KiCad 9.0.0} date 2025-07-17T22:10:20+0700
; FORMAT={3:3/ absolute / metric / suppress leading zeros}
; #@! TF.CreationDate,2025-07-17T22:10:20+07:00
; #@! TF.GenerationSoftware,Kicad,Pcbnew,9.0.0
; #@! TF.FileFunction,Plated,1,2,PTH
FMAT,2
METRIC,TZ
; #@! TA.AperFunction,Plated,PTH,ViaDrill
T1C0.300
; #@! TA.AperFunction,Plated,PTH,ComponentDrill
T2C0.600
; #@! TA.AperFunction,Plated,PTH,ComponentDrill
T3C0.800
; #@! TA.AperFunction,Plated,PTH,ComponentDrill
T4C1.000
; #@! TA.AperFunction,Plated,PTH,ComponentDrill
T5C1.020
%
G90
G05
T1
X152520Y-54480
X156520Y-79880
X157955Y-57580
X157955Y-60613
X160030Y-60370
X171501Y-63745
X180155Y-91960
X180250Y-83270
X182190Y-69310
X182370Y-63680
X182410Y-51800
X182445Y-78450
X182665Y-93860
X183030Y-48550
X183310Y-61870
X183990Y-69850
X184030Y-62530
X185883Y-57430
X187880Y-67710
X187950Y-54640
X188190Y-60480
X189500Y-61850
X190420Y-51860
X190655Y-65820
X194010Y-44910
X194010Y-48990
X194250Y-65580
X194370Y-83330
X202550Y-79910
X204430Y-96310
X204540Y-66060
X208660Y-69700
X208900Y-66040
X209010Y-46910
X209010Y-56910
X209020Y-54920
X209050Y-52860
X209109Y-45015
X211180Y-77800
X211550Y-66600
X213120Y-51525
X213290Y-54630
X216860Y-59720
T4
X170390Y-76830
X170390Y-82280
X170430Y-88960
X170430Y-94360
X197630Y-88840
X197630Y-94290
X197650Y-76340
X197650Y-81790
T5
X214180Y-84233
X214180Y-86773
X214180Y-89313
X214180Y-91852
T2
G00X153650Y-66740
M15
G01X153050Y-66740
M16
G05
G00X153650Y-75380
M15
G01X153050Y-75380
M16
G05
G00X158080Y-66740
M15
G01X156980Y-66740
M16
G05
G00X158080Y-75380
M15
G01X156980Y-75380
M16
G05
T3
G00X157892Y-88970
M15
G01X157892Y-91170
M16
G05
G00X162243Y-94870
M15
G01X160043Y-94870
M16
G05
G00X164093Y-88970
M15
G01X164093Y-91170
M16
G05
M30
