M48
; DRILL file {KiCad 9.0.2} date 2025-07-09T14:42:09+0700
; FORMAT={-:-/ absolute / metric / decimal}
; #@! TF.CreationDate,2025-07-09T14:42:09+07:00
; #@! TF.GenerationSoftware,Kicad,Pcbnew,9.0.2
; #@! TF.FileFunction,Plated,1,2,PTH
FMAT,2
METRIC
; #@! TA.AperFunction,Plated,PTH,ViaDrill
T1C0.300
; #@! TA.AperFunction,Plated,PTH,ComponentDrill
T2C0.600
; #@! TA.AperFunction,Plated,PTH,ComponentDrill
T3C0.650
; #@! TA.AperFunction,Plated,PTH,ComponentDrill
T4C1.000
; #@! TA.AperFunction,Plated,PTH,ComponentDrill
T5C1.020
%
G90
G05
T1
X141.64Y-114.47
X142.76Y-108.0
X142.82Y-118.27
X142.86Y-113.02
X143.0Y-90.38
X143.0Y-96.45
X144.15Y-89.29
X144.15Y-98.37
X145.14Y-88.86
X145.8Y-80.38
X146.73Y-88.61
X148.56Y-105.155
X148.56Y-110.26
X149.25Y-72.11
X150.33Y-88.7
X151.14Y-70.37
X151.14Y-75.325
X151.34Y-66.13
X151.63Y-62.3
X152.48Y-102.9
X152.96Y-72.11
X152.96Y-75.54
X153.31Y-78.18
X156.12Y-75.54
X156.14Y-95.6
X157.99Y-95.33
X158.77Y-106.67
X158.79Y-102.55
X163.06Y-110.57
X165.84Y-95.55
X168.2Y-114.38
X169.657Y-94.46
X171.14Y-107.22
X171.14Y-111.31
X171.29Y-114.43
X172.16Y-92.38
X173.63Y-95.55
X174.52Y-84.12
X178.06Y-98.91
X178.06Y-101.87
X179.35Y-74.2
X179.43Y-62.16
X180.025Y-75.215
X180.19Y-58.02
X180.2Y-60.7
X180.28Y-97.25
X180.94Y-61.39
X181.416Y-102.97
X181.597Y-100.33
X181.65Y-60.77
X183.74Y-67.01
X184.052Y-92.15
X184.052Y-96.69
X184.56Y-68.33
X185.213Y-60.42
X185.39Y-64.37
X186.11Y-100.3
X186.12Y-103.621
X186.127Y-93.75
X186.29Y-63.64
X186.39Y-67.66
X186.79Y-72.52
X187.31Y-98.88
X187.52Y-92.18
X188.75Y-71.61
X188.76Y-57.08
X188.76Y-78.83
X189.92Y-100.3
X190.827Y-67.37
X191.81Y-107.65
X192.7Y-103.91
X194.65Y-107.65
T3
X154.12Y-54.83
X154.12Y-56.1
X154.12Y-57.37
X154.12Y-61.18
X154.12Y-63.72
X154.12Y-64.99
X154.12Y-66.26
X154.12Y-67.53
X154.12Y-70.07
X160.71Y-75.92
X161.98Y-75.92
X170.87Y-75.92
X172.14Y-75.92
X178.32Y-54.86
X178.32Y-56.13
X178.32Y-57.4
X178.32Y-58.67
X178.32Y-59.94
X178.32Y-61.21
X178.32Y-63.75
X178.32Y-65.02
X178.32Y-66.29
X178.32Y-68.83
X178.32Y-70.1
X178.32Y-71.37
T4
X138.78Y-56.1
X138.78Y-58.6
X138.78Y-61.1
X138.78Y-67.53
X138.78Y-70.03
X138.78Y-72.53
X138.78Y-75.03
X138.78Y-81.233
X138.78Y-83.772
X138.78Y-86.312
X138.78Y-88.852
X138.78Y-91.392
X138.78Y-98.04
X138.78Y-100.54
X138.78Y-103.04
X138.78Y-105.54
X138.78Y-108.04
X184.08Y-52.91
X186.58Y-52.91
X189.08Y-52.91
X191.58Y-52.91
T5
X155.922Y-81.5
X155.922Y-84.04
X158.463Y-81.5
X158.463Y-84.04
X161.002Y-81.5
X161.002Y-84.04
X163.542Y-81.5
X163.542Y-84.04
X166.082Y-81.5
X166.082Y-84.04
X168.623Y-81.5
X168.623Y-84.04
X171.162Y-81.5
X171.162Y-84.04
X194.82Y-72.86
X194.82Y-75.4
X194.82Y-77.94
X194.82Y-80.48
X194.82Y-94.48
X194.82Y-97.02
X194.82Y-99.56
T2
G00X150.78Y-114.13
M15
G01X150.78Y-115.23
M16
G05
G00X150.78Y-118.56
M15
G01X150.78Y-119.16
M16
G05
G00X159.42Y-114.13
M15
G01X159.42Y-115.23
M16
G05
G00X159.42Y-118.56
M15
G01X159.42Y-119.16
M16
G05
M30
