%TF.GenerationSoftware,KiCad,Pcbnew,9.0.2*%
%TF.CreationDate,2025-07-09T14:42:13+07:00*%
%TF.ProjectId,ControlSignalBoard,436f6e74-726f-46c5-9369-676e616c426f,rev?*%
%TF.SameCoordinates,Original*%
%TF.FileFunction,Soldermask,Bot*%
%TF.FilePolarity,Negative*%
%FSLAX46Y46*%
G04 Gerber Fmt 4.6, Leading zero omitted, Abs format (unit mm)*
G04 Created by KiCad (PCBNEW 9.0.2) date 2025-07-09 14:42:13*
%MOMM*%
%LPD*%
G01*
G04 APERTURE LIST*
G04 Aperture macros list*
%AMRoundRect*
0 Rectangle with rounded corners*
0 $1 Rounding radius*
0 $2 $3 $4 $5 $6 $7 $8 $9 X,Y pos of 4 corners*
0 Add a 4 corners polygon primitive as box body*
4,1,4,$2,$3,$4,$5,$6,$7,$8,$9,$2,$3,0*
0 Add four circle primitives for the rounded corners*
1,1,$1+$1,$2,$3*
1,1,$1+$1,$4,$5*
1,1,$1+$1,$6,$7*
1,1,$1+$1,$8,$9*
0 Add four rect primitives between the rounded corners*
20,1,$1+$1,$2,$3,$4,$5,0*
20,1,$1+$1,$4,$5,$6,$7,0*
20,1,$1+$1,$6,$7,$8,$9,0*
20,1,$1+$1,$8,$9,$2,$3,0*%
%AMFreePoly0*
4,1,159,0.052508,1.100660,0.139415,1.093057,0.148238,1.091895,0.234152,1.076746,0.242840,1.074820,0.327106,1.052241,0.335592,1.049566,0.417569,1.019729,0.425790,1.016323,0.504856,0.979454,0.512750,0.975345,0.588301,0.931725,0.595805,0.926944,0.667266,0.876906,0.674325,0.871490,0.741154,0.815414,0.747715,0.809402,0.809402,0.747715,0.815414,0.741154,0.871490,0.674325,
0.876906,0.667266,0.926944,0.595805,0.931725,0.588301,0.975345,0.512750,0.979454,0.504856,1.016323,0.425790,1.019729,0.417569,1.049566,0.335592,1.052241,0.327106,1.074820,0.242840,1.076746,0.234152,1.091895,0.148238,1.093057,0.139415,1.100660,0.052508,1.101048,0.043619,1.101048,-0.043619,1.100660,-0.052508,1.093057,-0.139415,1.091895,-0.148238,1.076746,-0.234152,
1.074820,-0.242840,1.052241,-0.327106,1.049566,-0.335592,1.019729,-0.417569,1.016323,-0.425790,0.979454,-0.504856,0.975345,-0.512750,0.931725,-0.588301,0.926944,-0.595805,0.876906,-0.667266,0.871490,-0.674325,0.815414,-0.741154,0.809402,-0.747715,0.747715,-0.809402,0.741154,-0.815414,0.674325,-0.871490,0.667266,-0.876906,0.595805,-0.926944,0.588301,-0.931725,0.512750,-0.975345,
0.504856,-0.979454,0.425790,-1.016323,0.417569,-1.019729,0.335592,-1.049566,0.327106,-1.052241,0.242840,-1.074820,0.234152,-1.076746,0.172000,-1.087705,0.172000,-1.530000,0.167868,-1.558737,0.164242,-1.569019,0.162778,-1.572555,0.147968,-1.597525,0.126722,-1.617312,0.107555,-1.627778,0.104019,-1.629242,0.075887,-1.636417,0.065000,-1.637000,-0.065000,-1.637000,-0.093737,-1.632868,
-0.104019,-1.629242,-0.107555,-1.627778,-0.132525,-1.612968,-0.152312,-1.591722,-0.162778,-1.572555,-0.164242,-1.569019,-0.171417,-1.540887,-0.172000,-1.530000,-0.172000,-1.087705,-0.234152,-1.076746,-0.242840,-1.074820,-0.327106,-1.052241,-0.335592,-1.049566,-0.417569,-1.019729,-0.425790,-1.016323,-0.504856,-0.979454,-0.512750,-0.975345,-0.588301,-0.931725,-0.595805,-0.926944,-0.667266,-0.876906,
-0.674325,-0.871490,-0.741154,-0.815414,-0.747715,-0.809402,-0.809402,-0.747715,-0.815414,-0.741154,-0.871490,-0.674325,-0.876906,-0.667266,-0.926944,-0.595805,-0.931725,-0.588301,-0.975345,-0.512750,-0.979454,-0.504856,-1.016323,-0.425790,-1.019729,-0.417569,-1.049566,-0.335592,-1.052241,-0.327106,-1.074820,-0.242840,-1.076746,-0.234152,-1.091895,-0.148238,-1.093057,-0.139415,-1.100660,-0.052508,
-1.101048,-0.043619,-1.101048,0.043619,-1.100660,0.052508,-1.093057,0.139415,-1.091895,0.148238,-1.076746,0.234152,-1.074820,0.242840,-1.052241,0.327106,-1.049566,0.335592,-1.019729,0.417569,-1.016323,0.425790,-0.979454,0.504856,-0.975345,0.512750,-0.931725,0.588301,-0.926944,0.595805,-0.876906,0.667266,-0.871490,0.674325,-0.815414,0.741154,-0.809402,0.747715,-0.747715,0.809402,
-0.741154,0.815414,-0.674325,0.871490,-0.667266,0.876906,-0.595805,0.926944,-0.588301,0.931725,-0.512750,0.975345,-0.504856,0.979454,-0.425790,1.016323,-0.417569,1.019729,-0.335592,1.049566,-0.327106,1.052241,-0.242840,1.074820,-0.234152,1.076746,-0.148238,1.091895,-0.139415,1.093057,-0.052508,1.100660,-0.043619,1.101048,0.043619,1.101048,0.052508,1.100660,0.052508,1.100660,
$1*%
%AMFreePoly1*
4,1,159,0.093737,1.632868,0.104019,1.629242,0.107555,1.627778,0.132525,1.612968,0.152312,1.591722,0.162778,1.572555,0.164242,1.569019,0.171417,1.540887,0.172000,1.530000,0.172000,1.087705,0.234152,1.076746,0.242840,1.074820,0.327106,1.052241,0.335592,1.049566,0.417569,1.019729,0.425790,1.016323,0.504856,0.979454,0.512750,0.975345,0.588301,0.931725,0.595805,0.926944,
0.667266,0.876906,0.674325,0.871490,0.741154,0.815414,0.747715,0.809402,0.809402,0.747715,0.815414,0.741154,0.871490,0.674325,0.876906,0.667266,0.926944,0.595805,0.931725,0.588301,0.975345,0.512750,0.979454,0.504856,1.016323,0.425790,1.019729,0.417569,1.049566,0.335592,1.052241,0.327106,1.074820,0.242840,1.076746,0.234152,1.091895,0.148238,1.093057,0.139415,
1.100660,0.052508,1.101048,0.043619,1.101048,-0.043619,1.100660,-0.052508,1.093057,-0.139415,1.091895,-0.148238,1.076746,-0.234152,1.074820,-0.242840,1.052241,-0.327106,1.049566,-0.335592,1.019729,-0.417569,1.016323,-0.425790,0.979454,-0.504856,0.975345,-0.512750,0.931725,-0.588301,0.926944,-0.595805,0.876906,-0.667266,0.871490,-0.674325,0.815414,-0.741154,0.809402,-0.747715,
0.747715,-0.809402,0.741154,-0.815414,0.674325,-0.871490,0.667266,-0.876906,0.595805,-0.926944,0.588301,-0.931725,0.512750,-0.975345,0.504856,-0.979454,0.425790,-1.016323,0.417569,-1.019729,0.335592,-1.049566,0.327106,-1.052241,0.242840,-1.074820,0.234152,-1.076746,0.148238,-1.091895,0.139415,-1.093057,0.052508,-1.100660,0.043619,-1.101048,-0.043619,-1.101048,-0.052508,-1.100660,
-0.139415,-1.093057,-0.148238,-1.091895,-0.234152,-1.076746,-0.242840,-1.074820,-0.327106,-1.052241,-0.335592,-1.049566,-0.417569,-1.019729,-0.425790,-1.016323,-0.504856,-0.979454,-0.512750,-0.975345,-0.588301,-0.931725,-0.595805,-0.926944,-0.667266,-0.876906,-0.674325,-0.871490,-0.741154,-0.815414,-0.747715,-0.809402,-0.809402,-0.747715,-0.815414,-0.741154,-0.871490,-0.674325,-0.876906,-0.667266,
-0.926944,-0.595805,-0.931725,-0.588301,-0.975345,-0.512750,-0.979454,-0.504856,-1.016323,-0.425790,-1.019729,-0.417569,-1.049566,-0.335592,-1.052241,-0.327106,-1.074820,-0.242840,-1.076746,-0.234152,-1.091895,-0.148238,-1.093057,-0.139415,-1.100660,-0.052508,-1.101048,-0.043619,-1.101048,0.043619,-1.100660,0.052508,-1.093057,0.139415,-1.091895,0.148238,-1.076746,0.234152,-1.074820,0.242840,
-1.052241,0.327106,-1.049566,0.335592,-1.019729,0.417569,-1.016323,0.425790,-0.979454,0.504856,-0.975345,0.512750,-0.931725,0.588301,-0.926944,0.595805,-0.876906,0.667266,-0.871490,0.674325,-0.815414,0.741154,-0.809402,0.747715,-0.747715,0.809402,-0.741154,0.815414,-0.674325,0.871490,-0.667266,0.876906,-0.595805,0.926944,-0.588301,0.931725,-0.512750,0.975345,-0.504856,0.979454,
-0.425790,1.016323,-0.417569,1.019729,-0.335592,1.049566,-0.327106,1.052241,-0.242840,1.074820,-0.234152,1.076746,-0.172000,1.087705,-0.172000,1.530000,-0.167868,1.558737,-0.164242,1.569019,-0.162778,1.572555,-0.147968,1.597525,-0.126722,1.617312,-0.107555,1.627778,-0.104019,1.629242,-0.075887,1.636417,-0.065000,1.637000,0.065000,1.637000,0.093737,1.632868,0.093737,1.632868,
$1*%
G04 Aperture macros list end*
%ADD10RoundRect,0.102000X-1.250000X0.754000X-1.250000X-0.754000X1.250000X-0.754000X1.250000X0.754000X0*%
%ADD11O,2.704000X1.712000*%
%ADD12O,2.704000X1.704000*%
%ADD13FreePoly0,180.000000*%
%ADD14FreePoly1,180.000000*%
%ADD15C,0.650000*%
%ADD16O,1.500000X2.200000*%
%ADD17O,1.500000X2.500000*%
%ADD18C,1.000000*%
%ADD19RoundRect,0.102000X0.754000X1.250000X-0.754000X1.250000X-0.754000X-1.250000X0.754000X-1.250000X0*%
%ADD20O,1.712000X2.704000*%
%ADD21R,2.000000X1.000000*%
%ADD22O,2.000000X1.000000*%
%ADD23R,1.000000X2.000000*%
%ADD24O,1.000000X2.000000*%
%ADD25RoundRect,0.102000X0.685000X-0.685000X0.685000X0.685000X-0.685000X0.685000X-0.685000X-0.685000X0*%
%ADD26C,1.574000*%
%ADD27R,2.500000X1.500000*%
%ADD28O,2.500000X1.500000*%
%ADD29RoundRect,0.102000X-0.685000X0.685000X-0.685000X-0.685000X0.685000X-0.685000X0.685000X0.685000X0*%
G04 APERTURE END LIST*
D10*
%TO.C,J5.2*%
X138780000Y-108040000D03*
D11*
X138780000Y-105540000D03*
X138780000Y-103040000D03*
D12*
X138780000Y-100540000D03*
X138780000Y-98040000D03*
%TD*%
D13*
%TO.C,LCD+nutnhan1*%
X171162500Y-81500000D03*
D14*
X171162500Y-84040000D03*
D13*
X168622500Y-81500000D03*
D14*
X168622500Y-84040000D03*
D13*
X166082500Y-81500000D03*
D14*
X166082500Y-84040000D03*
D13*
X163542500Y-81500000D03*
D14*
X163542500Y-84040000D03*
D13*
X161002500Y-81500000D03*
D14*
X161002500Y-84040000D03*
D13*
X158462500Y-81500000D03*
D14*
X158462500Y-84040000D03*
D13*
X155922500Y-81500000D03*
D14*
X155922500Y-84040000D03*
%TD*%
D15*
%TO.C,U1.1*%
X152210000Y-115210000D03*
X157990000Y-115210000D03*
D16*
X150780000Y-114680000D03*
D17*
X150780000Y-118860000D03*
D16*
X159420000Y-114680000D03*
D17*
X159420000Y-118860000D03*
%TD*%
D10*
%TO.C,J5.3*%
X138780000Y-61100000D03*
D11*
X138780000Y-58600000D03*
X138780000Y-56100000D03*
%TD*%
D18*
%TO.C,SDCARD1*%
X177130000Y-117600000D03*
X185130000Y-117600000D03*
%TD*%
D10*
%TO.C,J5.1*%
X138780000Y-75030000D03*
D11*
X138780000Y-72530000D03*
X138780000Y-70030000D03*
X138780000Y-67530000D03*
%TD*%
D19*
%TO.C,J6.1*%
X184080000Y-52910000D03*
D20*
X186580000Y-52910000D03*
X189080000Y-52910000D03*
X191580000Y-52910000D03*
%TD*%
D21*
%TO.C,J2.1*%
X154120000Y-54830000D03*
D22*
X154120000Y-56100000D03*
X154120000Y-57370000D03*
X154120000Y-61180000D03*
X154120000Y-63720000D03*
X154120000Y-64990000D03*
X154120000Y-66260000D03*
X154120000Y-67530000D03*
X154120000Y-70070000D03*
D23*
X160710000Y-75920000D03*
D24*
X161980000Y-75920000D03*
X170870000Y-75920000D03*
X172140000Y-75920000D03*
D22*
X178320000Y-71370000D03*
X178320000Y-70100000D03*
X178320000Y-68830000D03*
X178320000Y-66290000D03*
X178320000Y-65020000D03*
X178320000Y-63750000D03*
X178320000Y-61210000D03*
X178320000Y-59940000D03*
X178320000Y-58670000D03*
X178320000Y-57400000D03*
X178320000Y-56130000D03*
D21*
X178320000Y-54860000D03*
%TD*%
D25*
%TO.C,J7.1*%
X194820000Y-72860000D03*
D26*
X194820000Y-75400000D03*
X194820000Y-77940000D03*
X194820000Y-80480000D03*
%TD*%
D27*
%TO.C,J8.1*%
X138780000Y-91392500D03*
D28*
X138780000Y-88852500D03*
X138780000Y-86312500D03*
X138780000Y-83772500D03*
X138780000Y-81232500D03*
%TD*%
D29*
%TO.C,J9.1*%
X194820000Y-99560000D03*
D26*
X194820000Y-97020000D03*
X194820000Y-94480000D03*
%TD*%
M02*
