%TF.GenerationSoftware,KiCad,Pcbnew,9.0.2*%
%TF.CreationDate,2025-07-09T14:42:13+07:00*%
%TF.ProjectId,ControlSignalBoard,436f6e74-726f-46c5-9369-676e616c426f,rev?*%
%TF.SameCoordinates,Original*%
%TF.FileFunction,Soldermask,Top*%
%TF.FilePolarity,Negative*%
%FSLAX46Y46*%
G04 Gerber Fmt 4.6, Leading zero omitted, Abs format (unit mm)*
G04 Created by KiCad (PCBNEW 9.0.2) date 2025-07-09 14:42:13*
%MOMM*%
%LPD*%
G01*
G04 APERTURE LIST*
G04 Aperture macros list*
%AMRoundRect*
0 Rectangle with rounded corners*
0 $1 Rounding radius*
0 $2 $3 $4 $5 $6 $7 $8 $9 X,Y pos of 4 corners*
0 Add a 4 corners polygon primitive as box body*
4,1,4,$2,$3,$4,$5,$6,$7,$8,$9,$2,$3,0*
0 Add four circle primitives for the rounded corners*
1,1,$1+$1,$2,$3*
1,1,$1+$1,$4,$5*
1,1,$1+$1,$6,$7*
1,1,$1+$1,$8,$9*
0 Add four rect primitives between the rounded corners*
20,1,$1+$1,$2,$3,$4,$5,0*
20,1,$1+$1,$4,$5,$6,$7,0*
20,1,$1+$1,$6,$7,$8,$9,0*
20,1,$1+$1,$8,$9,$2,$3,0*%
%AMFreePoly0*
4,1,159,0.052508,1.100660,0.139415,1.093057,0.148238,1.091895,0.234152,1.076746,0.242840,1.074820,0.327106,1.052241,0.335592,1.049566,0.417569,1.019729,0.425790,1.016323,0.504856,0.979454,0.512750,0.975345,0.588301,0.931725,0.595805,0.926944,0.667266,0.876906,0.674325,0.871490,0.741154,0.815414,0.747715,0.809402,0.809402,0.747715,0.815414,0.741154,0.871490,0.674325,
0.876906,0.667266,0.926944,0.595805,0.931725,0.588301,0.975345,0.512750,0.979454,0.504856,1.016323,0.425790,1.019729,0.417569,1.049566,0.335592,1.052241,0.327106,1.074820,0.242840,1.076746,0.234152,1.091895,0.148238,1.093057,0.139415,1.100660,0.052508,1.101048,0.043619,1.101048,-0.043619,1.100660,-0.052508,1.093057,-0.139415,1.091895,-0.148238,1.076746,-0.234152,
1.074820,-0.242840,1.052241,-0.327106,1.049566,-0.335592,1.019729,-0.417569,1.016323,-0.425790,0.979454,-0.504856,0.975345,-0.512750,0.931725,-0.588301,0.926944,-0.595805,0.876906,-0.667266,0.871490,-0.674325,0.815414,-0.741154,0.809402,-0.747715,0.747715,-0.809402,0.741154,-0.815414,0.674325,-0.871490,0.667266,-0.876906,0.595805,-0.926944,0.588301,-0.931725,0.512750,-0.975345,
0.504856,-0.979454,0.425790,-1.016323,0.417569,-1.019729,0.335592,-1.049566,0.327106,-1.052241,0.242840,-1.074820,0.234152,-1.076746,0.172000,-1.087705,0.172000,-1.530000,0.167868,-1.558737,0.164242,-1.569019,0.162778,-1.572555,0.147968,-1.597525,0.126722,-1.617312,0.107555,-1.627778,0.104019,-1.629242,0.075887,-1.636417,0.065000,-1.637000,-0.065000,-1.637000,-0.093737,-1.632868,
-0.104019,-1.629242,-0.107555,-1.627778,-0.132525,-1.612968,-0.152312,-1.591722,-0.162778,-1.572555,-0.164242,-1.569019,-0.171417,-1.540887,-0.172000,-1.530000,-0.172000,-1.087705,-0.234152,-1.076746,-0.242840,-1.074820,-0.327106,-1.052241,-0.335592,-1.049566,-0.417569,-1.019729,-0.425790,-1.016323,-0.504856,-0.979454,-0.512750,-0.975345,-0.588301,-0.931725,-0.595805,-0.926944,-0.667266,-0.876906,
-0.674325,-0.871490,-0.741154,-0.815414,-0.747715,-0.809402,-0.809402,-0.747715,-0.815414,-0.741154,-0.871490,-0.674325,-0.876906,-0.667266,-0.926944,-0.595805,-0.931725,-0.588301,-0.975345,-0.512750,-0.979454,-0.504856,-1.016323,-0.425790,-1.019729,-0.417569,-1.049566,-0.335592,-1.052241,-0.327106,-1.074820,-0.242840,-1.076746,-0.234152,-1.091895,-0.148238,-1.093057,-0.139415,-1.100660,-0.052508,
-1.101048,-0.043619,-1.101048,0.043619,-1.100660,0.052508,-1.093057,0.139415,-1.091895,0.148238,-1.076746,0.234152,-1.074820,0.242840,-1.052241,0.327106,-1.049566,0.335592,-1.019729,0.417569,-1.016323,0.425790,-0.979454,0.504856,-0.975345,0.512750,-0.931725,0.588301,-0.926944,0.595805,-0.876906,0.667266,-0.871490,0.674325,-0.815414,0.741154,-0.809402,0.747715,-0.747715,0.809402,
-0.741154,0.815414,-0.674325,0.871490,-0.667266,0.876906,-0.595805,0.926944,-0.588301,0.931725,-0.512750,0.975345,-0.504856,0.979454,-0.425790,1.016323,-0.417569,1.019729,-0.335592,1.049566,-0.327106,1.052241,-0.242840,1.074820,-0.234152,1.076746,-0.148238,1.091895,-0.139415,1.093057,-0.052508,1.100660,-0.043619,1.101048,0.043619,1.101048,0.052508,1.100660,0.052508,1.100660,
$1*%
%AMFreePoly1*
4,1,159,0.093737,1.632868,0.104019,1.629242,0.107555,1.627778,0.132525,1.612968,0.152312,1.591722,0.162778,1.572555,0.164242,1.569019,0.171417,1.540887,0.172000,1.530000,0.172000,1.087705,0.234152,1.076746,0.242840,1.074820,0.327106,1.052241,0.335592,1.049566,0.417569,1.019729,0.425790,1.016323,0.504856,0.979454,0.512750,0.975345,0.588301,0.931725,0.595805,0.926944,
0.667266,0.876906,0.674325,0.871490,0.741154,0.815414,0.747715,0.809402,0.809402,0.747715,0.815414,0.741154,0.871490,0.674325,0.876906,0.667266,0.926944,0.595805,0.931725,0.588301,0.975345,0.512750,0.979454,0.504856,1.016323,0.425790,1.019729,0.417569,1.049566,0.335592,1.052241,0.327106,1.074820,0.242840,1.076746,0.234152,1.091895,0.148238,1.093057,0.139415,
1.100660,0.052508,1.101048,0.043619,1.101048,-0.043619,1.100660,-0.052508,1.093057,-0.139415,1.091895,-0.148238,1.076746,-0.234152,1.074820,-0.242840,1.052241,-0.327106,1.049566,-0.335592,1.019729,-0.417569,1.016323,-0.425790,0.979454,-0.504856,0.975345,-0.512750,0.931725,-0.588301,0.926944,-0.595805,0.876906,-0.667266,0.871490,-0.674325,0.815414,-0.741154,0.809402,-0.747715,
0.747715,-0.809402,0.741154,-0.815414,0.674325,-0.871490,0.667266,-0.876906,0.595805,-0.926944,0.588301,-0.931725,0.512750,-0.975345,0.504856,-0.979454,0.425790,-1.016323,0.417569,-1.019729,0.335592,-1.049566,0.327106,-1.052241,0.242840,-1.074820,0.234152,-1.076746,0.148238,-1.091895,0.139415,-1.093057,0.052508,-1.100660,0.043619,-1.101048,-0.043619,-1.101048,-0.052508,-1.100660,
-0.139415,-1.093057,-0.148238,-1.091895,-0.234152,-1.076746,-0.242840,-1.074820,-0.327106,-1.052241,-0.335592,-1.049566,-0.417569,-1.019729,-0.425790,-1.016323,-0.504856,-0.979454,-0.512750,-0.975345,-0.588301,-0.931725,-0.595805,-0.926944,-0.667266,-0.876906,-0.674325,-0.871490,-0.741154,-0.815414,-0.747715,-0.809402,-0.809402,-0.747715,-0.815414,-0.741154,-0.871490,-0.674325,-0.876906,-0.667266,
-0.926944,-0.595805,-0.931725,-0.588301,-0.975345,-0.512750,-0.979454,-0.504856,-1.016323,-0.425790,-1.019729,-0.417569,-1.049566,-0.335592,-1.052241,-0.327106,-1.074820,-0.242840,-1.076746,-0.234152,-1.091895,-0.148238,-1.093057,-0.139415,-1.100660,-0.052508,-1.101048,-0.043619,-1.101048,0.043619,-1.100660,0.052508,-1.093057,0.139415,-1.091895,0.148238,-1.076746,0.234152,-1.074820,0.242840,
-1.052241,0.327106,-1.049566,0.335592,-1.019729,0.417569,-1.016323,0.425790,-0.979454,0.504856,-0.975345,0.512750,-0.931725,0.588301,-0.926944,0.595805,-0.876906,0.667266,-0.871490,0.674325,-0.815414,0.741154,-0.809402,0.747715,-0.747715,0.809402,-0.741154,0.815414,-0.674325,0.871490,-0.667266,0.876906,-0.595805,0.926944,-0.588301,0.931725,-0.512750,0.975345,-0.504856,0.979454,
-0.425790,1.016323,-0.417569,1.019729,-0.335592,1.049566,-0.327106,1.052241,-0.242840,1.074820,-0.234152,1.076746,-0.172000,1.087705,-0.172000,1.530000,-0.167868,1.558737,-0.164242,1.569019,-0.162778,1.572555,-0.147968,1.597525,-0.126722,1.617312,-0.107555,1.627778,-0.104019,1.629242,-0.075887,1.636417,-0.065000,1.637000,0.065000,1.637000,0.093737,1.632868,0.093737,1.632868,
$1*%
G04 Aperture macros list end*
%ADD10C,0.010000*%
%ADD11RoundRect,0.250000X-0.350000X-0.450000X0.350000X-0.450000X0.350000X0.450000X-0.350000X0.450000X0*%
%ADD12RoundRect,0.250000X0.350000X0.450000X-0.350000X0.450000X-0.350000X-0.450000X0.350000X-0.450000X0*%
%ADD13RoundRect,0.250000X-0.337500X-0.475000X0.337500X-0.475000X0.337500X0.475000X-0.337500X0.475000X0*%
%ADD14RoundRect,0.150000X-0.825000X-0.150000X0.825000X-0.150000X0.825000X0.150000X-0.825000X0.150000X0*%
%ADD15RoundRect,0.102000X0.266700X-0.901700X0.266700X0.901700X-0.266700X0.901700X-0.266700X-0.901700X0*%
%ADD16RoundRect,0.250000X-0.325000X-0.450000X0.325000X-0.450000X0.325000X0.450000X-0.325000X0.450000X0*%
%ADD17RoundRect,0.375000X0.375000X-0.625000X0.375000X0.625000X-0.375000X0.625000X-0.375000X-0.625000X0*%
%ADD18RoundRect,0.500000X1.400000X-0.500000X1.400000X0.500000X-1.400000X0.500000X-1.400000X-0.500000X0*%
%ADD19RoundRect,0.102000X-1.250000X0.754000X-1.250000X-0.754000X1.250000X-0.754000X1.250000X0.754000X0*%
%ADD20O,2.704000X1.712000*%
%ADD21O,2.704000X1.704000*%
%ADD22FreePoly0,180.000000*%
%ADD23FreePoly1,180.000000*%
%ADD24RoundRect,0.250000X0.337500X0.475000X-0.337500X0.475000X-0.337500X-0.475000X0.337500X-0.475000X0*%
%ADD25RoundRect,0.190500X0.816500X0.571500X-0.816500X0.571500X-0.816500X-0.571500X0.816500X-0.571500X0*%
%ADD26RoundRect,0.250000X-0.450000X0.350000X-0.450000X-0.350000X0.450000X-0.350000X0.450000X0.350000X0*%
%ADD27C,0.650000*%
%ADD28R,0.600000X1.450000*%
%ADD29R,0.300000X1.450000*%
%ADD30O,1.500000X2.200000*%
%ADD31O,1.500000X2.500000*%
%ADD32RoundRect,0.150000X-0.587500X-0.150000X0.587500X-0.150000X0.587500X0.150000X-0.587500X0.150000X0*%
%ADD33C,1.000000*%
%ADD34RoundRect,0.102000X-0.350000X-0.800000X0.350000X-0.800000X0.350000X0.800000X-0.350000X0.800000X0*%
%ADD35RoundRect,0.102000X-0.600000X-0.900000X0.600000X-0.900000X0.600000X0.900000X-0.600000X0.900000X0*%
%ADD36RoundRect,0.102000X-0.800000X-0.750000X0.800000X-0.750000X0.800000X0.750000X-0.800000X0.750000X0*%
%ADD37RoundRect,0.102000X-0.600000X-1.100000X0.600000X-1.100000X0.600000X1.100000X-0.600000X1.100000X0*%
%ADD38RoundRect,0.102000X0.700000X-0.750000X0.700000X0.750000X-0.700000X0.750000X-0.700000X-0.750000X0*%
%ADD39RoundRect,0.250000X0.325000X0.450000X-0.325000X0.450000X-0.325000X-0.450000X0.325000X-0.450000X0*%
%ADD40RoundRect,0.250000X0.450000X-0.350000X0.450000X0.350000X-0.450000X0.350000X-0.450000X-0.350000X0*%
%ADD41RoundRect,0.150000X0.150000X-0.587500X0.150000X0.587500X-0.150000X0.587500X-0.150000X-0.587500X0*%
%ADD42RoundRect,0.102000X0.754000X1.250000X-0.754000X1.250000X-0.754000X-1.250000X0.754000X-1.250000X0*%
%ADD43O,1.712000X2.704000*%
%ADD44R,2.000000X1.000000*%
%ADD45RoundRect,0.102000X-1.000000X-0.450000X1.000000X-0.450000X1.000000X0.450000X-1.000000X0.450000X0*%
%ADD46O,2.000000X1.000000*%
%ADD47RoundRect,0.102000X-0.450000X-1.000000X0.450000X-1.000000X0.450000X1.000000X-0.450000X1.000000X0*%
%ADD48R,1.000000X2.000000*%
%ADD49O,1.000000X2.000000*%
%ADD50RoundRect,0.102000X-0.665000X-0.665000X0.665000X-0.665000X0.665000X0.665000X-0.665000X0.665000X0*%
%ADD51RoundRect,0.102000X0.685000X-0.685000X0.685000X0.685000X-0.685000X0.685000X-0.685000X-0.685000X0*%
%ADD52C,1.574000*%
%ADD53R,2.500000X1.500000*%
%ADD54O,2.500000X1.500000*%
%ADD55RoundRect,0.250000X-0.650000X1.000000X-0.650000X-1.000000X0.650000X-1.000000X0.650000X1.000000X0*%
%ADD56RoundRect,0.102000X-0.685000X0.685000X-0.685000X-0.685000X0.685000X-0.685000X0.685000X0.685000X0*%
G04 APERTURE END LIST*
D10*
%TO.C,LCD+nutnhan1*%
X156087500Y-80660000D02*
X156127500Y-80669000D01*
X156165500Y-80679000D01*
X156203500Y-80691000D01*
X156240500Y-80704000D01*
X156276500Y-80720000D01*
X156311500Y-80737000D01*
X156346500Y-80755000D01*
X156380500Y-80775000D01*
X156413500Y-80797000D01*
X156445500Y-80820000D01*
X156475500Y-80845000D01*
X156505500Y-80871000D01*
X156533500Y-80898000D01*
X156561500Y-80927000D01*
X156586500Y-80956000D01*
X156611500Y-80987000D01*
X156634500Y-81019000D01*
X156655500Y-81052000D01*
X156675500Y-81087000D01*
X156693500Y-81121000D01*
X156710500Y-81157000D01*
X156725500Y-81193000D01*
X156738500Y-81231000D01*
X156750500Y-81268000D01*
X156759500Y-81306000D01*
X156768500Y-81345000D01*
X156774500Y-81384000D01*
X156778500Y-81423000D01*
X156781500Y-81462000D01*
X156782500Y-81500000D01*
X156777500Y-81590000D01*
X156763500Y-81679000D01*
X156740500Y-81766000D01*
X156708500Y-81850000D01*
X156667500Y-81930000D01*
X156618500Y-82005000D01*
X156561500Y-82075000D01*
X156497500Y-82139000D01*
X156427500Y-82196000D01*
X156352500Y-82245000D01*
X156272500Y-82286000D01*
X156188500Y-82318000D01*
X156101500Y-82341000D01*
X156012500Y-82355000D01*
X155922500Y-82360000D01*
X155832500Y-82355000D01*
X155743500Y-82341000D01*
X155656500Y-82318000D01*
X155572500Y-82286000D01*
X155492500Y-82245000D01*
X155417500Y-82196000D01*
X155347500Y-82139000D01*
X155283500Y-82075000D01*
X155226500Y-82005000D01*
X155177500Y-81930000D01*
X155136500Y-81850000D01*
X155104500Y-81766000D01*
X155081500Y-81679000D01*
X155067500Y-81590000D01*
X155062500Y-81500000D01*
X155063500Y-81462000D01*
X155066500Y-81423000D01*
X155070500Y-81384000D01*
X155076500Y-81345000D01*
X155085500Y-81306000D01*
X155094500Y-81268000D01*
X155106500Y-81231000D01*
X155119500Y-81193000D01*
X155134500Y-81157000D01*
X155151500Y-81121000D01*
X155169500Y-81087000D01*
X155189500Y-81052000D01*
X155210500Y-81019000D01*
X155233500Y-80987000D01*
X155258500Y-80956000D01*
X155283500Y-80927000D01*
X155311500Y-80898000D01*
X155339500Y-80871000D01*
X155369500Y-80845000D01*
X155399500Y-80820000D01*
X155431500Y-80797000D01*
X155464500Y-80775000D01*
X155498500Y-80755000D01*
X155533500Y-80737000D01*
X155568500Y-80720000D01*
X155604500Y-80704000D01*
X155641500Y-80691000D01*
X155679500Y-80679000D01*
X155717500Y-80669000D01*
X155757500Y-80660000D01*
X155757500Y-79870000D01*
X156087500Y-79870000D01*
X156087500Y-80660000D01*
G36*
X156087500Y-80660000D02*
G01*
X156127500Y-80669000D01*
X156165500Y-80679000D01*
X156203500Y-80691000D01*
X156240500Y-80704000D01*
X156276500Y-80720000D01*
X156311500Y-80737000D01*
X156346500Y-80755000D01*
X156380500Y-80775000D01*
X156413500Y-80797000D01*
X156445500Y-80820000D01*
X156475500Y-80845000D01*
X156505500Y-80871000D01*
X156533500Y-80898000D01*
X156561500Y-80927000D01*
X156586500Y-80956000D01*
X156611500Y-80987000D01*
X156634500Y-81019000D01*
X156655500Y-81052000D01*
X156675500Y-81087000D01*
X156693500Y-81121000D01*
X156710500Y-81157000D01*
X156725500Y-81193000D01*
X156738500Y-81231000D01*
X156750500Y-81268000D01*
X156759500Y-81306000D01*
X156768500Y-81345000D01*
X156774500Y-81384000D01*
X156778500Y-81423000D01*
X156781500Y-81462000D01*
X156782500Y-81500000D01*
X156777500Y-81590000D01*
X156763500Y-81679000D01*
X156740500Y-81766000D01*
X156708500Y-81850000D01*
X156667500Y-81930000D01*
X156618500Y-82005000D01*
X156561500Y-82075000D01*
X156497500Y-82139000D01*
X156427500Y-82196000D01*
X156352500Y-82245000D01*
X156272500Y-82286000D01*
X156188500Y-82318000D01*
X156101500Y-82341000D01*
X156012500Y-82355000D01*
X155922500Y-82360000D01*
X155832500Y-82355000D01*
X155743500Y-82341000D01*
X155656500Y-82318000D01*
X155572500Y-82286000D01*
X155492500Y-82245000D01*
X155417500Y-82196000D01*
X155347500Y-82139000D01*
X155283500Y-82075000D01*
X155226500Y-82005000D01*
X155177500Y-81930000D01*
X155136500Y-81850000D01*
X155104500Y-81766000D01*
X155081500Y-81679000D01*
X155067500Y-81590000D01*
X155062500Y-81500000D01*
X155063500Y-81462000D01*
X155066500Y-81423000D01*
X155070500Y-81384000D01*
X155076500Y-81345000D01*
X155085500Y-81306000D01*
X155094500Y-81268000D01*
X155106500Y-81231000D01*
X155119500Y-81193000D01*
X155134500Y-81157000D01*
X155151500Y-81121000D01*
X155169500Y-81087000D01*
X155189500Y-81052000D01*
X155210500Y-81019000D01*
X155233500Y-80987000D01*
X155258500Y-80956000D01*
X155283500Y-80927000D01*
X155311500Y-80898000D01*
X155339500Y-80871000D01*
X155369500Y-80845000D01*
X155399500Y-80820000D01*
X155431500Y-80797000D01*
X155464500Y-80775000D01*
X155498500Y-80755000D01*
X155533500Y-80737000D01*
X155568500Y-80720000D01*
X155604500Y-80704000D01*
X155641500Y-80691000D01*
X155679500Y-80679000D01*
X155717500Y-80669000D01*
X155757500Y-80660000D01*
X155757500Y-79870000D01*
X156087500Y-79870000D01*
X156087500Y-80660000D01*
G37*
X158627500Y-80660000D02*
X158667500Y-80669000D01*
X158705500Y-80679000D01*
X158743500Y-80691000D01*
X158780500Y-80704000D01*
X158816500Y-80720000D01*
X158851500Y-80737000D01*
X158886500Y-80755000D01*
X158920500Y-80775000D01*
X158953500Y-80797000D01*
X158985500Y-80820000D01*
X159015500Y-80845000D01*
X159045500Y-80871000D01*
X159073500Y-80898000D01*
X159101500Y-80927000D01*
X159126500Y-80956000D01*
X159151500Y-80987000D01*
X159174500Y-81019000D01*
X159195500Y-81052000D01*
X159215500Y-81087000D01*
X159233500Y-81121000D01*
X159250500Y-81157000D01*
X159265500Y-81193000D01*
X159278500Y-81231000D01*
X159290500Y-81268000D01*
X159299500Y-81306000D01*
X159308500Y-81345000D01*
X159314500Y-81384000D01*
X159318500Y-81423000D01*
X159321500Y-81462000D01*
X159322500Y-81500000D01*
X159317500Y-81590000D01*
X159303500Y-81679000D01*
X159280500Y-81766000D01*
X159248500Y-81850000D01*
X159207500Y-81930000D01*
X159158500Y-82005000D01*
X159101500Y-82075000D01*
X159037500Y-82139000D01*
X158967500Y-82196000D01*
X158892500Y-82245000D01*
X158812500Y-82286000D01*
X158728500Y-82318000D01*
X158641500Y-82341000D01*
X158552500Y-82355000D01*
X158462500Y-82360000D01*
X158372500Y-82355000D01*
X158283500Y-82341000D01*
X158196500Y-82318000D01*
X158112500Y-82286000D01*
X158032500Y-82245000D01*
X157957500Y-82196000D01*
X157887500Y-82139000D01*
X157823500Y-82075000D01*
X157766500Y-82005000D01*
X157717500Y-81930000D01*
X157676500Y-81850000D01*
X157644500Y-81766000D01*
X157621500Y-81679000D01*
X157607500Y-81590000D01*
X157602500Y-81500000D01*
X157603500Y-81462000D01*
X157606500Y-81423000D01*
X157610500Y-81384000D01*
X157616500Y-81345000D01*
X157625500Y-81306000D01*
X157634500Y-81268000D01*
X157646500Y-81231000D01*
X157659500Y-81193000D01*
X157674500Y-81157000D01*
X157691500Y-81121000D01*
X157709500Y-81087000D01*
X157729500Y-81052000D01*
X157750500Y-81019000D01*
X157773500Y-80987000D01*
X157798500Y-80956000D01*
X157823500Y-80927000D01*
X157851500Y-80898000D01*
X157879500Y-80871000D01*
X157909500Y-80845000D01*
X157939500Y-80820000D01*
X157971500Y-80797000D01*
X158004500Y-80775000D01*
X158038500Y-80755000D01*
X158073500Y-80737000D01*
X158108500Y-80720000D01*
X158144500Y-80704000D01*
X158181500Y-80691000D01*
X158219500Y-80679000D01*
X158257500Y-80669000D01*
X158297500Y-80660000D01*
X158297500Y-79870000D01*
X158627500Y-79870000D01*
X158627500Y-80660000D01*
G36*
X158627500Y-80660000D02*
G01*
X158667500Y-80669000D01*
X158705500Y-80679000D01*
X158743500Y-80691000D01*
X158780500Y-80704000D01*
X158816500Y-80720000D01*
X158851500Y-80737000D01*
X158886500Y-80755000D01*
X158920500Y-80775000D01*
X158953500Y-80797000D01*
X158985500Y-80820000D01*
X159015500Y-80845000D01*
X159045500Y-80871000D01*
X159073500Y-80898000D01*
X159101500Y-80927000D01*
X159126500Y-80956000D01*
X159151500Y-80987000D01*
X159174500Y-81019000D01*
X159195500Y-81052000D01*
X159215500Y-81087000D01*
X159233500Y-81121000D01*
X159250500Y-81157000D01*
X159265500Y-81193000D01*
X159278500Y-81231000D01*
X159290500Y-81268000D01*
X159299500Y-81306000D01*
X159308500Y-81345000D01*
X159314500Y-81384000D01*
X159318500Y-81423000D01*
X159321500Y-81462000D01*
X159322500Y-81500000D01*
X159317500Y-81590000D01*
X159303500Y-81679000D01*
X159280500Y-81766000D01*
X159248500Y-81850000D01*
X159207500Y-81930000D01*
X159158500Y-82005000D01*
X159101500Y-82075000D01*
X159037500Y-82139000D01*
X158967500Y-82196000D01*
X158892500Y-82245000D01*
X158812500Y-82286000D01*
X158728500Y-82318000D01*
X158641500Y-82341000D01*
X158552500Y-82355000D01*
X158462500Y-82360000D01*
X158372500Y-82355000D01*
X158283500Y-82341000D01*
X158196500Y-82318000D01*
X158112500Y-82286000D01*
X158032500Y-82245000D01*
X157957500Y-82196000D01*
X157887500Y-82139000D01*
X157823500Y-82075000D01*
X157766500Y-82005000D01*
X157717500Y-81930000D01*
X157676500Y-81850000D01*
X157644500Y-81766000D01*
X157621500Y-81679000D01*
X157607500Y-81590000D01*
X157602500Y-81500000D01*
X157603500Y-81462000D01*
X157606500Y-81423000D01*
X157610500Y-81384000D01*
X157616500Y-81345000D01*
X157625500Y-81306000D01*
X157634500Y-81268000D01*
X157646500Y-81231000D01*
X157659500Y-81193000D01*
X157674500Y-81157000D01*
X157691500Y-81121000D01*
X157709500Y-81087000D01*
X157729500Y-81052000D01*
X157750500Y-81019000D01*
X157773500Y-80987000D01*
X157798500Y-80956000D01*
X157823500Y-80927000D01*
X157851500Y-80898000D01*
X157879500Y-80871000D01*
X157909500Y-80845000D01*
X157939500Y-80820000D01*
X157971500Y-80797000D01*
X158004500Y-80775000D01*
X158038500Y-80755000D01*
X158073500Y-80737000D01*
X158108500Y-80720000D01*
X158144500Y-80704000D01*
X158181500Y-80691000D01*
X158219500Y-80679000D01*
X158257500Y-80669000D01*
X158297500Y-80660000D01*
X158297500Y-79870000D01*
X158627500Y-79870000D01*
X158627500Y-80660000D01*
G37*
X161167500Y-80660000D02*
X161207500Y-80669000D01*
X161245500Y-80679000D01*
X161283500Y-80691000D01*
X161320500Y-80704000D01*
X161356500Y-80720000D01*
X161391500Y-80737000D01*
X161426500Y-80755000D01*
X161460500Y-80775000D01*
X161493500Y-80797000D01*
X161525500Y-80820000D01*
X161555500Y-80845000D01*
X161585500Y-80871000D01*
X161613500Y-80898000D01*
X161641500Y-80927000D01*
X161666500Y-80956000D01*
X161691500Y-80987000D01*
X161714500Y-81019000D01*
X161735500Y-81052000D01*
X161755500Y-81087000D01*
X161773500Y-81121000D01*
X161790500Y-81157000D01*
X161805500Y-81193000D01*
X161818500Y-81231000D01*
X161830500Y-81268000D01*
X161839500Y-81306000D01*
X161848500Y-81345000D01*
X161854500Y-81384000D01*
X161858500Y-81423000D01*
X161861500Y-81462000D01*
X161862500Y-81500000D01*
X161857500Y-81590000D01*
X161843500Y-81679000D01*
X161820500Y-81766000D01*
X161788500Y-81850000D01*
X161747500Y-81930000D01*
X161698500Y-82005000D01*
X161641500Y-82075000D01*
X161577500Y-82139000D01*
X161507500Y-82196000D01*
X161432500Y-82245000D01*
X161352500Y-82286000D01*
X161268500Y-82318000D01*
X161181500Y-82341000D01*
X161092500Y-82355000D01*
X161002500Y-82360000D01*
X160912500Y-82355000D01*
X160823500Y-82341000D01*
X160736500Y-82318000D01*
X160652500Y-82286000D01*
X160572500Y-82245000D01*
X160497500Y-82196000D01*
X160427500Y-82139000D01*
X160363500Y-82075000D01*
X160306500Y-82005000D01*
X160257500Y-81930000D01*
X160216500Y-81850000D01*
X160184500Y-81766000D01*
X160161500Y-81679000D01*
X160147500Y-81590000D01*
X160142500Y-81500000D01*
X160143500Y-81462000D01*
X160146500Y-81423000D01*
X160150500Y-81384000D01*
X160156500Y-81345000D01*
X160165500Y-81306000D01*
X160174500Y-81268000D01*
X160186500Y-81231000D01*
X160199500Y-81193000D01*
X160214500Y-81157000D01*
X160231500Y-81121000D01*
X160249500Y-81087000D01*
X160269500Y-81052000D01*
X160290500Y-81019000D01*
X160313500Y-80987000D01*
X160338500Y-80956000D01*
X160363500Y-80927000D01*
X160391500Y-80898000D01*
X160419500Y-80871000D01*
X160449500Y-80845000D01*
X160479500Y-80820000D01*
X160511500Y-80797000D01*
X160544500Y-80775000D01*
X160578500Y-80755000D01*
X160613500Y-80737000D01*
X160648500Y-80720000D01*
X160684500Y-80704000D01*
X160721500Y-80691000D01*
X160759500Y-80679000D01*
X160797500Y-80669000D01*
X160837500Y-80660000D01*
X160837500Y-79870000D01*
X161167500Y-79870000D01*
X161167500Y-80660000D01*
G36*
X161167500Y-80660000D02*
G01*
X161207500Y-80669000D01*
X161245500Y-80679000D01*
X161283500Y-80691000D01*
X161320500Y-80704000D01*
X161356500Y-80720000D01*
X161391500Y-80737000D01*
X161426500Y-80755000D01*
X161460500Y-80775000D01*
X161493500Y-80797000D01*
X161525500Y-80820000D01*
X161555500Y-80845000D01*
X161585500Y-80871000D01*
X161613500Y-80898000D01*
X161641500Y-80927000D01*
X161666500Y-80956000D01*
X161691500Y-80987000D01*
X161714500Y-81019000D01*
X161735500Y-81052000D01*
X161755500Y-81087000D01*
X161773500Y-81121000D01*
X161790500Y-81157000D01*
X161805500Y-81193000D01*
X161818500Y-81231000D01*
X161830500Y-81268000D01*
X161839500Y-81306000D01*
X161848500Y-81345000D01*
X161854500Y-81384000D01*
X161858500Y-81423000D01*
X161861500Y-81462000D01*
X161862500Y-81500000D01*
X161857500Y-81590000D01*
X161843500Y-81679000D01*
X161820500Y-81766000D01*
X161788500Y-81850000D01*
X161747500Y-81930000D01*
X161698500Y-82005000D01*
X161641500Y-82075000D01*
X161577500Y-82139000D01*
X161507500Y-82196000D01*
X161432500Y-82245000D01*
X161352500Y-82286000D01*
X161268500Y-82318000D01*
X161181500Y-82341000D01*
X161092500Y-82355000D01*
X161002500Y-82360000D01*
X160912500Y-82355000D01*
X160823500Y-82341000D01*
X160736500Y-82318000D01*
X160652500Y-82286000D01*
X160572500Y-82245000D01*
X160497500Y-82196000D01*
X160427500Y-82139000D01*
X160363500Y-82075000D01*
X160306500Y-82005000D01*
X160257500Y-81930000D01*
X160216500Y-81850000D01*
X160184500Y-81766000D01*
X160161500Y-81679000D01*
X160147500Y-81590000D01*
X160142500Y-81500000D01*
X160143500Y-81462000D01*
X160146500Y-81423000D01*
X160150500Y-81384000D01*
X160156500Y-81345000D01*
X160165500Y-81306000D01*
X160174500Y-81268000D01*
X160186500Y-81231000D01*
X160199500Y-81193000D01*
X160214500Y-81157000D01*
X160231500Y-81121000D01*
X160249500Y-81087000D01*
X160269500Y-81052000D01*
X160290500Y-81019000D01*
X160313500Y-80987000D01*
X160338500Y-80956000D01*
X160363500Y-80927000D01*
X160391500Y-80898000D01*
X160419500Y-80871000D01*
X160449500Y-80845000D01*
X160479500Y-80820000D01*
X160511500Y-80797000D01*
X160544500Y-80775000D01*
X160578500Y-80755000D01*
X160613500Y-80737000D01*
X160648500Y-80720000D01*
X160684500Y-80704000D01*
X160721500Y-80691000D01*
X160759500Y-80679000D01*
X160797500Y-80669000D01*
X160837500Y-80660000D01*
X160837500Y-79870000D01*
X161167500Y-79870000D01*
X161167500Y-80660000D01*
G37*
X163707500Y-80660000D02*
X163747500Y-80669000D01*
X163785500Y-80679000D01*
X163823500Y-80691000D01*
X163860500Y-80704000D01*
X163896500Y-80720000D01*
X163931500Y-80737000D01*
X163966500Y-80755000D01*
X164000500Y-80775000D01*
X164033500Y-80797000D01*
X164065500Y-80820000D01*
X164095500Y-80845000D01*
X164125500Y-80871000D01*
X164153500Y-80898000D01*
X164181500Y-80927000D01*
X164206500Y-80956000D01*
X164231500Y-80987000D01*
X164254500Y-81019000D01*
X164275500Y-81052000D01*
X164295500Y-81087000D01*
X164313500Y-81121000D01*
X164330500Y-81157000D01*
X164345500Y-81193000D01*
X164358500Y-81231000D01*
X164370500Y-81268000D01*
X164379500Y-81306000D01*
X164388500Y-81345000D01*
X164394500Y-81384000D01*
X164398500Y-81423000D01*
X164401500Y-81462000D01*
X164402500Y-81500000D01*
X164397500Y-81590000D01*
X164383500Y-81679000D01*
X164360500Y-81766000D01*
X164328500Y-81850000D01*
X164287500Y-81930000D01*
X164238500Y-82005000D01*
X164181500Y-82075000D01*
X164117500Y-82139000D01*
X164047500Y-82196000D01*
X163972500Y-82245000D01*
X163892500Y-82286000D01*
X163808500Y-82318000D01*
X163721500Y-82341000D01*
X163632500Y-82355000D01*
X163542500Y-82360000D01*
X163452500Y-82355000D01*
X163363500Y-82341000D01*
X163276500Y-82318000D01*
X163192500Y-82286000D01*
X163112500Y-82245000D01*
X163037500Y-82196000D01*
X162967500Y-82139000D01*
X162903500Y-82075000D01*
X162846500Y-82005000D01*
X162797500Y-81930000D01*
X162756500Y-81850000D01*
X162724500Y-81766000D01*
X162701500Y-81679000D01*
X162687500Y-81590000D01*
X162682500Y-81500000D01*
X162683500Y-81462000D01*
X162686500Y-81423000D01*
X162690500Y-81384000D01*
X162696500Y-81345000D01*
X162705500Y-81306000D01*
X162714500Y-81268000D01*
X162726500Y-81231000D01*
X162739500Y-81193000D01*
X162754500Y-81157000D01*
X162771500Y-81121000D01*
X162789500Y-81087000D01*
X162809500Y-81052000D01*
X162830500Y-81019000D01*
X162853500Y-80987000D01*
X162878500Y-80956000D01*
X162903500Y-80927000D01*
X162931500Y-80898000D01*
X162959500Y-80871000D01*
X162989500Y-80845000D01*
X163019500Y-80820000D01*
X163051500Y-80797000D01*
X163084500Y-80775000D01*
X163118500Y-80755000D01*
X163153500Y-80737000D01*
X163188500Y-80720000D01*
X163224500Y-80704000D01*
X163261500Y-80691000D01*
X163299500Y-80679000D01*
X163337500Y-80669000D01*
X163377500Y-80660000D01*
X163377500Y-79870000D01*
X163707500Y-79870000D01*
X163707500Y-80660000D01*
G36*
X163707500Y-80660000D02*
G01*
X163747500Y-80669000D01*
X163785500Y-80679000D01*
X163823500Y-80691000D01*
X163860500Y-80704000D01*
X163896500Y-80720000D01*
X163931500Y-80737000D01*
X163966500Y-80755000D01*
X164000500Y-80775000D01*
X164033500Y-80797000D01*
X164065500Y-80820000D01*
X164095500Y-80845000D01*
X164125500Y-80871000D01*
X164153500Y-80898000D01*
X164181500Y-80927000D01*
X164206500Y-80956000D01*
X164231500Y-80987000D01*
X164254500Y-81019000D01*
X164275500Y-81052000D01*
X164295500Y-81087000D01*
X164313500Y-81121000D01*
X164330500Y-81157000D01*
X164345500Y-81193000D01*
X164358500Y-81231000D01*
X164370500Y-81268000D01*
X164379500Y-81306000D01*
X164388500Y-81345000D01*
X164394500Y-81384000D01*
X164398500Y-81423000D01*
X164401500Y-81462000D01*
X164402500Y-81500000D01*
X164397500Y-81590000D01*
X164383500Y-81679000D01*
X164360500Y-81766000D01*
X164328500Y-81850000D01*
X164287500Y-81930000D01*
X164238500Y-82005000D01*
X164181500Y-82075000D01*
X164117500Y-82139000D01*
X164047500Y-82196000D01*
X163972500Y-82245000D01*
X163892500Y-82286000D01*
X163808500Y-82318000D01*
X163721500Y-82341000D01*
X163632500Y-82355000D01*
X163542500Y-82360000D01*
X163452500Y-82355000D01*
X163363500Y-82341000D01*
X163276500Y-82318000D01*
X163192500Y-82286000D01*
X163112500Y-82245000D01*
X163037500Y-82196000D01*
X162967500Y-82139000D01*
X162903500Y-82075000D01*
X162846500Y-82005000D01*
X162797500Y-81930000D01*
X162756500Y-81850000D01*
X162724500Y-81766000D01*
X162701500Y-81679000D01*
X162687500Y-81590000D01*
X162682500Y-81500000D01*
X162683500Y-81462000D01*
X162686500Y-81423000D01*
X162690500Y-81384000D01*
X162696500Y-81345000D01*
X162705500Y-81306000D01*
X162714500Y-81268000D01*
X162726500Y-81231000D01*
X162739500Y-81193000D01*
X162754500Y-81157000D01*
X162771500Y-81121000D01*
X162789500Y-81087000D01*
X162809500Y-81052000D01*
X162830500Y-81019000D01*
X162853500Y-80987000D01*
X162878500Y-80956000D01*
X162903500Y-80927000D01*
X162931500Y-80898000D01*
X162959500Y-80871000D01*
X162989500Y-80845000D01*
X163019500Y-80820000D01*
X163051500Y-80797000D01*
X163084500Y-80775000D01*
X163118500Y-80755000D01*
X163153500Y-80737000D01*
X163188500Y-80720000D01*
X163224500Y-80704000D01*
X163261500Y-80691000D01*
X163299500Y-80679000D01*
X163337500Y-80669000D01*
X163377500Y-80660000D01*
X163377500Y-79870000D01*
X163707500Y-79870000D01*
X163707500Y-80660000D01*
G37*
X166247500Y-80660000D02*
X166287500Y-80669000D01*
X166325500Y-80679000D01*
X166363500Y-80691000D01*
X166400500Y-80704000D01*
X166436500Y-80720000D01*
X166471500Y-80737000D01*
X166506500Y-80755000D01*
X166540500Y-80775000D01*
X166573500Y-80797000D01*
X166605500Y-80820000D01*
X166635500Y-80845000D01*
X166665500Y-80871000D01*
X166693500Y-80898000D01*
X166721500Y-80927000D01*
X166746500Y-80956000D01*
X166771500Y-80987000D01*
X166794500Y-81019000D01*
X166815500Y-81052000D01*
X166835500Y-81087000D01*
X166853500Y-81121000D01*
X166870500Y-81157000D01*
X166885500Y-81193000D01*
X166898500Y-81231000D01*
X166910500Y-81268000D01*
X166919500Y-81306000D01*
X166928500Y-81345000D01*
X166934500Y-81384000D01*
X166938500Y-81423000D01*
X166941500Y-81462000D01*
X166942500Y-81500000D01*
X166937500Y-81590000D01*
X166923500Y-81679000D01*
X166900500Y-81766000D01*
X166868500Y-81850000D01*
X166827500Y-81930000D01*
X166778500Y-82005000D01*
X166721500Y-82075000D01*
X166657500Y-82139000D01*
X166587500Y-82196000D01*
X166512500Y-82245000D01*
X166432500Y-82286000D01*
X166348500Y-82318000D01*
X166261500Y-82341000D01*
X166172500Y-82355000D01*
X166082500Y-82360000D01*
X165992500Y-82355000D01*
X165903500Y-82341000D01*
X165816500Y-82318000D01*
X165732500Y-82286000D01*
X165652500Y-82245000D01*
X165577500Y-82196000D01*
X165507500Y-82139000D01*
X165443500Y-82075000D01*
X165386500Y-82005000D01*
X165337500Y-81930000D01*
X165296500Y-81850000D01*
X165264500Y-81766000D01*
X165241500Y-81679000D01*
X165227500Y-81590000D01*
X165222500Y-81500000D01*
X165223500Y-81462000D01*
X165226500Y-81423000D01*
X165230500Y-81384000D01*
X165236500Y-81345000D01*
X165245500Y-81306000D01*
X165254500Y-81268000D01*
X165266500Y-81231000D01*
X165279500Y-81193000D01*
X165294500Y-81157000D01*
X165311500Y-81121000D01*
X165329500Y-81087000D01*
X165349500Y-81052000D01*
X165370500Y-81019000D01*
X165393500Y-80987000D01*
X165418500Y-80956000D01*
X165443500Y-80927000D01*
X165471500Y-80898000D01*
X165499500Y-80871000D01*
X165529500Y-80845000D01*
X165559500Y-80820000D01*
X165591500Y-80797000D01*
X165624500Y-80775000D01*
X165658500Y-80755000D01*
X165693500Y-80737000D01*
X165728500Y-80720000D01*
X165764500Y-80704000D01*
X165801500Y-80691000D01*
X165839500Y-80679000D01*
X165877500Y-80669000D01*
X165917500Y-80660000D01*
X165917500Y-79870000D01*
X166247500Y-79870000D01*
X166247500Y-80660000D01*
G36*
X166247500Y-80660000D02*
G01*
X166287500Y-80669000D01*
X166325500Y-80679000D01*
X166363500Y-80691000D01*
X166400500Y-80704000D01*
X166436500Y-80720000D01*
X166471500Y-80737000D01*
X166506500Y-80755000D01*
X166540500Y-80775000D01*
X166573500Y-80797000D01*
X166605500Y-80820000D01*
X166635500Y-80845000D01*
X166665500Y-80871000D01*
X166693500Y-80898000D01*
X166721500Y-80927000D01*
X166746500Y-80956000D01*
X166771500Y-80987000D01*
X166794500Y-81019000D01*
X166815500Y-81052000D01*
X166835500Y-81087000D01*
X166853500Y-81121000D01*
X166870500Y-81157000D01*
X166885500Y-81193000D01*
X166898500Y-81231000D01*
X166910500Y-81268000D01*
X166919500Y-81306000D01*
X166928500Y-81345000D01*
X166934500Y-81384000D01*
X166938500Y-81423000D01*
X166941500Y-81462000D01*
X166942500Y-81500000D01*
X166937500Y-81590000D01*
X166923500Y-81679000D01*
X166900500Y-81766000D01*
X166868500Y-81850000D01*
X166827500Y-81930000D01*
X166778500Y-82005000D01*
X166721500Y-82075000D01*
X166657500Y-82139000D01*
X166587500Y-82196000D01*
X166512500Y-82245000D01*
X166432500Y-82286000D01*
X166348500Y-82318000D01*
X166261500Y-82341000D01*
X166172500Y-82355000D01*
X166082500Y-82360000D01*
X165992500Y-82355000D01*
X165903500Y-82341000D01*
X165816500Y-82318000D01*
X165732500Y-82286000D01*
X165652500Y-82245000D01*
X165577500Y-82196000D01*
X165507500Y-82139000D01*
X165443500Y-82075000D01*
X165386500Y-82005000D01*
X165337500Y-81930000D01*
X165296500Y-81850000D01*
X165264500Y-81766000D01*
X165241500Y-81679000D01*
X165227500Y-81590000D01*
X165222500Y-81500000D01*
X165223500Y-81462000D01*
X165226500Y-81423000D01*
X165230500Y-81384000D01*
X165236500Y-81345000D01*
X165245500Y-81306000D01*
X165254500Y-81268000D01*
X165266500Y-81231000D01*
X165279500Y-81193000D01*
X165294500Y-81157000D01*
X165311500Y-81121000D01*
X165329500Y-81087000D01*
X165349500Y-81052000D01*
X165370500Y-81019000D01*
X165393500Y-80987000D01*
X165418500Y-80956000D01*
X165443500Y-80927000D01*
X165471500Y-80898000D01*
X165499500Y-80871000D01*
X165529500Y-80845000D01*
X165559500Y-80820000D01*
X165591500Y-80797000D01*
X165624500Y-80775000D01*
X165658500Y-80755000D01*
X165693500Y-80737000D01*
X165728500Y-80720000D01*
X165764500Y-80704000D01*
X165801500Y-80691000D01*
X165839500Y-80679000D01*
X165877500Y-80669000D01*
X165917500Y-80660000D01*
X165917500Y-79870000D01*
X166247500Y-79870000D01*
X166247500Y-80660000D01*
G37*
X168787500Y-80660000D02*
X168827500Y-80669000D01*
X168865500Y-80679000D01*
X168903500Y-80691000D01*
X168940500Y-80704000D01*
X168976500Y-80720000D01*
X169011500Y-80737000D01*
X169046500Y-80755000D01*
X169080500Y-80775000D01*
X169113500Y-80797000D01*
X169145500Y-80820000D01*
X169175500Y-80845000D01*
X169205500Y-80871000D01*
X169233500Y-80898000D01*
X169261500Y-80927000D01*
X169286500Y-80956000D01*
X169311500Y-80987000D01*
X169334500Y-81019000D01*
X169355500Y-81052000D01*
X169375500Y-81087000D01*
X169393500Y-81121000D01*
X169410500Y-81157000D01*
X169425500Y-81193000D01*
X169438500Y-81231000D01*
X169450500Y-81268000D01*
X169459500Y-81306000D01*
X169468500Y-81345000D01*
X169474500Y-81384000D01*
X169478500Y-81423000D01*
X169481500Y-81462000D01*
X169482500Y-81500000D01*
X169477500Y-81590000D01*
X169463500Y-81679000D01*
X169440500Y-81766000D01*
X169408500Y-81850000D01*
X169367500Y-81930000D01*
X169318500Y-82005000D01*
X169261500Y-82075000D01*
X169197500Y-82139000D01*
X169127500Y-82196000D01*
X169052500Y-82245000D01*
X168972500Y-82286000D01*
X168888500Y-82318000D01*
X168801500Y-82341000D01*
X168712500Y-82355000D01*
X168622500Y-82360000D01*
X168532500Y-82355000D01*
X168443500Y-82341000D01*
X168356500Y-82318000D01*
X168272500Y-82286000D01*
X168192500Y-82245000D01*
X168117500Y-82196000D01*
X168047500Y-82139000D01*
X167983500Y-82075000D01*
X167926500Y-82005000D01*
X167877500Y-81930000D01*
X167836500Y-81850000D01*
X167804500Y-81766000D01*
X167781500Y-81679000D01*
X167767500Y-81590000D01*
X167762500Y-81500000D01*
X167763500Y-81462000D01*
X167766500Y-81423000D01*
X167770500Y-81384000D01*
X167776500Y-81345000D01*
X167785500Y-81306000D01*
X167794500Y-81268000D01*
X167806500Y-81231000D01*
X167819500Y-81193000D01*
X167834500Y-81157000D01*
X167851500Y-81121000D01*
X167869500Y-81087000D01*
X167889500Y-81052000D01*
X167910500Y-81019000D01*
X167933500Y-80987000D01*
X167958500Y-80956000D01*
X167983500Y-80927000D01*
X168011500Y-80898000D01*
X168039500Y-80871000D01*
X168069500Y-80845000D01*
X168099500Y-80820000D01*
X168131500Y-80797000D01*
X168164500Y-80775000D01*
X168198500Y-80755000D01*
X168233500Y-80737000D01*
X168268500Y-80720000D01*
X168304500Y-80704000D01*
X168341500Y-80691000D01*
X168379500Y-80679000D01*
X168417500Y-80669000D01*
X168457500Y-80660000D01*
X168457500Y-79870000D01*
X168787500Y-79870000D01*
X168787500Y-80660000D01*
G36*
X168787500Y-80660000D02*
G01*
X168827500Y-80669000D01*
X168865500Y-80679000D01*
X168903500Y-80691000D01*
X168940500Y-80704000D01*
X168976500Y-80720000D01*
X169011500Y-80737000D01*
X169046500Y-80755000D01*
X169080500Y-80775000D01*
X169113500Y-80797000D01*
X169145500Y-80820000D01*
X169175500Y-80845000D01*
X169205500Y-80871000D01*
X169233500Y-80898000D01*
X169261500Y-80927000D01*
X169286500Y-80956000D01*
X169311500Y-80987000D01*
X169334500Y-81019000D01*
X169355500Y-81052000D01*
X169375500Y-81087000D01*
X169393500Y-81121000D01*
X169410500Y-81157000D01*
X169425500Y-81193000D01*
X169438500Y-81231000D01*
X169450500Y-81268000D01*
X169459500Y-81306000D01*
X169468500Y-81345000D01*
X169474500Y-81384000D01*
X169478500Y-81423000D01*
X169481500Y-81462000D01*
X169482500Y-81500000D01*
X169477500Y-81590000D01*
X169463500Y-81679000D01*
X169440500Y-81766000D01*
X169408500Y-81850000D01*
X169367500Y-81930000D01*
X169318500Y-82005000D01*
X169261500Y-82075000D01*
X169197500Y-82139000D01*
X169127500Y-82196000D01*
X169052500Y-82245000D01*
X168972500Y-82286000D01*
X168888500Y-82318000D01*
X168801500Y-82341000D01*
X168712500Y-82355000D01*
X168622500Y-82360000D01*
X168532500Y-82355000D01*
X168443500Y-82341000D01*
X168356500Y-82318000D01*
X168272500Y-82286000D01*
X168192500Y-82245000D01*
X168117500Y-82196000D01*
X168047500Y-82139000D01*
X167983500Y-82075000D01*
X167926500Y-82005000D01*
X167877500Y-81930000D01*
X167836500Y-81850000D01*
X167804500Y-81766000D01*
X167781500Y-81679000D01*
X167767500Y-81590000D01*
X167762500Y-81500000D01*
X167763500Y-81462000D01*
X167766500Y-81423000D01*
X167770500Y-81384000D01*
X167776500Y-81345000D01*
X167785500Y-81306000D01*
X167794500Y-81268000D01*
X167806500Y-81231000D01*
X167819500Y-81193000D01*
X167834500Y-81157000D01*
X167851500Y-81121000D01*
X167869500Y-81087000D01*
X167889500Y-81052000D01*
X167910500Y-81019000D01*
X167933500Y-80987000D01*
X167958500Y-80956000D01*
X167983500Y-80927000D01*
X168011500Y-80898000D01*
X168039500Y-80871000D01*
X168069500Y-80845000D01*
X168099500Y-80820000D01*
X168131500Y-80797000D01*
X168164500Y-80775000D01*
X168198500Y-80755000D01*
X168233500Y-80737000D01*
X168268500Y-80720000D01*
X168304500Y-80704000D01*
X168341500Y-80691000D01*
X168379500Y-80679000D01*
X168417500Y-80669000D01*
X168457500Y-80660000D01*
X168457500Y-79870000D01*
X168787500Y-79870000D01*
X168787500Y-80660000D01*
G37*
X171327500Y-80660000D02*
X171367500Y-80669000D01*
X171405500Y-80679000D01*
X171443500Y-80691000D01*
X171480500Y-80704000D01*
X171516500Y-80720000D01*
X171551500Y-80737000D01*
X171586500Y-80755000D01*
X171620500Y-80775000D01*
X171653500Y-80797000D01*
X171685500Y-80820000D01*
X171715500Y-80845000D01*
X171745500Y-80871000D01*
X171773500Y-80898000D01*
X171801500Y-80927000D01*
X171826500Y-80956000D01*
X171851500Y-80987000D01*
X171874500Y-81019000D01*
X171895500Y-81052000D01*
X171915500Y-81087000D01*
X171933500Y-81121000D01*
X171950500Y-81157000D01*
X171965500Y-81193000D01*
X171978500Y-81231000D01*
X171990500Y-81268000D01*
X171999500Y-81306000D01*
X172008500Y-81345000D01*
X172014500Y-81384000D01*
X172018500Y-81423000D01*
X172021500Y-81462000D01*
X172022500Y-81500000D01*
X172017500Y-81590000D01*
X172003500Y-81679000D01*
X171980500Y-81766000D01*
X171948500Y-81850000D01*
X171907500Y-81930000D01*
X171858500Y-82005000D01*
X171801500Y-82075000D01*
X171737500Y-82139000D01*
X171667500Y-82196000D01*
X171592500Y-82245000D01*
X171512500Y-82286000D01*
X171428500Y-82318000D01*
X171341500Y-82341000D01*
X171252500Y-82355000D01*
X171162500Y-82360000D01*
X171072500Y-82355000D01*
X170983500Y-82341000D01*
X170896500Y-82318000D01*
X170812500Y-82286000D01*
X170732500Y-82245000D01*
X170657500Y-82196000D01*
X170587500Y-82139000D01*
X170523500Y-82075000D01*
X170466500Y-82005000D01*
X170417500Y-81930000D01*
X170376500Y-81850000D01*
X170344500Y-81766000D01*
X170321500Y-81679000D01*
X170307500Y-81590000D01*
X170302500Y-81500000D01*
X170303500Y-81462000D01*
X170306500Y-81423000D01*
X170310500Y-81384000D01*
X170316500Y-81345000D01*
X170325500Y-81306000D01*
X170334500Y-81268000D01*
X170346500Y-81231000D01*
X170359500Y-81193000D01*
X170374500Y-81157000D01*
X170391500Y-81121000D01*
X170409500Y-81087000D01*
X170429500Y-81052000D01*
X170450500Y-81019000D01*
X170473500Y-80987000D01*
X170498500Y-80956000D01*
X170523500Y-80927000D01*
X170551500Y-80898000D01*
X170579500Y-80871000D01*
X170609500Y-80845000D01*
X170639500Y-80820000D01*
X170671500Y-80797000D01*
X170704500Y-80775000D01*
X170738500Y-80755000D01*
X170773500Y-80737000D01*
X170808500Y-80720000D01*
X170844500Y-80704000D01*
X170881500Y-80691000D01*
X170919500Y-80679000D01*
X170957500Y-80669000D01*
X170997500Y-80660000D01*
X170997500Y-79870000D01*
X171327500Y-79870000D01*
X171327500Y-80660000D01*
G36*
X171327500Y-80660000D02*
G01*
X171367500Y-80669000D01*
X171405500Y-80679000D01*
X171443500Y-80691000D01*
X171480500Y-80704000D01*
X171516500Y-80720000D01*
X171551500Y-80737000D01*
X171586500Y-80755000D01*
X171620500Y-80775000D01*
X171653500Y-80797000D01*
X171685500Y-80820000D01*
X171715500Y-80845000D01*
X171745500Y-80871000D01*
X171773500Y-80898000D01*
X171801500Y-80927000D01*
X171826500Y-80956000D01*
X171851500Y-80987000D01*
X171874500Y-81019000D01*
X171895500Y-81052000D01*
X171915500Y-81087000D01*
X171933500Y-81121000D01*
X171950500Y-81157000D01*
X171965500Y-81193000D01*
X171978500Y-81231000D01*
X171990500Y-81268000D01*
X171999500Y-81306000D01*
X172008500Y-81345000D01*
X172014500Y-81384000D01*
X172018500Y-81423000D01*
X172021500Y-81462000D01*
X172022500Y-81500000D01*
X172017500Y-81590000D01*
X172003500Y-81679000D01*
X171980500Y-81766000D01*
X171948500Y-81850000D01*
X171907500Y-81930000D01*
X171858500Y-82005000D01*
X171801500Y-82075000D01*
X171737500Y-82139000D01*
X171667500Y-82196000D01*
X171592500Y-82245000D01*
X171512500Y-82286000D01*
X171428500Y-82318000D01*
X171341500Y-82341000D01*
X171252500Y-82355000D01*
X171162500Y-82360000D01*
X171072500Y-82355000D01*
X170983500Y-82341000D01*
X170896500Y-82318000D01*
X170812500Y-82286000D01*
X170732500Y-82245000D01*
X170657500Y-82196000D01*
X170587500Y-82139000D01*
X170523500Y-82075000D01*
X170466500Y-82005000D01*
X170417500Y-81930000D01*
X170376500Y-81850000D01*
X170344500Y-81766000D01*
X170321500Y-81679000D01*
X170307500Y-81590000D01*
X170302500Y-81500000D01*
X170303500Y-81462000D01*
X170306500Y-81423000D01*
X170310500Y-81384000D01*
X170316500Y-81345000D01*
X170325500Y-81306000D01*
X170334500Y-81268000D01*
X170346500Y-81231000D01*
X170359500Y-81193000D01*
X170374500Y-81157000D01*
X170391500Y-81121000D01*
X170409500Y-81087000D01*
X170429500Y-81052000D01*
X170450500Y-81019000D01*
X170473500Y-80987000D01*
X170498500Y-80956000D01*
X170523500Y-80927000D01*
X170551500Y-80898000D01*
X170579500Y-80871000D01*
X170609500Y-80845000D01*
X170639500Y-80820000D01*
X170671500Y-80797000D01*
X170704500Y-80775000D01*
X170738500Y-80755000D01*
X170773500Y-80737000D01*
X170808500Y-80720000D01*
X170844500Y-80704000D01*
X170881500Y-80691000D01*
X170919500Y-80679000D01*
X170957500Y-80669000D01*
X170997500Y-80660000D01*
X170997500Y-79870000D01*
X171327500Y-79870000D01*
X171327500Y-80660000D01*
G37*
X155967500Y-83181000D02*
X156012500Y-83185000D01*
X156057500Y-83191000D01*
X156101500Y-83199000D01*
X156145500Y-83209000D01*
X156188500Y-83222000D01*
X156230500Y-83237000D01*
X156272500Y-83254000D01*
X156312500Y-83274000D01*
X156352500Y-83295000D01*
X156390500Y-83319000D01*
X156427500Y-83344000D01*
X156463500Y-83372000D01*
X156497500Y-83401000D01*
X156530500Y-83432000D01*
X156561500Y-83465000D01*
X156590500Y-83499000D01*
X156618500Y-83535000D01*
X156643500Y-83572000D01*
X156667500Y-83610000D01*
X156688500Y-83650000D01*
X156708500Y-83690000D01*
X156725500Y-83732000D01*
X156740500Y-83774000D01*
X156753500Y-83817000D01*
X156763500Y-83861000D01*
X156771500Y-83905000D01*
X156777500Y-83950000D01*
X156781500Y-83995000D01*
X156782500Y-84040000D01*
X156782500Y-84185000D01*
X156775500Y-84219000D01*
X156766500Y-84253000D01*
X156756500Y-84286000D01*
X156745500Y-84319000D01*
X156732500Y-84351000D01*
X156718500Y-84383000D01*
X156703500Y-84414000D01*
X156687500Y-84445000D01*
X156669500Y-84475000D01*
X156651500Y-84505000D01*
X156631500Y-84533000D01*
X156610500Y-84561000D01*
X156588500Y-84588000D01*
X156565500Y-84614000D01*
X156541500Y-84639000D01*
X156516500Y-84663000D01*
X156490500Y-84686000D01*
X156463500Y-84708000D01*
X156435500Y-84729000D01*
X156407500Y-84749000D01*
X156377500Y-84767000D01*
X156347500Y-84785000D01*
X156316500Y-84801000D01*
X156285500Y-84816000D01*
X156253500Y-84830000D01*
X156221500Y-84843000D01*
X156188500Y-84854000D01*
X156155500Y-84864000D01*
X156121500Y-84873000D01*
X156087500Y-84880000D01*
X156087500Y-85670000D01*
X155757500Y-85670000D01*
X155757500Y-84880000D01*
X155723500Y-84873000D01*
X155689500Y-84864000D01*
X155656500Y-84854000D01*
X155623500Y-84843000D01*
X155591500Y-84830000D01*
X155559500Y-84816000D01*
X155528500Y-84801000D01*
X155497500Y-84785000D01*
X155467500Y-84767000D01*
X155437500Y-84749000D01*
X155409500Y-84729000D01*
X155381500Y-84708000D01*
X155354500Y-84686000D01*
X155328500Y-84663000D01*
X155303500Y-84639000D01*
X155279500Y-84614000D01*
X155256500Y-84588000D01*
X155234500Y-84561000D01*
X155213500Y-84533000D01*
X155193500Y-84505000D01*
X155175500Y-84475000D01*
X155157500Y-84445000D01*
X155141500Y-84414000D01*
X155126500Y-84383000D01*
X155112500Y-84351000D01*
X155099500Y-84319000D01*
X155088500Y-84286000D01*
X155078500Y-84253000D01*
X155069500Y-84219000D01*
X155062500Y-84185000D01*
X155062500Y-84040000D01*
X155063500Y-83995000D01*
X155067500Y-83950000D01*
X155073500Y-83905000D01*
X155081500Y-83861000D01*
X155091500Y-83817000D01*
X155104500Y-83774000D01*
X155119500Y-83732000D01*
X155136500Y-83690000D01*
X155156500Y-83650000D01*
X155177500Y-83610000D01*
X155201500Y-83572000D01*
X155226500Y-83535000D01*
X155254500Y-83499000D01*
X155283500Y-83465000D01*
X155314500Y-83432000D01*
X155347500Y-83401000D01*
X155381500Y-83372000D01*
X155417500Y-83344000D01*
X155454500Y-83319000D01*
X155492500Y-83295000D01*
X155532500Y-83274000D01*
X155572500Y-83254000D01*
X155614500Y-83237000D01*
X155656500Y-83222000D01*
X155699500Y-83209000D01*
X155743500Y-83199000D01*
X155787500Y-83191000D01*
X155832500Y-83185000D01*
X155877500Y-83181000D01*
X155922500Y-83180000D01*
X155967500Y-83181000D01*
G36*
X155967500Y-83181000D02*
G01*
X156012500Y-83185000D01*
X156057500Y-83191000D01*
X156101500Y-83199000D01*
X156145500Y-83209000D01*
X156188500Y-83222000D01*
X156230500Y-83237000D01*
X156272500Y-83254000D01*
X156312500Y-83274000D01*
X156352500Y-83295000D01*
X156390500Y-83319000D01*
X156427500Y-83344000D01*
X156463500Y-83372000D01*
X156497500Y-83401000D01*
X156530500Y-83432000D01*
X156561500Y-83465000D01*
X156590500Y-83499000D01*
X156618500Y-83535000D01*
X156643500Y-83572000D01*
X156667500Y-83610000D01*
X156688500Y-83650000D01*
X156708500Y-83690000D01*
X156725500Y-83732000D01*
X156740500Y-83774000D01*
X156753500Y-83817000D01*
X156763500Y-83861000D01*
X156771500Y-83905000D01*
X156777500Y-83950000D01*
X156781500Y-83995000D01*
X156782500Y-84040000D01*
X156782500Y-84185000D01*
X156775500Y-84219000D01*
X156766500Y-84253000D01*
X156756500Y-84286000D01*
X156745500Y-84319000D01*
X156732500Y-84351000D01*
X156718500Y-84383000D01*
X156703500Y-84414000D01*
X156687500Y-84445000D01*
X156669500Y-84475000D01*
X156651500Y-84505000D01*
X156631500Y-84533000D01*
X156610500Y-84561000D01*
X156588500Y-84588000D01*
X156565500Y-84614000D01*
X156541500Y-84639000D01*
X156516500Y-84663000D01*
X156490500Y-84686000D01*
X156463500Y-84708000D01*
X156435500Y-84729000D01*
X156407500Y-84749000D01*
X156377500Y-84767000D01*
X156347500Y-84785000D01*
X156316500Y-84801000D01*
X156285500Y-84816000D01*
X156253500Y-84830000D01*
X156221500Y-84843000D01*
X156188500Y-84854000D01*
X156155500Y-84864000D01*
X156121500Y-84873000D01*
X156087500Y-84880000D01*
X156087500Y-85670000D01*
X155757500Y-85670000D01*
X155757500Y-84880000D01*
X155723500Y-84873000D01*
X155689500Y-84864000D01*
X155656500Y-84854000D01*
X155623500Y-84843000D01*
X155591500Y-84830000D01*
X155559500Y-84816000D01*
X155528500Y-84801000D01*
X155497500Y-84785000D01*
X155467500Y-84767000D01*
X155437500Y-84749000D01*
X155409500Y-84729000D01*
X155381500Y-84708000D01*
X155354500Y-84686000D01*
X155328500Y-84663000D01*
X155303500Y-84639000D01*
X155279500Y-84614000D01*
X155256500Y-84588000D01*
X155234500Y-84561000D01*
X155213500Y-84533000D01*
X155193500Y-84505000D01*
X155175500Y-84475000D01*
X155157500Y-84445000D01*
X155141500Y-84414000D01*
X155126500Y-84383000D01*
X155112500Y-84351000D01*
X155099500Y-84319000D01*
X155088500Y-84286000D01*
X155078500Y-84253000D01*
X155069500Y-84219000D01*
X155062500Y-84185000D01*
X155062500Y-84040000D01*
X155063500Y-83995000D01*
X155067500Y-83950000D01*
X155073500Y-83905000D01*
X155081500Y-83861000D01*
X155091500Y-83817000D01*
X155104500Y-83774000D01*
X155119500Y-83732000D01*
X155136500Y-83690000D01*
X155156500Y-83650000D01*
X155177500Y-83610000D01*
X155201500Y-83572000D01*
X155226500Y-83535000D01*
X155254500Y-83499000D01*
X155283500Y-83465000D01*
X155314500Y-83432000D01*
X155347500Y-83401000D01*
X155381500Y-83372000D01*
X155417500Y-83344000D01*
X155454500Y-83319000D01*
X155492500Y-83295000D01*
X155532500Y-83274000D01*
X155572500Y-83254000D01*
X155614500Y-83237000D01*
X155656500Y-83222000D01*
X155699500Y-83209000D01*
X155743500Y-83199000D01*
X155787500Y-83191000D01*
X155832500Y-83185000D01*
X155877500Y-83181000D01*
X155922500Y-83180000D01*
X155967500Y-83181000D01*
G37*
X158507500Y-83181000D02*
X158552500Y-83185000D01*
X158597500Y-83191000D01*
X158641500Y-83199000D01*
X158685500Y-83209000D01*
X158728500Y-83222000D01*
X158770500Y-83237000D01*
X158812500Y-83254000D01*
X158852500Y-83274000D01*
X158892500Y-83295000D01*
X158930500Y-83319000D01*
X158967500Y-83344000D01*
X159003500Y-83372000D01*
X159037500Y-83401000D01*
X159070500Y-83432000D01*
X159101500Y-83465000D01*
X159130500Y-83499000D01*
X159158500Y-83535000D01*
X159183500Y-83572000D01*
X159207500Y-83610000D01*
X159228500Y-83650000D01*
X159248500Y-83690000D01*
X159265500Y-83732000D01*
X159280500Y-83774000D01*
X159293500Y-83817000D01*
X159303500Y-83861000D01*
X159311500Y-83905000D01*
X159317500Y-83950000D01*
X159321500Y-83995000D01*
X159322500Y-84040000D01*
X159322500Y-84185000D01*
X159315500Y-84219000D01*
X159306500Y-84253000D01*
X159296500Y-84286000D01*
X159285500Y-84319000D01*
X159272500Y-84351000D01*
X159258500Y-84383000D01*
X159243500Y-84414000D01*
X159227500Y-84445000D01*
X159209500Y-84475000D01*
X159191500Y-84505000D01*
X159171500Y-84533000D01*
X159150500Y-84561000D01*
X159128500Y-84588000D01*
X159105500Y-84614000D01*
X159081500Y-84639000D01*
X159056500Y-84663000D01*
X159030500Y-84686000D01*
X159003500Y-84708000D01*
X158975500Y-84729000D01*
X158947500Y-84749000D01*
X158917500Y-84767000D01*
X158887500Y-84785000D01*
X158856500Y-84801000D01*
X158825500Y-84816000D01*
X158793500Y-84830000D01*
X158761500Y-84843000D01*
X158728500Y-84854000D01*
X158695500Y-84864000D01*
X158661500Y-84873000D01*
X158627500Y-84880000D01*
X158627500Y-85670000D01*
X158297500Y-85670000D01*
X158297500Y-84880000D01*
X158263500Y-84873000D01*
X158229500Y-84864000D01*
X158196500Y-84854000D01*
X158163500Y-84843000D01*
X158131500Y-84830000D01*
X158099500Y-84816000D01*
X158068500Y-84801000D01*
X158037500Y-84785000D01*
X158007500Y-84767000D01*
X157977500Y-84749000D01*
X157949500Y-84729000D01*
X157921500Y-84708000D01*
X157894500Y-84686000D01*
X157868500Y-84663000D01*
X157843500Y-84639000D01*
X157819500Y-84614000D01*
X157796500Y-84588000D01*
X157774500Y-84561000D01*
X157753500Y-84533000D01*
X157733500Y-84505000D01*
X157715500Y-84475000D01*
X157697500Y-84445000D01*
X157681500Y-84414000D01*
X157666500Y-84383000D01*
X157652500Y-84351000D01*
X157639500Y-84319000D01*
X157628500Y-84286000D01*
X157618500Y-84253000D01*
X157609500Y-84219000D01*
X157602500Y-84185000D01*
X157602500Y-84040000D01*
X157603500Y-83995000D01*
X157607500Y-83950000D01*
X157613500Y-83905000D01*
X157621500Y-83861000D01*
X157631500Y-83817000D01*
X157644500Y-83774000D01*
X157659500Y-83732000D01*
X157676500Y-83690000D01*
X157696500Y-83650000D01*
X157717500Y-83610000D01*
X157741500Y-83572000D01*
X157766500Y-83535000D01*
X157794500Y-83499000D01*
X157823500Y-83465000D01*
X157854500Y-83432000D01*
X157887500Y-83401000D01*
X157921500Y-83372000D01*
X157957500Y-83344000D01*
X157994500Y-83319000D01*
X158032500Y-83295000D01*
X158072500Y-83274000D01*
X158112500Y-83254000D01*
X158154500Y-83237000D01*
X158196500Y-83222000D01*
X158239500Y-83209000D01*
X158283500Y-83199000D01*
X158327500Y-83191000D01*
X158372500Y-83185000D01*
X158417500Y-83181000D01*
X158462500Y-83180000D01*
X158507500Y-83181000D01*
G36*
X158507500Y-83181000D02*
G01*
X158552500Y-83185000D01*
X158597500Y-83191000D01*
X158641500Y-83199000D01*
X158685500Y-83209000D01*
X158728500Y-83222000D01*
X158770500Y-83237000D01*
X158812500Y-83254000D01*
X158852500Y-83274000D01*
X158892500Y-83295000D01*
X158930500Y-83319000D01*
X158967500Y-83344000D01*
X159003500Y-83372000D01*
X159037500Y-83401000D01*
X159070500Y-83432000D01*
X159101500Y-83465000D01*
X159130500Y-83499000D01*
X159158500Y-83535000D01*
X159183500Y-83572000D01*
X159207500Y-83610000D01*
X159228500Y-83650000D01*
X159248500Y-83690000D01*
X159265500Y-83732000D01*
X159280500Y-83774000D01*
X159293500Y-83817000D01*
X159303500Y-83861000D01*
X159311500Y-83905000D01*
X159317500Y-83950000D01*
X159321500Y-83995000D01*
X159322500Y-84040000D01*
X159322500Y-84185000D01*
X159315500Y-84219000D01*
X159306500Y-84253000D01*
X159296500Y-84286000D01*
X159285500Y-84319000D01*
X159272500Y-84351000D01*
X159258500Y-84383000D01*
X159243500Y-84414000D01*
X159227500Y-84445000D01*
X159209500Y-84475000D01*
X159191500Y-84505000D01*
X159171500Y-84533000D01*
X159150500Y-84561000D01*
X159128500Y-84588000D01*
X159105500Y-84614000D01*
X159081500Y-84639000D01*
X159056500Y-84663000D01*
X159030500Y-84686000D01*
X159003500Y-84708000D01*
X158975500Y-84729000D01*
X158947500Y-84749000D01*
X158917500Y-84767000D01*
X158887500Y-84785000D01*
X158856500Y-84801000D01*
X158825500Y-84816000D01*
X158793500Y-84830000D01*
X158761500Y-84843000D01*
X158728500Y-84854000D01*
X158695500Y-84864000D01*
X158661500Y-84873000D01*
X158627500Y-84880000D01*
X158627500Y-85670000D01*
X158297500Y-85670000D01*
X158297500Y-84880000D01*
X158263500Y-84873000D01*
X158229500Y-84864000D01*
X158196500Y-84854000D01*
X158163500Y-84843000D01*
X158131500Y-84830000D01*
X158099500Y-84816000D01*
X158068500Y-84801000D01*
X158037500Y-84785000D01*
X158007500Y-84767000D01*
X157977500Y-84749000D01*
X157949500Y-84729000D01*
X157921500Y-84708000D01*
X157894500Y-84686000D01*
X157868500Y-84663000D01*
X157843500Y-84639000D01*
X157819500Y-84614000D01*
X157796500Y-84588000D01*
X157774500Y-84561000D01*
X157753500Y-84533000D01*
X157733500Y-84505000D01*
X157715500Y-84475000D01*
X157697500Y-84445000D01*
X157681500Y-84414000D01*
X157666500Y-84383000D01*
X157652500Y-84351000D01*
X157639500Y-84319000D01*
X157628500Y-84286000D01*
X157618500Y-84253000D01*
X157609500Y-84219000D01*
X157602500Y-84185000D01*
X157602500Y-84040000D01*
X157603500Y-83995000D01*
X157607500Y-83950000D01*
X157613500Y-83905000D01*
X157621500Y-83861000D01*
X157631500Y-83817000D01*
X157644500Y-83774000D01*
X157659500Y-83732000D01*
X157676500Y-83690000D01*
X157696500Y-83650000D01*
X157717500Y-83610000D01*
X157741500Y-83572000D01*
X157766500Y-83535000D01*
X157794500Y-83499000D01*
X157823500Y-83465000D01*
X157854500Y-83432000D01*
X157887500Y-83401000D01*
X157921500Y-83372000D01*
X157957500Y-83344000D01*
X157994500Y-83319000D01*
X158032500Y-83295000D01*
X158072500Y-83274000D01*
X158112500Y-83254000D01*
X158154500Y-83237000D01*
X158196500Y-83222000D01*
X158239500Y-83209000D01*
X158283500Y-83199000D01*
X158327500Y-83191000D01*
X158372500Y-83185000D01*
X158417500Y-83181000D01*
X158462500Y-83180000D01*
X158507500Y-83181000D01*
G37*
X161047500Y-83181000D02*
X161092500Y-83185000D01*
X161137500Y-83191000D01*
X161181500Y-83199000D01*
X161225500Y-83209000D01*
X161268500Y-83222000D01*
X161310500Y-83237000D01*
X161352500Y-83254000D01*
X161392500Y-83274000D01*
X161432500Y-83295000D01*
X161470500Y-83319000D01*
X161507500Y-83344000D01*
X161543500Y-83372000D01*
X161577500Y-83401000D01*
X161610500Y-83432000D01*
X161641500Y-83465000D01*
X161670500Y-83499000D01*
X161698500Y-83535000D01*
X161723500Y-83572000D01*
X161747500Y-83610000D01*
X161768500Y-83650000D01*
X161788500Y-83690000D01*
X161805500Y-83732000D01*
X161820500Y-83774000D01*
X161833500Y-83817000D01*
X161843500Y-83861000D01*
X161851500Y-83905000D01*
X161857500Y-83950000D01*
X161861500Y-83995000D01*
X161862500Y-84040000D01*
X161862500Y-84185000D01*
X161855500Y-84219000D01*
X161846500Y-84253000D01*
X161836500Y-84286000D01*
X161825500Y-84319000D01*
X161812500Y-84351000D01*
X161798500Y-84383000D01*
X161783500Y-84414000D01*
X161767500Y-84445000D01*
X161749500Y-84475000D01*
X161731500Y-84505000D01*
X161711500Y-84533000D01*
X161690500Y-84561000D01*
X161668500Y-84588000D01*
X161645500Y-84614000D01*
X161621500Y-84639000D01*
X161596500Y-84663000D01*
X161570500Y-84686000D01*
X161543500Y-84708000D01*
X161515500Y-84729000D01*
X161487500Y-84749000D01*
X161457500Y-84767000D01*
X161427500Y-84785000D01*
X161396500Y-84801000D01*
X161365500Y-84816000D01*
X161333500Y-84830000D01*
X161301500Y-84843000D01*
X161268500Y-84854000D01*
X161235500Y-84864000D01*
X161201500Y-84873000D01*
X161167500Y-84880000D01*
X161167500Y-85670000D01*
X160837500Y-85670000D01*
X160837500Y-84880000D01*
X160803500Y-84873000D01*
X160769500Y-84864000D01*
X160736500Y-84854000D01*
X160703500Y-84843000D01*
X160671500Y-84830000D01*
X160639500Y-84816000D01*
X160608500Y-84801000D01*
X160577500Y-84785000D01*
X160547500Y-84767000D01*
X160517500Y-84749000D01*
X160489500Y-84729000D01*
X160461500Y-84708000D01*
X160434500Y-84686000D01*
X160408500Y-84663000D01*
X160383500Y-84639000D01*
X160359500Y-84614000D01*
X160336500Y-84588000D01*
X160314500Y-84561000D01*
X160293500Y-84533000D01*
X160273500Y-84505000D01*
X160255500Y-84475000D01*
X160237500Y-84445000D01*
X160221500Y-84414000D01*
X160206500Y-84383000D01*
X160192500Y-84351000D01*
X160179500Y-84319000D01*
X160168500Y-84286000D01*
X160158500Y-84253000D01*
X160149500Y-84219000D01*
X160142500Y-84185000D01*
X160142500Y-84040000D01*
X160143500Y-83995000D01*
X160147500Y-83950000D01*
X160153500Y-83905000D01*
X160161500Y-83861000D01*
X160171500Y-83817000D01*
X160184500Y-83774000D01*
X160199500Y-83732000D01*
X160216500Y-83690000D01*
X160236500Y-83650000D01*
X160257500Y-83610000D01*
X160281500Y-83572000D01*
X160306500Y-83535000D01*
X160334500Y-83499000D01*
X160363500Y-83465000D01*
X160394500Y-83432000D01*
X160427500Y-83401000D01*
X160461500Y-83372000D01*
X160497500Y-83344000D01*
X160534500Y-83319000D01*
X160572500Y-83295000D01*
X160612500Y-83274000D01*
X160652500Y-83254000D01*
X160694500Y-83237000D01*
X160736500Y-83222000D01*
X160779500Y-83209000D01*
X160823500Y-83199000D01*
X160867500Y-83191000D01*
X160912500Y-83185000D01*
X160957500Y-83181000D01*
X161002500Y-83180000D01*
X161047500Y-83181000D01*
G36*
X161047500Y-83181000D02*
G01*
X161092500Y-83185000D01*
X161137500Y-83191000D01*
X161181500Y-83199000D01*
X161225500Y-83209000D01*
X161268500Y-83222000D01*
X161310500Y-83237000D01*
X161352500Y-83254000D01*
X161392500Y-83274000D01*
X161432500Y-83295000D01*
X161470500Y-83319000D01*
X161507500Y-83344000D01*
X161543500Y-83372000D01*
X161577500Y-83401000D01*
X161610500Y-83432000D01*
X161641500Y-83465000D01*
X161670500Y-83499000D01*
X161698500Y-83535000D01*
X161723500Y-83572000D01*
X161747500Y-83610000D01*
X161768500Y-83650000D01*
X161788500Y-83690000D01*
X161805500Y-83732000D01*
X161820500Y-83774000D01*
X161833500Y-83817000D01*
X161843500Y-83861000D01*
X161851500Y-83905000D01*
X161857500Y-83950000D01*
X161861500Y-83995000D01*
X161862500Y-84040000D01*
X161862500Y-84185000D01*
X161855500Y-84219000D01*
X161846500Y-84253000D01*
X161836500Y-84286000D01*
X161825500Y-84319000D01*
X161812500Y-84351000D01*
X161798500Y-84383000D01*
X161783500Y-84414000D01*
X161767500Y-84445000D01*
X161749500Y-84475000D01*
X161731500Y-84505000D01*
X161711500Y-84533000D01*
X161690500Y-84561000D01*
X161668500Y-84588000D01*
X161645500Y-84614000D01*
X161621500Y-84639000D01*
X161596500Y-84663000D01*
X161570500Y-84686000D01*
X161543500Y-84708000D01*
X161515500Y-84729000D01*
X161487500Y-84749000D01*
X161457500Y-84767000D01*
X161427500Y-84785000D01*
X161396500Y-84801000D01*
X161365500Y-84816000D01*
X161333500Y-84830000D01*
X161301500Y-84843000D01*
X161268500Y-84854000D01*
X161235500Y-84864000D01*
X161201500Y-84873000D01*
X161167500Y-84880000D01*
X161167500Y-85670000D01*
X160837500Y-85670000D01*
X160837500Y-84880000D01*
X160803500Y-84873000D01*
X160769500Y-84864000D01*
X160736500Y-84854000D01*
X160703500Y-84843000D01*
X160671500Y-84830000D01*
X160639500Y-84816000D01*
X160608500Y-84801000D01*
X160577500Y-84785000D01*
X160547500Y-84767000D01*
X160517500Y-84749000D01*
X160489500Y-84729000D01*
X160461500Y-84708000D01*
X160434500Y-84686000D01*
X160408500Y-84663000D01*
X160383500Y-84639000D01*
X160359500Y-84614000D01*
X160336500Y-84588000D01*
X160314500Y-84561000D01*
X160293500Y-84533000D01*
X160273500Y-84505000D01*
X160255500Y-84475000D01*
X160237500Y-84445000D01*
X160221500Y-84414000D01*
X160206500Y-84383000D01*
X160192500Y-84351000D01*
X160179500Y-84319000D01*
X160168500Y-84286000D01*
X160158500Y-84253000D01*
X160149500Y-84219000D01*
X160142500Y-84185000D01*
X160142500Y-84040000D01*
X160143500Y-83995000D01*
X160147500Y-83950000D01*
X160153500Y-83905000D01*
X160161500Y-83861000D01*
X160171500Y-83817000D01*
X160184500Y-83774000D01*
X160199500Y-83732000D01*
X160216500Y-83690000D01*
X160236500Y-83650000D01*
X160257500Y-83610000D01*
X160281500Y-83572000D01*
X160306500Y-83535000D01*
X160334500Y-83499000D01*
X160363500Y-83465000D01*
X160394500Y-83432000D01*
X160427500Y-83401000D01*
X160461500Y-83372000D01*
X160497500Y-83344000D01*
X160534500Y-83319000D01*
X160572500Y-83295000D01*
X160612500Y-83274000D01*
X160652500Y-83254000D01*
X160694500Y-83237000D01*
X160736500Y-83222000D01*
X160779500Y-83209000D01*
X160823500Y-83199000D01*
X160867500Y-83191000D01*
X160912500Y-83185000D01*
X160957500Y-83181000D01*
X161002500Y-83180000D01*
X161047500Y-83181000D01*
G37*
X163587500Y-83181000D02*
X163632500Y-83185000D01*
X163677500Y-83191000D01*
X163721500Y-83199000D01*
X163765500Y-83209000D01*
X163808500Y-83222000D01*
X163850500Y-83237000D01*
X163892500Y-83254000D01*
X163932500Y-83274000D01*
X163972500Y-83295000D01*
X164010500Y-83319000D01*
X164047500Y-83344000D01*
X164083500Y-83372000D01*
X164117500Y-83401000D01*
X164150500Y-83432000D01*
X164181500Y-83465000D01*
X164210500Y-83499000D01*
X164238500Y-83535000D01*
X164263500Y-83572000D01*
X164287500Y-83610000D01*
X164308500Y-83650000D01*
X164328500Y-83690000D01*
X164345500Y-83732000D01*
X164360500Y-83774000D01*
X164373500Y-83817000D01*
X164383500Y-83861000D01*
X164391500Y-83905000D01*
X164397500Y-83950000D01*
X164401500Y-83995000D01*
X164402500Y-84040000D01*
X164402500Y-84185000D01*
X164395500Y-84219000D01*
X164386500Y-84253000D01*
X164376500Y-84286000D01*
X164365500Y-84319000D01*
X164352500Y-84351000D01*
X164338500Y-84383000D01*
X164323500Y-84414000D01*
X164307500Y-84445000D01*
X164289500Y-84475000D01*
X164271500Y-84505000D01*
X164251500Y-84533000D01*
X164230500Y-84561000D01*
X164208500Y-84588000D01*
X164185500Y-84614000D01*
X164161500Y-84639000D01*
X164136500Y-84663000D01*
X164110500Y-84686000D01*
X164083500Y-84708000D01*
X164055500Y-84729000D01*
X164027500Y-84749000D01*
X163997500Y-84767000D01*
X163967500Y-84785000D01*
X163936500Y-84801000D01*
X163905500Y-84816000D01*
X163873500Y-84830000D01*
X163841500Y-84843000D01*
X163808500Y-84854000D01*
X163775500Y-84864000D01*
X163741500Y-84873000D01*
X163707500Y-84880000D01*
X163707500Y-85670000D01*
X163377500Y-85670000D01*
X163377500Y-84880000D01*
X163343500Y-84873000D01*
X163309500Y-84864000D01*
X163276500Y-84854000D01*
X163243500Y-84843000D01*
X163211500Y-84830000D01*
X163179500Y-84816000D01*
X163148500Y-84801000D01*
X163117500Y-84785000D01*
X163087500Y-84767000D01*
X163057500Y-84749000D01*
X163029500Y-84729000D01*
X163001500Y-84708000D01*
X162974500Y-84686000D01*
X162948500Y-84663000D01*
X162923500Y-84639000D01*
X162899500Y-84614000D01*
X162876500Y-84588000D01*
X162854500Y-84561000D01*
X162833500Y-84533000D01*
X162813500Y-84505000D01*
X162795500Y-84475000D01*
X162777500Y-84445000D01*
X162761500Y-84414000D01*
X162746500Y-84383000D01*
X162732500Y-84351000D01*
X162719500Y-84319000D01*
X162708500Y-84286000D01*
X162698500Y-84253000D01*
X162689500Y-84219000D01*
X162682500Y-84185000D01*
X162682500Y-84040000D01*
X162683500Y-83995000D01*
X162687500Y-83950000D01*
X162693500Y-83905000D01*
X162701500Y-83861000D01*
X162711500Y-83817000D01*
X162724500Y-83774000D01*
X162739500Y-83732000D01*
X162756500Y-83690000D01*
X162776500Y-83650000D01*
X162797500Y-83610000D01*
X162821500Y-83572000D01*
X162846500Y-83535000D01*
X162874500Y-83499000D01*
X162903500Y-83465000D01*
X162934500Y-83432000D01*
X162967500Y-83401000D01*
X163001500Y-83372000D01*
X163037500Y-83344000D01*
X163074500Y-83319000D01*
X163112500Y-83295000D01*
X163152500Y-83274000D01*
X163192500Y-83254000D01*
X163234500Y-83237000D01*
X163276500Y-83222000D01*
X163319500Y-83209000D01*
X163363500Y-83199000D01*
X163407500Y-83191000D01*
X163452500Y-83185000D01*
X163497500Y-83181000D01*
X163542500Y-83180000D01*
X163587500Y-83181000D01*
G36*
X163587500Y-83181000D02*
G01*
X163632500Y-83185000D01*
X163677500Y-83191000D01*
X163721500Y-83199000D01*
X163765500Y-83209000D01*
X163808500Y-83222000D01*
X163850500Y-83237000D01*
X163892500Y-83254000D01*
X163932500Y-83274000D01*
X163972500Y-83295000D01*
X164010500Y-83319000D01*
X164047500Y-83344000D01*
X164083500Y-83372000D01*
X164117500Y-83401000D01*
X164150500Y-83432000D01*
X164181500Y-83465000D01*
X164210500Y-83499000D01*
X164238500Y-83535000D01*
X164263500Y-83572000D01*
X164287500Y-83610000D01*
X164308500Y-83650000D01*
X164328500Y-83690000D01*
X164345500Y-83732000D01*
X164360500Y-83774000D01*
X164373500Y-83817000D01*
X164383500Y-83861000D01*
X164391500Y-83905000D01*
X164397500Y-83950000D01*
X164401500Y-83995000D01*
X164402500Y-84040000D01*
X164402500Y-84185000D01*
X164395500Y-84219000D01*
X164386500Y-84253000D01*
X164376500Y-84286000D01*
X164365500Y-84319000D01*
X164352500Y-84351000D01*
X164338500Y-84383000D01*
X164323500Y-84414000D01*
X164307500Y-84445000D01*
X164289500Y-84475000D01*
X164271500Y-84505000D01*
X164251500Y-84533000D01*
X164230500Y-84561000D01*
X164208500Y-84588000D01*
X164185500Y-84614000D01*
X164161500Y-84639000D01*
X164136500Y-84663000D01*
X164110500Y-84686000D01*
X164083500Y-84708000D01*
X164055500Y-84729000D01*
X164027500Y-84749000D01*
X163997500Y-84767000D01*
X163967500Y-84785000D01*
X163936500Y-84801000D01*
X163905500Y-84816000D01*
X163873500Y-84830000D01*
X163841500Y-84843000D01*
X163808500Y-84854000D01*
X163775500Y-84864000D01*
X163741500Y-84873000D01*
X163707500Y-84880000D01*
X163707500Y-85670000D01*
X163377500Y-85670000D01*
X163377500Y-84880000D01*
X163343500Y-84873000D01*
X163309500Y-84864000D01*
X163276500Y-84854000D01*
X163243500Y-84843000D01*
X163211500Y-84830000D01*
X163179500Y-84816000D01*
X163148500Y-84801000D01*
X163117500Y-84785000D01*
X163087500Y-84767000D01*
X163057500Y-84749000D01*
X163029500Y-84729000D01*
X163001500Y-84708000D01*
X162974500Y-84686000D01*
X162948500Y-84663000D01*
X162923500Y-84639000D01*
X162899500Y-84614000D01*
X162876500Y-84588000D01*
X162854500Y-84561000D01*
X162833500Y-84533000D01*
X162813500Y-84505000D01*
X162795500Y-84475000D01*
X162777500Y-84445000D01*
X162761500Y-84414000D01*
X162746500Y-84383000D01*
X162732500Y-84351000D01*
X162719500Y-84319000D01*
X162708500Y-84286000D01*
X162698500Y-84253000D01*
X162689500Y-84219000D01*
X162682500Y-84185000D01*
X162682500Y-84040000D01*
X162683500Y-83995000D01*
X162687500Y-83950000D01*
X162693500Y-83905000D01*
X162701500Y-83861000D01*
X162711500Y-83817000D01*
X162724500Y-83774000D01*
X162739500Y-83732000D01*
X162756500Y-83690000D01*
X162776500Y-83650000D01*
X162797500Y-83610000D01*
X162821500Y-83572000D01*
X162846500Y-83535000D01*
X162874500Y-83499000D01*
X162903500Y-83465000D01*
X162934500Y-83432000D01*
X162967500Y-83401000D01*
X163001500Y-83372000D01*
X163037500Y-83344000D01*
X163074500Y-83319000D01*
X163112500Y-83295000D01*
X163152500Y-83274000D01*
X163192500Y-83254000D01*
X163234500Y-83237000D01*
X163276500Y-83222000D01*
X163319500Y-83209000D01*
X163363500Y-83199000D01*
X163407500Y-83191000D01*
X163452500Y-83185000D01*
X163497500Y-83181000D01*
X163542500Y-83180000D01*
X163587500Y-83181000D01*
G37*
X166127500Y-83181000D02*
X166172500Y-83185000D01*
X166217500Y-83191000D01*
X166261500Y-83199000D01*
X166305500Y-83209000D01*
X166348500Y-83222000D01*
X166390500Y-83237000D01*
X166432500Y-83254000D01*
X166472500Y-83274000D01*
X166512500Y-83295000D01*
X166550500Y-83319000D01*
X166587500Y-83344000D01*
X166623500Y-83372000D01*
X166657500Y-83401000D01*
X166690500Y-83432000D01*
X166721500Y-83465000D01*
X166750500Y-83499000D01*
X166778500Y-83535000D01*
X166803500Y-83572000D01*
X166827500Y-83610000D01*
X166848500Y-83650000D01*
X166868500Y-83690000D01*
X166885500Y-83732000D01*
X166900500Y-83774000D01*
X166913500Y-83817000D01*
X166923500Y-83861000D01*
X166931500Y-83905000D01*
X166937500Y-83950000D01*
X166941500Y-83995000D01*
X166942500Y-84040000D01*
X166942500Y-84185000D01*
X166935500Y-84219000D01*
X166926500Y-84253000D01*
X166916500Y-84286000D01*
X166905500Y-84319000D01*
X166892500Y-84351000D01*
X166878500Y-84383000D01*
X166863500Y-84414000D01*
X166847500Y-84445000D01*
X166829500Y-84475000D01*
X166811500Y-84505000D01*
X166791500Y-84533000D01*
X166770500Y-84561000D01*
X166748500Y-84588000D01*
X166725500Y-84614000D01*
X166701500Y-84639000D01*
X166676500Y-84663000D01*
X166650500Y-84686000D01*
X166623500Y-84708000D01*
X166595500Y-84729000D01*
X166567500Y-84749000D01*
X166537500Y-84767000D01*
X166507500Y-84785000D01*
X166476500Y-84801000D01*
X166445500Y-84816000D01*
X166413500Y-84830000D01*
X166381500Y-84843000D01*
X166348500Y-84854000D01*
X166315500Y-84864000D01*
X166281500Y-84873000D01*
X166247500Y-84880000D01*
X166247500Y-85670000D01*
X165917500Y-85670000D01*
X165917500Y-84880000D01*
X165883500Y-84873000D01*
X165849500Y-84864000D01*
X165816500Y-84854000D01*
X165783500Y-84843000D01*
X165751500Y-84830000D01*
X165719500Y-84816000D01*
X165688500Y-84801000D01*
X165657500Y-84785000D01*
X165627500Y-84767000D01*
X165597500Y-84749000D01*
X165569500Y-84729000D01*
X165541500Y-84708000D01*
X165514500Y-84686000D01*
X165488500Y-84663000D01*
X165463500Y-84639000D01*
X165439500Y-84614000D01*
X165416500Y-84588000D01*
X165394500Y-84561000D01*
X165373500Y-84533000D01*
X165353500Y-84505000D01*
X165335500Y-84475000D01*
X165317500Y-84445000D01*
X165301500Y-84414000D01*
X165286500Y-84383000D01*
X165272500Y-84351000D01*
X165259500Y-84319000D01*
X165248500Y-84286000D01*
X165238500Y-84253000D01*
X165229500Y-84219000D01*
X165222500Y-84185000D01*
X165222500Y-84040000D01*
X165223500Y-83995000D01*
X165227500Y-83950000D01*
X165233500Y-83905000D01*
X165241500Y-83861000D01*
X165251500Y-83817000D01*
X165264500Y-83774000D01*
X165279500Y-83732000D01*
X165296500Y-83690000D01*
X165316500Y-83650000D01*
X165337500Y-83610000D01*
X165361500Y-83572000D01*
X165386500Y-83535000D01*
X165414500Y-83499000D01*
X165443500Y-83465000D01*
X165474500Y-83432000D01*
X165507500Y-83401000D01*
X165541500Y-83372000D01*
X165577500Y-83344000D01*
X165614500Y-83319000D01*
X165652500Y-83295000D01*
X165692500Y-83274000D01*
X165732500Y-83254000D01*
X165774500Y-83237000D01*
X165816500Y-83222000D01*
X165859500Y-83209000D01*
X165903500Y-83199000D01*
X165947500Y-83191000D01*
X165992500Y-83185000D01*
X166037500Y-83181000D01*
X166082500Y-83180000D01*
X166127500Y-83181000D01*
G36*
X166127500Y-83181000D02*
G01*
X166172500Y-83185000D01*
X166217500Y-83191000D01*
X166261500Y-83199000D01*
X166305500Y-83209000D01*
X166348500Y-83222000D01*
X166390500Y-83237000D01*
X166432500Y-83254000D01*
X166472500Y-83274000D01*
X166512500Y-83295000D01*
X166550500Y-83319000D01*
X166587500Y-83344000D01*
X166623500Y-83372000D01*
X166657500Y-83401000D01*
X166690500Y-83432000D01*
X166721500Y-83465000D01*
X166750500Y-83499000D01*
X166778500Y-83535000D01*
X166803500Y-83572000D01*
X166827500Y-83610000D01*
X166848500Y-83650000D01*
X166868500Y-83690000D01*
X166885500Y-83732000D01*
X166900500Y-83774000D01*
X166913500Y-83817000D01*
X166923500Y-83861000D01*
X166931500Y-83905000D01*
X166937500Y-83950000D01*
X166941500Y-83995000D01*
X166942500Y-84040000D01*
X166942500Y-84185000D01*
X166935500Y-84219000D01*
X166926500Y-84253000D01*
X166916500Y-84286000D01*
X166905500Y-84319000D01*
X166892500Y-84351000D01*
X166878500Y-84383000D01*
X166863500Y-84414000D01*
X166847500Y-84445000D01*
X166829500Y-84475000D01*
X166811500Y-84505000D01*
X166791500Y-84533000D01*
X166770500Y-84561000D01*
X166748500Y-84588000D01*
X166725500Y-84614000D01*
X166701500Y-84639000D01*
X166676500Y-84663000D01*
X166650500Y-84686000D01*
X166623500Y-84708000D01*
X166595500Y-84729000D01*
X166567500Y-84749000D01*
X166537500Y-84767000D01*
X166507500Y-84785000D01*
X166476500Y-84801000D01*
X166445500Y-84816000D01*
X166413500Y-84830000D01*
X166381500Y-84843000D01*
X166348500Y-84854000D01*
X166315500Y-84864000D01*
X166281500Y-84873000D01*
X166247500Y-84880000D01*
X166247500Y-85670000D01*
X165917500Y-85670000D01*
X165917500Y-84880000D01*
X165883500Y-84873000D01*
X165849500Y-84864000D01*
X165816500Y-84854000D01*
X165783500Y-84843000D01*
X165751500Y-84830000D01*
X165719500Y-84816000D01*
X165688500Y-84801000D01*
X165657500Y-84785000D01*
X165627500Y-84767000D01*
X165597500Y-84749000D01*
X165569500Y-84729000D01*
X165541500Y-84708000D01*
X165514500Y-84686000D01*
X165488500Y-84663000D01*
X165463500Y-84639000D01*
X165439500Y-84614000D01*
X165416500Y-84588000D01*
X165394500Y-84561000D01*
X165373500Y-84533000D01*
X165353500Y-84505000D01*
X165335500Y-84475000D01*
X165317500Y-84445000D01*
X165301500Y-84414000D01*
X165286500Y-84383000D01*
X165272500Y-84351000D01*
X165259500Y-84319000D01*
X165248500Y-84286000D01*
X165238500Y-84253000D01*
X165229500Y-84219000D01*
X165222500Y-84185000D01*
X165222500Y-84040000D01*
X165223500Y-83995000D01*
X165227500Y-83950000D01*
X165233500Y-83905000D01*
X165241500Y-83861000D01*
X165251500Y-83817000D01*
X165264500Y-83774000D01*
X165279500Y-83732000D01*
X165296500Y-83690000D01*
X165316500Y-83650000D01*
X165337500Y-83610000D01*
X165361500Y-83572000D01*
X165386500Y-83535000D01*
X165414500Y-83499000D01*
X165443500Y-83465000D01*
X165474500Y-83432000D01*
X165507500Y-83401000D01*
X165541500Y-83372000D01*
X165577500Y-83344000D01*
X165614500Y-83319000D01*
X165652500Y-83295000D01*
X165692500Y-83274000D01*
X165732500Y-83254000D01*
X165774500Y-83237000D01*
X165816500Y-83222000D01*
X165859500Y-83209000D01*
X165903500Y-83199000D01*
X165947500Y-83191000D01*
X165992500Y-83185000D01*
X166037500Y-83181000D01*
X166082500Y-83180000D01*
X166127500Y-83181000D01*
G37*
X168667500Y-83181000D02*
X168712500Y-83185000D01*
X168757500Y-83191000D01*
X168801500Y-83199000D01*
X168845500Y-83209000D01*
X168888500Y-83222000D01*
X168930500Y-83237000D01*
X168972500Y-83254000D01*
X169012500Y-83274000D01*
X169052500Y-83295000D01*
X169090500Y-83319000D01*
X169127500Y-83344000D01*
X169163500Y-83372000D01*
X169197500Y-83401000D01*
X169230500Y-83432000D01*
X169261500Y-83465000D01*
X169290500Y-83499000D01*
X169318500Y-83535000D01*
X169343500Y-83572000D01*
X169367500Y-83610000D01*
X169388500Y-83650000D01*
X169408500Y-83690000D01*
X169425500Y-83732000D01*
X169440500Y-83774000D01*
X169453500Y-83817000D01*
X169463500Y-83861000D01*
X169471500Y-83905000D01*
X169477500Y-83950000D01*
X169481500Y-83995000D01*
X169482500Y-84040000D01*
X169482500Y-84185000D01*
X169475500Y-84219000D01*
X169466500Y-84253000D01*
X169456500Y-84286000D01*
X169445500Y-84319000D01*
X169432500Y-84351000D01*
X169418500Y-84383000D01*
X169403500Y-84414000D01*
X169387500Y-84445000D01*
X169369500Y-84475000D01*
X169351500Y-84505000D01*
X169331500Y-84533000D01*
X169310500Y-84561000D01*
X169288500Y-84588000D01*
X169265500Y-84614000D01*
X169241500Y-84639000D01*
X169216500Y-84663000D01*
X169190500Y-84686000D01*
X169163500Y-84708000D01*
X169135500Y-84729000D01*
X169107500Y-84749000D01*
X169077500Y-84767000D01*
X169047500Y-84785000D01*
X169016500Y-84801000D01*
X168985500Y-84816000D01*
X168953500Y-84830000D01*
X168921500Y-84843000D01*
X168888500Y-84854000D01*
X168855500Y-84864000D01*
X168821500Y-84873000D01*
X168787500Y-84880000D01*
X168787500Y-85670000D01*
X168457500Y-85670000D01*
X168457500Y-84880000D01*
X168423500Y-84873000D01*
X168389500Y-84864000D01*
X168356500Y-84854000D01*
X168323500Y-84843000D01*
X168291500Y-84830000D01*
X168259500Y-84816000D01*
X168228500Y-84801000D01*
X168197500Y-84785000D01*
X168167500Y-84767000D01*
X168137500Y-84749000D01*
X168109500Y-84729000D01*
X168081500Y-84708000D01*
X168054500Y-84686000D01*
X168028500Y-84663000D01*
X168003500Y-84639000D01*
X167979500Y-84614000D01*
X167956500Y-84588000D01*
X167934500Y-84561000D01*
X167913500Y-84533000D01*
X167893500Y-84505000D01*
X167875500Y-84475000D01*
X167857500Y-84445000D01*
X167841500Y-84414000D01*
X167826500Y-84383000D01*
X167812500Y-84351000D01*
X167799500Y-84319000D01*
X167788500Y-84286000D01*
X167778500Y-84253000D01*
X167769500Y-84219000D01*
X167762500Y-84185000D01*
X167762500Y-84040000D01*
X167763500Y-83995000D01*
X167767500Y-83950000D01*
X167773500Y-83905000D01*
X167781500Y-83861000D01*
X167791500Y-83817000D01*
X167804500Y-83774000D01*
X167819500Y-83732000D01*
X167836500Y-83690000D01*
X167856500Y-83650000D01*
X167877500Y-83610000D01*
X167901500Y-83572000D01*
X167926500Y-83535000D01*
X167954500Y-83499000D01*
X167983500Y-83465000D01*
X168014500Y-83432000D01*
X168047500Y-83401000D01*
X168081500Y-83372000D01*
X168117500Y-83344000D01*
X168154500Y-83319000D01*
X168192500Y-83295000D01*
X168232500Y-83274000D01*
X168272500Y-83254000D01*
X168314500Y-83237000D01*
X168356500Y-83222000D01*
X168399500Y-83209000D01*
X168443500Y-83199000D01*
X168487500Y-83191000D01*
X168532500Y-83185000D01*
X168577500Y-83181000D01*
X168622500Y-83180000D01*
X168667500Y-83181000D01*
G36*
X168667500Y-83181000D02*
G01*
X168712500Y-83185000D01*
X168757500Y-83191000D01*
X168801500Y-83199000D01*
X168845500Y-83209000D01*
X168888500Y-83222000D01*
X168930500Y-83237000D01*
X168972500Y-83254000D01*
X169012500Y-83274000D01*
X169052500Y-83295000D01*
X169090500Y-83319000D01*
X169127500Y-83344000D01*
X169163500Y-83372000D01*
X169197500Y-83401000D01*
X169230500Y-83432000D01*
X169261500Y-83465000D01*
X169290500Y-83499000D01*
X169318500Y-83535000D01*
X169343500Y-83572000D01*
X169367500Y-83610000D01*
X169388500Y-83650000D01*
X169408500Y-83690000D01*
X169425500Y-83732000D01*
X169440500Y-83774000D01*
X169453500Y-83817000D01*
X169463500Y-83861000D01*
X169471500Y-83905000D01*
X169477500Y-83950000D01*
X169481500Y-83995000D01*
X169482500Y-84040000D01*
X169482500Y-84185000D01*
X169475500Y-84219000D01*
X169466500Y-84253000D01*
X169456500Y-84286000D01*
X169445500Y-84319000D01*
X169432500Y-84351000D01*
X169418500Y-84383000D01*
X169403500Y-84414000D01*
X169387500Y-84445000D01*
X169369500Y-84475000D01*
X169351500Y-84505000D01*
X169331500Y-84533000D01*
X169310500Y-84561000D01*
X169288500Y-84588000D01*
X169265500Y-84614000D01*
X169241500Y-84639000D01*
X169216500Y-84663000D01*
X169190500Y-84686000D01*
X169163500Y-84708000D01*
X169135500Y-84729000D01*
X169107500Y-84749000D01*
X169077500Y-84767000D01*
X169047500Y-84785000D01*
X169016500Y-84801000D01*
X168985500Y-84816000D01*
X168953500Y-84830000D01*
X168921500Y-84843000D01*
X168888500Y-84854000D01*
X168855500Y-84864000D01*
X168821500Y-84873000D01*
X168787500Y-84880000D01*
X168787500Y-85670000D01*
X168457500Y-85670000D01*
X168457500Y-84880000D01*
X168423500Y-84873000D01*
X168389500Y-84864000D01*
X168356500Y-84854000D01*
X168323500Y-84843000D01*
X168291500Y-84830000D01*
X168259500Y-84816000D01*
X168228500Y-84801000D01*
X168197500Y-84785000D01*
X168167500Y-84767000D01*
X168137500Y-84749000D01*
X168109500Y-84729000D01*
X168081500Y-84708000D01*
X168054500Y-84686000D01*
X168028500Y-84663000D01*
X168003500Y-84639000D01*
X167979500Y-84614000D01*
X167956500Y-84588000D01*
X167934500Y-84561000D01*
X167913500Y-84533000D01*
X167893500Y-84505000D01*
X167875500Y-84475000D01*
X167857500Y-84445000D01*
X167841500Y-84414000D01*
X167826500Y-84383000D01*
X167812500Y-84351000D01*
X167799500Y-84319000D01*
X167788500Y-84286000D01*
X167778500Y-84253000D01*
X167769500Y-84219000D01*
X167762500Y-84185000D01*
X167762500Y-84040000D01*
X167763500Y-83995000D01*
X167767500Y-83950000D01*
X167773500Y-83905000D01*
X167781500Y-83861000D01*
X167791500Y-83817000D01*
X167804500Y-83774000D01*
X167819500Y-83732000D01*
X167836500Y-83690000D01*
X167856500Y-83650000D01*
X167877500Y-83610000D01*
X167901500Y-83572000D01*
X167926500Y-83535000D01*
X167954500Y-83499000D01*
X167983500Y-83465000D01*
X168014500Y-83432000D01*
X168047500Y-83401000D01*
X168081500Y-83372000D01*
X168117500Y-83344000D01*
X168154500Y-83319000D01*
X168192500Y-83295000D01*
X168232500Y-83274000D01*
X168272500Y-83254000D01*
X168314500Y-83237000D01*
X168356500Y-83222000D01*
X168399500Y-83209000D01*
X168443500Y-83199000D01*
X168487500Y-83191000D01*
X168532500Y-83185000D01*
X168577500Y-83181000D01*
X168622500Y-83180000D01*
X168667500Y-83181000D01*
G37*
X171207500Y-83181000D02*
X171252500Y-83185000D01*
X171297500Y-83191000D01*
X171341500Y-83199000D01*
X171385500Y-83209000D01*
X171428500Y-83222000D01*
X171470500Y-83237000D01*
X171512500Y-83254000D01*
X171552500Y-83274000D01*
X171592500Y-83295000D01*
X171630500Y-83319000D01*
X171667500Y-83344000D01*
X171703500Y-83372000D01*
X171737500Y-83401000D01*
X171770500Y-83432000D01*
X171801500Y-83465000D01*
X171830500Y-83499000D01*
X171858500Y-83535000D01*
X171883500Y-83572000D01*
X171907500Y-83610000D01*
X171928500Y-83650000D01*
X171948500Y-83690000D01*
X171965500Y-83732000D01*
X171980500Y-83774000D01*
X171993500Y-83817000D01*
X172003500Y-83861000D01*
X172011500Y-83905000D01*
X172017500Y-83950000D01*
X172021500Y-83995000D01*
X172022500Y-84040000D01*
X172022500Y-84185000D01*
X172015500Y-84219000D01*
X172006500Y-84253000D01*
X171996500Y-84286000D01*
X171985500Y-84319000D01*
X171972500Y-84351000D01*
X171958500Y-84383000D01*
X171943500Y-84414000D01*
X171927500Y-84445000D01*
X171909500Y-84475000D01*
X171891500Y-84505000D01*
X171871500Y-84533000D01*
X171850500Y-84561000D01*
X171828500Y-84588000D01*
X171805500Y-84614000D01*
X171781500Y-84639000D01*
X171756500Y-84663000D01*
X171730500Y-84686000D01*
X171703500Y-84708000D01*
X171675500Y-84729000D01*
X171647500Y-84749000D01*
X171617500Y-84767000D01*
X171587500Y-84785000D01*
X171556500Y-84801000D01*
X171525500Y-84816000D01*
X171493500Y-84830000D01*
X171461500Y-84843000D01*
X171428500Y-84854000D01*
X171395500Y-84864000D01*
X171361500Y-84873000D01*
X171327500Y-84880000D01*
X171327500Y-85670000D01*
X170997500Y-85670000D01*
X170997500Y-84880000D01*
X170963500Y-84873000D01*
X170929500Y-84864000D01*
X170896500Y-84854000D01*
X170863500Y-84843000D01*
X170831500Y-84830000D01*
X170799500Y-84816000D01*
X170768500Y-84801000D01*
X170737500Y-84785000D01*
X170707500Y-84767000D01*
X170677500Y-84749000D01*
X170649500Y-84729000D01*
X170621500Y-84708000D01*
X170594500Y-84686000D01*
X170568500Y-84663000D01*
X170543500Y-84639000D01*
X170519500Y-84614000D01*
X170496500Y-84588000D01*
X170474500Y-84561000D01*
X170453500Y-84533000D01*
X170433500Y-84505000D01*
X170415500Y-84475000D01*
X170397500Y-84445000D01*
X170381500Y-84414000D01*
X170366500Y-84383000D01*
X170352500Y-84351000D01*
X170339500Y-84319000D01*
X170328500Y-84286000D01*
X170318500Y-84253000D01*
X170309500Y-84219000D01*
X170302500Y-84185000D01*
X170302500Y-84040000D01*
X170303500Y-83995000D01*
X170307500Y-83950000D01*
X170313500Y-83905000D01*
X170321500Y-83861000D01*
X170331500Y-83817000D01*
X170344500Y-83774000D01*
X170359500Y-83732000D01*
X170376500Y-83690000D01*
X170396500Y-83650000D01*
X170417500Y-83610000D01*
X170441500Y-83572000D01*
X170466500Y-83535000D01*
X170494500Y-83499000D01*
X170523500Y-83465000D01*
X170554500Y-83432000D01*
X170587500Y-83401000D01*
X170621500Y-83372000D01*
X170657500Y-83344000D01*
X170694500Y-83319000D01*
X170732500Y-83295000D01*
X170772500Y-83274000D01*
X170812500Y-83254000D01*
X170854500Y-83237000D01*
X170896500Y-83222000D01*
X170939500Y-83209000D01*
X170983500Y-83199000D01*
X171027500Y-83191000D01*
X171072500Y-83185000D01*
X171117500Y-83181000D01*
X171162500Y-83180000D01*
X171207500Y-83181000D01*
G36*
X171207500Y-83181000D02*
G01*
X171252500Y-83185000D01*
X171297500Y-83191000D01*
X171341500Y-83199000D01*
X171385500Y-83209000D01*
X171428500Y-83222000D01*
X171470500Y-83237000D01*
X171512500Y-83254000D01*
X171552500Y-83274000D01*
X171592500Y-83295000D01*
X171630500Y-83319000D01*
X171667500Y-83344000D01*
X171703500Y-83372000D01*
X171737500Y-83401000D01*
X171770500Y-83432000D01*
X171801500Y-83465000D01*
X171830500Y-83499000D01*
X171858500Y-83535000D01*
X171883500Y-83572000D01*
X171907500Y-83610000D01*
X171928500Y-83650000D01*
X171948500Y-83690000D01*
X171965500Y-83732000D01*
X171980500Y-83774000D01*
X171993500Y-83817000D01*
X172003500Y-83861000D01*
X172011500Y-83905000D01*
X172017500Y-83950000D01*
X172021500Y-83995000D01*
X172022500Y-84040000D01*
X172022500Y-84185000D01*
X172015500Y-84219000D01*
X172006500Y-84253000D01*
X171996500Y-84286000D01*
X171985500Y-84319000D01*
X171972500Y-84351000D01*
X171958500Y-84383000D01*
X171943500Y-84414000D01*
X171927500Y-84445000D01*
X171909500Y-84475000D01*
X171891500Y-84505000D01*
X171871500Y-84533000D01*
X171850500Y-84561000D01*
X171828500Y-84588000D01*
X171805500Y-84614000D01*
X171781500Y-84639000D01*
X171756500Y-84663000D01*
X171730500Y-84686000D01*
X171703500Y-84708000D01*
X171675500Y-84729000D01*
X171647500Y-84749000D01*
X171617500Y-84767000D01*
X171587500Y-84785000D01*
X171556500Y-84801000D01*
X171525500Y-84816000D01*
X171493500Y-84830000D01*
X171461500Y-84843000D01*
X171428500Y-84854000D01*
X171395500Y-84864000D01*
X171361500Y-84873000D01*
X171327500Y-84880000D01*
X171327500Y-85670000D01*
X170997500Y-85670000D01*
X170997500Y-84880000D01*
X170963500Y-84873000D01*
X170929500Y-84864000D01*
X170896500Y-84854000D01*
X170863500Y-84843000D01*
X170831500Y-84830000D01*
X170799500Y-84816000D01*
X170768500Y-84801000D01*
X170737500Y-84785000D01*
X170707500Y-84767000D01*
X170677500Y-84749000D01*
X170649500Y-84729000D01*
X170621500Y-84708000D01*
X170594500Y-84686000D01*
X170568500Y-84663000D01*
X170543500Y-84639000D01*
X170519500Y-84614000D01*
X170496500Y-84588000D01*
X170474500Y-84561000D01*
X170453500Y-84533000D01*
X170433500Y-84505000D01*
X170415500Y-84475000D01*
X170397500Y-84445000D01*
X170381500Y-84414000D01*
X170366500Y-84383000D01*
X170352500Y-84351000D01*
X170339500Y-84319000D01*
X170328500Y-84286000D01*
X170318500Y-84253000D01*
X170309500Y-84219000D01*
X170302500Y-84185000D01*
X170302500Y-84040000D01*
X170303500Y-83995000D01*
X170307500Y-83950000D01*
X170313500Y-83905000D01*
X170321500Y-83861000D01*
X170331500Y-83817000D01*
X170344500Y-83774000D01*
X170359500Y-83732000D01*
X170376500Y-83690000D01*
X170396500Y-83650000D01*
X170417500Y-83610000D01*
X170441500Y-83572000D01*
X170466500Y-83535000D01*
X170494500Y-83499000D01*
X170523500Y-83465000D01*
X170554500Y-83432000D01*
X170587500Y-83401000D01*
X170621500Y-83372000D01*
X170657500Y-83344000D01*
X170694500Y-83319000D01*
X170732500Y-83295000D01*
X170772500Y-83274000D01*
X170812500Y-83254000D01*
X170854500Y-83237000D01*
X170896500Y-83222000D01*
X170939500Y-83209000D01*
X170983500Y-83199000D01*
X171027500Y-83191000D01*
X171072500Y-83185000D01*
X171117500Y-83181000D01*
X171162500Y-83180000D01*
X171207500Y-83181000D01*
G37*
%TD*%
D11*
%TO.C,R3.1*%
X174710000Y-101870000D03*
X176710000Y-101870000D03*
%TD*%
%TO.C,R1.2*%
X169217500Y-105195000D03*
X171217500Y-105195000D03*
%TD*%
D12*
%TO.C,R2.4*%
X149140000Y-77075000D03*
X147140000Y-77075000D03*
%TD*%
D13*
%TO.C,C1.3*%
X150432500Y-105220000D03*
X152507500Y-105220000D03*
%TD*%
D14*
%TO.C,U1.3*%
X160660000Y-96880000D03*
X160660000Y-98150000D03*
X160660000Y-99420000D03*
X160660000Y-100690000D03*
X160660000Y-101960000D03*
X160660000Y-103230000D03*
X160660000Y-104500000D03*
X160660000Y-105770000D03*
X165610000Y-105770000D03*
X165610000Y-104500000D03*
X165610000Y-103230000D03*
X165610000Y-101960000D03*
X165610000Y-100690000D03*
X165610000Y-99420000D03*
X165610000Y-98150000D03*
X165610000Y-96880000D03*
%TD*%
D15*
%TO.C,U4.1*%
X176595000Y-88235200D03*
X177865000Y-88235200D03*
X179135000Y-88235200D03*
X180405000Y-88235200D03*
X181675000Y-88235200D03*
X182945000Y-88235200D03*
X184215000Y-88235200D03*
X185485000Y-88235200D03*
X185485000Y-78684800D03*
X184215000Y-78684800D03*
X182945000Y-78684800D03*
X181675000Y-78684800D03*
X180405000Y-78684800D03*
X179135000Y-78684800D03*
X177865000Y-78684800D03*
X176595000Y-78684800D03*
%TD*%
D11*
%TO.C,R3.4*%
X184120000Y-101890000D03*
X186120000Y-101890000D03*
%TD*%
D16*
%TO.C,D2.1*%
X147295000Y-67040000D03*
X149345000Y-67040000D03*
%TD*%
D17*
%TO.C,U1.2*%
X146070000Y-101790000D03*
X148370000Y-101790000D03*
D18*
X148370000Y-95490000D03*
D17*
X150670000Y-101790000D03*
%TD*%
D19*
%TO.C,J5.2*%
X138780000Y-108040000D03*
D20*
X138780000Y-105540000D03*
X138780000Y-103040000D03*
D21*
X138780000Y-100540000D03*
X138780000Y-98040000D03*
%TD*%
D11*
%TO.C,R1.12*%
X188760000Y-58472500D03*
X190760000Y-58472500D03*
%TD*%
D22*
%TO.C,LCD+nutnhan1*%
X171162500Y-81500000D03*
D23*
X171162500Y-84040000D03*
D22*
X168622500Y-81500000D03*
D23*
X168622500Y-84040000D03*
D22*
X166082500Y-81500000D03*
D23*
X166082500Y-84040000D03*
D22*
X163542500Y-81500000D03*
D23*
X163542500Y-84040000D03*
D22*
X161002500Y-81500000D03*
D23*
X161002500Y-84040000D03*
D22*
X158462500Y-81500000D03*
D23*
X158462500Y-84040000D03*
D22*
X155922500Y-81500000D03*
D23*
X155922500Y-84040000D03*
%TD*%
D12*
%TO.C,R1.7*%
X166600000Y-110590000D03*
X164600000Y-110590000D03*
%TD*%
%TO.C,R7.1*%
X190760000Y-76810000D03*
X188760000Y-76810000D03*
%TD*%
D24*
%TO.C,C1.2*%
X171242500Y-97040000D03*
X169167500Y-97040000D03*
%TD*%
D13*
%TO.C,C4.1*%
X147172500Y-73735000D03*
X149247500Y-73735000D03*
%TD*%
D12*
%TO.C,R2.1*%
X149275000Y-63685000D03*
X147275000Y-63685000D03*
%TD*%
D13*
%TO.C,C7.1*%
X188752500Y-73240000D03*
X190827500Y-73240000D03*
%TD*%
D11*
%TO.C,R9.1*%
X179710000Y-95560000D03*
X181710000Y-95560000D03*
%TD*%
%TO.C,R7.2*%
X188760000Y-80290000D03*
X190760000Y-80290000D03*
%TD*%
D25*
%TO.C,C2.1*%
X149605000Y-60345000D03*
X147005000Y-60345000D03*
%TD*%
D26*
%TO.C,R8.3*%
X178180000Y-74190000D03*
X178180000Y-76190000D03*
%TD*%
%TO.C,R1.6*%
X150310261Y-90243255D03*
X150310261Y-92243255D03*
%TD*%
D27*
%TO.C,U1.1*%
X152210000Y-115210000D03*
X157990000Y-115210000D03*
D28*
X151850000Y-113765000D03*
X152650000Y-113765000D03*
D29*
X153850000Y-113765000D03*
X154850000Y-113765000D03*
X155350000Y-113765000D03*
X156350000Y-113765000D03*
D28*
X157550000Y-113765000D03*
X158350000Y-113765000D03*
X158350000Y-113765000D03*
X157550000Y-113765000D03*
D29*
X156850000Y-113765000D03*
X155850000Y-113765000D03*
X154350000Y-113765000D03*
X153350000Y-113765000D03*
D28*
X152650000Y-113765000D03*
X151850000Y-113765000D03*
D30*
X150780000Y-114680000D03*
D31*
X150780000Y-118860000D03*
D30*
X159420000Y-114680000D03*
D31*
X159420000Y-118860000D03*
%TD*%
D12*
%TO.C,R1.9*%
X157260000Y-97010000D03*
X155260000Y-97010000D03*
%TD*%
%TO.C,R1.10*%
X157320000Y-100990000D03*
X155320000Y-100990000D03*
%TD*%
D32*
%TO.C,Q6.1*%
X183462500Y-69397500D03*
X183462500Y-71297500D03*
X185337500Y-70347500D03*
%TD*%
D12*
%TO.C,R8.1*%
X149230000Y-70395000D03*
X147230000Y-70395000D03*
%TD*%
D24*
%TO.C,C9.1*%
X186127500Y-95510000D03*
X184052500Y-95510000D03*
%TD*%
%TO.C,C1.1*%
X171242500Y-101020000D03*
X169167500Y-101020000D03*
%TD*%
D12*
%TO.C,R1.8*%
X146835000Y-111140000D03*
X144835000Y-111140000D03*
%TD*%
%TO.C,R3.3*%
X190570000Y-98880000D03*
X188570000Y-98880000D03*
%TD*%
%TO.C,R1.1*%
X157320000Y-105190000D03*
X155320000Y-105190000D03*
%TD*%
D11*
%TO.C,R3.5*%
X184100000Y-98880000D03*
X186100000Y-98880000D03*
%TD*%
D26*
%TO.C,R1.3*%
X160890261Y-90233255D03*
X160890261Y-92233255D03*
%TD*%
D11*
%TO.C,R2.2*%
X183212500Y-58472500D03*
X185212500Y-58472500D03*
%TD*%
D24*
%TO.C,C6.2*%
X190827500Y-62242500D03*
X188752500Y-62242500D03*
%TD*%
D19*
%TO.C,J5.3*%
X138780000Y-61100000D03*
D20*
X138780000Y-58600000D03*
X138780000Y-56100000D03*
%TD*%
D13*
%TO.C,C3.1*%
X174635000Y-98910000D03*
X176710000Y-98910000D03*
%TD*%
D24*
%TO.C,C6.1*%
X190827500Y-65862500D03*
X188752500Y-65862500D03*
%TD*%
D33*
%TO.C,SDCARD1*%
X177130000Y-117600000D03*
X185130000Y-117600000D03*
D34*
X184330000Y-106600000D03*
X183230000Y-106600000D03*
X182130000Y-106600000D03*
X181030000Y-106600000D03*
X179930000Y-106600000D03*
X178830000Y-106600000D03*
X177730000Y-106600000D03*
X176630000Y-106600000D03*
X175530000Y-106600000D03*
D35*
X174330000Y-107900000D03*
D36*
X188930000Y-107650000D03*
D37*
X174330000Y-117200000D03*
X189830000Y-117200000D03*
%TD*%
D26*
%TO.C,R1.5*%
X146720261Y-90243255D03*
X146720261Y-92243255D03*
%TD*%
D38*
%TO.C,RESET1*%
X145770000Y-118830000D03*
X145770000Y-114380000D03*
%TD*%
D12*
%TO.C,R2.5*%
X149170000Y-80385000D03*
X147170000Y-80385000D03*
%TD*%
D24*
%TO.C,C7.3*%
X190827500Y-83500000D03*
X188752500Y-83500000D03*
%TD*%
D11*
%TO.C,R2.3*%
X183262500Y-62212500D03*
X185262500Y-62212500D03*
%TD*%
D39*
%TO.C,D1.1*%
X152470000Y-108045000D03*
X150420000Y-108045000D03*
%TD*%
D19*
%TO.C,J5.1*%
X138780000Y-75030000D03*
D20*
X138780000Y-72530000D03*
X138780000Y-70030000D03*
X138780000Y-67530000D03*
%TD*%
D26*
%TO.C,R8..2*%
X181570000Y-74080000D03*
X181570000Y-76080000D03*
%TD*%
D24*
%TO.C,C3.2*%
X181543330Y-98923539D03*
X179468330Y-98923539D03*
%TD*%
D13*
%TO.C,C9.2*%
X188612500Y-95450000D03*
X190687500Y-95450000D03*
%TD*%
D11*
%TO.C,R3.2*%
X188570000Y-101890000D03*
X190570000Y-101890000D03*
%TD*%
D40*
%TO.C,R1.4*%
X164880261Y-92243255D03*
X164880261Y-90243255D03*
%TD*%
D41*
%TO.C,Q1.1*%
X155190000Y-93257500D03*
X157090000Y-93257500D03*
X156140000Y-91382500D03*
%TD*%
D38*
%TO.C,BOOT1*%
X165600000Y-118830000D03*
X165600000Y-114380000D03*
%TD*%
D26*
%TO.C,R4.1*%
X184570000Y-74020000D03*
X184570000Y-76020000D03*
%TD*%
D42*
%TO.C,J6.1*%
X184080000Y-52910000D03*
D43*
X186580000Y-52910000D03*
X189080000Y-52910000D03*
X191580000Y-52910000D03*
%TD*%
D41*
%TO.C,Q1.2*%
X168740000Y-93150000D03*
X170640000Y-93150000D03*
X169690000Y-91275000D03*
%TD*%
D44*
%TO.C,J2.1*%
X154120000Y-54830000D03*
D45*
X157795000Y-54855000D03*
D46*
X154120000Y-56100000D03*
D45*
X157795000Y-56125000D03*
D46*
X154120000Y-57370000D03*
D45*
X157795000Y-57395000D03*
X157795000Y-58665000D03*
X157795000Y-59935000D03*
D46*
X154120000Y-61180000D03*
D45*
X157795000Y-61205000D03*
X157795000Y-62475000D03*
D46*
X154120000Y-63720000D03*
D45*
X157795000Y-63745000D03*
D46*
X154120000Y-64990000D03*
D45*
X157795000Y-65015000D03*
D46*
X154120000Y-66260000D03*
D45*
X157795000Y-66285000D03*
D46*
X154120000Y-67530000D03*
D45*
X157795000Y-67555000D03*
X157795000Y-68825000D03*
D46*
X154120000Y-70070000D03*
D45*
X157795000Y-70095000D03*
X157795000Y-71365000D03*
D47*
X160580000Y-72365000D03*
D48*
X160710000Y-75920000D03*
D47*
X161850000Y-72365000D03*
D49*
X161980000Y-75920000D03*
D47*
X163120000Y-72365000D03*
X164390000Y-72365000D03*
X165660000Y-72365000D03*
X166930000Y-72365000D03*
X168200000Y-72365000D03*
X169470000Y-72365000D03*
X170740000Y-72365000D03*
D49*
X170870000Y-75920000D03*
D47*
X172010000Y-72365000D03*
D49*
X172140000Y-75920000D03*
D45*
X174795000Y-71365000D03*
D46*
X178320000Y-71370000D03*
D45*
X174795000Y-70095000D03*
D46*
X178320000Y-70100000D03*
D45*
X174795000Y-68825000D03*
D46*
X178320000Y-68830000D03*
D45*
X174795000Y-67555000D03*
X174795000Y-66285000D03*
D46*
X178320000Y-66290000D03*
D45*
X174795000Y-65015000D03*
D46*
X178320000Y-65020000D03*
D45*
X174795000Y-63745000D03*
D46*
X178320000Y-63750000D03*
D45*
X174795000Y-62475000D03*
X174795000Y-61205000D03*
D46*
X178320000Y-61210000D03*
D45*
X174795000Y-59935000D03*
D46*
X178320000Y-59940000D03*
D45*
X174795000Y-58665000D03*
D46*
X178320000Y-58670000D03*
D45*
X174795000Y-57395000D03*
D46*
X178320000Y-57400000D03*
D45*
X174795000Y-56125000D03*
D46*
X178320000Y-56130000D03*
D45*
X174795000Y-54855000D03*
D44*
X178320000Y-54860000D03*
D50*
X163460000Y-60520000D03*
X165295000Y-60520000D03*
X167130000Y-60520000D03*
X163460000Y-62355000D03*
X165295000Y-62355000D03*
X167130000Y-62355000D03*
X163460000Y-64190000D03*
X165295000Y-64190000D03*
X167130000Y-64190000D03*
%TD*%
D51*
%TO.C,J7.1*%
X194820000Y-72860000D03*
D52*
X194820000Y-75400000D03*
X194820000Y-77940000D03*
X194820000Y-80480000D03*
%TD*%
D11*
%TO.C,R6.1*%
X183332500Y-65832500D03*
X185332500Y-65832500D03*
%TD*%
D24*
%TO.C,C2.2*%
X149267500Y-56905000D03*
X147192500Y-56905000D03*
%TD*%
D53*
%TO.C,J8.1*%
X138780000Y-91392500D03*
D54*
X138780000Y-88852500D03*
X138780000Y-86312500D03*
X138780000Y-83772500D03*
X138780000Y-81232500D03*
%TD*%
D55*
%TO.C,D4*%
X138800000Y-112720000D03*
X138800000Y-116720000D03*
%TD*%
D11*
%TO.C,R1.11*%
X144835000Y-108000000D03*
X146835000Y-108000000D03*
%TD*%
D13*
%TO.C,C7.2*%
X188752500Y-69890000D03*
X190827500Y-69890000D03*
%TD*%
D12*
%TO.C,R3.6*%
X181415830Y-101873539D03*
X179415830Y-101873539D03*
%TD*%
D56*
%TO.C,J9.1*%
X194820000Y-99560000D03*
D52*
X194820000Y-97020000D03*
X194820000Y-94480000D03*
%TD*%
D25*
%TO.C,C1.4*%
X147140000Y-105155000D03*
X144540000Y-105155000D03*
%TD*%
D24*
%TO.C,C4.2*%
X149207500Y-83725000D03*
X147132500Y-83725000D03*
%TD*%
M02*
