M48
; DRILL file {KiCad 9.0.0} date 2025-08-09T15:40:27+0700
; FORMAT={3:3/ absolute / metric / suppress leading zeros}
; #@! TF.CreationDate,2025-08-09T15:40:27+07:00
; #@! TF.GenerationSoftware,Kicad,Pcbnew,9.0.0
; #@! TF.FileFunction,Plated,1,2,PTH
FMAT,2
METRIC,TZ
; #@! TA.AperFunction,Plated,PTH,ViaDrill
T1C0.300
; #@! TA.AperFunction,Plated,PTH,ViaDrill
T2C0.500
; #@! TA.AperFunction,Plated,PTH,ComponentDrill
T3C0.600
; #@! TA.AperFunction,Plated,PTH,ComponentDrill
T4C0.650
; #@! TA.AperFunction,Plated,PTH,ComponentDrill
T5C0.760
; #@! TA.AperFunction,Plated,PTH,ComponentDrill
T6C1.000
; #@! TA.AperFunction,Plated,PTH,ComponentDrill
T7C1.020
%
G90
G05
T1
X123628Y-88000
X132000Y-103460
X135150Y-103480
T2
X106057Y-36236
X106280Y-46670
X106790Y-100710
X107160Y-44140
X107360Y-50430
X108560Y-53950
X109160Y-46450
X110760Y-49660
X112840Y-50450
X112980Y-90660
X113000Y-51970
X113488Y-83995
X113940Y-86388
X115150Y-53810
X115850Y-85440
X115880Y-50560
X116620Y-98260
X116870Y-38840
X118670Y-53570
X118760Y-92420
X119470Y-89570
X120335Y-84878
X120430Y-50390
X122400Y-60870
X122750Y-84878
X123695Y-62760
X123820Y-100419
X123910Y-94930
X124347Y-84878
X124890Y-51980
X124990Y-62660
X125941Y-61460
X125950Y-78080
X125960Y-57220
X126940Y-73410
X127520Y-84878
X127520Y-87930
X127650Y-100419
X127868Y-62032
X127950Y-66940
X128370Y-57770
X128370Y-89330
X129600Y-82460
X129700Y-60530
X129795Y-58425
X130110Y-56070
X130160Y-73930
X130210Y-66880
X130580Y-62830
X130920Y-52030
X131070Y-57340
X131517Y-97790
X131660Y-50250
X131830Y-58240
X132200Y-77470
X132420Y-54670
X132744Y-87198
X132790Y-41260
X132820Y-44020
X132950Y-67810
X133040Y-73720
X133074Y-89394
X133100Y-58540
X133260Y-71496
X133578Y-88195
X134280Y-56970
X134750Y-41250
X135220Y-75110
X135470Y-64590
X135625Y-50115
X136410Y-53540
X136520Y-47370
X136570Y-72360
X136710Y-69760
X137143Y-70771
X137430Y-61150
X137440Y-66530
X138510Y-47040
X139406Y-80414
X139550Y-79030
X139715Y-68385
X140120Y-52970
X140860Y-39980
X140860Y-48130
X141390Y-77590
X142270Y-100400
X142780Y-89170
X142790Y-82770
X142930Y-79290
X143090Y-80660
X143110Y-77900
X143580Y-83850
X143940Y-88530
X144380Y-54570
X145490Y-93070
X146550Y-75730
X146850Y-97300
X146895Y-68145
X148030Y-79960
X148070Y-93150
X148476Y-89840
X149100Y-96340
X149635Y-83945
X149710Y-81430
X150815Y-85215
X150830Y-80202
X151030Y-88130
X151100Y-90230
X151530Y-82710
X152630Y-85620
X153350Y-77461
X155070Y-90850
X155510Y-78840
X156030Y-39910
X156340Y-94290
X156980Y-87820
X157725Y-50805
X157850Y-37980
X158330Y-43970
X158340Y-85110
X158670Y-93550
X159410Y-80110
X159830Y-38970
X160070Y-83830
X160310Y-46580
X160350Y-51430
X160440Y-36700
X160920Y-89860
X161670Y-37850
X162470Y-71190
X167310Y-38220
T4
X107160Y-82440
X107190Y-58240
X108430Y-82440
X108460Y-58240
X109700Y-82440
X109730Y-58240
X111000Y-58240
X112270Y-58240
X113540Y-58240
X114780Y-82440
X116050Y-82440
X116080Y-58240
X117320Y-82440
X117350Y-58240
X118590Y-82440
X118620Y-58240
X119860Y-82440
X119890Y-58240
X121130Y-82440
X121160Y-58240
X122400Y-82440
X122500Y-58330
X123670Y-82440
X123700Y-58240
X128250Y-64420
X128250Y-65690
X128250Y-74580
X128250Y-75850
T5
X162920Y-44740
X162920Y-47280
X162920Y-49820
X162935Y-61165
X162935Y-63705
X162935Y-66245
X162940Y-77430
X162940Y-79970
X162940Y-82510
X162990Y-93820
X162990Y-96360
X162990Y-98900
X165460Y-43470
X165460Y-46010
X165460Y-48550
X165475Y-59895
X165475Y-62435
X165475Y-64975
X165480Y-76160
X165480Y-78700
X165480Y-81240
X165530Y-92550
X165530Y-95090
X165530Y-97630
T6
X102635Y-40250
X102635Y-42750
X102635Y-45250
X102635Y-47750
X102635Y-50250
X102635Y-52750
X107190Y-106190
X109690Y-106190
X112190Y-106190
X114690Y-106190
X117190Y-106190
X164040Y-32700
X166540Y-32700
X169040Y-32700
X171540Y-32700
T7
X101540Y-33070
X102280Y-96368
X102280Y-98908
X102280Y-101448
X102280Y-103988
X104080Y-33070
X106620Y-33070
X109160Y-33070
X135990Y-57220
X138530Y-57220
X141070Y-57220
X143610Y-57220
X146150Y-57220
X148690Y-57220
X154900Y-55380
X154900Y-57920
X154900Y-60460
X154900Y-63000
X154900Y-65540
X154900Y-68080
X154920Y-70620
X157440Y-55380
X157440Y-57920
X157440Y-60460
X157440Y-63000
X157440Y-65540
X157440Y-68080
X157440Y-70620
T3
G00X129300Y-102070
M15
G01X129300Y-103170
M16
G05
G00X129300Y-106500
M15
G01X129300Y-107100
M16
G05
G00X137940Y-102070
M15
G01X137940Y-103170
M16
G05
G00X137940Y-106500
M15
G01X137940Y-107100
M16
G05
M30
