%TF.GenerationSoftware,KiCad,Pcbnew,9.0.2*%
%TF.CreationDate,2026-01-28T09:51:54+07:00*%
%TF.ProjectId,ESP32_ShockKey,45535033-325f-4536-986f-636b4b65792e,rev?*%
%TF.SameCoordinates,Original*%
%TF.FileFunction,Soldermask,Top*%
%TF.FilePolarity,Negative*%
%FSLAX46Y46*%
G04 Gerber Fmt 4.6, Leading zero omitted, Abs format (unit mm)*
G04 Created by KiCad (PCBNEW 9.0.2) date 2026-01-28 09:51:54*
%MOMM*%
%LPD*%
G01*
G04 APERTURE LIST*
G04 Aperture macros list*
%AMRoundRect*
0 Rectangle with rounded corners*
0 $1 Rounding radius*
0 $2 $3 $4 $5 $6 $7 $8 $9 X,Y pos of 4 corners*
0 Add a 4 corners polygon primitive as box body*
4,1,4,$2,$3,$4,$5,$6,$7,$8,$9,$2,$3,0*
0 Add four circle primitives for the rounded corners*
1,1,$1+$1,$2,$3*
1,1,$1+$1,$4,$5*
1,1,$1+$1,$6,$7*
1,1,$1+$1,$8,$9*
0 Add four rect primitives between the rounded corners*
20,1,$1+$1,$2,$3,$4,$5,0*
20,1,$1+$1,$4,$5,$6,$7,0*
20,1,$1+$1,$6,$7,$8,$9,0*
20,1,$1+$1,$8,$9,$2,$3,0*%
G04 Aperture macros list end*
%ADD10R,1.500000X1.000000*%
%ADD11RoundRect,0.250000X-0.475000X0.337500X-0.475000X-0.337500X0.475000X-0.337500X0.475000X0.337500X0*%
%ADD12RoundRect,0.250000X0.250000X0.475000X-0.250000X0.475000X-0.250000X-0.475000X0.250000X-0.475000X0*%
%ADD13RoundRect,0.243750X0.243750X0.456250X-0.243750X0.456250X-0.243750X-0.456250X0.243750X-0.456250X0*%
%ADD14RoundRect,0.250000X-0.450000X0.262500X-0.450000X-0.262500X0.450000X-0.262500X0.450000X0.262500X0*%
%ADD15RoundRect,0.250000X1.500000X0.550000X-1.500000X0.550000X-1.500000X-0.550000X1.500000X-0.550000X0*%
%ADD16RoundRect,0.250000X0.450000X-0.262500X0.450000X0.262500X-0.450000X0.262500X-0.450000X-0.262500X0*%
%ADD17C,2.704000*%
%ADD18RoundRect,0.250000X-0.350000X-0.450000X0.350000X-0.450000X0.350000X0.450000X-0.350000X0.450000X0*%
%ADD19RoundRect,0.243750X-0.243750X-0.456250X0.243750X-0.456250X0.243750X0.456250X-0.243750X0.456250X0*%
%ADD20O,1.712000X2.704000*%
%ADD21RoundRect,0.102000X-0.754000X-1.250000X0.754000X-1.250000X0.754000X1.250000X-0.754000X1.250000X0*%
%ADD22RoundRect,0.102000X0.754000X1.250000X-0.754000X1.250000X-0.754000X-1.250000X0.754000X-1.250000X0*%
%ADD23RoundRect,0.100500X-0.986500X-0.301500X0.986500X-0.301500X0.986500X0.301500X-0.986500X0.301500X0*%
%ADD24RoundRect,0.312500X-0.687500X-0.687500X0.687500X-0.687500X0.687500X0.687500X-0.687500X0.687500X0*%
%ADD25C,2.000000*%
%ADD26RoundRect,0.150000X0.587500X0.150000X-0.587500X0.150000X-0.587500X-0.150000X0.587500X-0.150000X0*%
%ADD27C,4.204000*%
%ADD28C,5.204000*%
%ADD29RoundRect,0.250000X0.475000X-0.337500X0.475000X0.337500X-0.475000X0.337500X-0.475000X-0.337500X0*%
%ADD30RoundRect,0.150000X0.150000X0.200000X-0.150000X0.200000X-0.150000X-0.200000X0.150000X-0.200000X0*%
%ADD31RoundRect,0.102000X0.450000X-1.000000X0.450000X1.000000X-0.450000X1.000000X-0.450000X-1.000000X0*%
%ADD32RoundRect,0.102000X1.000000X-0.450000X1.000000X0.450000X-1.000000X0.450000X-1.000000X-0.450000X0*%
%ADD33RoundRect,0.102000X0.665000X-0.665000X0.665000X0.665000X-0.665000X0.665000X-0.665000X-0.665000X0*%
%ADD34RoundRect,0.250000X0.650000X-1.000000X0.650000X1.000000X-0.650000X1.000000X-0.650000X-1.000000X0*%
%ADD35RoundRect,0.250000X0.350000X0.450000X-0.350000X0.450000X-0.350000X-0.450000X0.350000X-0.450000X0*%
%ADD36O,1.804000X2.704000*%
%ADD37O,1.500000X2.500000*%
%ADD38RoundRect,0.250000X0.450000X-0.325000X0.450000X0.325000X-0.450000X0.325000X-0.450000X-0.325000X0*%
%ADD39RoundRect,0.102000X0.750000X0.700000X-0.750000X0.700000X-0.750000X-0.700000X0.750000X-0.700000X0*%
%ADD40RoundRect,0.250000X0.262500X0.450000X-0.262500X0.450000X-0.262500X-0.450000X0.262500X-0.450000X0*%
%ADD41RoundRect,0.099250X0.727750X0.297750X-0.727750X0.297750X-0.727750X-0.297750X0.727750X-0.297750X0*%
%ADD42O,6.204000X4.204000*%
%ADD43RoundRect,0.250000X-0.250000X-0.475000X0.250000X-0.475000X0.250000X0.475000X-0.250000X0.475000X0*%
%ADD44RoundRect,0.250000X-0.475000X0.250000X-0.475000X-0.250000X0.475000X-0.250000X0.475000X0.250000X0*%
%ADD45R,3.000000X4.000000*%
%ADD46RoundRect,0.102000X0.350000X-0.762500X0.350000X0.762500X-0.350000X0.762500X-0.350000X-0.762500X0*%
%ADD47RoundRect,0.102000X1.701000X-1.256500X1.701000X1.256500X-1.701000X1.256500X-1.701000X-1.256500X0*%
%ADD48RoundRect,0.250000X-0.450000X0.350000X-0.450000X-0.350000X0.450000X-0.350000X0.450000X0.350000X0*%
%ADD49R,2.700000X5.000000*%
%ADD50RoundRect,0.150000X-0.200000X0.150000X-0.200000X-0.150000X0.200000X-0.150000X0.200000X0.150000X0*%
G04 APERTURE END LIST*
%TO.C,JP11*%
G36*
X90656911Y-59029586D02*
G01*
X92156911Y-59029586D01*
X92156911Y-58729586D01*
X90656911Y-58729586D01*
X90656911Y-59029586D01*
G37*
%TO.C,JP9*%
G36*
X85656911Y-59029586D02*
G01*
X87156911Y-59029586D01*
X87156911Y-58729586D01*
X85656911Y-58729586D01*
X85656911Y-59029586D01*
G37*
%TO.C,JP8*%
G36*
X83156911Y-59029586D02*
G01*
X84656911Y-59029586D01*
X84656911Y-58729586D01*
X83156911Y-58729586D01*
X83156911Y-59029586D01*
G37*
%TO.C,JP10*%
G36*
X88156911Y-59029586D02*
G01*
X89656911Y-59029586D01*
X89656911Y-58729586D01*
X88156911Y-58729586D01*
X88156911Y-59029586D01*
G37*
%TO.C,JP4*%
G36*
X196440000Y-134490904D02*
G01*
X194940000Y-134490904D01*
X194940000Y-134790904D01*
X196440000Y-134790904D01*
X196440000Y-134490904D01*
G37*
%TO.C,JP13*%
G36*
X95656911Y-59029586D02*
G01*
X97156911Y-59029586D01*
X97156911Y-58729586D01*
X95656911Y-58729586D01*
X95656911Y-59029586D01*
G37*
%TO.C,JP12*%
G36*
X93156911Y-59029586D02*
G01*
X94656911Y-59029586D01*
X94656911Y-58729586D01*
X93156911Y-58729586D01*
X93156911Y-59029586D01*
G37*
%TO.C,JP3*%
G36*
X197440000Y-134790904D02*
G01*
X198940000Y-134790904D01*
X198940000Y-134490904D01*
X197440000Y-134490904D01*
X197440000Y-134790904D01*
G37*
%TO.C,JP2*%
G36*
X201440000Y-134490904D02*
G01*
X199940000Y-134490904D01*
X199940000Y-134790904D01*
X201440000Y-134790904D01*
X201440000Y-134490904D01*
G37*
%TO.C,JP1*%
G36*
X203940000Y-134490904D02*
G01*
X202440000Y-134490904D01*
X202440000Y-134790904D01*
X203940000Y-134790904D01*
X203940000Y-134490904D01*
G37*
%TD*%
D10*
%TO.C,JP11*%
X91406911Y-59529586D03*
X91406911Y-58229586D03*
%TD*%
D11*
%TO.C,C7.2*%
X113744411Y-65111439D03*
X113744411Y-67186439D03*
%TD*%
D12*
%TO.C,C2.1*%
X136820000Y-96650904D03*
X134920000Y-96650904D03*
%TD*%
D13*
%TO.C,D3.9*%
X184231911Y-92799586D03*
X182356911Y-92799586D03*
%TD*%
D14*
%TO.C,R7.1*%
X111254411Y-65186439D03*
X111254411Y-67011439D03*
%TD*%
D15*
%TO.C,C1.4*%
X116830000Y-84910904D03*
X111230000Y-84910904D03*
%TD*%
D16*
%TO.C,R5.8*%
X94114411Y-120204586D03*
X94114411Y-118379586D03*
%TD*%
D17*
%TO.C,K3*%
X147740219Y-108168910D03*
X147740219Y-120168910D03*
X145740219Y-114168910D03*
X159940219Y-108168910D03*
X159940219Y-120168910D03*
%TD*%
D11*
%TO.C,C5.3*%
X94120000Y-122683404D03*
X94120000Y-124758404D03*
%TD*%
%TO.C,C7.1*%
X115764411Y-65101439D03*
X115764411Y-67176439D03*
%TD*%
D18*
%TO.C,R3.3*%
X178204411Y-133849586D03*
X180204411Y-133849586D03*
%TD*%
D10*
%TO.C,JP9*%
X86406911Y-59529586D03*
X86406911Y-58229586D03*
%TD*%
D19*
%TO.C,D1.3*%
X112049411Y-101739586D03*
X113924411Y-101739586D03*
%TD*%
D16*
%TO.C,R5.2*%
X96412513Y-124758404D03*
X96412513Y-122933404D03*
%TD*%
D20*
%TO.C,J7.1*%
X103244411Y-60579586D03*
X105744411Y-60579586D03*
X108244411Y-60579586D03*
X110744411Y-60579586D03*
X113244411Y-60579586D03*
X115744411Y-60579586D03*
%TD*%
%TO.C,J2*%
X203190000Y-132950904D03*
X200690000Y-132950904D03*
X198190000Y-132950904D03*
D21*
X195690000Y-132950904D03*
%TD*%
D22*
%TO.C,J1*%
X122734411Y-60589586D03*
D20*
X125234411Y-60589586D03*
X127734411Y-60589586D03*
X130234411Y-60589586D03*
%TD*%
D14*
%TO.C,R4.6*%
X91081609Y-113062599D03*
X91081609Y-114887599D03*
%TD*%
D23*
%TO.C,U1*%
X85299411Y-122372086D03*
X85299411Y-123642086D03*
X85299411Y-124912086D03*
X85299411Y-126182086D03*
X90239411Y-126182086D03*
X90239411Y-124912086D03*
X90239411Y-123642086D03*
X90239411Y-122372086D03*
%TD*%
D24*
%TO.C,C1.1*%
X132210000Y-111440904D03*
D25*
X135830000Y-111440904D03*
%TD*%
D26*
%TO.C,Q3.4*%
X171044411Y-132059586D03*
X171044411Y-130159586D03*
X169169411Y-131109586D03*
%TD*%
D17*
%TO.C,K1*%
X147330219Y-68320238D03*
X147330219Y-80320238D03*
X145330219Y-74320238D03*
X159530219Y-68320238D03*
X159530219Y-80320238D03*
%TD*%
D16*
%TO.C,R5.9*%
X96384411Y-120204586D03*
X96384411Y-118379586D03*
%TD*%
%TO.C,R6.4*%
X114264411Y-129037086D03*
X114264411Y-127212086D03*
%TD*%
D27*
%TO.C,K5*%
X191502731Y-109568910D03*
X191502731Y-119768910D03*
D28*
X194002731Y-114668910D03*
X178802731Y-123568910D03*
X176302731Y-105768910D03*
%TD*%
D29*
%TO.C,C5.4*%
X75180000Y-124468404D03*
X75180000Y-122393404D03*
%TD*%
D16*
%TO.C,R1.5*%
X116160000Y-92473045D03*
X116160000Y-90648045D03*
%TD*%
D30*
%TO.C,D3.2*%
X187304411Y-133849586D03*
X188704411Y-133849586D03*
%TD*%
D31*
%TO.C,U4.1*%
X78306911Y-103844586D03*
X79576911Y-103844586D03*
X80846911Y-103844586D03*
X82116911Y-103844586D03*
X83386911Y-103844586D03*
X84656911Y-103844586D03*
X85926911Y-103844586D03*
X87196911Y-103844586D03*
X88466911Y-103844586D03*
X89736911Y-103844586D03*
X91006911Y-103844586D03*
X92276911Y-103844586D03*
X93546911Y-103844586D03*
X94816911Y-103844586D03*
D32*
X95816911Y-101059586D03*
X95816911Y-99789586D03*
X95816911Y-98519586D03*
X95816911Y-97249586D03*
X95816911Y-95979586D03*
X95816911Y-94709586D03*
X95816911Y-93439586D03*
X95816911Y-92169586D03*
X95816911Y-90899586D03*
X95816911Y-89629586D03*
D31*
X94816911Y-86844586D03*
X93546911Y-86844586D03*
X92276911Y-86844586D03*
X91006911Y-86844586D03*
X89736911Y-86844586D03*
X88466911Y-86844586D03*
X87196911Y-86844586D03*
X85926911Y-86844586D03*
X84656911Y-86844586D03*
X83386911Y-86844586D03*
X82116911Y-86844586D03*
X80846911Y-86844586D03*
X79576911Y-86844586D03*
X78306911Y-86844586D03*
D33*
X83971911Y-98179586D03*
X83971911Y-96344586D03*
X83971911Y-94509586D03*
X85806911Y-98179586D03*
X85806911Y-96344586D03*
X85806911Y-94509586D03*
X87641911Y-98179586D03*
X87641911Y-96344586D03*
X87641911Y-94509586D03*
%TD*%
D26*
%TO.C,Q3.1*%
X188804411Y-132059586D03*
X188804411Y-130159586D03*
X186929411Y-131109586D03*
%TD*%
D34*
%TO.C,D1.6*%
X131750000Y-76378404D03*
X131750000Y-72378404D03*
%TD*%
D18*
%TO.C,R3.12*%
X164636911Y-133979586D03*
X166636911Y-133979586D03*
%TD*%
D35*
%TO.C,R3.5*%
X180204411Y-92799586D03*
X178204411Y-92799586D03*
%TD*%
D24*
%TO.C,C1.5*%
X132527621Y-89430904D03*
D25*
X136057621Y-89430904D03*
%TD*%
D14*
%TO.C,R1.6*%
X120290000Y-90648404D03*
X120290000Y-92473404D03*
%TD*%
D13*
%TO.C,D3.1*%
X184231911Y-131109586D03*
X182356911Y-131109586D03*
%TD*%
D14*
%TO.C,R1.3*%
X113894411Y-117077086D03*
X113894411Y-118902086D03*
%TD*%
D36*
%TO.C,J5.1*%
X99794411Y-132084586D03*
X97294411Y-132084586D03*
%TD*%
D16*
%TO.C,R6.1*%
X126964411Y-129037086D03*
X126964411Y-127212086D03*
%TD*%
D37*
%TO.C,J6.1*%
X129504411Y-132084586D03*
X126964411Y-132084586D03*
X124424411Y-132084586D03*
X121884411Y-132084586D03*
X119344411Y-132084586D03*
X116804411Y-132084586D03*
X114264411Y-132084586D03*
X111724411Y-132084586D03*
%TD*%
D38*
%TO.C,D4.1*%
X86671609Y-115112599D03*
X86671609Y-113062599D03*
%TD*%
D39*
%TO.C,S1*%
X75720000Y-113340000D03*
X71270000Y-113340000D03*
%TD*%
D40*
%TO.C,R1.8*%
X114112500Y-79980904D03*
X112287500Y-79980904D03*
%TD*%
%TO.C,R2.3*%
X136782500Y-101350904D03*
X134957500Y-101350904D03*
%TD*%
D14*
%TO.C,R5.5*%
X81560000Y-122668404D03*
X81560000Y-124493404D03*
%TD*%
D18*
%TO.C,R3.6*%
X160084411Y-95839586D03*
X162084411Y-95839586D03*
%TD*%
D41*
%TO.C,U2.1*%
X144095000Y-93940904D03*
X144095000Y-92990904D03*
X144095000Y-92040904D03*
X141785000Y-92040904D03*
X141785000Y-93940904D03*
%TD*%
D35*
%TO.C,R3.2*%
X162084411Y-92799586D03*
X160084411Y-92799586D03*
%TD*%
D30*
%TO.C,D3.6*%
X169079411Y-95799586D03*
X170479411Y-95799586D03*
%TD*%
D29*
%TO.C,C6.1*%
X131944411Y-129037086D03*
X131944411Y-126962086D03*
%TD*%
D42*
%TO.C,J3*%
X204812500Y-107120904D03*
X204812500Y-102120904D03*
X204812500Y-97120904D03*
X204812500Y-92120904D03*
X204812500Y-87120904D03*
X204812500Y-82120904D03*
%TD*%
D16*
%TO.C,R5.7*%
X77405589Y-124493404D03*
X77405589Y-122668404D03*
%TD*%
D26*
%TO.C,Q3.2*%
X188804411Y-93749586D03*
X188804411Y-91849586D03*
X186929411Y-92799586D03*
%TD*%
D40*
%TO.C,R2.2*%
X136782500Y-99010904D03*
X134957500Y-99010904D03*
%TD*%
D43*
%TO.C,C1.6*%
X112100000Y-94870904D03*
X114000000Y-94870904D03*
%TD*%
D10*
%TO.C,JP8*%
X83906911Y-59529586D03*
X83906911Y-58229586D03*
%TD*%
%TO.C,JP10*%
X88906911Y-59529586D03*
X88906911Y-58229586D03*
%TD*%
D35*
%TO.C,R3.10*%
X162084411Y-131109586D03*
X160084411Y-131109586D03*
%TD*%
D18*
%TO.C,R3.4*%
X182356911Y-133849586D03*
X184356911Y-133849586D03*
%TD*%
D10*
%TO.C,JP4*%
X195690000Y-133990904D03*
X195690000Y-135290904D03*
%TD*%
D11*
%TO.C,C4.2*%
X82031609Y-113062599D03*
X82031609Y-115137599D03*
%TD*%
D18*
%TO.C,R3.9*%
X164636911Y-95839586D03*
X166636911Y-95839586D03*
%TD*%
D10*
%TO.C,JP13*%
X96406911Y-59529586D03*
X96406911Y-58229586D03*
%TD*%
D40*
%TO.C,R1.1*%
X113924411Y-97369586D03*
X112099411Y-97369586D03*
%TD*%
D44*
%TO.C,C1.3*%
X116294411Y-117077086D03*
X116294411Y-118977086D03*
%TD*%
D27*
%TO.C,K2*%
X191502731Y-69720238D03*
X191502731Y-79920238D03*
D28*
X194002731Y-74820238D03*
X178802731Y-83720238D03*
X176302731Y-65920238D03*
%TD*%
D16*
%TO.C,R6.3*%
X116804411Y-129037086D03*
X116804411Y-127212086D03*
%TD*%
D10*
%TO.C,JP12*%
X93906911Y-59529586D03*
X93906911Y-58229586D03*
%TD*%
D44*
%TO.C,C4.3*%
X88991609Y-113212599D03*
X88991609Y-115112599D03*
%TD*%
D10*
%TO.C,JP3*%
X198190000Y-135290904D03*
X198190000Y-133990904D03*
%TD*%
D40*
%TO.C,R1.2*%
X113924411Y-99589586D03*
X112099411Y-99589586D03*
%TD*%
D14*
%TO.C,R5.4*%
X81604411Y-118379586D03*
X81604411Y-120204586D03*
%TD*%
D45*
%TO.C,L2.1*%
X140170000Y-99529586D03*
X145170000Y-99529586D03*
%TD*%
D12*
%TO.C,C2.4*%
X136857500Y-106100904D03*
X134957500Y-106100904D03*
%TD*%
D16*
%TO.C,R6.2*%
X119344411Y-129037086D03*
X119344411Y-127212086D03*
%TD*%
%TO.C,R6.5*%
X111724411Y-129037086D03*
X111724411Y-127212086D03*
%TD*%
D18*
%TO.C,R4.1*%
X104044411Y-89699586D03*
X106044411Y-89699586D03*
%TD*%
D14*
%TO.C,R1.4*%
X111574411Y-117077086D03*
X111574411Y-118902086D03*
%TD*%
D46*
%TO.C,IC1*%
X120809411Y-87560904D03*
X122079411Y-87560904D03*
X123349411Y-87560904D03*
X124619411Y-87560904D03*
X124619411Y-82136904D03*
X123349411Y-82136904D03*
X122079411Y-82136904D03*
X120809411Y-82136904D03*
D47*
X122714411Y-84848904D03*
%TD*%
D12*
%TO.C,C2.2*%
X136820000Y-94300904D03*
X134920000Y-94300904D03*
%TD*%
D48*
%TO.C,R4.5*%
X84401609Y-113062599D03*
X84401609Y-115062599D03*
%TD*%
D15*
%TO.C,C1.2*%
X117064411Y-111559586D03*
X111464411Y-111559586D03*
%TD*%
D11*
%TO.C,C5.2*%
X81574411Y-126839586D03*
X81574411Y-128914586D03*
%TD*%
D46*
%TO.C,IC2*%
X120809411Y-113721586D03*
X122079411Y-113721586D03*
X123349411Y-113721586D03*
X124619411Y-113721586D03*
X124619411Y-108297586D03*
X123349411Y-108297586D03*
X122079411Y-108297586D03*
X120809411Y-108297586D03*
D47*
X122714411Y-111009586D03*
%TD*%
D12*
%TO.C,C2.3*%
X136857500Y-103810904D03*
X134957500Y-103810904D03*
%TD*%
D13*
%TO.C,D3.3*%
X166511911Y-131109586D03*
X164636911Y-131109586D03*
%TD*%
D10*
%TO.C,JP2*%
X200690000Y-133990904D03*
X200690000Y-135290904D03*
%TD*%
D14*
%TO.C,R5.1*%
X79500000Y-122668404D03*
X79500000Y-124493404D03*
%TD*%
D13*
%TO.C,D3.5*%
X166511911Y-92739586D03*
X164636911Y-92739586D03*
%TD*%
D16*
%TO.C,R5.3*%
X98870000Y-124758404D03*
X98870000Y-122933404D03*
%TD*%
D14*
%TO.C,R1.7*%
X118260000Y-90648404D03*
X118260000Y-92473404D03*
%TD*%
D35*
%TO.C,R3.1*%
X180204411Y-131109586D03*
X178204411Y-131109586D03*
%TD*%
D14*
%TO.C,R7.2*%
X109084411Y-65206439D03*
X109084411Y-67031439D03*
%TD*%
D16*
%TO.C,R1.9*%
X111721490Y-92493045D03*
X111721490Y-90668045D03*
%TD*%
D18*
%TO.C,R3.8*%
X182346911Y-95839586D03*
X184346911Y-95839586D03*
%TD*%
D10*
%TO.C,JP1*%
X203190000Y-133990904D03*
X203190000Y-135290904D03*
%TD*%
D29*
%TO.C,C6.2*%
X129504411Y-129037086D03*
X129504411Y-126962086D03*
%TD*%
D30*
%TO.C,D3.8*%
X169079411Y-133989586D03*
X170479411Y-133989586D03*
%TD*%
D18*
%TO.C,R3.11*%
X160294411Y-133979586D03*
X162294411Y-133979586D03*
%TD*%
D14*
%TO.C,R1.10*%
X114041490Y-90658045D03*
X114041490Y-92483045D03*
%TD*%
D30*
%TO.C,D3.4*%
X187294411Y-95839586D03*
X188694411Y-95839586D03*
%TD*%
D34*
%TO.C,D1.2*%
X131750000Y-101507086D03*
X131750000Y-97507086D03*
%TD*%
D20*
%TO.C,PRR1*%
X83906911Y-60624586D03*
X86406911Y-60624586D03*
X88906911Y-60624586D03*
X91406911Y-60624586D03*
X93906911Y-60624586D03*
X96406911Y-60624586D03*
%TD*%
D18*
%TO.C,R3.7*%
X178194411Y-95839586D03*
X180194411Y-95839586D03*
%TD*%
%TO.C,R4.2*%
X104084411Y-92039586D03*
X106084411Y-92039586D03*
%TD*%
D11*
%TO.C,C4.1*%
X79641609Y-113062599D03*
X79641609Y-115137599D03*
%TD*%
%TO.C,C5.1*%
X91914411Y-118129586D03*
X91914411Y-120204586D03*
%TD*%
D16*
%TO.C,R5.6*%
X79460000Y-120185904D03*
X79460000Y-118360904D03*
%TD*%
D49*
%TO.C,L1.1*%
X116898682Y-98919586D03*
X127498682Y-98919586D03*
%TD*%
D50*
%TO.C,D5.3*%
X89714411Y-119817086D03*
X89714411Y-118417086D03*
%TD*%
D26*
%TO.C,Q3.3*%
X171044411Y-93689586D03*
X171044411Y-91789586D03*
X169169411Y-92739586D03*
%TD*%
D49*
%TO.C,L1.2*%
X117208682Y-73799586D03*
X127808682Y-73879586D03*
%TD*%
M02*
