M48
; DRILL file {KiCad 9.0.2} date 2026-01-28T09:53:19+0700
; FORMAT={-:-/ absolute / metric / decimal}
; #@! TF.CreationDate,2026-01-28T09:53:19+07:00
; #@! TF.GenerationSoftware,Kicad,Pcbnew,9.0.2
; #@! TF.FileFunction,Plated,1,2,PTH
FMAT,2
METRIC
; #@! TA.AperFunction,Plated,PTH,ViaDrill
T1C0.300
; #@! TA.AperFunction,Plated,PTH,ViaDrill
T2C0.400
; #@! TA.AperFunction,Plated,PTH,ViaDrill
T3C0.500
; #@! TA.AperFunction,Plated,PTH,ViaDrill
T4C0.700
; #@! TA.AperFunction,Plated,PTH,ComponentDrill
T5C0.800
; #@! TA.AperFunction,Plated,PTH,ViaDrill
T6C1.000
; #@! TA.AperFunction,Plated,PTH,ComponentDrill
T7C1.000
; #@! TA.AperFunction,Plated,PTH,ComponentDrill
T8C1.050
; #@! TA.AperFunction,Plated,PTH,ComponentDrill
T9C1.320
; #@! TA.AperFunction,Plated,PTH,ComponentDrill
T10C1.800
; #@! TA.AperFunction,Plated,PTH,ComponentDrill
T11C2.100
; #@! TA.AperFunction,Plated,PTH,ComponentDrill
T12C2.500
%
G90
G05
T1
X82.032Y-115.138
X93.907Y-65.36
X103.244Y-65.36
X134.92Y-96.651
X134.957Y-99.011
X136.857Y-103.811
X151.68Y-105.17
X151.68Y-124.03
X154.36Y-124.03
T2
X72.314Y-116.97
X76.82Y-118.361
X79.5Y-124.493
X82.214Y-71.73
X83.914Y-65.36
X84.924Y-71.73
X85.774Y-81.35
X86.474Y-65.36
X91.914Y-118.13
X94.12Y-124.758
X99.564Y-86.83
X105.654Y-83.94
X113.97Y-92.511
X125.57Y-110.98
X129.95Y-84.571
X164.614Y-133.95
X164.644Y-98.86
X182.347Y-95.84
X182.357Y-133.85
T3
X84.402Y-113.063
X96.413Y-122.875
X102.334Y-94.98
X102.334Y-99.59
X105.654Y-79.48
X111.23Y-84.911
X111.721Y-92.493
X112.049Y-104.84
X112.099Y-99.59
X118.86Y-82.137
X129.349Y-116.59
X131.32Y-93.881
X139.16Y-87.271
X139.19Y-93.95
X145.89Y-93.951
X151.68Y-101.05
X160.084Y-131.11
X160.104Y-124.03
X188.804Y-127.21
T4
X170.61Y-97.861
X175.0Y-92.74
X176.21Y-97.891
T5
X132.21Y-111.441
X132.528Y-89.431
X135.83Y-111.441
X136.058Y-89.431
T6
X155.294Y-94.65
X194.742Y-92.79
X194.742Y-95.89
T7
X83.907Y-60.625
X86.407Y-60.625
X88.907Y-60.625
X91.407Y-60.625
X93.907Y-60.625
X96.407Y-60.625
X103.244Y-60.58
X105.744Y-60.58
X108.244Y-60.58
X110.744Y-60.58
X111.724Y-132.085
X113.244Y-60.58
X114.264Y-132.085
X115.744Y-60.58
X116.804Y-132.085
X119.344Y-132.085
X121.884Y-132.085
X122.734Y-60.59
X124.424Y-132.085
X125.234Y-60.59
X126.964Y-132.085
X127.734Y-60.59
X129.504Y-132.085
X130.234Y-60.59
X195.69Y-132.951
X198.19Y-132.951
X200.69Y-132.951
X203.19Y-132.951
T8
X97.294Y-132.085
X99.794Y-132.085
T9
X145.33Y-74.32
X145.74Y-114.169
X147.33Y-68.32
X147.33Y-80.32
X147.74Y-108.169
X147.74Y-120.169
X159.53Y-68.32
X159.53Y-80.32
X159.94Y-108.169
X159.94Y-120.169
T10
X176.303Y-105.769
X178.803Y-123.569
X191.503Y-69.72
X191.503Y-79.92
X191.503Y-109.569
X191.503Y-119.769
X194.003Y-114.669
T11
X176.303Y-65.92
X178.803Y-83.72
X194.003Y-74.82
T12
X204.812Y-82.121
X204.812Y-87.121
X204.812Y-92.121
X204.812Y-97.121
X204.812Y-102.121
X204.812Y-107.121
M30
