%TF.GenerationSoftware,KiCad,Pcbnew,9.0.2*%
%TF.CreationDate,2026-01-28T09:51:54+07:00*%
%TF.ProjectId,ESP32_ShockKey,45535033-325f-4536-986f-636b4b65792e,rev?*%
%TF.SameCoordinates,Original*%
%TF.FileFunction,Soldermask,Bot*%
%TF.FilePolarity,Negative*%
%FSLAX46Y46*%
G04 Gerber Fmt 4.6, Leading zero omitted, Abs format (unit mm)*
G04 Created by KiCad (PCBNEW 9.0.2) date 2026-01-28 09:51:54*
%MOMM*%
%LPD*%
G01*
G04 APERTURE LIST*
G04 Aperture macros list*
%AMRoundRect*
0 Rectangle with rounded corners*
0 $1 Rounding radius*
0 $2 $3 $4 $5 $6 $7 $8 $9 X,Y pos of 4 corners*
0 Add a 4 corners polygon primitive as box body*
4,1,4,$2,$3,$4,$5,$6,$7,$8,$9,$2,$3,0*
0 Add four circle primitives for the rounded corners*
1,1,$1+$1,$2,$3*
1,1,$1+$1,$4,$5*
1,1,$1+$1,$6,$7*
1,1,$1+$1,$8,$9*
0 Add four rect primitives between the rounded corners*
20,1,$1+$1,$2,$3,$4,$5,0*
20,1,$1+$1,$4,$5,$6,$7,0*
20,1,$1+$1,$6,$7,$8,$9,0*
20,1,$1+$1,$8,$9,$2,$3,0*%
G04 Aperture macros list end*
%ADD10C,2.704000*%
%ADD11O,1.712000X2.704000*%
%ADD12RoundRect,0.102000X-0.754000X-1.250000X0.754000X-1.250000X0.754000X1.250000X-0.754000X1.250000X0*%
%ADD13RoundRect,0.102000X0.754000X1.250000X-0.754000X1.250000X-0.754000X-1.250000X0.754000X-1.250000X0*%
%ADD14RoundRect,0.312500X-0.687500X-0.687500X0.687500X-0.687500X0.687500X0.687500X-0.687500X0.687500X0*%
%ADD15C,2.000000*%
%ADD16C,4.204000*%
%ADD17C,5.204000*%
%ADD18O,1.804000X2.704000*%
%ADD19O,1.500000X2.500000*%
%ADD20O,6.204000X4.204000*%
G04 APERTURE END LIST*
D10*
%TO.C,K3*%
X147740219Y-108168910D03*
X147740219Y-120168910D03*
X145740219Y-114168910D03*
X159940219Y-108168910D03*
X159940219Y-120168910D03*
%TD*%
D11*
%TO.C,J7.1*%
X103244411Y-60579586D03*
X105744411Y-60579586D03*
X108244411Y-60579586D03*
X110744411Y-60579586D03*
X113244411Y-60579586D03*
X115744411Y-60579586D03*
%TD*%
%TO.C,J2*%
X203190000Y-132950904D03*
X200690000Y-132950904D03*
X198190000Y-132950904D03*
D12*
X195690000Y-132950904D03*
%TD*%
D13*
%TO.C,J1*%
X122734411Y-60589586D03*
D11*
X125234411Y-60589586D03*
X127734411Y-60589586D03*
X130234411Y-60589586D03*
%TD*%
D14*
%TO.C,C1.1*%
X132210000Y-111440904D03*
D15*
X135830000Y-111440904D03*
%TD*%
D10*
%TO.C,K1*%
X147330219Y-68320238D03*
X147330219Y-80320238D03*
X145330219Y-74320238D03*
X159530219Y-68320238D03*
X159530219Y-80320238D03*
%TD*%
D16*
%TO.C,K5*%
X191502731Y-109568910D03*
X191502731Y-119768910D03*
D17*
X194002731Y-114668910D03*
X178802731Y-123568910D03*
X176302731Y-105768910D03*
%TD*%
D14*
%TO.C,C1.5*%
X132527621Y-89430904D03*
D15*
X136057621Y-89430904D03*
%TD*%
D18*
%TO.C,J5.1*%
X99794411Y-132084586D03*
X97294411Y-132084586D03*
%TD*%
D19*
%TO.C,J6.1*%
X129504411Y-132084586D03*
X126964411Y-132084586D03*
X124424411Y-132084586D03*
X121884411Y-132084586D03*
X119344411Y-132084586D03*
X116804411Y-132084586D03*
X114264411Y-132084586D03*
X111724411Y-132084586D03*
%TD*%
D20*
%TO.C,J3*%
X204812500Y-107120904D03*
X204812500Y-102120904D03*
X204812500Y-97120904D03*
X204812500Y-92120904D03*
X204812500Y-87120904D03*
X204812500Y-82120904D03*
%TD*%
D16*
%TO.C,K2*%
X191502731Y-69720238D03*
X191502731Y-79920238D03*
D17*
X194002731Y-74820238D03*
X178802731Y-83720238D03*
X176302731Y-65920238D03*
%TD*%
D11*
%TO.C,PRR1*%
X83906911Y-60624586D03*
X86406911Y-60624586D03*
X88906911Y-60624586D03*
X91406911Y-60624586D03*
X93906911Y-60624586D03*
X96406911Y-60624586D03*
%TD*%
M02*
