%TF.GenerationSoftware,KiCad,Pcbnew,9.0.2*%
%TF.CreationDate,2026-01-28T09:51:54+07:00*%
%TF.ProjectId,ESP32_ShockKey,45535033-325f-4536-986f-636b4b65792e,rev?*%
%TF.SameCoordinates,Original*%
%TF.FileFunction,Copper,L2,Bot*%
%TF.FilePolarity,Positive*%
%FSLAX46Y46*%
G04 Gerber Fmt 4.6, Leading zero omitted, Abs format (unit mm)*
G04 Created by KiCad (PCBNEW 9.0.2) date 2026-01-28 09:51:54*
%MOMM*%
%LPD*%
G01*
G04 APERTURE LIST*
G04 Aperture macros list*
%AMRoundRect*
0 Rectangle with rounded corners*
0 $1 Rounding radius*
0 $2 $3 $4 $5 $6 $7 $8 $9 X,Y pos of 4 corners*
0 Add a 4 corners polygon primitive as box body*
4,1,4,$2,$3,$4,$5,$6,$7,$8,$9,$2,$3,0*
0 Add four circle primitives for the rounded corners*
1,1,$1+$1,$2,$3*
1,1,$1+$1,$4,$5*
1,1,$1+$1,$6,$7*
1,1,$1+$1,$8,$9*
0 Add four rect primitives between the rounded corners*
20,1,$1+$1,$2,$3,$4,$5,0*
20,1,$1+$1,$4,$5,$6,$7,0*
20,1,$1+$1,$6,$7,$8,$9,0*
20,1,$1+$1,$8,$9,$2,$3,0*%
G04 Aperture macros list end*
%TA.AperFunction,ComponentPad*%
%ADD10C,2.500000*%
%TD*%
%TA.AperFunction,ComponentPad*%
%ADD11O,1.508000X2.500000*%
%TD*%
%TA.AperFunction,ComponentPad*%
%ADD12R,1.508000X2.500000*%
%TD*%
%TA.AperFunction,ComponentPad*%
%ADD13RoundRect,0.312500X-0.687500X-0.687500X0.687500X-0.687500X0.687500X0.687500X-0.687500X0.687500X0*%
%TD*%
%TA.AperFunction,ComponentPad*%
%ADD14C,2.000000*%
%TD*%
%TA.AperFunction,ComponentPad*%
%ADD15C,4.000000*%
%TD*%
%TA.AperFunction,ComponentPad*%
%ADD16C,5.000000*%
%TD*%
%TA.AperFunction,ComponentPad*%
%ADD17O,1.600000X2.500000*%
%TD*%
%TA.AperFunction,ComponentPad*%
%ADD18O,1.500000X2.500000*%
%TD*%
%TA.AperFunction,ComponentPad*%
%ADD19O,6.000000X4.000000*%
%TD*%
%TA.AperFunction,ViaPad*%
%ADD20C,0.600000*%
%TD*%
%TA.AperFunction,ViaPad*%
%ADD21C,0.800000*%
%TD*%
%TA.AperFunction,ViaPad*%
%ADD22C,1.300000*%
%TD*%
%TA.AperFunction,ViaPad*%
%ADD23C,0.700000*%
%TD*%
%TA.AperFunction,ViaPad*%
%ADD24C,2.000000*%
%TD*%
%TA.AperFunction,ViaPad*%
%ADD25C,1.500000*%
%TD*%
%TA.AperFunction,ViaPad*%
%ADD26C,1.000000*%
%TD*%
%TA.AperFunction,Conductor*%
%ADD27C,2.000000*%
%TD*%
%TA.AperFunction,Conductor*%
%ADD28C,0.500000*%
%TD*%
%TA.AperFunction,Conductor*%
%ADD29C,0.600000*%
%TD*%
%TA.AperFunction,Conductor*%
%ADD30C,0.800000*%
%TD*%
%TA.AperFunction,Conductor*%
%ADD31C,1.000000*%
%TD*%
%TA.AperFunction,Conductor*%
%ADD32C,0.700000*%
%TD*%
%TA.AperFunction,Conductor*%
%ADD33C,1.800000*%
%TD*%
%TA.AperFunction,Conductor*%
%ADD34C,1.500000*%
%TD*%
G04 APERTURE END LIST*
D10*
%TO.P,K3,A1*%
%TO.N,Net-(D3.8-K)*%
X147740219Y-108168910D03*
%TO.P,K3,A2*%
%TO.N,Net-(D3.3-K)*%
X147740219Y-120168910D03*
%TO.P,K3,COM*%
%TO.N,/12V*%
X145740219Y-114168910D03*
%TO.P,K3,NC*%
X159940219Y-108168910D03*
%TO.P,K3,NO*%
%TO.N,/12V_COI*%
X159940219Y-120168910D03*
%TD*%
D11*
%TO.P,J7.1,1,1*%
%TO.N,/3.3V*%
X103244411Y-60579586D03*
%TO.P,J7.1,2,2*%
%TO.N,/WAKUP*%
X105744411Y-60579586D03*
%TO.P,J7.1,3,3*%
%TO.N,/RX_Finger*%
X108244411Y-60579586D03*
%TO.P,J7.1,4,4*%
%TO.N,/TX_Finger*%
X110744411Y-60579586D03*
%TO.P,J7.1,5,5*%
%TO.N,GND*%
X113244411Y-60579586D03*
%TO.P,J7.1,6,6*%
%TO.N,/3.3V*%
X115744411Y-60579586D03*
%TD*%
%TO.P,J2,1,1*%
%TO.N,/COM3*%
X203190000Y-132950904D03*
%TO.P,J2,2,2*%
%TO.N,/NO3*%
X200690000Y-132950904D03*
%TO.P,J2,3,3*%
%TO.N,/12V_COI*%
X198190000Y-132950904D03*
D12*
%TO.P,J2,4,4*%
%TO.N,GND0*%
X195690000Y-132950904D03*
%TD*%
%TO.P,J1,1,1*%
%TO.N,/3.3V*%
X122734411Y-60589586D03*
D11*
%TO.P,J1,2,2*%
%TO.N,GND*%
X125234411Y-60589586D03*
%TO.P,J1,3,3*%
%TO.N,/MST_IO17*%
X127734411Y-60589586D03*
%TO.P,J1,4,4*%
%TO.N,/MST_IO16*%
X130234411Y-60589586D03*
%TD*%
D13*
%TO.P,C1.1,1*%
%TO.N,/VCC*%
X132210000Y-111440904D03*
D14*
%TO.P,C1.1,2*%
%TO.N,GND0*%
X135830000Y-111440904D03*
%TD*%
D10*
%TO.P,K1,A1*%
%TO.N,Net-(D3.6-K)*%
X147330219Y-68320238D03*
%TO.P,K1,A2*%
%TO.N,Net-(D3.5-K)*%
X147330219Y-80320238D03*
%TO.P,K1,COM*%
%TO.N,/COM3*%
X145330219Y-74320238D03*
%TO.P,K1,NC*%
X159530219Y-68320238D03*
%TO.P,K1,NO*%
%TO.N,/NO3*%
X159530219Y-80320238D03*
%TD*%
D15*
%TO.P,K5,C1*%
%TO.N,Net-(D3.2-K)*%
X191502731Y-109568910D03*
%TO.P,K5,C2*%
%TO.N,Net-(D3.1-K)*%
X191502731Y-119768910D03*
D16*
%TO.P,K5,COM1*%
%TO.N,/COM1*%
X194002731Y-114668910D03*
%TO.P,K5,NC*%
X178802731Y-123568910D03*
%TO.P,K5,NO*%
%TO.N,/NO1*%
X176302731Y-105768910D03*
%TD*%
D13*
%TO.P,C1.5,1*%
%TO.N,/VCC*%
X132527621Y-89430904D03*
D14*
%TO.P,C1.5,2*%
%TO.N,GND0*%
X136057621Y-89430904D03*
%TD*%
D17*
%TO.P,J5.1,1,1*%
%TO.N,GND*%
X99794411Y-132084586D03*
%TO.P,J5.1,2,2*%
%TO.N,/signal*%
X97294411Y-132084586D03*
%TD*%
D18*
%TO.P,J6.1,1,Pin_1*%
%TO.N,/3.3V*%
X129504411Y-132084586D03*
%TO.P,J6.1,2,Pin_2*%
%TO.N,/RST_RFID*%
X126964411Y-132084586D03*
%TO.P,J6.1,3,Pin_3*%
%TO.N,GND*%
X124424411Y-132084586D03*
%TO.P,J6.1,4,Pin_4*%
%TO.N,/IRQ*%
X121884411Y-132084586D03*
%TO.P,J6.1,5,Pin_5*%
%TO.N,/MISO*%
X119344411Y-132084586D03*
%TO.P,J6.1,6,Pin_6*%
%TO.N,/MOSI*%
X116804411Y-132084586D03*
%TO.P,J6.1,7,Pin_7*%
%TO.N,/SLK*%
X114264411Y-132084586D03*
%TO.P,J6.1,8,Pin_8*%
%TO.N,/SS{slash}SDA*%
X111724411Y-132084586D03*
%TD*%
D19*
%TO.P,J3,1,1*%
%TO.N,/COM1*%
X204812500Y-107120904D03*
%TO.P,J3,2,2*%
%TO.N,/NO1*%
X204812500Y-102120904D03*
%TO.P,J3,3,3*%
%TO.N,/COM2*%
X204812500Y-97120904D03*
%TO.P,J3,4,4*%
%TO.N,/NO2*%
X204812500Y-92120904D03*
%TO.P,J3,5,5*%
%TO.N,GND0*%
X204812500Y-87120904D03*
%TO.P,J3,6,6*%
%TO.N,/VCC*%
X204812500Y-82120904D03*
%TD*%
D15*
%TO.P,K2,C1*%
%TO.N,Net-(D3.4-K)*%
X191502731Y-69720238D03*
%TO.P,K2,C2*%
%TO.N,Net-(D3.4-A)*%
X191502731Y-79920238D03*
D16*
%TO.P,K2,COM1*%
%TO.N,/COM2*%
X194002731Y-74820238D03*
%TO.P,K2,NC*%
X178802731Y-83720238D03*
%TO.P,K2,NO*%
%TO.N,/NO2*%
X176302731Y-65920238D03*
%TD*%
D11*
%TO.P,PRR1,1,1*%
%TO.N,/MST_EN*%
X83906911Y-60624586D03*
%TO.P,PRR1,2,2*%
%TO.N,/MST_IO0*%
X86406911Y-60624586D03*
%TO.P,PRR1,3,3*%
%TO.N,/MST_TXD0*%
X88906911Y-60624586D03*
%TO.P,PRR1,4,4*%
%TO.N,/MST_RXD0*%
X91406911Y-60624586D03*
%TO.P,PRR1,5,5*%
%TO.N,GND*%
X93906911Y-60624586D03*
%TO.P,PRR1,6,6*%
%TO.N,/3.3V*%
X96406911Y-60624586D03*
%TD*%
D20*
%TO.N,GND*%
X103244411Y-65359586D03*
X93906911Y-65359586D03*
D21*
X94120000Y-124758404D03*
X91914411Y-118129586D03*
D20*
X82031609Y-115137599D03*
D22*
X105654411Y-79479586D03*
D23*
%TO.N,/MST_IO21*%
X182356911Y-133849586D03*
X85774411Y-81349586D03*
%TO.N,/MST_IO22*%
X182346911Y-95839586D03*
X84924411Y-71729586D03*
%TO.N,/MST_IO0*%
X86474411Y-65359586D03*
X99564411Y-86829586D03*
%TO.N,/MST_IO23*%
X82214411Y-71729586D03*
X164644411Y-98859586D03*
%TO.N,/MST_EN*%
X72314411Y-116970000D03*
X83914411Y-65359586D03*
%TO.N,/MST_IO4*%
X164614411Y-133949586D03*
X105654411Y-83939586D03*
D24*
%TO.N,Net-(D3.4-K)*%
X194742411Y-95889586D03*
%TO.N,Net-(D3.6-K)*%
X155294411Y-94649586D03*
D20*
%TO.N,GND0*%
X151680000Y-124029586D03*
D25*
X111230000Y-84910904D03*
D20*
X134920000Y-96650904D03*
X151680000Y-105170000D03*
D25*
X175000000Y-92739586D03*
X170610000Y-97860904D03*
D21*
X188804411Y-127210000D03*
D25*
X118860000Y-82136904D03*
D20*
X154360000Y-124029586D03*
D26*
X111721490Y-92493045D03*
D22*
X139190000Y-93950000D03*
D23*
X125570000Y-110980000D03*
D25*
X176210000Y-97890904D03*
D26*
X112049411Y-104839586D03*
D22*
X129348682Y-116589586D03*
D21*
%TO.N,/Vbias*%
X79500000Y-124493404D03*
D23*
X76820000Y-118360904D03*
D26*
%TO.N,/5V*%
X96412513Y-122875374D03*
X139160000Y-87270904D03*
X102334411Y-99589586D03*
D22*
X151680000Y-101050000D03*
D26*
X112099411Y-99589586D03*
X160084411Y-131109586D03*
X145890000Y-93950904D03*
D25*
X160104411Y-124029586D03*
D26*
%TO.N,/3.3V*%
X102334411Y-94979586D03*
X84401609Y-113062599D03*
D20*
X134957500Y-99010904D03*
X136857500Y-103810904D03*
D24*
%TO.N,Net-(D3.4-A)*%
X194742411Y-92789586D03*
%TO.N,/12V*%
X131320000Y-93880904D03*
D23*
%TO.N,/fb12*%
X129950000Y-84570904D03*
X113970000Y-92510904D03*
%TD*%
D27*
%TO.N,/VCC*%
X129780000Y-89430904D02*
X126820000Y-92390904D01*
X135949096Y-117250000D02*
X155270904Y-117250000D01*
X200415729Y-65650904D02*
X204030000Y-69265175D01*
X155270904Y-117250000D02*
X172140000Y-100380904D01*
X132440000Y-113740904D02*
X135949096Y-117250000D01*
X132527621Y-89430904D02*
X129780000Y-89430904D01*
X204030000Y-81338404D02*
X204812500Y-82120904D01*
X204030000Y-69265175D02*
X204030000Y-81338404D01*
X172140000Y-100380904D02*
X182120000Y-100380904D01*
X182120000Y-100380904D02*
X184380000Y-98120904D01*
X184380000Y-68900904D02*
X187630000Y-65650904D01*
X126820000Y-105990904D02*
X132280000Y-111450904D01*
X132440000Y-111450904D02*
X132440000Y-113740904D01*
X187630000Y-65650904D02*
X200415729Y-65650904D01*
X132280000Y-111450904D02*
X132440000Y-111450904D01*
X126820000Y-92390904D02*
X126820000Y-105990904D01*
X184380000Y-98120904D02*
X184380000Y-68900904D01*
D28*
%TO.N,/MST_IO21*%
X165968682Y-132599586D02*
X156989586Y-132599586D01*
X104813593Y-81329586D02*
X85794411Y-81329586D01*
X85794411Y-81329586D02*
X85774411Y-81349586D01*
X156989586Y-132599586D02*
X149869586Y-125479586D01*
X116634411Y-125479586D02*
X107074411Y-115919586D01*
X182356911Y-133849586D02*
X167218682Y-133849586D01*
X167218682Y-133849586D02*
X165968682Y-132599586D01*
X107074411Y-83590404D02*
X104813593Y-81329586D01*
X149869586Y-125479586D02*
X116634411Y-125479586D01*
X107074411Y-115919586D02*
X107074411Y-83590404D01*
%TO.N,/MST_IO22*%
X133288682Y-76369586D02*
X89564411Y-76369586D01*
X89564411Y-76369586D02*
X84924411Y-71729586D01*
X182046911Y-96139586D02*
X153058682Y-96139586D01*
X153058682Y-96139586D02*
X133288682Y-76369586D01*
X182346911Y-95839586D02*
X182046911Y-96139586D01*
%TO.N,/MST_IO0*%
X81704411Y-86829586D02*
X79724411Y-84849586D01*
X86474411Y-65459586D02*
X86474411Y-65359586D01*
X79724411Y-72209586D02*
X86474411Y-65459586D01*
X99564411Y-86829586D02*
X81704411Y-86829586D01*
X79724411Y-84849586D02*
X79724411Y-72209586D01*
D29*
X86474411Y-60692086D02*
X86406911Y-60624586D01*
D28*
%TO.N,/MST_IO23*%
X133068682Y-77599586D02*
X154318682Y-98849586D01*
X88084411Y-77599586D02*
X133068682Y-77599586D01*
X154318682Y-98849586D02*
X164714411Y-98849586D01*
X82214411Y-71729586D02*
X88084411Y-77599586D01*
%TO.N,/MST_EN*%
X77440000Y-116970000D02*
X78804411Y-115605589D01*
X78804411Y-115605589D02*
X78804411Y-70469586D01*
X78804411Y-70469586D02*
X83914411Y-65359586D01*
X72314411Y-116970000D02*
X77440000Y-116970000D01*
X83906911Y-65212086D02*
X83914411Y-65219586D01*
%TO.N,/MST_IO4*%
X156849586Y-133949586D02*
X164614411Y-133949586D01*
X115974411Y-126449586D02*
X149349586Y-126449586D01*
X105654411Y-116129586D02*
X115974411Y-126449586D01*
X105654411Y-83939586D02*
X105654411Y-116129586D01*
X149349586Y-126449586D02*
X156849586Y-133949586D01*
D30*
%TO.N,Net-(D3.2-K)*%
X191713397Y-109779576D02*
X191502731Y-109568910D01*
D31*
%TO.N,Net-(D3.4-K)*%
X191290666Y-69720238D02*
X191502731Y-69720238D01*
X186940000Y-74070904D02*
X191290666Y-69720238D01*
X194742411Y-95889586D02*
X186940000Y-88087175D01*
X186940000Y-88087175D02*
X186940000Y-74070904D01*
D30*
%TO.N,Net-(D3.6-K)*%
X141960000Y-69990000D02*
X143610000Y-68340000D01*
X155294411Y-94649586D02*
X141960000Y-81315175D01*
X147310457Y-68340000D02*
X147330219Y-68320238D01*
X143610000Y-68340000D02*
X147310457Y-68340000D01*
X141960000Y-81315175D02*
X141960000Y-69990000D01*
D28*
%TO.N,/Vbias*%
X76820000Y-121813404D02*
X76820000Y-118360904D01*
X79500000Y-124493404D02*
X76820000Y-121813404D01*
D30*
%TO.N,/5V*%
X148460000Y-101030000D02*
X145890000Y-98460000D01*
D32*
X102334411Y-116945589D02*
X96412513Y-122867487D01*
D30*
X139160000Y-87270904D02*
X124230000Y-87270904D01*
X141100904Y-87270904D02*
X145890000Y-92060000D01*
X145890000Y-98460000D02*
X145890000Y-93950904D01*
D31*
X160084411Y-124049586D02*
X160104411Y-124029586D01*
D30*
X145890000Y-92060000D02*
X145890000Y-93950904D01*
D32*
X96412513Y-122867487D02*
X96412513Y-122875374D01*
D30*
X112099411Y-99401493D02*
X112099411Y-99589586D01*
X124230000Y-87270904D02*
X112099411Y-99401493D01*
X151680000Y-101050000D02*
X151660000Y-101030000D01*
X139160000Y-87270904D02*
X141100904Y-87270904D01*
D32*
X102334411Y-99789586D02*
X102334411Y-116945589D01*
D30*
X151660000Y-101030000D02*
X148460000Y-101030000D01*
D31*
X160084411Y-131109586D02*
X160084411Y-124049586D01*
D28*
%TO.N,/3.3V*%
X134970000Y-99010904D02*
X136857500Y-100898404D01*
X136857500Y-100898404D02*
X136857500Y-103860904D01*
D32*
X84394411Y-123995315D02*
X88060000Y-127660904D01*
X129504411Y-128395315D02*
X129504411Y-132084586D01*
X128770000Y-127660904D02*
X129504411Y-128395315D01*
X84394411Y-106439586D02*
X84394411Y-123995315D01*
D28*
X134957500Y-99010904D02*
X134970000Y-99010904D01*
D32*
X101924411Y-94999586D02*
X95834411Y-94999586D01*
X88060000Y-127660904D02*
X128770000Y-127660904D01*
X101944411Y-94979586D02*
X101924411Y-94999586D01*
X102294411Y-94979586D02*
X101944411Y-94979586D01*
X95834411Y-94999586D02*
X84394411Y-106439586D01*
D33*
%TO.N,/COM1*%
X202601994Y-114668910D02*
X204812500Y-112458404D01*
X194002731Y-114668910D02*
X202601994Y-114668910D01*
X204812500Y-112458404D02*
X204812500Y-107120904D01*
X178802731Y-117011266D02*
X178802731Y-123568910D01*
X180934421Y-114879576D02*
X178802731Y-117011266D01*
X193792065Y-114879576D02*
X180934421Y-114879576D01*
X194002731Y-114668910D02*
X193792065Y-114879576D01*
%TO.N,/NO1*%
X185214421Y-105479576D02*
X188573093Y-102120904D01*
X188573093Y-102120904D02*
X204812500Y-102120904D01*
X176592065Y-105479576D02*
X185214421Y-105479576D01*
D27*
%TO.N,/COM2*%
X177674401Y-83709576D02*
X171090000Y-77125175D01*
X214940000Y-94610904D02*
X212430000Y-97120904D01*
X198460000Y-94870904D02*
X200710000Y-97120904D01*
X212430000Y-97120904D02*
X204812500Y-97120904D01*
X194002731Y-74820238D02*
X197031745Y-74820238D01*
X197031745Y-74820238D02*
X198460000Y-76248493D01*
X198460000Y-76248493D02*
X198460000Y-94870904D01*
X171090000Y-62210904D02*
X173691318Y-59609586D01*
X171090000Y-77125175D02*
X171090000Y-62210904D01*
X173691318Y-59609586D02*
X203738682Y-59609586D01*
X214940000Y-70810904D02*
X214940000Y-94610904D01*
X203738682Y-59609586D02*
X214940000Y-70810904D01*
X200710000Y-97120904D02*
X204812500Y-97120904D01*
%TO.N,/NO2*%
X176302731Y-65920238D02*
X176310666Y-65920238D01*
X209930000Y-92120904D02*
X204812500Y-92120904D01*
X179861318Y-62369586D02*
X201908682Y-62369586D01*
X211460000Y-90590904D02*
X209930000Y-92120904D01*
X211460000Y-71920904D02*
X211460000Y-90590904D01*
X176310666Y-65920238D02*
X179861318Y-62369586D01*
X201908682Y-62369586D02*
X211460000Y-71920904D01*
D31*
%TO.N,Net-(D3.4-A)*%
X194760000Y-92771997D02*
X194711997Y-92771997D01*
X194742411Y-92789586D02*
X194760000Y-92771997D01*
X191502731Y-89562731D02*
X191502731Y-79920238D01*
X194711997Y-92771997D02*
X191502731Y-89562731D01*
D34*
%TO.N,/12V_COI*%
X159940219Y-120260219D02*
X171370904Y-131690904D01*
X183170000Y-131690904D02*
X187980000Y-136500904D01*
X171370904Y-131690904D02*
X183170000Y-131690904D01*
X159940219Y-120168910D02*
X159940219Y-120260219D01*
X196790000Y-136500904D02*
X198190000Y-135100904D01*
X198190000Y-135100904D02*
X198190000Y-132950904D01*
X187980000Y-136500904D02*
X196790000Y-136500904D01*
D27*
%TO.N,/12V*%
X131320000Y-105640904D02*
X132290000Y-106610904D01*
X141140000Y-107960904D02*
X141140000Y-111530904D01*
X143778006Y-114168910D02*
X153941090Y-114168910D01*
X132290000Y-106610904D02*
X139790000Y-106610904D01*
X153941090Y-114168910D02*
X159940219Y-108169781D01*
X139790000Y-106610904D02*
X141140000Y-107960904D01*
X141140000Y-111530904D02*
X143778006Y-114168910D01*
X159940219Y-108169781D02*
X159940219Y-108168910D01*
X131320000Y-93880904D02*
X131320000Y-105640904D01*
D28*
%TO.N,/fb12*%
X113970000Y-92500904D02*
X121900000Y-84570904D01*
X121900000Y-84570904D02*
X129950000Y-84570904D01*
X113970000Y-92510904D02*
X113970000Y-92500904D01*
%TD*%
%TA.AperFunction,Conductor*%
%TO.N,GND*%
G36*
X135292563Y-56740619D02*
G01*
X135516085Y-56755272D01*
X135548368Y-56759523D01*
X135760054Y-56801634D01*
X135791508Y-56810063D01*
X135995882Y-56879442D01*
X136025961Y-56891900D01*
X136219544Y-56987367D01*
X136247736Y-57003644D01*
X136427158Y-57123533D01*
X136427196Y-57123558D01*
X136453025Y-57143377D01*
X136615298Y-57285689D01*
X136638324Y-57308716D01*
X136780627Y-57470982D01*
X136800453Y-57496820D01*
X136920352Y-57676262D01*
X136920362Y-57676276D01*
X136936644Y-57704478D01*
X137032103Y-57898049D01*
X137044567Y-57928140D01*
X137113942Y-58132510D01*
X137122372Y-58163970D01*
X137122372Y-58163971D01*
X137164477Y-58375643D01*
X137168729Y-58407934D01*
X137183402Y-58631777D01*
X137183935Y-58648064D01*
X137183935Y-60550066D01*
X137183911Y-60550251D01*
X137183911Y-60849286D01*
X137221519Y-61327145D01*
X137221525Y-61327193D01*
X137296514Y-61800657D01*
X137296515Y-61800658D01*
X137408419Y-62266775D01*
X137408422Y-62266786D01*
X137556558Y-62722699D01*
X137740005Y-63165582D01*
X137740008Y-63165588D01*
X137740009Y-63165590D01*
X137957642Y-63592720D01*
X138208117Y-64001457D01*
X138489889Y-64389283D01*
X138801220Y-64753805D01*
X139140192Y-65092777D01*
X139504714Y-65404108D01*
X139892540Y-65685880D01*
X140301277Y-65936355D01*
X140728407Y-66153988D01*
X141171295Y-66337438D01*
X141258651Y-66365821D01*
X141323962Y-66398271D01*
X141958116Y-66839710D01*
X142313028Y-67086767D01*
X142380405Y-67156763D01*
X142415867Y-67247215D01*
X142414015Y-67344352D01*
X142375132Y-67433387D01*
X142358085Y-67455185D01*
X141333841Y-68624642D01*
X141256801Y-68683836D01*
X141162973Y-68709042D01*
X141146526Y-68709586D01*
X118374411Y-68709586D01*
X115057650Y-72026347D01*
X111837841Y-75246156D01*
X111757059Y-75300132D01*
X111661771Y-75319086D01*
X90102683Y-75319086D01*
X90007395Y-75300132D01*
X89926613Y-75246156D01*
X87208586Y-72528129D01*
X101403937Y-72528129D01*
X101403937Y-72751043D01*
X101433033Y-72972049D01*
X101475266Y-73129665D01*
X101490725Y-73187359D01*
X101490729Y-73187371D01*
X101576026Y-73393300D01*
X101576031Y-73393309D01*
X101687492Y-73586365D01*
X101812392Y-73749137D01*
X101823189Y-73763208D01*
X101980813Y-73920832D01*
X101980820Y-73920837D01*
X102157655Y-74056528D01*
X102157662Y-74056532D01*
X102350710Y-74167989D01*
X102350713Y-74167990D01*
X102350720Y-74167994D01*
X102479425Y-74221304D01*
X102556655Y-74253294D01*
X102771972Y-74310988D01*
X102992978Y-74340084D01*
X103215892Y-74340084D01*
X103436898Y-74310988D01*
X103652215Y-74253294D01*
X103791587Y-74195564D01*
X103858149Y-74167994D01*
X103858152Y-74167992D01*
X103858160Y-74167989D01*
X104051208Y-74056532D01*
X104051210Y-74056529D01*
X104051214Y-74056528D01*
X104112502Y-74009499D01*
X104228057Y-73920832D01*
X104385681Y-73763208D01*
X104474348Y-73647653D01*
X104521377Y-73586365D01*
X104521378Y-73586361D01*
X104521381Y-73586359D01*
X104632838Y-73393311D01*
X104718143Y-73187366D01*
X104775837Y-72972049D01*
X104804933Y-72751043D01*
X104804933Y-72528129D01*
X104775837Y-72307123D01*
X104718143Y-72091806D01*
X104686153Y-72014576D01*
X104632843Y-71885871D01*
X104632838Y-71885862D01*
X104632838Y-71885861D01*
X104521381Y-71692813D01*
X104521377Y-71692806D01*
X104385686Y-71515971D01*
X104385681Y-71515964D01*
X104228057Y-71358340D01*
X104190047Y-71329174D01*
X104051214Y-71222643D01*
X103858158Y-71111182D01*
X103858149Y-71111177D01*
X103652220Y-71025880D01*
X103652219Y-71025879D01*
X103652215Y-71025878D01*
X103436898Y-70968184D01*
X103436893Y-70968183D01*
X103436894Y-70968183D01*
X103215892Y-70939088D01*
X102992978Y-70939088D01*
X102771976Y-70968183D01*
X102556661Y-71025876D01*
X102556649Y-71025880D01*
X102350720Y-71111177D01*
X102350711Y-71111182D01*
X102157655Y-71222643D01*
X101980820Y-71358334D01*
X101980809Y-71358343D01*
X101823192Y-71515960D01*
X101823183Y-71515971D01*
X101687492Y-71692806D01*
X101576031Y-71885862D01*
X101576026Y-71885871D01*
X101490729Y-72091800D01*
X101490725Y-72091812D01*
X101433032Y-72307126D01*
X101410394Y-72479082D01*
X101404752Y-72521937D01*
X101403937Y-72528129D01*
X87208586Y-72528129D01*
X86236467Y-71556010D01*
X86212407Y-71528092D01*
X86191137Y-71499359D01*
X85869449Y-71064810D01*
X85837034Y-71026992D01*
X85824661Y-71011324D01*
X85801967Y-70980089D01*
X85801958Y-70980078D01*
X85673914Y-70852035D01*
X85673913Y-70852034D01*
X85582068Y-70785305D01*
X85527405Y-70745590D01*
X85527402Y-70745588D01*
X85527396Y-70745585D01*
X85366060Y-70663380D01*
X85366057Y-70663378D01*
X85366050Y-70663375D01*
X85366047Y-70663374D01*
X85366043Y-70663372D01*
X85193829Y-70607417D01*
X85193812Y-70607413D01*
X85014967Y-70579087D01*
X85014960Y-70579086D01*
X85014957Y-70579086D01*
X84833865Y-70579086D01*
X84833862Y-70579086D01*
X84833854Y-70579087D01*
X84655009Y-70607413D01*
X84654992Y-70607417D01*
X84482778Y-70663372D01*
X84482761Y-70663380D01*
X84321425Y-70745585D01*
X84321418Y-70745589D01*
X84174912Y-70852031D01*
X84046856Y-70980087D01*
X83940414Y-71126593D01*
X83940410Y-71126600D01*
X83858205Y-71287936D01*
X83858198Y-71287952D01*
X83844804Y-71329174D01*
X83831513Y-71352904D01*
X83822551Y-71378579D01*
X83808006Y-71394878D01*
X83797331Y-71413940D01*
X83775971Y-71430778D01*
X83757865Y-71451069D01*
X83738190Y-71460561D01*
X83721033Y-71474087D01*
X83694857Y-71481469D01*
X83670363Y-71493287D01*
X83648553Y-71494527D01*
X83627525Y-71500458D01*
X83600513Y-71497260D01*
X83573364Y-71498805D01*
X83552740Y-71491605D01*
X83531043Y-71489037D01*
X83507312Y-71475746D01*
X83481638Y-71466784D01*
X83465711Y-71452448D01*
X83446277Y-71441564D01*
X83409148Y-71402098D01*
X83408496Y-71401233D01*
X83159449Y-71064810D01*
X83121962Y-71021075D01*
X83117262Y-71014839D01*
X83116987Y-71014270D01*
X83114661Y-71011324D01*
X83091967Y-70980089D01*
X83091958Y-70980078D01*
X82963914Y-70852035D01*
X82956471Y-70845678D01*
X82958221Y-70843628D01*
X82904296Y-70785305D01*
X82870658Y-70694159D01*
X82874461Y-70597079D01*
X82915125Y-70508843D01*
X82940511Y-70479115D01*
X87058586Y-66361041D01*
X87088289Y-66335673D01*
X87223912Y-66237139D01*
X87351964Y-66109087D01*
X87458407Y-65962580D01*
X87540622Y-65801225D01*
X87596582Y-65628995D01*
X87624911Y-65450132D01*
X87624911Y-65269040D01*
X87596582Y-65090177D01*
X87540622Y-64917947D01*
X87458407Y-64756592D01*
X87351964Y-64610085D01*
X87223912Y-64482033D01*
X87077405Y-64375590D01*
X87077402Y-64375588D01*
X87077396Y-64375585D01*
X86916060Y-64293380D01*
X86916057Y-64293378D01*
X86916050Y-64293375D01*
X86916047Y-64293374D01*
X86916043Y-64293372D01*
X86743829Y-64237417D01*
X86743812Y-64237413D01*
X86564967Y-64209087D01*
X86564960Y-64209086D01*
X86564957Y-64209086D01*
X86383865Y-64209086D01*
X86383862Y-64209086D01*
X86383854Y-64209087D01*
X86205009Y-64237413D01*
X86204992Y-64237417D01*
X86032778Y-64293372D01*
X86032761Y-64293380D01*
X85871425Y-64375585D01*
X85871418Y-64375589D01*
X85724912Y-64482031D01*
X85596856Y-64610087D01*
X85490414Y-64756593D01*
X85490412Y-64756595D01*
X85416271Y-64902106D01*
X85356123Y-64978403D01*
X85271355Y-65025874D01*
X85174874Y-65037293D01*
X85081366Y-65010921D01*
X85005069Y-64950773D01*
X84972551Y-64902106D01*
X84898409Y-64756595D01*
X84898408Y-64756594D01*
X84898407Y-64756592D01*
X84791964Y-64610085D01*
X84663912Y-64482033D01*
X84663907Y-64482029D01*
X84661598Y-64480057D01*
X84647255Y-64466797D01*
X84576568Y-64396112D01*
X84576564Y-64396108D01*
X84404509Y-64281145D01*
X84404504Y-64281142D01*
X84213332Y-64201956D01*
X84145679Y-64188499D01*
X84010376Y-64161586D01*
X83803446Y-64161586D01*
X83701968Y-64181771D01*
X83600489Y-64201956D01*
X83409317Y-64281142D01*
X83409312Y-64281145D01*
X83237259Y-64396107D01*
X83090934Y-64542432D01*
X83090933Y-64542434D01*
X83078691Y-64560753D01*
X83078664Y-64560794D01*
X83063595Y-64583347D01*
X83036858Y-64610085D01*
X82930415Y-64756592D01*
X82848200Y-64917947D01*
X82845337Y-64926755D01*
X82831353Y-64948690D01*
X82812587Y-64968278D01*
X82797467Y-64990897D01*
X78134759Y-69653606D01*
X78134756Y-69653609D01*
X78134755Y-69653608D01*
X77988435Y-69799929D01*
X77988429Y-69799936D01*
X77873473Y-69971982D01*
X77873467Y-69971992D01*
X77794281Y-70163164D01*
X77753911Y-70366122D01*
X77753911Y-115067318D01*
X77734957Y-115162606D01*
X77680981Y-115243387D01*
X77077800Y-115846569D01*
X76997018Y-115900546D01*
X76901730Y-115919500D01*
X72843509Y-115919500D01*
X72766224Y-115904132D01*
X72765354Y-115906812D01*
X72583829Y-115847831D01*
X72583812Y-115847827D01*
X72404967Y-115819501D01*
X72404960Y-115819500D01*
X72404957Y-115819500D01*
X72223865Y-115819500D01*
X72223862Y-115819500D01*
X72223854Y-115819501D01*
X72045009Y-115847827D01*
X72044992Y-115847831D01*
X71872778Y-115903786D01*
X71872761Y-115903794D01*
X71711425Y-115985999D01*
X71711418Y-115986003D01*
X71564912Y-116092445D01*
X71436856Y-116220501D01*
X71330414Y-116367007D01*
X71330410Y-116367014D01*
X71248205Y-116528350D01*
X71248197Y-116528367D01*
X71192242Y-116700581D01*
X71192238Y-116700598D01*
X71163912Y-116879443D01*
X71163911Y-116879458D01*
X71163911Y-117060541D01*
X71163912Y-117060556D01*
X71192238Y-117239401D01*
X71192242Y-117239418D01*
X71248197Y-117411632D01*
X71248199Y-117411636D01*
X71248200Y-117411639D01*
X71330415Y-117572994D01*
X71436858Y-117719501D01*
X71564910Y-117847553D01*
X71711417Y-117953996D01*
X71872772Y-118036211D01*
X71872777Y-118036212D01*
X71872778Y-118036213D01*
X72044992Y-118092168D01*
X72044994Y-118092168D01*
X72045002Y-118092171D01*
X72223865Y-118120500D01*
X72223869Y-118120500D01*
X72404953Y-118120500D01*
X72404957Y-118120500D01*
X72583820Y-118092171D01*
X72756050Y-118036211D01*
X72756050Y-118036210D01*
X72765354Y-118033188D01*
X72766224Y-118035867D01*
X72843509Y-118020500D01*
X75420500Y-118020500D01*
X75515788Y-118039454D01*
X75596570Y-118093430D01*
X75650546Y-118174212D01*
X75669500Y-118269500D01*
X75669500Y-118451445D01*
X75669501Y-118451460D01*
X75697827Y-118630305D01*
X75697831Y-118630322D01*
X75756812Y-118811847D01*
X75754122Y-118812720D01*
X75769500Y-118889963D01*
X75769500Y-121916867D01*
X75809870Y-122119825D01*
X75889056Y-122310997D01*
X75889062Y-122311007D01*
X76004018Y-122483053D01*
X76004020Y-122483055D01*
X76004023Y-122483059D01*
X76150345Y-122629381D01*
X76150348Y-122629383D01*
X78302949Y-124781984D01*
X78356925Y-124862766D01*
X78363692Y-124881108D01*
X78387451Y-124954232D01*
X78387452Y-124954235D01*
X78387453Y-124954236D01*
X78473240Y-125122603D01*
X78584310Y-125275477D01*
X78717927Y-125409094D01*
X78870801Y-125520164D01*
X79039168Y-125605951D01*
X79218882Y-125664344D01*
X79405519Y-125693904D01*
X79405523Y-125693904D01*
X79594477Y-125693904D01*
X79594481Y-125693904D01*
X79781118Y-125664344D01*
X79960832Y-125605951D01*
X80129199Y-125520164D01*
X80282073Y-125409094D01*
X80415690Y-125275477D01*
X80526760Y-125122603D01*
X80612547Y-124954236D01*
X80670940Y-124774522D01*
X80700500Y-124587885D01*
X80700500Y-124398923D01*
X80670940Y-124212286D01*
X80612547Y-124032572D01*
X80526760Y-123864205D01*
X80415690Y-123711331D01*
X80282073Y-123577714D01*
X80282069Y-123577711D01*
X80282068Y-123577710D01*
X80241005Y-123547876D01*
X80129199Y-123466644D01*
X79960832Y-123380857D01*
X79960831Y-123380856D01*
X79960828Y-123380855D01*
X79887704Y-123357096D01*
X79802937Y-123309624D01*
X79788580Y-123296353D01*
X77943430Y-121451203D01*
X77889454Y-121370421D01*
X77870500Y-121275133D01*
X77870500Y-118890001D01*
X77885872Y-118812719D01*
X77883188Y-118811847D01*
X77942168Y-118630322D01*
X77942167Y-118630322D01*
X77942171Y-118630313D01*
X77970500Y-118451450D01*
X77970500Y-118270358D01*
X77946765Y-118120498D01*
X77940641Y-118081832D01*
X77942167Y-118081590D01*
X77938808Y-117996348D01*
X77972423Y-117905194D01*
X78018546Y-117849856D01*
X78031702Y-117838062D01*
X78109655Y-117785977D01*
X78255977Y-117639655D01*
X78255978Y-117639652D01*
X79620388Y-116275244D01*
X79735353Y-116103187D01*
X79803525Y-115938603D01*
X79814541Y-115912009D01*
X79832942Y-115819500D01*
X79854912Y-115709054D01*
X79854912Y-115502123D01*
X79854912Y-115491850D01*
X79854911Y-115491824D01*
X79854911Y-87066857D01*
X79873865Y-86971569D01*
X79927841Y-86890787D01*
X80008623Y-86836811D01*
X80103911Y-86817857D01*
X80199199Y-86836811D01*
X80279979Y-86890786D01*
X81034756Y-87645563D01*
X81034759Y-87645565D01*
X81206811Y-87760527D01*
X81206812Y-87760527D01*
X81206813Y-87760528D01*
X81397991Y-87839716D01*
X81397993Y-87839716D01*
X81397994Y-87839717D01*
X81600940Y-87880086D01*
X81600945Y-87880087D01*
X81600946Y-87880087D01*
X81820164Y-87880087D01*
X81820184Y-87880086D01*
X99035313Y-87880086D01*
X99112597Y-87895453D01*
X99113468Y-87892774D01*
X99294992Y-87951754D01*
X99294994Y-87951754D01*
X99295002Y-87951757D01*
X99473865Y-87980086D01*
X99473869Y-87980086D01*
X99654953Y-87980086D01*
X99654957Y-87980086D01*
X99833820Y-87951757D01*
X100006050Y-87895797D01*
X100167405Y-87813582D01*
X100313912Y-87707139D01*
X100441964Y-87579087D01*
X100548407Y-87432580D01*
X100630622Y-87271225D01*
X100686582Y-87098995D01*
X100714911Y-86920132D01*
X100714911Y-86739040D01*
X100686582Y-86560177D01*
X100630622Y-86387947D01*
X100548407Y-86226592D01*
X100441964Y-86080085D01*
X100313912Y-85952033D01*
X100167405Y-85845590D01*
X100167402Y-85845588D01*
X100167396Y-85845585D01*
X100006060Y-85763380D01*
X100006057Y-85763378D01*
X100006050Y-85763375D01*
X100006047Y-85763374D01*
X100006043Y-85763372D01*
X99833829Y-85707417D01*
X99833812Y-85707413D01*
X99654967Y-85679087D01*
X99654960Y-85679086D01*
X99654957Y-85679086D01*
X99473865Y-85679086D01*
X99473862Y-85679086D01*
X99473854Y-85679087D01*
X99295009Y-85707413D01*
X99294992Y-85707417D01*
X99113468Y-85766398D01*
X99112597Y-85763718D01*
X99035313Y-85779086D01*
X82242683Y-85779086D01*
X82147395Y-85760132D01*
X82066613Y-85706156D01*
X80847841Y-84487384D01*
X80793865Y-84406602D01*
X80774911Y-84311314D01*
X80774911Y-72747855D01*
X80793865Y-72652567D01*
X80847837Y-72571790D01*
X80963937Y-72455689D01*
X81044715Y-72401717D01*
X81140003Y-72382763D01*
X81235291Y-72401717D01*
X81316073Y-72455693D01*
X81330036Y-72472044D01*
X81330503Y-72471646D01*
X81336854Y-72479082D01*
X81336858Y-72479087D01*
X81464910Y-72607139D01*
X81464913Y-72607141D01*
X81508358Y-72638706D01*
X81531624Y-72657865D01*
X81549625Y-72674616D01*
X81549629Y-72674619D01*
X81549632Y-72674621D01*
X81549635Y-72674624D01*
X81951402Y-72972044D01*
X82012917Y-73017582D01*
X82040835Y-73041642D01*
X87414756Y-78415563D01*
X87586813Y-78530528D01*
X87721996Y-78586522D01*
X87777991Y-78609716D01*
X87811664Y-78616413D01*
X87980946Y-78650087D01*
X88200165Y-78650087D01*
X88200185Y-78650086D01*
X108365411Y-78650086D01*
X108460699Y-78669040D01*
X108541481Y-78723016D01*
X108595457Y-78803798D01*
X108614411Y-78899086D01*
X108614411Y-83419682D01*
X108595457Y-83514970D01*
X108541481Y-83595752D01*
X108460699Y-83649728D01*
X108365411Y-83668682D01*
X108270123Y-83649728D01*
X108189341Y-83595752D01*
X108135365Y-83514970D01*
X108121195Y-83468259D01*
X108111676Y-83420404D01*
X108084541Y-83283984D01*
X108045647Y-83190085D01*
X108005354Y-83092810D01*
X108005348Y-83092800D01*
X107890392Y-82920754D01*
X107890390Y-82920752D01*
X107890388Y-82920749D01*
X107744066Y-82774427D01*
X107744062Y-82774424D01*
X105629572Y-80659934D01*
X105629570Y-80659931D01*
X105483248Y-80513609D01*
X105483244Y-80513606D01*
X105483242Y-80513604D01*
X105311196Y-80398648D01*
X105311186Y-80398642D01*
X105120014Y-80319456D01*
X105052361Y-80305999D01*
X104917058Y-80279086D01*
X104917056Y-80279086D01*
X86571937Y-80279086D01*
X86542943Y-80277392D01*
X85947190Y-80207545D01*
X85916714Y-80205923D01*
X85891009Y-80203211D01*
X85864957Y-80199086D01*
X85683865Y-80199086D01*
X85683862Y-80199086D01*
X85683854Y-80199087D01*
X85505009Y-80227413D01*
X85504992Y-80227417D01*
X85332778Y-80283372D01*
X85332761Y-80283380D01*
X85171425Y-80365585D01*
X85171418Y-80365589D01*
X85024912Y-80472031D01*
X84896856Y-80600087D01*
X84790414Y-80746593D01*
X84790410Y-80746600D01*
X84708205Y-80907936D01*
X84708197Y-80907953D01*
X84652242Y-81080167D01*
X84652238Y-81080184D01*
X84623912Y-81259029D01*
X84623911Y-81259044D01*
X84623911Y-81440127D01*
X84623912Y-81440142D01*
X84652238Y-81618987D01*
X84652242Y-81619004D01*
X84708197Y-81791218D01*
X84708205Y-81791235D01*
X84786233Y-81944374D01*
X84790415Y-81952580D01*
X84896858Y-82099087D01*
X85024910Y-82227139D01*
X85171417Y-82333582D01*
X85332772Y-82415797D01*
X85332777Y-82415798D01*
X85332778Y-82415799D01*
X85504992Y-82471754D01*
X85504994Y-82471754D01*
X85505002Y-82471757D01*
X85683865Y-82500086D01*
X85683869Y-82500086D01*
X85864955Y-82500086D01*
X85864957Y-82500086D01*
X85939085Y-82488344D01*
X85961333Y-82485841D01*
X85997629Y-82483403D01*
X85997631Y-82483403D01*
X86545654Y-82384078D01*
X86590060Y-82380086D01*
X104275322Y-82380086D01*
X104370610Y-82399040D01*
X104451392Y-82453016D01*
X104806590Y-82808214D01*
X104860566Y-82888996D01*
X104879520Y-82984284D01*
X104860566Y-83079572D01*
X104806592Y-83160350D01*
X104776858Y-83190085D01*
X104776856Y-83190087D01*
X104670414Y-83336593D01*
X104670410Y-83336600D01*
X104588205Y-83497936D01*
X104588197Y-83497953D01*
X104532242Y-83670167D01*
X104532238Y-83670184D01*
X104503912Y-83849029D01*
X104503911Y-83849044D01*
X104503911Y-84030127D01*
X104503912Y-84030142D01*
X104532238Y-84208987D01*
X104532242Y-84209004D01*
X104591223Y-84390529D01*
X104588533Y-84391402D01*
X104603911Y-84468645D01*
X104603911Y-116233051D01*
X104612304Y-116275244D01*
X104644281Y-116436007D01*
X104723467Y-116627179D01*
X104723473Y-116627189D01*
X104838429Y-116799235D01*
X104838431Y-116799237D01*
X104838434Y-116799241D01*
X104984756Y-116945563D01*
X104984758Y-116945564D01*
X114124527Y-126085334D01*
X114178503Y-126166116D01*
X114197457Y-126261404D01*
X114178503Y-126356692D01*
X114124527Y-126437474D01*
X114043745Y-126491450D01*
X113948457Y-126510404D01*
X88639692Y-126510404D01*
X88544404Y-126491450D01*
X88463622Y-126437474D01*
X85617841Y-123591692D01*
X85563865Y-123510910D01*
X85544911Y-123415622D01*
X85544911Y-122773012D01*
X95112013Y-122773012D01*
X95112013Y-122977735D01*
X95144035Y-123179905D01*
X95207291Y-123374588D01*
X95207295Y-123374598D01*
X95300224Y-123556981D01*
X95300226Y-123556984D01*
X95420547Y-123722593D01*
X95565294Y-123867340D01*
X95730903Y-123987661D01*
X95730905Y-123987662D01*
X95819053Y-124032576D01*
X95913294Y-124080594D01*
X96107979Y-124143851D01*
X96179088Y-124155113D01*
X96310151Y-124175873D01*
X96310158Y-124175873D01*
X96310161Y-124175874D01*
X96310164Y-124175874D01*
X96514862Y-124175874D01*
X96514865Y-124175874D01*
X96514868Y-124175873D01*
X96514874Y-124175873D01*
X96610383Y-124160745D01*
X96717047Y-124143851D01*
X96911732Y-124080594D01*
X97094123Y-123987661D01*
X97259732Y-123867340D01*
X97404479Y-123722593D01*
X97524800Y-123556984D01*
X97617733Y-123374593D01*
X97640302Y-123305130D01*
X97687771Y-123220367D01*
X97701031Y-123206020D01*
X99438939Y-121468112D01*
X101403933Y-121468112D01*
X101403933Y-121468125D01*
X101403933Y-121691039D01*
X101433029Y-121912045D01*
X101488703Y-122119824D01*
X101490724Y-122127366D01*
X101490725Y-122127370D01*
X101576025Y-122333303D01*
X101576030Y-122333314D01*
X101687479Y-122526348D01*
X101687490Y-122526366D01*
X101823181Y-122703202D01*
X101980814Y-122860835D01*
X102157650Y-122996526D01*
X102157655Y-122996529D01*
X102157659Y-122996532D01*
X102215016Y-123029647D01*
X102350702Y-123107986D01*
X102350705Y-123107987D01*
X102350708Y-123107989D01*
X102350713Y-123107991D01*
X102556646Y-123193291D01*
X102556647Y-123193291D01*
X102556654Y-123193294D01*
X102771972Y-123250988D01*
X102992978Y-123280084D01*
X103215892Y-123280084D01*
X103436898Y-123250988D01*
X103652216Y-123193294D01*
X103858162Y-123107989D01*
X104051211Y-122996532D01*
X104075708Y-122977735D01*
X104228055Y-122860835D01*
X104228055Y-122860834D01*
X104228060Y-122860831D01*
X104385684Y-122703207D01*
X104521385Y-122526358D01*
X104632842Y-122333309D01*
X104718147Y-122127363D01*
X104775841Y-121912045D01*
X104804937Y-121691039D01*
X104804937Y-121468125D01*
X104775841Y-121247119D01*
X104718147Y-121031801D01*
X104632842Y-120825855D01*
X104615659Y-120796094D01*
X104521390Y-120632815D01*
X104521385Y-120632806D01*
X104521382Y-120632802D01*
X104521379Y-120632797D01*
X104385688Y-120455961D01*
X104228055Y-120298328D01*
X104051219Y-120162637D01*
X104051201Y-120162626D01*
X103858167Y-120051177D01*
X103858156Y-120051172D01*
X103652223Y-119965872D01*
X103652219Y-119965871D01*
X103652217Y-119965870D01*
X103652216Y-119965870D01*
X103436898Y-119908176D01*
X103436893Y-119908175D01*
X103436894Y-119908175D01*
X103215892Y-119879080D01*
X102992978Y-119879080D01*
X102771976Y-119908175D01*
X102556650Y-119965871D01*
X102556646Y-119965872D01*
X102350713Y-120051172D01*
X102350702Y-120051177D01*
X102157668Y-120162626D01*
X102157650Y-120162637D01*
X101980814Y-120298328D01*
X101823181Y-120455961D01*
X101687490Y-120632797D01*
X101687479Y-120632815D01*
X101576030Y-120825849D01*
X101576025Y-120825860D01*
X101490725Y-121031793D01*
X101490724Y-121031797D01*
X101433028Y-121247122D01*
X101404747Y-121461939D01*
X101404746Y-121461938D01*
X101403933Y-121468112D01*
X99438939Y-121468112D01*
X103083908Y-117823144D01*
X103083912Y-117823142D01*
X103211964Y-117695090D01*
X103318407Y-117548583D01*
X103400622Y-117387228D01*
X103456582Y-117214998D01*
X103457310Y-117210404D01*
X103469730Y-117131989D01*
X103484911Y-117036145D01*
X103484912Y-117036133D01*
X103484912Y-116846221D01*
X103484911Y-116846191D01*
X103484911Y-100694176D01*
X103487933Y-100655498D01*
X103499560Y-100581552D01*
X103618784Y-99823329D01*
X103623121Y-99770807D01*
X103625342Y-99752348D01*
X103634911Y-99691938D01*
X103634911Y-99487234D01*
X103634910Y-99487231D01*
X103634910Y-99487224D01*
X103602888Y-99285054D01*
X103602888Y-99285052D01*
X103539631Y-99090367D01*
X103446698Y-98907976D01*
X103326377Y-98742367D01*
X103181630Y-98597620D01*
X103016021Y-98477299D01*
X103016020Y-98477298D01*
X103016018Y-98477297D01*
X102833635Y-98384368D01*
X102833625Y-98384364D01*
X102638942Y-98321108D01*
X102436772Y-98289086D01*
X102436763Y-98289086D01*
X102232059Y-98289086D01*
X102232049Y-98289086D01*
X102029879Y-98321108D01*
X101835196Y-98384364D01*
X101835186Y-98384368D01*
X101652803Y-98477297D01*
X101487190Y-98597621D01*
X101342446Y-98742365D01*
X101222122Y-98907978D01*
X101129193Y-99090361D01*
X101129189Y-99090371D01*
X101065933Y-99285054D01*
X101033911Y-99487224D01*
X101033911Y-99691938D01*
X101046037Y-99768499D01*
X101048863Y-99796551D01*
X101050035Y-99823322D01*
X101180889Y-100655500D01*
X101183911Y-100694178D01*
X101183911Y-116365895D01*
X101164957Y-116461183D01*
X101110981Y-116541965D01*
X96058512Y-121594433D01*
X95977730Y-121648409D01*
X95959394Y-121655174D01*
X95913290Y-121670155D01*
X95730905Y-121763085D01*
X95565292Y-121883409D01*
X95420548Y-122028153D01*
X95300224Y-122193766D01*
X95207295Y-122376149D01*
X95207291Y-122376159D01*
X95144035Y-122570842D01*
X95112013Y-122773012D01*
X85544911Y-122773012D01*
X85544911Y-113743117D01*
X85563865Y-113647829D01*
X85572045Y-113630084D01*
X85606829Y-113561818D01*
X85670086Y-113367133D01*
X85702109Y-113164951D01*
X85702109Y-112960247D01*
X85702108Y-112960244D01*
X85702108Y-112960237D01*
X85670086Y-112758067D01*
X85670086Y-112758065D01*
X85606829Y-112563380D01*
X85606827Y-112563376D01*
X85606826Y-112563373D01*
X85572050Y-112495120D01*
X85545678Y-112401612D01*
X85544911Y-112382078D01*
X85544911Y-107019279D01*
X85563865Y-106923991D01*
X85617841Y-106843209D01*
X96238034Y-96223016D01*
X96318816Y-96169040D01*
X96414104Y-96150086D01*
X101236170Y-96150086D01*
X101269444Y-96152319D01*
X102118352Y-96266787D01*
X102158036Y-96269407D01*
X102180588Y-96271933D01*
X102232050Y-96280085D01*
X102232059Y-96280086D01*
X102436760Y-96280086D01*
X102436763Y-96280086D01*
X102436766Y-96280085D01*
X102436772Y-96280085D01*
X102532281Y-96264957D01*
X102638945Y-96248063D01*
X102833630Y-96184806D01*
X103016021Y-96091873D01*
X103181630Y-95971552D01*
X103326377Y-95826805D01*
X103446698Y-95661196D01*
X103539631Y-95478805D01*
X103602888Y-95284120D01*
X103634911Y-95081938D01*
X103634911Y-94877234D01*
X103634910Y-94877231D01*
X103634910Y-94877224D01*
X103602888Y-94675054D01*
X103602888Y-94675052D01*
X103539631Y-94480367D01*
X103446698Y-94297976D01*
X103326377Y-94132367D01*
X103181630Y-93987620D01*
X103016021Y-93867299D01*
X103016020Y-93867298D01*
X103016018Y-93867297D01*
X102833635Y-93774368D01*
X102833625Y-93774364D01*
X102638942Y-93711108D01*
X102436772Y-93679086D01*
X102436763Y-93679086D01*
X102232059Y-93679086D01*
X102232055Y-93679086D01*
X102140348Y-93693611D01*
X102117718Y-93696141D01*
X102083160Y-93698410D01*
X102083154Y-93698411D01*
X101266245Y-93845163D01*
X101222219Y-93849086D01*
X95935255Y-93849086D01*
X95935231Y-93849085D01*
X95924957Y-93849085D01*
X95743864Y-93849085D01*
X95743856Y-93849085D01*
X95565010Y-93877413D01*
X95565005Y-93877414D01*
X95565002Y-93877415D01*
X95392772Y-93933375D01*
X95392770Y-93933375D01*
X95392770Y-93933376D01*
X95392761Y-93933380D01*
X95231425Y-94015585D01*
X95231418Y-94015589D01*
X95084908Y-94122034D01*
X95084907Y-94122035D01*
X94956857Y-94250084D01*
X94956858Y-94250085D01*
X83516857Y-105690085D01*
X83516854Y-105690089D01*
X83458413Y-105770527D01*
X83458413Y-105770528D01*
X83410414Y-105836592D01*
X83328205Y-105997936D01*
X83328200Y-105997945D01*
X83328200Y-105997947D01*
X83272240Y-106170177D01*
X83272239Y-106170182D01*
X83272238Y-106170186D01*
X83243911Y-106349030D01*
X83243910Y-106349043D01*
X83243910Y-106540405D01*
X83243911Y-106540430D01*
X83243911Y-112410333D01*
X83224957Y-112505621D01*
X83216778Y-112523362D01*
X83196393Y-112563373D01*
X83196387Y-112563384D01*
X83196387Y-112563385D01*
X83133131Y-112758067D01*
X83101109Y-112960237D01*
X83101109Y-113164960D01*
X83133131Y-113367130D01*
X83196387Y-113561813D01*
X83196389Y-113561818D01*
X83216772Y-113601822D01*
X83243143Y-113695329D01*
X83243911Y-113714865D01*
X83243911Y-123895917D01*
X83243910Y-123895947D01*
X83243910Y-124085857D01*
X83243911Y-124085870D01*
X83272238Y-124264714D01*
X83272240Y-124264724D01*
X83328200Y-124436954D01*
X83328201Y-124436955D01*
X83328205Y-124436964D01*
X83405103Y-124587885D01*
X83410415Y-124598309D01*
X83516858Y-124744816D01*
X83644910Y-124872868D01*
X83644913Y-124872870D01*
X87176192Y-128404148D01*
X87176199Y-128404156D01*
X87182444Y-128410401D01*
X87182447Y-128410405D01*
X87310499Y-128538457D01*
X87457006Y-128644900D01*
X87618361Y-128727115D01*
X87790591Y-128783076D01*
X87969454Y-128811405D01*
X87969458Y-128811405D01*
X88160821Y-128811405D01*
X88160845Y-128811404D01*
X128104911Y-128811404D01*
X128200199Y-128830358D01*
X128280981Y-128884334D01*
X128334957Y-128965116D01*
X128353911Y-129060404D01*
X128353911Y-129932850D01*
X128344191Y-130001742D01*
X128283223Y-130213500D01*
X128238645Y-130299824D01*
X128164426Y-130362518D01*
X128071864Y-130392038D01*
X127975051Y-130383888D01*
X127897587Y-130346054D01*
X127777050Y-130258480D01*
X127559596Y-130147682D01*
X127559593Y-130147681D01*
X127559591Y-130147680D01*
X127327484Y-130072264D01*
X127086447Y-130034086D01*
X127086438Y-130034086D01*
X126842384Y-130034086D01*
X126842374Y-130034086D01*
X126601337Y-130072264D01*
X126369230Y-130147680D01*
X126369226Y-130147681D01*
X126369226Y-130147682D01*
X126231790Y-130217709D01*
X126151770Y-130258481D01*
X125954330Y-130401929D01*
X125781753Y-130574506D01*
X125700777Y-130685961D01*
X125629434Y-130751910D01*
X125538284Y-130785536D01*
X125441204Y-130781722D01*
X125352973Y-130741047D01*
X125323262Y-130715672D01*
X125238728Y-130631138D01*
X125079553Y-130515490D01*
X124904242Y-130426165D01*
X124904239Y-130426164D01*
X124717122Y-130365365D01*
X124674411Y-130358600D01*
X124674411Y-131651574D01*
X124617404Y-131618661D01*
X124490237Y-131584586D01*
X124358585Y-131584586D01*
X124231418Y-131618661D01*
X124174411Y-131651574D01*
X124174411Y-130358600D01*
X124131699Y-130365365D01*
X123944582Y-130426164D01*
X123944579Y-130426165D01*
X123769268Y-130515490D01*
X123610093Y-130631138D01*
X123525558Y-130715673D01*
X123444776Y-130769649D01*
X123349488Y-130788602D01*
X123254200Y-130769647D01*
X123173418Y-130715671D01*
X123148049Y-130685967D01*
X123067066Y-130574503D01*
X122894494Y-130401931D01*
X122697050Y-130258480D01*
X122479596Y-130147682D01*
X122479593Y-130147681D01*
X122479591Y-130147680D01*
X122247484Y-130072264D01*
X122006447Y-130034086D01*
X122006438Y-130034086D01*
X121762384Y-130034086D01*
X121762374Y-130034086D01*
X121521337Y-130072264D01*
X121289230Y-130147680D01*
X121289226Y-130147681D01*
X121289226Y-130147682D01*
X121151790Y-130217709D01*
X121071770Y-130258481D01*
X120874330Y-130401929D01*
X120874328Y-130401930D01*
X120874328Y-130401931D01*
X120790477Y-130485781D01*
X120709699Y-130539755D01*
X120614411Y-130558709D01*
X120519123Y-130539755D01*
X120438344Y-130485781D01*
X120354494Y-130401931D01*
X120157050Y-130258480D01*
X119939596Y-130147682D01*
X119939593Y-130147681D01*
X119939591Y-130147680D01*
X119707484Y-130072264D01*
X119466447Y-130034086D01*
X119466438Y-130034086D01*
X119222384Y-130034086D01*
X119222374Y-130034086D01*
X118981337Y-130072264D01*
X118749230Y-130147680D01*
X118749226Y-130147681D01*
X118749226Y-130147682D01*
X118611790Y-130217709D01*
X118531770Y-130258481D01*
X118334330Y-130401929D01*
X118334328Y-130401930D01*
X118334328Y-130401931D01*
X118250477Y-130485781D01*
X118169699Y-130539755D01*
X118074411Y-130558709D01*
X117979123Y-130539755D01*
X117898344Y-130485781D01*
X117814494Y-130401931D01*
X117617050Y-130258480D01*
X117399596Y-130147682D01*
X117399593Y-130147681D01*
X117399591Y-130147680D01*
X117167484Y-130072264D01*
X116926447Y-130034086D01*
X116926438Y-130034086D01*
X116682384Y-130034086D01*
X116682374Y-130034086D01*
X116441337Y-130072264D01*
X116209230Y-130147680D01*
X116209226Y-130147681D01*
X116209226Y-130147682D01*
X116071790Y-130217709D01*
X115991770Y-130258481D01*
X115794330Y-130401929D01*
X115794328Y-130401930D01*
X115794328Y-130401931D01*
X115710477Y-130485781D01*
X115629699Y-130539755D01*
X115534411Y-130558709D01*
X115439123Y-130539755D01*
X115358344Y-130485781D01*
X115274494Y-130401931D01*
X115077050Y-130258480D01*
X114859596Y-130147682D01*
X114859593Y-130147681D01*
X114859591Y-130147680D01*
X114627484Y-130072264D01*
X114386447Y-130034086D01*
X114386438Y-130034086D01*
X114142384Y-130034086D01*
X114142374Y-130034086D01*
X113901337Y-130072264D01*
X113669230Y-130147680D01*
X113669226Y-130147681D01*
X113669226Y-130147682D01*
X113531790Y-130217709D01*
X113451770Y-130258481D01*
X113254330Y-130401929D01*
X113254328Y-130401930D01*
X113254328Y-130401931D01*
X113170477Y-130485781D01*
X113089699Y-130539755D01*
X112994411Y-130558709D01*
X112899123Y-130539755D01*
X112818344Y-130485781D01*
X112734494Y-130401931D01*
X112537050Y-130258480D01*
X112319596Y-130147682D01*
X112319593Y-130147681D01*
X112319591Y-130147680D01*
X112087484Y-130072264D01*
X111846447Y-130034086D01*
X111846438Y-130034086D01*
X111602384Y-130034086D01*
X111602374Y-130034086D01*
X111361337Y-130072264D01*
X111129230Y-130147680D01*
X111129226Y-130147681D01*
X111129226Y-130147682D01*
X110991790Y-130217709D01*
X110911770Y-130258481D01*
X110714330Y-130401929D01*
X110541754Y-130574505D01*
X110398306Y-130771945D01*
X110287505Y-130989405D01*
X110212089Y-131221512D01*
X110173911Y-131462549D01*
X110173911Y-132706622D01*
X110212089Y-132947659D01*
X110240016Y-133033611D01*
X110287507Y-133179771D01*
X110398305Y-133397225D01*
X110541756Y-133594669D01*
X110714328Y-133767241D01*
X110911772Y-133910692D01*
X111129226Y-134021490D01*
X111361335Y-134096907D01*
X111446114Y-134110334D01*
X111602374Y-134135085D01*
X111602381Y-134135085D01*
X111602384Y-134135086D01*
X111602387Y-134135086D01*
X111846435Y-134135086D01*
X111846438Y-134135086D01*
X111846441Y-134135085D01*
X111846447Y-134135085D01*
X111960317Y-134117048D01*
X112087487Y-134096907D01*
X112319596Y-134021490D01*
X112537050Y-133910692D01*
X112734494Y-133767241D01*
X112818344Y-133683390D01*
X112899123Y-133629417D01*
X112994411Y-133610463D01*
X113089699Y-133629417D01*
X113170477Y-133683390D01*
X113254328Y-133767241D01*
X113451772Y-133910692D01*
X113669226Y-134021490D01*
X113901335Y-134096907D01*
X113986114Y-134110334D01*
X114142374Y-134135085D01*
X114142381Y-134135085D01*
X114142384Y-134135086D01*
X114142387Y-134135086D01*
X114386435Y-134135086D01*
X114386438Y-134135086D01*
X114386441Y-134135085D01*
X114386447Y-134135085D01*
X114500317Y-134117048D01*
X114627487Y-134096907D01*
X114859596Y-134021490D01*
X115077050Y-133910692D01*
X115274494Y-133767241D01*
X115358344Y-133683390D01*
X115439123Y-133629417D01*
X115534411Y-133610463D01*
X115629699Y-133629417D01*
X115710477Y-133683390D01*
X115794328Y-133767241D01*
X115991772Y-133910692D01*
X116209226Y-134021490D01*
X116441335Y-134096907D01*
X116526114Y-134110334D01*
X116682374Y-134135085D01*
X116682381Y-134135085D01*
X116682384Y-134135086D01*
X116682387Y-134135086D01*
X116926435Y-134135086D01*
X116926438Y-134135086D01*
X116926441Y-134135085D01*
X116926447Y-134135085D01*
X117040317Y-134117048D01*
X117167487Y-134096907D01*
X117399596Y-134021490D01*
X117617050Y-133910692D01*
X117814494Y-133767241D01*
X117898344Y-133683390D01*
X117979123Y-133629417D01*
X118074411Y-133610463D01*
X118169699Y-133629417D01*
X118250477Y-133683390D01*
X118334328Y-133767241D01*
X118531772Y-133910692D01*
X118749226Y-134021490D01*
X118981335Y-134096907D01*
X119066114Y-134110334D01*
X119222374Y-134135085D01*
X119222381Y-134135085D01*
X119222384Y-134135086D01*
X119222387Y-134135086D01*
X119466435Y-134135086D01*
X119466438Y-134135086D01*
X119466441Y-134135085D01*
X119466447Y-134135085D01*
X119580317Y-134117048D01*
X119707487Y-134096907D01*
X119939596Y-134021490D01*
X120157050Y-133910692D01*
X120354494Y-133767241D01*
X120438344Y-133683390D01*
X120519123Y-133629417D01*
X120614411Y-133610463D01*
X120709699Y-133629417D01*
X120790477Y-133683390D01*
X120874328Y-133767241D01*
X121071772Y-133910692D01*
X121289226Y-134021490D01*
X121521335Y-134096907D01*
X121606114Y-134110334D01*
X121762374Y-134135085D01*
X121762381Y-134135085D01*
X121762384Y-134135086D01*
X121762387Y-134135086D01*
X122006435Y-134135086D01*
X122006438Y-134135086D01*
X122006441Y-134135085D01*
X122006447Y-134135085D01*
X122120317Y-134117048D01*
X122247487Y-134096907D01*
X122479596Y-134021490D01*
X122697050Y-133910692D01*
X122894494Y-133767241D01*
X123067066Y-133594669D01*
X123148046Y-133483209D01*
X123219385Y-133417263D01*
X123310535Y-133383635D01*
X123407615Y-133387448D01*
X123495846Y-133428123D01*
X123525559Y-133453499D01*
X123610093Y-133538033D01*
X123769268Y-133653681D01*
X123944579Y-133743006D01*
X123944582Y-133743007D01*
X124131699Y-133803805D01*
X124174411Y-133810570D01*
X124174411Y-132517598D01*
X124231418Y-132550511D01*
X124358585Y-132584586D01*
X124490237Y-132584586D01*
X124617404Y-132550511D01*
X124674411Y-132517598D01*
X124674411Y-133810570D01*
X124717122Y-133803805D01*
X124904239Y-133743007D01*
X124904242Y-133743006D01*
X125079553Y-133653681D01*
X125238728Y-133538033D01*
X125323261Y-133453500D01*
X125404043Y-133399524D01*
X125499331Y-133380569D01*
X125594619Y-133399522D01*
X125675401Y-133453498D01*
X125700773Y-133483205D01*
X125781756Y-133594669D01*
X125954328Y-133767241D01*
X126151772Y-133910692D01*
X126369226Y-134021490D01*
X126601335Y-134096907D01*
X126686114Y-134110334D01*
X126842374Y-134135085D01*
X126842381Y-134135085D01*
X126842384Y-134135086D01*
X126842387Y-134135086D01*
X127086435Y-134135086D01*
X127086438Y-134135086D01*
X127086441Y-134135085D01*
X127086447Y-134135085D01*
X127200317Y-134117048D01*
X127327487Y-134096907D01*
X127559596Y-134021490D01*
X127777050Y-133910692D01*
X127974494Y-133767241D01*
X128058344Y-133683390D01*
X128139123Y-133629417D01*
X128234411Y-133610463D01*
X128329699Y-133629417D01*
X128410477Y-133683390D01*
X128494328Y-133767241D01*
X128691772Y-133910692D01*
X128909226Y-134021490D01*
X129141335Y-134096907D01*
X129226114Y-134110334D01*
X129382374Y-134135085D01*
X129382381Y-134135085D01*
X129382384Y-134135086D01*
X129382387Y-134135086D01*
X129626435Y-134135086D01*
X129626438Y-134135086D01*
X129626441Y-134135085D01*
X129626447Y-134135085D01*
X129740317Y-134117048D01*
X129867487Y-134096907D01*
X130099596Y-134021490D01*
X130317050Y-133910692D01*
X130514494Y-133767241D01*
X130687066Y-133594669D01*
X130830517Y-133397225D01*
X130941315Y-133179771D01*
X131016732Y-132947662D01*
X131054911Y-132706613D01*
X131054911Y-131462559D01*
X131054910Y-131462556D01*
X131054910Y-131462549D01*
X131016733Y-131221513D01*
X131016547Y-131220940D01*
X131009954Y-131200651D01*
X131007499Y-131192635D01*
X131005066Y-131184186D01*
X130700186Y-130125237D01*
X130664631Y-130001742D01*
X130654911Y-129932851D01*
X130654911Y-128496159D01*
X130654912Y-128496134D01*
X130654912Y-128304772D01*
X130654910Y-128304759D01*
X130626582Y-128125906D01*
X130570622Y-127953676D01*
X130570618Y-127953668D01*
X130570617Y-127953665D01*
X130523977Y-127862130D01*
X130497605Y-127768623D01*
X130509024Y-127672142D01*
X130556495Y-127587374D01*
X130632793Y-127527226D01*
X130726300Y-127500854D01*
X130745837Y-127500086D01*
X134231771Y-127500086D01*
X134327059Y-127519040D01*
X134407841Y-127573016D01*
X136534411Y-129699586D01*
X138105387Y-129699586D01*
X138200675Y-129718540D01*
X138281457Y-129772516D01*
X138335433Y-129853298D01*
X138354387Y-129948586D01*
X138335433Y-130043874D01*
X138306833Y-130094944D01*
X138217638Y-130217709D01*
X137967162Y-130626448D01*
X137749527Y-131053581D01*
X137749524Y-131053587D01*
X137566077Y-131496470D01*
X137417941Y-131952383D01*
X137417938Y-131952394D01*
X137306034Y-132418511D01*
X137306033Y-132418512D01*
X137231044Y-132891976D01*
X137231038Y-132892024D01*
X137193430Y-133369883D01*
X137193430Y-135571433D01*
X137192897Y-135587718D01*
X137178248Y-135811229D01*
X137173997Y-135843521D01*
X137131892Y-136055201D01*
X137123462Y-136086662D01*
X137054089Y-136291029D01*
X137041624Y-136321122D01*
X136946166Y-136514690D01*
X136929880Y-136542897D01*
X136809975Y-136722345D01*
X136790149Y-136748182D01*
X136709631Y-136839992D01*
X136647845Y-136910445D01*
X136624813Y-136933476D01*
X136462545Y-137075777D01*
X136436704Y-137095605D01*
X136257250Y-137215507D01*
X136229043Y-137231791D01*
X136035476Y-137327243D01*
X136005381Y-137339708D01*
X135801009Y-137409076D01*
X135769550Y-137417505D01*
X135622218Y-137446807D01*
X135557867Y-137459605D01*
X135525576Y-137463855D01*
X135301245Y-137478550D01*
X135284974Y-137479083D01*
X135273554Y-137479083D01*
X135267005Y-137479083D01*
X135267004Y-137479083D01*
X135238017Y-137479084D01*
X135238015Y-137479083D01*
X135238012Y-137479084D01*
X80242095Y-137479084D01*
X80225816Y-137478551D01*
X80002303Y-137463907D01*
X79970009Y-137459656D01*
X79758316Y-137417552D01*
X79726856Y-137409123D01*
X79522487Y-137339754D01*
X79492394Y-137327290D01*
X79298822Y-137231835D01*
X79270623Y-137215555D01*
X79091147Y-137095637D01*
X79065315Y-137075815D01*
X78903047Y-136933513D01*
X78880015Y-136910482D01*
X78737703Y-136748209D01*
X78717875Y-136722368D01*
X78597969Y-136542918D01*
X78581688Y-136514720D01*
X78486216Y-136321122D01*
X78473761Y-136291052D01*
X78473753Y-136291029D01*
X78404383Y-136086670D01*
X78395953Y-136055209D01*
X78353846Y-135843518D01*
X78349598Y-135811243D01*
X78334987Y-135588296D01*
X78334454Y-135572028D01*
X78334454Y-135571433D01*
X78334454Y-135552656D01*
X78334452Y-135552653D01*
X78334451Y-135523666D01*
X78334452Y-135523660D01*
X78334451Y-135523651D01*
X78334451Y-135329560D01*
X78334451Y-135329556D01*
X78298778Y-134830784D01*
X78227614Y-134335827D01*
X78121321Y-133847208D01*
X77980442Y-133367417D01*
X77805693Y-132898899D01*
X77717879Y-132706613D01*
X77597978Y-132444065D01*
X77597970Y-132444051D01*
X77597966Y-132444041D01*
X77358320Y-132005161D01*
X77087974Y-131584495D01*
X77087972Y-131584492D01*
X77087971Y-131584490D01*
X77031171Y-131508614D01*
X95693911Y-131508614D01*
X95693911Y-132660557D01*
X95733320Y-132909368D01*
X95806590Y-133134871D01*
X95811170Y-133148965D01*
X95925541Y-133373431D01*
X95925544Y-133373435D01*
X95925545Y-133373437D01*
X96036514Y-133526173D01*
X96073618Y-133577242D01*
X96251755Y-133755379D01*
X96455566Y-133903456D01*
X96680032Y-134017827D01*
X96919626Y-134095676D01*
X97007140Y-134109537D01*
X97168439Y-134135085D01*
X97168446Y-134135085D01*
X97168449Y-134135086D01*
X97168452Y-134135086D01*
X97420370Y-134135086D01*
X97420373Y-134135086D01*
X97420376Y-134135085D01*
X97420382Y-134135085D01*
X97537924Y-134116467D01*
X97669196Y-134095676D01*
X97908790Y-134017827D01*
X98133256Y-133903456D01*
X98337067Y-133755379D01*
X98515204Y-133577242D01*
X98547253Y-133533130D01*
X98618592Y-133467183D01*
X98709741Y-133433555D01*
X98806822Y-133437368D01*
X98895053Y-133478042D01*
X98924767Y-133503419D01*
X98947521Y-133526173D01*
X99113057Y-133646443D01*
X99295385Y-133739343D01*
X99295391Y-133739345D01*
X99489996Y-133802576D01*
X99490001Y-133802577D01*
X99544410Y-133811194D01*
X99544411Y-133811193D01*
X99544411Y-132546465D01*
X99591769Y-132573808D01*
X99725293Y-132609586D01*
X99863529Y-132609586D01*
X99997053Y-132573808D01*
X100044411Y-132546465D01*
X100044411Y-133811194D01*
X100098820Y-133802577D01*
X100098825Y-133802576D01*
X100293430Y-133739345D01*
X100293436Y-133739343D01*
X100475764Y-133646443D01*
X100641300Y-133526173D01*
X100785998Y-133381475D01*
X100906268Y-133215939D01*
X100999168Y-133033611D01*
X100999170Y-133033605D01*
X101062401Y-132838999D01*
X101094409Y-132636909D01*
X101094411Y-132636893D01*
X101094411Y-132334587D01*
X101094410Y-132334586D01*
X100256291Y-132334586D01*
X100283633Y-132287228D01*
X100319411Y-132153704D01*
X100319411Y-132015468D01*
X100283633Y-131881944D01*
X100256291Y-131834586D01*
X101094410Y-131834586D01*
X101094411Y-131834585D01*
X101094411Y-131532278D01*
X101094410Y-131532272D01*
X101087989Y-131491727D01*
X101087989Y-131491722D01*
X101062401Y-131330172D01*
X100999170Y-131135566D01*
X100999168Y-131135560D01*
X100906268Y-130953232D01*
X100785998Y-130787696D01*
X100641300Y-130642998D01*
X100475764Y-130522728D01*
X100293436Y-130429828D01*
X100293430Y-130429826D01*
X100098831Y-130366597D01*
X100098817Y-130366593D01*
X100044411Y-130357976D01*
X100044411Y-131622706D01*
X99997053Y-131595364D01*
X99863529Y-131559586D01*
X99725293Y-131559586D01*
X99591769Y-131595364D01*
X99544411Y-131622706D01*
X99544411Y-130357977D01*
X99544410Y-130357976D01*
X99490004Y-130366593D01*
X99489990Y-130366597D01*
X99295391Y-130429826D01*
X99295385Y-130429828D01*
X99113057Y-130522728D01*
X98947520Y-130642999D01*
X98924764Y-130665755D01*
X98843981Y-130719730D01*
X98748693Y-130738682D01*
X98653405Y-130719726D01*
X98572624Y-130665749D01*
X98547255Y-130636045D01*
X98515204Y-130591930D01*
X98337067Y-130413793D01*
X98272102Y-130366593D01*
X98133262Y-130265720D01*
X98133260Y-130265719D01*
X98133256Y-130265716D01*
X97908790Y-130151345D01*
X97908787Y-130151344D01*
X97908785Y-130151343D01*
X97669193Y-130073495D01*
X97420382Y-130034086D01*
X97420373Y-130034086D01*
X97168449Y-130034086D01*
X97168439Y-130034086D01*
X96919628Y-130073495D01*
X96680036Y-130151343D01*
X96680032Y-130151344D01*
X96680032Y-130151345D01*
X96455566Y-130265716D01*
X96455564Y-130265717D01*
X96455559Y-130265720D01*
X96251758Y-130413790D01*
X96073615Y-130591933D01*
X95925545Y-130795734D01*
X95925542Y-130795739D01*
X95925541Y-130795741D01*
X95826864Y-130989405D01*
X95811168Y-131020211D01*
X95733320Y-131259803D01*
X95693911Y-131508614D01*
X77031171Y-131508614D01*
X76788307Y-131184186D01*
X76460856Y-130806288D01*
X76460853Y-130806285D01*
X76460847Y-130806278D01*
X76107261Y-130452692D01*
X76107253Y-130452685D01*
X76107250Y-130452682D01*
X75729358Y-130125237D01*
X75729357Y-130125236D01*
X75729351Y-130125231D01*
X75329043Y-129825565D01*
X74908377Y-129555219D01*
X74908373Y-129555216D01*
X74908364Y-129555211D01*
X74595209Y-129384216D01*
X74469497Y-129315573D01*
X74469492Y-129315570D01*
X74469472Y-129315560D01*
X74014646Y-129107848D01*
X74014644Y-129107847D01*
X73546138Y-128933104D01*
X73546133Y-128933102D01*
X73546127Y-128933100D01*
X73546121Y-128933098D01*
X73066330Y-128792219D01*
X73066328Y-128792218D01*
X72845131Y-128744100D01*
X72577711Y-128685926D01*
X72082754Y-128614762D01*
X71583982Y-128579089D01*
X71393724Y-128579089D01*
X71360906Y-128579073D01*
X71360895Y-128579067D01*
X71343554Y-128579065D01*
X71342020Y-128579065D01*
X71342000Y-128579061D01*
X71325835Y-128578531D01*
X71102326Y-128563867D01*
X71070035Y-128559614D01*
X70858358Y-128517496D01*
X70826899Y-128509064D01*
X70622541Y-128439682D01*
X70592457Y-128427219D01*
X70495673Y-128379486D01*
X70398893Y-128331755D01*
X70370689Y-128315470D01*
X70280522Y-128255218D01*
X70191241Y-128195558D01*
X70165407Y-128175734D01*
X70108602Y-128125915D01*
X70003140Y-128033422D01*
X69980123Y-128010404D01*
X69837813Y-127848126D01*
X69817997Y-127822300D01*
X69698091Y-127642844D01*
X69681807Y-127614639D01*
X69586353Y-127421077D01*
X69573889Y-127390988D01*
X69531311Y-127265563D01*
X69504513Y-127186621D01*
X69496084Y-127155164D01*
X69483164Y-127090216D01*
X69453972Y-126943473D01*
X69449724Y-126911203D01*
X69434989Y-126686479D01*
X69434455Y-126670188D01*
X69434455Y-80924595D01*
X70216411Y-80924595D01*
X70216411Y-109714577D01*
X70231711Y-109751515D01*
X70259982Y-109779786D01*
X70273627Y-109785438D01*
X70296919Y-109795086D01*
X70296920Y-109795086D01*
X76646903Y-109795086D01*
X76661186Y-109789169D01*
X76683840Y-109779786D01*
X76712111Y-109751515D01*
X76727411Y-109714577D01*
X76727411Y-104593586D01*
X76746365Y-104498298D01*
X76800341Y-104417516D01*
X76881123Y-104363540D01*
X76976411Y-104344586D01*
X77116910Y-104344586D01*
X77116911Y-104344586D01*
X77116911Y-86344586D01*
X77116910Y-86344586D01*
X76976411Y-86344586D01*
X76881123Y-86325632D01*
X76800341Y-86271656D01*
X76746365Y-86190874D01*
X76727411Y-86095586D01*
X76727411Y-80924594D01*
X76712112Y-80887660D01*
X76712111Y-80887658D01*
X76712111Y-80887657D01*
X76683840Y-80859386D01*
X76683838Y-80859385D01*
X76683836Y-80859384D01*
X76646903Y-80844086D01*
X76646902Y-80844086D01*
X70336902Y-80844086D01*
X70296920Y-80844086D01*
X70296919Y-80844086D01*
X70259985Y-80859384D01*
X70259983Y-80859385D01*
X70231710Y-80887658D01*
X70231709Y-80887660D01*
X70223304Y-80907953D01*
X70216411Y-80924595D01*
X69434455Y-80924595D01*
X69434455Y-67517334D01*
X69430425Y-67455843D01*
X69432492Y-67424310D01*
X69440121Y-67307927D01*
X69444370Y-67275657D01*
X69486479Y-67063967D01*
X69494909Y-67032512D01*
X69564285Y-66828142D01*
X69576750Y-66798050D01*
X69672210Y-66604481D01*
X69688486Y-66576289D01*
X69808405Y-66396824D01*
X69828219Y-66371002D01*
X69970541Y-66208718D01*
X69993556Y-66185704D01*
X70155836Y-66043392D01*
X70181661Y-66023576D01*
X70361136Y-65903659D01*
X70389317Y-65887389D01*
X70582903Y-65791927D01*
X70612974Y-65779471D01*
X70817373Y-65710091D01*
X70848808Y-65701669D01*
X71060507Y-65659563D01*
X71092775Y-65655315D01*
X71317078Y-65640617D01*
X71333338Y-65640085D01*
X71351363Y-65640085D01*
X71351365Y-65640083D01*
X71383858Y-65640081D01*
X71383865Y-65640082D01*
X71383878Y-65640081D01*
X71574459Y-65640081D01*
X71574464Y-65640081D01*
X72073236Y-65604408D01*
X72568193Y-65533244D01*
X73056811Y-65426951D01*
X73536602Y-65286072D01*
X74005121Y-65111323D01*
X74459979Y-64903597D01*
X74898859Y-64663950D01*
X75319524Y-64393604D01*
X75719832Y-64093938D01*
X76097742Y-63766477D01*
X76451328Y-63412891D01*
X76778788Y-63034981D01*
X77078455Y-62634674D01*
X77348800Y-62214008D01*
X77588447Y-61775128D01*
X77741680Y-61439595D01*
X77796171Y-61320277D01*
X77796172Y-61320275D01*
X77838072Y-61207938D01*
X77970922Y-60851751D01*
X78111801Y-60371961D01*
X78191357Y-60006248D01*
X82352411Y-60006248D01*
X82352411Y-61242923D01*
X82352412Y-61242938D01*
X82390687Y-61484595D01*
X82390688Y-61484599D01*
X82466299Y-61717307D01*
X82577383Y-61935322D01*
X82577386Y-61935326D01*
X82721196Y-62133265D01*
X82721201Y-62133270D01*
X82721205Y-62133275D01*
X82894222Y-62306292D01*
X82894225Y-62306294D01*
X82894231Y-62306300D01*
X83043996Y-62415110D01*
X83092175Y-62450114D01*
X83310190Y-62561198D01*
X83542898Y-62636809D01*
X83784569Y-62675086D01*
X83784573Y-62675086D01*
X84029249Y-62675086D01*
X84029253Y-62675086D01*
X84270924Y-62636809D01*
X84503632Y-62561198D01*
X84721647Y-62450114D01*
X84868099Y-62343710D01*
X84919590Y-62306300D01*
X84919593Y-62306298D01*
X84919596Y-62306294D01*
X84919600Y-62306292D01*
X84980844Y-62245047D01*
X85061623Y-62191074D01*
X85156911Y-62172120D01*
X85252199Y-62191074D01*
X85332977Y-62245047D01*
X85394222Y-62306292D01*
X85394225Y-62306294D01*
X85394231Y-62306300D01*
X85543996Y-62415110D01*
X85592175Y-62450114D01*
X85810190Y-62561198D01*
X86042898Y-62636809D01*
X86284569Y-62675086D01*
X86284573Y-62675086D01*
X86529249Y-62675086D01*
X86529253Y-62675086D01*
X86770924Y-62636809D01*
X87003632Y-62561198D01*
X87221647Y-62450114D01*
X87368099Y-62343710D01*
X87419590Y-62306300D01*
X87419593Y-62306298D01*
X87419596Y-62306294D01*
X87419600Y-62306292D01*
X87480844Y-62245047D01*
X87561623Y-62191074D01*
X87656911Y-62172120D01*
X87752199Y-62191074D01*
X87832977Y-62245047D01*
X87894222Y-62306292D01*
X87894225Y-62306294D01*
X87894231Y-62306300D01*
X88043996Y-62415110D01*
X88092175Y-62450114D01*
X88310190Y-62561198D01*
X88542898Y-62636809D01*
X88784569Y-62675086D01*
X88784573Y-62675086D01*
X89029249Y-62675086D01*
X89029253Y-62675086D01*
X89270924Y-62636809D01*
X89503632Y-62561198D01*
X89721647Y-62450114D01*
X89868099Y-62343710D01*
X89919590Y-62306300D01*
X89919593Y-62306298D01*
X89919596Y-62306294D01*
X89919600Y-62306292D01*
X89980844Y-62245047D01*
X90061623Y-62191074D01*
X90156911Y-62172120D01*
X90252199Y-62191074D01*
X90332977Y-62245047D01*
X90394222Y-62306292D01*
X90394225Y-62306294D01*
X90394231Y-62306300D01*
X90543996Y-62415110D01*
X90592175Y-62450114D01*
X90810190Y-62561198D01*
X91042898Y-62636809D01*
X91284569Y-62675086D01*
X91284573Y-62675086D01*
X91529249Y-62675086D01*
X91529253Y-62675086D01*
X91770924Y-62636809D01*
X92003632Y-62561198D01*
X92221647Y-62450114D01*
X92368099Y-62343710D01*
X92419590Y-62306300D01*
X92419593Y-62306298D01*
X92419596Y-62306294D01*
X92419600Y-62306292D01*
X92592617Y-62133275D01*
X92654198Y-62048516D01*
X92725536Y-61982572D01*
X92816685Y-61948944D01*
X92913765Y-61952757D01*
X93001997Y-61993431D01*
X93031710Y-62018808D01*
X93089988Y-62077086D01*
X93249672Y-62193103D01*
X93425537Y-62282711D01*
X93425543Y-62282714D01*
X93613264Y-62343709D01*
X93613269Y-62343710D01*
X93656910Y-62350621D01*
X93656911Y-62350621D01*
X93656911Y-61057598D01*
X93713918Y-61090511D01*
X93841085Y-61124586D01*
X93972737Y-61124586D01*
X94099904Y-61090511D01*
X94156911Y-61057598D01*
X94156911Y-62350621D01*
X94200552Y-62343710D01*
X94200557Y-62343709D01*
X94388278Y-62282714D01*
X94388284Y-62282711D01*
X94564149Y-62193103D01*
X94723835Y-62077084D01*
X94723838Y-62077082D01*
X94782110Y-62018810D01*
X94862891Y-61964833D01*
X94958179Y-61945878D01*
X95053467Y-61964831D01*
X95134249Y-62018807D01*
X95159624Y-62048516D01*
X95180378Y-62077082D01*
X95221197Y-62133265D01*
X95221205Y-62133275D01*
X95394222Y-62306292D01*
X95394225Y-62306294D01*
X95394231Y-62306300D01*
X95543996Y-62415110D01*
X95592175Y-62450114D01*
X95810190Y-62561198D01*
X96042898Y-62636809D01*
X96284569Y-62675086D01*
X96284573Y-62675086D01*
X96529249Y-62675086D01*
X96529253Y-62675086D01*
X96770924Y-62636809D01*
X97003632Y-62561198D01*
X97221647Y-62450114D01*
X97368099Y-62343710D01*
X97419590Y-62306300D01*
X97419593Y-62306298D01*
X97419596Y-62306294D01*
X97419600Y-62306292D01*
X97592617Y-62133275D01*
X97592621Y-62133270D01*
X97592623Y-62133268D01*
X97592625Y-62133265D01*
X97673878Y-62021429D01*
X97736439Y-61935322D01*
X97847523Y-61717307D01*
X97923134Y-61484599D01*
X97961411Y-61242928D01*
X97961411Y-60006244D01*
X97954284Y-59961248D01*
X101689911Y-59961248D01*
X101689911Y-61197923D01*
X101689912Y-61197938D01*
X101728187Y-61439595D01*
X101728188Y-61439599D01*
X101803799Y-61672307D01*
X101914883Y-61890322D01*
X101914886Y-61890326D01*
X102058696Y-62088265D01*
X102058701Y-62088270D01*
X102058705Y-62088275D01*
X102231722Y-62261292D01*
X102231725Y-62261294D01*
X102231731Y-62261300D01*
X102345160Y-62343710D01*
X102429675Y-62405114D01*
X102647690Y-62516198D01*
X102880398Y-62591809D01*
X103122069Y-62630086D01*
X103122073Y-62630086D01*
X103366749Y-62630086D01*
X103366753Y-62630086D01*
X103608424Y-62591809D01*
X103841132Y-62516198D01*
X104059147Y-62405114D01*
X104191835Y-62308710D01*
X104257090Y-62261300D01*
X104257093Y-62261298D01*
X104257096Y-62261294D01*
X104257100Y-62261292D01*
X104318344Y-62200047D01*
X104399123Y-62146074D01*
X104494411Y-62127120D01*
X104589699Y-62146074D01*
X104670477Y-62200047D01*
X104731722Y-62261292D01*
X104731725Y-62261294D01*
X104731731Y-62261300D01*
X104845160Y-62343710D01*
X104929675Y-62405114D01*
X105147690Y-62516198D01*
X105380398Y-62591809D01*
X105622069Y-62630086D01*
X105622073Y-62630086D01*
X105866749Y-62630086D01*
X105866753Y-62630086D01*
X106108424Y-62591809D01*
X106341132Y-62516198D01*
X106559147Y-62405114D01*
X106691835Y-62308710D01*
X106757090Y-62261300D01*
X106757093Y-62261298D01*
X106757096Y-62261294D01*
X106757100Y-62261292D01*
X106818344Y-62200047D01*
X106899123Y-62146074D01*
X106994411Y-62127120D01*
X107089699Y-62146074D01*
X107170477Y-62200047D01*
X107231722Y-62261292D01*
X107231725Y-62261294D01*
X107231731Y-62261300D01*
X107345160Y-62343710D01*
X107429675Y-62405114D01*
X107647690Y-62516198D01*
X107880398Y-62591809D01*
X108122069Y-62630086D01*
X108122073Y-62630086D01*
X108366749Y-62630086D01*
X108366753Y-62630086D01*
X108608424Y-62591809D01*
X108841132Y-62516198D01*
X109059147Y-62405114D01*
X109191835Y-62308710D01*
X109257090Y-62261300D01*
X109257093Y-62261298D01*
X109257096Y-62261294D01*
X109257100Y-62261292D01*
X109318344Y-62200047D01*
X109399123Y-62146074D01*
X109494411Y-62127120D01*
X109589699Y-62146074D01*
X109670477Y-62200047D01*
X109731722Y-62261292D01*
X109731725Y-62261294D01*
X109731731Y-62261300D01*
X109845160Y-62343710D01*
X109929675Y-62405114D01*
X110147690Y-62516198D01*
X110380398Y-62591809D01*
X110622069Y-62630086D01*
X110622073Y-62630086D01*
X110866749Y-62630086D01*
X110866753Y-62630086D01*
X111108424Y-62591809D01*
X111341132Y-62516198D01*
X111559147Y-62405114D01*
X111691835Y-62308710D01*
X111757090Y-62261300D01*
X111757093Y-62261298D01*
X111757096Y-62261294D01*
X111757100Y-62261292D01*
X111930117Y-62088275D01*
X111991698Y-62003516D01*
X112063036Y-61937572D01*
X112154185Y-61903944D01*
X112251265Y-61907757D01*
X112339497Y-61948431D01*
X112369210Y-61973808D01*
X112427488Y-62032086D01*
X112587172Y-62148103D01*
X112763037Y-62237711D01*
X112763043Y-62237714D01*
X112950764Y-62298709D01*
X112950769Y-62298710D01*
X112994410Y-62305621D01*
X112994411Y-62305621D01*
X112994411Y-61012598D01*
X113051418Y-61045511D01*
X113178585Y-61079586D01*
X113310237Y-61079586D01*
X113437404Y-61045511D01*
X113494411Y-61012598D01*
X113494411Y-62305621D01*
X113538052Y-62298710D01*
X113538057Y-62298709D01*
X113725778Y-62237714D01*
X113725784Y-62237711D01*
X113901649Y-62148103D01*
X114061335Y-62032084D01*
X114061338Y-62032082D01*
X114119610Y-61973810D01*
X114200391Y-61919833D01*
X114295679Y-61900878D01*
X114390967Y-61919831D01*
X114471749Y-61973807D01*
X114497124Y-62003516D01*
X114517878Y-62032082D01*
X114558697Y-62088265D01*
X114558705Y-62088275D01*
X114731722Y-62261292D01*
X114731725Y-62261294D01*
X114731731Y-62261300D01*
X114845160Y-62343710D01*
X114929675Y-62405114D01*
X115147690Y-62516198D01*
X115380398Y-62591809D01*
X115622069Y-62630086D01*
X115622073Y-62630086D01*
X115866749Y-62630086D01*
X115866753Y-62630086D01*
X116108424Y-62591809D01*
X116341132Y-62516198D01*
X116559147Y-62405114D01*
X116691835Y-62308710D01*
X116757090Y-62261300D01*
X116757093Y-62261298D01*
X116757096Y-62261294D01*
X116757100Y-62261292D01*
X116930117Y-62088275D01*
X116930121Y-62088270D01*
X116930123Y-62088268D01*
X116930125Y-62088265D01*
X116994411Y-61999782D01*
X117073939Y-61890322D01*
X117185023Y-61672307D01*
X117260634Y-61439599D01*
X117298911Y-61197928D01*
X117298911Y-59961244D01*
X117260634Y-59719573D01*
X117185023Y-59486865D01*
X117087068Y-59294617D01*
X121179911Y-59294617D01*
X121179911Y-61884554D01*
X121195041Y-62018831D01*
X121195042Y-62018837D01*
X121195043Y-62018841D01*
X121254622Y-62189108D01*
X121254623Y-62189109D01*
X121254625Y-62189115D01*
X121350591Y-62341843D01*
X121350593Y-62341845D01*
X121350595Y-62341848D01*
X121478149Y-62469402D01*
X121478151Y-62469403D01*
X121478153Y-62469405D01*
X121630881Y-62565371D01*
X121630884Y-62565372D01*
X121630889Y-62565375D01*
X121801156Y-62624954D01*
X121801165Y-62624955D01*
X121935442Y-62640085D01*
X121935457Y-62640086D01*
X123533365Y-62640086D01*
X123533379Y-62640085D01*
X123643490Y-62627677D01*
X123667666Y-62624954D01*
X123837933Y-62565375D01*
X123837938Y-62565371D01*
X123837940Y-62565371D01*
X123990668Y-62469405D01*
X123990667Y-62469405D01*
X123990673Y-62469402D01*
X124118227Y-62341848D01*
X124199635Y-62212287D01*
X124266377Y-62141692D01*
X124355058Y-62102009D01*
X124452174Y-62099284D01*
X124542942Y-62133931D01*
X124556826Y-62143321D01*
X124577172Y-62158104D01*
X124753037Y-62247711D01*
X124753043Y-62247714D01*
X124940764Y-62308709D01*
X124940769Y-62308710D01*
X124984410Y-62315621D01*
X124984411Y-62315621D01*
X124984411Y-61022598D01*
X125041418Y-61055511D01*
X125168585Y-61089586D01*
X125300237Y-61089586D01*
X125427404Y-61055511D01*
X125484411Y-61022598D01*
X125484411Y-62315621D01*
X125528052Y-62308710D01*
X125528057Y-62308709D01*
X125715778Y-62247714D01*
X125715784Y-62247711D01*
X125891649Y-62158103D01*
X126051335Y-62042084D01*
X126051338Y-62042082D01*
X126109610Y-61983810D01*
X126190391Y-61929833D01*
X126285679Y-61910878D01*
X126380967Y-61929831D01*
X126461749Y-61983807D01*
X126487124Y-62013516D01*
X126520092Y-62058893D01*
X126548697Y-62098265D01*
X126548705Y-62098275D01*
X126721722Y-62271292D01*
X126721725Y-62271294D01*
X126721731Y-62271300D01*
X126821396Y-62343710D01*
X126919675Y-62415114D01*
X127137690Y-62526198D01*
X127370398Y-62601809D01*
X127612069Y-62640086D01*
X127612073Y-62640086D01*
X127856749Y-62640086D01*
X127856753Y-62640086D01*
X128098424Y-62601809D01*
X128331132Y-62526198D01*
X128549147Y-62415114D01*
X128695599Y-62308710D01*
X128747090Y-62271300D01*
X128747093Y-62271298D01*
X128747096Y-62271294D01*
X128747100Y-62271292D01*
X128808344Y-62210047D01*
X128889123Y-62156074D01*
X128984411Y-62137120D01*
X129079699Y-62156074D01*
X129160477Y-62210047D01*
X129221722Y-62271292D01*
X129221725Y-62271294D01*
X129221731Y-62271300D01*
X129321396Y-62343710D01*
X129419675Y-62415114D01*
X129637690Y-62526198D01*
X129870398Y-62601809D01*
X130112069Y-62640086D01*
X130112073Y-62640086D01*
X130356749Y-62640086D01*
X130356753Y-62640086D01*
X130598424Y-62601809D01*
X130831132Y-62526198D01*
X131049147Y-62415114D01*
X131195599Y-62308710D01*
X131247090Y-62271300D01*
X131247093Y-62271298D01*
X131247096Y-62271294D01*
X131247100Y-62271292D01*
X131420117Y-62098275D01*
X131420121Y-62098270D01*
X131420123Y-62098268D01*
X131420125Y-62098265D01*
X131503283Y-61983807D01*
X131563939Y-61900322D01*
X131675023Y-61682307D01*
X131750634Y-61449599D01*
X131788911Y-61207928D01*
X131788911Y-59971244D01*
X131750634Y-59729573D01*
X131675023Y-59496865D01*
X131563939Y-59278850D01*
X131521718Y-59220738D01*
X131420125Y-59080906D01*
X131420119Y-59080900D01*
X131420117Y-59080897D01*
X131247100Y-58907880D01*
X131247096Y-58907877D01*
X131247090Y-58907871D01*
X131049151Y-58764061D01*
X131049147Y-58764058D01*
X130831132Y-58652974D01*
X130816020Y-58648064D01*
X130710557Y-58613797D01*
X130598424Y-58577363D01*
X130598422Y-58577362D01*
X130598420Y-58577362D01*
X130356763Y-58539087D01*
X130356756Y-58539086D01*
X130356753Y-58539086D01*
X130112069Y-58539086D01*
X130112066Y-58539086D01*
X130112058Y-58539087D01*
X129870401Y-58577362D01*
X129637695Y-58652972D01*
X129637690Y-58652974D01*
X129419678Y-58764056D01*
X129419670Y-58764061D01*
X129221731Y-58907871D01*
X129221729Y-58907874D01*
X129221725Y-58907877D01*
X129221722Y-58907880D01*
X129160477Y-58969124D01*
X129079699Y-59023098D01*
X128984411Y-59042052D01*
X128889123Y-59023098D01*
X128808344Y-58969124D01*
X128747100Y-58907880D01*
X128747096Y-58907877D01*
X128747090Y-58907871D01*
X128549151Y-58764061D01*
X128549147Y-58764058D01*
X128331132Y-58652974D01*
X128316020Y-58648064D01*
X128210557Y-58613797D01*
X128098424Y-58577363D01*
X128098422Y-58577362D01*
X128098420Y-58577362D01*
X127856763Y-58539087D01*
X127856756Y-58539086D01*
X127856753Y-58539086D01*
X127612069Y-58539086D01*
X127612066Y-58539086D01*
X127612058Y-58539087D01*
X127370401Y-58577362D01*
X127137695Y-58652972D01*
X127137690Y-58652974D01*
X126919678Y-58764056D01*
X126919670Y-58764061D01*
X126721731Y-58907871D01*
X126721729Y-58907874D01*
X126721725Y-58907877D01*
X126721722Y-58907880D01*
X126625480Y-59004122D01*
X126548700Y-59080902D01*
X126487126Y-59165652D01*
X126415783Y-59231601D01*
X126324633Y-59265227D01*
X126227553Y-59261413D01*
X126139322Y-59220738D01*
X126109611Y-59195363D01*
X126051333Y-59137085D01*
X125891649Y-59021068D01*
X125715784Y-58931460D01*
X125715775Y-58931456D01*
X125528060Y-58870464D01*
X125528046Y-58870460D01*
X125484411Y-58863549D01*
X125484411Y-60156574D01*
X125427404Y-60123661D01*
X125300237Y-60089586D01*
X125168585Y-60089586D01*
X125041418Y-60123661D01*
X124984411Y-60156574D01*
X124984411Y-58863550D01*
X124984410Y-58863549D01*
X124940775Y-58870460D01*
X124940761Y-58870464D01*
X124753046Y-58931456D01*
X124753037Y-58931460D01*
X124577172Y-59021068D01*
X124556822Y-59035853D01*
X124468590Y-59076526D01*
X124371510Y-59080339D01*
X124280361Y-59046710D01*
X124209019Y-58980760D01*
X124199639Y-58966890D01*
X124132764Y-58860460D01*
X124118229Y-58837327D01*
X124118228Y-58837326D01*
X124118227Y-58837324D01*
X123990673Y-58709770D01*
X123990670Y-58709768D01*
X123990668Y-58709766D01*
X123837940Y-58613800D01*
X123837935Y-58613798D01*
X123837933Y-58613797D01*
X123667666Y-58554218D01*
X123667662Y-58554217D01*
X123667656Y-58554216D01*
X123533379Y-58539086D01*
X123533365Y-58539086D01*
X121935457Y-58539086D01*
X121935442Y-58539086D01*
X121801165Y-58554216D01*
X121801157Y-58554217D01*
X121801156Y-58554218D01*
X121630889Y-58613797D01*
X121630887Y-58613797D01*
X121630887Y-58613798D01*
X121630881Y-58613800D01*
X121478153Y-58709766D01*
X121350591Y-58837328D01*
X121254625Y-58990056D01*
X121254622Y-58990062D01*
X121254622Y-58990064D01*
X121196681Y-59155652D01*
X121195043Y-59160332D01*
X121195041Y-59160340D01*
X121179911Y-59294617D01*
X117087068Y-59294617D01*
X117073939Y-59268850D01*
X117024390Y-59200652D01*
X116930125Y-59070906D01*
X116930119Y-59070900D01*
X116930117Y-59070897D01*
X116757100Y-58897880D01*
X116757096Y-58897877D01*
X116757090Y-58897871D01*
X116559151Y-58754061D01*
X116559147Y-58754058D01*
X116341132Y-58642974D01*
X116108424Y-58567363D01*
X116108422Y-58567362D01*
X116108420Y-58567362D01*
X115866763Y-58529087D01*
X115866756Y-58529086D01*
X115866753Y-58529086D01*
X115622069Y-58529086D01*
X115622066Y-58529086D01*
X115622058Y-58529087D01*
X115380401Y-58567362D01*
X115147695Y-58642972D01*
X115147690Y-58642974D01*
X114929678Y-58754056D01*
X114929670Y-58754061D01*
X114731731Y-58897871D01*
X114731729Y-58897874D01*
X114731725Y-58897877D01*
X114731722Y-58897880D01*
X114639546Y-58990056D01*
X114558700Y-59070902D01*
X114497126Y-59155652D01*
X114425783Y-59221601D01*
X114334633Y-59255227D01*
X114237553Y-59251413D01*
X114149322Y-59210738D01*
X114119611Y-59185363D01*
X114061333Y-59127085D01*
X113901649Y-59011068D01*
X113725784Y-58921460D01*
X113725775Y-58921456D01*
X113538060Y-58860464D01*
X113538046Y-58860460D01*
X113494411Y-58853549D01*
X113494411Y-60146574D01*
X113437404Y-60113661D01*
X113310237Y-60079586D01*
X113178585Y-60079586D01*
X113051418Y-60113661D01*
X112994411Y-60146574D01*
X112994411Y-58853550D01*
X112994410Y-58853549D01*
X112950775Y-58860460D01*
X112950761Y-58860464D01*
X112763046Y-58921456D01*
X112763037Y-58921460D01*
X112587172Y-59011068D01*
X112427486Y-59127087D01*
X112427482Y-59127090D01*
X112369208Y-59185364D01*
X112288426Y-59239340D01*
X112193138Y-59258293D01*
X112097850Y-59239338D01*
X112017069Y-59185361D01*
X111991695Y-59155652D01*
X111930117Y-59070897D01*
X111757100Y-58897880D01*
X111757096Y-58897877D01*
X111757090Y-58897871D01*
X111559151Y-58754061D01*
X111559147Y-58754058D01*
X111341132Y-58642974D01*
X111108424Y-58567363D01*
X111108422Y-58567362D01*
X111108420Y-58567362D01*
X110866763Y-58529087D01*
X110866756Y-58529086D01*
X110866753Y-58529086D01*
X110622069Y-58529086D01*
X110622066Y-58529086D01*
X110622058Y-58529087D01*
X110380401Y-58567362D01*
X110147695Y-58642972D01*
X110147690Y-58642974D01*
X109929678Y-58754056D01*
X109929670Y-58754061D01*
X109731731Y-58897871D01*
X109731729Y-58897874D01*
X109731725Y-58897877D01*
X109731722Y-58897880D01*
X109670477Y-58959124D01*
X109589699Y-59013098D01*
X109494411Y-59032052D01*
X109399123Y-59013098D01*
X109318344Y-58959124D01*
X109257100Y-58897880D01*
X109257096Y-58897877D01*
X109257090Y-58897871D01*
X109059151Y-58754061D01*
X109059147Y-58754058D01*
X108841132Y-58642974D01*
X108608424Y-58567363D01*
X108608422Y-58567362D01*
X108608420Y-58567362D01*
X108366763Y-58529087D01*
X108366756Y-58529086D01*
X108366753Y-58529086D01*
X108122069Y-58529086D01*
X108122066Y-58529086D01*
X108122058Y-58529087D01*
X107880401Y-58567362D01*
X107647695Y-58642972D01*
X107647690Y-58642974D01*
X107429678Y-58754056D01*
X107429670Y-58754061D01*
X107231731Y-58897871D01*
X107231729Y-58897874D01*
X107231725Y-58897877D01*
X107231722Y-58897880D01*
X107170477Y-58959124D01*
X107089699Y-59013098D01*
X106994411Y-59032052D01*
X106899123Y-59013098D01*
X106818344Y-58959124D01*
X106757100Y-58897880D01*
X106757096Y-58897877D01*
X106757090Y-58897871D01*
X106559151Y-58754061D01*
X106559147Y-58754058D01*
X106341132Y-58642974D01*
X106108424Y-58567363D01*
X106108422Y-58567362D01*
X106108420Y-58567362D01*
X105866763Y-58529087D01*
X105866756Y-58529086D01*
X105866753Y-58529086D01*
X105622069Y-58529086D01*
X105622066Y-58529086D01*
X105622058Y-58529087D01*
X105380401Y-58567362D01*
X105147695Y-58642972D01*
X105147690Y-58642974D01*
X104929678Y-58754056D01*
X104929670Y-58754061D01*
X104731731Y-58897871D01*
X104731729Y-58897874D01*
X104731725Y-58897877D01*
X104731722Y-58897880D01*
X104670477Y-58959124D01*
X104589699Y-59013098D01*
X104494411Y-59032052D01*
X104399123Y-59013098D01*
X104318344Y-58959124D01*
X104257100Y-58897880D01*
X104257096Y-58897877D01*
X104257090Y-58897871D01*
X104059151Y-58754061D01*
X104059147Y-58754058D01*
X103841132Y-58642974D01*
X103608424Y-58567363D01*
X103608422Y-58567362D01*
X103608420Y-58567362D01*
X103366763Y-58529087D01*
X103366756Y-58529086D01*
X103366753Y-58529086D01*
X103122069Y-58529086D01*
X103122066Y-58529086D01*
X103122058Y-58529087D01*
X102880401Y-58567362D01*
X102647695Y-58642972D01*
X102647690Y-58642974D01*
X102429678Y-58754056D01*
X102429670Y-58754061D01*
X102231731Y-58897871D01*
X102231729Y-58897874D01*
X102231725Y-58897877D01*
X102231722Y-58897880D01*
X102058705Y-59070897D01*
X102058702Y-59070900D01*
X102058699Y-59070904D01*
X102058696Y-59070906D01*
X101914886Y-59268845D01*
X101914881Y-59268853D01*
X101803799Y-59486865D01*
X101803797Y-59486870D01*
X101728187Y-59719576D01*
X101689912Y-59961233D01*
X101689911Y-59961248D01*
X97954284Y-59961248D01*
X97923134Y-59764576D01*
X97923134Y-59764573D01*
X97847523Y-59531865D01*
X97736439Y-59313850D01*
X97682303Y-59239338D01*
X97592625Y-59115906D01*
X97592619Y-59115900D01*
X97592617Y-59115897D01*
X97419600Y-58942880D01*
X97419596Y-58942877D01*
X97419590Y-58942871D01*
X97221651Y-58799061D01*
X97221647Y-58799058D01*
X97003632Y-58687974D01*
X96770924Y-58612363D01*
X96770922Y-58612362D01*
X96770920Y-58612362D01*
X96529263Y-58574087D01*
X96529256Y-58574086D01*
X96529253Y-58574086D01*
X96284569Y-58574086D01*
X96284566Y-58574086D01*
X96284558Y-58574087D01*
X96042901Y-58612362D01*
X95810195Y-58687972D01*
X95810190Y-58687974D01*
X95592178Y-58799056D01*
X95592170Y-58799061D01*
X95394231Y-58942871D01*
X95394229Y-58942874D01*
X95394225Y-58942877D01*
X95394222Y-58942880D01*
X95305050Y-59032052D01*
X95221200Y-59115902D01*
X95159626Y-59200652D01*
X95088283Y-59266601D01*
X94997133Y-59300227D01*
X94900053Y-59296413D01*
X94811822Y-59255738D01*
X94782111Y-59230363D01*
X94723833Y-59172085D01*
X94564149Y-59056068D01*
X94388284Y-58966460D01*
X94388275Y-58966456D01*
X94200560Y-58905464D01*
X94200546Y-58905460D01*
X94156911Y-58898549D01*
X94156911Y-60191574D01*
X94099904Y-60158661D01*
X93972737Y-60124586D01*
X93841085Y-60124586D01*
X93713918Y-60158661D01*
X93656911Y-60191574D01*
X93656911Y-58898550D01*
X93656910Y-58898549D01*
X93613275Y-58905460D01*
X93613261Y-58905464D01*
X93425546Y-58966456D01*
X93425537Y-58966460D01*
X93249672Y-59056068D01*
X93089986Y-59172087D01*
X93089982Y-59172090D01*
X93031708Y-59230364D01*
X92950926Y-59284340D01*
X92855638Y-59303293D01*
X92760350Y-59284338D01*
X92679569Y-59230361D01*
X92654195Y-59200652D01*
X92592617Y-59115897D01*
X92419600Y-58942880D01*
X92419596Y-58942877D01*
X92419590Y-58942871D01*
X92221651Y-58799061D01*
X92221647Y-58799058D01*
X92003632Y-58687974D01*
X91770924Y-58612363D01*
X91770922Y-58612362D01*
X91770920Y-58612362D01*
X91529263Y-58574087D01*
X91529256Y-58574086D01*
X91529253Y-58574086D01*
X91284569Y-58574086D01*
X91284566Y-58574086D01*
X91284558Y-58574087D01*
X91042901Y-58612362D01*
X90810195Y-58687972D01*
X90810190Y-58687974D01*
X90592178Y-58799056D01*
X90592170Y-58799061D01*
X90394231Y-58942871D01*
X90394229Y-58942874D01*
X90394225Y-58942877D01*
X90394222Y-58942880D01*
X90332977Y-59004124D01*
X90252199Y-59058098D01*
X90156911Y-59077052D01*
X90061623Y-59058098D01*
X89980844Y-59004124D01*
X89919600Y-58942880D01*
X89919596Y-58942877D01*
X89919590Y-58942871D01*
X89721651Y-58799061D01*
X89721647Y-58799058D01*
X89503632Y-58687974D01*
X89270924Y-58612363D01*
X89270922Y-58612362D01*
X89270920Y-58612362D01*
X89029263Y-58574087D01*
X89029256Y-58574086D01*
X89029253Y-58574086D01*
X88784569Y-58574086D01*
X88784566Y-58574086D01*
X88784558Y-58574087D01*
X88542901Y-58612362D01*
X88310195Y-58687972D01*
X88310190Y-58687974D01*
X88092178Y-58799056D01*
X88092170Y-58799061D01*
X87894231Y-58942871D01*
X87894229Y-58942874D01*
X87894225Y-58942877D01*
X87894222Y-58942880D01*
X87832977Y-59004124D01*
X87752199Y-59058098D01*
X87656911Y-59077052D01*
X87561623Y-59058098D01*
X87480844Y-59004124D01*
X87419600Y-58942880D01*
X87419596Y-58942877D01*
X87419590Y-58942871D01*
X87221651Y-58799061D01*
X87221647Y-58799058D01*
X87003632Y-58687974D01*
X86770924Y-58612363D01*
X86770922Y-58612362D01*
X86770920Y-58612362D01*
X86529263Y-58574087D01*
X86529256Y-58574086D01*
X86529253Y-58574086D01*
X86284569Y-58574086D01*
X86284566Y-58574086D01*
X86284558Y-58574087D01*
X86042901Y-58612362D01*
X85810195Y-58687972D01*
X85810190Y-58687974D01*
X85592178Y-58799056D01*
X85592170Y-58799061D01*
X85394231Y-58942871D01*
X85394229Y-58942874D01*
X85394225Y-58942877D01*
X85394222Y-58942880D01*
X85332977Y-59004124D01*
X85252199Y-59058098D01*
X85156911Y-59077052D01*
X85061623Y-59058098D01*
X84980844Y-59004124D01*
X84919600Y-58942880D01*
X84919596Y-58942877D01*
X84919590Y-58942871D01*
X84721651Y-58799061D01*
X84721647Y-58799058D01*
X84503632Y-58687974D01*
X84270924Y-58612363D01*
X84270922Y-58612362D01*
X84270920Y-58612362D01*
X84029263Y-58574087D01*
X84029256Y-58574086D01*
X84029253Y-58574086D01*
X83784569Y-58574086D01*
X83784566Y-58574086D01*
X83784558Y-58574087D01*
X83542901Y-58612362D01*
X83310195Y-58687972D01*
X83310190Y-58687974D01*
X83092178Y-58799056D01*
X83092170Y-58799061D01*
X82894231Y-58942871D01*
X82894229Y-58942874D01*
X82894225Y-58942877D01*
X82894222Y-58942880D01*
X82721205Y-59115897D01*
X82721202Y-59115900D01*
X82721199Y-59115904D01*
X82721196Y-59115906D01*
X82577386Y-59313845D01*
X82577381Y-59313853D01*
X82466299Y-59531865D01*
X82466297Y-59531870D01*
X82390687Y-59764576D01*
X82352412Y-60006233D01*
X82352411Y-60006248D01*
X78191357Y-60006248D01*
X78218094Y-59883342D01*
X78289258Y-59388385D01*
X78324931Y-58889613D01*
X78324931Y-58699653D01*
X78324946Y-58666533D01*
X78324955Y-58666519D01*
X78324955Y-58647631D01*
X78324959Y-58647608D01*
X78325488Y-58631460D01*
X78329689Y-58567363D01*
X78340140Y-58407920D01*
X78344389Y-58375656D01*
X78386497Y-58163964D01*
X78394922Y-58132517D01*
X78464304Y-57928125D01*
X78476762Y-57898047D01*
X78572226Y-57704464D01*
X78588503Y-57676270D01*
X78708426Y-57496792D01*
X78728234Y-57470978D01*
X78870552Y-57308693D01*
X78893576Y-57285670D01*
X79055846Y-57143361D01*
X79081678Y-57123537D01*
X79261149Y-57003616D01*
X79289341Y-56987340D01*
X79482923Y-56891873D01*
X79512991Y-56879418D01*
X79717382Y-56810032D01*
X79748827Y-56801605D01*
X79960524Y-56759493D01*
X79992804Y-56755242D01*
X80185778Y-56742591D01*
X80215859Y-56740619D01*
X80232148Y-56740086D01*
X88824444Y-56740086D01*
X133934444Y-56740086D01*
X135276274Y-56740086D01*
X135292563Y-56740619D01*
G37*
%TD.AperFunction*%
%TD*%
%TA.AperFunction,Conductor*%
%TO.N,GND0*%
G36*
X132625699Y-78669040D02*
G01*
X132706481Y-78723016D01*
X139538920Y-85555455D01*
X139541807Y-85559776D01*
X139546005Y-85562838D01*
X139568695Y-85600018D01*
X139592896Y-85636237D01*
X139593909Y-85641332D01*
X139596617Y-85645769D01*
X139603353Y-85688810D01*
X139611850Y-85731525D01*
X139610836Y-85736620D01*
X139611640Y-85741755D01*
X139601392Y-85784095D01*
X139592896Y-85826813D01*
X139590009Y-85831133D01*
X139588787Y-85836184D01*
X139563122Y-85871372D01*
X139538920Y-85907595D01*
X139534598Y-85910482D01*
X139531537Y-85914680D01*
X139494356Y-85937370D01*
X139458138Y-85961571D01*
X139453042Y-85962584D01*
X139448606Y-85965292D01*
X139405564Y-85972028D01*
X139362850Y-85980525D01*
X139352620Y-85980315D01*
X139329663Y-85979371D01*
X139300943Y-85976516D01*
X139262352Y-85970404D01*
X139057648Y-85970404D01*
X139015020Y-85977155D01*
X138973263Y-85980204D01*
X138970768Y-85980175D01*
X138970767Y-85980175D01*
X138517261Y-86026089D01*
X138098989Y-86068436D01*
X138098982Y-86068436D01*
X138095338Y-86068806D01*
X138095317Y-86068602D01*
X138067725Y-86070404D01*
X130578421Y-86070404D01*
X130483133Y-86051450D01*
X130402351Y-85997474D01*
X130348375Y-85916692D01*
X130329421Y-85821404D01*
X130348375Y-85726116D01*
X130402351Y-85645334D01*
X130465377Y-85599544D01*
X130552985Y-85554905D01*
X130552987Y-85554903D01*
X130552994Y-85554900D01*
X130699501Y-85448457D01*
X130827553Y-85320405D01*
X130933996Y-85173898D01*
X131016211Y-85012543D01*
X131072171Y-84840313D01*
X131100500Y-84661450D01*
X131100500Y-84480358D01*
X131072171Y-84301495D01*
X131058518Y-84259476D01*
X131016213Y-84129271D01*
X131016212Y-84129270D01*
X131016211Y-84129265D01*
X130933996Y-83967910D01*
X130827553Y-83821403D01*
X130699501Y-83693351D01*
X130552994Y-83586908D01*
X130552991Y-83586906D01*
X130552985Y-83586903D01*
X130391649Y-83504698D01*
X130391646Y-83504696D01*
X130391639Y-83504693D01*
X130391636Y-83504692D01*
X130391632Y-83504690D01*
X130219418Y-83448735D01*
X130219401Y-83448731D01*
X130040556Y-83420405D01*
X130040549Y-83420404D01*
X130040546Y-83420404D01*
X129859454Y-83420404D01*
X129859451Y-83420404D01*
X129859443Y-83420405D01*
X129680598Y-83448731D01*
X129680581Y-83448735D01*
X129499057Y-83507716D01*
X129498186Y-83505036D01*
X129420902Y-83520404D01*
X122015774Y-83520404D01*
X122015754Y-83520403D01*
X122003466Y-83520403D01*
X121796535Y-83520403D01*
X121796529Y-83520403D01*
X121627256Y-83554074D01*
X121627257Y-83554075D01*
X121593577Y-83560774D01*
X121537586Y-83583965D01*
X121537587Y-83583966D01*
X121402403Y-83639961D01*
X121402401Y-83639962D01*
X121230348Y-83754924D01*
X113581157Y-91404114D01*
X113518132Y-91449904D01*
X113367010Y-91526905D01*
X113367007Y-91526907D01*
X113220501Y-91633349D01*
X113092445Y-91761405D01*
X112986003Y-91907911D01*
X112985999Y-91907918D01*
X112903794Y-92069254D01*
X112903786Y-92069271D01*
X112847831Y-92241485D01*
X112847827Y-92241502D01*
X112819501Y-92420347D01*
X112819500Y-92420362D01*
X112819500Y-92601445D01*
X112819501Y-92601460D01*
X112847827Y-92780305D01*
X112847831Y-92780322D01*
X112903786Y-92952536D01*
X112903794Y-92952553D01*
X112980987Y-93104053D01*
X112986004Y-93113898D01*
X113092447Y-93260405D01*
X113220499Y-93388457D01*
X113367006Y-93494900D01*
X113528361Y-93577115D01*
X113528366Y-93577116D01*
X113528367Y-93577117D01*
X113700581Y-93633072D01*
X113700583Y-93633072D01*
X113700591Y-93633075D01*
X113879454Y-93661404D01*
X113879458Y-93661404D01*
X114060542Y-93661404D01*
X114060546Y-93661404D01*
X114239409Y-93633075D01*
X114411639Y-93577115D01*
X114572994Y-93494900D01*
X114719501Y-93388457D01*
X114847553Y-93260405D01*
X114953996Y-93113898D01*
X115036211Y-92952543D01*
X115036214Y-92952531D01*
X115039952Y-92943511D01*
X115042837Y-92944705D01*
X115080267Y-92877431D01*
X115093976Y-92862557D01*
X122262202Y-85694334D01*
X122342984Y-85640358D01*
X122438272Y-85621404D01*
X123849615Y-85621404D01*
X123944903Y-85640358D01*
X124025685Y-85694334D01*
X124079661Y-85775116D01*
X124098615Y-85870404D01*
X124079661Y-85965692D01*
X124025685Y-86046474D01*
X123944903Y-86100450D01*
X123926560Y-86107217D01*
X123769175Y-86158354D01*
X123769169Y-86158356D01*
X123600795Y-86244146D01*
X123447931Y-86355209D01*
X111859396Y-97943742D01*
X111859395Y-97943741D01*
X111852995Y-97950140D01*
X111812471Y-97985177D01*
X111746062Y-98057075D01*
X111742556Y-98060582D01*
X111183726Y-98619412D01*
X111183724Y-98619415D01*
X111095302Y-98741118D01*
X111080824Y-98761045D01*
X111072651Y-98772294D01*
X111052379Y-98812078D01*
X111048721Y-98818332D01*
X111048596Y-98818472D01*
X111048001Y-98819554D01*
X111039035Y-98834681D01*
X111026285Y-98854072D01*
X110987121Y-98907980D01*
X110894191Y-99090366D01*
X110894189Y-99090371D01*
X110830933Y-99285054D01*
X110798911Y-99487224D01*
X110798911Y-99691947D01*
X110830933Y-99894117D01*
X110894189Y-100088800D01*
X110894193Y-100088810D01*
X110987122Y-100271193D01*
X110987124Y-100271196D01*
X111107445Y-100436805D01*
X111252192Y-100581552D01*
X111417801Y-100701873D01*
X111600192Y-100794806D01*
X111794877Y-100858063D01*
X111865986Y-100869325D01*
X111997049Y-100890085D01*
X111997056Y-100890085D01*
X111997059Y-100890086D01*
X111997062Y-100890086D01*
X112201760Y-100890086D01*
X112201763Y-100890086D01*
X112201766Y-100890085D01*
X112201772Y-100890085D01*
X112297281Y-100874957D01*
X112403945Y-100858063D01*
X112598630Y-100794806D01*
X112781021Y-100701873D01*
X112946630Y-100581552D01*
X113091377Y-100436805D01*
X113210164Y-100273305D01*
X113213110Y-100269335D01*
X113213849Y-100268362D01*
X113613453Y-99596081D01*
X113651420Y-99547246D01*
X124654334Y-88544334D01*
X124735116Y-88490358D01*
X124830404Y-88471404D01*
X127592069Y-88471404D01*
X127687357Y-88490358D01*
X127768139Y-88544334D01*
X127822115Y-88625116D01*
X127841069Y-88720404D01*
X127822115Y-88815692D01*
X127768139Y-88896474D01*
X125463411Y-91201201D01*
X125463408Y-91201205D01*
X125319727Y-91388453D01*
X125201717Y-91592852D01*
X125201715Y-91592854D01*
X125187399Y-91627418D01*
X125184942Y-91633351D01*
X125111394Y-91810911D01*
X125050307Y-92038890D01*
X125050306Y-92038894D01*
X125050306Y-92038896D01*
X125023635Y-92241485D01*
X125019500Y-92272893D01*
X125019500Y-106108915D01*
X125050307Y-106342918D01*
X125081764Y-106460316D01*
X125111394Y-106570899D01*
X125151879Y-106668636D01*
X125151879Y-106668637D01*
X125201713Y-106788948D01*
X125201715Y-106788952D01*
X125201716Y-106788954D01*
X125319727Y-106993354D01*
X125463408Y-107180603D01*
X125463411Y-107180606D01*
X130337142Y-112054337D01*
X130391118Y-112135119D01*
X130409631Y-112215602D01*
X130412342Y-112261131D01*
X130412344Y-112261139D01*
X130457526Y-112468839D01*
X130457527Y-112468842D01*
X130457528Y-112468845D01*
X130517895Y-112609813D01*
X130541200Y-112664235D01*
X130596709Y-112746250D01*
X130634422Y-112835784D01*
X130639500Y-112885815D01*
X130639500Y-113858915D01*
X130670307Y-114092918D01*
X130714318Y-114257169D01*
X130731395Y-114320902D01*
X130769547Y-114413009D01*
X130784303Y-114448632D01*
X130821716Y-114538954D01*
X130939727Y-114743354D01*
X131083408Y-114930603D01*
X134759397Y-118606592D01*
X134946645Y-118750273D01*
X135151046Y-118868284D01*
X135203473Y-118890000D01*
X135203475Y-118890001D01*
X135203476Y-118890001D01*
X135369103Y-118958606D01*
X135597082Y-119019693D01*
X135831085Y-119050500D01*
X136067107Y-119050500D01*
X145611379Y-119050500D01*
X145706667Y-119069454D01*
X145787449Y-119123430D01*
X145841425Y-119204212D01*
X145860379Y-119299500D01*
X145841425Y-119394787D01*
X145794374Y-119508378D01*
X145794370Y-119508390D01*
X145724802Y-119768022D01*
X145689719Y-120034513D01*
X145689719Y-120303306D01*
X145724802Y-120569797D01*
X145794370Y-120829429D01*
X145794372Y-120829435D01*
X145897232Y-121077763D01*
X145897237Y-121077774D01*
X146031626Y-121310541D01*
X146031632Y-121310551D01*
X146195263Y-121523800D01*
X146385329Y-121713866D01*
X146598578Y-121877497D01*
X146598587Y-121877502D01*
X146598587Y-121877503D01*
X146831354Y-122011891D01*
X146831357Y-122011892D01*
X146831360Y-122011894D01*
X147079693Y-122114757D01*
X147339328Y-122184326D01*
X147605822Y-122219410D01*
X147874616Y-122219410D01*
X148141110Y-122184326D01*
X148400745Y-122114757D01*
X148649078Y-122011894D01*
X148791556Y-121929634D01*
X148881850Y-121877503D01*
X148881850Y-121877502D01*
X148881860Y-121877497D01*
X149095109Y-121713866D01*
X149285175Y-121523800D01*
X149448806Y-121310551D01*
X149459935Y-121291276D01*
X149583200Y-121077774D01*
X149583199Y-121077774D01*
X149583203Y-121077769D01*
X149686066Y-120829436D01*
X149755635Y-120569801D01*
X149790719Y-120303307D01*
X149790719Y-120034513D01*
X149755635Y-119768019D01*
X149686066Y-119508384D01*
X149639013Y-119394787D01*
X149620059Y-119299499D01*
X149639013Y-119204211D01*
X149692990Y-119123430D01*
X149773772Y-119069454D01*
X149869059Y-119050500D01*
X155388915Y-119050500D01*
X155622918Y-119019693D01*
X155850897Y-118958606D01*
X156016524Y-118890001D01*
X156068954Y-118868284D01*
X156273354Y-118750273D01*
X156460603Y-118606592D01*
X172812862Y-102254334D01*
X172893644Y-102200358D01*
X172988932Y-102181404D01*
X174983642Y-102181404D01*
X175078930Y-102200358D01*
X175159712Y-102254334D01*
X175213688Y-102335116D01*
X175232642Y-102430404D01*
X175213688Y-102525692D01*
X175159712Y-102606474D01*
X175112386Y-102643537D01*
X175095747Y-102653587D01*
X175038968Y-102676768D01*
X174977645Y-102710253D01*
X174935129Y-102735187D01*
X174855380Y-102798782D01*
X174841525Y-102807152D01*
X174838102Y-102808389D01*
X174830161Y-102813616D01*
X174603888Y-102934563D01*
X174603878Y-102934569D01*
X174334267Y-103114718D01*
X174334256Y-103114726D01*
X174083581Y-103320449D01*
X173854270Y-103549760D01*
X173648547Y-103800435D01*
X173648539Y-103800446D01*
X173468385Y-104070064D01*
X173468379Y-104070075D01*
X173315516Y-104356061D01*
X173315514Y-104356064D01*
X173191420Y-104655656D01*
X173191412Y-104655677D01*
X173097283Y-104965979D01*
X173064824Y-105129166D01*
X173041761Y-105245113D01*
X173034016Y-105284048D01*
X173002231Y-105606766D01*
X173002231Y-105931053D01*
X173034016Y-106253771D01*
X173097283Y-106571840D01*
X173191412Y-106882142D01*
X173191417Y-106882155D01*
X173315514Y-107181755D01*
X173315516Y-107181758D01*
X173468379Y-107467744D01*
X173468385Y-107467755D01*
X173633561Y-107714957D01*
X173648548Y-107737386D01*
X173854273Y-107988063D01*
X174083578Y-108217368D01*
X174334255Y-108423093D01*
X174334267Y-108423101D01*
X174603885Y-108603255D01*
X174603896Y-108603261D01*
X174889882Y-108756124D01*
X174889885Y-108756126D01*
X174983833Y-108795040D01*
X175189485Y-108880224D01*
X175189497Y-108880227D01*
X175189498Y-108880228D01*
X175499800Y-108974357D01*
X175499804Y-108974357D01*
X175499808Y-108974359D01*
X175817863Y-109037624D01*
X176140588Y-109069410D01*
X176140591Y-109069410D01*
X176464871Y-109069410D01*
X176464874Y-109069410D01*
X176787599Y-109037624D01*
X177105654Y-108974359D01*
X177327292Y-108907125D01*
X177399573Y-108896404D01*
X187118632Y-108896404D01*
X187118638Y-108896404D01*
X187196258Y-108892243D01*
X187204731Y-108891789D01*
X187204734Y-108891788D01*
X187204749Y-108891788D01*
X187231107Y-108888954D01*
X187326857Y-108870414D01*
X187364034Y-108863217D01*
X187364035Y-108863216D01*
X187364038Y-108863216D01*
X187531032Y-108795040D01*
X187592355Y-108761555D01*
X187634871Y-108736621D01*
X187775894Y-108624159D01*
X191260718Y-105139333D01*
X191341500Y-105085358D01*
X191436788Y-105066404D01*
X200434158Y-105066404D01*
X200529446Y-105085358D01*
X200610228Y-105139334D01*
X200664204Y-105220116D01*
X200683158Y-105315404D01*
X200664204Y-105410692D01*
X200663713Y-105411869D01*
X200656813Y-105428287D01*
X200656813Y-105428288D01*
X200637130Y-105495320D01*
X200624696Y-105543020D01*
X200624694Y-105543028D01*
X200604500Y-105722253D01*
X200604500Y-109574114D01*
X200585546Y-109669402D01*
X200531570Y-109750184D01*
X198769280Y-111512474D01*
X198688498Y-111566450D01*
X198593210Y-111585404D01*
X195232641Y-111585404D01*
X195137355Y-111566451D01*
X195115982Y-111557598D01*
X195115963Y-111557591D01*
X194805661Y-111463462D01*
X194646626Y-111431828D01*
X194487599Y-111400196D01*
X194487595Y-111400195D01*
X194487592Y-111400195D01*
X194164874Y-111368410D01*
X194130015Y-111368410D01*
X194034727Y-111349456D01*
X193953945Y-111295480D01*
X193899969Y-111214698D01*
X193881015Y-111119410D01*
X193899969Y-111024122D01*
X193919180Y-110986934D01*
X193957657Y-110925699D01*
X194094133Y-110642304D01*
X194198020Y-110345410D01*
X194268013Y-110038750D01*
X194292225Y-109823862D01*
X194303230Y-109726195D01*
X194303231Y-109726182D01*
X194303231Y-109411637D01*
X194303230Y-109411624D01*
X194288703Y-109282700D01*
X194268013Y-109099070D01*
X194220702Y-108891788D01*
X194198024Y-108792426D01*
X194198022Y-108792420D01*
X194198020Y-108792410D01*
X194094133Y-108495516D01*
X193957657Y-108212121D01*
X193790308Y-107945787D01*
X193594192Y-107699866D01*
X193371775Y-107477449D01*
X193125854Y-107281333D01*
X193125855Y-107281333D01*
X193125853Y-107281332D01*
X192859530Y-107113990D01*
X192859526Y-107113988D01*
X192859520Y-107113984D01*
X192859510Y-107113979D01*
X192859506Y-107113977D01*
X192639101Y-107007836D01*
X192576125Y-106977508D01*
X192576121Y-106977506D01*
X192576115Y-106977504D01*
X192279232Y-106873621D01*
X192279214Y-106873616D01*
X191972573Y-106803628D01*
X191660016Y-106768410D01*
X191660004Y-106768410D01*
X191345458Y-106768410D01*
X191345445Y-106768410D01*
X191032888Y-106803628D01*
X190726247Y-106873616D01*
X190726229Y-106873621D01*
X190429346Y-106977504D01*
X190429332Y-106977510D01*
X190145955Y-107113977D01*
X190145931Y-107113990D01*
X189879608Y-107281332D01*
X189633690Y-107477446D01*
X189633682Y-107477453D01*
X189411274Y-107699861D01*
X189411267Y-107699869D01*
X189215153Y-107945787D01*
X189047811Y-108212110D01*
X189047798Y-108212134D01*
X188911331Y-108495511D01*
X188911325Y-108495525D01*
X188807446Y-108792399D01*
X188807437Y-108792426D01*
X188737449Y-109099067D01*
X188702231Y-109411624D01*
X188702231Y-109726195D01*
X188737449Y-110038752D01*
X188807437Y-110345393D01*
X188807442Y-110345411D01*
X188911325Y-110642294D01*
X188911331Y-110642308D01*
X189015223Y-110858043D01*
X189047805Y-110925699D01*
X189047809Y-110925705D01*
X189047811Y-110925709D01*
X189215151Y-111192030D01*
X189215359Y-111192322D01*
X189215417Y-111192452D01*
X189218871Y-111197949D01*
X189218094Y-111198436D01*
X189255038Y-111281005D01*
X189257759Y-111378122D01*
X189223109Y-111468888D01*
X189156361Y-111539484D01*
X189067678Y-111579163D01*
X189012279Y-111585404D01*
X178461362Y-111585404D01*
X178441732Y-111586456D01*
X178375268Y-111590018D01*
X178375252Y-111590019D01*
X178348895Y-111592853D01*
X178215965Y-111618590D01*
X178141687Y-111648915D01*
X178048968Y-111686768D01*
X178048964Y-111686770D01*
X178048962Y-111686770D01*
X177987645Y-111720252D01*
X177945126Y-111745188D01*
X177804109Y-111857645D01*
X174546730Y-115115024D01*
X174489122Y-115179160D01*
X174472485Y-115199806D01*
X174396693Y-115311994D01*
X174326812Y-115478291D01*
X174307130Y-115545320D01*
X174294696Y-115593020D01*
X174294694Y-115593028D01*
X174274500Y-115772253D01*
X174274500Y-126119536D01*
X174279114Y-126205635D01*
X174279115Y-126205651D01*
X174281949Y-126232008D01*
X174307686Y-126364938D01*
X174313340Y-126378787D01*
X174375864Y-126531936D01*
X174375866Y-126531939D01*
X174375866Y-126531941D01*
X174409348Y-126593258D01*
X174434284Y-126635777D01*
X174486643Y-126701433D01*
X174546744Y-126776798D01*
X175854106Y-128084160D01*
X175918262Y-128141786D01*
X175938904Y-128158420D01*
X176051092Y-128234212D01*
X176217381Y-128304089D01*
X176217385Y-128304090D01*
X176217387Y-128304091D01*
X176284416Y-128323773D01*
X176332116Y-128336207D01*
X176332124Y-128336209D01*
X176511349Y-128356403D01*
X176511362Y-128356404D01*
X180808632Y-128356404D01*
X180808638Y-128356404D01*
X180886258Y-128352243D01*
X180894731Y-128351789D01*
X180894734Y-128351788D01*
X180894749Y-128351788D01*
X180921107Y-128348954D01*
X181016857Y-128330414D01*
X181054034Y-128323217D01*
X181054035Y-128323216D01*
X181054038Y-128323216D01*
X181221032Y-128255040D01*
X181282355Y-128221555D01*
X181324871Y-128196621D01*
X181465894Y-128084160D01*
X182693256Y-126856798D01*
X182750882Y-126792642D01*
X182767516Y-126772000D01*
X182843308Y-126659812D01*
X182913185Y-126493523D01*
X182932870Y-126426484D01*
X182945304Y-126378783D01*
X182945305Y-126378779D01*
X182965499Y-126199554D01*
X182965500Y-126199541D01*
X182965500Y-119177693D01*
X182984454Y-119082405D01*
X183038430Y-119001623D01*
X184190719Y-117849334D01*
X184271501Y-117795358D01*
X184366789Y-117776404D01*
X188996721Y-117776404D01*
X189092009Y-117795358D01*
X189172791Y-117849334D01*
X189226767Y-117930116D01*
X189245721Y-118025404D01*
X189226767Y-118120692D01*
X189207555Y-118157880D01*
X189047811Y-118412110D01*
X189047798Y-118412134D01*
X188911331Y-118695511D01*
X188911325Y-118695525D01*
X188807442Y-118992408D01*
X188807437Y-118992426D01*
X188737449Y-119299067D01*
X188702231Y-119611624D01*
X188702231Y-119926195D01*
X188737449Y-120238752D01*
X188807437Y-120545393D01*
X188807442Y-120545411D01*
X188911325Y-120842294D01*
X188911331Y-120842308D01*
X189026408Y-121081269D01*
X189047805Y-121125699D01*
X189047806Y-121125700D01*
X189047811Y-121125709D01*
X189215153Y-121392032D01*
X189316363Y-121518945D01*
X189411270Y-121637954D01*
X189633687Y-121860371D01*
X189879608Y-122056487D01*
X190145942Y-122223836D01*
X190429337Y-122360312D01*
X190726231Y-122464199D01*
X190726239Y-122464201D01*
X190726247Y-122464203D01*
X190852114Y-122492931D01*
X191032891Y-122534192D01*
X191203641Y-122553431D01*
X191345445Y-122569409D01*
X191345458Y-122569410D01*
X191660004Y-122569410D01*
X191660016Y-122569409D01*
X191757683Y-122558404D01*
X191972571Y-122534192D01*
X192233731Y-122474584D01*
X192279214Y-122464203D01*
X192279216Y-122464202D01*
X192279231Y-122464199D01*
X192576125Y-122360312D01*
X192859520Y-122223836D01*
X193125854Y-122056487D01*
X193371775Y-121860371D01*
X193594192Y-121637954D01*
X193729637Y-121468112D01*
X205643933Y-121468112D01*
X205643933Y-121691038D01*
X205668480Y-121877497D01*
X205673029Y-121912045D01*
X205730723Y-122127363D01*
X205730724Y-122127366D01*
X205730725Y-122127370D01*
X205816025Y-122333303D01*
X205816030Y-122333314D01*
X205927479Y-122526348D01*
X205927490Y-122526366D01*
X206063181Y-122703202D01*
X206220814Y-122860835D01*
X206397650Y-122996526D01*
X206397655Y-122996529D01*
X206397659Y-122996532D01*
X206397668Y-122996537D01*
X206590702Y-123107986D01*
X206590705Y-123107987D01*
X206590708Y-123107989D01*
X206590713Y-123107991D01*
X206796646Y-123193291D01*
X206796647Y-123193291D01*
X206796654Y-123193294D01*
X207011972Y-123250988D01*
X207232978Y-123280084D01*
X207455892Y-123280084D01*
X207676898Y-123250988D01*
X207892216Y-123193294D01*
X208098162Y-123107989D01*
X208291211Y-122996532D01*
X208468060Y-122860831D01*
X208625684Y-122703207D01*
X208643287Y-122680267D01*
X208761379Y-122526366D01*
X208761379Y-122526365D01*
X208761385Y-122526358D01*
X208872842Y-122333309D01*
X208958147Y-122127363D01*
X209015841Y-121912045D01*
X209044937Y-121691039D01*
X209044937Y-121468125D01*
X209015841Y-121247119D01*
X208958147Y-121031801D01*
X208872842Y-120825855D01*
X208855659Y-120796094D01*
X208761390Y-120632815D01*
X208761385Y-120632806D01*
X208761382Y-120632802D01*
X208761379Y-120632797D01*
X208625688Y-120455961D01*
X208468055Y-120298328D01*
X208291219Y-120162637D01*
X208291201Y-120162626D01*
X208098167Y-120051177D01*
X208098156Y-120051172D01*
X207892223Y-119965872D01*
X207892219Y-119965871D01*
X207892217Y-119965870D01*
X207892216Y-119965870D01*
X207676898Y-119908176D01*
X207676893Y-119908175D01*
X207676894Y-119908175D01*
X207455892Y-119879080D01*
X207232978Y-119879080D01*
X207011976Y-119908175D01*
X206796650Y-119965871D01*
X206796646Y-119965872D01*
X206590713Y-120051172D01*
X206590702Y-120051177D01*
X206397668Y-120162626D01*
X206397650Y-120162637D01*
X206220814Y-120298328D01*
X206063181Y-120455961D01*
X205927490Y-120632797D01*
X205927479Y-120632815D01*
X205816030Y-120825849D01*
X205816025Y-120825860D01*
X205730725Y-121031793D01*
X205730724Y-121031797D01*
X205673028Y-121247122D01*
X205644747Y-121461939D01*
X205644746Y-121461938D01*
X205643933Y-121468112D01*
X193729637Y-121468112D01*
X193790308Y-121392033D01*
X193957657Y-121125699D01*
X194094133Y-120842304D01*
X194198020Y-120545410D01*
X194268013Y-120238750D01*
X194298759Y-119965871D01*
X194303230Y-119926195D01*
X194303231Y-119926182D01*
X194303231Y-119611637D01*
X194303230Y-119611624D01*
X194288703Y-119482700D01*
X194268013Y-119299070D01*
X194211279Y-119050500D01*
X194198024Y-118992426D01*
X194198019Y-118992408D01*
X194186191Y-118958606D01*
X194094133Y-118695516D01*
X193957657Y-118412121D01*
X193919179Y-118350884D01*
X193884533Y-118260119D01*
X193887258Y-118163002D01*
X193926941Y-118074321D01*
X193997539Y-118007575D01*
X194088306Y-117972928D01*
X194130015Y-117969410D01*
X194164871Y-117969410D01*
X194164874Y-117969410D01*
X194487599Y-117937624D01*
X194805654Y-117874359D01*
X194805664Y-117874356D01*
X195093227Y-117787126D01*
X195165507Y-117776404D01*
X203818632Y-117776404D01*
X203818638Y-117776404D01*
X203896258Y-117772243D01*
X203904731Y-117771789D01*
X203904734Y-117771788D01*
X203904749Y-117771788D01*
X203931107Y-117768954D01*
X204026857Y-117750414D01*
X204064034Y-117743217D01*
X204064035Y-117743216D01*
X204064038Y-117743216D01*
X204231032Y-117675040D01*
X204292355Y-117641555D01*
X204334871Y-117616621D01*
X204475894Y-117504160D01*
X209173256Y-112806798D01*
X209230882Y-112742642D01*
X209247516Y-112722000D01*
X209323308Y-112609812D01*
X209393185Y-112443523D01*
X209412870Y-112376484D01*
X209425304Y-112328783D01*
X209425305Y-112328779D01*
X209445499Y-112149554D01*
X209445500Y-112149541D01*
X209445500Y-105832271D01*
X209440885Y-105746172D01*
X209440884Y-105746156D01*
X209438050Y-105719799D01*
X209412313Y-105586869D01*
X209412312Y-105586866D01*
X209344136Y-105419872D01*
X209339123Y-105410692D01*
X209310651Y-105358549D01*
X209285715Y-105316030D01*
X209173258Y-105175013D01*
X209173256Y-105175010D01*
X208800216Y-104801970D01*
X208746243Y-104721192D01*
X208727289Y-104625904D01*
X208746243Y-104530616D01*
X208800216Y-104449837D01*
X209183256Y-104066798D01*
X209240882Y-104002642D01*
X209257516Y-103982000D01*
X209333308Y-103869812D01*
X209403185Y-103703523D01*
X209422870Y-103636484D01*
X209435304Y-103588783D01*
X209435305Y-103588779D01*
X209455499Y-103409554D01*
X209455500Y-103409541D01*
X209455500Y-100992271D01*
X209450885Y-100906172D01*
X209450884Y-100906156D01*
X209448050Y-100879799D01*
X209422313Y-100746869D01*
X209407400Y-100710340D01*
X209354136Y-100579872D01*
X209320651Y-100518549D01*
X209295717Y-100476033D01*
X209295711Y-100476026D01*
X209295709Y-100476022D01*
X209248019Y-100416220D01*
X209242862Y-100406238D01*
X209234955Y-100398250D01*
X209220716Y-100363371D01*
X209203426Y-100329903D01*
X209202481Y-100318702D01*
X209198235Y-100308301D01*
X209198427Y-100270634D01*
X209195261Y-100233092D01*
X209198673Y-100222385D01*
X209198731Y-100211148D01*
X209213325Y-100176416D01*
X209224765Y-100140525D01*
X209232014Y-100131940D01*
X209236368Y-100121579D01*
X209263147Y-100095071D01*
X209287447Y-100066296D01*
X209297428Y-100061139D01*
X209305417Y-100053232D01*
X209340295Y-100038993D01*
X209373764Y-100021703D01*
X209395361Y-100016513D01*
X209414595Y-100012789D01*
X209475776Y-100000944D01*
X209523105Y-99996404D01*
X213708632Y-99996404D01*
X213708638Y-99996404D01*
X213786258Y-99992243D01*
X213794731Y-99991789D01*
X213794734Y-99991788D01*
X213794749Y-99991788D01*
X213821107Y-99988954D01*
X213916857Y-99970414D01*
X213954034Y-99963217D01*
X213954035Y-99963216D01*
X213954038Y-99963216D01*
X214121032Y-99895040D01*
X214182355Y-99861555D01*
X214224871Y-99836621D01*
X214365894Y-99724160D01*
X216728868Y-97361185D01*
X216809647Y-97307212D01*
X216904935Y-97288258D01*
X217000223Y-97307212D01*
X217081005Y-97361188D01*
X217134981Y-97441970D01*
X217153935Y-97537258D01*
X217153935Y-126701433D01*
X217153402Y-126717717D01*
X217138753Y-126941239D01*
X217134502Y-126973530D01*
X217092398Y-127185213D01*
X217083968Y-127216674D01*
X217014594Y-127421049D01*
X217002130Y-127451141D01*
X216906676Y-127644707D01*
X216890392Y-127672913D01*
X216770483Y-127852375D01*
X216750655Y-127878216D01*
X216608352Y-128040485D01*
X216585322Y-128063516D01*
X216423052Y-128205827D01*
X216397212Y-128225655D01*
X216217764Y-128345562D01*
X216189557Y-128361848D01*
X215995983Y-128457312D01*
X215965892Y-128469777D01*
X215761517Y-128539156D01*
X215730056Y-128547586D01*
X215518377Y-128589695D01*
X215486086Y-128593947D01*
X215263339Y-128608551D01*
X215247059Y-128609084D01*
X215195633Y-128609085D01*
X215195223Y-128609139D01*
X215004405Y-128609139D01*
X214505651Y-128644809D01*
X214505638Y-128644810D01*
X214010682Y-128715972D01*
X214010680Y-128715972D01*
X214010676Y-128715973D01*
X213522073Y-128822260D01*
X213522057Y-128822264D01*
X213042290Y-128963133D01*
X213042277Y-128963137D01*
X212573755Y-129137885D01*
X212118907Y-129345604D01*
X212118870Y-129345623D01*
X211680026Y-129585249D01*
X211259367Y-129855586D01*
X211259358Y-129855593D01*
X211017927Y-130036325D01*
X210859049Y-130155259D01*
X210806238Y-130201020D01*
X210481142Y-130482714D01*
X210481128Y-130482726D01*
X210127563Y-130836290D01*
X210127548Y-130836306D01*
X209800098Y-131214200D01*
X209500427Y-131614510D01*
X209500425Y-131614512D01*
X209230085Y-132035167D01*
X209230079Y-132035177D01*
X209020758Y-132418517D01*
X208990432Y-132474054D01*
X208782701Y-132928914D01*
X208607960Y-133397407D01*
X208607955Y-133397423D01*
X208467076Y-133877204D01*
X208467073Y-133877215D01*
X208386254Y-134248736D01*
X208361584Y-134362143D01*
X208360777Y-134365851D01*
X208289617Y-134860767D01*
X208289616Y-134860777D01*
X208289615Y-134860786D01*
X208271501Y-135114044D01*
X208253941Y-135359555D01*
X208253940Y-135359561D01*
X208253940Y-135550176D01*
X208253924Y-135582635D01*
X208253916Y-135582651D01*
X208253916Y-135601546D01*
X208253911Y-135601568D01*
X208253383Y-135617714D01*
X208238735Y-135841223D01*
X208234484Y-135873516D01*
X208192378Y-136085200D01*
X208183947Y-136116662D01*
X208134042Y-136263681D01*
X208114577Y-136321022D01*
X208102112Y-136351114D01*
X208006654Y-136544682D01*
X207990367Y-136572890D01*
X207870460Y-136752339D01*
X207850631Y-136778180D01*
X207708326Y-136940442D01*
X207685295Y-136963473D01*
X207523027Y-137105773D01*
X207497185Y-137125601D01*
X207317736Y-137245499D01*
X207289528Y-137261784D01*
X207095958Y-137357236D01*
X207065864Y-137369700D01*
X206861495Y-137439066D01*
X206830034Y-137447495D01*
X206618363Y-137489591D01*
X206586069Y-137493842D01*
X206361523Y-137508550D01*
X206345243Y-137509082D01*
X206290636Y-137509081D01*
X206290616Y-137509084D01*
X198575698Y-137509084D01*
X198480410Y-137490130D01*
X198399628Y-137436154D01*
X198345652Y-137355372D01*
X198326698Y-137260084D01*
X198345652Y-137164796D01*
X198399628Y-137084015D01*
X199042035Y-136441607D01*
X199372655Y-136110987D01*
X199516106Y-135913543D01*
X199626904Y-135696089D01*
X199702321Y-135463980D01*
X199740500Y-135222931D01*
X199740500Y-135114044D01*
X199759454Y-135018756D01*
X199813430Y-134937974D01*
X199894212Y-134883998D01*
X199989500Y-134865044D01*
X200084788Y-134883998D01*
X200084798Y-134884002D01*
X200093269Y-134887511D01*
X200093279Y-134887516D01*
X200325987Y-134963127D01*
X200567658Y-135001404D01*
X200567662Y-135001404D01*
X200812338Y-135001404D01*
X200812342Y-135001404D01*
X201054013Y-134963127D01*
X201286721Y-134887516D01*
X201504736Y-134776432D01*
X201657328Y-134665567D01*
X201702679Y-134632618D01*
X201702682Y-134632616D01*
X201702685Y-134632612D01*
X201702689Y-134632610D01*
X201763933Y-134571365D01*
X201844712Y-134517392D01*
X201940000Y-134498438D01*
X202035288Y-134517392D01*
X202116066Y-134571365D01*
X202177311Y-134632610D01*
X202177314Y-134632612D01*
X202177320Y-134632618D01*
X202320768Y-134736838D01*
X202375264Y-134776432D01*
X202593279Y-134887516D01*
X202825987Y-134963127D01*
X203067658Y-135001404D01*
X203067662Y-135001404D01*
X203312338Y-135001404D01*
X203312342Y-135001404D01*
X203554013Y-134963127D01*
X203786721Y-134887516D01*
X204004736Y-134776432D01*
X204157328Y-134665567D01*
X204202679Y-134632618D01*
X204202682Y-134632616D01*
X204202685Y-134632612D01*
X204202689Y-134632610D01*
X204375706Y-134459593D01*
X204375708Y-134459589D01*
X204375712Y-134459586D01*
X204375714Y-134459583D01*
X204485640Y-134308282D01*
X204519528Y-134261640D01*
X204630612Y-134043625D01*
X204706223Y-133810917D01*
X204744500Y-133569246D01*
X204744500Y-132332562D01*
X204706223Y-132090891D01*
X204630612Y-131858183D01*
X204519528Y-131640168D01*
X204451126Y-131546021D01*
X204375714Y-131442224D01*
X204375708Y-131442218D01*
X204375706Y-131442215D01*
X204202689Y-131269198D01*
X204202685Y-131269195D01*
X204202679Y-131269189D01*
X204004740Y-131125379D01*
X204004736Y-131125376D01*
X203786721Y-131014292D01*
X203554013Y-130938681D01*
X203554011Y-130938680D01*
X203554009Y-130938680D01*
X203312352Y-130900405D01*
X203312345Y-130900404D01*
X203312342Y-130900404D01*
X203067658Y-130900404D01*
X203067655Y-130900404D01*
X203067647Y-130900405D01*
X202825990Y-130938680D01*
X202593284Y-131014290D01*
X202593279Y-131014292D01*
X202375267Y-131125374D01*
X202375259Y-131125379D01*
X202177320Y-131269189D01*
X202177318Y-131269192D01*
X202177314Y-131269195D01*
X202177311Y-131269198D01*
X202116066Y-131330442D01*
X202035288Y-131384416D01*
X201940000Y-131403370D01*
X201844712Y-131384416D01*
X201763933Y-131330442D01*
X201702689Y-131269198D01*
X201702685Y-131269195D01*
X201702679Y-131269189D01*
X201504740Y-131125379D01*
X201504736Y-131125376D01*
X201286721Y-131014292D01*
X201054013Y-130938681D01*
X201054011Y-130938680D01*
X201054009Y-130938680D01*
X200812352Y-130900405D01*
X200812345Y-130900404D01*
X200812342Y-130900404D01*
X200567658Y-130900404D01*
X200567655Y-130900404D01*
X200567647Y-130900405D01*
X200325990Y-130938680D01*
X200093284Y-131014290D01*
X200093279Y-131014292D01*
X199875267Y-131125374D01*
X199875259Y-131125379D01*
X199677320Y-131269189D01*
X199677318Y-131269192D01*
X199677314Y-131269195D01*
X199677311Y-131269198D01*
X199616066Y-131330442D01*
X199535288Y-131384416D01*
X199440000Y-131403370D01*
X199344712Y-131384416D01*
X199263933Y-131330442D01*
X199202689Y-131269198D01*
X199202685Y-131269195D01*
X199202679Y-131269189D01*
X199004740Y-131125379D01*
X199004736Y-131125376D01*
X198786721Y-131014292D01*
X198554013Y-130938681D01*
X198554011Y-130938680D01*
X198554009Y-130938680D01*
X198312352Y-130900405D01*
X198312345Y-130900404D01*
X198312342Y-130900404D01*
X198067658Y-130900404D01*
X198067655Y-130900404D01*
X198067647Y-130900405D01*
X197825990Y-130938680D01*
X197593284Y-131014290D01*
X197593279Y-131014292D01*
X197375267Y-131125374D01*
X197375259Y-131125379D01*
X197177320Y-131269189D01*
X197177310Y-131269198D01*
X197126237Y-131320271D01*
X197045455Y-131374247D01*
X196950167Y-131393200D01*
X196854879Y-131374245D01*
X196800948Y-131343534D01*
X196686089Y-131257551D01*
X196551378Y-131207307D01*
X196551371Y-131207305D01*
X196491832Y-131200904D01*
X195940001Y-131200904D01*
X195940000Y-131200905D01*
X195940000Y-132517892D01*
X195882993Y-132484979D01*
X195755826Y-132450904D01*
X195624174Y-132450904D01*
X195497007Y-132484979D01*
X195440000Y-132517892D01*
X195440000Y-131200905D01*
X195439999Y-131200904D01*
X194888167Y-131200904D01*
X194828628Y-131207305D01*
X194828621Y-131207307D01*
X194693912Y-131257550D01*
X194578812Y-131343714D01*
X194578810Y-131343716D01*
X194492646Y-131458816D01*
X194442403Y-131593525D01*
X194442401Y-131593532D01*
X194436000Y-131653071D01*
X194436000Y-132700903D01*
X194436001Y-132700904D01*
X195256988Y-132700904D01*
X195224075Y-132757911D01*
X195190000Y-132885078D01*
X195190000Y-133016730D01*
X195224075Y-133143897D01*
X195256988Y-133200904D01*
X194436001Y-133200904D01*
X194436000Y-133200905D01*
X194436000Y-134248736D01*
X194442401Y-134308275D01*
X194442403Y-134308282D01*
X194492647Y-134442994D01*
X194574386Y-134552182D01*
X194616318Y-134639823D01*
X194621519Y-134736838D01*
X194589198Y-134828459D01*
X194524275Y-134900737D01*
X194436634Y-134942669D01*
X194375053Y-134950404D01*
X188725378Y-134950404D01*
X188630090Y-134931450D01*
X188549308Y-134877474D01*
X186372737Y-132700903D01*
X184180083Y-130508249D01*
X183982639Y-130364798D01*
X183765185Y-130254000D01*
X183765182Y-130253999D01*
X183765180Y-130253998D01*
X183533073Y-130178582D01*
X183292036Y-130140404D01*
X183292027Y-130140404D01*
X172116282Y-130140404D01*
X172020994Y-130121450D01*
X171940212Y-130067474D01*
X162665808Y-120793070D01*
X162634726Y-120755163D01*
X161964486Y-119750253D01*
X161931123Y-119676536D01*
X161886068Y-119508390D01*
X161886063Y-119508378D01*
X161783203Y-119260051D01*
X161750964Y-119204212D01*
X161676105Y-119074553D01*
X161648806Y-119027269D01*
X161485175Y-118814020D01*
X161295109Y-118623954D01*
X161081860Y-118460323D01*
X161081850Y-118460317D01*
X161081850Y-118460316D01*
X160849083Y-118325928D01*
X160849072Y-118325923D01*
X160690206Y-118260119D01*
X160600745Y-118223063D01*
X160341110Y-118153494D01*
X160341109Y-118153493D01*
X160341106Y-118153493D01*
X160074616Y-118118410D01*
X159805822Y-118118410D01*
X159539331Y-118153493D01*
X159279699Y-118223061D01*
X159279693Y-118223063D01*
X159031365Y-118325923D01*
X159031354Y-118325928D01*
X158798587Y-118460316D01*
X158798587Y-118460317D01*
X158798582Y-118460320D01*
X158798578Y-118460323D01*
X158638641Y-118583046D01*
X158585326Y-118623956D01*
X158395265Y-118814017D01*
X158395263Y-118814020D01*
X158231632Y-119027269D01*
X158231629Y-119027273D01*
X158231626Y-119027278D01*
X158231625Y-119027278D01*
X158097237Y-119260045D01*
X158097232Y-119260056D01*
X157994372Y-119508384D01*
X157994370Y-119508390D01*
X157924802Y-119768022D01*
X157889719Y-120034513D01*
X157889719Y-120303306D01*
X157924802Y-120569797D01*
X157994370Y-120829429D01*
X157994372Y-120829435D01*
X158097232Y-121077763D01*
X158097237Y-121077774D01*
X158231626Y-121310541D01*
X158231632Y-121310551D01*
X158395263Y-121523800D01*
X158585329Y-121713866D01*
X158798578Y-121877497D01*
X158798587Y-121877502D01*
X158798587Y-121877503D01*
X159031354Y-122011891D01*
X159031357Y-122011892D01*
X159031360Y-122011894D01*
X159279693Y-122114757D01*
X159323164Y-122126405D01*
X159409658Y-122168884D01*
X159467801Y-122213199D01*
X159532097Y-122286035D01*
X159563626Y-122377932D01*
X159557587Y-122474899D01*
X159514900Y-122562174D01*
X159442064Y-122626470D01*
X159429907Y-122633096D01*
X159291774Y-122703478D01*
X159094330Y-122846929D01*
X158921754Y-123019505D01*
X158778306Y-123216945D01*
X158667505Y-123434405D01*
X158592089Y-123666512D01*
X158553911Y-123907549D01*
X158553911Y-124151622D01*
X158592089Y-124392659D01*
X158634924Y-124524493D01*
X158667507Y-124624771D01*
X158756773Y-124799966D01*
X158783143Y-124893469D01*
X158783911Y-124913006D01*
X158783911Y-131211939D01*
X158791703Y-131261135D01*
X158787888Y-131358215D01*
X158747213Y-131446445D01*
X158675869Y-131512394D01*
X158584719Y-131546021D01*
X158545768Y-131549086D01*
X157527858Y-131549086D01*
X157432570Y-131530132D01*
X157351788Y-131476156D01*
X150685564Y-124809933D01*
X150685563Y-124809931D01*
X150539241Y-124663609D01*
X150539237Y-124663606D01*
X150539235Y-124663604D01*
X150367189Y-124548648D01*
X150367179Y-124548642D01*
X150176007Y-124469456D01*
X150090425Y-124452433D01*
X149973051Y-124429086D01*
X149973049Y-124429086D01*
X134638911Y-124429086D01*
X134543623Y-124410132D01*
X134462841Y-124356156D01*
X134408865Y-124275374D01*
X134389911Y-124180086D01*
X134389911Y-123952727D01*
X134385461Y-123907549D01*
X134374433Y-123795580D01*
X134355479Y-123700292D01*
X134334493Y-123627446D01*
X134317999Y-123570190D01*
X134317999Y-123570189D01*
X134235208Y-123409930D01*
X134208778Y-123370374D01*
X134181233Y-123329149D01*
X134081056Y-123207081D01*
X133366916Y-122492941D01*
X133347729Y-122477195D01*
X133244851Y-122392766D01*
X133244845Y-122392762D01*
X133164064Y-122338786D01*
X133164059Y-122338784D01*
X133045563Y-122273294D01*
X133045562Y-122273293D01*
X133045561Y-122273293D01*
X132972025Y-122249855D01*
X132873707Y-122218518D01*
X132778413Y-122199563D01*
X132659818Y-122187882D01*
X132621271Y-122184086D01*
X116231183Y-122184086D01*
X116211909Y-122185984D01*
X116074040Y-122199563D01*
X115978751Y-122218517D01*
X115901987Y-122240632D01*
X115869971Y-122249855D01*
X115801043Y-122259586D01*
X115003183Y-122259586D01*
X114907895Y-122240632D01*
X114827113Y-122186656D01*
X114108569Y-121468112D01*
X135633933Y-121468112D01*
X135633933Y-121691038D01*
X135658480Y-121877497D01*
X135663029Y-121912045D01*
X135720723Y-122127363D01*
X135720724Y-122127366D01*
X135720725Y-122127370D01*
X135806025Y-122333303D01*
X135806030Y-122333314D01*
X135917479Y-122526348D01*
X135917490Y-122526366D01*
X136053181Y-122703202D01*
X136210814Y-122860835D01*
X136387650Y-122996526D01*
X136387655Y-122996529D01*
X136387659Y-122996532D01*
X136387668Y-122996537D01*
X136580702Y-123107986D01*
X136580705Y-123107987D01*
X136580708Y-123107989D01*
X136580713Y-123107991D01*
X136786646Y-123193291D01*
X136786647Y-123193291D01*
X136786654Y-123193294D01*
X137001972Y-123250988D01*
X137222978Y-123280084D01*
X137445892Y-123280084D01*
X137666898Y-123250988D01*
X137882216Y-123193294D01*
X138088162Y-123107989D01*
X138281211Y-122996532D01*
X138458060Y-122860831D01*
X138615684Y-122703207D01*
X138633287Y-122680267D01*
X138751379Y-122526366D01*
X138751379Y-122526365D01*
X138751385Y-122526358D01*
X138862842Y-122333309D01*
X138948147Y-122127363D01*
X139005841Y-121912045D01*
X139034937Y-121691039D01*
X139034937Y-121468125D01*
X139005841Y-121247119D01*
X138948147Y-121031801D01*
X138862842Y-120825855D01*
X138845659Y-120796094D01*
X138751390Y-120632815D01*
X138751385Y-120632806D01*
X138751382Y-120632802D01*
X138751379Y-120632797D01*
X138615688Y-120455961D01*
X138458055Y-120298328D01*
X138281219Y-120162637D01*
X138281201Y-120162626D01*
X138088167Y-120051177D01*
X138088156Y-120051172D01*
X137882223Y-119965872D01*
X137882219Y-119965871D01*
X137882217Y-119965870D01*
X137882216Y-119965870D01*
X137666898Y-119908176D01*
X137666893Y-119908175D01*
X137666894Y-119908175D01*
X137445892Y-119879080D01*
X137222978Y-119879080D01*
X137001976Y-119908175D01*
X136786650Y-119965871D01*
X136786646Y-119965872D01*
X136580713Y-120051172D01*
X136580702Y-120051177D01*
X136387668Y-120162626D01*
X136387650Y-120162637D01*
X136210814Y-120298328D01*
X136053181Y-120455961D01*
X135917490Y-120632797D01*
X135917479Y-120632815D01*
X135806030Y-120825849D01*
X135806025Y-120825860D01*
X135720725Y-121031793D01*
X135720724Y-121031797D01*
X135663028Y-121247122D01*
X135634747Y-121461939D01*
X135634746Y-121461938D01*
X135633933Y-121468112D01*
X114108569Y-121468112D01*
X109097341Y-116456884D01*
X109043365Y-116376102D01*
X109024411Y-116280814D01*
X109024411Y-84354764D01*
X109043365Y-84259476D01*
X109088591Y-84191788D01*
X109086969Y-84190419D01*
X109211232Y-84043260D01*
X109211233Y-84043259D01*
X109226524Y-84020374D01*
X109265209Y-83962477D01*
X109330704Y-83843972D01*
X109385479Y-83672116D01*
X109404433Y-83576828D01*
X109419911Y-83419682D01*
X109419911Y-79157226D01*
X109438865Y-79061938D01*
X109492841Y-78981156D01*
X109750981Y-78723016D01*
X109831763Y-78669040D01*
X109927051Y-78650086D01*
X132530411Y-78650086D01*
X132625699Y-78669040D01*
G37*
%TD.AperFunction*%
%TA.AperFunction,Conductor*%
G36*
X139036357Y-108430358D02*
G01*
X139117139Y-108484334D01*
X139266570Y-108633765D01*
X139320546Y-108714547D01*
X139339500Y-108809835D01*
X139339500Y-111648915D01*
X139370307Y-111882918D01*
X139406154Y-112016699D01*
X139431394Y-112110898D01*
X139473849Y-112213394D01*
X139473851Y-112213396D01*
X139473851Y-112213397D01*
X139521645Y-112328783D01*
X139521716Y-112328954D01*
X139639727Y-112533354D01*
X139783408Y-112720603D01*
X139783411Y-112720606D01*
X142087235Y-115024430D01*
X142141211Y-115105212D01*
X142160165Y-115200500D01*
X142141211Y-115295788D01*
X142087235Y-115376570D01*
X142006453Y-115430546D01*
X141911165Y-115449500D01*
X136798027Y-115449500D01*
X136702739Y-115430546D01*
X136621957Y-115376570D01*
X134313430Y-113068043D01*
X134259454Y-112987261D01*
X134240500Y-112891973D01*
X134240500Y-112550505D01*
X134259454Y-112455217D01*
X134313430Y-112374435D01*
X134394212Y-112320459D01*
X134489500Y-112301505D01*
X134509037Y-112302273D01*
X134607339Y-112310009D01*
X135430000Y-111487348D01*
X135430000Y-111493565D01*
X135457259Y-111595298D01*
X135509920Y-111686510D01*
X135584394Y-111760984D01*
X135675606Y-111813645D01*
X135777339Y-111840904D01*
X135783552Y-111840904D01*
X134960893Y-112663563D01*
X135043823Y-112723815D01*
X135254204Y-112831010D01*
X135478752Y-112903969D01*
X135711936Y-112940902D01*
X135711951Y-112940904D01*
X135948049Y-112940904D01*
X135948063Y-112940902D01*
X136181247Y-112903969D01*
X136405795Y-112831010D01*
X136616177Y-112723814D01*
X136699105Y-112663563D01*
X135876446Y-111840904D01*
X135882661Y-111840904D01*
X135984394Y-111813645D01*
X136075606Y-111760984D01*
X136150080Y-111686510D01*
X136202741Y-111595298D01*
X136230000Y-111493565D01*
X136230000Y-111487350D01*
X137052659Y-112310009D01*
X137112910Y-112227081D01*
X137220106Y-112016699D01*
X137293065Y-111792151D01*
X137329998Y-111558967D01*
X137330000Y-111558952D01*
X137330000Y-111322855D01*
X137329998Y-111322840D01*
X137293065Y-111089656D01*
X137220106Y-110865108D01*
X137112911Y-110654727D01*
X137052659Y-110571797D01*
X136230000Y-111394456D01*
X136230000Y-111388243D01*
X136202741Y-111286510D01*
X136150080Y-111195298D01*
X136075606Y-111120824D01*
X135984394Y-111068163D01*
X135882661Y-111040904D01*
X135876444Y-111040904D01*
X136699105Y-110218243D01*
X136616176Y-110157992D01*
X136405795Y-110050797D01*
X136181247Y-109977838D01*
X135948063Y-109940905D01*
X135948049Y-109940904D01*
X135711951Y-109940904D01*
X135711936Y-109940905D01*
X135478752Y-109977838D01*
X135254204Y-110050798D01*
X135254199Y-110050800D01*
X135043833Y-110157986D01*
X134960894Y-110218244D01*
X135783554Y-111040904D01*
X135777339Y-111040904D01*
X135675606Y-111068163D01*
X135584394Y-111120824D01*
X135509920Y-111195298D01*
X135457259Y-111286510D01*
X135430000Y-111388243D01*
X135430000Y-111394458D01*
X134607340Y-110571798D01*
X134547082Y-110654737D01*
X134547078Y-110654742D01*
X134523106Y-110701792D01*
X134505943Y-110723562D01*
X134492718Y-110747932D01*
X134476154Y-110761349D01*
X134462958Y-110778090D01*
X134438768Y-110791636D01*
X134417226Y-110809088D01*
X134396786Y-110815146D01*
X134378190Y-110825561D01*
X134350660Y-110828819D01*
X134324077Y-110836699D01*
X134302875Y-110834474D01*
X134281709Y-110836980D01*
X134255027Y-110829454D01*
X134227452Y-110826562D01*
X134208715Y-110816393D01*
X134188202Y-110810608D01*
X134166431Y-110793445D01*
X134142062Y-110780220D01*
X134131542Y-110765941D01*
X134111904Y-110750460D01*
X134080906Y-110704728D01*
X134075576Y-110694603D01*
X134058284Y-110652855D01*
X134005262Y-110561018D01*
X134002998Y-110556717D01*
X133998375Y-110541123D01*
X133980029Y-110493666D01*
X133971137Y-110452793D01*
X133962474Y-110412969D01*
X133962472Y-110412964D01*
X133961699Y-110411158D01*
X133961698Y-110411156D01*
X133878802Y-110217578D01*
X133878800Y-110217573D01*
X133856298Y-110184326D01*
X133759664Y-110041549D01*
X133759662Y-110041547D01*
X133759660Y-110041544D01*
X133609360Y-109891244D01*
X133609356Y-109891241D01*
X133609354Y-109891239D01*
X133433338Y-109772108D01*
X133433325Y-109772101D01*
X133237941Y-109688432D01*
X133237938Y-109688431D01*
X133237935Y-109688430D01*
X133086850Y-109655563D01*
X132997772Y-109616789D01*
X132963712Y-109588325D01*
X132211861Y-108836474D01*
X132157885Y-108755692D01*
X132138931Y-108660404D01*
X132157885Y-108565116D01*
X132211861Y-108484334D01*
X132292643Y-108430358D01*
X132387931Y-108411404D01*
X138941069Y-108411404D01*
X139036357Y-108430358D01*
G37*
%TD.AperFunction*%
%TA.AperFunction,Conductor*%
G36*
X138092064Y-88472670D02*
G01*
X138098990Y-88473371D01*
X138098994Y-88473372D01*
X138970761Y-88561630D01*
X138991218Y-88562473D01*
X138992162Y-88562519D01*
X138992812Y-88562681D01*
X139019060Y-88565292D01*
X139057648Y-88571404D01*
X139057650Y-88571404D01*
X139262350Y-88571404D01*
X139262352Y-88571404D01*
X139304977Y-88564652D01*
X139346753Y-88561602D01*
X139349238Y-88561631D01*
X140221006Y-88473372D01*
X140221017Y-88473370D01*
X140224654Y-88473002D01*
X140224674Y-88473204D01*
X140252268Y-88471404D01*
X140500500Y-88471404D01*
X140595788Y-88490358D01*
X140676570Y-88544334D01*
X144616570Y-92484333D01*
X144670546Y-92565115D01*
X144689500Y-92660403D01*
X144689500Y-93397721D01*
X144677313Y-93474666D01*
X144621522Y-93646372D01*
X144589500Y-93848542D01*
X144589500Y-94053265D01*
X144621521Y-94255433D01*
X144632707Y-94289859D01*
X144677313Y-94427143D01*
X144689500Y-94504086D01*
X144689500Y-98554476D01*
X144689501Y-98554492D01*
X144716540Y-98725207D01*
X144719060Y-98741118D01*
X144728134Y-98769044D01*
X144776842Y-98918954D01*
X144777453Y-98920832D01*
X144863240Y-99089199D01*
X144863243Y-99089203D01*
X144863244Y-99089205D01*
X144892153Y-99128995D01*
X144974310Y-99242074D01*
X147544310Y-101812073D01*
X147544309Y-101812073D01*
X147613413Y-101881176D01*
X147677927Y-101945690D01*
X147830801Y-102056760D01*
X147999168Y-102142547D01*
X148178882Y-102200940D01*
X148365519Y-102230500D01*
X150254389Y-102230500D01*
X150308320Y-102236411D01*
X151366927Y-102471271D01*
X151366997Y-102471286D01*
X151367068Y-102471302D01*
X151371362Y-102472237D01*
X151373142Y-102472625D01*
X151373165Y-102472630D01*
X151373216Y-102472641D01*
X151373450Y-102472691D01*
X151439395Y-102480643D01*
X151448438Y-102481904D01*
X151565843Y-102500500D01*
X151565846Y-102500500D01*
X151794153Y-102500500D01*
X151794157Y-102500500D01*
X152019660Y-102464784D01*
X152236799Y-102394231D01*
X152440228Y-102290579D01*
X152624937Y-102156379D01*
X152786379Y-101994937D01*
X152920579Y-101810228D01*
X153024231Y-101606799D01*
X153094784Y-101389660D01*
X153130500Y-101164157D01*
X153130500Y-100935843D01*
X153094784Y-100710340D01*
X153024231Y-100493201D01*
X152971379Y-100389473D01*
X152920581Y-100289775D01*
X152920580Y-100289774D01*
X152920579Y-100289772D01*
X152786379Y-100105063D01*
X152624937Y-99943621D01*
X152440228Y-99809421D01*
X152440224Y-99809419D01*
X152440224Y-99809418D01*
X152236799Y-99705769D01*
X152236794Y-99705767D01*
X152084008Y-99656124D01*
X152019660Y-99635216D01*
X152019658Y-99635215D01*
X152019656Y-99635215D01*
X151794168Y-99599501D01*
X151794159Y-99599500D01*
X151794157Y-99599500D01*
X151565843Y-99599500D01*
X151565840Y-99599500D01*
X151565831Y-99599501D01*
X151449608Y-99617909D01*
X151428833Y-99620311D01*
X151393466Y-99622899D01*
X150313715Y-99825240D01*
X150267852Y-99829500D01*
X149060403Y-99829500D01*
X148965115Y-99810546D01*
X148884333Y-99756570D01*
X147163430Y-98035666D01*
X147109454Y-97954884D01*
X147090500Y-97859596D01*
X147090500Y-94504086D01*
X147102686Y-94427143D01*
X147158477Y-94255438D01*
X147187912Y-94069596D01*
X147190499Y-94053265D01*
X147190500Y-94053253D01*
X147190500Y-93848554D01*
X147190500Y-93848552D01*
X147189656Y-93843223D01*
X147189797Y-93839625D01*
X147189732Y-93838795D01*
X147189830Y-93838787D01*
X147193467Y-93746145D01*
X147234139Y-93657913D01*
X147305479Y-93591961D01*
X147396628Y-93558331D01*
X147493708Y-93562142D01*
X147581940Y-93602814D01*
X147611659Y-93628194D01*
X153502702Y-99519237D01*
X153502705Y-99519241D01*
X153649027Y-99665563D01*
X153649030Y-99665565D01*
X153649032Y-99665567D01*
X153821078Y-99780523D01*
X153821084Y-99780527D01*
X153821086Y-99780527D01*
X153821088Y-99780529D01*
X153929030Y-99825240D01*
X154012262Y-99859716D01*
X154215217Y-99900086D01*
X163834342Y-99900086D01*
X163874934Y-99903416D01*
X164433666Y-99995742D01*
X164492535Y-100000963D01*
X164509441Y-100003049D01*
X164531332Y-100006517D01*
X164553855Y-100010085D01*
X164553862Y-100010085D01*
X164553865Y-100010086D01*
X164553868Y-100010086D01*
X164734953Y-100010086D01*
X164734957Y-100010086D01*
X164913820Y-99981757D01*
X165086050Y-99925797D01*
X165247405Y-99843582D01*
X165393912Y-99737139D01*
X165521964Y-99609087D01*
X165628407Y-99462580D01*
X165710622Y-99301225D01*
X165766582Y-99128995D01*
X165794911Y-98950132D01*
X165794911Y-98769040D01*
X165766582Y-98590177D01*
X165754987Y-98554492D01*
X165710624Y-98417953D01*
X165710623Y-98417952D01*
X165710622Y-98417947D01*
X165628407Y-98256592D01*
X165521964Y-98110085D01*
X165393912Y-97982033D01*
X165247405Y-97875590D01*
X165247402Y-97875588D01*
X165247396Y-97875585D01*
X165086060Y-97793380D01*
X165086057Y-97793378D01*
X165086050Y-97793375D01*
X165086047Y-97793374D01*
X165086043Y-97793372D01*
X164913829Y-97737417D01*
X164913812Y-97737413D01*
X164734967Y-97709087D01*
X164734960Y-97709086D01*
X164734957Y-97709086D01*
X164553865Y-97709086D01*
X164547022Y-97710169D01*
X164510601Y-97715937D01*
X164476718Y-97718950D01*
X164460059Y-97719288D01*
X164458895Y-97719312D01*
X164037509Y-97775458D01*
X163876546Y-97796905D01*
X163843660Y-97799086D01*
X154856953Y-97799086D01*
X154761665Y-97780132D01*
X154680883Y-97726156D01*
X154569883Y-97615156D01*
X154515907Y-97534374D01*
X154496953Y-97439086D01*
X154515907Y-97343798D01*
X154569883Y-97263016D01*
X154650665Y-97209040D01*
X154745953Y-97190086D01*
X182162609Y-97190086D01*
X182162609Y-97193522D01*
X182235724Y-97200715D01*
X182321413Y-97246503D01*
X182383056Y-97321598D01*
X182411269Y-97414566D01*
X182401757Y-97511254D01*
X182355969Y-97596943D01*
X182339541Y-97615070D01*
X181447139Y-98507473D01*
X181366357Y-98561450D01*
X181271069Y-98580404D01*
X172021989Y-98580404D01*
X171787992Y-98611210D01*
X171787990Y-98611210D01*
X171787986Y-98611211D01*
X171673996Y-98641754D01*
X171560001Y-98672299D01*
X171432272Y-98725206D01*
X171432272Y-98725207D01*
X171341950Y-98762620D01*
X171341943Y-98762623D01*
X171137558Y-98880625D01*
X171137548Y-98880631D01*
X170950300Y-99024312D01*
X170950296Y-99024315D01*
X162313630Y-107660981D01*
X162232848Y-107714957D01*
X162137560Y-107733911D01*
X162042272Y-107714957D01*
X161961490Y-107660981D01*
X161907514Y-107580199D01*
X161897044Y-107549355D01*
X161886068Y-107508393D01*
X161886066Y-107508384D01*
X161783203Y-107260051D01*
X161767733Y-107233257D01*
X161648811Y-107027278D01*
X161648806Y-107027269D01*
X161485175Y-106814020D01*
X161295109Y-106623954D01*
X161081860Y-106460323D01*
X161081850Y-106460317D01*
X161081850Y-106460316D01*
X160849083Y-106325928D01*
X160849072Y-106325923D01*
X160674897Y-106253778D01*
X160600745Y-106223063D01*
X160592661Y-106220897D01*
X160341106Y-106153493D01*
X160074616Y-106118410D01*
X159805822Y-106118410D01*
X159539331Y-106153493D01*
X159279699Y-106223061D01*
X159279693Y-106223063D01*
X159031365Y-106325923D01*
X159031354Y-106325928D01*
X158798587Y-106460316D01*
X158798587Y-106460317D01*
X158798582Y-106460320D01*
X158798578Y-106460323D01*
X158694213Y-106540405D01*
X158585326Y-106623956D01*
X158395265Y-106814017D01*
X158395263Y-106814020D01*
X158231632Y-107027269D01*
X158231629Y-107027273D01*
X158231626Y-107027278D01*
X158231625Y-107027278D01*
X158097237Y-107260045D01*
X158097232Y-107260056D01*
X157994372Y-107508382D01*
X157989329Y-107527204D01*
X157946356Y-107614338D01*
X157924885Y-107638822D01*
X153268229Y-112295480D01*
X153187447Y-112349456D01*
X153092159Y-112368410D01*
X146789382Y-112368410D01*
X146694094Y-112349456D01*
X146664882Y-112335050D01*
X146649083Y-112325928D01*
X146649072Y-112325923D01*
X146511474Y-112268928D01*
X146400745Y-112223063D01*
X146372900Y-112215602D01*
X146141106Y-112153493D01*
X145874616Y-112118410D01*
X145605822Y-112118410D01*
X145339331Y-112153493D01*
X145079699Y-112223061D01*
X145079693Y-112223063D01*
X144831365Y-112325923D01*
X144831354Y-112325928D01*
X144815556Y-112335050D01*
X144800002Y-112340329D01*
X144786344Y-112349456D01*
X144754399Y-112355810D01*
X144723557Y-112366280D01*
X144691056Y-112368410D01*
X144626937Y-112368410D01*
X144531649Y-112349456D01*
X144450867Y-112295480D01*
X143013430Y-110858043D01*
X142959454Y-110777261D01*
X142940500Y-110681973D01*
X142940500Y-108034513D01*
X145689719Y-108034513D01*
X145689719Y-108303307D01*
X145691852Y-108319510D01*
X145715024Y-108495525D01*
X145724803Y-108569801D01*
X145794372Y-108829436D01*
X145822111Y-108896404D01*
X145897232Y-109077763D01*
X145897237Y-109077774D01*
X146031626Y-109310541D01*
X146031632Y-109310551D01*
X146195263Y-109523800D01*
X146385329Y-109713866D01*
X146598578Y-109877497D01*
X146598587Y-109877502D01*
X146598587Y-109877503D01*
X146831354Y-110011891D01*
X146831357Y-110011892D01*
X146831360Y-110011894D01*
X147079693Y-110114757D01*
X147339328Y-110184326D01*
X147605822Y-110219410D01*
X147874616Y-110219410D01*
X148141110Y-110184326D01*
X148400745Y-110114757D01*
X148649078Y-110011894D01*
X148858050Y-109891244D01*
X148881850Y-109877503D01*
X148881850Y-109877502D01*
X148881860Y-109877497D01*
X149095109Y-109713866D01*
X149285175Y-109523800D01*
X149448806Y-109310551D01*
X149583203Y-109077769D01*
X149686066Y-108829436D01*
X149755635Y-108569801D01*
X149790719Y-108303307D01*
X149790719Y-108034513D01*
X149755635Y-107768019D01*
X149686066Y-107508384D01*
X149583203Y-107260051D01*
X149567733Y-107233257D01*
X149448811Y-107027278D01*
X149448806Y-107027269D01*
X149285175Y-106814020D01*
X149095109Y-106623954D01*
X148881860Y-106460323D01*
X148881850Y-106460317D01*
X148881850Y-106460316D01*
X148649083Y-106325928D01*
X148649072Y-106325923D01*
X148474897Y-106253778D01*
X148400745Y-106223063D01*
X148392661Y-106220897D01*
X148141106Y-106153493D01*
X147874616Y-106118410D01*
X147605822Y-106118410D01*
X147339331Y-106153493D01*
X147079699Y-106223061D01*
X147079693Y-106223063D01*
X146831365Y-106325923D01*
X146831354Y-106325928D01*
X146598587Y-106460316D01*
X146598587Y-106460317D01*
X146598582Y-106460320D01*
X146598578Y-106460323D01*
X146494213Y-106540405D01*
X146385326Y-106623956D01*
X146195265Y-106814017D01*
X146195263Y-106814020D01*
X146031632Y-107027269D01*
X146031629Y-107027273D01*
X146031626Y-107027278D01*
X146031625Y-107027278D01*
X145897237Y-107260045D01*
X145897232Y-107260056D01*
X145794372Y-107508384D01*
X145794370Y-107508390D01*
X145724802Y-107768022D01*
X145701400Y-107945787D01*
X145689719Y-108034513D01*
X142940500Y-108034513D01*
X142940500Y-107842893D01*
X142930643Y-107768022D01*
X142909693Y-107608890D01*
X142848606Y-107380911D01*
X142798544Y-107260051D01*
X142787446Y-107233258D01*
X142787446Y-107233257D01*
X142758289Y-107162865D01*
X142758287Y-107162861D01*
X142758286Y-107162860D01*
X142758284Y-107162854D01*
X142640273Y-106958453D01*
X142496592Y-106771204D01*
X140979699Y-105254312D01*
X140792450Y-105110631D01*
X140588050Y-104992620D01*
X140497728Y-104955207D01*
X140497727Y-104955206D01*
X140369998Y-104902299D01*
X140306265Y-104885222D01*
X140142014Y-104841211D01*
X140142007Y-104841210D01*
X139908011Y-104810404D01*
X137980304Y-104810404D01*
X137885016Y-104791450D01*
X137804234Y-104737474D01*
X137750258Y-104656692D01*
X137731304Y-104561404D01*
X137750258Y-104466116D01*
X137778860Y-104415044D01*
X137798728Y-104387697D01*
X137798732Y-104387692D01*
X137877373Y-104233349D01*
X137930902Y-104068605D01*
X137958000Y-103897515D01*
X137958000Y-103724293D01*
X137930902Y-103553203D01*
X137930902Y-103553202D01*
X137920187Y-103520224D01*
X137908000Y-103443280D01*
X137908000Y-100794940D01*
X137907974Y-100794807D01*
X137867630Y-100591984D01*
X137826714Y-100493205D01*
X137788443Y-100400810D01*
X137788437Y-100400800D01*
X137673481Y-100228754D01*
X137673479Y-100228752D01*
X137673477Y-100228749D01*
X137527155Y-100082427D01*
X137527151Y-100082424D01*
X135947279Y-98502552D01*
X135901485Y-98439519D01*
X135898731Y-98434115D01*
X135886976Y-98417936D01*
X135796914Y-98293976D01*
X135674428Y-98171490D01*
X135674424Y-98171487D01*
X135674422Y-98171485D01*
X135534292Y-98069674D01*
X135379943Y-97991030D01*
X135379937Y-97991028D01*
X135254041Y-97950122D01*
X135215201Y-97937502D01*
X135215199Y-97937501D01*
X135215197Y-97937501D01*
X135044121Y-97910405D01*
X135044114Y-97910404D01*
X135044111Y-97910404D01*
X134870889Y-97910404D01*
X134870886Y-97910404D01*
X134870878Y-97910405D01*
X134699802Y-97937501D01*
X134535062Y-97991028D01*
X134535056Y-97991030D01*
X134380707Y-98069674D01*
X134240577Y-98171485D01*
X134118081Y-98293981D01*
X134016270Y-98434111D01*
X133937626Y-98588460D01*
X133937624Y-98588466D01*
X133884097Y-98753206D01*
X133857001Y-98924282D01*
X133857000Y-98924297D01*
X133857000Y-99097510D01*
X133857001Y-99097525D01*
X133884097Y-99268601D01*
X133937624Y-99433341D01*
X133937626Y-99433347D01*
X134016270Y-99587696D01*
X134118081Y-99727826D01*
X134118083Y-99727828D01*
X134118086Y-99727832D01*
X134240572Y-99850318D01*
X134240575Y-99850320D01*
X134240577Y-99850322D01*
X134380711Y-99952136D01*
X134402458Y-99963216D01*
X134437088Y-99980860D01*
X134500117Y-100026652D01*
X135734070Y-101260605D01*
X135788046Y-101341387D01*
X135807000Y-101436675D01*
X135807000Y-103443280D01*
X135794813Y-103520224D01*
X135784097Y-103553202D01*
X135784097Y-103553205D01*
X135757001Y-103724282D01*
X135757000Y-103724297D01*
X135757000Y-103897510D01*
X135757001Y-103897525D01*
X135784097Y-104068601D01*
X135784098Y-104068605D01*
X135837627Y-104233349D01*
X135900152Y-104356063D01*
X135916271Y-104387697D01*
X135936140Y-104415044D01*
X135976816Y-104503275D01*
X135980631Y-104600355D01*
X135947004Y-104691505D01*
X135881056Y-104762848D01*
X135792825Y-104803524D01*
X135734696Y-104810404D01*
X133369500Y-104810404D01*
X133274212Y-104791450D01*
X133193430Y-104737474D01*
X133139454Y-104656692D01*
X133120500Y-104561404D01*
X133120500Y-93762893D01*
X133118295Y-93746145D01*
X133089693Y-93528890D01*
X133028606Y-93300911D01*
X132938284Y-93082855D01*
X132937787Y-93081995D01*
X132820278Y-92878463D01*
X132820272Y-92878453D01*
X132819488Y-92877431D01*
X132676592Y-92691205D01*
X132509699Y-92524312D01*
X132322450Y-92380631D01*
X132322440Y-92380625D01*
X132118054Y-92262622D01*
X132118043Y-92262617D01*
X131997222Y-92212571D01*
X131899993Y-92172298D01*
X131672014Y-92111211D01*
X131672007Y-92111210D01*
X131438011Y-92080404D01*
X131201989Y-92080404D01*
X130967992Y-92111210D01*
X130967990Y-92111210D01*
X130967986Y-92111211D01*
X130795640Y-92157391D01*
X130740010Y-92172297D01*
X130740007Y-92172298D01*
X130521956Y-92262617D01*
X130521945Y-92262622D01*
X130317559Y-92380625D01*
X130317549Y-92380631D01*
X130130301Y-92524312D01*
X130130297Y-92524315D01*
X129963411Y-92691201D01*
X129963408Y-92691205D01*
X129819727Y-92878453D01*
X129819721Y-92878463D01*
X129701718Y-93082849D01*
X129701713Y-93082860D01*
X129628173Y-93260402D01*
X129611394Y-93300911D01*
X129550307Y-93528890D01*
X129550306Y-93528894D01*
X129550306Y-93528896D01*
X129519500Y-93762893D01*
X129519500Y-105542973D01*
X129500546Y-105638261D01*
X129446570Y-105719043D01*
X129365788Y-105773019D01*
X129270500Y-105791973D01*
X129175212Y-105773019D01*
X129094430Y-105719043D01*
X128693430Y-105318043D01*
X128639454Y-105237261D01*
X128620500Y-105141973D01*
X128620500Y-93239835D01*
X128639454Y-93144547D01*
X128693430Y-93063765D01*
X130452861Y-91304334D01*
X130533643Y-91250358D01*
X130628931Y-91231404D01*
X132660893Y-91231404D01*
X132660909Y-91231403D01*
X133300110Y-91231403D01*
X133300113Y-91231403D01*
X133347856Y-91228560D01*
X133555556Y-91183378D01*
X133750952Y-91099704D01*
X133926981Y-90980564D01*
X134077281Y-90830264D01*
X134196421Y-90654235D01*
X134280095Y-90458839D01*
X134316735Y-90290403D01*
X134355510Y-90201325D01*
X134425424Y-90133863D01*
X134515832Y-90098291D01*
X134612972Y-90100025D01*
X134702054Y-90138801D01*
X134769516Y-90208715D01*
X134772349Y-90213230D01*
X134774702Y-90217070D01*
X134834960Y-90300009D01*
X135657621Y-89477348D01*
X135657621Y-89483565D01*
X135684880Y-89585298D01*
X135737541Y-89676510D01*
X135812015Y-89750984D01*
X135903227Y-89803645D01*
X136004960Y-89830904D01*
X136011173Y-89830904D01*
X135188514Y-90653563D01*
X135271444Y-90713815D01*
X135481825Y-90821010D01*
X135706373Y-90893969D01*
X135939557Y-90930902D01*
X135939572Y-90930904D01*
X136175670Y-90930904D01*
X136175684Y-90930902D01*
X136408868Y-90893969D01*
X136633416Y-90821010D01*
X136843798Y-90713814D01*
X136926726Y-90653563D01*
X136104067Y-89830904D01*
X136110282Y-89830904D01*
X136212015Y-89803645D01*
X136303227Y-89750984D01*
X136377701Y-89676510D01*
X136430362Y-89585298D01*
X136457621Y-89483565D01*
X136457621Y-89477351D01*
X137280279Y-90300010D01*
X137340531Y-90217081D01*
X137447727Y-90006699D01*
X137520686Y-89782151D01*
X137557619Y-89548967D01*
X137557621Y-89548952D01*
X137557621Y-89312855D01*
X137557619Y-89312840D01*
X137520686Y-89079656D01*
X137447726Y-88855108D01*
X137447725Y-88855104D01*
X137436691Y-88833449D01*
X137434004Y-88823922D01*
X137428505Y-88815692D01*
X137420899Y-88777458D01*
X137410319Y-88739942D01*
X137411482Y-88730113D01*
X137409551Y-88720404D01*
X137417156Y-88682166D01*
X137421738Y-88643460D01*
X137426573Y-88634824D01*
X137428505Y-88625116D01*
X137450163Y-88592701D01*
X137469209Y-88558692D01*
X137476981Y-88552564D01*
X137482481Y-88544334D01*
X137514894Y-88522676D01*
X137545506Y-88498544D01*
X137555032Y-88495857D01*
X137563263Y-88490358D01*
X137601496Y-88482752D01*
X137639013Y-88472172D01*
X137658551Y-88471404D01*
X138066983Y-88471404D01*
X138092064Y-88472670D01*
G37*
%TD.AperFunction*%
%TA.AperFunction,Conductor*%
G36*
X170605822Y-56729034D02*
G01*
X170686604Y-56783010D01*
X170740580Y-56863792D01*
X170759534Y-56959080D01*
X170740580Y-57054368D01*
X170686604Y-57135150D01*
X167736730Y-60085024D01*
X167679122Y-60149160D01*
X167662485Y-60169806D01*
X167586693Y-60281994D01*
X167516812Y-60448291D01*
X167497130Y-60515320D01*
X167484696Y-60563020D01*
X167484694Y-60563028D01*
X167464500Y-60742253D01*
X167464500Y-80289536D01*
X167469114Y-80375635D01*
X167469115Y-80375651D01*
X167471949Y-80402008D01*
X167497686Y-80534938D01*
X167497688Y-80534942D01*
X167565864Y-80701936D01*
X167565866Y-80701939D01*
X167565866Y-80701941D01*
X167599348Y-80763258D01*
X167624284Y-80805777D01*
X167627699Y-80810059D01*
X167736744Y-80946798D01*
X174414106Y-87624160D01*
X174478262Y-87681786D01*
X174498904Y-87698420D01*
X174611092Y-87774212D01*
X174777381Y-87844089D01*
X174777385Y-87844090D01*
X174777387Y-87844091D01*
X174844416Y-87863773D01*
X174892116Y-87876207D01*
X174892124Y-87876209D01*
X175071349Y-87896403D01*
X175071362Y-87896404D01*
X181888632Y-87896404D01*
X181888638Y-87896404D01*
X181966258Y-87892243D01*
X181974731Y-87891789D01*
X181974734Y-87891788D01*
X181974749Y-87891788D01*
X182001107Y-87888954D01*
X182134038Y-87863216D01*
X182236386Y-87821431D01*
X182331768Y-87802963D01*
X182426959Y-87822402D01*
X182507464Y-87876789D01*
X182561028Y-87957845D01*
X182579500Y-88051960D01*
X182579500Y-94440086D01*
X182560546Y-94535374D01*
X182506570Y-94616156D01*
X182425788Y-94670132D01*
X182330500Y-94689086D01*
X182256365Y-94689086D01*
X182256362Y-94689086D01*
X182256354Y-94689087D01*
X182077509Y-94717413D01*
X182077492Y-94717417D01*
X181905278Y-94773372D01*
X181905261Y-94773380D01*
X181743925Y-94855585D01*
X181743918Y-94855589D01*
X181597412Y-94962031D01*
X181597410Y-94962032D01*
X181597410Y-94962033D01*
X181543284Y-95016158D01*
X181462506Y-95070132D01*
X181367218Y-95089086D01*
X157336516Y-95089086D01*
X157241228Y-95070132D01*
X157160446Y-95016156D01*
X157106470Y-94935374D01*
X157087516Y-94840086D01*
X157089647Y-94807583D01*
X157092018Y-94789575D01*
X157094910Y-94767601D01*
X157094911Y-94767601D01*
X157094911Y-94531575D01*
X157091292Y-94504086D01*
X157064104Y-94297572D01*
X157003017Y-94069593D01*
X156912695Y-93851537D01*
X156910970Y-93848550D01*
X156829746Y-93707865D01*
X156794684Y-93647136D01*
X156651003Y-93459887D01*
X156484110Y-93292994D01*
X156296861Y-93149313D01*
X156235521Y-93113898D01*
X156224887Y-93107758D01*
X156224887Y-93107757D01*
X156218453Y-93104042D01*
X156203734Y-93094333D01*
X156185945Y-93085275D01*
X156181753Y-93082855D01*
X156180264Y-93081995D01*
X156180262Y-93081993D01*
X156092467Y-93031306D01*
X156092466Y-93031305D01*
X156092460Y-93031302D01*
X156092454Y-93031299D01*
X156092449Y-93031297D01*
X156034315Y-93007216D01*
X156016628Y-92999066D01*
X154676676Y-92316821D01*
X154613585Y-92270997D01*
X143233430Y-80890841D01*
X143179454Y-80810059D01*
X143160500Y-80714771D01*
X143160500Y-80185841D01*
X145279719Y-80185841D01*
X145279719Y-80454634D01*
X145312276Y-80701941D01*
X145314803Y-80721129D01*
X145384372Y-80980764D01*
X145414920Y-81054514D01*
X145487232Y-81229091D01*
X145487237Y-81229102D01*
X145621626Y-81461869D01*
X145621632Y-81461879D01*
X145785263Y-81675128D01*
X145975329Y-81865194D01*
X146188578Y-82028825D01*
X146188587Y-82028830D01*
X146188587Y-82028831D01*
X146421354Y-82163219D01*
X146421357Y-82163220D01*
X146421360Y-82163222D01*
X146669693Y-82266085D01*
X146929328Y-82335654D01*
X147195822Y-82370738D01*
X147464616Y-82370738D01*
X147731110Y-82335654D01*
X147990745Y-82266085D01*
X148239078Y-82163222D01*
X148390104Y-82076027D01*
X148471850Y-82028831D01*
X148471850Y-82028830D01*
X148471860Y-82028825D01*
X148685109Y-81865194D01*
X148875175Y-81675128D01*
X149038806Y-81461879D01*
X149173203Y-81229097D01*
X149276066Y-80980764D01*
X149345635Y-80721129D01*
X149380719Y-80454635D01*
X149380719Y-80185841D01*
X157479719Y-80185841D01*
X157479719Y-80454634D01*
X157512276Y-80701941D01*
X157514803Y-80721129D01*
X157584372Y-80980764D01*
X157614920Y-81054514D01*
X157687232Y-81229091D01*
X157687237Y-81229102D01*
X157821626Y-81461869D01*
X157821632Y-81461879D01*
X157985263Y-81675128D01*
X158175329Y-81865194D01*
X158388578Y-82028825D01*
X158388587Y-82028830D01*
X158388587Y-82028831D01*
X158621354Y-82163219D01*
X158621357Y-82163220D01*
X158621360Y-82163222D01*
X158869693Y-82266085D01*
X159129328Y-82335654D01*
X159395822Y-82370738D01*
X159664616Y-82370738D01*
X159931110Y-82335654D01*
X160190745Y-82266085D01*
X160439078Y-82163222D01*
X160590104Y-82076027D01*
X160671850Y-82028831D01*
X160671850Y-82028830D01*
X160671860Y-82028825D01*
X160885109Y-81865194D01*
X161075175Y-81675128D01*
X161238806Y-81461879D01*
X161373203Y-81229097D01*
X161476066Y-80980764D01*
X161545635Y-80721129D01*
X161580719Y-80454635D01*
X161580719Y-80185841D01*
X161545635Y-79919347D01*
X161476066Y-79659712D01*
X161373203Y-79411379D01*
X161238806Y-79178597D01*
X161075175Y-78965348D01*
X160885109Y-78775282D01*
X160671860Y-78611651D01*
X160671850Y-78611645D01*
X160671850Y-78611644D01*
X160439083Y-78477256D01*
X160439072Y-78477251D01*
X160301474Y-78420256D01*
X160190745Y-78374391D01*
X159931110Y-78304822D01*
X159931109Y-78304821D01*
X159931106Y-78304821D01*
X159664616Y-78269738D01*
X159395822Y-78269738D01*
X159129331Y-78304821D01*
X158869699Y-78374389D01*
X158869693Y-78374391D01*
X158621365Y-78477251D01*
X158621354Y-78477256D01*
X158388587Y-78611644D01*
X158388587Y-78611645D01*
X158388582Y-78611648D01*
X158388578Y-78611651D01*
X158243444Y-78723016D01*
X158175326Y-78775284D01*
X157985265Y-78965345D01*
X157985263Y-78965348D01*
X157821632Y-79178597D01*
X157821629Y-79178601D01*
X157821626Y-79178606D01*
X157821625Y-79178606D01*
X157687237Y-79411373D01*
X157687232Y-79411384D01*
X157584372Y-79659712D01*
X157584370Y-79659718D01*
X157514802Y-79919350D01*
X157479719Y-80185841D01*
X149380719Y-80185841D01*
X149345635Y-79919347D01*
X149276066Y-79659712D01*
X149173203Y-79411379D01*
X149038806Y-79178597D01*
X148875175Y-78965348D01*
X148685109Y-78775282D01*
X148471860Y-78611651D01*
X148471850Y-78611645D01*
X148471850Y-78611644D01*
X148239083Y-78477256D01*
X148239072Y-78477251D01*
X148101474Y-78420256D01*
X147990745Y-78374391D01*
X147731110Y-78304822D01*
X147731109Y-78304821D01*
X147731106Y-78304821D01*
X147464616Y-78269738D01*
X147195822Y-78269738D01*
X146929331Y-78304821D01*
X146669699Y-78374389D01*
X146669693Y-78374391D01*
X146421365Y-78477251D01*
X146421354Y-78477256D01*
X146188587Y-78611644D01*
X146188587Y-78611645D01*
X146188582Y-78611648D01*
X146188578Y-78611651D01*
X146043444Y-78723016D01*
X145975326Y-78775284D01*
X145785265Y-78965345D01*
X145785263Y-78965348D01*
X145621632Y-79178597D01*
X145621629Y-79178601D01*
X145621626Y-79178606D01*
X145621625Y-79178606D01*
X145487237Y-79411373D01*
X145487232Y-79411384D01*
X145384372Y-79659712D01*
X145384370Y-79659718D01*
X145314802Y-79919350D01*
X145279719Y-80185841D01*
X143160500Y-80185841D01*
X143160500Y-75592455D01*
X143179454Y-75497167D01*
X143233430Y-75416385D01*
X143314212Y-75362409D01*
X143409500Y-75343455D01*
X143504788Y-75362409D01*
X143585570Y-75416385D01*
X143615880Y-75455904D01*
X143617097Y-75455092D01*
X143621626Y-75461869D01*
X143621632Y-75461879D01*
X143785263Y-75675128D01*
X143975329Y-75865194D01*
X144188578Y-76028825D01*
X144188587Y-76028830D01*
X144188587Y-76028831D01*
X144421354Y-76163219D01*
X144421357Y-76163220D01*
X144421360Y-76163222D01*
X144669693Y-76266085D01*
X144929328Y-76335654D01*
X145195822Y-76370738D01*
X145464616Y-76370738D01*
X145731110Y-76335654D01*
X145990745Y-76266085D01*
X146239078Y-76163222D01*
X146471860Y-76028825D01*
X146685109Y-75865194D01*
X146875175Y-75675128D01*
X147038806Y-75461879D01*
X147042725Y-75455092D01*
X147173200Y-75229102D01*
X147173199Y-75229102D01*
X147173203Y-75229097D01*
X147276066Y-74980764D01*
X147345635Y-74721129D01*
X147380719Y-74454635D01*
X147380719Y-74185841D01*
X147345635Y-73919347D01*
X147276066Y-73659712D01*
X147173203Y-73411379D01*
X147162771Y-73393311D01*
X147069038Y-73230961D01*
X147038806Y-73178597D01*
X146875175Y-72965348D01*
X146685109Y-72775282D01*
X146471860Y-72611651D01*
X146471850Y-72611645D01*
X146471850Y-72611644D01*
X146239083Y-72477256D01*
X146239072Y-72477251D01*
X146070460Y-72407410D01*
X145990745Y-72374391D01*
X145904497Y-72351281D01*
X145739712Y-72307127D01*
X145731110Y-72304822D01*
X145731109Y-72304821D01*
X145731106Y-72304821D01*
X145464616Y-72269738D01*
X145195822Y-72269738D01*
X144929331Y-72304821D01*
X144669699Y-72374389D01*
X144669693Y-72374391D01*
X144421365Y-72477251D01*
X144421354Y-72477256D01*
X144188587Y-72611644D01*
X144188587Y-72611645D01*
X144188582Y-72611648D01*
X144188578Y-72611651D01*
X144075725Y-72698246D01*
X143975326Y-72775284D01*
X143785265Y-72965345D01*
X143744355Y-73018660D01*
X143621632Y-73178597D01*
X143621629Y-73178601D01*
X143621626Y-73178606D01*
X143617097Y-73185384D01*
X143615056Y-73184020D01*
X143561075Y-73245570D01*
X143473938Y-73288538D01*
X143376991Y-73294889D01*
X143284993Y-73263656D01*
X143211950Y-73199595D01*
X143168982Y-73112458D01*
X143160500Y-73048020D01*
X143160500Y-70590404D01*
X143179454Y-70495116D01*
X143233430Y-70414334D01*
X144034334Y-69613430D01*
X144115116Y-69559454D01*
X144210404Y-69540500D01*
X144879688Y-69540500D01*
X144970185Y-69557527D01*
X146192472Y-70034372D01*
X146226466Y-70050700D01*
X146421360Y-70163222D01*
X146669693Y-70266085D01*
X146929328Y-70335654D01*
X147195822Y-70370738D01*
X147464616Y-70370738D01*
X147731110Y-70335654D01*
X147990745Y-70266085D01*
X148239078Y-70163222D01*
X148393338Y-70074160D01*
X148471850Y-70028831D01*
X148471850Y-70028830D01*
X148471860Y-70028825D01*
X148685109Y-69865194D01*
X148875175Y-69675128D01*
X149038806Y-69461879D01*
X149112898Y-69333549D01*
X149160905Y-69250398D01*
X149173203Y-69229097D01*
X149276066Y-68980764D01*
X149345635Y-68721129D01*
X149380719Y-68454635D01*
X149380719Y-68185841D01*
X157479719Y-68185841D01*
X157479719Y-68454634D01*
X157514802Y-68721125D01*
X157584370Y-68980757D01*
X157584372Y-68980763D01*
X157687232Y-69229091D01*
X157687237Y-69229102D01*
X157821626Y-69461869D01*
X157821632Y-69461879D01*
X157985263Y-69675128D01*
X158175329Y-69865194D01*
X158388578Y-70028825D01*
X158388587Y-70028830D01*
X158388587Y-70028831D01*
X158621354Y-70163219D01*
X158621357Y-70163220D01*
X158621360Y-70163222D01*
X158869693Y-70266085D01*
X159129328Y-70335654D01*
X159395822Y-70370738D01*
X159664616Y-70370738D01*
X159931110Y-70335654D01*
X160190745Y-70266085D01*
X160439078Y-70163222D01*
X160593338Y-70074160D01*
X160671850Y-70028831D01*
X160671850Y-70028830D01*
X160671860Y-70028825D01*
X160885109Y-69865194D01*
X161075175Y-69675128D01*
X161238806Y-69461879D01*
X161312898Y-69333549D01*
X161360905Y-69250398D01*
X161373203Y-69229097D01*
X161476066Y-68980764D01*
X161545635Y-68721129D01*
X161580719Y-68454635D01*
X161580719Y-68185841D01*
X161545635Y-67919347D01*
X161476066Y-67659712D01*
X161373203Y-67411379D01*
X161326253Y-67330060D01*
X161254197Y-67205255D01*
X161238806Y-67178597D01*
X161075175Y-66965348D01*
X160885109Y-66775282D01*
X160671860Y-66611651D01*
X160671850Y-66611645D01*
X160671850Y-66611644D01*
X160439083Y-66477256D01*
X160439072Y-66477251D01*
X160236289Y-66393256D01*
X160190745Y-66374391D01*
X159931110Y-66304822D01*
X159931109Y-66304821D01*
X159931106Y-66304821D01*
X159664616Y-66269738D01*
X159395822Y-66269738D01*
X159129331Y-66304821D01*
X158869699Y-66374389D01*
X158869693Y-66374391D01*
X158621365Y-66477251D01*
X158621354Y-66477256D01*
X158388587Y-66611644D01*
X158388587Y-66611645D01*
X158388582Y-66611648D01*
X158388578Y-66611651D01*
X158228641Y-66734374D01*
X158175326Y-66775284D01*
X157985265Y-66965345D01*
X157985263Y-66965348D01*
X157821632Y-67178597D01*
X157821629Y-67178601D01*
X157821626Y-67178606D01*
X157821625Y-67178606D01*
X157687237Y-67411373D01*
X157687232Y-67411384D01*
X157584372Y-67659712D01*
X157584370Y-67659718D01*
X157514802Y-67919350D01*
X157479719Y-68185841D01*
X149380719Y-68185841D01*
X149345635Y-67919347D01*
X149276066Y-67659712D01*
X149173203Y-67411379D01*
X149126253Y-67330060D01*
X149054197Y-67205255D01*
X149038806Y-67178597D01*
X148875175Y-66965348D01*
X148685109Y-66775282D01*
X148471860Y-66611651D01*
X148471850Y-66611645D01*
X148471850Y-66611644D01*
X148239083Y-66477256D01*
X148239072Y-66477251D01*
X148036289Y-66393256D01*
X147990745Y-66374391D01*
X147731110Y-66304822D01*
X147731109Y-66304821D01*
X147731106Y-66304821D01*
X147464616Y-66269738D01*
X147195822Y-66269738D01*
X146929331Y-66304821D01*
X146669699Y-66374389D01*
X146669693Y-66374391D01*
X146421365Y-66477251D01*
X146421354Y-66477256D01*
X146189129Y-66611332D01*
X146180899Y-66614125D01*
X146159859Y-66625762D01*
X146016217Y-66685218D01*
X145920924Y-66704148D01*
X145825641Y-66685170D01*
X145744873Y-66631173D01*
X145690917Y-66550378D01*
X145671987Y-66455085D01*
X145690965Y-66359802D01*
X145744912Y-66279084D01*
X145872873Y-66151123D01*
X145893347Y-66136248D01*
X145904678Y-66124244D01*
X145918245Y-66118159D01*
X145935885Y-66105343D01*
X146267545Y-65936355D01*
X146676282Y-65685880D01*
X147064108Y-65404108D01*
X147428630Y-65092777D01*
X147767602Y-64753805D01*
X148078933Y-64389283D01*
X148360705Y-64001457D01*
X148611180Y-63592720D01*
X148828813Y-63165590D01*
X149012263Y-62722702D01*
X149160399Y-62266786D01*
X149272308Y-61800653D01*
X149347299Y-61327176D01*
X149347300Y-61327157D01*
X149347302Y-61327145D01*
X149384910Y-60849286D01*
X149384911Y-60849274D01*
X149384911Y-60654585D01*
X149384935Y-60654346D01*
X149384935Y-58692069D01*
X149385483Y-58675556D01*
X149389094Y-58621234D01*
X149401205Y-58439016D01*
X149405574Y-58406300D01*
X149450825Y-58182047D01*
X149459485Y-58150193D01*
X149534021Y-57933896D01*
X149546824Y-57903464D01*
X149649326Y-57698944D01*
X149666047Y-57670470D01*
X149753344Y-57542135D01*
X149794718Y-57481311D01*
X149815053Y-57455309D01*
X149967633Y-57284839D01*
X149991224Y-57261763D01*
X150165026Y-57112985D01*
X150191469Y-57093231D01*
X150383432Y-56968765D01*
X150412246Y-56952690D01*
X150618998Y-56854723D01*
X150649709Y-56842596D01*
X150835880Y-56783010D01*
X150867587Y-56772861D01*
X150899629Y-56764905D01*
X151124827Y-56724620D01*
X151157640Y-56720974D01*
X151395315Y-56710444D01*
X151411821Y-56710262D01*
X151429642Y-56710656D01*
X151429642Y-56710655D01*
X151452919Y-56711170D01*
X151461975Y-56710080D01*
X170510534Y-56710080D01*
X170605822Y-56729034D01*
G37*
%TD.AperFunction*%
%TD*%
%TA.AperFunction,Conductor*%
%TO.N,/NO2*%
G36*
X202654859Y-61429771D02*
G01*
X202675501Y-61446405D01*
X212933681Y-71704585D01*
X212967166Y-71765908D01*
X212970000Y-71792266D01*
X212970000Y-92119542D01*
X212950315Y-92186581D01*
X212933681Y-92207223D01*
X211036319Y-94104585D01*
X210974996Y-94138070D01*
X210948638Y-94140904D01*
X201741362Y-94140904D01*
X201674323Y-94121219D01*
X201653681Y-94104585D01*
X200916319Y-93367223D01*
X200882834Y-93305900D01*
X200880000Y-93279542D01*
X200880000Y-90502266D01*
X200899685Y-90435227D01*
X200916319Y-90414585D01*
X201343681Y-89987223D01*
X201405004Y-89953738D01*
X201431362Y-89950904D01*
X208350000Y-89950904D01*
X209920000Y-88380904D01*
X209920000Y-72500904D01*
X201070000Y-63650904D01*
X181339999Y-63650904D01*
X179920000Y-65070903D01*
X179920000Y-68289542D01*
X179900315Y-68356581D01*
X179883681Y-68377223D01*
X178756319Y-69504585D01*
X178694996Y-69538070D01*
X178668638Y-69540904D01*
X174471362Y-69540904D01*
X174404323Y-69521219D01*
X174383681Y-69504585D01*
X173296319Y-68417223D01*
X173262834Y-68355900D01*
X173260000Y-68329542D01*
X173260000Y-63512266D01*
X173279685Y-63445227D01*
X173296319Y-63424585D01*
X175274499Y-61446405D01*
X175335822Y-61412920D01*
X175362180Y-61410086D01*
X202587820Y-61410086D01*
X202654859Y-61429771D01*
G37*
%TD.AperFunction*%
%TD*%
%TA.AperFunction,Conductor*%
%TO.N,/COM2*%
G36*
X203565677Y-57240589D02*
G01*
X203586319Y-57257223D01*
X216913681Y-70584585D01*
X216947166Y-70645908D01*
X216950000Y-70672266D01*
X216950000Y-95949542D01*
X216930315Y-96016581D01*
X216913681Y-96037223D01*
X213796319Y-99154585D01*
X213734996Y-99188070D01*
X213708638Y-99190904D01*
X209310000Y-99190904D01*
X209250000Y-99130904D01*
X209250000Y-94950904D01*
X211800000Y-94950904D01*
X213700000Y-93050904D01*
X213700000Y-92493692D01*
X213709683Y-92445654D01*
X213713079Y-92437572D01*
X213723185Y-92413523D01*
X213742870Y-92346484D01*
X213742875Y-92346466D01*
X213755303Y-92298789D01*
X213765353Y-92209593D01*
X213775500Y-92119542D01*
X213775500Y-71792266D01*
X213770884Y-71706155D01*
X213768050Y-71679797D01*
X213742312Y-71546866D01*
X213715383Y-71480904D01*
X213710205Y-71468220D01*
X213710199Y-71468209D01*
X213700000Y-71443224D01*
X213700000Y-71390904D01*
X213656295Y-71347199D01*
X213640651Y-71318549D01*
X213615717Y-71276033D01*
X213503256Y-71135010D01*
X208384720Y-66016474D01*
X203245092Y-60876845D01*
X203245082Y-60876836D01*
X203245076Y-60876830D01*
X203180920Y-60819204D01*
X203160278Y-60802570D01*
X203103733Y-60764369D01*
X203048133Y-60726807D01*
X203048132Y-60726806D01*
X203048090Y-60726778D01*
X203027020Y-60717924D01*
X202970000Y-60660904D01*
X202891327Y-60660904D01*
X202881801Y-60656901D01*
X202872007Y-60654025D01*
X202871997Y-60654021D01*
X202814753Y-60637213D01*
X202767067Y-60624782D01*
X202587824Y-60604586D01*
X202587820Y-60604586D01*
X202294535Y-60604586D01*
X202264682Y-60600656D01*
X202264677Y-60600685D01*
X202264243Y-60600598D01*
X202262447Y-60600362D01*
X202261330Y-60600062D01*
X202260693Y-60599892D01*
X202026702Y-60569087D01*
X202026699Y-60569086D01*
X202026693Y-60569086D01*
X179743307Y-60569086D01*
X179743301Y-60569086D01*
X179743297Y-60569087D01*
X179509306Y-60599892D01*
X179508299Y-60600162D01*
X179507552Y-60600362D01*
X179505756Y-60600598D01*
X179505323Y-60600685D01*
X179505317Y-60600656D01*
X179475465Y-60604586D01*
X175362178Y-60604586D01*
X175276086Y-60609201D01*
X175276077Y-60609201D01*
X175276069Y-60609202D01*
X175276066Y-60609202D01*
X175276055Y-60609203D01*
X175249710Y-60612035D01*
X175116780Y-60637773D01*
X175082657Y-60651705D01*
X175035788Y-60660904D01*
X174399999Y-60660904D01*
X172170000Y-62890903D01*
X172170000Y-62890904D01*
X172170000Y-75430904D01*
X177060000Y-80320904D01*
X181838638Y-80320904D01*
X181905677Y-80340589D01*
X181926319Y-80357223D01*
X182543181Y-80974085D01*
X182576666Y-81035408D01*
X182579500Y-81061766D01*
X182579500Y-86400042D01*
X182559815Y-86467081D01*
X182543181Y-86487723D01*
X181976319Y-87054585D01*
X181914996Y-87088070D01*
X181888638Y-87090904D01*
X175071362Y-87090904D01*
X175004323Y-87071219D01*
X174983681Y-87054585D01*
X168306319Y-80377223D01*
X168272834Y-80315900D01*
X168270000Y-80289542D01*
X168270000Y-60742266D01*
X168289685Y-60675227D01*
X168306319Y-60654585D01*
X171703681Y-57257223D01*
X171765004Y-57223738D01*
X171791362Y-57220904D01*
X203498638Y-57220904D01*
X203565677Y-57240589D01*
G37*
%TD.AperFunction*%
%TD*%
%TA.AperFunction,Conductor*%
%TO.N,/COM1*%
G36*
X207931823Y-105078976D02*
G01*
X207958146Y-105099050D01*
X208603681Y-105744585D01*
X208637166Y-105805908D01*
X208640000Y-105832266D01*
X208640000Y-112149542D01*
X208620315Y-112216581D01*
X208603681Y-112237223D01*
X203906319Y-116934585D01*
X203844996Y-116968070D01*
X203818638Y-116970904D01*
X191689101Y-116970904D01*
X191675216Y-116970124D01*
X191660006Y-116968410D01*
X191660004Y-116968410D01*
X191345458Y-116968410D01*
X191345456Y-116968410D01*
X191330246Y-116970124D01*
X191316361Y-116970904D01*
X183929999Y-116970904D01*
X182160000Y-118740903D01*
X182160000Y-126199542D01*
X182140315Y-126266581D01*
X182123681Y-126287223D01*
X180896319Y-127514585D01*
X180834996Y-127548070D01*
X180808638Y-127550904D01*
X176511362Y-127550904D01*
X176444323Y-127531219D01*
X176423681Y-127514585D01*
X175116319Y-126207223D01*
X175082834Y-126145900D01*
X175080000Y-126119542D01*
X175080000Y-115772266D01*
X175099685Y-115705227D01*
X175116319Y-115684585D01*
X178373681Y-112427223D01*
X178435004Y-112393738D01*
X178461362Y-112390904D01*
X199030000Y-112390904D01*
X201410000Y-110010904D01*
X201410000Y-105722266D01*
X201429685Y-105655227D01*
X201446319Y-105634585D01*
X201978181Y-105102723D01*
X202039504Y-105069238D01*
X202065862Y-105066404D01*
X207798639Y-105066404D01*
X207804134Y-105066109D01*
X207863828Y-105062909D01*
X207931823Y-105078976D01*
G37*
%TD.AperFunction*%
%TD*%
%TA.AperFunction,Conductor*%
%TO.N,/NO1*%
G36*
X207745677Y-100040589D02*
G01*
X207766319Y-100057223D01*
X208613681Y-100904585D01*
X208647166Y-100965908D01*
X208650000Y-100992266D01*
X208650000Y-103409542D01*
X208630315Y-103476581D01*
X208613681Y-103497223D01*
X207886319Y-104224585D01*
X207824996Y-104258070D01*
X207798638Y-104260904D01*
X190999999Y-104260904D01*
X187206319Y-108054585D01*
X187144996Y-108088070D01*
X187118638Y-108090904D01*
X175511362Y-108090904D01*
X175444323Y-108071219D01*
X175423681Y-108054585D01*
X174216319Y-106847223D01*
X174182834Y-106785900D01*
X174180000Y-106759542D01*
X174180000Y-104652266D01*
X174199685Y-104585227D01*
X174216319Y-104564585D01*
X175363681Y-103417223D01*
X175425004Y-103383738D01*
X175451362Y-103380904D01*
X184470000Y-103380904D01*
X187793681Y-100057223D01*
X187855004Y-100023738D01*
X187881362Y-100020904D01*
X207678638Y-100020904D01*
X207745677Y-100040589D01*
G37*
%TD.AperFunction*%
%TD*%
%TA.AperFunction,Conductor*%
%TO.N,/COM2*%
G36*
X197545677Y-72150589D02*
G01*
X197566319Y-72167223D01*
X199873681Y-74474585D01*
X199907166Y-74535908D01*
X199910000Y-74562266D01*
X199910000Y-93600904D01*
X201260000Y-94950904D01*
X209250000Y-94950904D01*
X209250000Y-99130904D01*
X209310000Y-99190904D01*
X209309999Y-99190904D01*
X209306319Y-99194585D01*
X209244996Y-99228070D01*
X209218638Y-99230904D01*
X207823164Y-99230904D01*
X207809280Y-99230124D01*
X207678642Y-99215404D01*
X207678638Y-99215404D01*
X199085862Y-99215404D01*
X199018823Y-99195719D01*
X198998181Y-99179085D01*
X196606319Y-96787223D01*
X196572834Y-96725900D01*
X196570000Y-96699542D01*
X196570000Y-78520904D01*
X195500355Y-77451259D01*
X195429477Y-77451259D01*
X195425189Y-77450000D01*
X195340000Y-77450000D01*
X192856026Y-77450000D01*
X192802225Y-77437720D01*
X192709977Y-77393295D01*
X192576126Y-77328836D01*
X192279232Y-77224949D01*
X192279230Y-77224948D01*
X192112976Y-77187002D01*
X192052888Y-77153792D01*
X191226319Y-76327223D01*
X191192834Y-76265900D01*
X191190000Y-76239542D01*
X191190000Y-73162265D01*
X191209685Y-73095226D01*
X191226314Y-73074589D01*
X191764746Y-72536157D01*
X191826065Y-72502675D01*
X191838525Y-72500623D01*
X191972571Y-72485520D01*
X192279231Y-72415527D01*
X192576125Y-72311640D01*
X192859520Y-72175164D01*
X192899711Y-72149909D01*
X192965683Y-72130904D01*
X197478638Y-72130904D01*
X197545677Y-72150589D01*
G37*
%TD.AperFunction*%
%TD*%
%TA.AperFunction,Conductor*%
%TO.N,/MST_IO21*%
G36*
X86457350Y-81078374D02*
G01*
X86465166Y-81082739D01*
X86467686Y-81089993D01*
X86467686Y-81569816D01*
X86464259Y-81578089D01*
X86458073Y-81581328D01*
X85853979Y-81690815D01*
X85845227Y-81688919D01*
X85840424Y-81681619D01*
X85773878Y-81351899D01*
X85773878Y-81347271D01*
X85840562Y-81016868D01*
X85845557Y-81009439D01*
X85853390Y-81007565D01*
X86457350Y-81078374D01*
G37*
%TD.AperFunction*%
%TD*%
%TA.AperFunction,Conductor*%
%TO.N,/MST_IO22*%
G36*
X85222040Y-71544072D02*
G01*
X85585407Y-72034924D01*
X85587575Y-72043612D01*
X85584276Y-72050158D01*
X85244983Y-72389451D01*
X85236710Y-72392878D01*
X85229749Y-72390582D01*
X84738897Y-72027215D01*
X84734286Y-72019538D01*
X84736112Y-72011338D01*
X84922400Y-71730841D01*
X84925666Y-71727575D01*
X85206163Y-71541286D01*
X85214951Y-71539564D01*
X85222040Y-71544072D01*
G37*
%TD.AperFunction*%
%TD*%
%TA.AperFunction,Conductor*%
%TO.N,/MST_IO23*%
G36*
X164573933Y-98520061D02*
G01*
X164578294Y-98527039D01*
X164644943Y-98857271D01*
X164644943Y-98861901D01*
X164578363Y-99191791D01*
X164573367Y-99199222D01*
X164564987Y-99201019D01*
X163960929Y-99101204D01*
X163953325Y-99096475D01*
X163951136Y-99089661D01*
X163951136Y-98609830D01*
X163954563Y-98601557D01*
X163961288Y-98598233D01*
X164565281Y-98517756D01*
X164573933Y-98520061D01*
G37*
%TD.AperFunction*%
%TD*%
%TA.AperFunction,Conductor*%
%TO.N,/MST_IO23*%
G36*
X82512040Y-71544072D02*
G01*
X82875407Y-72034924D01*
X82877575Y-72043612D01*
X82874276Y-72050158D01*
X82534983Y-72389451D01*
X82526710Y-72392878D01*
X82519749Y-72390582D01*
X82028897Y-72027215D01*
X82024286Y-72019538D01*
X82026112Y-72011338D01*
X82212400Y-71730841D01*
X82215666Y-71727575D01*
X82496163Y-71541286D01*
X82504951Y-71539564D01*
X82512040Y-71544072D01*
G37*
%TD.AperFunction*%
%TD*%
%TA.AperFunction,Conductor*%
%TO.N,Net-(D3.6-K)*%
G36*
X154184196Y-92969971D02*
G01*
X155275849Y-93525793D01*
X155838255Y-93812146D01*
X155844072Y-93818953D01*
X155843372Y-93827881D01*
X155842681Y-93829063D01*
X155296415Y-94648346D01*
X155293171Y-94651590D01*
X154473888Y-95197856D01*
X154465103Y-95199594D01*
X154457662Y-95194612D01*
X154456971Y-95193430D01*
X153762294Y-93829063D01*
X153614796Y-93539373D01*
X153614097Y-93530447D01*
X153616948Y-93525795D01*
X154170619Y-92972124D01*
X154178891Y-92968698D01*
X154184196Y-92969971D01*
G37*
%TD.AperFunction*%
%TD*%
%TA.AperFunction,Conductor*%
%TO.N,Net-(D3.6-K)*%
G36*
X146572771Y-67330337D02*
G01*
X146577587Y-67334041D01*
X147325907Y-68313287D01*
X147328208Y-68321941D01*
X147326054Y-68327298D01*
X146600285Y-69319507D01*
X146592635Y-69324162D01*
X146586590Y-69323500D01*
X145098361Y-68742905D01*
X145091899Y-68736706D01*
X145090913Y-68732005D01*
X145090913Y-67947820D01*
X145094340Y-67939547D01*
X145098136Y-67937010D01*
X146563817Y-67330334D01*
X146572771Y-67330337D01*
G37*
%TD.AperFunction*%
%TD*%
%TA.AperFunction,Conductor*%
%TO.N,/5V*%
G36*
X139060472Y-86784155D02*
G01*
X139064545Y-86790914D01*
X139160536Y-87268599D01*
X139160536Y-87273209D01*
X139064545Y-87750893D01*
X139059555Y-87758329D01*
X139051895Y-87760227D01*
X138700661Y-87724668D01*
X138180128Y-87671969D01*
X138172243Y-87667727D01*
X138169607Y-87660329D01*
X138169607Y-86881478D01*
X138173034Y-86873205D01*
X138180125Y-86869839D01*
X139051897Y-86781579D01*
X139060472Y-86784155D01*
G37*
%TD.AperFunction*%
%TD*%
%TA.AperFunction,Conductor*%
%TO.N,/5V*%
G36*
X112420722Y-98531053D02*
G01*
X112421057Y-98531375D01*
X112971704Y-99082022D01*
X112975131Y-99090295D01*
X112973488Y-99096273D01*
X112521435Y-99856789D01*
X112514262Y-99862150D01*
X112505400Y-99860868D01*
X112504897Y-99860552D01*
X112098704Y-99590293D01*
X112098711Y-99590281D01*
X112098665Y-99590267D01*
X111695023Y-99319415D01*
X111690062Y-99311960D01*
X111691827Y-99303181D01*
X111692939Y-99301771D01*
X112404192Y-98531708D01*
X112412320Y-98527957D01*
X112420722Y-98531053D01*
G37*
%TD.AperFunction*%
%TD*%
%TA.AperFunction,Conductor*%
%TO.N,/5V*%
G36*
X140139872Y-86869838D02*
G01*
X140147757Y-86874080D01*
X140150393Y-86881478D01*
X140150393Y-87660329D01*
X140146966Y-87668602D01*
X140139871Y-87671969D01*
X139268103Y-87760228D01*
X139259527Y-87757652D01*
X139255454Y-87750893D01*
X139159463Y-87273209D01*
X139159463Y-87268599D01*
X139255454Y-86790912D01*
X139260444Y-86783478D01*
X139268100Y-86781579D01*
X140139872Y-86869838D01*
G37*
%TD.AperFunction*%
%TD*%
%TA.AperFunction,Conductor*%
%TO.N,/5V*%
G36*
X102813808Y-99684921D02*
G01*
X102821244Y-99689911D01*
X102823061Y-99698209D01*
X102685965Y-100570096D01*
X102681295Y-100577737D01*
X102674407Y-100579979D01*
X101994415Y-100579979D01*
X101986142Y-100576552D01*
X101982857Y-100570096D01*
X101845760Y-99698209D01*
X101847860Y-99689504D01*
X101855011Y-99684921D01*
X102332107Y-99589049D01*
X102336715Y-99589049D01*
X102813808Y-99684921D01*
G37*
%TD.AperFunction*%
%TD*%
%TA.AperFunction,Conductor*%
%TO.N,/5V*%
G36*
X151550598Y-100416463D02*
G01*
X151555462Y-100423818D01*
X151680538Y-101047700D01*
X151680538Y-101052300D01*
X151555538Y-101675801D01*
X151550551Y-101683239D01*
X151541766Y-101684973D01*
X151541532Y-101684923D01*
X150401656Y-101432033D01*
X150394321Y-101426896D01*
X150392490Y-101420611D01*
X150392490Y-100639711D01*
X150395917Y-100631438D01*
X150402034Y-100628211D01*
X151541835Y-100414618D01*
X151550598Y-100416463D01*
G37*
%TD.AperFunction*%
%TD*%
%TA.AperFunction,Conductor*%
%TO.N,/3.3V*%
G36*
X129853878Y-130102424D02*
G01*
X129856848Y-130107460D01*
X130237949Y-131431145D01*
X130236945Y-131440043D01*
X130234435Y-131443165D01*
X129512140Y-132078784D01*
X129503666Y-132081677D01*
X129496682Y-132078784D01*
X129197200Y-131815240D01*
X128774385Y-131443163D01*
X128770439Y-131435127D01*
X128770871Y-131431149D01*
X129151974Y-130107459D01*
X129157556Y-130100458D01*
X129163217Y-130098997D01*
X129845605Y-130098997D01*
X129853878Y-130102424D01*
G37*
%TD.AperFunction*%
%TD*%
%TA.AperFunction,Conductor*%
%TO.N,/3.3V*%
G36*
X84569984Y-113056419D02*
G01*
X84573411Y-113064692D01*
X84569984Y-113072965D01*
X84563203Y-113076296D01*
X83952378Y-113154850D01*
X83943736Y-113152507D01*
X83939282Y-113144738D01*
X83941625Y-113136096D01*
X83943549Y-113134132D01*
X84041199Y-113055576D01*
X84048533Y-113052992D01*
X84561711Y-113052992D01*
X84569984Y-113056419D01*
G37*
%TD.AperFunction*%
%TD*%
%TA.AperFunction,Conductor*%
%TO.N,/3.3V*%
G36*
X102234333Y-94493129D02*
G01*
X102239124Y-94500430D01*
X102334947Y-94977281D01*
X102334947Y-94981891D01*
X102239027Y-95459222D01*
X102234037Y-95466658D01*
X102225993Y-95468512D01*
X101354155Y-95350952D01*
X101346413Y-95346450D01*
X101344018Y-95339357D01*
X101344018Y-94659371D01*
X101347445Y-94651098D01*
X101353646Y-94647856D01*
X102225585Y-94491219D01*
X102234333Y-94493129D01*
G37*
%TD.AperFunction*%
%TD*%
%TA.AperFunction,Conductor*%
%TO.N,/12V_COI*%
G36*
X161181030Y-120028301D02*
G01*
X161183494Y-120030976D01*
X162002999Y-121259682D01*
X162004738Y-121268466D01*
X162001538Y-121274447D01*
X160954894Y-122321091D01*
X160946621Y-122324518D01*
X160939529Y-122322123D01*
X159726286Y-121397419D01*
X159721783Y-121389679D01*
X159721859Y-121386060D01*
X159937981Y-120176766D01*
X159942809Y-120169227D01*
X159948152Y-120167205D01*
X161172419Y-120025845D01*
X161181030Y-120028301D01*
G37*
%TD.AperFunction*%
%TD*%
M02*
